<svg width="180" height="172" viewBox="0 0 180 172" fill="none" xmlns="http://www.w3.org/2000/svg">
<path d="M24.0638 75.423L73.4958 80.8868L80.5038 76.8419C83.8558 74.9114 88.9038 74.6996 91.8238 76.3743L105.824 84.46L180 92.6536V122.49H179.968C179.944 123.761 179.04 125.092 177.228 126.136L123.544 157.1C120.196 159.034 115.144 159.242 112.228 157.571L25.9998 107.83C24.5278 106.978 23.9038 105.807 24.0798 104.604L24.0638 75.423Z" fill="url(#paint0_linear)"/>
<path d="M24.0637 69.3196L28.3397 70.7265L80.5037 40.6339C83.8557 38.6994 88.9037 38.4916 91.8237 40.1623L104.56 47.5126V49.8508L163.276 83.7244L165.276 82.5254L175.6 88.4967L180 86.7541V96.1788H179.96C180.016 97.4897 179.112 98.8687 177.228 99.9558L123.544 130.924C120.196 132.858 115.144 133.066 112.228 131.395L25.9997 81.654C24.7357 80.9266 24.1277 79.9634 24.0797 78.9482H24.0557L24.0637 69.3196Z" fill="url(#paint1_linear)"/>
<path d="M177.228 98.7328L123.544 129.705C120.196 131.635 115.144 131.847 112.228 130.172L25.9997 80.435C24.7357 79.7036 24.1277 78.7443 24.0797 77.7251H24.0557V78.9481H24.0797C24.1277 79.9634 24.7357 80.9266 25.9997 81.654L112.228 131.395C115.128 133.066 120.196 132.858 123.544 130.924L177.228 99.9558C179.112 98.8687 180.028 97.4897 179.96 96.1788H180V94.9557H179.96C180 96.2707 179.112 97.6496 177.228 98.7328Z" fill="black"/>
<path d="M177.228 121.515L123.544 152.487C120.196 154.418 115.144 154.63 112.228 152.955L25.9997 103.218C24.7357 102.486 24.1277 101.527 24.0797 100.508H24.0557V101.731H24.0797C24.1277 102.746 24.7357 103.709 25.9997 104.437L112.228 154.178C115.128 155.849 120.196 155.641 123.544 153.706L177.228 122.739C179.112 121.651 180.028 120.272 179.96 118.957H180V117.758H179.96C180 119.053 179.112 120.432 177.228 121.515Z" fill="url(#paint2_linear)"/>
<path d="M120.892 0.912993L167.692 27.912C171.544 30.1343 173.996 35.7059 173.176 40.3623L166.524 78.069L105.78 43.0243L112.436 5.31757C113.256 0.665185 117.044 -1.30928 120.892 0.912993Z" fill="url(#paint3_linear)"/>
<path d="M119.672 1.78812L166.472 28.7911C170.32 31.0134 172.776 36.5851 171.956 41.2415L165.3 78.9481L104.56 43.9034L111.2 6.19669C112.036 1.54031 115.82 -0.430155 119.672 1.78812Z" fill="url(#paint4_linear)"/>
<path d="M25.9999 72.1856L112.228 121.923C115.128 123.598 120.196 123.386 123.544 121.455L177.228 90.4833C180.58 88.5528 180.944 85.6271 178.028 83.9564L165.264 76.5901L163.264 77.7892L104.56 43.9035V41.5614L91.8239 34.2151C88.9199 32.5404 83.8559 32.7522 80.5039 34.6827L26.8199 65.6546C23.4719 67.5851 23.1079 70.5109 25.9999 72.1856Z" fill="url(#paint5_linear)"/>
<path d="M70.2476 64.9833L124.712 96.3909C126.444 97.3901 129.476 97.2662 131.476 96.1111L163.276 77.7654L104.56 43.9037V41.5615L70.7316 61.0784C68.7316 62.2335 68.5116 63.9801 70.2476 64.9833Z" fill="url(#paint6_linear)"/>
<path d="M124.712 96.391L70.2481 64.9834C69.9903 64.8182 69.7641 64.6084 69.5801 64.3639C69.9045 63.9821 70.2947 63.6613 70.7321 63.4166L104.56 43.9038L163.276 77.7775L131.476 96.1232C129.476 97.2783 126.444 97.4022 124.712 96.391Z" fill="url(#paint7_linear)"/>
<path d="M156.612 79.46L102.516 48.2483C101.788 47.8486 101.88 47.1012 102.72 46.6175C103.591 46.1305 104.642 46.086 105.552 46.4976L159.648 77.7094C160.372 78.1091 160.284 78.8565 159.444 79.3401C158.572 79.8252 157.522 79.8697 156.612 79.46Z" fill="black"/>
<path d="M111.34 47.8123L112.292 42.4045C112.292 42.3565 112.332 42.3246 112.344 42.2766L111.584 41.725L113.408 40.6219V40.6419C114.072 40.2783 114.883 40.3105 115.516 40.7258L157.392 64.887C158.86 65.7304 159.792 67.8567 159.48 69.6273L158.524 75.0351L156.828 76.0583L156.128 73.6602L111.34 47.8123Z" fill="url(#paint8_linear)"/>
<path d="M113.816 41.7494L155.692 65.9067C157.16 66.754 158.092 68.8763 157.784 70.651L156.828 76.0588L109.64 48.8279L110.596 43.4201C110.908 41.6535 112.352 40.9021 113.816 41.7494Z" fill="url(#paint9_linear)"/>
<path d="M42.5081 98.817L96.1881 129.785C98.2058 130.947 99.4489 133.097 99.4481 135.425V150.321L38.7041 115.276V101.011C38.7042 100.106 39.1876 99.2696 39.9722 98.817C40.7568 98.3644 41.7235 98.3644 42.5081 98.817Z" fill="black"/>
<path d="M42.5039 98.8486L96.1879 129.821C98.2056 130.983 99.4487 133.133 99.4479 135.46V142.075L42.5039 109.225V98.8486Z" fill="url(#paint10_linear)"/>
<path d="M38.7043 115.276L99.4483 148.426V150.321L76.9403 163.478L16.1963 128.438V126.543L38.7043 115.276Z" fill="url(#paint11_linear)"/>
<path d="M38.7043 113.381L99.4483 148.426L76.9403 161.588L16.1963 126.543L38.7043 113.381Z" fill="url(#paint12_linear)"/>
<path d="M5.756 142.391L50.004 116.971L90.636 140.412L95.648 139.713V143.302L45.644 172L0 145.668V142.075L5.756 142.391Z" fill="url(#paint13_linear)"/>
<path d="M45.644 168.407L95.648 139.713L50.004 113.381L0 142.075L45.644 168.407Z" fill="url(#paint14_linear)"/>
<path d="M35.2759 77.5294L25.9999 72.1856C23.0999 70.5109 23.4639 67.5851 26.7999 65.6546L80.4839 34.6827C83.8359 32.7522 88.8839 32.5404 91.8039 34.2151L101.072 39.5629L35.2759 77.5294Z" fill="url(#paint15_linear)"/>
<path d="M36.4244 78.193L35.2764 77.5295L101.092 39.563L102.24 40.2265L36.4244 78.193Z" fill="black"/>
<path d="M38.3998 67.2132L33.6838 64.4953C33.3958 64.3275 33.4318 64.0357 33.7638 63.8398L34.9198 63.1724C35.2689 62.9795 35.6888 62.9632 36.0518 63.1284L40.7678 65.8463C41.0598 66.0142 41.0238 66.3059 40.6878 66.5018L39.5318 67.1693C39.1827 67.3621 38.7628 67.3784 38.3998 67.2132Z" fill="url(#paint16_linear)"/>
<path d="M42.9158 69.8275L41.5998 69.0681C41.3078 68.9002 41.3438 68.6084 41.6798 68.4126L42.8358 67.7451C43.1849 67.5522 43.6048 67.5359 43.9678 67.7011L45.2838 68.4606C45.5758 68.6284 45.5398 68.9202 45.2038 69.1121L44.0478 69.7795C43.6994 69.9737 43.2795 69.9915 42.9158 69.8275Z" fill="url(#paint17_linear)"/>
<path d="M42.976 64.5677L38.26 61.8498C37.968 61.682 38.004 61.3902 38.34 61.1943L39.496 60.5269C39.8451 60.334 40.265 60.3177 40.628 60.4829L45.344 63.2008C45.636 63.3686 45.596 63.6604 45.264 63.8563L44.108 64.5237C43.7589 64.7166 43.339 64.7329 42.976 64.5677Z" fill="url(#paint18_linear)"/>
<path d="M71.6322 50.6465L66.9162 47.9286C66.6282 47.7607 66.6642 47.4689 66.9962 47.2731L68.1522 46.6096C68.5001 46.4135 68.9209 46.3957 69.2842 46.5616L74.0002 49.2835C74.2922 49.4474 74.2562 49.7432 73.9202 49.935L72.7642 50.6025C72.4151 50.7954 71.9952 50.8117 71.6322 50.6465Z" fill="url(#paint19_linear)"/>
<path d="M75.5116 48.428L70.7996 45.6862C70.5116 45.5223 70.5476 45.2265 70.8836 45.0347L72.0396 44.3672C72.3887 44.1743 72.8086 44.158 73.1716 44.3232L77.8876 47.0411C78.1756 47.209 78.1396 47.5007 77.8036 47.6966L76.6476 48.3601C76.3019 48.564 75.8792 48.5893 75.5116 48.428Z" fill="url(#paint20_linear)"/>
<path d="M79.3959 46.17L74.6799 43.4481C74.3879 43.2803 74.4239 42.9885 74.7599 42.7966L75.9159 42.1292C76.2644 41.935 76.6843 41.9172 77.0479 42.0812L81.7639 44.8031C82.0519 44.9709 82.0159 45.2627 81.6839 45.4546L80.5279 46.122C80.18 46.3181 79.7592 46.336 79.3959 46.17Z" fill="url(#paint21_linear)"/>
<path d="M85.5398 45.2307L78.5598 41.2098C78.2718 41.0419 78.3078 40.7502 78.6398 40.5583L79.7958 39.8908C80.1437 39.6948 80.5645 39.6769 80.9278 39.8429L87.9078 43.8717C88.1998 44.0356 88.1638 44.3314 87.8278 44.5232L86.6718 45.1907C86.322 45.3823 85.9022 45.3971 85.5398 45.2307Z" fill="url(#paint22_linear)"/>
<path d="M47.5044 67.1815L46.1844 66.4221C45.8964 66.2542 45.9324 65.9584 46.2684 65.7666L47.4204 65.0991C47.7695 64.9062 48.1894 64.8899 48.5524 65.0552L49.8724 65.8146C50.1604 65.9824 50.1244 66.2742 49.7924 66.4661L48.6364 67.1335C48.2879 67.3277 47.868 67.3455 47.5044 67.1815Z" fill="url(#paint23_linear)"/>
<path d="M55.0323 62.837L45.7883 57.5051C45.4963 57.3373 45.5323 57.0455 45.8683 56.8536L54.9523 51.6257C55.3002 51.4296 55.7211 51.4118 56.0843 51.5777L65.3283 56.9096C65.6163 57.0775 65.5803 57.3692 65.2443 57.5611L56.1643 62.801C55.8145 62.9933 55.3937 63.0066 55.0323 62.837Z" fill="url(#paint24_linear)"/>
<path d="M29.6836 70.9024C29.055 71.2208 28.3122 71.2208 27.6836 70.9024C27.1276 70.5827 27.1276 70.0631 27.6836 69.7393C28.3131 69.4248 29.0541 69.4248 29.6836 69.7393C30.2396 70.0631 30.2396 70.5827 29.6836 70.9024Z" fill="url(#paint25_linear)"/>
<path d="M35.5997 74.3082C34.9702 74.6227 34.2292 74.6227 33.5997 74.3082C33.0397 73.9884 33.0397 73.4648 33.5997 73.1451C34.2292 72.8305 34.9702 72.8305 35.5997 73.1451C36.1437 73.4648 36.1437 74.0084 35.5997 74.3082Z" fill="url(#paint26_linear)"/>
<path d="M83.8524 94.66L78.2004 91.3985C78.0204 91.2946 78.0444 91.1188 78.2484 90.9988L83.8004 87.8013C84.0159 87.6863 84.2723 87.676 84.4964 87.7734L90.1484 91.0348C90.3244 91.1387 90.3004 91.3146 90.0964 91.4345L84.5444 94.632C84.3299 94.7458 84.0753 94.7561 83.8524 94.66Z" fill="url(#paint27_linear)"/>
<defs>
<linearGradient id="paint0_linear" x1="180" y1="75.2455" x2="24.0598" y2="75.2455" gradientUnits="userSpaceOnUse">
<stop stop-color="#E4EAF2"/>
<stop offset="0.2" stop-color="#E2E8F0"/>
<stop offset="0.27" stop-color="#DCE1E9"/>
<stop offset="0.32" stop-color="#D0D6DE"/>
<stop offset="0.36" stop-color="#C0C5CD"/>
<stop offset="0.39" stop-color="#ABB0B7"/>
<stop offset="0.41" stop-color="#9CA0A7"/>
</linearGradient>
<linearGradient id="paint1_linear" x1="24.3997" y1="132.382" x2="179.872" y2="132.382" gradientUnits="userSpaceOnUse">
<stop offset="0.57" stop-color="#030405"/>
<stop offset="0.59" stop-color="#101114"/>
<stop offset="0.64" stop-color="#1E2025"/>
<stop offset="0.7" stop-color="#292B30"/>
<stop offset="0.78" stop-color="#2E3137"/>
<stop offset="1" stop-color="#303339"/>
</linearGradient>
<linearGradient id="paint2_linear" x1="24.0637" y1="155.304" x2="180" y2="155.304" gradientUnits="userSpaceOnUse">
<stop stop-color="#030405"/>
<stop offset="0.25" stop-color="#060708"/>
<stop offset="0.47" stop-color="#0F1113"/>
<stop offset="0.67" stop-color="#1E2125"/>
<stop offset="0.86" stop-color="#34373D"/>
<stop offset="1" stop-color="#474C54"/>
</linearGradient>
<linearGradient id="paint3_linear" x1="173.34" y1="-0.00260374" x2="105.78" y2="-0.00260374" gradientUnits="userSpaceOnUse">
<stop stop-color="#E4EAF2"/>
<stop offset="0.34" stop-color="#DEE4EC"/>
<stop offset="1" stop-color="#D7DDE6"/>
</linearGradient>
<linearGradient id="paint4_linear" x1="104.56" y1="78.9473" x2="172.116" y2="78.9473" gradientUnits="userSpaceOnUse">
<stop stop-color="#C9D0D9"/>
<stop offset="0.42" stop-color="#C3C9D2"/>
<stop offset="1" stop-color="#B4B8C0"/>
</linearGradient>
<linearGradient id="paint5_linear" x1="4.87592" y1="76.366" x2="50.9649" y2="159.705" gradientUnits="userSpaceOnUse">
<stop stop-color="#474A4C"/>
<stop offset="1" stop-color="#66666C"/>
</linearGradient>
<linearGradient id="paint6_linear" x1="118.331" y1="90.2494" x2="137.791" y2="57.7656" gradientUnits="userSpaceOnUse">
<stop stop-color="#030405"/>
<stop offset="0.2" stop-color="#0F1012"/>
<stop offset="0.71" stop-color="#27292E"/>
<stop offset="1" stop-color="#303339"/>
</linearGradient>
<linearGradient id="paint7_linear" x1="173.048" y1="101.417" x2="167.985" y2="51.9269" gradientUnits="userSpaceOnUse">
<stop stop-color="#4C4E51"/>
<stop offset="0.25" stop-color="#424446"/>
<stop offset="0.69" stop-color="#27292A"/>
<stop offset="1" stop-color="#101213"/>
</linearGradient>
<linearGradient id="paint8_linear" x1="171.771" y1="83.7405" x2="164.796" y2="43.1086" gradientUnits="userSpaceOnUse">
<stop stop-color="#474A4C"/>
<stop offset="1" stop-color="#66666C"/>
</linearGradient>
<linearGradient id="paint9_linear" x1="109.64" y1="76.0616" x2="157.844" y2="76.0616" gradientUnits="userSpaceOnUse">
<stop stop-color="#030405"/>
<stop offset="0.17" stop-color="#111215"/>
<stop offset="0.44" stop-color="#222429"/>
<stop offset="0.72" stop-color="#2D2F35"/>
<stop offset="1" stop-color="#303339"/>
</linearGradient>
<linearGradient id="paint10_linear" x1="83.433" y1="128.085" x2="83.433" y2="117.752" gradientUnits="userSpaceOnUse">
<stop stop-color="#030405"/>
<stop offset="0.17" stop-color="#111215"/>
<stop offset="0.44" stop-color="#222429"/>
<stop offset="0.72" stop-color="#2D2F35"/>
<stop offset="1" stop-color="#303339"/>
</linearGradient>
<linearGradient id="paint11_linear" x1="16.1963" y1="163.478" x2="99.4483" y2="163.478" gradientUnits="userSpaceOnUse">
<stop offset="0.57" stop-color="#030405"/>
<stop offset="0.6" stop-color="#101114"/>
<stop offset="0.65" stop-color="#1E2025"/>
<stop offset="0.7" stop-color="#292B30"/>
<stop offset="0.78" stop-color="#2E3137"/>
<stop offset="1" stop-color="#303339"/>
</linearGradient>
<linearGradient id="paint12_linear" x1="16.1963" y1="161.586" x2="99.4483" y2="161.586" gradientUnits="userSpaceOnUse">
<stop stop-color="#474A4C"/>
<stop offset="1" stop-color="#66666C"/>
</linearGradient>
<linearGradient id="paint13_linear" x1="0.066867" y1="171.6" x2="95.6729" y2="174.05" gradientUnits="userSpaceOnUse">
<stop offset="0.46" stop-color="#C0CBDA"/>
<stop offset="0.46" stop-color="#C4CEDC"/>
<stop offset="0.48" stop-color="#DAE0E9"/>
<stop offset="0.51" stop-color="#EBEEF3"/>
<stop offset="0.53" stop-color="#F6F8FA"/>
<stop offset="0.57" stop-color="#FDFDFE"/>
<stop offset="0.68" stop-color="white"/>
</linearGradient>
<linearGradient id="paint14_linear" x1="92.2747" y1="168.356" x2="93.9859" y2="114.245" gradientUnits="userSpaceOnUse">
<stop stop-color="#E4EAF2"/>
<stop offset="1" stop-color="white"/>
</linearGradient>
<linearGradient id="paint15_linear" x1="44.32" y1="49.9233" x2="48.9835" y2="62.9248" gradientUnits="userSpaceOnUse">
<stop stop-color="#4C4E51"/>
<stop offset="0.25" stop-color="#424446"/>
<stop offset="0.69" stop-color="#27292A"/>
<stop offset="1" stop-color="#101213"/>
</linearGradient>
<linearGradient id="paint16_linear" x1="33.3968" y1="64.3483" x2="36.295" y2="69.3528" gradientUnits="userSpaceOnUse">
<stop stop-color="#5B5E61"/>
<stop offset="1" stop-color="#7E7E82"/>
</linearGradient>
<linearGradient id="paint17_linear" x1="487.26" y1="-332.826" x2="489.996" y2="-332.826" gradientUnits="userSpaceOnUse">
<stop stop-color="#5B5E61"/>
<stop offset="1" stop-color="#7E7E82"/>
</linearGradient>
<linearGradient id="paint18_linear" x1="478.108" y1="-336.279" x2="484.768" y2="-336.279" gradientUnits="userSpaceOnUse">
<stop stop-color="#5B5E61"/>
<stop offset="1" stop-color="#7E7E82"/>
</linearGradient>
<linearGradient id="paint19_linear" x1="480.724" y1="-362.651" x2="487.384" y2="-362.651" gradientUnits="userSpaceOnUse">
<stop stop-color="#5B5E61"/>
<stop offset="1" stop-color="#7E7E82"/>
</linearGradient>
<linearGradient id="paint20_linear" x1="480.724" y1="-366.522" x2="487.384" y2="-366.522" gradientUnits="userSpaceOnUse">
<stop stop-color="#5B5E61"/>
<stop offset="1" stop-color="#7E7E82"/>
</linearGradient>
<linearGradient id="paint21_linear" x1="480.724" y1="-370.407" x2="487.384" y2="-370.407" gradientUnits="userSpaceOnUse">
<stop stop-color="#5B5E61"/>
<stop offset="1" stop-color="#7E7E82"/>
</linearGradient>
<linearGradient id="paint22_linear" x1="480.724" y1="-373.533" x2="489.996" y2="-373.533" gradientUnits="userSpaceOnUse">
<stop stop-color="#5B5E61"/>
<stop offset="1" stop-color="#7E7E82"/>
</linearGradient>
<linearGradient id="paint23_linear" x1="487.26" y1="-337.41" x2="489.996" y2="-337.41" gradientUnits="userSpaceOnUse">
<stop stop-color="#5B5E61"/>
<stop offset="1" stop-color="#7E7E82"/>
</linearGradient>
<linearGradient id="paint24_linear" x1="478.108" y1="-346.256" x2="489.996" y2="-346.256" gradientUnits="userSpaceOnUse">
<stop stop-color="#5B5E61"/>
<stop offset="1" stop-color="#7E7E82"/>
</linearGradient>
<linearGradient id="paint25_linear" x1="30.6462" y1="70.6815" x2="31.6542" y2="68.9323" gradientUnits="userSpaceOnUse">
<stop stop-color="#FF6E00"/>
<stop offset="1" stop-color="#FF668C"/>
</linearGradient>
<linearGradient id="paint26_linear" x1="36.5758" y1="74.0875" x2="37.5845" y2="72.3383" gradientUnits="userSpaceOnUse">
<stop stop-color="#00E8DC"/>
<stop offset="1" stop-color="#009C00"/>
</linearGradient>
<linearGradient id="paint27_linear" x1="78.0804" y1="94.7241" x2="90.2684" y2="94.7241" gradientUnits="userSpaceOnUse">
<stop stop-color="#404143"/>
<stop offset="0.31" stop-color="#353738"/>
<stop offset="0.85" stop-color="#191B1C"/>
<stop offset="1" stop-color="#101213"/>
</linearGradient>
</defs>
</svg>
