<?xml version="1.0" encoding="UTF-8"?>
<svg width="42px" height="51px" viewBox="0 0 42 51" version="1.1" xmlns="http://www.w3.org/2000/svg" xmlns:xlink="http://www.w3.org/1999/xlink">
    <title>savings</title>
    <defs>
        <linearGradient x1="27.1616654%" y1="29.6094645%" x2="93.7525104%" y2="89.0639036%" id="linearGradient-1">
            <stop stop-color="#FF4974" offset="0%"></stop>
            <stop stop-color="#FE4672" offset="32.62%"></stop>
            <stop stop-color="#FB3E6C" offset="53.24%"></stop>
            <stop stop-color="#F52F60" offset="70.54%"></stop>
            <stop stop-color="#EE1A51" offset="85.91%"></stop>
            <stop stop-color="#E4003D" offset="100%"></stop>
        </linearGradient>
        <linearGradient x1="50.2249578%" y1="50.2047201%" x2="46.1037318%" y2="46.453193%" id="linearGradient-2">
            <stop stop-color="#E4003D" stop-opacity="0" offset="0%"></stop>
            <stop stop-color="#BD294B" stop-opacity="0.584314" offset="58.38%"></stop>
            <stop stop-color="#A64153" offset="100%"></stop>
        </linearGradient>
        <linearGradient x1="47.2792383%" y1="47.920055%" x2="40.4451346%" y2="32.5870196%" id="linearGradient-3">
            <stop stop-color="#E4003D" stop-opacity="0" offset="0%"></stop>
            <stop stop-color="#BD294B" stop-opacity="0.584314" offset="58.38%"></stop>
            <stop stop-color="#A64153" offset="100%"></stop>
        </linearGradient>
        <radialGradient cx="47.5720052%" cy="48.2763161%" fx="47.5720052%" fy="48.2763161%" r="52.1009637%" gradientTransform="translate(0.475720,0.482763),scale(0.999531,1.000000),translate(-0.475720,-0.482763)" id="radialGradient-4">
            <stop stop-color="#FFA700" offset="0%"></stop>
            <stop stop-color="#FCA300" offset="32.27%"></stop>
            <stop stop-color="#F39600" offset="66.49%"></stop>
            <stop stop-color="#E58200" offset="100%"></stop>
        </radialGradient>
        <linearGradient x1="50.0004653%" y1="40.6744149%" x2="50.0004653%" y2="146.154533%" id="linearGradient-5">
            <stop stop-color="#E58200" stop-opacity="0" offset="0%"></stop>
            <stop stop-color="#E27F04" stop-opacity="0.039216" offset="3.96%"></stop>
            <stop stop-color="#C15D2F" stop-opacity="0.466667" offset="46.71%"></stop>
            <stop stop-color="#AD4949" stop-opacity="0.8" offset="80.16%"></stop>
            <stop stop-color="#A64153" offset="100%"></stop>
        </linearGradient>
        <radialGradient cx="34.1046393%" cy="36.4704364%" fx="34.1046393%" fy="36.4704364%" r="76.0342978%" gradientTransform="translate(0.341046,0.364704),scale(1.000000,0.923919),translate(-0.341046,-0.364704)" id="radialGradient-6">
            <stop stop-color="#FFC738" offset="0%"></stop>
            <stop stop-color="#FFC534" offset="28.37%"></stop>
            <stop stop-color="#FFBF29" offset="53.91%"></stop>
            <stop stop-color="#FFB417" offset="78.27%"></stop>
            <stop stop-color="#FFA700" offset="100%"></stop>
        </radialGradient>
        <radialGradient cx="55.1182145%" cy="43.588356%" fx="55.1182145%" fy="43.588356%" r="78.2533023%" gradientTransform="translate(0.551182,0.435884),scale(1.000000,0.916965),translate(-0.551182,-0.435884)" id="radialGradient-7">
            <stop stop-color="#FFA700" offset="0%"></stop>
            <stop stop-color="#FCA300" offset="32.27%"></stop>
            <stop stop-color="#F39600" offset="66.49%"></stop>
            <stop stop-color="#E58200" offset="100%"></stop>
        </radialGradient>
        <radialGradient cx="29.2030535%" cy="32.5830687%" fx="29.2030535%" fy="32.5830687%" r="87.0166535%" gradientTransform="translate(0.292031,0.325831),scale(1.000000,0.849769),translate(-0.292031,-0.325831)" id="radialGradient-8">
            <stop stop-color="#FFC738" offset="0%"></stop>
            <stop stop-color="#FFC534" offset="28.37%"></stop>
            <stop stop-color="#FFBF29" offset="53.91%"></stop>
            <stop stop-color="#FFB417" offset="78.27%"></stop>
            <stop stop-color="#FFA700" offset="100%"></stop>
        </radialGradient>
        <linearGradient x1="58.0315745%" y1="52.9664386%" x2="48.057008%" y2="50.1871241%" id="linearGradient-9">
            <stop stop-color="#E4003D" stop-opacity="0" offset="0%"></stop>
            <stop stop-color="#BD294B" stop-opacity="0.584314" offset="58.38%"></stop>
            <stop stop-color="#A64153" offset="100%"></stop>
        </linearGradient>
        <linearGradient x1="46.2545977%" y1="39.7583661%" x2="72.3944351%" y2="82.893596%" id="linearGradient-10">
            <stop stop-color="#FFFCF8" offset="0%"></stop>
            <stop stop-color="#FAF8F6" offset="18.75%"></stop>
            <stop stop-color="#ECEEF2" offset="40.41%"></stop>
            <stop stop-color="#D5DCEA" offset="63.53%"></stop>
            <stop stop-color="#B5C4DF" offset="87.5%"></stop>
            <stop stop-color="#A1B5D8" offset="100%"></stop>
        </linearGradient>
    </defs>
    <g id="Page-1" stroke="none" stroke-width="1" fill="none" fill-rule="evenodd">
        <g id="Mining-Provider-Windows-Dashboard-Design-07" transform="translate(-568.000000, -532.000000)" fill-rule="nonzero">
            <g id="Mining-app-design" transform="translate(320.000000, 160.000000)">
                <g id="My-Balance" transform="translate(216.000000, 299.000000)">
                    <g id="savings" transform="translate(32.000000, 73.000000)">
                        <path d="M42,17.6682129 L42,45.8288727 C42,48.6844711 39.6837734,50.9996109 36.8264452,50.9996109 L4.18750403,50.9996109 C1.87478103,50.9996109 0,49.1260986 0,46.8144608 L0,17.668602 C0,15.3569641 1.87478103,13.4830627 4.18750403,13.4830627 L37.812496,13.4830627 C40.125219,13.4830627 42,15.3569641 42,17.6682129 L42,17.6682129 Z" id="Path" fill="url(#linearGradient-1)"></path>
                        <path d="M37.9970155,20.6837311 L4.46272627,20.6837311 C2.96321287,20.6837311 1.74787512,19.4689636 1.74787512,17.9701538 C1.74787512,16.471344 2.96321287,15.2565765 4.46272627,15.2565765 L37.9970155,15.2565765 C39.4965289,15.2565765 40.7118666,16.471344 40.7118666,17.9701538 C40.7118666,19.4689636 39.4965289,20.6837311 37.9970155,20.6837311 Z" id="Path" fill="url(#linearGradient-2)"></path>
                        <path d="M37.812496,13.4830627 L33.764744,13.4830627 L33.764744,38.9628296 L36.8264452,38.9628296 C39.6833841,38.9628296 42,36.6473007 42,33.7917023 L42,17.6682129 C42,15.3569641 40.125219,13.4830627 37.812496,13.4830627 L37.812496,13.4830627 Z" id="Path" fill="url(#linearGradient-3)"></path>
                        <path d="M38.0744826,17.0662765 C38.0744826,26.4918136 30.429767,34.1329422 20.9998053,34.1329422 C11.5698436,34.1329422 3.92551742,26.4918136 3.92551742,17.0662765 C3.92551742,7.64073942 11.5698436,0 20.9998053,0 C30.429767,0 38.0744826,7.64073942 38.0744826,17.0662765 Z" id="Path" fill="url(#radialGradient-4)"></path>
                        <path d="M3.92551742,17.0662765 C3.92551742,23.1576233 7.11879584,28.5026779 11.9229222,31.5224762 L30.0770778,31.5224762 C34.8808149,28.5026779 38.0740933,23.1576233 38.0740933,17.0662765 C38.0740933,10.9749299 34.8808149,5.63026433 30.0770778,2.6100769 L11.9229222,2.6100769 C7.11879584,5.63026433 3.92551742,10.9749299 3.92551742,17.0662765 Z" id="Path" fill="url(#linearGradient-5)"></path>
                        <path d="M3.92551742,17.0662765 C3.92551742,21.4117355 5.55115811,25.3770447 8.22669172,28.3898392 L33.7733083,28.3898392 C36.4484526,25.3770447 38.0744826,21.4117355 38.0744826,17.0662765 C38.0744826,12.7208175 36.4488419,8.75550847 33.7733083,5.74271395 L8.22669172,5.74271395 C5.55115811,8.75550847 3.92551742,12.7208175 3.92551742,17.0662765 Z" id="Path"></path>
                        <path d="M3.92551742,17.0662765 C3.92551742,19.6059265 4.48141179,22.0156173 5.47680527,24.1817322 L36.5231947,24.1817322 C37.5185882,22.0156173 38.0744826,19.6059265 38.0744826,17.0662765 C38.0744826,14.5266266 37.5185882,12.1169357 36.5231947,9.95121005 L5.47680527,9.95121005 C4.48141179,12.1169357 3.92551742,14.5266266 3.92551742,17.0662765 Z" id="Path"></path>
                        <path d="M3.92551742,17.0662765 C3.92551742,18.5362931 4.11198341,19.9627304 4.46194775,21.3237992 L37.5380522,21.3237992 C37.8880166,19.9627304 38.0744826,18.5366821 38.0744826,17.0662765 C38.0744826,15.5962601 37.8880166,14.1698227 37.5380522,12.8091431 L4.46194775,12.8091431 C4.11198341,14.1698227 3.92551742,15.5962601 3.92551742,17.0662765 Z" id="Path"></path>
                        <path d="M19.643937,0.0533065547 C10.8481152,0.744346594 3.92551742,8.09715266 3.92551742,17.0662765 C3.92551742,26.0357895 10.8481152,33.3885955 19.643937,34.0792465 C28.4401479,33.3885955 35.3627457,26.0357895 35.3627457,17.0662765 C35.3627457,8.09715266 28.4401479,0.744346594 19.643937,0.0533065547 Z" id="Path" fill="url(#radialGradient-6)"></path>
                        <path d="M20.5279958,1.61553955 C19.9417375,1.53577426 19.3465256,1.53577426 18.7602673,1.61553955 C11.1478622,2.65054321 5.28099661,9.17340088 5.28099661,17.0662765 C5.28099661,24.9591522 11.1478622,31.482399 18.7602673,32.5174027 C19.3465256,32.597168 19.9417375,32.597168 20.5279958,32.5174027 C28.1404009,31.482399 34.0068773,24.9591522 34.0068773,17.0662765 C34.0068773,9.17340088 28.1404009,2.65054321 20.5279958,1.61553955 Z" id="Path"></path>
                        <path d="M30.9926685,17.0662765 C30.9926685,10.1893387 25.8806203,4.61471558 19.5746448,4.61471558 C13.2690586,4.61471558 8.15701026,10.1893387 8.15701026,17.0662765 C8.15701026,23.9432144 13.2690586,29.5182266 19.5746448,29.5182266 C25.8806203,29.5182266 30.9926685,23.9432144 30.9926685,17.0662765 Z" id="Path" fill="url(#radialGradient-7)"></path>
                        <path d="M22.7095309,5.09058383 C21.2882632,4.6489563 19.7696749,4.6489563 18.3484072,5.09058383 C13.5668592,6.57616422 10.0652696,11.3749237 10.0652696,17.0662765 C10.0652696,22.8689118 13.7050542,27.7439347 18.6302471,29.1256257 C19.8708882,29.4734802 21.1870498,29.4734802 22.4273016,29.1256257 C27.3528839,27.7439347 30.9926685,22.8689118 30.9926685,17.0662765 C30.9926685,11.3749237 27.4910789,6.57616422 22.7095309,5.09058383 Z" id="Path" fill="url(#radialGradient-8)"></path>
                        <path d="M30.8622591,18.9518509 L23.3039642,11.3974915 C23.166937,11.1581955 22.8815935,10.9609222 22.4483228,10.8052825 C22.0033738,10.6453629 21.5292285,10.5368042 21.0266658,10.476883 L20.3633297,9.88545232 C20.3500941,9.79206853 20.2952054,9.70724487 20.1936027,9.63214877 C20.076429,9.54615789 19.9503017,9.50296786 19.8148316,9.50296786 C19.6672938,9.50296786 19.540388,9.54615789 19.4360605,9.63214877 C19.3313437,9.71852872 19.2787906,9.81697088 19.2787906,9.9278641 L19.2787906,10.4636536 C18.2810614,10.5741577 17.4464413,10.9068375 16.7753195,11.4609146 C16.1038085,12.0149918 15.7682475,12.8270417 15.7682475,13.8966751 C15.7682475,14.2776032 15.8110686,14.6246795 15.8974892,14.9379044 C15.9835204,15.2515182 16.125219,15.5246659 16.3225848,15.7581253 C16.5195614,15.9915848 16.7075845,16.1915817 16.8862648,16.357338 C16.8956075,16.3662873 16.9061182,16.3748474 16.9158503,16.3834075 L19.2791799,18.7510758 L19.2791799,21.8405228 C18.7330175,21.8039474 18.2522546,21.6627044 17.8365017,21.4167938 C17.4207487,21.1712723 17.0941413,20.9409256 16.8562901,20.7257537 C16.6184389,20.5105819 16.426523,20.4031906 16.2805424,20.4031906 C16.0598196,20.4031906 15.8640109,20.5199203 15.6927269,20.7533798 C15.5210537,20.9868393 15.4354117,21.2202987 15.4354117,21.4537582 C15.4354117,21.8362427 15.6576916,22.2132797 16.0999157,22.5848694 L22.5946927,29.0765991 C26.89431,27.7937393 30.1814053,23.8401032 30.8622591,18.9518509 Z" id="Path" fill="#E59F00"></path>
                        <path d="M15.4358009,21.4537582 C15.4358009,21.2202987 15.5210537,20.9868393 15.6927269,20.7533798 C15.8640109,20.5199203 16.0598196,20.4031906 16.2805424,20.4031906 C16.426523,20.4031906 16.6184389,20.5105819 16.8566795,20.7257537 C17.0941413,20.9409256 17.421138,21.1712723 17.8365017,21.4167938 C18.2526439,21.6627044 18.7330175,21.8039474 19.2791799,21.8405228 L19.2791799,17.5094604 C18.9097515,17.374054 18.6259651,17.2666626 18.4293778,17.1865081 C18.232012,17.1067428 17.9700252,16.9900131 17.6438072,16.836319 C17.3175891,16.6830139 17.0649451,16.5230942 16.8862648,16.357338 C16.7075845,16.1911926 16.5195614,15.9915848 16.3225848,15.7581253 C16.1256082,15.5246659 15.9839097,15.2511292 15.8974892,14.9379044 C15.8114578,14.6246795 15.7682475,14.277214 15.7682475,13.896286 C15.7682475,12.8270417 16.1038085,12.0149918 16.7753195,11.4605256 C17.4468305,10.9064484 18.2814507,10.5741577 19.2791799,10.4632645 L19.2791799,9.9278641 C19.2791799,9.81697088 19.3313437,9.71852872 19.4360605,9.63214877 C19.5407772,9.54615789 19.6672938,9.50296786 19.815221,9.50296786 C19.9503017,9.50296786 20.0768183,9.54615789 20.1939921,9.63214877 C20.3107766,9.71852872 20.3695582,9.81697088 20.3695582,9.9278641 L20.3695582,10.4263 C21.120872,10.4512024 21.8137935,10.5772705 22.4483228,10.8048935 C23.0828521,11.0329056 23.4001168,11.3500213 23.4001168,11.7562409 C23.4001168,11.9780273 23.3253747,12.2087631 23.1762798,12.4488372 C23.0271848,12.6889115 22.8282618,12.808754 22.5799001,12.808754 C22.4818011,12.808754 22.2116395,12.7044754 21.7705832,12.494751 C21.3291378,12.2858048 20.8619996,12.1624603 20.3695582,12.1254959 L20.3695582,15.8686295 C20.8596639,16.0530624 21.2668527,16.2281571 21.5915136,16.3939132 C21.9157853,16.5600586 22.2591319,16.7904053 22.6207746,17.0853425 C22.9820281,17.3802795 23.2545254,17.7518692 23.4382664,18.2001114 C23.6220074,18.6487427 23.7138779,19.1744156 23.7138779,19.7763519 C23.7138779,20.8763351 23.4137416,21.7506409 22.8134691,22.3996582 C22.2131967,23.0482865 21.3984299,23.446724 20.3695582,23.5949707 L20.3695582,24.2120819 C20.3695582,24.3210296 20.3107766,24.4175262 20.1939921,24.5023499 C20.0768183,24.5871735 19.9503017,24.6295853 19.815221,24.6295853 C19.6672938,24.6295853 19.5407772,24.5871735 19.4360605,24.5027389 C19.3313437,24.4179154 19.2791799,24.3210296 19.2791799,24.212471 L19.2791799,23.6506119 C18.2074872,23.6381607 17.2989036,23.3930282 16.5534289,22.9152145 C15.8079543,22.4377899 15.4358009,21.9502487 15.4358009,21.4537582 Z M17.5974826,13.7122421 C17.5974826,14.1916122 17.7469668,14.5573654 18.045546,14.8091125 C18.3441251,15.0608597 18.7921884,15.297432 19.3897359,15.5184403 L19.3897359,12.160904 C18.1950302,12.3087615 17.5974826,12.8258744 17.5974826,13.7122421 Z M20.2586128,21.8039474 C21.3423733,21.6074524 21.8846428,20.9989014 21.8846428,19.9790726 C21.8846428,19.4386139 21.7429443,19.0144958 21.4595472,18.7074967 C21.17615,18.4004974 20.7759683,18.1362992 20.2586128,17.9149017 L20.2586128,21.8039474 Z" id="Shape" fill="#FFD83E"></path>
                        <path d="M42,25.7264557 L42,45.8288727 C42,48.6844711 39.6833841,51 36.8264452,51 L33.7643548,51 L33.7643548,21.3833313 L36.3044183,21.3833313 C37.2449231,21.3833313 38.0912216,21.7809906 38.6876014,22.4156112 L42,25.7264557 Z" id="Path" fill="url(#linearGradient-9)"></path>
                        <path d="M39.573996,24.6513748 L39.573996,47.3759308 C39.573996,49.3770675 37.9506909,50.9996109 35.9482255,50.9996109 L3.6257704,50.9996109 C1.62369431,50.9996109 0,49.3778458 0,47.3759308 L0,17.6682129 C0,19.7199325 1.66417961,21.3833313 3.71803026,21.3833313 L36.3044183,21.3833313 C38.1102965,21.3833313 39.573996,22.8467331 39.573996,24.6513748 Z" id="Path" fill="#FB3F6D"></path>
                        <path d="M12.7855706,50.9996109 L3.6257704,50.9996109 C1.62369431,50.9996109 0.000389281775,49.3774567 0.000389281775,47.3759308 L0.000389281775,17.6678238 C0.000389281775,19.7199325 1.66495813,21.3833313 3.717641,21.3833313 L12.7859599,21.3833313 L12.7859599,50.9996109 L12.7855706,50.9996109 Z" id="Path" fill="#FD6187"></path>
                        <path d="M38.7121261,40.1242904 L29.2276649,40.1242904 C28.1135405,40.1242904 27.2104068,39.2215805 27.2104068,38.1079788 L27.2104068,34.1158219 C27.2104068,33.0022201 28.1135405,32.0995102 29.2276649,32.0995102 L38.7121261,32.0995102 C40.5277363,32.0995102 42,30.6283264 42,28.8135681 L42,36.8383484 C42,38.6531067 40.5277363,40.1242904 38.7121261,40.1242904 L38.7121261,40.1242904 Z" id="Path" fill="url(#linearGradient-10)"></path>
                        <path d="M33.0539156,34.7862396 C32.6393304,34.340332 32.0491792,34.0594025 31.3920716,34.0594025 C30.1389736,34.0594025 29.1229481,35.0749512 29.1229481,36.3274613 C29.1229481,36.9842606 29.4040096,37.5741349 29.8505158,37.9881363 L31.9876727,40.1242904 L38.3940829,40.1242904 L33.0539156,34.7862396 Z" id="Path" fill="#A1B5D8"></path>
                        <path d="M33.6615844,36.3274613 C33.6615844,37.5799714 32.6455589,38.59552 31.3920716,38.59552 C30.1389736,38.59552 29.1229481,37.5799714 29.1229481,36.3274613 C29.1229481,35.0749512 30.1389736,34.0594025 31.3920716,34.0594025 C32.6455589,34.0594025 33.6615844,35.0749512 33.6615844,36.3274613 L33.6615844,36.3274613 Z" id="Path" fill="#00E7B2"></path>
                    </g>
                </g>
            </g>
        </g>
    </g>
</svg>