<?xml version="1.0" encoding="UTF-8"?>
<svg width="49px" height="49px" viewBox="0 0 49 49" version="1.1" xmlns="http://www.w3.org/2000/svg" xmlns:xlink="http://www.w3.org/1999/xlink">
    <title>cpu (1)</title>
    <g id="Page-1" stroke="none" stroke-width="1" fill="none" fill-rule="evenodd">
        <g id="Mining-Provider-Windows-Dashboard-Design-07" transform="translate(-1453.000000, -498.000000)" fill-rule="nonzero">
            <g id="Mining-app-design" transform="translate(320.000000, 160.000000)">
                <g id="CPU_Mining" transform="translate(1068.000000, 299.000000)">
                    <g id="CPU-Mining" transform="translate(36.000000, 31.000000)">
                        <g id="cpu-(1)" transform="translate(29.000000, 8.000000)">
                            <path d="M45.056457,9.78440039 C45.0494707,10.3387129 45.2715977,10.8414414 45.6340254,11.2038691 C45.9909023,11.5607461 46.4838691,11.7816289 47.0281328,11.7816289 L48.6171875,11.7816289 C48.8285957,11.7816289 49,11.9530332 49,12.1644414 L49,36.8354629 C49,37.0468711 48.8285957,37.2182754 48.6171875,37.2182754 L47.0791426,37.2182754 C45.9914766,37.2182754 45.0702383,38.0771152 45.056457,39.1646855 C45.0494707,39.718998 45.2715977,40.2217266 45.6340254,40.5841543 C45.9909023,40.9410312 46.4838691,41.1619141 47.0281328,41.1619141 L48.6171875,41.1619141 C48.8285957,41.1619141 49,41.3333184 49,41.5447266 L49,48.6171875 C49,48.8285957 48.8285957,49 48.6171875,49 L0.3828125,49 C0.171404297,49 0,48.8285957 0,48.6171875 L0,41.1620098 L1.97186719,41.1620098 C2.51613086,41.1620098 3.00909766,40.941127 3.36597461,40.58425 C3.72840234,40.2218223 3.9505293,39.718998 3.94354297,39.1647812 C3.92985742,38.0772109 3.00852344,37.2183711 1.92085742,37.2183711 L0.3828125,37.2183711 C0.171404297,37.2183711 0,37.0469668 0,36.8355586 L0,12.1645371 C0,11.9531289 0.171404297,11.7817246 0.3828125,11.7817246 L1.97186719,11.7817246 C2.51613086,11.7817246 3.00909766,11.5608418 3.36597461,11.2039648 C3.72840234,10.8415371 3.9505293,10.3387129 3.94354297,9.78449609 C3.92985742,8.69692578 3.00852344,7.83808594 1.92085742,7.83808594 L0.3828125,7.83808594 C0.171404297,7.83808594 0,7.66668164 0,7.45527344 L0,0.3828125 C0,0.171404297 0.171404297,0 0.3828125,0 L48.6171875,0 C48.8285957,0 49,0.171404297 49,0.3828125 L49,7.45517773 C49,7.66658594 48.8285957,7.83799023 48.6171875,7.83799023 L47.0791426,7.83799023 C45.9915723,7.83799023 45.0702383,8.69692578 45.056457,9.78440039 Z" id="Path" fill="#00E8DE"></path>
                            <g id="Group" transform="translate(2.563600, 2.316877)" fill="#CAEEFC">
                                <circle id="Oval" cx="1.47890039" cy="1.47890039" r="1.47890039"></circle>
                                <circle id="Oval" cx="42.3939004" cy="1.47890039" r="1.47890039"></circle>
                                <circle id="Oval" cx="1.47890039" cy="42.9861113" r="1.47890039"></circle>
                                <circle id="Oval" cx="42.3939004" cy="42.9861113" r="1.47890039"></circle>
                            </g>
                            <path d="M37.1805684,2.95770508 L11.8194316,2.95770508 C11.6080234,2.95770508 11.4366191,2.78630078 11.4366191,2.57489258 L11.4366191,0 L37.5633809,0 L37.5633809,2.57489258 C37.5633809,2.78639648 37.3919766,2.95770508 37.1805684,2.95770508 Z" id="Path" fill="#FAD87C"></path>
                            <path d="M37.1805684,2.95770508 L34.6056758,2.95770508 L34.6056758,0 L37.5633809,0 L37.5633809,2.57489258 C37.5633809,2.78639648 37.3919766,2.95770508 37.1805684,2.95770508 Z" id="Path" fill="#FEBE40"></path>
                            <path d="M37.5633809,49 L11.4366191,49 L11.4366191,46.4251074 C11.4366191,46.2136992 11.6080234,46.0422949 11.8194316,46.0422949 L37.1805684,46.0422949 C37.3919766,46.0422949 37.5633809,46.2136992 37.5633809,46.4251074 L37.5633809,49 Z" id="Path" fill="#FAD87C"></path>
                            <path d="M37.5633809,49 L34.6056758,49 L34.6056758,46.0422949 L37.1805684,46.0422949 C37.3919766,46.0422949 37.5633809,46.2136992 37.5633809,46.4251074 L37.5633809,49 Z" id="Path" fill="#FEBE40"></path>
                            <g id="Group" transform="translate(6.035709, 6.035709)" fill="#CBDAE0">
                                <path d="M4.56293359,3.40741406 C4.16653125,3.40741406 3.84516016,3.08604297 3.84516016,2.68964062 L3.84516016,0.717773437 C3.84516016,0.321371094 4.16653125,0 4.56293359,0 C4.95933594,0 5.28070703,0.321371094 5.28070703,0.717773437 L5.28070703,2.68964062 C5.28070703,3.08604297 4.95933594,3.40741406 4.56293359,3.40741406 Z" id="Path"></path>
                                <path d="M7.65203906,3.40741406 C7.25563672,3.40741406 6.93426562,3.08604297 6.93426562,2.68964062 L6.93426562,0.717773437 C6.93426562,0.321371094 7.25563672,0 7.65203906,0 C8.04844141,0 8.3698125,0.321371094 8.3698125,0.717773437 L8.3698125,2.68964062 C8.3698125,3.08604297 8.04853711,3.40741406 7.65203906,3.40741406 Z" id="Path"></path>
                                <path d="M10.7412402,3.40741406 C10.3448379,3.40741406 10.0234668,3.08604297 10.0234668,2.68964062 L10.0234668,0.717773437 C10.0234668,0.321371094 10.3448379,0 10.7412402,0 C11.1376426,0 11.4590137,0.321371094 11.4590137,0.717773437 L11.4590137,2.68964062 C11.4590137,3.08604297 11.1376426,3.40741406 10.7412402,3.40741406 Z" id="Path"></path>
                                <path d="M13.8305371,3.40741406 C13.4341348,3.40741406 13.1127637,3.08604297 13.1127637,2.68964062 L13.1127637,0.717773437 C13.1127637,0.321371094 13.4341348,0 13.8305371,0 C14.2269395,0 14.5483105,0.321371094 14.5483105,0.717773437 L14.5483105,2.68964062 C14.5483105,3.08604297 14.2269395,3.40741406 13.8305371,3.40741406 Z" id="Path"></path>
                                <path d="M16.9196426,3.40741406 C16.5232402,3.40741406 16.2018691,3.08604297 16.2018691,2.68964062 L16.2018691,0.717773437 C16.2018691,0.321371094 16.5232402,0 16.9196426,0 C17.3160449,0 17.637416,0.321371094 17.637416,0.717773437 L17.637416,2.68964062 C17.637416,3.08604297 17.3160449,3.40741406 16.9196426,3.40741406 Z" id="Path"></path>
                                <path d="M20.0089395,3.40741406 C19.6125371,3.40741406 19.291166,3.08604297 19.291166,2.68964062 L19.291166,0.717773437 C19.291166,0.321371094 19.6125371,0 20.0089395,0 C20.4053418,0 20.7267129,0.321371094 20.7267129,0.717773437 L20.7267129,2.68964062 C20.7267129,3.08604297 20.4053418,3.40741406 20.0089395,3.40741406 Z" id="Path"></path>
                                <path d="M23.0980449,3.40741406 C22.7016426,3.40741406 22.3802715,3.08604297 22.3802715,2.68964062 L22.3802715,0.717773437 C22.3802715,0.321371094 22.7016426,0 23.0980449,0 C23.4944473,0 23.8158184,0.321371094 23.8158184,0.717773437 L23.8158184,2.68964062 C23.8158184,3.08604297 23.494543,3.40741406 23.0980449,3.40741406 Z" id="Path"></path>
                                <path d="M26.1873418,3.40741406 C25.7909395,3.40741406 25.4695684,3.08604297 25.4695684,2.68964062 L25.4695684,0.717773437 C25.4695684,0.321371094 25.7909395,0 26.1873418,0 C26.5837441,0 26.9051152,0.321371094 26.9051152,0.717773437 L26.9051152,2.68964062 C26.9051152,3.08604297 26.5837441,3.40741406 26.1873418,3.40741406 Z" id="Path"></path>
                                <path d="M29.276543,3.40741406 C28.8801406,3.40741406 28.5587695,3.08604297 28.5587695,2.68964062 L28.5587695,0.717773437 C28.5587695,0.321371094 28.8801406,0 29.276543,0 C29.6729453,0 29.9943164,0.321371094 29.9943164,0.717773437 L29.9943164,2.68964062 C29.9943164,3.08604297 29.6729453,3.40741406 29.276543,3.40741406 Z" id="Path"></path>
                                <path d="M32.3656484,3.40741406 C31.9692461,3.40741406 31.647875,3.08604297 31.647875,2.68964062 L31.647875,0.717773437 C31.647875,0.321371094 31.9692461,0 32.3656484,0 C32.7620508,0 33.0834219,0.321371094 33.0834219,0.717773437 L33.0834219,2.68964062 C33.0834219,3.08604297 32.7620508,3.40741406 32.3656484,3.40741406 Z" id="Path"></path>
                                <path d="M4.56293359,36.928582 C4.16653125,36.928582 3.84516016,36.6072109 3.84516016,36.2108086 L3.84516016,34.2389414 C3.84516016,33.8425391 4.16653125,33.521168 4.56293359,33.521168 C4.95933594,33.521168 5.28070703,33.8425391 5.28070703,34.2389414 L5.28070703,36.2108086 C5.28070703,36.6072109 4.95933594,36.928582 4.56293359,36.928582 Z" id="Path"></path>
                                <path d="M7.65203906,36.928582 C7.25563672,36.928582 6.93426562,36.6072109 6.93426562,36.2108086 L6.93426562,34.2389414 C6.93426562,33.8425391 7.25563672,33.521168 7.65203906,33.521168 C8.04844141,33.521168 8.3698125,33.8425391 8.3698125,34.2389414 L8.3698125,36.2108086 C8.3698125,36.6072109 8.04853711,36.928582 7.65203906,36.928582 Z" id="Path"></path>
                                <path d="M10.7412402,36.928582 C10.3448379,36.928582 10.0234668,36.6072109 10.0234668,36.2108086 L10.0234668,34.2389414 C10.0234668,33.8425391 10.3448379,33.521168 10.7412402,33.521168 C11.1376426,33.521168 11.4590137,33.8425391 11.4590137,34.2389414 L11.4590137,36.2108086 C11.4590137,36.6072109 11.1376426,36.928582 10.7412402,36.928582 Z" id="Path"></path>
                                <path d="M13.8305371,36.928582 C13.4341348,36.928582 13.1127637,36.6072109 13.1127637,36.2108086 L13.1127637,34.2389414 C13.1127637,33.8425391 13.4341348,33.521168 13.8305371,33.521168 C14.2269395,33.521168 14.5483105,33.8425391 14.5483105,34.2389414 L14.5483105,36.2108086 C14.5483105,36.6072109 14.2269395,36.928582 13.8305371,36.928582 Z" id="Path"></path>
                                <path d="M16.9196426,36.928582 C16.5232402,36.928582 16.2018691,36.6072109 16.2018691,36.2108086 L16.2018691,34.2389414 C16.2018691,33.8425391 16.5232402,33.521168 16.9196426,33.521168 C17.3160449,33.521168 17.637416,33.8425391 17.637416,34.2389414 L17.637416,36.2108086 C17.637416,36.6072109 17.3160449,36.928582 16.9196426,36.928582 Z" id="Path"></path>
                                <path d="M20.0089395,36.928582 C19.6125371,36.928582 19.291166,36.6072109 19.291166,36.2108086 L19.291166,34.2389414 C19.291166,33.8425391 19.6125371,33.521168 20.0089395,33.521168 C20.4053418,33.521168 20.7267129,33.8425391 20.7267129,34.2389414 L20.7267129,36.2108086 C20.7267129,36.6072109 20.4053418,36.928582 20.0089395,36.928582 Z" id="Path"></path>
                                <path d="M23.0980449,36.928582 C22.7016426,36.928582 22.3802715,36.6072109 22.3802715,36.2108086 L22.3802715,34.2389414 C22.3802715,33.8425391 22.7016426,33.521168 23.0980449,33.521168 C23.4944473,33.521168 23.8158184,33.8425391 23.8158184,34.2389414 L23.8158184,36.2108086 C23.8158184,36.6072109 23.494543,36.928582 23.0980449,36.928582 Z" id="Path"></path>
                                <path d="M26.1873418,36.928582 C25.7909395,36.928582 25.4695684,36.6072109 25.4695684,36.2108086 L25.4695684,34.2389414 C25.4695684,33.8425391 25.7909395,33.521168 26.1873418,33.521168 C26.5837441,33.521168 26.9051152,33.8425391 26.9051152,34.2389414 L26.9051152,36.2108086 C26.9051152,36.6072109 26.5837441,36.928582 26.1873418,36.928582 Z" id="Path"></path>
                                <path d="M29.276543,36.928582 C28.8801406,36.928582 28.5587695,36.6072109 28.5587695,36.2108086 L28.5587695,34.2389414 C28.5587695,33.8425391 28.8801406,33.521168 29.276543,33.521168 C29.6729453,33.521168 29.9943164,33.8425391 29.9943164,34.2389414 L29.9943164,36.2108086 C29.9943164,36.6072109 29.6729453,36.928582 29.276543,36.928582 Z" id="Path"></path>
                                <path d="M32.3656484,36.928582 C31.9692461,36.928582 31.647875,36.6072109 31.647875,36.2108086 L31.647875,34.2389414 C31.647875,33.8425391 31.9692461,33.521168 32.3656484,33.521168 C32.7620508,33.521168 33.0834219,33.8425391 33.0834219,34.2389414 L33.0834219,36.2108086 C33.0834219,36.6072109 32.7620508,36.928582 32.3656484,36.928582 Z" id="Path"></path>
                                <path d="M2.68964063,5.28070703 L0.717773437,5.28070703 C0.321371094,5.28070703 0,4.95933594 0,4.56293359 C0,4.16653125 0.321371094,3.84516016 0.717773437,3.84516016 L2.68964062,3.84516016 C3.08604297,3.84516016 3.40741406,4.16653125 3.40741406,4.56293359 C3.40741406,4.95933594 3.08604297,5.28070703 2.68964063,5.28070703 Z" id="Path"></path>
                                <path d="M2.68964063,8.3698125 L0.717773437,8.3698125 C0.321371094,8.3698125 0,8.04844141 0,7.65203906 C0,7.25563672 0.321371094,6.93426563 0.717773437,6.93426563 L2.68964062,6.93426563 C3.08604297,6.93426563 3.40741406,7.25563672 3.40741406,7.65203906 C3.40741406,8.04844141 3.08604297,8.3698125 2.68964063,8.3698125 Z" id="Path"></path>
                                <path d="M2.68964063,11.4590137 L0.717773437,11.4590137 C0.321371094,11.4590137 0,11.1376426 0,10.7412402 C0,10.3448379 0.321371094,10.0234668 0.717773437,10.0234668 L2.68964062,10.0234668 C3.08604297,10.0234668 3.40741406,10.3448379 3.40741406,10.7412402 C3.40741406,11.1376426 3.08604297,11.4590137 2.68964063,11.4590137 Z" id="Path"></path>
                                <path d="M2.68964063,14.5483105 L0.717773437,14.5483105 C0.321371094,14.5483105 0,14.2269395 0,13.8305371 C0,13.4341348 0.321371094,13.1127637 0.717773437,13.1127637 L2.68964062,13.1127637 C3.08604297,13.1127637 3.40741406,13.4341348 3.40741406,13.8305371 C3.40741406,14.2269395 3.08604297,14.5483105 2.68964063,14.5483105 Z" id="Path"></path>
                                <path d="M2.68964063,17.637416 L0.717773437,17.637416 C0.321371094,17.637416 0,17.3160449 0,16.9196426 C0,16.5232402 0.321371094,16.2018691 0.717773437,16.2018691 L2.68964062,16.2018691 C3.08604297,16.2018691 3.40741406,16.5232402 3.40741406,16.9196426 C3.40741406,17.3160449 3.08604297,17.637416 2.68964063,17.637416 Z" id="Path"></path>
                                <path d="M2.68964063,20.7267129 L0.717773437,20.7267129 C0.321371094,20.7267129 0,20.4053418 0,20.0089395 C0,19.6125371 0.321371094,19.291166 0.717773437,19.291166 L2.68964062,19.291166 C3.08604297,19.291166 3.40741406,19.6125371 3.40741406,20.0089395 C3.40741406,20.4053418 3.08604297,20.7267129 2.68964063,20.7267129 Z" id="Path"></path>
                                <path d="M2.68964063,23.8158184 L0.717773437,23.8158184 C0.321371094,23.8158184 0,23.4944473 0,23.0980449 C0,22.7016426 0.321371094,22.3802715 0.717773437,22.3802715 L2.68964062,22.3802715 C3.08604297,22.3802715 3.40741406,22.7016426 3.40741406,23.0980449 C3.40741406,23.4944473 3.08604297,23.8158184 2.68964063,23.8158184 Z" id="Path"></path>
                                <path d="M2.68964063,26.9051152 L0.717773437,26.9051152 C0.321371094,26.9051152 0,26.5837441 0,26.1873418 C0,25.7909395 0.321371094,25.4695684 0.717773437,25.4695684 L2.68964062,25.4695684 C3.08604297,25.4695684 3.40741406,25.7909395 3.40741406,26.1873418 C3.40741406,26.5837441 3.08604297,26.9051152 2.68964063,26.9051152 Z" id="Path"></path>
                                <path d="M2.68964063,29.9943164 L0.717773437,29.9943164 C0.321371094,29.9943164 0,29.6729453 0,29.276543 C0,28.8801406 0.321371094,28.5587695 0.717773437,28.5587695 L2.68964062,28.5587695 C3.08604297,28.5587695 3.40741406,28.8801406 3.40741406,29.276543 C3.40741406,29.6729453 3.08604297,29.9943164 2.68964063,29.9943164 Z" id="Path"></path>
                                <path d="M2.68964063,33.0834219 L0.717773437,33.0834219 C0.321371094,33.0834219 0,32.7620508 0,32.3656484 C0,31.9692461 0.321371094,31.647875 0.717773437,31.647875 L2.68964062,31.647875 C3.08604297,31.647875 3.40741406,31.9692461 3.40741406,32.3656484 C3.40741406,32.7620508 3.08604297,33.0834219 2.68964063,33.0834219 Z" id="Path"></path>
                                <path d="M36.2108086,5.28070703 L34.2389414,5.28070703 C33.8425391,5.28070703 33.521168,4.95933594 33.521168,4.56293359 C33.521168,4.16653125 33.8425391,3.84516016 34.2389414,3.84516016 L36.2108086,3.84516016 C36.6072109,3.84516016 36.928582,4.16653125 36.928582,4.56293359 C36.928582,4.95933594 36.6072109,5.28070703 36.2108086,5.28070703 Z" id="Path"></path>
                                <path d="M36.2108086,8.3698125 L34.2389414,8.3698125 C33.8425391,8.3698125 33.521168,8.04844141 33.521168,7.65203906 C33.521168,7.25563672 33.8425391,6.93426563 34.2389414,6.93426563 L36.2108086,6.93426563 C36.6072109,6.93426563 36.928582,7.25563672 36.928582,7.65203906 C36.928582,8.04844141 36.6072109,8.3698125 36.2108086,8.3698125 Z" id="Path"></path>
                                <path d="M36.2108086,11.4590137 L34.2389414,11.4590137 C33.8425391,11.4590137 33.521168,11.1376426 33.521168,10.7412402 C33.521168,10.3448379 33.8425391,10.0234668 34.2389414,10.0234668 L36.2108086,10.0234668 C36.6072109,10.0234668 36.928582,10.3448379 36.928582,10.7412402 C36.928582,11.1376426 36.6072109,11.4590137 36.2108086,11.4590137 Z" id="Path"></path>
                                <path d="M36.2108086,14.5483105 L34.2389414,14.5483105 C33.8425391,14.5483105 33.521168,14.2269395 33.521168,13.8305371 C33.521168,13.4341348 33.8425391,13.1127637 34.2389414,13.1127637 L36.2108086,13.1127637 C36.6072109,13.1127637 36.928582,13.4341348 36.928582,13.8305371 C36.928582,14.2269395 36.6072109,14.5483105 36.2108086,14.5483105 Z" id="Path"></path>
                                <path d="M36.2108086,17.637416 L34.2389414,17.637416 C33.8425391,17.637416 33.521168,17.3160449 33.521168,16.9196426 C33.521168,16.5232402 33.8425391,16.2018691 34.2389414,16.2018691 L36.2108086,16.2018691 C36.6072109,16.2018691 36.928582,16.5232402 36.928582,16.9196426 C36.928582,17.3160449 36.6072109,17.637416 36.2108086,17.637416 Z" id="Path"></path>
                                <path d="M36.2108086,20.7267129 L34.2389414,20.7267129 C33.8425391,20.7267129 33.521168,20.4053418 33.521168,20.0089395 C33.521168,19.6125371 33.8425391,19.291166 34.2389414,19.291166 L36.2108086,19.291166 C36.6072109,19.291166 36.928582,19.6125371 36.928582,20.0089395 C36.928582,20.4053418 36.6072109,20.7267129 36.2108086,20.7267129 Z" id="Path"></path>
                                <path d="M36.2108086,23.8158184 L34.2389414,23.8158184 C33.8425391,23.8158184 33.521168,23.4944473 33.521168,23.0980449 C33.521168,22.7016426 33.8425391,22.3802715 34.2389414,22.3802715 L36.2108086,22.3802715 C36.6072109,22.3802715 36.928582,22.7016426 36.928582,23.0980449 C36.928582,23.4944473 36.6072109,23.8158184 36.2108086,23.8158184 Z" id="Path"></path>
                                <path d="M36.2108086,26.9051152 L34.2389414,26.9051152 C33.8425391,26.9051152 33.521168,26.5837441 33.521168,26.1873418 C33.521168,25.7909395 33.8425391,25.4695684 34.2389414,25.4695684 L36.2108086,25.4695684 C36.6072109,25.4695684 36.928582,25.7909395 36.928582,26.1873418 C36.928582,26.5837441 36.6072109,26.9051152 36.2108086,26.9051152 Z" id="Path"></path>
                                <path d="M36.2108086,29.9943164 L34.2389414,29.9943164 C33.8425391,29.9943164 33.521168,29.6729453 33.521168,29.276543 C33.521168,28.8801406 33.8425391,28.5587695 34.2389414,28.5587695 L36.2108086,28.5587695 C36.6072109,28.5587695 36.928582,28.8801406 36.928582,29.276543 C36.928582,29.6729453 36.6072109,29.9943164 36.2108086,29.9943164 Z" id="Path"></path>
                                <path d="M36.2108086,33.0834219 L34.2389414,33.0834219 C33.8425391,33.0834219 33.521168,32.7620508 33.521168,32.3656484 C33.521168,31.9692461 33.8425391,31.647875 34.2389414,31.647875 L36.2108086,31.647875 C36.6072109,31.647875 36.928582,31.9692461 36.928582,32.3656484 C36.928582,32.7620508 36.6072109,33.0834219 36.2108086,33.0834219 Z" id="Path"></path>
                            </g>
                            <path d="M8.72534961,39.8918379 L8.72534961,9.10816211 C8.72534961,8.89675391 8.89675391,8.72534961 9.10816211,8.72534961 L39.8918379,8.72534961 C40.1032461,8.72534961 40.2746504,8.89675391 40.2746504,9.10816211 L40.2746504,39.8918379 C40.2746504,40.1032461 40.1032461,40.2746504 39.8918379,40.2746504 L9.10816211,40.2746504 C8.89675391,40.2746504 8.72534961,40.1032461 8.72534961,39.8918379 Z" id="Path" fill="#3D373F"></path>
                            <path d="M37.3169453,8.72534961 L39.8918379,8.72534961 C40.1032461,8.72534961 40.2746504,8.89675391 40.2746504,9.10816211 L40.2746504,39.8918379 C40.2746504,40.1032461 40.1032461,40.2746504 39.8918379,40.2746504 L37.3169453,40.2746504 L37.3169453,8.72534961 Z" id="Path" fill="#3D373F"></path>
                            <path d="M36.9341328,37.3169453 L12.0658672,37.3169453 C11.854459,37.3169453 11.6830547,37.145541 11.6830547,36.9341328 L11.6830547,12.0658672 C11.6830547,11.854459 11.854459,11.6830547 12.0658672,11.6830547 L36.9340371,11.6830547 C37.1454453,11.6830547 37.3168496,11.854459 37.3168496,12.0658672 L37.3168496,36.9340371 C37.3168496,37.145541 37.145541,37.3169453 36.9341328,37.3169453 Z" id="Path" fill="#DAD8DB"></path>
                            <path d="M36.9341328,37.3169453 L34.3592402,37.3169453 L34.3592402,11.6830547 L36.9341328,11.6830547 C37.145541,11.6830547 37.3169453,11.854459 37.3169453,12.0658672 L37.3169453,36.9340371 C37.3169453,37.145541 37.145541,37.3169453 36.9341328,37.3169453 Z" id="Path" fill="#C8C5C9"></path>
                            <path d="M13.210668,32.8662715 L13.210668,35.5354316 C13.210668,35.7468398 13.3820723,35.9182441 13.5934805,35.9182441 L16.5086934,35.9182441 C16.8579141,35.9182441 17.0248203,35.4889199 16.7671875,35.2531074 L13.8519746,32.5839473 C13.6064004,32.3590449 13.210668,32.5333203 13.210668,32.8662715 Z" id="Path" fill="#DAD8DB"></path>
                            <g id="Group" transform="translate(20.569760, 13.760387)" fill="#3D373F">
                                <path d="M3.28118164,5.97072656 L0.717773437,5.97072656 C0.321371094,5.97072656 0,5.64935547 0,5.25295312 L0,0.717773437 C0,0.321371094 0.321371094,0 0.717773437,0 L3.28118164,0 C3.67758398,0 3.99895508,0.321371094 3.99895508,0.717773437 C3.99895508,1.11417578 3.67758398,1.43554687 3.28118164,1.43554687 L1.43554687,1.43554687 L1.43554687,4.53517969 L3.28118164,4.53517969 C3.67758398,4.53517969 3.99895508,4.85655078 3.99895508,5.25295312 C3.99895508,5.64935547 3.67758398,5.97072656 3.28118164,5.97072656 Z" id="Path"></path>
                                <path d="M5.13389844,5.97072656 C4.73749609,5.97072656 4.416125,5.64935547 4.416125,5.25295312 L4.416125,0.717773437 C4.416125,0.321371094 4.73749609,0 5.13389844,0 L7.69730664,0 C8.09370898,0 8.41508008,0.321371094 8.41508008,0.717773437 L8.41508008,3.0165625 C8.41508008,3.41296484 8.09370898,3.73433594 7.69730664,3.73433594 L5.85167187,3.73433594 L5.85167187,5.25295312 C5.85167187,5.64945117 5.53030078,5.97072656 5.13389844,5.97072656 Z M5.85167187,2.29878906 L6.9795332,2.29878906 L6.9795332,1.43554688 L5.85167187,1.43554688 L5.85167187,2.29878906 Z" id="Shape"></path>
                                <path d="M12.1133359,5.97072656 L9.54992773,5.97072656 C9.15352539,5.97072656 8.8321543,5.64935547 8.8321543,5.25295312 L8.8321543,0.717773437 C8.8321543,0.321371094 9.15352539,0 9.54992773,0 C9.94633008,0 10.2677012,0.321371094 10.2677012,0.717773437 L10.2677012,4.53517969 L11.3955625,4.53517969 L11.3955625,0.717773437 C11.3955625,0.321371094 11.7169336,0 12.1133359,0 C12.5097383,0 12.8311094,0.321371094 12.8311094,0.717773437 L12.8311094,5.25295312 C12.8311094,5.64945117 12.5097383,5.97072656 12.1133359,5.97072656 Z" id="Path"></path>
                            </g>
                        </g>
                    </g>
                </g>
            </g>
        </g>
    </g>
</svg>