<?xml version="1.0" encoding="UTF-8"?>
<svg width="77px" height="48px" viewBox="0 0 77 48" version="1.1" xmlns="http://www.w3.org/2000/svg" xmlns:xlink="http://www.w3.org/1999/xlink">
    <title>graphics-card (1)</title>
    <g id="Page-1" stroke="none" stroke-width="1" fill="none" fill-rule="evenodd">
        <g id="Mining-Provider-Windows-Dashboard-Design-07" transform="translate(-1227.000000, -496.000000)" fill-rule="nonzero">
            <g id="Mining-app-design" transform="translate(320.000000, 160.000000)">
                <g id="GPU_Mining" transform="translate(856.000000, 299.000000)">
                    <g id="GPU-Mining" transform="translate(34.000000, 31.000000)">
                        <g id="graphics-card-(1)" transform="translate(17.000000, 6.000000)">
                            <path d="M6.11112305,8.6154118 L6.11112305,39.3847396 L14.6666953,39.3847396 C15.3416484,39.3847396 15.8889199,38.8336404 15.8889199,38.1539665 L15.8889199,36.9231934 C15.8889199,36.2435195 16.4361914,35.6924203 17.1111445,35.6924203 L22.000043,35.6924203 C22.6749961,35.6924203 23.2222676,36.2435195 23.2222676,36.9231934 L23.2222676,43.077059 C23.2222676,43.7567329 23.7695391,44.3078321 24.4444922,44.3078321 L31.7778398,44.3078321 C32.452793,44.3078321 33.0000645,43.7567329 33.0000645,43.077059 L33.0000645,40.7471163 C33.0000645,39.5208864 33.8321758,38.3843106 35.0340977,38.1875868 C36.5655254,37.936798 37.8889629,39.1204725 37.8889629,40.6155128 L37.8889629,43.077059 C37.8889629,43.7567329 38.4362344,44.3078321 39.1111875,44.3078321 L61.1112305,44.3078321 C61.7861836,44.3078321 62.3334551,43.7567329 62.3334551,43.077059 L62.3334551,40.7471163 C62.3334551,39.5208864 63.1655664,38.3843106 64.3674883,38.1875868 C65.898916,37.936798 67.2223535,39.1204725 67.2223535,40.6155128 L67.2223535,43.077059 C67.2223535,43.7567329 67.769625,44.3078321 68.4445781,44.3078321 L70.8890273,44.3078321 C71.5639805,44.3078321 72.111252,43.7567329 72.111252,43.077059 L72.111252,8.6154118 L6.11112305,8.6154118 Z" id="Path" fill="#00E8DE"></path>
                            <path d="M17.1111445,27.0768571 L17.1111445,27.0768571 C16.4361914,27.0768571 15.8889199,26.5257578 15.8889199,25.8460839 L15.8889199,13.5383528 C15.8889199,12.8586789 16.4361914,12.3075797 17.1111445,12.3075797 L17.1111445,12.3075797 C17.7860977,12.3075797 18.3333691,12.8586789 18.3333691,13.5383528 L18.3333691,25.8460839 C18.3333691,26.5259093 17.7860977,27.0768571 17.1111445,27.0768571 Z" id="Path" fill="#FFD064"></path>
                            <path d="M22.000043,27.0768571 L22.000043,27.0768571 C21.3250898,27.0768571 20.7778184,26.5257578 20.7778184,25.8460839 L20.7778184,13.5383528 C20.7778184,12.8586789 21.3250898,12.3075797 22.000043,12.3075797 L22.000043,12.3075797 C22.6749961,12.3075797 23.2222676,12.8586789 23.2222676,13.5383528 L23.2222676,25.8460839 C23.2222676,26.5259093 22.6749961,27.0768571 22.000043,27.0768571 Z" id="Path" fill="#FFD064"></path>
                            <path d="M20.7778184,35.6922689 L18.3333691,35.6922689 L18.3333691,33.2307226 C18.3333691,31.1947298 19.9781914,29.5384033 22.000043,29.5384033 L35.4445137,29.5384033 L35.4445137,31.9999495 L22.000043,31.9999495 C21.3256914,31.9999495 20.7778184,32.5522603 20.7778184,33.2307226 L20.7778184,35.6922689 Z" id="Path" fill="#A4CCFF"></path>
                            <path d="M6.11112305,39.3845882 L14.6666953,39.3845882 C15.3416484,39.3845882 15.8889199,38.833489 15.8889199,38.1538151 L15.8889199,36.923042 C15.8889199,36.2432166 16.436041,35.6922689 17.1111445,35.6922689 L6.11112305,35.6922689 L6.11112305,39.3845882 Z" id="Path" fill="#95D6A4"></path>
                            <path d="M23.2222676,36.923042 L23.2222676,43.0769075 C23.2222676,43.7565814 23.7693887,44.3076807 24.4444922,44.3076807 L31.7778398,44.3076807 C32.4529434,44.3076807 33.0000645,43.7565814 33.0000645,43.0769075 L33.0000645,40.7469648 C33.0000645,39.520735 33.8321758,38.3841591 35.0340977,38.1874353 C36.5655254,37.936798 37.8889629,39.1203211 37.8889629,40.6153613 L37.8889629,43.0769075 C37.8889629,43.7565814 38.436084,44.3076807 39.1111875,44.3076807 L61.1112305,44.3076807 C61.786334,44.3076807 62.3334551,43.7565814 62.3334551,43.0769075 L62.3334551,40.7469648 C62.3334551,39.520735 63.1655664,38.3841591 64.3674883,38.1874353 C65.898916,37.936798 67.2223535,39.1203211 67.2223535,40.6153613 L67.2223535,43.0769075 C67.2223535,43.7565814 67.7694746,44.3076807 68.4445781,44.3076807 L70.8890273,44.3076807 C71.5641309,44.3076807 72.111252,43.7565814 72.111252,43.0769075 L72.111252,35.6922689 L22.000043,35.6922689 C22.6749961,35.6922689 23.2222676,36.2433681 23.2222676,36.923042 Z" id="Path" fill="#04935E"></path>
                            <rect id="Rectangle" fill="#DAD8DB" x="6.11112305" y="8.6154118" width="4.88889844" height="30.7693278"></rect>
                            <path d="M24.4444922,44.3076807 L31.7778398,44.3076807 C32.4529434,44.3076807 33.0000645,43.7565814 33.0000645,43.0769075 L33.0000645,40.7469648 C33.0000645,40.2599258 33.1295508,39.7901512 33.3632578,39.3845882 L23.2224179,39.3845882 L23.2224179,43.0769075 C23.2222676,43.7565814 23.7693887,44.3076807 24.4444922,44.3076807 Z" id="Path" fill="#FFE07D"></path>
                            <path d="M39.1110371,44.3076807 L61.1110801,44.3076807 C61.7861836,44.3076807 62.3333047,43.7565814 62.3333047,43.0769075 L62.3333047,40.7469648 C62.3333047,40.2599258 62.462791,39.7901512 62.6963477,39.3845882 L37.5605098,39.3845882 C37.7710566,39.7483531 37.8889629,40.1639113 37.8889629,40.6153613 L37.8889629,43.0769075 C37.8889629,43.7565814 38.436084,44.3076807 39.1110371,44.3076807 Z" id="Path" fill="#FFE07D"></path>
                            <path d="M66.8949531,39.3845882 C67.1055,39.7483531 67.2222031,40.1639113 67.2222031,40.6153613 L67.2222031,43.0769075 C67.2222031,43.7565814 67.7693242,44.3076807 68.4444277,44.3076807 L70.888877,44.3076807 C71.5639805,44.3076807 72.1111016,43.7565814 72.1111016,43.0769075 L72.1111016,39.3845882 L66.8949531,39.3845882 Z" id="Path" fill="#FFE07D"></path>
                            <path d="M2.44444922,22.1539161 C1.7693457,22.1539161 1.22222461,22.7048638 1.22222461,23.3846892 L1.22222461,33.2308741 C1.22222461,33.910548 1.7693457,34.4616472 2.44444922,34.4616472 L6.11112305,34.4616472 L6.11112305,22.1539161 L2.44444922,22.1539161 L2.44444922,22.1539161 Z" id="Path" fill="#DAD8DB"></path>
                            <path d="M6.11112305,18.4615967 L3.66667383,18.4615967 C2.99111914,18.4615967 2.44444922,17.9104975 2.44444922,17.2308236 C2.44444922,16.5511497 2.99111914,16.0000505 3.66667383,16.0000505 L6.11112305,16.0000505 C6.78667773,16.0000505 7.33334766,16.5511497 7.33334766,17.2308236 C7.33334766,17.9104975 6.78667773,18.4615967 6.11112305,18.4615967 Z" id="Path" fill="#DAD8DB"></path>
                            <path d="M6.11112305,40.6153613 L3.66667383,40.6153613 C2.99111914,40.6153613 2.44444922,40.0642621 2.44444922,39.3845882 C2.44444922,38.7049143 2.99111914,38.1538151 3.66667383,38.1538151 L6.11112305,38.1538151 C6.78667773,38.1538151 7.33334766,38.7049143 7.33334766,39.3845882 C7.33334766,40.0642621 6.78667773,40.6153613 6.11112305,40.6153613 Z" id="Path" fill="#DAD8DB"></path>
                            <path d="M74.5555508,33.2307226 L35.4445137,33.2307226 C34.094457,33.2307226 33.0000645,32.1286756 33.0000645,30.7691764 L33.0000645,8.6154118 C33.0000645,7.25591257 34.094457,6.15386557 35.4445137,6.15386557 L74.5555508,6.15386557 C75.9056074,6.15386557 77,7.25591257 77,8.6154118 L77,30.7693278 C77,32.1286756 75.9056074,33.2307226 74.5555508,33.2307226 Z" id="Path" fill="#6F6571"></path>
                            <path d="M35.4445137,25.8460839 L35.4445137,6.15386557 C34.094457,6.15386557 33.0000645,7.25591257 33.0000645,8.6154118 L33.0000645,30.7693278 C33.0000645,32.1288271 34.094457,33.2308741 35.4445137,33.2308741 L74.5555508,33.2308741 C75.9056074,33.2308741 77,32.1288271 77,30.7693278 L40.3332617,30.7693278 C37.6332988,30.7691764 35.4445137,28.5650824 35.4445137,25.8460839 Z" id="Path" fill="#3D373F"></path>
                            <path d="M42.7777109,16.0000505 L32.9999141,16.0000505 L32.9999141,23.3846892 L42.7777109,23.3846892 C44.1277676,23.3846892 45.2221602,22.2826422 45.2221602,20.9231429 L45.2221602,18.4615967 C45.2221602,17.101946 44.1277676,16.0000505 42.7777109,16.0000505 Z" id="Path" fill="#DAD8DB"></path>
                            <path d="M28.111166,18.4615967 C27.4356113,18.4615967 26.8889414,17.9104975 26.8889414,17.2308236 L26.8889414,16.0000505 C26.8889414,15.3203766 27.4356113,14.7692774 28.111166,14.7692774 C28.7867207,14.7692774 29.3333906,15.3203766 29.3333906,16.0000505 L29.3333906,17.2308236 C29.3333906,17.9104975 28.7867207,18.4615967 28.111166,18.4615967 Z" id="Path" fill="#FF8086"></path>
                            <path d="M28.111166,24.6154623 C27.4356113,24.6154623 26.8889414,24.0643631 26.8889414,23.3846892 L26.8889414,22.1539161 C26.8889414,21.4742422 27.4356113,20.9231429 28.111166,20.9231429 C28.7867207,20.9231429 29.3333906,21.4742422 29.3333906,22.1539161 L29.3333906,23.3846892 C29.3333906,24.0643631 28.7867207,24.6154623 28.111166,24.6154623 Z" id="Path" fill="#FF8086"></path>
                            <path d="M6.11112305,48 C5.43556836,48 4.88889844,47.4489008 4.88889844,46.7692269 L4.88889844,2.46154623 L1.22222461,2.46154623 C0.546669922,2.46154623 0,1.91044701 0,1.23077311 C0,0.55109922 0.546669922,0 1.22222461,0 L4.88889844,0 C6.23639844,0 7.33334766,1.10401575 7.33334766,2.46154623 L7.33334766,46.7692269 C7.33334766,47.4489008 6.78667773,48 6.11112305,48 Z" id="Path" fill="#ECEAEC"></path>
                            <rect id="Rectangle" fill="#FFD064" x="25.6667168" y="39.3845882" width="2.44444922" height="4.92309246"></rect>
                            <path d="M33.0000645,43.0769075 L33.0000645,40.7469648 C33.0000645,40.2599258 33.1295508,39.7901512 33.3632578,39.3845882 L30.5556152,39.3845882 L30.5556152,44.3076807 L31.7778398,44.3076807 C32.452793,44.3076807 33.0000645,43.7565814 33.0000645,43.0769075 Z" id="Path" fill="#FFD064"></path>
                            <rect id="Rectangle" fill="#FFD064" x="40.3332617" y="39.3845882" width="2.44444922" height="4.92309246"></rect>
                            <rect id="Rectangle" fill="#FFD064" x="45.2221602" y="39.3845882" width="2.44444922" height="4.92309246"></rect>
                            <rect id="Rectangle" fill="#FFD064" x="50.1110586" y="39.3845882" width="2.44444922" height="4.92309246"></rect>
                            <rect id="Rectangle" fill="#FFD064" x="54.999957" y="39.3845882" width="2.44444922" height="4.92309246"></rect>
                            <path d="M70.888877,44.3076807 L69.6666523,44.3076807 L69.6666523,39.3845882 L72.1111016,39.3845882 L72.1111016,43.0769075 C72.1111016,43.7567329 71.5638301,44.3076807 70.888877,44.3076807 Z" id="Path" fill="#FFD064"></path>
                            <path d="M62.3333047,43.0769075 L62.3333047,40.7469648 C62.3333047,40.2599258 62.462791,39.7901512 62.6963477,39.3845882 L59.8888555,39.3845882 L59.8888555,44.3076807 L61.1110801,44.3076807 C61.7861836,44.3076807 62.3333047,43.7565814 62.3333047,43.0769075 Z" id="Path" fill="#FFD064"></path>
                            <rect id="Rectangle" fill="#C8C5C9" x="33.0000645" y="16.0000505" width="2.44444922" height="7.38463868"></rect>
                            <ellipse id="Oval" fill="#5D5360" cx="63.5558301" cy="19.6984275" rx="12.2090117" ry="12.2990989"></ellipse>
                            <path d="M67.4035742,21.2932684 C70.3408535,20.850602 73.1167637,19.9901058 75.7331094,18.8040082 C75.6715996,17.9389687 75.524668,17.0992201 75.2945703,16.2927888 C72.7633457,17.5087206 70.0605254,18.3895101 67.1862598,18.8365683 L66.4857402,18.7703879 L67.368834,18.0336202 C67.4404199,17.9734976 67.5061406,17.9056513 67.5622363,17.8311416 C69.2944355,15.5389081 70.640582,13.0699412 71.6408301,10.4796688 C71.002873,9.91145662 70.3097227,9.40685025 69.5634844,8.98159974 C68.6513652,11.5374946 67.3862793,13.9758702 65.70025,16.2290315 L65.0985371,16.7310634 L65.1762891,15.897221 C65.1847109,15.8040839 65.1823047,15.7097352 65.1702734,15.6165981 C64.7795586,12.7223807 63.9679004,9.9915697 62.8277891,7.42159065 C61.96575,7.47277821 61.1288262,7.61149953 60.3239355,7.83351422 C61.4989375,10.3176254 62.3328535,12.9760468 62.7282305,15.8093844 L62.655291,16.5930993 L62.1254648,15.9488629 C62.0657598,15.8761705 61.9977832,15.8112017 61.923791,15.7541079 C59.5799531,13.9587572 57.0524883,12.573967 54.397793,11.5600596 C53.8332266,12.2042959 53.3316738,12.9042631 52.9095273,13.6578409 C55.5306855,14.5801257 58.0289746,15.8808652 60.3326582,17.6285116 L60.8324062,18.2362503 L60.0031523,18.1579545 C59.9100605,18.1500795 59.8169687,18.1500795 59.723877,18.1640122 C56.7720098,18.5677579 53.9912871,19.4205306 51.3796035,20.6205608 C51.4438203,21.4834801 51.5928574,22.32126 51.8246094,23.1252682 C54.3395918,21.897221 57.0374492,21.0297584 59.9160762,20.6219238 L60.3827383,20.6659936 L60.1382031,20.8701381 C60.0618047,20.9338954 59.9938281,21.005982 59.9353262,21.0865494 C58.1023652,23.5835332 56.6895957,26.2675484 55.6592695,29.0781696 C56.3077539,29.6319947 57.0108301,30.1222141 57.7648887,30.5317146 C58.7049805,27.7651632 60.0317266,25.1197658 61.8128027,22.668972 L62.1129824,22.4186375 L62.0540293,23.0524243 C62.0456074,23.1510134 62.0480137,23.250814 62.0624512,23.3492516 C62.5133223,26.3850678 63.4034844,29.2502082 64.6329277,31.9452788 C65.4865449,31.8700119 66.3153477,31.7103915 67.1095605,31.4676292 C65.8580098,28.8697847 64.955666,26.0906636 64.5022383,23.1316288 L64.5386328,22.7422701 L64.9403262,23.2308236 C65.0036406,23.3077564 65.0764297,23.3762084 65.1552344,23.4357253 C67.5678008,25.2316818 70.1570762,26.6244983 72.8665137,27.6547616 C73.4161914,27.0037103 73.9043594,26.2987456 74.3113164,25.5413817 C71.6456426,24.5978949 69.0941152,23.2889775 66.7271172,21.5445115 L66.4785215,21.2422323 L67.1079062,21.3017492 C67.2067129,21.3118958 67.3046172,21.3082612 67.4035742,21.2932684 Z" id="Path" fill="#4B3F4E"></path>
                            <ellipse id="Oval" fill="#6F6571" cx="63.5555293" cy="19.6923698" rx="4.88889844" ry="4.92309246"></ellipse>
                            <path d="M22.000043,23.3846892 L17.1111445,23.3846892 C16.4361914,23.3846892 15.8889199,22.8335899 15.8889199,22.1539161 L15.8889199,17.2308236 C15.8889199,16.5511497 16.4361914,16.0000505 17.1111445,16.0000505 L22.000043,16.0000505 C22.6749961,16.0000505 23.2222676,16.5511497 23.2222676,17.2308236 L23.2222676,22.1539161 C23.2222676,22.8335899 22.6749961,23.3846892 22.000043,23.3846892 Z" id="Path" fill="#6F6571"></path>
                            <path d="M20.7778184,20.9231429 C19.4277617,20.9231429 18.3333691,19.8210959 18.3333691,18.4615967 L18.3333691,16.0000505 L17.1111445,16.0000505 C16.4361914,16.0000505 15.8889199,16.5511497 15.8889199,17.2308236 L15.8889199,22.1539161 C15.8889199,22.8335899 16.4361914,23.3846892 17.1111445,23.3846892 L22.000043,23.3846892 C22.6749961,23.3846892 23.2222676,22.8335899 23.2222676,22.1539161 L23.2222676,20.9231429 L20.7778184,20.9231429 L20.7778184,20.9231429 Z" id="Path" fill="#5D5360"></path>
                        </g>
                    </g>
                </g>
            </g>
        </g>
    </g>
</svg>