<?xml version="1.0" encoding="UTF-8"?>
<svg width="73px" height="49px" viewBox="0 0 73 49" version="1.1" xmlns="http://www.w3.org/2000/svg" xmlns:xlink="http://www.w3.org/1999/xlink">
    <title>dollar</title>
    <g id="Page-1" stroke="none" stroke-width="1" fill="none" fill-rule="evenodd">
        <g id="Mining-Provider-Windows-Dashboard-Design-07" transform="translate(-1017.000000, -497.000000)" fill-rule="nonzero">
            <g id="Mining-app-design" transform="translate(320.000000, 160.000000)">
                <g id="Est_profit" transform="translate(643.000000, 299.000000)">
                    <g id="dollar" transform="translate(54.000000, 38.000000)">
                        <path d="M73,35.6226682 L73,43.8668274 C73,46.6666856 65.4726886,49 56.2203463,49 C46.9680041,49 39.5975273,46.7445421 39.5975273,43.944684 L39.5975273,43.0114475 L39.4406927,36.4783459 L39.519035,36.4783459 C40.7735619,38.8893679 47.6736849,40.7559897 55.9850194,40.7559897 C64.2963538,40.7559897 72.8431654,38.4228242 72.8431654,35.6228171 L73,35.6228171 L73,35.6226682 Z" id="Path" fill="#E2A63B"></path>
                        <path d="M55.7498425,4.97949476 L55.7498425,13.1457974 L55.5930079,13.1457974 C55.5930079,16.0235121 47.8305195,18.27897 38.6565196,18.27897 C35.1281158,18.3566776 31.5212196,17.9678415 28.0711581,17.1123128 L27.9143235,17.267877 C26.1892927,15.8679479 24.2290851,14.7791472 22.1120428,14.0791827 L22.1120428,13.9236185 L21.8768659,5.29062319 C22.4257121,7.93491715 29.7178466,10.0348108 38.5781773,10.0348108 C47.438508,10.0348108 55.5930079,7.77935294 55.5930079,4.97949476 L55.7498425,4.97949476 Z" id="Path" fill="#F4B844"></path>
                        <path d="M55.7498425,5.13505897 L55.7498425,5.13505897 C55.7498425,7.93491715 47.9873541,10.190375 38.7350119,10.190375 C29.4826697,10.190375 22.5042044,8.09048137 21.9553583,5.44618741 C21.9553583,5.36847973 21.877016,5.21291551 21.877016,5.13505897 C21.877016,2.33520079 29.4043274,0.00188640138 38.735162,0.00188640138 C48.0656964,-0.0758212746 55.7498425,2.25734425 55.7498425,5.13505897 Z" id="Path" fill="#FEDB41"></path>
                        <path d="M39.519035,36.478197 L39.519035,36.478197 L39.4406927,34.7671395 L39.2838581,27.767494 C39.8327042,30.411788 47.1248388,32.5116816 55.9851695,32.5116816 C64.8455001,32.5116816 72.6864808,30.2562238 72.9216577,27.5340733 L73,27.5340733 L73,35.6226682 L72.8431654,35.6226682 C72.8431654,38.4225264 65.2373616,40.7558408 55.9850194,40.7558408 C46.7328272,40.7556919 40.7737119,38.8892191 39.519035,36.478197 Z" id="Path" fill="#F4B844"></path>
                        <path d="M28.3064851,41.6890773 C30.4235274,39.7447478 32.0702159,37.2558692 32.9325812,34.5338676 L33.3245927,34.5338676 C35.0496234,34.6894318 36.7746542,34.7671395 38.6565196,34.7671395 L39.4405426,34.7671395 L39.4405426,36.478197 L39.5973772,43.0112987 L38.7348618,43.0112987 C35.2848003,43.0890063 31.9132312,42.7001702 28.541662,41.922498 L28.3064851,41.6890773 Z" id="Path" fill="#E2A63B"></path>
                        <path d="M39.519035,27.1452372 L39.519035,27.5340733 L39.6758696,34.7671395 L38.8916965,34.7671395 C36.9314888,34.7671395 35.1279657,34.6894318 33.403085,34.5338676 L33.0110735,34.5338676 C33.5599196,32.9006666 33.7950965,31.1896091 33.7950965,29.4785516 C33.7950965,28.3118944 33.6382619,27.2230937 33.403085,26.134293 L33.7950965,26.134293 C35.4416349,26.2898573 37.0883234,26.3675649 38.8916965,26.3675649 L39.5973772,26.7564011 C39.519035,26.9118164 39.519035,27.0673806 39.519035,27.1452372 Z" id="Path" fill="#F4B844"></path>
                        <path d="M28.0713082,17.1123128 C31.5213697,17.9678415 35.1281158,18.3566776 38.6566697,18.27897 C47.8305195,18.27897 55.5931579,16.0235121 55.5931579,13.1457974 L55.7499926,13.1457974 L55.7499926,22.323193 C47.2033311,22.323193 40.2248658,24.345379 39.3623504,26.9118164 L38.6566697,26.5229803 C36.9316389,26.5229803 35.2851005,26.4452726 33.7169044,26.2897084 L33.3248928,26.2897084 C32.6192121,22.7120291 30.7373467,19.5233348 27.9146237,17.1900205 L28.0713082,17.1123128 Z" id="Path" fill="#E2A63B"></path>
                        <g id="Group" transform="translate(0.000000, 12.989770)" fill="#FEDB41">
                            <path d="M33.4815774,13.2999384 L33.4815774,13.2999384 C32.6975543,9.72225909 30.7371966,6.45585712 27.9144736,4.04483506 C26.1894428,2.48934175 24.1507428,1.40054109 21.9553583,0.778284225 C20.3871621,0.233883897 18.6621314,0.000612003868 17.015593,0.000612003868 C7.6847584,-0.0773934027 0.0789546048,7.31123702 0.000612334356,16.5663403 C-0.0777299361,25.8214436 7.37108916,33.3656383 16.7019237,33.4433459 C21.0145006,33.4433459 25.0917505,31.8878526 28.3064851,29.0101379 C30.5020197,26.987952 32.1485581,24.4215145 33.0110735,21.6215075 C33.5599196,19.9883065 33.7950966,18.3549567 33.7950966,16.6438991 C33.7950966,15.5553962 33.4815774,14.388739 33.4815774,13.2999384 Z" id="Path"></path>
                            <path d="M72.9216577,14.388739 L72.9216577,14.5443032 C72.6864808,17.2664537 65.080677,19.5219116 55.9851695,19.5219116 C46.8896619,19.5219116 39.8327042,17.4220179 39.2838581,14.777724 L39.2838581,14.3888879 C39.2838581,14.2333237 39.2838581,14.0777594 39.3622003,13.9221952 C40.2247157,11.3556089 47.203181,9.33357185 55.7498425,9.33357185 L55.9850194,9.33357185 C65.2375117,9.33342298 72.9216577,11.5888808 72.9216577,14.388739 Z" id="Path"></path>
                        </g>
                        <path d="M17.015593,27.6117809 C15.6042314,27.6117809 14.4280468,26.4451238 14.4280468,25.0451947 C14.4280468,23.6452656 15.6042314,22.4786084 17.015593,22.4786084 C18.4269545,22.4786084 19.6031391,23.6452656 19.6031391,25.0451947 C19.6031391,25.9007234 20.3088199,26.600688 21.1713352,26.600688 C22.0338506,26.600688 22.7395314,25.9007234 22.7395314,25.0451947 C22.7395314,22.5564649 21.0145006,20.3010071 18.5837891,19.6010425 L18.5837891,18.9787857 C18.5837891,18.1232569 17.8781083,17.4232923 17.015593,17.4232923 C16.1530776,17.4232923 15.4473968,18.1232569 15.4473968,18.9787857 L15.4473968,19.6010425 C12.938343,20.2232994 11.2133123,22.4787572 11.2916545,25.0451947 C11.2916545,28.1561813 13.8792007,30.7227676 17.015593,30.7227676 C18.4269545,30.7227676 19.6031391,31.8894248 19.6031391,33.2893538 C19.6031391,34.6892829 18.4269545,35.8559401 17.015593,35.8559401 L17.015593,35.8559401 C15.6042314,35.8559401 14.4280468,34.6892829 14.4280468,33.2893538 C14.4280468,32.4338251 13.7223661,31.7338605 12.8598507,31.7338605 C11.9973353,31.7338605 11.2916545,32.4338251 11.2916545,33.2893538 C11.2916545,35.8559401 13.0166853,38.0335414 15.4473968,38.733506 L15.4473968,39.9778709 C15.4473968,40.8333996 16.1530776,41.5333642 17.015593,41.5333642 C17.8781083,41.5333642 18.5837891,40.8333996 18.5837891,39.9778709 L18.5837891,38.733506 C21.641689,37.8779772 23.3667198,34.6892829 22.4258621,31.656004 C21.7201814,29.3228385 19.5246468,27.6117809 17.015593,27.6117809 Z" id="Path" fill="#E2A63B"></path>
                    </g>
                </g>
            </g>
        </g>
    </g>
</svg>