<svg width="233" height="144" viewBox="0 0 233 144" fill="none" xmlns="http://www.w3.org/2000/svg">
<g style="mix-blend-mode:lighten">
<path d="M72.7245 94.3899C69.4842 99.9837 85.3112 115.157 107.994 128.283C130.676 141.409 151.793 147.509 155.034 141.937C158.274 136.365 142.425 121.17 119.765 108.044C97.1042 94.9184 75.9428 88.8181 72.7245 94.3899Z" fill="url(#paint0_radial)"/>
</g>
<g style="mix-blend-mode:lighten">
<ellipse cx="69.9833" cy="92.7902" rx="11.6748" ry="74.0478" transform="rotate(-60 69.9833 92.7902)" fill="url(#paint1_radial)"/>
</g>
<path d="M28.8809 65.606L44.796 81.8588L42.4815 78.6214L28.8809 65.606Z" fill="#D9C3B2"/>
<path d="M42.4815 78.6214L28.8809 65.606L44.774 72.7413L42.4815 78.6214Z" fill="#EADDD3"/>
<path d="M28.8809 65.606L44.774 72.7413L49.3589 70.0986L28.8809 65.606Z" fill="#F1E9E3"/>
<path d="M134.93 124.715C136.011 124.121 136.87 124.715 136.87 125.838C136.793 127.188 136.082 128.421 134.952 129.164C133.872 129.781 133.013 129.164 133.013 128.063C133.083 126.706 133.795 125.463 134.93 124.715Z" fill="#2D5BB6"/>
<path d="M132.66 132.819L44.796 81.8587L42.4814 78.6213L130.345 129.604L132.66 132.819Z" fill="#5B7DAB"/>
<path d="M130.345 129.604L42.4814 78.6215L44.7739 72.7415L132.638 123.702L130.345 129.604Z" fill="#83A5D8"/>
<path fill-rule="evenodd" clip-rule="evenodd" d="M139.427 124.297L137.223 121.059L132.638 123.702L130.434 129.604L132.638 132.82L137.223 130.177L139.427 124.297ZM136.936 125.838C136.859 127.187 136.148 128.421 135.019 129.164C133.938 129.78 133.079 129.274 133.079 128.063C133.149 126.706 133.861 125.463 134.997 124.715C136.077 124.12 136.936 124.605 136.936 125.838Z" fill="#EADDD3"/>
<path d="M132.637 123.702L44.7734 72.7414L49.3584 70.0986L137.222 121.059L132.637 123.702Z" fill="#A3BDED"/>
<path d="M36.8165 67.8303C37.1406 67.6343 37.5198 67.5492 37.8966 67.588L28.8369 65.606L35.0531 71.9485C34.9386 71.7083 34.8856 71.4435 34.8988 71.1777C34.9618 69.8186 35.6755 68.5729 36.8165 67.8303Z" fill="url(#paint2_linear)"/>
<g style="mix-blend-mode:lighten">
<path opacity="0.01" d="M128.912 23.9609C133.754 21.472 139.501 21.472 144.342 23.9609L229.826 73.7105C234.058 76.177 234.058 80.3173 229.826 82.7178L161.492 122.359C156.65 124.848 150.904 124.848 146.062 122.359L60.5565 72.7414C56.3022 70.2529 56.3242 66.1346 60.5565 63.7341L128.912 23.9609Z" fill="white"/>
<path opacity="0.0322581" d="M128.67 24.137C133.508 21.6334 139.262 21.6334 144.1 24.137L229.032 73.4241C233.242 75.8906 233.242 79.8988 229.032 82.3653L161.117 121.808C156.276 124.301 150.528 124.301 145.687 121.808L60.8652 72.4991C56.6329 70.0325 56.6549 66.0464 60.8652 63.5578L128.67 24.137Z" fill="#FDFDFE"/>
<path opacity="0.0645161" d="M128.427 24.3133C133.189 21.8451 138.854 21.8451 143.615 24.3133L228.018 73.27C232.184 75.7145 232.184 79.6786 228.018 82.0791L160.765 121.236C156.001 123.693 150.341 123.693 145.577 121.236L61.1739 72.279C56.9857 69.8124 57.0077 65.8483 61.1739 63.4698L128.427 24.3133Z" fill="#FAFBFC"/>
<path opacity="0.0967742" d="M128.185 24.4674C132.918 22.0444 138.529 22.0444 143.262 24.4674L227.026 73.1158C231.17 75.5383 231.17 79.4804 227.026 81.9249L160.39 120.685C155.664 123.108 150.06 123.108 145.334 120.685L61.5705 72.0366C57.4043 69.6141 57.4263 65.6721 61.5705 63.2275L128.185 24.4674Z" fill="#F8F9FB"/>
<path opacity="0.129032" d="M127.942 24.6436C132.629 22.222 138.201 22.222 142.888 24.6436L226.211 72.9616C230.311 75.3621 230.311 79.2601 226.211 81.7707L160.081 120.223C155.389 122.622 149.828 122.622 145.136 120.223L61.7689 71.8164C57.6689 69.3939 57.6909 65.4959 61.7689 63.0073L127.942 24.6436Z" fill="#F5F7F9"/>
<path opacity="0.16129" d="M127.722 24.7978C132.372 22.418 137.885 22.418 142.535 24.7978L225.307 72.8076C229.385 75.186 229.385 79.0621 225.307 81.4405L159.685 119.562C155.039 121.964 149.517 121.964 144.872 119.562L62.0776 71.5082C57.9996 69.1298 58.0216 65.2538 62.0776 62.8753L127.722 24.7978Z" fill="#F3F5F8"/>
<path opacity="0.193548" d="M127.48 24.974C132.084 22.5956 137.556 22.5956 142.16 24.974L224.403 72.6314C228.437 75.0099 228.437 78.8418 224.403 81.2203L159.332 119.011C154.717 121.379 149.244 121.379 144.629 119.011L62.3862 71.3541C58.3303 68.9756 58.3523 65.1436 62.3862 62.7652L127.48 24.974Z" fill="#F0F2F7"/>
<path opacity="0.225806" d="M127.193 25.2604C131.764 22.9051 137.193 22.9051 141.764 25.2604L223.455 72.5874C227.467 74.9438 227.467 78.7318 223.455 81.0882L158.957 118.527C154.381 120.86 148.963 120.86 144.387 118.527L62.695 71.1119C58.6831 68.7554 58.7052 64.9675 62.695 62.6111L127.193 25.2604Z" fill="#EEF0F5"/>
<path opacity="0.258065" d="M126.995 25.2602C131.524 22.9246 136.904 22.9246 141.433 25.2602L222.596 72.2789C226.564 74.4812 226.564 78.3793 222.596 80.7137L158.671 117.866C154.137 120.18 148.767 120.18 144.233 117.866L63.0036 70.8915C59.0138 68.5571 59.0359 64.7912 63.0036 62.4568L126.995 25.2602Z" fill="#EBEEF4"/>
<path opacity="0.290323" d="M126.752 25.4804C131.247 23.168 136.584 23.168 141.08 25.4804L221.691 72.1688C225.637 74.3711 225.637 78.203 221.691 80.5154L158.251 117.338C153.756 119.65 148.419 119.65 143.923 117.338L63.2674 70.6492C59.2996 68.4469 59.3216 64.615 63.2674 62.3026L126.752 25.4804Z" fill="#E9ECF3"/>
<path opacity="0.322581" d="M126.51 25.6347C130.972 23.3454 136.265 23.3454 140.728 25.6347L220.788 72.0147C224.69 74.217 224.69 78.005 220.788 80.2733L157.899 116.787C153.434 119.066 148.146 119.066 143.681 116.787L63.5986 70.4071C59.697 68.2048 59.719 64.4389 63.5986 62.1485L126.51 25.6347Z" fill="#E6EAF1"/>
<path opacity="0.354839" d="M126.267 25.8108C130.689 23.5448 135.932 23.5448 140.353 25.8108L219.884 71.8605C223.764 74.0628 223.764 77.7846 219.884 80.053L157.524 116.236C153.109 118.495 147.876 118.495 143.461 116.236L63.9073 70.1868C60.0277 67.9845 60.0497 64.2406 63.9073 61.9943L126.267 25.8108Z" fill="#E4E8F0"/>
<path opacity="0.387097" d="M126.047 25.9649C130.426 23.7187 135.621 23.7187 140 25.9649L218.981 71.6843C222.816 73.8866 222.816 77.5644 218.981 79.8107L157.26 115.664C152.881 117.91 147.686 117.91 143.307 115.664L64.216 69.9445C60.3805 67.7422 60.4026 64.0644 64.216 61.8181L126.047 25.9649Z" fill="#E1E6EE"/>
<path opacity="0.419355" d="M125.805 26.1413C130.143 23.9184 135.287 23.9184 139.626 26.1413L218.099 71.5083C221.891 73.7105 221.891 77.3443 218.099 79.5686L156.819 115.113C152.473 117.337 147.322 117.337 142.976 115.113L64.5247 69.7244C60.7112 67.5221 60.7333 63.8884 64.5247 61.6641L125.805 26.1413Z" fill="#DFE4ED"/>
<path opacity="0.451613" d="M125.562 26.3172C129.861 24.0918 134.974 24.0918 139.273 26.3172L217.195 71.3759C220.943 73.5782 220.943 77.1459 217.195 79.3482L156.533 114.585C152.218 116.778 147.114 116.778 142.8 114.585L64.8333 69.482C61.0419 67.2797 61.064 63.712 64.8333 61.5097L125.562 26.3172Z" fill="#DCE2EC"/>
<path opacity="0.483871" d="M125.319 26.4715C129.582 24.2914 134.634 24.2914 138.897 26.4715L216.291 71.2218C220.016 73.4241 220.016 76.9477 216.291 79.128L156.091 113.99C151.83 116.181 146.773 116.181 142.512 113.99L65.1411 69.3058C61.3938 67.1035 61.4158 63.5799 65.1411 61.3996L125.319 26.4715Z" fill="#DAE0EA"/>
<path opacity="0.516129" d="M124.989 26.6478C129.219 24.4908 134.227 24.4908 138.457 26.6478L215.366 71.0678C219.047 73.2701 219.047 76.7276 215.366 78.8859L155.849 113.352C151.619 115.509 146.611 115.509 142.381 113.352L65.4723 69.0197C61.7691 66.8174 61.7911 63.3598 65.4723 61.2016L124.989 26.6478Z" fill="#D7DDE9"/>
<path opacity="0.548387" d="M124.835 26.8018C128.993 24.7018 133.902 24.7018 138.061 26.8018L214.374 70.8474C218.033 73.0497 218.011 76.4632 214.374 78.6214L155.386 112.889C151.191 115.026 146.224 115.026 142.028 112.889L65.737 68.8433C62.0558 66.641 62.0779 63.2275 65.737 61.0693L124.835 26.8018Z" fill="#D5DBE7"/>
<path opacity="0.580645" d="M124.591 26.978C128.746 24.8638 133.662 24.8638 137.817 26.978L213.579 70.7373C217.194 72.9396 217.194 76.3091 213.579 78.4233L155.011 112.316C150.86 114.449 145.935 114.449 141.785 112.316L66.0448 68.557C62.4077 66.3548 62.4297 63.0073 66.0448 60.8711L124.591 26.978Z" fill="#D2D9E6"/>
<path opacity="0.612903" d="M124.349 27.1543C128.495 25.0036 133.429 25.0036 137.575 27.1543L212.786 70.5833C216.379 72.7856 216.357 76.089 212.786 78.2032L154.658 111.766C150.547 113.868 145.676 113.868 141.565 111.766L66.3534 68.337C62.7384 66.1347 62.7604 62.8313 66.3534 60.7171L124.349 27.1543Z" fill="#D0D7E5"/>
<path opacity="0.645161" d="M124.129 27.3085C128.201 25.2373 133.019 25.2373 137.09 27.3085L211.773 70.4291C215.321 72.4993 215.321 75.8688 211.773 77.9609L154.306 111.149C150.227 113.221 145.402 113.221 141.323 111.149L66.6626 68.0947C63.0916 65.8924 63.0916 62.6331 66.6626 60.5629L124.129 27.3085Z" fill="#CDD5E3"/>
<path opacity="0.677419" d="M123.886 27.4625C127.919 25.3927 132.704 25.3927 136.737 27.4625L210.957 70.2748C214.483 72.3229 214.461 75.6704 210.957 77.7405L153.953 110.643C149.92 112.712 145.135 112.712 141.102 110.643L66.9708 67.8743C63.4219 65.8042 63.4439 62.4567 66.9708 60.4086L123.886 27.4625Z" fill="#CBD3E2"/>
<path opacity="0.709677" d="M123.644 27.6387C127.642 25.6139 132.366 25.6139 136.363 27.6387L209.965 70.1207C213.448 72.1468 213.448 75.4502 209.965 77.4984L153.645 110.092C149.653 112.139 144.918 112.139 140.926 110.092L67.2581 67.6321C63.7532 65.584 63.7753 62.2806 67.2581 60.2325L123.644 27.6387Z" fill="#C8D1E0"/>
<path opacity="0.741935" d="M123.401 27.8149C127.359 25.7879 132.052 25.7879 136.01 27.8149L209.061 69.9445C212.522 71.9706 212.5 75.252 209.061 77.2561L153.226 109.542C149.265 111.558 144.578 111.558 140.617 109.542L67.6762 67.3899C64.2154 65.3858 64.2375 62.1044 67.6762 60.0783L123.401 27.8149Z" fill="#C6CFDF"/>
<path opacity="0.774194" d="M123.159 27.9912C127.076 25.9876 131.718 25.9876 135.635 27.9912L208.157 69.8345C211.574 71.8386 211.574 75.076 208.157 77.08L152.873 108.947C148.962 110.943 144.329 110.943 140.418 108.947L67.8745 67.1037C64.4358 65.0996 64.4578 61.8623 67.8745 59.8582L123.159 27.9912Z" fill="#C3CDDE"/>
<path opacity="0.806452" d="M122.916 28.1453C126.8 26.1648 131.399 26.1648 135.282 28.1453L207.253 69.6363C210.648 71.6183 210.626 74.8116 207.253 76.7937L152.52 108.418C148.636 110.399 144.038 110.399 140.154 108.418L68.1832 66.9275C64.7665 64.9454 64.7885 61.7521 68.1832 59.77L122.916 28.1453Z" fill="#C1CBDC"/>
<path opacity="0.83871" d="M122.784 28.3214C126.626 26.3606 131.176 26.3606 135.018 28.3214L206.46 69.482C209.81 71.42 209.81 74.6133 206.46 76.5734L152.146 107.868C148.304 109.829 143.753 109.829 139.912 107.868L68.4919 66.7072C65.1193 64.7471 65.1413 61.5758 68.4919 59.6158L122.784 28.3214Z" fill="#BEC8DB"/>
<path opacity="0.870968" d="M122.431 28.4755C126.24 26.5378 130.747 26.5378 134.555 28.4755L205.446 69.3058C208.774 71.2218 208.752 74.371 205.446 76.309L151.793 107.317C147.982 109.244 143.48 109.244 139.669 107.317L68.8006 66.4649C65.45 64.5268 65.472 61.3996 68.8006 59.4616L122.431 28.4755Z" fill="#BCC6DA"/>
<path opacity="0.903226" d="M122.211 28.6519C125.973 26.7449 130.419 26.7449 134.181 28.6519L204.542 69.1518C207.827 71.0678 207.827 74.195 204.542 76.111L151.44 106.745C147.673 108.659 143.217 108.659 139.449 106.745L69.0873 66.2448C65.8029 64.3288 65.8029 61.2236 69.0873 59.2856L122.211 28.6519Z" fill="#B9C4D8"/>
<path opacity="0.935484" d="M121.968 28.8279C125.689 26.9115 130.107 26.9115 133.828 28.8279L203.638 68.9975C206.901 70.8915 206.879 73.9747 203.638 75.8687L151.065 106.194C147.34 108.089 142.932 108.089 139.206 106.194L69.3956 66.0024C66.1332 64.1085 66.1552 61.0253 69.3956 59.1313L121.968 28.8279Z" fill="#B7C2D7"/>
<path opacity="0.967742" d="M121.726 28.9821C125.418 27.1105 129.783 27.1105 133.475 28.9821L202.734 68.8434C205.953 70.7153 205.953 73.7545 202.734 75.6484L150.713 105.644C147.02 107.515 142.656 107.515 138.964 105.644L69.7042 65.7822C66.4639 63.8882 66.4859 60.8491 69.7042 58.9772L121.726 28.9821Z" fill="#B4C0D5"/>
<path d="M121.484 29.1583C125.129 27.2848 129.456 27.2848 133.101 29.1583L201.831 68.6893C205.028 70.5392 205.005 73.5563 201.831 75.2961L150.361 105.071C146.713 106.934 142.392 106.934 138.744 105.071L70.0134 65.54C66.8171 63.6901 66.8171 60.673 70.0134 58.8231L121.484 29.1583Z" fill="#B2BED4"/>
</g>
<path d="M66.3984 37.615L131.602 0L210.318 45.6973L145.114 83.3123L66.3984 37.615Z" fill="#F5F7FA"/>
<path d="M164.49 45.8296L167.598 47.6134L133.497 67.2798L130.411 65.496L164.49 45.8296Z" fill="#D1DDE3"/>
<path d="M180.604 43.4731L183.712 45.279L139.515 70.7814L136.407 68.9756L180.604 43.4731Z" fill="#D1DDE3"/>
<path d="M173.572 33.6289L176.68 35.4348L127.502 63.8002L124.394 62.0163L173.572 33.6289Z" fill="#D1DDE3"/>
<path d="M191.581 44.0896L194.689 45.8955L145.51 74.2609L142.402 72.455L191.581 44.0896Z" fill="#D1DDE3"/>
<path d="M210.318 45.6973L210.406 72.9175L145.202 110.532L145.114 83.3122L210.318 45.6973Z" fill="url(#paint3_linear)"/>
<path d="M145.114 83.3123L145.203 110.533L66.4646 64.8352L66.3984 37.615L145.114 83.3123Z" fill="url(#paint4_linear)"/>
<g style="mix-blend-mode:lighten">
<path d="M66.4199 38.7161L105.833 61.5097L145.158 84.4134L105.745 61.6418L66.4199 38.7161Z" fill="#9ABFCC"/>
</g>
<g style="mix-blend-mode:lighten">
<path d="M66.4199 40.522L105.833 63.2936L145.158 86.2193L105.745 63.4257L66.4199 40.522Z" fill="#9ABFCC"/>
</g>
<g style="mix-blend-mode:lighten">
<path d="M66.4199 42.3279L105.833 65.0995L145.158 88.0252L105.745 65.2316L66.4199 42.3279Z" fill="#9ABFCC"/>
</g>
<g style="mix-blend-mode:lighten">
<path d="M66.4199 44.1338L105.833 66.9054L145.158 89.8311L105.745 67.1036L66.4199 44.1338Z" fill="#9ABFCC"/>
</g>
<g style="mix-blend-mode:lighten">
<path d="M66.4199 45.9175L105.833 68.7111L145.158 91.6368L105.745 68.8432L66.4199 45.9175Z" fill="#9ABFCC"/>
</g>
<g style="mix-blend-mode:lighten">
<path d="M66.4199 47.7234L105.833 70.517L145.158 93.5308L105.745 70.6491L66.4199 47.7234Z" fill="#9ABFCC"/>
</g>
<g style="mix-blend-mode:lighten">
<path d="M66.4199 49.4854L105.833 72.323L145.158 95.2488L105.745 72.4551L66.4199 49.4854Z" fill="#9ABFCC"/>
</g>
<g style="mix-blend-mode:lighten">
<path d="M66.4199 51.3352L105.833 74.1288L145.158 97.0546L105.745 74.261L66.4199 51.3352Z" fill="#9ABFCC"/>
</g>
<g style="mix-blend-mode:lighten">
<path d="M66.4199 53.1411L105.833 75.9127L145.158 98.8164L105.745 76.0669L66.4199 53.1411Z" fill="#9ABFCC"/>
</g>
<g style="mix-blend-mode:lighten">
<path d="M66.4199 54.947L105.833 77.7406L145.158 100.644L105.745 77.8728L66.4199 54.947Z" fill="#9ABFCC"/>
</g>
<g style="mix-blend-mode:lighten">
<path d="M66.4199 56.7527L105.833 79.5463L145.158 102.45L105.745 79.6784L66.4199 56.7527Z" fill="#9ABFCC"/>
</g>
<g style="mix-blend-mode:lighten">
<path d="M66.4199 58.5586L105.833 81.3302L145.158 104.256L105.745 81.4623L66.4199 58.5586Z" fill="#9ABFCC"/>
</g>
<g style="mix-blend-mode:lighten">
<path d="M66.4199 60.3645L105.833 83.1361L145.158 106.062L105.745 83.2682L66.4199 60.3645Z" fill="#9ABFCC"/>
</g>
<g style="mix-blend-mode:lighten">
<path d="M66.4199 62.1704L105.833 84.942L145.158 107.868L105.745 85.0741L66.4199 62.1704Z" fill="#9ABFCC"/>
</g>
<g style="mix-blend-mode:lighten">
<path d="M66.4199 63.9543L105.833 86.748L145.158 109.674L105.745 86.9241L66.4199 63.9543Z" fill="#9ABFCC"/>
</g>
<g style="mix-blend-mode:lighten">
<path d="M145.114 84.4134L177.672 65.4738L210.318 46.6443L177.76 65.6059L145.114 84.4134Z" fill="#9ABFCC"/>
</g>
<g style="mix-blend-mode:lighten">
<path d="M145.114 86.2193L177.672 67.2797L210.318 48.4502L177.76 67.4118L145.114 86.2193Z" fill="#9ABFCC"/>
</g>
<g style="mix-blend-mode:lighten">
<path d="M145.114 88.0252L177.672 69.0636L210.318 50.2561L177.76 69.3058L145.114 88.0252Z" fill="#9ABFCC"/>
</g>
<g style="mix-blend-mode:lighten">
<path d="M145.114 89.8311L177.672 70.8695L210.318 52.062L177.76 71.0016L145.114 89.8311Z" fill="#9ABFCC"/>
</g>
<g style="mix-blend-mode:lighten">
<path d="M145.114 91.637L177.672 72.6754L210.318 53.8899L177.76 72.8295L145.114 91.637Z" fill="#9ABFCC"/>
</g>
<g style="mix-blend-mode:lighten">
<path d="M145.114 93.5308L177.672 74.4811L210.318 55.6736L177.76 74.6132L145.114 93.5308Z" fill="#9ABFCC"/>
</g>
<g style="mix-blend-mode:lighten">
<path d="M145.114 95.2487L177.672 76.287L210.318 57.4575L177.76 76.4192L145.114 95.2487Z" fill="#9ABFCC"/>
</g>
<g style="mix-blend-mode:lighten">
<path d="M145.114 97.0545L177.672 78.1149L210.318 59.2854L177.76 78.225L145.114 97.0545Z" fill="#9ABFCC"/>
</g>
<g style="mix-blend-mode:lighten">
<path d="M145.114 98.8385L177.672 79.8988L210.318 61.0693L177.76 80.031L145.114 98.8385Z" fill="#9ABFCC"/>
</g>
<g style="mix-blend-mode:lighten">
<path d="M145.114 100.644L177.672 81.7048L210.318 62.8752L177.76 81.8369L145.114 100.644Z" fill="#9ABFCC"/>
</g>
<g style="mix-blend-mode:lighten">
<path d="M145.114 102.45L177.672 83.5104L210.318 64.6809L177.76 83.6426L145.114 102.45Z" fill="#9ABFCC"/>
</g>
<g style="mix-blend-mode:lighten">
<path d="M145.114 104.256L177.672 85.3163L210.318 66.4868L177.76 85.4485L145.114 104.256Z" fill="#9ABFCC"/>
</g>
<g style="mix-blend-mode:lighten">
<path d="M145.114 106.062L177.672 87.1002L210.318 68.2927L177.76 87.2323L145.114 106.062Z" fill="#9ABFCC"/>
</g>
<g style="mix-blend-mode:lighten">
<path d="M145.114 107.868L177.672 88.9061L210.318 70.0986L177.76 89.1263L145.114 107.868Z" fill="#9ABFCC"/>
</g>
<g style="mix-blend-mode:lighten">
<path d="M145.114 109.674L177.672 90.712L210.318 71.9045L177.76 90.8442L145.114 109.674Z" fill="#9ABFCC"/>
</g>
<defs>
<radialGradient id="paint0_radial" cx="0" cy="0" r="1" gradientUnits="userSpaceOnUse" gradientTransform="translate(254.878 131.929) rotate(-150.278) scale(47.7596 41.2755)">
<stop stop-color="#8691A6"/>
<stop offset="0.15" stop-color="#8F99AD"/>
<stop offset="0.39" stop-color="#A8B0BF"/>
<stop offset="0.7" stop-color="#D1D5DD"/>
<stop offset="1" stop-color="white"/>
</radialGradient>
<radialGradient id="paint1_radial" cx="0" cy="0" r="1" gradientUnits="userSpaceOnUse" gradientTransform="translate(26.6983 93.0987) rotate(-90) scale(74.0478 11.6748)">
<stop stop-color="#8691A6"/>
<stop offset="0.15" stop-color="#8F99AD"/>
<stop offset="0.39" stop-color="#A8B0BF"/>
<stop offset="0.7" stop-color="#D1D5DD"/>
<stop offset="1" stop-color="white"/>
</radialGradient>
<linearGradient id="paint2_linear" x1="33.6026" y1="69.7689" x2="34.5564" y2="66.901" gradientUnits="userSpaceOnUse">
<stop stop-color="#054391"/>
<stop offset="1" stop-color="#667EEA"/>
</linearGradient>
<linearGradient id="paint3_linear" x1="145.114" y1="110.532" x2="210.406" y2="110.532" gradientUnits="userSpaceOnUse">
<stop stop-color="#F5F7FA"/>
<stop offset="1" stop-color="#CDD9ED"/>
</linearGradient>
<linearGradient id="paint4_linear" x1="66.3984" y1="110.522" x2="145.203" y2="110.522" gradientUnits="userSpaceOnUse">
<stop stop-color="#F5F7FA"/>
<stop offset="1" stop-color="#CDD9ED"/>
</linearGradient>
</defs>
</svg>
