<svg width="207" height="202" viewBox="0 0 207 202" fill="none" xmlns="http://www.w3.org/2000/svg">
<path d="M131.663 69.6865C129.74 75.5684 129.866 81.9014 129.866 88.072C129.784 88.9521 130.027 89.8317 130.549 90.5438C131.141 91.0143 131.878 91.2631 132.633 91.2475C133.692 91.4508 134.788 91.1953 135.651 90.5438C136.108 90.0401 136.407 89.4128 136.513 88.7396C136.815 87.6006 137.001 86.4339 137.07 85.2573C137.035 84.544 137.171 83.8327 137.465 83.1824C137.846 82.6262 138.358 82.1736 138.956 81.8653C139.308 81.6238 139.696 81.4411 140.106 81.324C140.718 81.2582 141.336 81.3514 141.902 81.5947C142.422 81.7396 142.918 81.9584 143.375 82.2442C144.154 82.9528 144.71 83.8747 144.974 84.8965C145.208 85.5641 145.441 86.1956 145.729 86.8451C146.186 87.7441 146.489 88.7139 146.627 89.7139C148.229 90.1936 149.92 90.2924 151.567 90.0026C152.201 89.9217 152.812 89.713 153.364 89.3891C153.894 89.0811 154.272 88.5642 154.406 87.9637C154.944 84.9687 153.525 81.8473 152.447 78.9424C151.579 77.2505 151.013 75.4183 150.777 73.5296C150.777 72.9162 150.777 72.3027 150.777 71.7254C150.777 71.0996 150.524 70.5006 150.076 70.0654C149.274 69.5522 148.286 69.4265 147.381 69.7226C144.806 70.2271 142.202 70.5705 139.585 70.7511C136.9 70.9162 134.209 70.5546 131.663 69.6865Z" fill="url(#paint0_linear)"/>
<path d="M155.358 54.2781C154.719 54.5061 154.114 54.8218 153.561 55.2163C153.176 55.4439 152.815 55.7099 152.484 56.0102C152.126 56.31 151.859 56.7035 151.711 57.1469C151.528 56.8308 151.291 56.5497 151.01 56.3169C150.481 55.7481 149.989 55.1454 149.537 54.5127C149.355 54.2279 149.131 53.9724 148.873 53.7549C148.635 53.5487 148.321 53.4565 148.01 53.5023C147.591 54.1136 147.36 54.8351 147.346 55.5772C147.223 58.1787 147.379 60.7858 147.813 63.3536C147.86 63.8226 147.944 64.2871 148.064 64.7429C148.351 65.5343 148.757 66.2767 149.268 66.9441C149.735 67.6477 150.669 68.604 150.184 69.3076C149.811 69.7597 149.353 70.1337 148.837 70.4082C146.682 71.8859 144.228 72.8657 141.651 73.277C140.314 73.3575 138.973 73.3092 137.645 73.1327C136.713 73.0678 135.788 72.9291 134.878 72.7177C134.076 72.6385 133.312 72.3388 132.669 71.8517C132.091 71.3824 131.661 70.756 131.429 70.0474C131.393 69.7417 131.393 69.4329 131.429 69.1272C131.512 68.6494 131.651 68.1831 131.842 67.7379C131.955 67.5316 132.045 67.3139 132.112 67.0884C132.138 66.8305 132.138 66.5705 132.112 66.3126C132.355 64.9346 132.511 63.5425 132.579 62.1447C132.579 61.856 132.579 61.5674 132.471 61.2787C132.363 60.99 132.471 60.7554 132.471 60.5028C132.517 58.7146 132.281 56.9303 131.77 55.2163C131.537 54.1518 131.267 53.1234 131.034 52.0589C130.868 51.0136 130.766 49.9592 130.728 48.9014C130.728 48.5406 130.728 48.1617 130.567 47.8008C130.486 47.475 130.486 47.1343 130.567 46.8085C130.631 46.5245 130.662 46.2337 130.657 45.9424C130.72 45.2743 130.653 44.6 130.459 43.9577C130.136 43.1278 129.776 42.3339 129.417 41.54L128.609 39.7358C128.107 38.4267 127.397 37.208 126.507 36.1272C127.603 36.1603 128.678 35.8236 129.561 35.171C130.144 34.8505 130.503 34.2328 130.495 33.5652C131.123 33.9375 131.658 34.4499 132.058 35.0627C133.02 36.3492 133.834 37.7414 134.483 39.2125C134.601 39.5308 134.745 39.8386 134.914 40.1327C135.412 40.9475 136.226 41.5165 137.16 41.7024H137.339L137.645 41.5942C138.215 42.0917 138.739 42.6413 139.208 43.236C139.448 43.546 139.659 43.8783 139.836 44.2284C140.271 45.0239 140.58 45.8821 140.753 46.7724C141.283 46.1355 141.669 45.3906 141.884 44.5892L143.034 41.1611L143.286 39.7358L144.184 40.7281C144.404 41.0215 144.664 41.2827 144.956 41.5039L145.711 42.0994L149.124 44.7516C149.56 45.0656 149.952 45.4356 150.292 45.8522C150.66 46.4343 150.996 47.0367 151.298 47.6565C151.621 48.1617 152.052 48.5947 152.412 49.0638C152.708 49.4646 152.983 49.8802 153.238 50.3088L154.496 52.3656C154.83 52.9806 155.118 53.6199 155.358 54.2781Z" fill="url(#paint1_linear)"/>
<path d="M135.525 37.1557L135.812 37.6248C136.228 38.2416 136.6 38.8867 136.926 39.5554C137.091 39.8716 137.224 40.2042 137.321 40.5478C137.428 40.8945 137.428 41.2655 137.321 41.6123V41.7746L137.627 41.6664C138.197 42.1639 138.72 42.7135 139.19 43.3083C139.43 43.6183 139.641 43.9505 139.818 44.3006C140.252 45.0726 140.567 45.906 140.752 46.7725C141.283 46.1355 141.669 45.3907 141.884 44.5893L143.034 41.1612L143.285 39.7358L142.782 39.3028C142.644 39.0751 142.529 38.8331 142.441 38.5811C142.347 38.2972 142.269 38.008 142.208 37.7151C142.208 37.5166 142.208 37.3362 142.118 37.1377C142.045 36.9584 142.045 36.7576 142.118 36.5784L142.477 36.1814C142.854 36.1028 143.185 35.8753 143.393 35.5499C143.592 35.2295 143.703 34.8625 143.717 34.4854C143.803 34.2569 143.736 33.9986 143.551 33.8406C143.365 33.6826 143.101 33.659 142.89 33.7818C142.595 33.8549 142.37 34.0949 142.315 34.3952C142.308 34.5395 142.308 34.684 142.315 34.8282C142.315 34.9726 142.226 35.135 142.082 35.135C141.98 35.1244 141.895 35.0531 141.866 34.9545C141.849 34.853 141.849 34.7493 141.866 34.6478C142.058 34.0669 142.138 33.4544 142.1 32.8435C142.1 32.5007 141.848 32.176 141.758 31.8512C141.699 31.5472 141.657 31.2399 141.633 30.931C141.555 30.4075 141.338 29.9148 141.004 29.5057C140.679 29.0875 140.212 28.8047 139.693 28.7118C139.306 28.6478 138.911 28.6478 138.525 28.7118H137.86C137.27 28.7397 136.697 28.9133 136.189 29.217C135.561 29.8025 135.187 30.6124 135.148 31.4723C135.058 32.7517 135.058 34.036 135.148 35.3154C135.122 35.9506 135.251 36.5824 135.525 37.1557Z" fill="url(#paint2_linear)"/>
<path d="M140.753 46.7726C140.606 46.6248 140.468 46.4681 140.34 46.3035C140.177 46.0894 139.99 45.8956 139.783 45.7261C139.482 45.5343 139.155 45.3884 138.813 45.2931C138.062 45.0615 137.28 44.9518 136.495 44.9683C136.992 44.0068 137.222 42.9285 137.16 41.8469C137.16 41.6665 137.16 41.468 137.16 41.2876L137.717 41.7747C138.287 42.2722 138.81 42.8219 139.28 43.4166C139.52 43.7266 139.731 44.0589 139.908 44.409C140.301 45.1523 140.585 45.9482 140.753 46.7726Z" fill="url(#paint3_linear)"/>
<path d="M145.962 44.1022C145.227 44.1283 144.498 44.2372 143.788 44.4269C142.738 45.1576 141.725 45.9405 140.752 46.7725C141.282 46.1355 141.668 45.3907 141.884 44.5893L143.033 41.1612L143.285 39.7358L145.962 44.1022Z" fill="url(#paint4_linear)"/>
<path d="M144.094 33.0419C144.058 32.7362 144.058 32.4275 144.094 32.1218C144.127 31.7823 144.097 31.4395 144.004 31.1114C143.925 30.9153 143.816 30.7327 143.681 30.5701C142.85 29.4952 141.863 28.5523 140.752 27.7735C140.494 27.569 140.202 27.4103 139.89 27.3044C139.009 27.1417 138.099 27.3154 137.339 27.7915C137.179 27.86 137.033 27.9579 136.908 28.0802C136.79 28.2126 136.688 28.3578 136.603 28.5132C136.468 28.7059 136.318 28.887 136.154 29.0545C135.665 29.6781 135.327 30.4068 135.165 31.1835C135.004 31.9605 134.932 32.7536 134.95 33.5471C134.923 33.6105 134.923 33.6822 134.95 33.7456H135.058H135.237C135.228 33.0343 135.264 32.3232 135.345 31.6166C135.385 30.7567 135.759 29.9468 136.387 29.3612C136.894 29.0575 137.468 28.884 138.058 28.856H138.722C139.109 28.7921 139.504 28.7921 139.89 28.856C140.41 28.949 140.877 29.2317 141.202 29.6499C141.536 30.0591 141.753 30.5517 141.83 31.0753C141.855 31.3842 141.897 31.6914 141.956 31.9955C142.046 32.3202 142.226 32.645 142.297 32.9878C142.335 33.5987 142.256 34.2112 142.064 34.7921C142.046 34.8936 142.046 34.9973 142.064 35.0988C142.093 35.1973 142.178 35.2687 142.279 35.2792C142.423 35.2792 142.513 35.1168 142.513 34.9725C142.506 34.8282 142.506 34.6837 142.513 34.5395C142.568 34.2392 142.793 33.9991 143.088 33.926C143.281 33.8348 143.505 33.8348 143.699 33.926L144.022 33.5832C144.08 33.5289 144.123 33.4605 144.148 33.3847C144.155 33.2679 144.136 33.151 144.094 33.0419Z" fill="#414042"/>
<path d="M126.866 36.1815C127.831 36.1297 128.761 35.7975 129.542 35.2253C130.016 34.921 130.352 34.4413 130.476 33.8901C130.315 33.692 130.135 33.5107 129.937 33.3488C129.445 32.9213 129.005 32.4368 128.626 31.9054C128.994 30.0593 128.994 28.1583 128.626 26.3122C128.339 25.1575 127.89 24.0388 127.566 22.8841C127.411 22.2923 127.303 21.6889 127.243 21.0798C127.243 20.8453 127.117 20.6288 127.063 20.3762C127.009 20.1236 127.063 19.7808 126.919 19.4921C126.908 19.1577 126.988 18.8267 127.153 18.5358C127.321 18.2524 127.454 17.9495 127.548 17.6337C127.602 17.1842 127.602 16.73 127.548 16.2805C127.519 15.6735 127.579 15.0654 127.728 14.4762C127.914 13.6578 128.21 12.8686 128.608 12.1307C128.716 11.9142 128.949 11.7698 129.111 11.5894C129.229 11.4608 129.315 11.3064 129.363 11.1383C129.38 11.0551 129.38 10.969 129.363 10.8857C129.349 10.795 129.287 10.719 129.201 10.6873C129.057 10.6873 128.931 10.6873 128.824 10.8857C128.716 11.0842 128.339 11.409 128.087 11.6796C128 11.7789 127.904 11.8695 127.8 11.9503C127.8 11.9503 127.584 12.1126 127.566 12.2389C127.635 11.7068 127.749 11.1817 127.907 10.6692C127.929 10.4005 127.977 10.1346 128.051 9.87535C128.141 9.65884 128.285 9.44233 128.375 9.20778C128.481 8.98541 128.481 8.72648 128.375 8.50411C128.341 8.48477 128.3 8.48477 128.267 8.50411C128.009 8.54781 127.78 8.69837 127.638 8.91909C127.489 9.14118 127.391 9.39388 127.351 9.65884C127.243 9.12906 127.243 8.58282 127.351 8.05305C127.368 7.92129 127.368 7.78786 127.351 7.65611C127.39 7.57019 127.39 7.47139 127.351 7.38547C127.217 7.28622 127.035 7.28622 126.901 7.38547C126.846 7.41759 126.797 7.46052 126.758 7.51177C126.758 7.62002 126.758 7.78241 126.65 7.94479C126.563 8.11867 126.491 8.29976 126.434 8.48607V8.035C126.46 7.92216 126.46 7.80503 126.434 7.69219C126.401 7.57134 126.29 7.48921 126.165 7.49373C126.063 7.48502 125.961 7.48502 125.86 7.49373V9.87535C125.878 10.0975 125.878 10.3208 125.86 10.5429C125.77 10.8842 125.734 11.2371 125.752 11.5894C125.796 11.9005 125.796 12.2165 125.752 12.5276C125.595 13.1794 125.493 13.8433 125.446 14.5123C125.446 14.7108 125.446 14.9092 125.446 15.1258C125.445 15.9169 125.318 16.7027 125.069 17.4533C124.99 17.7864 124.93 18.1237 124.889 18.4636C124.767 19.0579 124.695 19.6615 124.674 20.2679C124.674 20.7911 124.782 21.2963 124.8 21.8196C124.818 22.3428 124.8 22.9202 124.8 23.4615C124.8 24.0027 124.8 24.2734 124.8 24.6703C124.827 25.0547 124.827 25.4406 124.8 25.825L124.638 28.333C124.522 29.2094 124.59 30.1003 124.836 30.9492C125.356 31.8138 125.806 32.7188 126.183 33.6555C126.183 33.9262 126.183 34.2149 126.309 34.4855C126.32 35.0942 126.515 35.6852 126.866 36.1815Z" fill="url(#paint5_linear)"/>
<path d="M151.908 56.0825C152.966 57.3829 153.798 58.8529 154.369 60.4308C154.769 61.2379 155.245 62.0051 155.789 62.7222C156.516 63.6272 157.302 64.483 158.142 65.2843C158.555 65.6993 158.968 66.1323 159.363 66.5653C159.76 66.9543 160.115 67.3836 160.423 67.8463C160.586 68.1581 160.673 68.5046 160.675 68.8567C160.677 69.2972 160.707 69.7371 160.765 70.1738C160.765 70.6069 161.052 71.0038 161.16 71.4188C161.375 72.2848 161.16 73.223 161.322 74.0891C161.322 74.3236 161.501 74.5943 161.735 74.6123C161.883 74.6049 162.015 74.5143 162.076 74.3778C162.139 74.248 162.176 74.1069 162.184 73.9628C162.22 73.3566 162.298 72.7537 162.417 72.1585C162.461 72.0163 162.528 71.8822 162.615 71.7616C162.713 71.6478 162.863 71.5932 163.01 71.6172C163.159 71.6836 163.276 71.807 163.334 71.96C163.586 72.4683 163.745 73.0186 163.801 73.5839C163.801 74.1973 163.801 74.7747 163.98 75.3881C163.98 75.6407 164.142 75.9114 164.376 75.9475C164.553 75.9615 164.72 75.8597 164.789 75.6949C164.824 75.5345 164.824 75.3681 164.789 75.2077C164.897 74.4478 164.897 73.6763 164.789 72.9163C165.1 73.6664 165.27 74.4677 165.292 75.2799C165.291 75.4483 165.328 75.6147 165.4 75.767C165.465 75.9201 165.641 75.9922 165.795 75.9294C166.154 75.767 166.136 75.0634 166.19 74.7206C166.274 74.1134 166.212 73.4949 166.01 72.9163C165.514 71.7337 164.913 70.5984 164.214 69.5243C163.531 68.3696 162.831 67.2148 162.04 66.1142C161.419 65.2806 160.883 64.3859 160.441 63.4439C159.956 62.4335 159.759 61.3149 159.22 60.3045C158.146 58.2235 156.731 56.3388 155.034 54.7293C154.886 54.5599 154.682 54.4507 154.459 54.4226C154.267 54.4506 154.087 54.5318 153.938 54.6572L151.908 56.0825Z" fill="url(#paint6_linear)"/>
<path d="M135.686 90.5439C134.824 91.1953 133.728 91.4509 132.668 91.2476C131.913 91.2632 131.176 91.0144 130.584 90.5439C130.584 91.9513 130.584 93.3586 130.458 94.7839C130.451 96.155 130.15 97.5085 129.578 98.7533C129.369 99.0738 129.177 99.405 129.003 99.7457L128.896 100.052C129.623 100.203 130.301 100.531 130.872 101.009C131.055 101.202 131.293 101.335 131.554 101.388C131.752 101.389 131.945 101.333 132.111 101.225C132.496 100.999 132.793 100.65 132.955 100.233C133.089 99.801 132.963 99.3306 132.632 99.024C132.456 98.6089 132.456 98.1399 132.632 97.7249C133.351 96.5702 133.656 95.3072 134.429 94.1164C134.807 93.6206 135.155 93.1025 135.471 92.5647C135.788 91.871 135.918 91.1056 135.848 90.3455C135.802 90.4181 135.748 90.4848 135.686 90.5439Z" fill="url(#paint7_linear)"/>
<path d="M156.938 104.509C156.613 103.378 156.217 102.269 155.752 101.189C155.412 100.046 155.178 98.8746 155.052 97.6887C154.818 95.8844 154.711 94.0802 154.351 92.2759C154.233 91.6067 154.009 90.9609 153.687 90.3634C153.51 90.0429 153.279 89.7559 153.004 89.5154C152.538 89.742 152.042 89.9 151.531 89.9845C150.459 90.1478 149.369 90.1478 148.297 89.9845C148.242 91.4586 148.557 92.9229 149.213 94.2426C149.896 95.722 150.794 97.0752 151.549 98.5006C152.405 100.186 153.161 101.921 153.812 103.697C153.812 103.697 154.154 104.743 154.01 104.816C153.565 105.302 153.42 105.994 153.633 106.62C153.7 106.947 153.968 107.194 154.297 107.233C154.621 107.233 154.854 106.945 155.124 106.746C155.453 106.539 155.832 106.427 156.22 106.421C156.489 106.421 156.776 106.421 157.064 106.421C157.104 105.781 157.062 105.138 156.938 104.509Z" fill="url(#paint8_linear)"/>
<path d="M130.872 104.617C129.348 105.82 127.405 106.354 125.483 106.097C125.032 106.027 124.609 105.834 124.261 105.537C124.024 105.323 123.876 105.027 123.848 104.707C123.543 105.032 123.345 105.339 123.417 105.555C123.723 106.494 124.998 106.782 125.968 106.981C126.937 107.189 127.946 107.095 128.86 106.71C129.98 106.136 130.98 105.352 131.807 104.401L134.052 102.109C134.08 101.881 134.08 101.651 134.052 101.424C133.136 102.623 132.067 103.697 130.872 104.617Z" fill="#E6E7E8"/>
<path d="M125.393 106.097C127.315 106.354 129.258 105.82 130.782 104.617C132.009 103.703 133.108 102.629 134.052 101.424C134.053 101.052 133.98 100.684 133.836 100.341C133.581 99.7872 133.16 99.3269 132.633 99.0239C132.963 99.3306 133.089 99.8009 132.956 100.233C132.794 100.65 132.496 100.999 132.112 101.225C131.946 101.333 131.752 101.389 131.555 101.388C131.294 101.335 131.055 101.202 130.872 101.009C130.237 100.485 129.474 100.142 128.662 100.016C128.492 100.726 128.094 101.36 127.531 101.821C126.974 102.29 126.345 102.65 125.734 103.065C124.99 103.553 124.293 104.109 123.65 104.725C123.678 105.045 123.826 105.341 124.064 105.555C124.443 105.864 124.906 106.053 125.393 106.097Z" fill="#58595B"/>
<path d="M153.561 107.63C153.561 107.973 153.722 108.316 153.812 108.659C153.902 109.001 154.01 109.164 154.082 109.435C154.261 110.066 154.225 110.734 154.423 111.347C154.721 112.119 155.209 112.802 155.842 113.332C156.413 113.921 157.167 114.296 157.98 114.396C158.672 114.494 159.361 114.203 159.776 113.638C159.97 113.273 160.051 112.859 160.01 112.448C159.866 112.006 159.673 111.583 159.435 111.185C159.076 110.571 158.645 109.994 158.303 109.38C157.813 108.454 157.497 107.445 157.369 106.403C156.987 106.367 156.602 106.367 156.219 106.403C155.831 106.409 155.452 106.521 155.124 106.728C154.854 106.927 154.621 107.215 154.297 107.215C153.967 107.176 153.7 106.929 153.633 106.602C153.614 106.482 153.614 106.361 153.633 106.241C153.542 106.389 153.486 106.555 153.471 106.728C153.46 107.032 153.49 107.335 153.561 107.63Z" fill="#58595B"/>
<path d="M160.208 113.169C160.167 112.924 160.107 112.683 160.028 112.448C160.069 112.859 159.988 113.273 159.794 113.639C159.379 114.203 158.69 114.494 157.998 114.396C157.185 114.296 156.431 113.921 155.86 113.332C155.227 112.802 154.738 112.119 154.441 111.347C154.243 110.734 154.279 110.066 154.1 109.435C154.1 109.164 153.884 108.947 153.83 108.659C153.776 108.37 153.65 107.973 153.579 107.63C153.493 107.325 153.45 107.009 153.453 106.692C153.468 106.519 153.524 106.353 153.615 106.205C153.558 105.702 153.714 105.197 154.046 104.816C153.792 104.883 153.578 105.053 153.453 105.285C153.061 105.98 152.939 106.796 153.112 107.576C153.219 108.352 153.471 109.11 153.543 109.904C153.539 110.581 153.6 111.258 153.722 111.924C153.831 112.228 154.002 112.505 154.225 112.736L154.944 113.548C155.506 114.135 156.186 114.596 156.938 114.902C157.697 115.218 158.55 115.218 159.309 114.902C159.626 114.766 159.89 114.532 160.064 114.234C160.218 113.902 160.268 113.531 160.208 113.169Z" fill="#E6E7E8"/>
<g style="mix-blend-mode:multiply">
<path d="M154.549 104.256C154.549 112.772 143.105 119.683 129.003 119.683C114.901 119.683 103.512 112.772 103.512 104.256C103.512 95.7402 114.955 88.8479 129.075 88.8479C143.195 88.8479 154.549 95.7402 154.549 104.256Z" fill="url(#paint9_radial)"/>
</g>
<g style="mix-blend-mode:multiply">
<ellipse cx="156.615" cy="111.275" rx="25.5455" ry="15.4084" fill="url(#paint10_radial)"/>
</g>
<g style="mix-blend-mode:multiply">
<ellipse cx="113.1" cy="126.006" rx="85.3343" ry="38.2814" transform="rotate(-30 113.1 126.006)" fill="url(#paint11_radial)"/>
</g>
<g style="mix-blend-mode:multiply">
<path d="M131.429 113.891C133.836 118.095 128.231 125.871 118.854 131.266C109.476 136.661 100.009 137.671 97.6017 133.467C95.1944 129.264 100.799 121.505 110.177 116.092C119.554 110.68 129.022 109.705 131.429 113.891Z" fill="url(#paint12_radial)"/>
</g>
<path d="M118.585 79.0327V122.552C118.481 123.635 117.79 124.572 116.788 124.987C114.173 126.339 111.068 126.339 108.453 124.987C107.464 124.575 106.777 123.656 106.656 122.588V79.0508C106.767 80.1272 107.457 81.0559 108.453 81.4685C111.079 82.8029 114.18 82.8029 116.806 81.4685C117.793 81.0382 118.473 80.1074 118.585 79.0327V79.0327Z" fill="url(#paint13_linear)"/>
<path d="M108.524 76.6151C111.144 75.281 114.24 75.281 116.86 76.6151C119.159 77.9503 119.141 80.1334 116.86 81.4686C114.234 82.803 111.132 82.803 108.506 81.4686C106.189 80.1334 106.207 77.9503 108.524 76.6151Z" fill="url(#paint14_linear)"/>
<ellipse cx="45.5872" cy="100.66" rx="25.7715" ry="44.5887" transform="rotate(-30.16 45.5872 100.66)" fill="url(#paint15_linear)"/>
<path d="M45.7207 93.0698L64.3679 74.8647L77.931 94.6395L52.4574 103.462L45.7207 93.0698Z" fill="url(#paint16_linear)"/>
<g style="mix-blend-mode:multiply">
<path d="M45.7207 93.0698L64.3679 74.8647L77.931 94.6395L52.4574 103.462L45.7207 93.0698Z" fill="url(#paint17_linear)"/>
</g>
<path d="M54.2173 100.738C54.2173 103.354 52.1155 104.238 49.5286 102.741C46.8792 101.151 45.139 98.3922 44.8398 95.3072C44.8398 92.7091 46.9237 91.8069 49.5286 93.3045C52.1718 94.9004 53.9098 97.6559 54.2173 100.738Z" fill="#231F20"/>
<path d="M51.8636 102.38C51.2254 102.346 50.6066 102.147 50.0672 101.803C47.7439 100.41 46.202 98.0073 45.8994 95.3072C45.8994 94.2066 46.3306 93.6653 47.1749 93.6653C47.8122 93.7049 48.4296 93.9034 48.9713 94.2426C51.3162 95.6248 52.8842 98.0271 53.211 100.738C53.211 101.839 52.708 102.38 51.8636 102.38Z" fill="#58595B"/>
<g style="mix-blend-mode:multiply">
<path d="M46.8516 135.001C29.4261 124.554 15.6114 99.9441 15.9707 80.0251C16.0964 72.5554 18.2162 66.8179 21.7013 63.1011C17.0845 66.7096 14.2281 73.0065 14.0664 81.7391C13.7071 101.586 27.5218 126.268 44.9474 136.715C55.8339 143.265 65.5527 142.705 71.3911 136.499C65.4629 141.027 56.6243 140.883 46.8516 135.001Z" fill="url(#paint18_linear)"/>
</g>
<path d="M123.075 40.7282C119.482 38.6173 116.14 38.4188 113.769 39.8081L99.7568 47.9814C102.128 46.5921 105.434 46.7906 109.062 48.9016C116.782 53.9315 121.638 62.3698 122.123 71.5992C122.123 75.749 120.65 78.6539 118.296 80.0251L132.255 71.8518C134.608 70.4806 136.063 67.5576 136.081 63.4259C135.608 54.2066 130.774 45.7703 123.075 40.7282Z" fill="url(#paint19_linear)"/>
<path d="M109.063 48.9016C101.877 44.7157 95.9666 48.0717 95.9307 56.4254C96.4211 65.6483 101.276 74.0787 108.991 79.105C116.177 83.3089 122.087 79.935 122.123 71.5993C121.638 62.3699 116.783 53.9316 109.063 48.9016Z" fill="#D7DF23"/>
<path d="M85.6549 54.9639C84.8609 54.4821 84.0391 54.0483 83.1938 53.6648C81.9183 54.1159 80.2117 54.6571 78.9362 55.0541C77.6607 55.451 75.972 55.9201 74.6786 56.2449C73.3852 56.5697 71.8582 56.9486 70.6366 57.2192C69.415 57.4898 67.6724 57.8687 66.397 58.1033C65.1215 58.3378 63.5945 58.6085 62.3909 58.7889L58.4746 59.4024C57.271 59.5467 55.6542 59.7452 54.4506 59.8534C53.247 59.9617 51.7559 60.106 50.5882 60.1782L47.1211 60.3767C46.0971 60.3767 44.7138 60.4669 43.6719 60.4669C42.0012 60.4669 39.7556 60.4669 38.0849 60.4669L35.6956 60.3225L33.8992 60.1601H33.7734C38.2136 60.7512 42.4733 62.3024 46.2588 64.7069C63.6843 75.1536 77.499 99.7818 77.1397 119.701C77.1554 123.643 76.3921 127.55 74.8942 131.194C75.6128 129.534 76.3852 127.982 76.7984 127.225C77.5709 125.709 78.5949 123.742 79.529 122.281C80.05 121.379 80.7865 120.206 81.3255 119.34C81.8644 118.474 82.6548 117.283 83.2297 116.399C83.8046 115.515 84.7567 114.144 85.4214 113.187C86.0861 112.231 87.0921 110.86 87.8286 109.886C88.5652 108.911 89.5352 107.684 90.2538 106.728C90.9724 105.772 92.0503 104.527 92.8587 103.589C93.6671 102.651 94.8707 101.243 95.7689 100.269C96.6671 99.2946 97.745 98.1218 98.6073 97.2197C99.4696 96.3176 100.853 94.9824 101.841 94.0442C102.829 93.106 104.248 91.825 105.308 90.9048L105.793 90.4898C105.775 77.445 96.8648 61.6938 85.6549 54.9639Z" fill="url(#paint20_linear)"/>
<path d="M116.087 42.5504C111.183 39.5914 106.763 39.6817 103.943 42.2257C103.009 43.0376 101.733 44.0299 100.745 44.8238C99.7572 45.6177 98.9488 46.0868 98.1404 46.6281C97.0446 47.3317 95.5356 48.2158 94.3859 48.8293C93.2361 49.4427 92.1044 50.002 91.1163 50.4892C90.1283 50.9763 88.26 51.7702 87.0024 52.2935C85.7449 52.8167 84.4335 53.3038 83.3018 53.7008C84.1471 54.0843 84.9689 54.5181 85.7629 54.9999C96.865 61.6937 105.775 77.4449 105.811 90.2912C106.638 89.6056 107.608 88.7937 108.398 88.1983C109.512 87.3142 111.039 86.1956 112.207 85.3837C114.182 84.016 116.233 82.763 118.35 81.6308C119.482 81.0354 121.027 80.2956 122.195 79.8265C123.021 79.4657 124.153 79.0868 124.997 78.762C128.411 77.6253 130.638 74.125 130.728 68.7844C130.908 59.2579 124.315 47.5302 116.087 42.5504Z" fill="url(#paint21_linear)"/>
<g style="mix-blend-mode:screen">
<path d="M48.145 63.6604C46.0016 62.3456 43.7254 61.263 41.3545 60.4307H38.0849L35.6956 60.2864L33.8992 60.124H33.7734C38.2136 60.715 42.4733 62.2663 46.2588 64.6708C63.6843 75.1175 77.499 99.7457 77.1397 119.665C77.1554 123.607 76.3921 127.514 74.8942 131.158C75.6128 129.498 76.3852 127.964 76.7984 127.188C77.2116 126.413 77.9481 125.041 78.5949 123.923C78.8698 122.228 79.0199 120.515 79.044 118.799C79.3853 98.7172 65.5706 74.1071 48.145 63.6604Z" fill="url(#paint22_linear)"/>
</g>
<path d="M172.981 13.52C176.854 16.0403 179.287 20.2755 179.52 24.9049V35.1892C179.52 39.357 176.538 41.053 172.927 38.9601L163.711 33.5473L155.609 38.2745V28.9103L153.633 27.7556C149.759 25.2353 147.327 21.0001 147.094 16.3707V6.08641C147.094 1.91856 150.058 0.222552 153.669 2.3155L172.981 13.52Z" fill="url(#paint23_linear)"/>
<path d="M172.28 28.351C173.466 29.0366 174.436 28.4773 174.454 27.106C174.38 25.5648 173.571 24.1538 172.28 23.3171C171.094 22.6134 170.106 23.1727 170.106 24.562C170.197 26.0886 171.004 27.4814 172.28 28.3149V28.351Z" fill="white"/>
<path d="M163.28 23.1367C164.483 23.8223 165.453 23.281 165.453 21.8918C165.376 20.366 164.574 18.9702 163.298 18.1389C162.112 17.4533 161.124 18.0126 161.124 19.3838C161.21 20.9071 162.01 22.2992 163.28 23.1367Z" fill="white"/>
<path d="M154.297 17.9043C155.501 18.608 156.471 18.0486 156.471 16.6593C156.388 15.1353 155.587 13.742 154.315 12.9065C153.112 12.2209 152.142 12.7802 152.142 14.1514C152.219 15.6772 153.021 17.0729 154.297 17.9043Z" fill="white"/>
<path d="M175.37 12.0945L156.058 0.890063C154.7 -0.106714 152.909 -0.279689 151.387 0.438997L148.926 1.86437C150.45 1.16136 152.233 1.33354 153.597 2.31543L172.908 13.5199C176.782 16.0402 179.214 20.2755 179.447 24.9048V35.1891C179.609 36.8411 178.875 38.4529 177.525 39.4111L179.986 37.9677C181.326 37.011 182.053 35.4067 181.891 33.7637V23.4614C181.656 18.8419 179.231 14.6152 175.37 12.0945Z" fill="url(#paint24_linear)"/>
<defs>
<linearGradient id="paint0_linear" x1="129.866" y1="91.2665" x2="154.388" y2="91.2665" gradientUnits="userSpaceOnUse">
<stop stop-color="#064BA2"/>
<stop offset="1" stop-color="#667EEA"/>
</linearGradient>
<linearGradient id="paint1_linear" x1="126.171" y1="73.0219" x2="155.012" y2="73.5353" gradientUnits="userSpaceOnUse">
<stop stop-color="#FA742B"/>
<stop offset="1" stop-color="#FFE985"/>
</linearGradient>
<linearGradient id="paint2_linear" x1="135.201" y1="46.7149" x2="143.788" y2="46.7149" gradientUnits="userSpaceOnUse">
<stop stop-color="#FFECD2"/>
<stop offset="1" stop-color="#FCB69F"/>
</linearGradient>
<linearGradient id="paint3_linear" x1="136.495" y1="46.7545" x2="140.753" y2="46.7545" gradientUnits="userSpaceOnUse">
<stop stop-color="#FFE985"/>
<stop offset="1" stop-color="#FA742B"/>
</linearGradient>
<linearGradient id="paint4_linear" x1="140.752" y1="46.8086" x2="145.962" y2="46.8086" gradientUnits="userSpaceOnUse">
<stop stop-color="#FA742B"/>
<stop offset="1" stop-color="#FFE985"/>
</linearGradient>
<linearGradient id="paint5_linear" x1="124.351" y1="36.7961" x2="130.494" y2="36.7961" gradientUnits="userSpaceOnUse">
<stop stop-color="#FFECD2"/>
<stop offset="1" stop-color="#FCB69F"/>
</linearGradient>
<linearGradient id="paint6_linear" x1="151.908" y1="75.8864" x2="166.226" y2="75.8864" gradientUnits="userSpaceOnUse">
<stop stop-color="#FFECD2"/>
<stop offset="1" stop-color="#FCB69F"/>
</linearGradient>
<linearGradient id="paint7_linear" x1="128.896" y1="101.401" x2="135.884" y2="101.401" gradientUnits="userSpaceOnUse">
<stop stop-color="#FFECD2"/>
<stop offset="1" stop-color="#FCB69F"/>
</linearGradient>
<linearGradient id="paint8_linear" x1="148.279" y1="107.23" x2="157.082" y2="107.23" gradientUnits="userSpaceOnUse">
<stop stop-color="#FFECD2"/>
<stop offset="1" stop-color="#FCB69F"/>
</linearGradient>
<radialGradient id="paint9_radial" cx="0" cy="0" r="1" gradientUnits="userSpaceOnUse" gradientTransform="translate(129.003 105.465) scale(25.5455 15.4337)">
<stop stop-color="#9CB0BA"/>
<stop offset="0.02" stop-color="#9EB2BC"/>
<stop offset="0.32" stop-color="#C8D3D9"/>
<stop offset="0.6" stop-color="#E6EBEE"/>
<stop offset="0.83" stop-color="#F8FAFA"/>
<stop offset="1" stop-color="white"/>
</radialGradient>
<radialGradient id="paint10_radial" cx="0" cy="0" r="1" gradientUnits="userSpaceOnUse" gradientTransform="translate(156.615 -1756.53) scale(25.5455 15.4084)">
<stop stop-color="#9CB0BA"/>
<stop offset="0.02" stop-color="#9EB2BC"/>
<stop offset="0.32" stop-color="#C8D3D9"/>
<stop offset="0.6" stop-color="#E6EBEE"/>
<stop offset="0.83" stop-color="#F8FAFA"/>
<stop offset="1" stop-color="white"/>
</radialGradient>
<radialGradient id="paint11_radial" cx="0" cy="0" r="1" gradientUnits="userSpaceOnUse" gradientTransform="translate(112.92 142.414) scale(85.3343 38.2814)">
<stop offset="0.01" stop-color="#D4BCBC"/>
<stop offset="1" stop-color="white"/>
</radialGradient>
<radialGradient id="paint12_radial" cx="0" cy="0" r="1" gradientUnits="userSpaceOnUse" gradientTransform="translate(75.3963 139.977) rotate(-29.9941) scale(19.5798 17.314)">
<stop offset="0.01" stop-color="#D4BCBC"/>
<stop offset="0.22" stop-color="#D8C2C2"/>
<stop offset="0.52" stop-color="#E3D4D4"/>
<stop offset="0.86" stop-color="#F6F1F1"/>
<stop offset="1" stop-color="white"/>
</radialGradient>
<linearGradient id="paint13_linear" x1="106.782" y1="125.849" x2="118.639" y2="125.849" gradientUnits="userSpaceOnUse">
<stop stop-color="#FF374F"/>
<stop offset="1" stop-color="#D42237"/>
</linearGradient>
<linearGradient id="paint14_linear" x1="106.782" y1="82.4609" x2="118.585" y2="82.4609" gradientUnits="userSpaceOnUse">
<stop stop-color="#FF374F"/>
<stop offset="1" stop-color="#D42237"/>
</linearGradient>
<linearGradient id="paint15_linear" x1="19.2137" y1="143.939" x2="70.4303" y2="144.617" gradientUnits="userSpaceOnUse">
<stop stop-color="#FF374F"/>
<stop offset="1" stop-color="#7A1420"/>
</linearGradient>
<linearGradient id="paint16_linear" x1="49.0767" y1="85.5367" x2="53.4275" y2="102.093" gradientUnits="userSpaceOnUse">
<stop stop-color="#FF374F"/>
<stop offset="1" stop-color="#CC2135"/>
</linearGradient>
<linearGradient id="paint17_linear" x1="67.5834" y1="80.8747" x2="59.5521" y2="87.9942" gradientUnits="userSpaceOnUse">
<stop stop-color="#231F20"/>
<stop offset="0.11" stop-color="#332F30"/>
<stop offset="0.32" stop-color="#5D5A5B"/>
<stop offset="0.63" stop-color="#A1A0A0"/>
<stop offset="1" stop-color="#FEFEFE"/>
<stop offset="1" stop-color="white"/>
</linearGradient>
<linearGradient id="paint18_linear" x1="28.2944" y1="131.949" x2="58.0657" y2="123.459" gradientUnits="userSpaceOnUse">
<stop stop-color="#FF374F"/>
<stop offset="1" stop-color="#911726"/>
</linearGradient>
<linearGradient id="paint19_linear" x1="96.8999" y1="51.1812" x2="118.542" y2="81.4898" gradientUnits="userSpaceOnUse">
<stop stop-color="#FF374F"/>
<stop offset="1" stop-color="#D42237"/>
</linearGradient>
<linearGradient id="paint20_linear" x1="18.4421" y1="75.0302" x2="71.7114" y2="136.377" gradientUnits="userSpaceOnUse">
<stop stop-color="#FF374F"/>
<stop offset="1" stop-color="#D42237"/>
</linearGradient>
<linearGradient id="paint21_linear" x1="83.5056" y1="55.7199" x2="104.446" y2="90.229" gradientUnits="userSpaceOnUse">
<stop stop-color="#F5F7FA"/>
<stop offset="0.19" stop-color="#F0F3F7"/>
<stop offset="0.41" stop-color="#E3E7EF"/>
<stop offset="0.64" stop-color="#CCD4E1"/>
<stop offset="0.88" stop-color="#ADBACE"/>
<stop offset="1" stop-color="#99A9C2"/>
</linearGradient>
<linearGradient id="paint22_linear" x1="14.4532" y1="97.2496" x2="79.5164" y2="132.527" gradientUnits="userSpaceOnUse">
<stop stop-color="#FF374F"/>
<stop offset="1" stop-color="#D42237"/>
</linearGradient>
<linearGradient id="paint23_linear" x1="147.058" y1="39.8874" x2="179.52" y2="39.8874" gradientUnits="userSpaceOnUse">
<stop stop-color="#43CBFF"/>
<stop offset="1" stop-color="#9708CC"/>
</linearGradient>
<linearGradient id="paint24_linear" x1="148.998" y1="39.3934" x2="181.98" y2="39.3934" gradientUnits="userSpaceOnUse">
<stop stop-color="#33FFF1"/>
<stop offset="1" stop-color="#AE09EB"/>
</linearGradient>
</defs>
</svg>
