<?xml version="1.0" encoding="UTF-8"?>
<svg width="16px" height="16px" viewBox="0 0 16 16" version="1.1" xmlns="http://www.w3.org/2000/svg" xmlns:xlink="http://www.w3.org/1999/xlink">
    <title>error</title>
    <g id="Page-1" stroke="none" stroke-width="1" fill="none" fill-rule="evenodd">
        <g id="Mining-Provider-Windows-Wallet-Design-Copy-3" transform="translate(-986.000000, -707.000000)" fill-rule="nonzero">
            <g id="Card-List" transform="translate(902.000000, 530.000000)">
                <g id="Group-5-Copy" transform="translate(4.000000, 124.000000)">
                    <g id="error" transform="translate(80.000000, 53.000000)">
                        <path d="M16,8 C16,3.58166503 12.4183441,0 8,0 C3.58177794,0 0,3.58166503 0,8 C0,12.418335 3.58177794,16 8,16 C12.4183441,16 16,12.418335 16,8 Z" id="Path" fill="#F36986"></path>
                        <path d="M12.9351545,1.70324706 C14.001984,3.06262206 14.6383213,4.77612306 14.6383213,6.63830566 C14.6383213,11.0565186 11.0565433,14.6383057 6.63832126,14.6383057 C4.77607021,14.6383057 3.06264784,14.0019531 1.70316675,12.9350586 C3.16776801,14.8011475 5.4439069,16 8,16 C12.4183441,16 16,12.418335 16,8 C16,5.44384766 14.8011904,3.16772462 12.9351545,1.70324706 Z" id="Path" fill="#FC476E"></path>
                        <path d="M8.50801986,9.34375 L7.49198017,9.34375 C7.29077452,9.34375 7.1276612,9.18066406 7.1276612,8.97937012 L7.1276612,4.37939453 C7.1276612,4.17810059 7.29077452,4.01501466 7.49198017,4.01501466 L8.50801986,4.01501466 C8.70922551,4.01501466 8.87246091,4.17810059 8.87246091,4.37939453 L8.87246091,8.97937012 C8.87246091,9.18066406 8.70934759,9.34375 8.50801986,9.34375 L8.50801986,9.34375 Z" id="Path" fill="#FFD2E3"></path>
                        <path d="M8.50814195,4.01501466 L7.84970624,4.01501466 C8.05091189,4.01501466 8.2140252,4.17810059 8.2140252,4.37939453 L8.2140252,8.97937012 C8.2140252,9.18066406 8.05091189,9.34375 7.84970624,9.34375 L8.50814195,9.34375 C8.70934759,9.34375 8.87246091,9.180542 8.87246091,8.97937012 L8.87246091,4.37939453 C8.87246091,4.17810059 8.70934759,4.01501466 8.50814195,4.01501466 L8.50814195,4.01501466 Z" id="Path" fill="#FFBBD7"></path>
                        <path d="M8,12.2438965 C7.5182297,12.2438965 7.1276612,11.8532715 7.1276612,11.371582 L7.1276612,11.3713379 C7.1276612,10.8896484 7.5182297,10.4990234 8,10.4990234 C8.48177033,10.4990234 8.87246091,10.8896484 8.87246091,11.3713379 L8.87246091,11.371582 C8.87246091,11.8532715 8.48177033,12.2438965 8,12.2438965 L8,12.2438965 Z" id="Path" fill="#FFD2E3"></path>
                        <path d="M8,10.4990234 C7.92979781,10.4990234 7.86154904,10.5075684 7.79610837,10.5231934 C8.17959558,10.6151123 8.46467762,10.9598389 8.46467762,11.37146 C8.46467762,11.782959 8.17959558,12.1278076 7.79610837,12.2196045 C7.86154904,12.2353516 7.92979781,12.2438965 8,12.2438965 C8.48189242,12.2438965 8.87246091,11.8532715 8.87246091,11.37146 C8.87246091,10.8896484 8.48177033,10.4990234 8,10.4990234 L8,10.4990234 Z" id="Path" fill="#FFBBD7"></path>
                    </g>
                </g>
            </g>
        </g>
    </g>
</svg>