<?xml version="1.0" encoding="UTF-8"?>
<svg width="35px" height="35px" viewBox="0 0 35 35" version="1.1" xmlns="http://www.w3.org/2000/svg" xmlns:xlink="http://www.w3.org/1999/xlink">
    <title>checked</title>
    <g id="Page-1" stroke="none" stroke-width="1" fill="none" fill-rule="evenodd">
        <g id="Mining-Provider-Windows-Dashboard-Design-07-Copy" transform="translate(-589.000000, -366.000000)" fill-rule="nonzero">
            <g id="Mining-app-design" transform="translate(320.000000, 160.000000)">
                <g id="checked" transform="translate(269.000000, 206.000000)">
                    <circle id="Oval" fill="#04C4BB" cx="17.5" cy="17.5" r="17.5"></circle>
                    <path d="M13.0283912,25.3943218 L22.0268139,34.3927445 C29.4794953,32.4053628 35,25.615142 35,17.5 C35,17.3343849 35,17.1687697 35,17.0031546 L27.9337539,10.488959 L13.0283912,25.3943218 Z" id="Path" fill="#0396C7"></path>
                    <g id="Group" transform="translate(5.879338, 8.639590)" fill="#FFFFFF">
                        <path d="M12.0623028,12.7799685 C12.8351735,13.5528391 12.8351735,14.8777603 12.0623028,15.6506309 L10.4613565,17.2515773 C9.6884858,18.0244479 8.36356467,18.0244479 7.59069401,17.2515773 L0.579652997,10.1853312 C-0.193217666,9.41246057 -0.193217666,8.08753943 0.579652997,7.31466877 L2.18059937,5.7137224 C2.95347003,4.94085174 4.27839117,4.94085174 5.05126183,5.7137224 L12.0623028,12.7799685 Z" id="Path"></path>
                        <path d="M18.1900631,0.579652997 C18.9629338,-0.193217666 20.2878549,-0.193217666 21.0607256,0.579652997 L22.6616719,2.18059937 C23.4345426,2.95347003 23.4345426,4.27839117 22.6616719,5.05126183 L10.5165615,17.1411672 C9.74369085,17.9140379 8.41876972,17.9140379 7.64589905,17.1411672 L6.04495268,15.5402208 C5.27208202,14.7673502 5.27208202,13.442429 6.04495268,12.6695584 L18.1900631,0.579652997 Z" id="Path"></path>
                    </g>
                </g>
            </g>
        </g>
    </g>
</svg>