<?xml version="1.0" encoding="UTF-8"?>
<svg width="35px" height="35px" viewBox="0 0 35 35" version="1.1" xmlns="http://www.w3.org/2000/svg" xmlns:xlink="http://www.w3.org/1999/xlink">
    <title>data-mining</title>
    <g id="Page-1" stroke="none" stroke-width="1" fill="none" fill-rule="evenodd">
        <g id="Mining-Provider-Windows-Dashboard-Design-07" transform="translate(-587.000000, -366.000000)" fill-rule="nonzero">
            <g id="data-mining" transform="translate(587.000000, 366.000000)">
                <circle id="Oval" fill="#C6D2E1" cx="17.5" cy="17.5" r="17.5"></circle>
                <circle id="Oval" fill="#FFFFFF" cx="17.5" cy="17.5" r="14.9479167"></circle>
                <g id="Group" transform="translate(6.408974, 5.976688)" fill="#382B73">
                    <path d="M10.8081094,9.58125 L13.5999427,6.7895625 C14.8873594,8.17089583 16.0992344,9.62397917 17.2288594,11.1429792 C17.4244219,11.4059167 17.8420885,11.2676667 17.8420885,10.9399792 L17.8420885,10.7006667 C17.8420885,9.50104167 17.462776,8.3321875 16.7581094,7.361375 L16.7579635,7.36122917 C16.1565469,6.53245833 15.5103594,5.739125 14.824651,4.98254167 L15.410026,4.39716667 C15.7315885,4.07560417 15.7315885,3.55425 15.410026,3.2326875 L14.609401,2.4320625 C14.2878385,2.1105 13.7664844,2.1105 13.4449219,2.4320625 L12.8595469,3.0174375 C12.1029635,2.33172917 11.3096302,1.68554167 10.4808594,1.084125 C9.50990104,0.379458333 8.34090104,0 7.14113021,0 L6.85340104,0 C6.54117187,0 6.40948437,0.397979167 6.66002604,0.584208333 L6.69896354,0.613229167 C8.21810937,1.74270833 9.67104687,2.95472917 11.0523802,4.24214583 L8.26054687,7.03397917 C8.02269271,7.27183333 7.92673437,7.59704167 7.97048437,7.90635417 L0.241171875,15.6356667 C-0.080390625,15.9572292 -0.080390625,16.4785833 0.241171875,16.8001458 L1.04179687,17.6007708 C1.36335937,17.9223333 1.88471354,17.9223333 2.20627604,17.6007708 L9.93558854,9.87145833 C10.2450469,9.9150625 10.5702552,9.81910417 10.8081094,9.58125 L10.8081094,9.58125 Z" id="Path"></path>
                    <path d="M13.9226719,12.2638542 L9.65704688,12.2638542 C9.49590104,12.2638542 9.36538021,12.394375 9.36538021,12.5555208 L9.36538021,16.8211458 C9.36538021,16.9822917 9.49590104,17.1128125 9.65704688,17.1128125 L13.9226719,17.1128125 C14.0836719,17.1128125 14.2143385,16.9822917 14.2143385,16.8211458 L14.2143385,12.5555208 C14.2143385,12.394375 14.0836719,12.2638542 13.9226719,12.2638542 Z" id="Path"></path>
                    <path d="M13.9226719,17.8419792 L9.65704688,17.8419792 C9.49590104,17.8419792 9.36538021,17.9725 9.36538021,18.1336458 L9.36538021,22.3992708 C9.36538021,22.5604167 9.49590104,22.6909375 9.65704688,22.6909375 L13.9226719,22.6909375 C14.0836719,22.6909375 14.2143385,22.5604167 14.2143385,22.3992708 L14.2143385,18.1336458 C14.2143385,17.9725 14.0836719,17.8419792 13.9226719,17.8419792 Z" id="Path"></path>
                    <path d="M19.5007969,12.2638542 L15.2351719,12.2638542 C15.074026,12.2638542 14.9435052,12.394375 14.9435052,12.5555208 L14.9435052,16.8211458 C14.9435052,16.9822917 15.074026,17.1128125 15.2351719,17.1128125 L19.5007969,17.1128125 C19.6619427,17.1128125 19.7924635,16.9822917 19.7924635,16.8211458 L19.7924635,12.5555208 C19.7924635,12.394375 19.6617969,12.2638542 19.5007969,12.2638542 Z" id="Path"></path>
                    <path d="M19.5007969,17.8419792 L15.2351719,17.8419792 C15.074026,17.8419792 14.9435052,17.9725 14.9435052,18.1336458 L14.9435052,22.3992708 C14.9435052,22.5604167 15.074026,22.6909375 15.2351719,22.6909375 L19.5007969,22.6909375 C19.6619427,22.6909375 19.7924635,22.5604167 19.7924635,22.3992708 L19.7924635,18.1336458 C19.7924635,17.9725 19.6617969,17.8419792 19.5007969,17.8419792 Z" id="Path"></path>
                </g>
                <path d="M21.819,8.18854167 L21.018375,7.38791667 C20.6968125,7.06635417 20.1754583,7.06635417 19.8538958,7.38791667 L6.65029167,20.5915208 C6.32872917,20.9130833 6.32872917,21.4344375 6.65029167,21.756 L7.45091667,22.556625 C7.77247917,22.8781875 8.29383333,22.8781875 8.61539583,22.556625 L21.819,9.35302083 C22.1404167,9.03145833 22.1405625,8.51010417 21.819,8.18854167 L21.819,8.18854167 Z" id="Path" fill="#E43D91"></path>
                <path d="M21.4773125,7.847 L21.3599167,7.72960417 C21.1411667,7.51085417 20.7863542,7.51085417 20.5676042,7.72960417 L6.99197917,21.305375 C6.77322917,21.524125 6.77322917,21.8789375 6.99197917,22.0976875 L7.109375,22.2150833 C7.328125,22.4338333 7.6829375,22.4338333 7.9016875,22.2150833 L21.4773125,8.6393125 C21.6962083,8.4205625 21.6962083,8.06575 21.4773125,7.847 Z" id="Path" fill="#EF5A9D"></path>
                <path d="M15.7615208,14.5371042 L14.6698125,13.4453958 C14.2678958,13.0434792 14.2678958,12.39175 14.6698125,11.9898333 L18.1269375,8.53270833 L20.6742083,11.0799792 L17.2170833,14.5371042 C16.8151667,14.9390208 16.1634375,14.9390208 15.7615208,14.5371042 L15.7615208,14.5371042 Z" id="Path" fill="#009ADD"></path>
                <path d="M15.3932917,14.168875 L15.0380417,13.813625 C14.7342708,13.5098542 14.7342708,13.0170833 15.0380417,12.7133125 L18.6727917,9.0785625 L20.1283542,10.534125 L16.4936042,14.168875 C16.1898333,14.4727917 15.6972083,14.4727917 15.3932917,14.168875 L15.3932917,14.168875 Z" id="Path" fill="#1CAEE4"></path>
                <path d="M24.2509167,15.8958333 L24.2509167,15.6565208 C24.2509167,14.4568958 23.8716042,13.2880417 23.1669375,12.3172292 L23.1667917,12.3170833 C21.4179583,9.90733333 19.2994375,7.78895833 16.8896875,6.03997917 C15.9187292,5.3353125 14.7497292,4.95585417 13.5499583,4.95585417 L13.2622292,4.95585417 C12.95,4.95585417 12.8183125,5.35383333 13.0688542,5.5400625 L13.1077917,5.56908333 C17.112375,8.54670833 20.6599167,12.09425 23.6375417,16.0988333 C23.83325,16.3617708 24.2509167,16.2235208 24.2509167,15.8958333 Z" id="Path" fill="#1CAEE4"></path>
                <path d="M24.2510625,15.6565208 C24.2510625,15.5719375 24.2447917,15.4877917 24.2411458,15.4035 C21.2846667,11.438 17.7689167,7.92225 13.8034167,4.96577083 C13.719125,4.96197917 13.6349792,4.95585417 13.55025,4.95585417 L13.2625208,4.95585417 C12.9504375,4.95585417 12.8186042,5.35383333 13.0691458,5.5400625 L13.1082292,5.56908333 C17.1128125,8.54670833 20.6602083,12.09425 23.6379792,16.0988333 C23.8333958,16.3617708 24.2512083,16.2235208 24.2512083,15.8958333 L24.2510625,15.6565208 Z" id="Path" fill="#009ADD"></path>
                <path d="M20.3315,22.0686667 L16.065875,22.0686667 C15.904875,22.0686667 15.7742083,21.9381458 15.7742083,21.777 L15.7742083,17.511375 C15.7742083,17.3502292 15.904875,17.2197083 16.065875,17.2197083 L20.3315,17.2197083 C20.4926458,17.2197083 20.6231667,17.3502292 20.6231667,17.511375 L20.6231667,21.777 C20.6231667,21.938 20.4926458,22.0686667 20.3315,22.0686667 Z" id="Path" fill="#EF5A9D"></path>
                <path d="M20.3315,21.4627292 L16.065875,21.4627292 C15.904875,21.4627292 15.7742083,21.3320625 15.7742083,21.1710625 L15.7742083,21.7768542 C15.7742083,21.938 15.904875,22.0685208 16.065875,22.0685208 L20.3315,22.0685208 C20.4926458,22.0685208 20.6231667,21.938 20.6231667,21.7768542 L20.6231667,21.1710625 C20.6231667,21.3322083 20.4926458,21.4627292 20.3315,21.4627292 Z" id="Path" fill="#E43D91"></path>
                <path d="M18.7274792,19.088125 L16.9379583,19.088125 C16.7365625,19.088125 16.573375,18.9249375 16.573375,18.7235417 C16.573375,18.5221458 16.7365625,18.3589583 16.9379583,18.3589583 L18.7274792,18.3589583 C18.928875,18.3589583 19.0920625,18.5221458 19.0920625,18.7235417 C19.0920625,18.9249375 18.9287292,19.088125 18.7274792,19.088125 Z" id="Path" fill="#FEDE3A"></path>
                <path d="M19.4595625,20.6376042 L16.9379583,20.6376042 C16.7365625,20.6376042 16.573375,20.4744167 16.573375,20.2730208 C16.573375,20.071625 16.7365625,19.9084375 16.9379583,19.9084375 L19.4595625,19.9084375 C19.6609583,19.9084375 19.8241458,20.071625 19.8241458,20.2730208 C19.8241458,20.4744167 19.6609583,20.6376042 19.4595625,20.6376042 Z" id="Path" fill="#FEDE3A"></path>
                <path d="M20.3315,27.6467917 L16.065875,27.6467917 C15.904875,27.6467917 15.7742083,27.5162708 15.7742083,27.355125 L15.7742083,23.0895 C15.7742083,22.9283542 15.904875,22.7978333 16.065875,22.7978333 L20.3315,22.7978333 C20.4926458,22.7978333 20.6231667,22.9283542 20.6231667,23.0895 L20.6231667,27.355125 C20.6231667,27.516125 20.4926458,27.6467917 20.3315,27.6467917 Z" id="Path" fill="#1CAEE4"></path>
                <path d="M20.3315,27.0408542 L16.065875,27.0408542 C15.904875,27.0408542 15.7742083,26.9101875 15.7742083,26.7491875 L15.7742083,27.3549792 C15.7742083,27.516125 15.904875,27.6466458 16.065875,27.6466458 L20.3315,27.6466458 C20.4926458,27.6466458 20.6231667,27.516125 20.6231667,27.3549792 L20.6231667,26.7491875 C20.6231667,26.9103333 20.4926458,27.0408542 20.3315,27.0408542 Z" id="Path" fill="#009ADD"></path>
                <path d="M18.7273333,24.66625 L16.9378125,24.66625 C16.7364167,24.66625 16.5732292,24.5030625 16.5732292,24.3016667 C16.5732292,24.1002708 16.7364167,23.9370833 16.9378125,23.9370833 L18.7273333,23.9370833 C18.9287292,23.9370833 19.0919167,24.1002708 19.0919167,24.3016667 C19.0919167,24.5030625 18.9287292,24.66625 18.7273333,24.66625 Z" id="Path" fill="#FEDE3A"></path>
                <path d="M19.4595625,26.2157292 L16.9378125,26.2157292 C16.7364167,26.2157292 16.5732292,26.0525417 16.5732292,25.8511458 C16.5732292,25.64975 16.7364167,25.4865625 16.9378125,25.4865625 L19.4595625,25.4865625 C19.6609583,25.4865625 19.8241458,25.64975 19.8241458,25.8511458 C19.8241458,26.0525417 19.6609583,26.2157292 19.4595625,26.2157292 Z" id="Path" fill="#FEDE3A"></path>
                <path d="M25.9097708,22.0686667 L21.6441458,22.0686667 C21.483,22.0686667 21.3524792,21.9381458 21.3524792,21.777 L21.3524792,17.511375 C21.3524792,17.3502292 21.483,17.2197083 21.6441458,17.2197083 L25.9097708,17.2197083 C26.0709167,17.2197083 26.2014375,17.3502292 26.2014375,17.511375 L26.2014375,21.777 C26.2014375,21.938 26.0707708,22.0686667 25.9097708,22.0686667 Z" id="Path" fill="#1CAEE4"></path>
                <path d="M25.9097708,21.4627292 L21.6441458,21.4627292 C21.483,21.4627292 21.3524792,21.3320625 21.3524792,21.1710625 L21.3524792,21.7768542 C21.3524792,21.938 21.483,22.0685208 21.6441458,22.0685208 L25.9097708,22.0685208 C26.0709167,22.0685208 26.2014375,21.938 26.2014375,21.7768542 L26.2014375,21.1710625 C26.2014375,21.3322083 26.0707708,21.4627292 25.9097708,21.4627292 Z" id="Path" fill="#009ADD"></path>
                <path d="M24.3056042,19.088125 L22.5160833,19.088125 C22.3146875,19.088125 22.1515,18.9249375 22.1515,18.7235417 C22.1515,18.5221458 22.3146875,18.3589583 22.5160833,18.3589583 L24.3056042,18.3589583 C24.507,18.3589583 24.6701875,18.5221458 24.6701875,18.7235417 C24.6701875,18.9249375 24.507,19.088125 24.3056042,19.088125 L24.3056042,19.088125 Z" id="Path" fill="#FEDE3A"></path>
                <path d="M25.0376875,20.6376042 L22.5160833,20.6376042 C22.3146875,20.6376042 22.1515,20.4744167 22.1515,20.2730208 C22.1515,20.071625 22.3146875,19.9084375 22.5160833,19.9084375 L25.0376875,19.9084375 C25.2390833,19.9084375 25.4022708,20.071625 25.4022708,20.2730208 C25.4022708,20.4744167 25.2390833,20.6376042 25.0376875,20.6376042 Z" id="Path" fill="#FEDE3A"></path>
                <path d="M25.9097708,27.6467917 L21.6441458,27.6467917 C21.483,27.6467917 21.3524792,27.5162708 21.3524792,27.355125 L21.3524792,23.0895 C21.3524792,22.9283542 21.483,22.7978333 21.6441458,22.7978333 L25.9097708,22.7978333 C26.0709167,22.7978333 26.2014375,22.9283542 26.2014375,23.0895 L26.2014375,27.355125 C26.2014375,27.516125 26.0707708,27.6467917 25.9097708,27.6467917 Z" id="Path" fill="#EF5A9D"></path>
                <path d="M25.9097708,27.0408542 L21.6441458,27.0408542 C21.483,27.0408542 21.3524792,26.9101875 21.3524792,26.7491875 L21.3524792,27.3549792 C21.3524792,27.516125 21.483,27.6466458 21.6441458,27.6466458 L25.9097708,27.6466458 C26.0709167,27.6466458 26.2014375,27.516125 26.2014375,27.3549792 L26.2014375,26.7491875 C26.2014375,26.9103333 26.0707708,27.0408542 25.9097708,27.0408542 Z" id="Path" fill="#E43D91"></path>
                <g id="Group" transform="translate(22.151500, 23.937083)" fill="#FEDE3A">
                    <path d="M2.15410417,0.729166667 L0.364583333,0.729166667 C0.1631875,0.729166667 0,0.565979167 0,0.364583333 C0,0.1631875 0.1631875,0 0.364583333,0 L2.15410417,0 C2.3555,0 2.5186875,0.1631875 2.5186875,0.364583333 C2.5186875,0.565979167 2.35535417,0.729166667 2.15410417,0.729166667 L2.15410417,0.729166667 Z" id="Path"></path>
                    <path d="M2.88633333,2.27864583 L0.364583333,2.27864583 C0.1631875,2.27864583 0,2.11545833 0,1.9140625 C0,1.71266667 0.1631875,1.54947917 0.364583333,1.54947917 L2.88633333,1.54947917 C3.08772917,1.54947917 3.25091667,1.71266667 3.25091667,1.9140625 C3.25091667,2.11545833 3.08758333,2.27864583 2.88633333,2.27864583 Z" id="Path"></path>
                </g>
            </g>
        </g>
    </g>
</svg>