<?xml version="1.0" encoding="UTF-8"?>
<svg width="16px" height="16px" viewBox="0 0 16 16" version="1.1" xmlns="http://www.w3.org/2000/svg" xmlns:xlink="http://www.w3.org/1999/xlink">
    <title>checked</title>
    <g id="Page-1" stroke="none" stroke-width="1" fill="none" fill-rule="evenodd">
        <g id="Mining-Provider-Windows-Wallet-Design-Copy-3" transform="translate(-988.000000, -582.000000)" fill-rule="nonzero">
            <g id="Card-List" transform="translate(902.000000, 530.000000)">
                <g id="checked" transform="translate(86.000000, 52.000000)">
                    <circle id="Oval" fill="#04C4BB" cx="8" cy="8" r="8"></circle>
                    <path d="M5.95583596,11.6088328 L10.0694006,15.7223975 C13.4763407,14.8138801 16,11.7097792 16,8 C16,7.92429022 16,7.84858044 16,7.77287066 L12.7697161,4.79495268 L5.95583596,11.6088328 Z" id="Path" fill="#0396C7"></path>
                    <g id="Group" transform="translate(2.687697, 3.949527)" fill="#FFFFFF">
                        <path d="M5.51419558,5.84227129 C5.86750789,6.1955836 5.86750789,6.80126183 5.51419558,7.15457413 L4.78233438,7.88643533 C4.42902208,8.23974763 3.82334385,8.23974763 3.47003155,7.88643533 L0.264984227,4.65615142 C-0.0883280757,4.30283912 -0.0883280757,3.69716088 0.264984227,3.34384858 L0.996845426,2.61198738 C1.35015773,2.25867508 1.95583596,2.25867508 2.30914826,2.61198738 L5.51419558,5.84227129 Z" id="Path"></path>
                        <path d="M8.31545741,0.264984227 C8.66876972,-0.0883280757 9.27444795,-0.0883280757 9.62776025,0.264984227 L10.3596215,0.996845426 C10.7129338,1.35015773 10.7129338,1.95583596 10.3596215,2.30914826 L4.80757098,7.83596215 C4.45425868,8.18927445 3.84858044,8.18927445 3.49526814,7.83596215 L2.76340694,7.10410095 C2.41009464,6.75078864 2.41009464,6.14511041 2.76340694,5.79179811 L8.31545741,0.264984227 Z" id="Path"></path>
                    </g>
                </g>
            </g>
        </g>
    </g>
</svg>