<?xml version="1.0" encoding="UTF-8"?>
<svg width="216px" height="26px" viewBox="0 0 216 26" version="1.1" xmlns="http://www.w3.org/2000/svg" xmlns:xlink="http://www.w3.org/1999/xlink">
    <title>Group 3</title>
    <g id="Page-1" stroke="none" stroke-width="1" fill="none" fill-rule="evenodd">
        <g id="Mining-Provider-Windows-Wallet-Design-Copy-3" transform="translate(-1353.000000, -814.000000)" fill="#FFFFFF">
            <g id="Group-3" transform="translate(1353.000000, 814.000000)">
                <text id="Proudly-powered-by" font-family="RobotoMono-Medium, Roboto Mono" font-size="10" font-weight="400" line-spacing="22">
                    <tspan x="0" y="10">Proudly powered by		     </tspan>
                </text>
                <g id="Golem_LogoTaglineV2_Positive_RGB" transform="translate(118.000000, 4.000000)" fill-rule="nonzero">
                    <path d="M8.27262276,2.90409929 L6.34127114,4.8898082 C5.68139268,4.40992854 4.88471013,4.12861978 4.01560191,4.12861978 C1.80259484,4.12861978 0,5.9819481 0,8.25723956 C0,10.300865 1.44851371,11.9969914 3.33962884,12.319669 L3.33962884,13.8089507 C1.44851371,14.1399022 0,15.8360286 0,17.8713802 C0,20.1466717 1.80259484,22 4.01560191,22 C6.22860897,22 8.03120381,20.1466717 8.03120381,17.8713802 C8.03120381,15.8277548 6.5826901,14.1316284 4.69157497,13.8089507 L4.69157497,12.319669 C6.5826901,11.9887176 8.03120381,10.2925912 8.03120381,8.25723956 C8.03120381,7.36367055 7.75759566,6.54456563 7.29085236,5.86611508 L9.22220397,3.88040617 L8.27262276,2.90409929 Z M6.68730498,17.879654 C6.68730498,19.3937571 5.48825751,20.6265513 4.01560191,20.6265513 C2.5429463,20.6265513 1.34389883,19.3937571 1.34389883,17.879654 C1.34389883,16.365551 2.5429463,15.1327153 4.01560191,15.1327153 C5.48825751,15.1244829 6.68730498,16.3572772 6.68730498,17.879654 Z M4.01560191,11.0041369 C2.5429463,11.0041369 1.34389883,9.77134261 1.34389883,8.25723956 C1.34389883,6.74313652 2.5429463,5.51034223 4.01560191,5.51034223 C5.48825751,5.51034223 6.68730498,6.74313652 6.68730498,8.25723956 C6.68730498,9.77134261 5.48825751,11.0041369 4.01560191,11.0041369 Z M67.2593201,6.72658894 C67.1466579,6.72658894 67.0661849,6.70176758 67.0179011,6.65212486 C66.9696173,6.60248214 66.9454754,6.52801805 66.9454754,6.42873261 L66.9454754,5.65099662 L67.6134012,5.65099662 L67.6134012,5.02218879 L66.9454754,5.02218879 L66.9454754,4.41820233 L66.1005091,4.41820233 L66.1005091,5.02218879 L65.6740023,5.02218879 L65.6740023,5.65099662 L66.1005091,5.65099662 L66.1005091,6.48664912 C66.1005091,6.79277924 66.1729348,7.01617149 66.3177862,7.15682587 C66.4626375,7.29748026 66.6960092,7.36367055 67.0098538,7.36367055 C67.2593201,7.36367055 67.4926917,7.3305754 67.7019215,7.25611132 L67.5973066,6.66039865 C67.4685498,6.71004137 67.3558877,6.72658894 67.2593201,6.72658894 Z M64.1128264,4.9559985 C63.7426507,4.9559985 63.4609952,5.01391501 63.2517655,5.12974803 C63.0425357,5.24558105 62.9137789,5.42760436 62.8654952,5.66754419 L63.6219412,5.7254607 C63.6380358,5.6592704 63.6943669,5.60962768 63.7748399,5.56825874 C63.8553129,5.52688981 63.967975,5.51034223 64.0967318,5.51034223 C64.2254886,5.51034223 64.3301035,5.5351636 64.4025292,5.58480632 C64.4749548,5.63444904 64.507144,5.70891313 64.507144,5.79992478 L64.507144,5.89921023 L64.0162588,5.9157578 C63.5736574,5.92403159 63.2437182,5.99849568 63.0344884,6.12260248 C62.8252587,6.24670929 62.7206438,6.43700639 62.7206438,6.68522001 C62.7206438,6.91688605 62.8011168,7.09063558 62.9620627,7.2064686 C63.1230087,7.3305754 63.3563804,7.38849191 63.6541304,7.38849191 C63.8392183,7.38849191 64.0001642,7.36367055 64.1450156,7.30575404 C64.2818197,7.24783753 64.4186237,7.16509966 64.5312859,7.04099285 L64.5312859,7.32230162 L65.2796847,7.32230162 L65.2796847,5.88266266 C65.287732,5.26212862 64.8934144,4.9559985 64.1128264,4.9559985 Z M64.507144,6.42045882 C64.507144,6.52801805 64.4588602,6.61902971 64.37034,6.70176758 C64.3220562,6.74313652 64.2496305,6.77623167 64.1691575,6.80105303 C64.0886845,6.82587439 64.0001642,6.83414818 63.9035966,6.83414818 C63.6380358,6.83414818 63.509279,6.76795788 63.509279,6.6273035 C63.509279,6.53629184 63.5495155,6.47010154 63.6380358,6.42873261 C63.7265561,6.38736367 63.8633602,6.36254231 64.0645426,6.36254231 L64.507144,6.34599473 L64.507144,6.42045882 Z M21.3977665,12.1707409 L22.733618,12.1707409 L22.733618,0 L21.3977665,0 L21.3977665,12.1707409 Z M29.4933487,4.12861978 C28.3586796,4.12861978 27.3286254,4.55885671 26.5882739,5.3365927 C25.8720644,6.08950733 25.4777468,7.13200451 25.4777468,8.25723956 C25.4777468,9.3907484 25.8640171,10.4249718 26.5560847,11.1696126 C27.2964362,11.9638962 28.3103958,12.3775856 29.4853014,12.3775856 C30.7567745,12.3775856 32.0684842,11.7405039 32.7605518,10.7972922 L31.6902611,9.9699135 C31.2476597,10.5739 30.338315,11.0041369 29.4853014,11.0041369 C28.0931187,11.0041369 27.103301,10.1684844 26.8618821,8.86949981 L33.3721465,8.86949981 L33.3721465,8.18277548 C33.3721465,7.09063558 32.9939235,6.07295976 32.3099031,5.32831892 C31.5936935,4.55058293 30.5958285,4.12861978 29.4933487,4.12861978 Z M26.9021186,7.49605115 C27.1918213,6.28807822 28.1735917,5.50206845 29.4933487,5.50206845 C30.7648218,5.50206845 31.7063557,6.29635201 31.9638693,7.49605115 L26.9021186,7.49605115 Z M14.7104615,4.12861978 C12.4974544,4.12861978 10.6948596,5.9819481 10.6948596,8.25723956 C10.6948596,10.532531 12.4974544,12.3858593 14.7104615,12.3858593 C16.9234685,12.3858593 18.7260634,10.532531 18.7260634,8.25723956 C18.7260634,5.97367431 16.9234685,4.12861978 14.7104615,4.12861978 Z M14.7104615,11.0041369 C13.2378059,11.0041369 12.0387584,9.77134261 12.0387584,8.25723956 C12.0387584,6.74313652 13.2378059,5.51034223 14.7104615,5.51034223 C16.1831171,5.51034223 17.3822048,6.74313652 17.3822048,8.25723956 C17.3902119,9.77134261 16.1911644,11.0041369 14.7104615,11.0041369 Z M55.8643455,6.54456563 C55.7436361,6.6273035 55.5826901,6.66867243 55.3734603,6.66867243 C55.1078995,6.66867243 54.8986697,6.58593456 54.7538184,6.42873261 C54.608967,6.27153065 54.5365413,6.0481384 54.5365413,5.75855585 C54.5365413,5.47724709 54.608967,5.25385483 54.7538184,5.09665288 C54.8986697,4.93945092 55.0998522,4.85671305 55.3573657,4.85671305 C55.5424536,4.85671305 55.6953523,4.89808199 55.7999672,4.97254607 C55.9126293,5.04701015 55.9931023,5.17111696 56.0413861,5.3365927 L56.9346362,5.22903347 C56.8461159,4.85671305 56.6690754,4.58367807 56.4115618,4.39338097 C56.146001,4.21135765 55.7999672,4.12034599 55.3573657,4.12034599 C54.98719,4.12034599 54.6733454,4.18653629 54.4158318,4.32719067 C54.150271,4.46784505 53.9490885,4.65814216 53.8122844,4.90635577 C53.6754804,5.15456939 53.6030547,5.44415194 53.6030547,5.76682964 C53.6030547,6.10605491 53.6754804,6.40391124 53.8203317,6.65212486 C53.9651831,6.90033847 54.1663656,7.09063558 54.4319264,7.21474238 C54.6974873,7.33884919 55.0032846,7.40503949 55.365413,7.40503949 C55.8482509,7.40503949 56.226474,7.29748026 56.5161767,7.08236179 C56.8058795,6.86724332 56.9668254,6.5611132 57.0070619,6.1722452 L56.1057645,6.1722452 C56.0574807,6.33772095 55.9770077,6.46182775 55.8643455,6.54456563 Z M36.108228,12.1707409 L37.4440795,12.1707409 L37.4440795,5.70891313 L40.1157826,5.70891313 L40.1157826,12.1707409 L41.4516341,12.1707409 L41.4516341,5.70891313 L44.1233372,5.70891313 L44.1233372,12.1707409 L45.4591887,12.1707409 L45.4591887,4.33546446 L36.108228,4.33546446 L36.108228,12.1707409 Z M58.3429135,5.34486649 L58.3429135,5.02218879 L57.5140417,5.02218879 L57.5140417,7.32230162 L58.359008,7.32230162 L58.359008,6.13087627 C58.359008,6.07295976 58.3751026,6.00676946 58.3992445,5.94885295 C58.4314337,5.89093644 58.4716702,5.84129372 58.519954,5.791651 C58.6406635,5.69236555 58.8096568,5.64272283 59.0108392,5.64272283 C59.0993595,5.64272283 59.1878798,5.65099662 59.2844474,5.66754419 L59.3810149,4.99736743 C59.2924947,4.98081986 59.2039744,4.97254607 59.1154541,4.97254607 C58.8096568,4.98081986 58.5521432,5.10492666 58.3429135,5.34486649 Z M60.9824273,4.9559985 C60.7007719,4.9559985 60.4593529,5.00564122 60.2581705,5.11320045 C60.056988,5.22075968 59.896042,5.36968785 59.7914272,5.55998496 C59.6868123,5.75028206 59.6304812,5.96540053 59.6304812,6.20534035 C59.6304812,6.58593456 59.7431434,6.87551711 59.976515,7.09063558 C60.2098867,7.29748026 60.5398259,7.40503949 60.9582854,7.40503949 C61.7066842,7.40503949 62.1412383,7.13200451 62.2539005,6.59420835 L61.4733125,6.59420835 C61.4169814,6.7514103 61.2479882,6.82587439 60.9824273,6.82587439 C60.8134341,6.82587439 60.6846773,6.78450545 60.5881097,6.71004137 C60.4915421,6.63557728 60.435211,6.52801805 60.4271637,6.38736367 L62.2860897,6.38736367 L62.2860897,6.16397142 C62.2860897,5.78337721 62.1734275,5.48552087 61.9481031,5.27867619 C61.7147315,5.05528394 61.4008868,4.9559985 60.9824273,4.9559985 Z M60.4432583,5.9157578 C60.4593529,5.79992478 60.515684,5.70063934 60.6122516,5.63444904 C60.7088192,5.55998496 60.8295287,5.52688981 60.9663327,5.52688981 C61.3043193,5.52688981 61.4813598,5.6592704 61.4974544,5.92403159 L60.4432583,5.92403159 L60.4432583,5.9157578 Z M90.5160125,6.26325686 C90.5160125,6.32117337 90.4999179,6.37908988 90.475776,6.43700639 C90.4516341,6.4949229 90.4113976,6.54456563 90.3711611,6.58593456 C90.2584989,6.68522001 90.1297422,6.74313652 90.0009854,6.74313652 C89.8802759,6.74313652 89.7917556,6.71004137 89.7273772,6.65212486 C89.6629989,6.59420835 89.638857,6.4949229 89.638857,6.36254231 L89.638857,5.03046258 L88.7938906,5.03046258 L88.7938906,6.52801805 C88.7938906,6.80105303 88.8743636,7.01617149 89.0272623,7.17337345 C89.1801609,7.3305754 89.397438,7.40503949 89.6710461,7.40503949 C90.0090327,7.40503949 90.2906881,7.27265889 90.5321071,7.01617149 L90.5321071,7.33884919 L91.3609788,7.33884919 L91.3609788,5.03873637 L90.5160125,5.03873637 L90.5160125,6.26325686 L90.5160125,6.26325686 Z M93.4210872,6.72658894 C93.308425,6.72658894 93.227952,6.70176758 93.1796683,6.65212486 C93.1313845,6.60248214 93.1072426,6.52801805 93.1072426,6.42873261 L93.1072426,5.65099662 L93.7751683,5.65099662 L93.7751683,5.02218879 L93.1072426,5.02218879 L93.1072426,4.41820233 L92.2622762,4.41820233 L92.2622762,5.02218879 L91.8357694,5.02218879 L91.8357694,5.65099662 L92.2622762,5.65099662 L92.2622762,6.48664912 C92.2622762,6.79277924 92.3347019,7.01617149 92.4795533,7.15682587 C92.6244047,7.29748026 92.8577763,7.36367055 93.171621,7.36367055 C93.4210872,7.36367055 93.6544589,7.3305754 93.8636886,7.25611132 L93.7590737,6.66039865 C93.630317,6.71004137 93.5176548,6.72658894 93.4210872,6.72658894 Z M92.632452,10.2760436 L92.632452,9.95336593 L91.8035802,9.95336593 L91.8035802,12.2534788 L92.6485466,12.2534788 L92.6485466,11.0620534 C92.6485466,11.0041369 92.6646412,10.9379466 92.6887831,10.8800301 C92.7209722,10.8221136 92.7612087,10.7724709 92.8094925,10.7228281 C92.930202,10.6235427 93.0991953,10.5739 93.3003777,10.5739 C93.388898,10.5739 93.4774183,10.5821737 93.5739859,10.5987213 L93.6705535,9.92854457 C93.5820332,9.91199699 93.4935129,9.9037232 93.4049926,9.9037232 C93.0991953,9.91199699 92.8416817,10.0361038 92.632452,10.2760436 Z M95.7548037,9.88717563 C95.4087699,9.88717563 95.1110199,10.0195562 94.8776482,10.2760436 L94.8776482,9.95336593 L94.0487765,9.95336593 L94.0487765,12.2534788 L94.8937428,12.2534788 L94.8937428,11.0124107 C94.8937428,10.8965777 94.9420266,10.7890184 95.0385942,10.6980068 C95.086878,10.648364 95.1512564,10.6069951 95.2156348,10.5821737 C95.2800131,10.5573524 95.3524388,10.5408048 95.4248645,10.5408048 C95.5536213,10.5408048 95.6501889,10.5739 95.7145673,10.6318165 C95.7789456,10.689733 95.8030875,10.7890184 95.8030875,10.9296728 L95.8030875,12.2617525 L96.6480539,12.2617525 L96.6480539,10.7641971 C96.6480539,10.4828883 96.5675809,10.2677698 96.4146822,10.1188417 C96.2617835,9.9699135 96.0364592,9.88717563 95.7548037,9.88717563 Z M97.2033175,6.45355397 L97.2033175,7.32230162 L98,7.32230162 L98,6.45355397 L97.2033175,6.45355397 Z M69.3999015,4.9559985 C69.118246,4.9559985 68.8768271,5.00564122 68.6756446,5.11320045 C68.4744621,5.22075968 68.3135162,5.36968785 68.2089013,5.55998496 C68.1042864,5.75028206 68.0479553,5.96540053 68.0479553,6.20534035 C68.0479553,6.58593456 68.1606175,6.87551711 68.3939892,7.09063558 C68.6273608,7.29748026 68.9573,7.40503949 69.3757596,7.40503949 C70.1241583,7.40503949 70.5587124,7.13200451 70.6713746,6.59420835 L69.8907867,6.59420835 C69.8344556,6.7514103 69.6654623,6.82587439 69.3999015,6.82587439 C69.2309082,6.82587439 69.1021514,6.78450545 69.0055838,6.71004137 C68.9090163,6.63557728 68.8526852,6.52801805 68.8446379,6.38736367 L70.7035638,6.38736367 L70.7035638,6.16397142 C70.7035638,5.78337721 70.5909016,5.48552087 70.3655773,5.27867619 C70.1322056,5.05528394 69.8103137,4.9559985 69.3999015,4.9559985 Z M68.8607325,5.9157578 C68.8768271,5.79992478 68.9331582,5.70063934 69.0297257,5.63444904 C69.1262933,5.55998496 69.2470028,5.52688981 69.3838069,5.52688981 C69.7217934,5.52688981 69.898834,5.6592704 69.9149286,5.92403159 L68.8607325,5.92403159 L68.8607325,5.9157578 Z M97.2033175,12.2534788 L98,12.2534788 L98,11.3847311 L97.2033175,11.3847311 L97.2033175,12.2534788 Z M95.5616686,4.9559985 C95.2800131,4.9559985 95.0385942,5.00564122 94.8374117,5.11320045 C94.6362293,5.22075968 94.4752833,5.36968785 94.3706684,5.55998496 C94.2660535,5.75028206 94.2097225,5.96540053 94.2097225,6.20534035 C94.2097225,6.58593456 94.3223846,6.87551711 94.5557563,7.09063558 C94.7891279,7.29748026 95.1190672,7.40503949 95.5375267,7.40503949 C96.2859254,7.40503949 96.7204796,7.13200451 96.8331417,6.59420835 L96.0525538,6.59420835 C95.9962227,6.7514103 95.8272294,6.82587439 95.5616686,6.82587439 C95.3926753,6.82587439 95.2639185,6.78450545 95.167351,6.71004137 C95.0707834,6.63557728 95.0144523,6.52801805 95.006405,6.38736367 L96.8653309,6.38736367 L96.8653309,6.16397142 C96.8653309,5.78337721 96.7526687,5.48552087 96.5273444,5.27867619 C96.2939727,5.05528394 95.9720808,4.9559985 95.5616686,4.9559985 Z M95.0224996,5.9157578 C95.0385942,5.79992478 95.0949253,5.70063934 95.1914929,5.63444904 C95.2880604,5.55998496 95.4087699,5.52688981 95.545574,5.52688981 C95.8835605,5.52688981 96.0606011,5.6592704 96.0766957,5.92403159 L95.0224996,5.92403159 L95.0224996,5.9157578 Z M76.183774,6.54456563 C76.0630645,6.6273035 75.9021186,6.66867243 75.6928888,6.66867243 C75.427328,6.66867243 75.2180982,6.58593456 75.0732468,6.42873261 C74.9283955,6.27153065 74.8559698,6.0481384 74.8559698,5.75855585 C74.8559698,5.47724709 74.9283955,5.25385483 75.0732468,5.09665288 C75.2180982,4.93945092 75.4192807,4.85671305 75.6767942,4.85671305 C75.8618821,4.85671305 76.0147808,4.89808199 76.1193956,4.97254607 C76.2320578,5.04701015 76.3125308,5.17111696 76.3608146,5.3365927 L77.2540647,5.22903347 C77.1655444,4.85671305 76.9885039,4.58367807 76.7309903,4.39338097 C76.4654295,4.21135765 76.1193956,4.12034599 75.6767942,4.12034599 C75.3066185,4.12034599 74.9927739,4.18653629 74.7352603,4.32719067 C74.4696995,4.46784505 74.268517,4.65814216 74.1317129,4.90635577 C73.9949089,5.15456939 73.9224832,5.44415194 73.9224832,5.76682964 C73.9224832,6.10605491 73.9949089,6.40391124 74.1397602,6.65212486 C74.2846116,6.90033847 74.4857941,7.09063558 74.7513549,7.21474238 C75.0088685,7.34712298 75.3227131,7.40503949 75.6848415,7.40503949 C76.1676794,7.40503949 76.5459024,7.29748026 76.8356052,7.08236179 C77.1253079,6.86724332 77.2862539,6.5611132 77.3264904,6.1722452 L76.425193,6.1722452 C76.3769092,6.33772095 76.2964362,6.46182775 76.183774,6.54456563 Z M80.0545246,5.27040241 C79.8131056,5.05528394 79.4751191,4.9559985 79.040565,4.9559985 C78.6060108,4.9559985 78.259977,5.06355773 78.0105108,5.28694998 C77.7610445,5.51034223 77.6322877,5.80819857 77.6322877,6.18879278 C77.6322877,6.56938699 77.7529972,6.86724332 77.9944162,7.08236179 C78.2358351,7.29748026 78.5738216,7.3967657 79.0083758,7.3967657 C79.4429299,7.3967657 79.7889637,7.28920647 80.03843,7.06581422 C80.2878962,6.84242196 80.416653,6.54456563 80.416653,6.16397142 C80.416653,5.78337721 80.2959435,5.48552087 80.0545246,5.27040241 Z M79.418788,6.60248214 C79.3302677,6.70176758 79.1934636,6.7514103 79.0244704,6.7514103 C78.8474298,6.7514103 78.718673,6.70176758 78.6301527,6.60248214 C78.5416325,6.50319669 78.4933487,6.36254231 78.4933487,6.1722452 C78.4933487,5.9819481 78.5416325,5.84129372 78.6301527,5.74200827 C78.718673,5.64272283 78.8554771,5.59308011 79.0244704,5.59308011 C79.2015109,5.59308011 79.3302677,5.64272283 79.418788,5.74200827 C79.5073083,5.84129372 79.5555921,5.9819481 79.5555921,6.1722452 C79.5636393,6.36254231 79.5153556,6.50319669 79.418788,6.60248214 Z M71.0415503,7.32230162 L71.8382329,7.32230162 L71.8382329,6.45355397 L71.0415503,6.45355397 L71.0415503,7.32230162 Z M90.0653638,9.88717563 C89.695188,9.88717563 89.4135326,9.94509214 89.2043028,10.0609252 C88.9950731,10.1767582 88.8663163,10.3587815 88.8180325,10.5987213 L89.5744786,10.6566378 C89.5905732,10.5904475 89.6469043,10.5408048 89.7273772,10.4994359 C89.8078502,10.4580669 89.9205124,10.4415194 90.0492692,10.4415194 C90.1780259,10.4415194 90.2826408,10.4663407 90.3550665,10.5159835 C90.4274922,10.5656262 90.4596814,10.6400903 90.4596814,10.7311019 L90.4596814,10.8303874 L89.9687962,10.8469349 C89.5261948,10.8552087 89.1962555,10.9296728 88.9870258,11.0537796 C88.777796,11.1778864 88.6731811,11.3681835 88.6731811,11.6163971 C88.6731811,11.8480632 88.7536541,12.0218127 88.9146001,12.1376457 C89.0755461,12.2617525 89.3089177,12.319669 89.6066678,12.319669 C89.7917556,12.319669 89.9527016,12.2948477 90.097553,12.2369312 C90.234357,12.1790147 90.3711611,12.0962768 90.4838233,11.97217 L90.4838233,12.2534788 L91.232222,12.2534788 L91.232222,10.8138398 C91.2402693,10.1933058 90.8459517,9.88717563 90.0653638,9.88717563 Z M90.4596814,11.351636 C90.4596814,11.4591952 90.4113976,11.5502068 90.3228773,11.6329447 C90.2745935,11.6743137 90.2021678,11.7074088 90.1216949,11.7322302 C90.0412219,11.7570515 89.9527016,11.7653253 89.856134,11.7653253 C89.5905732,11.7653253 89.4618164,11.699135 89.4618164,11.5584806 C89.4618164,11.467469 89.5020529,11.4012787 89.5905732,11.3599097 C89.6790934,11.3185408 89.8158975,11.2937194 90.01708,11.2937194 L90.4596814,11.2771719 L90.4596814,11.351636 L90.4596814,11.351636 Z M86.4601741,11.0124107 L88.1420595,11.0124107 L88.1420595,10.3091388 L86.4601741,10.3091388 L86.4601741,9.82925912 L88.2305797,9.82925912 L88.2305797,9.12598721 L85.5749713,9.12598721 L85.5749713,12.2534788 L88.2466743,12.2534788 L88.3351946,11.5502068 L86.4601741,11.5502068 L86.4601741,11.0124107 Z M84.1586467,4.9559985 C83.788471,4.9559985 83.4987683,5.09665288 83.2734439,5.36968785 C83.2090655,5.23730726 83.1124979,5.12974803 82.9837412,5.06355773 C82.8549844,4.99736743 82.710133,4.9559985 82.5330925,4.9559985 C82.2112005,4.9559985 81.9375924,5.08837909 81.7203153,5.34486649 L81.7203153,5.02218879 L80.8914436,5.02218879 L80.8914436,7.32230162 L81.7364099,7.32230162 L81.7364099,6.06468597 C81.7364099,5.94885295 81.7766464,5.84129372 81.8651667,5.75855585 C81.9134505,5.70891313 81.9617343,5.66754419 82.0180654,5.64272283 C82.0743965,5.61790147 82.1387748,5.60135389 82.2031532,5.60135389 C82.3158154,5.60135389 82.3962884,5.63444904 82.4445722,5.69236555 C82.492856,5.75028206 82.5169979,5.84129372 82.5169979,5.97367431 L82.5169979,7.32230162 L83.3619642,7.32230162 L83.3619642,6.03986461 C83.3619642,5.93230538 83.4022007,5.84129372 83.490721,5.75028206 C83.5872886,5.65099662 83.6999507,5.60962768 83.8287075,5.60962768 C83.9413697,5.60962768 84.0218427,5.64272283 84.0701265,5.70063934 C84.1184102,5.75855585 84.1425521,5.84956751 84.1425521,5.9819481 L84.1425521,7.3305754 L84.9875185,7.3305754 L84.9875185,5.83301993 C84.9875185,5.55998496 84.9150928,5.34486649 84.7702414,5.18766454 C84.62539,5.03046258 84.4242076,4.9559985 84.1586467,4.9559985 Z M86.4118903,7.074088 C86.5889309,7.28920647 86.8464444,7.3967657 87.1763836,7.3967657 C87.4097553,7.3967657 87.6189851,7.33884919 87.7960256,7.23128996 C87.9730662,7.12373073 88.101823,6.97480256 88.1983905,6.78450545 C88.2949581,6.59420835 88.3351946,6.37908988 88.3351946,6.13915006 C88.3351946,5.89921023 88.2869108,5.69236555 88.1983905,5.51034223 C88.101823,5.32831892 87.9730662,5.18766454 87.8121202,5.09665288 C87.6511742,5.00564122 87.4660864,4.9559985 87.2649039,4.9559985 C86.8866809,4.9559985 86.5969782,5.0801053 86.3957957,5.3365927 L86.3957957,5.02218879 L85.566924,5.02218879 L85.566924,8.17450169 L86.4118903,8.17450169 L86.4118903,7.074088 L86.4118903,7.074088 Z M86.403843,6.12260248 C86.403843,5.97367431 86.4521268,5.84956751 86.5486944,5.75028206 C86.6533092,5.64272283 86.7901133,5.59308011 86.9510593,5.59308011 C87.1200526,5.59308011 87.2488093,5.64272283 87.3373296,5.74200827 C87.4258499,5.84129372 87.4741337,5.9819481 87.4741337,6.16397142 C87.4741337,6.35426852 87.4258499,6.50319669 87.3373296,6.60248214 C87.2488093,6.70176758 87.1120053,6.7514103 86.9349647,6.7514103 C86.7740187,6.7514103 86.6372146,6.70176758 86.5406471,6.60248214 C86.4440795,6.50319669 86.3957957,6.3708161 86.3957957,6.20534035 L86.3957957,6.12260248 L86.403843,6.12260248 Z" id="Shape"></path>
                </g>
            </g>
        </g>
    </g>
</svg>