<?xml version="1.0" encoding="UTF-8"?>
<svg width="65px" height="65px" viewBox="0 0 65 65" version="1.1" xmlns="http://www.w3.org/2000/svg" xmlns:xlink="http://www.w3.org/1999/xlink">
    <title>Group 2</title>
    <g id="Page-1" stroke="none" stroke-width="1" fill="none" fill-rule="evenodd">
        <g id="Mining-Provider-Windows-Onboarding-Steps-01" transform="translate(-562.000000, -537.000000)">
            <g id="My-Balance" transform="translate(536.000000, 459.000000)">
                <g id="Group-2" transform="translate(26.000000, 78.000000)">
                    <circle id="Oval" fill="#FFFFFF" cx="32.5" cy="32.5" r="32.5"></circle>
                    <g id="undraw_teaching_f1cm" transform="translate(4.000000, 10.000000)" fill-rule="nonzero">
                        <rect id="Rectangle" fill="#6C63FF" opacity="0.1" x="11.6523156" y="7.7176781" width="5.16892319" height="1.54353562" rx="0.4458"></rect>
                        <rect id="Rectangle" fill="#6C63FF" opacity="0.1" x="17.0616538" y="9.26121372" width="5.16892319" height="1.54353562" rx="0.4458"></rect>
                        <rect id="Rectangle" fill="#6C63FF" opacity="0.1" x="22.470992" y="10.8047493" width="5.16892319" height="1.54353562" rx="0.4458"></rect>
                        <rect id="Rectangle" fill="#6C63FF" opacity="0.1" x="11.6523156" y="5.40237467" width="5.16892319" height="1.54353562" rx="0.4458"></rect>
                        <rect id="Rectangle" fill="#6C63FF" opacity="0.1" x="17.0616538" y="6.94591029" width="5.16892319" height="1.54353562" rx="0.4458"></rect>
                        <rect id="Rectangle" fill="#6C63FF" opacity="0.1" x="22.470992" y="8.48944591" width="5.16892319" height="1.54353562" rx="0.4458"></rect>
                        <rect id="Rectangle" fill="#6C63FF" opacity="0.1" x="28.4813678" y="7.7176781" width="5.16892319" height="1.54353562" rx="0.4458"></rect>
                        <rect id="Rectangle" fill="#6C63FF" opacity="0.1" x="33.8907061" y="9.26121372" width="5.16892319" height="1.54353562" rx="0.4458"></rect>
                        <rect id="Rectangle" fill="#6C63FF" opacity="0.1" x="39.3000443" y="10.8047493" width="5.16892319" height="1.54353562" rx="0.4458"></rect>
                        <rect id="Rectangle" fill="#6C63FF" opacity="0.1" x="28.4813678" y="5.40237467" width="5.16892319" height="1.54353562" rx="0.4458"></rect>
                        <rect id="Rectangle" fill="#6C63FF" opacity="0.1" x="33.8907061" y="6.94591029" width="5.16892319" height="1.54353562" rx="0.4458"></rect>
                        <rect id="Rectangle" fill="#6C63FF" opacity="0.1" x="39.3000443" y="8.48944591" width="5.16892319" height="1.54353562" rx="0.4458"></rect>
                        <rect id="Rectangle" fill="#6C63FF" opacity="0.1" x="11.6523156" y="2.31530343" width="5.16892319" height="1.54353562" rx="0.4458"></rect>
                        <rect id="Rectangle" fill="#6C63FF" opacity="0.1" x="17.0616538" y="3.85883905" width="5.16892319" height="1.54353562" rx="0.4458"></rect>
                        <rect id="Rectangle" fill="#6C63FF" opacity="0.1" x="22.470992" y="5.40237467" width="5.16892319" height="1.54353562" rx="0.4458"></rect>
                        <rect id="Rectangle" fill="#6C63FF" opacity="0.1" x="11.6523156" y="0" width="5.16892319" height="1.54353562" rx="0.4458"></rect>
                        <rect id="Rectangle" fill="#6C63FF" opacity="0.1" x="17.0616538" y="1.54353562" width="5.16892319" height="1.54353562" rx="0.4458"></rect>
                        <rect id="Rectangle" fill="#6C63FF" opacity="0.1" x="22.470992" y="3.08707124" width="5.16892319" height="1.54353562" rx="0.4458"></rect>
                        <rect id="Rectangle" fill="#6C63FF" opacity="0.1" x="28.4813678" y="2.31530343" width="5.16892319" height="1.54353562" rx="0.4458"></rect>
                        <rect id="Rectangle" fill="#6C63FF" opacity="0.1" x="33.8907061" y="3.85883905" width="5.16892319" height="1.54353562" rx="0.4458"></rect>
                        <rect id="Rectangle" fill="#6C63FF" opacity="0.1" x="39.3000443" y="5.40237467" width="5.16892319" height="1.54353562" rx="0.4458"></rect>
                        <rect id="Rectangle" fill="#6C63FF" opacity="0.1" x="28.4813678" y="0" width="5.16892319" height="1.54353562" rx="0.4458"></rect>
                        <rect id="Rectangle" fill="#6C63FF" opacity="0.1" x="33.8907061" y="1.54353562" width="5.16892319" height="1.54353562" rx="0.4458"></rect>
                        <rect id="Rectangle" fill="#6C63FF" opacity="0.1" x="39.3000443" y="3.08707124" width="5.16892319" height="1.54353562" rx="0.4458"></rect>
                        <rect id="Rectangle" fill="#6C63FF" opacity="0.1" x="11.6523156" y="35.2044855" width="5.16892319" height="1.54353562" rx="0.4458"></rect>
                        <rect id="Rectangle" fill="#6C63FF" opacity="0.1" x="17.0616538" y="36.7480211" width="5.16892319" height="1.54353562" rx="0.4458"></rect>
                        <rect id="Rectangle" fill="#6C63FF" opacity="0.1" x="22.470992" y="38.2915567" width="5.16892319" height="1.54353562" rx="0.4458"></rect>
                        <rect id="Rectangle" fill="#6C63FF" opacity="0.1" x="11.6523156" y="32.8891821" width="5.16892319" height="1.54353562" rx="0.4458"></rect>
                        <rect id="Rectangle" fill="#6C63FF" opacity="0.1" x="17.0616538" y="34.4327177" width="5.16892319" height="1.54353562" rx="0.4458"></rect>
                        <rect id="Rectangle" fill="#6C63FF" opacity="0.1" x="22.470992" y="35.9762533" width="5.16892319" height="1.54353562" rx="0.4458"></rect>
                        <rect id="Rectangle" fill="#6C63FF" opacity="0.1" x="28.4813678" y="35.2044855" width="5.16892319" height="1.54353562" rx="0.4458"></rect>
                        <rect id="Rectangle" fill="#6C63FF" opacity="0.1" x="33.8907061" y="36.7480211" width="5.16892319" height="1.54353562" rx="0.4458"></rect>
                        <rect id="Rectangle" fill="#6C63FF" opacity="0.1" x="39.3000443" y="38.2915567" width="5.16892319" height="1.54353562" rx="0.4458"></rect>
                        <rect id="Rectangle" fill="#6C63FF" opacity="0.1" x="28.4813678" y="32.8891821" width="5.16892319" height="1.54353562" rx="0.4458"></rect>
                        <rect id="Rectangle" fill="#6C63FF" opacity="0.1" x="33.8907061" y="34.4327177" width="5.16892319" height="1.54353562" rx="0.4458"></rect>
                        <rect id="Rectangle" fill="#6C63FF" opacity="0.1" x="39.3000443" y="35.9762533" width="5.16892319" height="1.54353562" rx="0.4458"></rect>
                        <rect id="Rectangle" fill="#6C63FF" opacity="0.1" x="11.6523156" y="29.8021108" width="5.16892319" height="1.54353562" rx="0.4458"></rect>
                        <rect id="Rectangle" fill="#6C63FF" opacity="0.1" x="17.0616538" y="31.3456464" width="5.16892319" height="1.54353562" rx="0.4458"></rect>
                        <rect id="Rectangle" fill="#6C63FF" opacity="0.1" x="22.470992" y="32.8891821" width="5.16892319" height="1.54353562" rx="0.4458"></rect>
                        <rect id="Rectangle" fill="#6C63FF" opacity="0.1" x="11.6523156" y="27.4868074" width="5.16892319" height="1.54353562" rx="0.4458"></rect>
                        <rect id="Rectangle" fill="#6C63FF" opacity="0.1" x="17.0616538" y="29.030343" width="5.16892319" height="1.54353562" rx="0.4458"></rect>
                        <rect id="Rectangle" fill="#6C63FF" opacity="0.1" x="22.470992" y="30.5738786" width="5.16892319" height="1.54353562" rx="0.4458"></rect>
                        <rect id="Rectangle" fill="#6C63FF" opacity="0.1" x="28.4813678" y="29.8021108" width="5.16892319" height="1.54353562" rx="0.4458"></rect>
                        <rect id="Rectangle" fill="#6C63FF" opacity="0.1" x="33.8907061" y="31.3456464" width="5.16892319" height="1.54353562" rx="0.4458"></rect>
                        <rect id="Rectangle" fill="#6C63FF" opacity="0.1" x="39.3000443" y="32.8891821" width="5.16892319" height="1.54353562" rx="0.4458"></rect>
                        <rect id="Rectangle" fill="#6C63FF" opacity="0.1" x="28.4813678" y="27.4868074" width="5.16892319" height="1.54353562" rx="0.4458"></rect>
                        <rect id="Rectangle" fill="#6C63FF" opacity="0.1" x="33.8907061" y="29.030343" width="5.16892319" height="1.54353562" rx="0.4458"></rect>
                        <rect id="Rectangle" fill="#6C63FF" opacity="0.1" x="39.3000443" y="30.5738786" width="5.16892319" height="1.54353562" rx="0.4458"></rect>
                        <ellipse id="Oval" fill="#6C63FF" opacity="0.1" cx="28.9922498" cy="42.8627968" rx="26.3554979" ry="2.13720317"></ellipse>
                        <path d="M5.08778312,11.0897098 C7.57307352,12.153562 9.00113881,14.3548813 9.00113881,14.3548813 C9.00113881,14.3548813 6.39924712,14.8298153 3.91335569,13.7665567 C1.42746425,12.7032982 0,10.5013852 0,10.5013852 C0,10.5013852 2.60189169,10.0258575 5.08778312,11.0897098 Z" id="Path" fill="#6C63FF"></path>
                        <path d="M12.71495,7.00527704 C13.4836771,5.7585752 14.7927369,5.16490765 14.7927369,5.16490765 C14.7927369,5.16490765 14.8528407,6.58614776 14.0865178,7.8292876 C13.3201949,9.07242744 12.0081298,9.66550132 12.0081298,9.66550132 C12.0081298,9.66550132 11.9456219,8.24485488 12.71495,7.00527704 Z" id="Path" fill="#6C63FF"></path>
                        <path d="M7.06399469,8.33924802 C7.61394407,10.2781662 9.12976085,11.5545515 9.12976085,11.5545515 C9.12976085,11.5545515 9.7542389,9.68627968 9.20428951,7.74676781 C8.65434012,5.80725594 7.13792231,4.53146438 7.13792231,4.53146438 C7.13792231,4.53146438 6.51344426,6.39973615 7.06399469,8.33924802 Z" id="Path" fill="#46455B"></path>
                        <rect id="Rectangle" fill="#3F3D56" x="7.14453372" y="8.25197889" width="43.8156396" height="21.6688654" rx="0.4326"></rect>
                        <path d="M7.14453372,28.6147757 L50.9601734,28.6147757 L50.9601734,29.49281 C50.9601734,29.7292068 50.7661568,29.9208443 50.5268253,29.9208443 L7.57788182,29.9208443 C7.33855027,29.9208443 7.14453372,29.7292068 7.14453372,29.49281 L7.14453372,28.6147757 Z" id="Path" fill="#000000" opacity="0.1"></path>
                        <rect id="Rectangle" fill="#6C63FF" x="11.4119005" y="27.0118734" width="3.24560294" height="1.60290237" rx="0.15"></rect>
                        <rect id="Rectangle" fill="#6C63FF" x="15.5590599" y="28.3773087" width="2.22383905" height="1" rx="0.12"></rect>
                        <path d="M13.5846514,12.4895778 C15.1707896,12.7786939 16.7887827,12.4895778 18.3683095,12.2936675 L23.1687967,11.7 C23.3629318,11.6756596 23.6454195,11.5610818 23.7596166,11.7955805 C23.8239276,11.926781 23.7806529,12.2111478 23.7854612,12.3619393 C23.798083,12.7775066 23.7968809,13.1930739 23.7854612,13.6086412 C23.7638239,14.4029683 23.7049222,15.1955145 23.6297925,15.9862797 C23.4837404,17.533971 23.2769834,19.0733509 23.173605,20.6269789 C23.1207137,21.4177441 23.094268,22.2108839 23.1177085,23.0016491 C23.1231178,23.1904354 23.1309313,23.3792216 23.142351,23.5674142 C23.1549728,23.7781662 23.2505378,24.091029 23.0179362,24.2317282 C22.8851069,24.312467 22.6236556,24.3083113 22.4715931,24.332058 C22.231178,24.3694591 21.990763,24.3991425 21.7455397,24.4234828 C20.1293496,24.5831794 18.4921232,24.5166887 16.8699228,24.50719 L11.9714665,24.4822559 L10.7766038,24.4757256 C10.6684171,24.4757256 10.2783437,24.5398417 10.2116285,24.4127968 C10.1833797,24.3587731 10.2585094,24.1058707 10.2717323,24.0381926 C10.2901641,23.9265831 10.3101987,23.8151715 10.331836,23.7039578 C10.4712767,22.923285 10.635961,22.1473615 10.8018474,21.3720317 C11.1582627,19.7097625 11.5230925,18.0391821 11.6697457,16.3412929 C11.7424712,15.4893799 11.6943882,14.6297493 11.7833418,13.7796174 C11.8248134,13.3848285 11.8740984,12.5038259 12.4060167,12.4687995 C12.8567949,12.4391161 13.3207959,12.4687995 13.7727762,12.4687995 C13.8225677,12.4687995 13.8629318,12.4289304 13.8629318,12.3797493 C13.8629318,12.3305683 13.8225677,12.2906992 13.7727762,12.2906992 C13.3460395,12.2906992 12.9187018,12.2794195 12.4919651,12.2877309 C12.2082753,12.2930739 12.011135,12.3595646 11.8759016,12.6172164 C11.5303049,13.278562 11.5657662,14.160752 11.5549475,14.8826517 C11.5291029,16.6108179 11.2604391,18.3021768 10.9106352,19.9923483 C10.7345312,20.8430739 10.5446033,21.6908311 10.3697014,22.5421504 C10.2873592,22.9488127 10.2086233,23.3566623 10.1364988,23.7656992 C10.1028407,23.9604222 9.93274706,24.3896438 10.0824054,24.5683377 C10.2320638,24.7470317 10.6924586,24.6508575 10.8986145,24.6520449 L12.3326901,24.6603562 L15.0806339,24.6757916 C16.8560989,24.6858839 18.6375743,24.7351583 20.4124383,24.6835092 C21.2599013,24.6585752 22.1554473,24.6241425 22.9806719,24.4240765 C23.2264963,24.3647098 23.3449007,24.2531003 23.3545173,23.9942612 C23.3689422,23.592942 23.302828,23.1791557 23.2944135,22.7760554 C23.2343098,19.326847 24.0547261,15.9257256 23.9705808,12.4753298 C23.9651715,12.2408311 24.0547261,11.6495383 23.7950778,11.5076517 C23.6784765,11.4435356 23.5270151,11.478562 23.4044034,11.49281 C23.1699987,11.5195251 22.9361951,11.5521768 22.7017905,11.5794855 L19.6575351,11.9546834 C18.6844553,12.0734169 17.7119765,12.2016491 16.7370935,12.3108839 C15.705112,12.4296174 14.6629128,12.5002639 13.6345375,12.3108839 C13.5209414,12.2901055 13.4722574,12.4616755 13.5864545,12.4824538 L13.5846514,12.4895778 Z" id="Path" fill="#6C63FF"></path>
                        <path d="M11.6709477,14.5881926 L23.6808807,14.0063984 C23.7968809,14.0004617 23.797482,13.8223615 23.6808807,13.8282982 L11.6709477,14.4100923 C11.5555485,14.4154354 11.5549475,14.5935356 11.6709477,14.5881926 Z" id="Path" fill="#6C63FF"></path>
                        <path d="M15.3709351,13.1200528 C15.3027427,13.1914351 15.2746802,13.2914968 15.2959675,13.3873623 C15.3172548,13.4832278 15.3851397,13.5625032 15.4773187,13.5991425 C15.6389978,13.6721636 15.8289257,13.6110158 15.9894028,13.5712401 C16.2298178,13.5118734 16.4702328,13.4590369 16.7172593,13.4156992 C17.2549067,13.3216836 17.7994912,13.2716457 18.3454701,13.266095 C18.5942996,13.2631266 18.8413261,13.2744063 19.0901556,13.2850923 C19.2704669,13.2922164 19.464602,13.3064644 19.6172656,13.1960422 C19.7915665,13.0701847 19.848064,12.8244063 19.6773694,12.6712401 C19.4369543,12.4545515 18.9188599,12.580409 18.6411806,12.6029683 C17.6335916,12.6856455 16.6325396,12.8331886 15.6444072,13.044657 C15.5314121,13.0684037 15.5788941,13.2405673 15.6924902,13.2162269 C16.3444156,13.0773087 17.0013497,12.9656992 17.6632924,12.8813984 C17.9886541,12.8418206 18.3146168,12.8083773 18.6411806,12.7810686 C18.7950462,12.7686016 18.9489118,12.7573219 19.1027774,12.7484169 C19.1628812,12.7448549 19.2265912,12.7383245 19.287897,12.7401055 C19.4784259,12.7442612 19.5006643,12.7104222 19.3864672,12.9377968 C19.2848918,13.1390501 19.3173478,13.1158971 19.1412438,13.1093668 C19.0667152,13.1093668 18.9921865,13.1010554 18.9176579,13.0974934 C18.7649943,13.0911609 18.6123308,13.0877968 18.4596672,13.0874011 C18.1347062,13.0874011 17.8105466,13.1028364 17.4871884,13.1337071 C17.2131153,13.1598285 16.9396432,13.1966359 16.6685752,13.2441293 C16.4990826,13.2738127 16.3307921,13.3082454 16.1631026,13.3462401 C16.089175,13.3634565 16.0146463,13.3812665 15.9407187,13.3996702 C15.9052575,13.4091689 15.8691952,13.4174802 15.833734,13.4263852 C15.7023071,13.471504 15.5903138,13.4121372 15.497754,13.248285 C15.5782931,13.1657652 15.4514741,13.039314 15.3703341,13.1224274 L15.3709351,13.1200528 Z" id="Path" fill="#6C63FF"></path>
                        <path d="M17.5478932,15.6538259 C16.6781918,15.6205805 15.7387701,15.8527045 15.1659813,16.5443272 C14.7176072,17.0851583 14.4621663,18.0130607 14.936986,18.6221636 C15.4472669,19.2751979 16.5663988,19.1600264 17.241364,18.8815963 C17.9553967,18.5847625 18.7367455,17.9726913 18.951316,17.2068602 C19.2187777,16.2504617 18.3502784,15.5273747 17.4457168,15.5166887 C17.3297166,15.5166887 17.3297166,15.6947889 17.4457168,15.6947889 C17.9614071,15.7007256 18.4674807,15.9191953 18.7078957,16.3935356 C18.9597305,16.8934037 18.7427559,17.4182058 18.4073769,17.8183377 C17.8700493,18.455343 17.0297988,18.9356201 16.1739213,18.9219657 C15.6600342,18.914248 15.0920537,18.7403034 14.9327787,18.2048153 C14.8017525,17.7708443 14.9015247,17.296504 15.129919,16.9118074 C15.6239719,16.0806728 16.6295078,15.7992744 17.5514994,15.8348945 C17.6674997,15.8390501 17.6674997,15.6609499 17.5514994,15.6567942 L17.5478932,15.6538259 Z" id="Path" fill="#6C63FF"></path>
                        <path d="M16.6842022,16.9729551 C16.6088344,16.9453698 16.5244128,16.9578501 16.4605242,17.006022 C16.3966355,17.054194 16.3621896,17.1313396 16.3692585,17.2104222 C16.3872896,17.4419525 16.6457358,17.5072559 16.8398709,17.4936016 C17.0075604,17.4793536 17.2034987,17.4182058 17.144597,17.2110158 C17.1226665,17.1368121 17.0691365,17.075704 16.9979438,17.0436016 C16.944161,17.0225261 16.8858183,17.0153737 16.8284512,17.0228232 C16.8062128,17.0228232 16.6024611,17.096438 16.6890105,17.0079815 L16.5471656,16.9895778 C16.5790511,17.0206398 16.5949648,17.0643025 16.5904403,17.1083113 C16.5909932,17.1398764 16.6083148,17.1688273 16.6360425,17.1845296 C16.6637702,17.2002318 16.697816,17.2003705 16.7256738,17.1848945 C16.7677355,17.1675038 16.8161378,17.175117 16.8506503,17.204552 C16.8851628,17.233987 16.8998429,17.2801757 16.888555,17.3238127 C16.8785601,17.3662689 16.9009327,17.4096728 16.941571,17.4266664 C16.9822092,17.44366 17.0293329,17.429317 17.0532393,17.3926781 C17.113343,17.2858179 17.1860686,17.073285 17.0959129,16.9616755 C17.0358092,16.8862797 16.9198089,16.9088391 16.8476844,16.9527704 C16.8031691,16.9838852 16.7617153,17.0190665 16.7238707,17.0578496 C16.6511451,17.121372 16.6036632,17.1510554 16.6307099,17.0293536 C16.6757877,16.8079156 16.8897571,16.6315963 17.0850943,16.5431398 L16.952866,16.44281 C16.8835426,16.7001283 16.7595897,16.939935 16.5892383,17.1463061 L16.7431039,17.2092348 C16.7341606,17.0422222 16.8322573,16.8876196 16.9883272,16.8227573 L16.8999747,16.8227573 L16.9468556,16.8987467 C16.9294255,17.0109499 17.1031254,17.0590369 17.1205555,16.9456464 C17.1433949,16.7990106 17.0496331,16.6084433 16.8759332,16.680277 C16.6685752,16.7657652 16.5609895,17.0002639 16.5651968,17.2092348 C16.5651968,17.2804749 16.6673731,17.335686 16.7196634,17.2727573 C16.9108086,17.0433872 17.0503357,16.7764569 17.12897,16.4897098 C17.1375074,16.4549471 17.12445,16.418485 17.0956824,16.396756 C17.0669148,16.375027 17.0278685,16.3721337 16.9961407,16.3893799 C16.8160919,16.4697681 16.6639346,16.6006539 16.5585853,16.7657652 C16.4852588,16.8844987 16.3933,17.069723 16.4678287,17.2062665 C16.4925035,17.2503931 16.5340203,17.2829396 16.5831306,17.2966557 C16.6322408,17.3103717 16.684865,17.304118 16.72928,17.2792876 C16.7848498,17.2467424 16.8356141,17.2067888 16.8801405,17.1605541 C16.9023788,17.1409631 16.9270214,17.107124 16.9564722,17.1011873 C16.9829179,17.0833773 16.9817158,17.0934697 16.952265,17.1326517 C16.9518745,17.1941706 16.9337355,17.2543044 16.8999747,17.3060026 L17.064659,17.3742744 C17.0949721,17.2610345 17.0550317,17.1407756 16.9626987,17.0672762 C16.8703656,16.9937768 16.7429071,16.980782 16.6373213,17.0341029 L16.7731558,17.1112797 C16.7759989,17.0357327 16.7519693,16.9615873 16.7052385,16.901715 C16.6908715,16.8783292 16.6665401,16.8626429 16.6390836,16.8590654 C16.6116272,16.8554879 16.5840099,16.8644054 16.5639947,16.8833113 C16.472637,16.9777045 16.4552069,17.1409631 16.5700051,17.2282322 C16.6559534,17.292942 16.6980261,17.2282322 16.792389,17.2133905 C17.112742,17.1724274 16.9258193,17.3149077 16.8128242,17.319657 C16.7622946,17.3250087 16.7112032,17.3213897 16.6619638,17.308971 C16.5365473,17.2670185 16.5287338,17.2129947 16.6385233,17.1468997 C16.7461091,17.1902375 16.792389,17.0180739 16.6866064,16.9753298 L16.6842022,16.9729551 Z" id="Path" fill="#6C63FF"></path>
                        <path d="M16.5393521,17.298285 C16.6132798,17.535752 16.3079527,17.6141161 16.1631026,17.6960422 C16.0614544,17.752348 15.9728164,17.8289805 15.9028533,17.9210422 C15.7513919,18.1217018 15.6948943,18.3769789 15.6450082,18.6174142 C15.6221688,18.7296174 15.7958687,18.7771108 15.8193091,18.6649077 C15.8468058,18.4882321 15.8979405,18.315947 15.9713716,18.1525726 C16.0795584,17.9400396 16.2346261,17.8687995 16.4365747,17.7595646 C16.6385233,17.6503298 16.7845755,17.4811346 16.713052,17.2507916 C16.6793939,17.1415567 16.505093,17.1884565 16.5393521,17.298285 L16.5393521,17.298285 Z" id="Path" fill="#6C63FF"></path>
                        <path d="M16.8398709,17.1789578 C16.750758,17.1911283 16.6856616,17.2682861 16.6896115,17.357058 C16.6896115,17.4277045 16.7370935,17.4728232 16.7695495,17.5292216 C16.8465918,17.6446115 16.9053678,17.7709317 16.9438504,17.9038259 C16.9727002,18.0314644 17.000949,18.2600264 16.9336328,18.3787599 C16.809218,18.5990106 16.58443,18.5568602 16.392699,18.5568602 C16.2123877,18.5568602 16.072947,18.6162269 16.0789574,18.3680739 C16.0825636,18.228562 16.1811337,18.0872691 16.2592686,17.9774406 L16.0945843,17.9560686 C16.1293247,18.1373436 16.1476286,18.3213177 16.1492788,18.5058047 C16.1492788,18.5883245 16.2772998,18.6340369 16.3169682,18.5503298 C16.4135952,18.3495552 16.4902858,18.1399996 16.5459636,17.9246042 L16.3686575,17.9008575 L16.3999114,18.3520449 C16.4009776,18.3915811 16.4281493,18.4257554 16.4667828,18.4361502 C16.5054164,18.446545 16.5463815,18.4307037 16.5676009,18.3971636 C16.5886518,18.3742175 16.6040756,18.3467952 16.6126787,18.3170185 C16.6186891,18.2891161 16.5633936,18.1009235 16.5411553,18.1680079 L16.7178603,18.1917546 L16.7304821,17.7631266 L16.5501708,17.7868734 C16.5882849,17.9077422 16.5997614,18.0352698 16.5838289,18.1608839 C16.5724092,18.2600264 16.7413008,18.2825858 16.7641402,18.1846306 L16.8771353,17.6087731 L16.712451,17.6295515 C16.7515787,17.7092017 16.7623779,17.7995555 16.7431039,17.8860158 C16.7298811,18 16.9101923,17.9988127 16.9234152,17.8860158 C16.9387299,17.7677993 16.9195458,17.6477214 16.8681197,17.5399077 C16.8494503,17.5095398 16.8143855,17.4929279 16.7787226,17.4975561 C16.7430597,17.5021843 16.7135293,17.527179 16.7034354,17.5612797 L16.5898393,18.1371372 L16.7671454,18.1608839 C16.7851766,18.0193619 16.7714278,17.8756541 16.7268759,17.7399736 C16.7144315,17.6977253 16.6726135,17.6707875 16.628454,17.6765736 C16.5842945,17.6823596 16.5510331,17.7191348 16.5501708,17.7631266 L16.537549,18.1917546 C16.537549,18.2956464 16.6836012,18.3104881 16.7148551,18.2155013 L16.7244717,18.1864116 C16.7329361,18.1555634 16.7242485,18.1225941 16.7016323,18.0997361 C16.5147096,17.8990765 16.4768442,18.2184697 16.4119322,18.3069261 L16.5802227,18.3520449 L16.5489687,17.9008575 C16.5423573,17.8046834 16.3981083,17.775 16.3716627,17.8771108 C16.3208652,18.0779132 16.2504123,18.2733586 16.1612995,18.460686 L16.32959,18.5058047 C16.3276506,18.3053549 16.3075356,18.1054796 16.2694863,17.9085752 C16.2538593,17.8266491 16.1450715,17.8302111 16.104802,17.8872032 C15.9845945,18.0581794 15.7766355,18.4315963 15.9371125,18.6364116 C16.0771542,18.8145119 16.5177148,18.7456464 16.7058396,18.7343668 C17.0027521,18.7177441 17.1103378,18.5319261 17.1427939,18.255277 C17.1582556,18.1227995 17.150735,17.9886877 17.1205555,17.8587071 C17.1043275,17.7886544 16.9402442,17.344591 16.8909591,17.353496 C17.0051563,17.3327177 16.9564722,17.1605541 16.8428761,17.1813325 L16.8398709,17.1789578 Z" id="Path" fill="#6C63FF"></path>
                        <path d="M16.4906681,17.5790897 L15.9984183,18.2208443 L16.1540871,18.3104881 L16.5147096,17.7951847 L16.3500253,17.7263193 L16.1703151,18.4036939 C16.1603202,18.4461502 16.1826928,18.4895541 16.2233311,18.5065477 C16.2639693,18.5235412 16.311093,18.5091983 16.3349994,18.4725594 C16.4167756,18.3387185 16.5085907,18.2111185 16.6096735,18.0908311 L16.4594141,18.0041557 C16.4190599,18.1575235 16.3412593,18.2987827 16.232823,18.4155673 L16.3836834,18.5022427 C16.3929167,18.4202094 16.4150189,18.3400951 16.4491965,18.2647757 C16.4954764,18.1620712 16.3488232,18.0712401 16.2935278,18.1745383 C16.2426741,18.2686255 16.1846046,18.3587303 16.1198279,18.4440633 L16.2845122,18.4654354 L16.3211755,18.2962401 L16.1564912,18.2748681 L16.1829369,18.423285 C16.191768,18.4536635 16.2161425,18.4772037 16.2470889,18.4852412 C16.2780354,18.4932787 16.3109801,18.4846257 16.3337973,18.462467 C16.486238,18.306652 16.608466,18.1245521 16.6944198,17.9251979 L16.5393521,17.9251979 C16.5801192,17.9994366 16.6087225,18.0795856 16.6240984,18.1626649 C16.6457358,18.2695251 16.7893838,18.2297493 16.8008035,18.1389182 C16.82662,17.9400578 16.8398685,17.7398018 16.840472,17.539314 L16.6601607,17.539314 L16.6601607,17.9127309 C16.6601607,18.0094987 16.8206377,18.0379947 16.8374668,17.9364776 C16.8493705,17.8464129 16.8794119,17.7596144 16.9258193,17.6812005 L16.7677464,17.6812005 C16.8058422,17.7418984 16.8266099,17.8116427 16.8278502,17.8830475 C16.8278502,17.9322285 16.8682142,17.9720976 16.9180058,17.9720976 C16.9677974,17.9720976 17.0081615,17.9322285 17.0081615,17.8830475 L17.0310009,17.764314 L16.857301,17.764314 C16.8747311,17.8693931 16.9408452,18.4612797 16.7058396,18.3918206 C16.6661711,18.3823219 16.6547514,18.3846966 16.6715804,18.3983509 L16.7250728,18.2855541 L16.8506896,18.0225594 L16.6823991,17.9774406 C16.6932178,18.0997361 16.7046375,18.2742744 16.6301088,18.3787599 C16.5700051,18.4636544 16.3848855,18.4974934 16.2905226,18.4476253 C16.2282277,18.4037593 16.1749844,18.3485493 16.1336518,18.2849604 L16.0104391,18.4036939 C16.1102113,18.4755277 16.2718904,18.651847 16.4005125,18.6619393 C16.4984816,18.669657 16.5808237,18.5895119 16.6451348,18.5253958 C16.8444834,18.3219169 16.9507053,18.0466377 16.9390421,17.7637203 C16.9390421,17.7145393 16.8986781,17.6746702 16.8488865,17.6746702 C16.7990949,17.6746702 16.7587309,17.7145393 16.7587309,17.7637203 L16.7587309,17.9667546 C16.7587309,18.0159356 16.7990949,18.0558047 16.8488865,18.0558047 C16.8986781,18.0558047 16.9390421,18.0159356 16.9390421,17.9667546 L16.9390421,17.4686675 C16.9390421,17.4194865 16.8986781,17.3796174 16.8488865,17.3796174 C16.7990949,17.3796174 16.7587309,17.4194865 16.7587309,17.4686675 C16.7584037,17.5880549 16.7479491,17.7072052 16.7274769,17.8248681 L16.904783,17.8486148 C16.8906655,17.7067696 16.8840451,17.5642939 16.8849488,17.4217678 C16.8843665,17.377671 16.8511953,17.3406373 16.8069549,17.334692 C16.7627144,17.3287467 16.7207321,17.3556808 16.7082437,17.3980211 C16.681197,17.5114116 16.6481399,17.6230211 16.616285,17.7340369 L16.7809693,17.7126649 L16.7683475,17.6651715 C16.7599329,17.551781 16.5796217,17.5511873 16.5880362,17.6651715 C16.5900153,17.7132355 16.6027411,17.7602709 16.6253005,17.8029024 C16.6601607,17.8753298 16.7689485,17.8498021 16.7899848,17.7815303 C16.824244,17.6699208 16.8548969,17.5583113 16.8819436,17.4455145 L16.7046375,17.4217678 C16.7037339,17.5642939 16.7103543,17.7067696 16.7244717,17.8486148 C16.7334873,17.9400396 16.8825446,17.9792216 16.9011768,17.8723615 C16.925184,17.7382775 16.9378495,17.6024524 16.9390421,17.4662929 L16.7587309,17.4662929 L16.7587309,17.9643799 L16.9390421,17.9643799 L16.9390421,17.7613456 L16.7587309,17.7613456 C16.7693344,17.985302 16.6905655,18.2044294 16.5393521,18.3716359 C16.5159303,18.3979379 16.4906213,18.4225398 16.4636214,18.4452507 C16.4209477,18.4856201 16.3818803,18.4796834 16.3476212,18.426847 C16.2622738,18.3918206 16.1739213,18.3015831 16.0993926,18.2487467 C16.024864,18.1959103 15.9226876,18.3003958 15.9755789,18.3704485 C16.1138175,18.5521108 16.3199734,18.7545515 16.5766165,18.6672823 C16.8464823,18.5728892 16.8831456,18.2119393 16.8627104,17.9744723 C16.8560989,17.8955145 16.7364925,17.8420844 16.6950209,17.9299472 C16.6349171,18.0552111 16.5748134,18.1798813 16.5147096,18.3057388 C16.4936733,18.3496702 16.4546058,18.4102243 16.4606162,18.462467 C16.4804505,18.5960422 16.6445337,18.5740765 16.745508,18.5663588 C17.1367835,18.5372691 17.0748766,17.989314 17.0297988,17.7138522 C17.0147729,17.6224274 16.8801405,17.6366755 16.8560989,17.7138522 C16.8370003,17.7680805 16.8270508,17.8250395 16.8266481,17.8824538 L17.0069594,17.8824538 C17.0004258,17.780373 16.9715097,17.6809142 16.9222131,17.5909631 C16.9058138,17.5639514 16.8762659,17.5474222 16.8443787,17.5474222 C16.8124915,17.5474222 16.7829436,17.5639514 16.7665444,17.5909631 C16.7127972,17.6826092 16.6765349,17.7832204 16.6595597,17.8877968 L16.8398709,17.9115435 L16.8398709,17.5381266 C16.8398709,17.4889456 16.7995069,17.4490765 16.7497153,17.4490765 C16.6999237,17.4490765 16.6595597,17.4889456 16.6595597,17.5381266 C16.6589562,17.7386145 16.6457077,17.9388704 16.6198912,18.1377309 L16.7971973,18.1139842 C16.7767973,18.0169286 16.7421736,17.9233312 16.6944198,17.8361478 C16.6780206,17.8091361 16.6484727,17.7926069 16.6165855,17.7926069 C16.5846983,17.7926069 16.5551504,17.8091361 16.5387511,17.8361478 C16.4603681,18.0220756 16.3476605,18.191983 16.2063773,18.3372032 L16.3572378,18.3763852 L16.3307921,18.2279683 C16.3169682,18.1490106 16.2039732,18.1466359 16.1661078,18.2065963 C16.1057277,18.2968249 16.0859239,18.4077422 16.1114134,18.5129288 C16.1264393,18.5972296 16.2346261,18.5883245 16.2760977,18.5343008 C16.3408696,18.4491726 16.3989397,18.3592655 16.4497975,18.2653694 L16.2941288,18.1751319 C16.2525668,18.2638387 16.2242245,18.3580212 16.2099836,18.4547493 C16.1991649,18.5331135 16.2935278,18.6150396 16.360844,18.5414248 C16.4900534,18.4017748 16.5836082,18.2336499 16.633715,18.0510554 C16.6559534,17.9703166 16.5429584,17.8937335 16.4828546,17.9643799 C16.3722794,18.0952677 16.2718234,18.2341816 16.1823358,18.3799472 L16.3470201,18.4488127 L16.5303366,17.7738127 C16.5403314,17.7313564 16.5179589,17.6879525 16.4773206,17.6709589 C16.4366823,17.6539654 16.3895587,17.6683083 16.3656523,17.7049472 L16.0050297,18.2208443 C15.9377135,18.3164248 16.0921802,18.3989446 16.1606985,18.3104881 L16.6511451,17.6693272 C16.7208655,17.5779024 16.5645957,17.4912269 16.4954764,17.5790897 L16.4906681,17.5790897 Z" id="Path" fill="#6C63FF"></path>
                        <path d="M24.1587056,19.7216359 C24.8799507,19.2858839 25.4533405,18.6358179 26.0904403,18.0920185 C26.7816336,17.5025066 27.5070859,16.9533641 28.2541756,16.4333113 C29.7050803,15.4240765 31.2287106,14.5211082 32.7511388,13.6205145 C32.7921439,13.5948925 32.8052641,13.5418107 32.7808257,13.5004073 C32.7563874,13.4590038 32.703157,13.4441309 32.6603821,13.4667546 C31.1379539,14.3673483 29.6137226,15.2685356 28.1628179,16.2795515 C27.4782361,16.7544855 26.8098823,17.2579156 26.1691763,17.7922164 C25.4719727,18.3740106 24.8511008,19.098285 24.0655447,19.567876 C23.9663735,19.6272427 24.0571302,19.7815963 24.1563014,19.7216359 L24.1587056,19.7216359 Z" id="Path" fill="#6C63FF"></path>
                        <path d="M35.0789574,10.8552111 C34.2976085,10.9335752 33.4561559,11.1300792 32.9753258,11.8050792 C32.5600089,12.385686 32.5690244,13.3984828 32.9590978,13.9945251 C33.4020625,14.6718997 34.3072251,14.6962401 35.0104391,14.4771768 C35.713653,14.2581135 36.4415096,13.8740106 36.4348981,13.0440633 C36.4312919,12.5988127 36.2684107,12.1351583 36.0887005,11.7314644 C35.9336328,11.3829815 35.6589586,11.0784301 35.2430406,11.1170185 C35.1282424,11.1277045 35.1270404,11.3058047 35.2430406,11.2951187 C35.8002025,11.2440633 35.9793117,11.8976913 36.1115399,12.3102902 C36.2317474,12.6955805 36.3429394,13.1515172 36.1542136,13.5344327 C35.9654878,13.9173483 35.5105023,14.1126649 35.121631,14.2527704 C34.7009047,14.403562 34.2387068,14.4955805 33.7993483,14.371504 C32.9290459,14.1310686 32.6886309,13.0416887 32.9392636,12.2687335 C33.2277616,11.3782322 34.2495255,11.1164248 35.0819625,11.0333113 C35.1961597,11.0220317 35.1973618,10.8439314 35.0819625,10.8552111 L35.0789574,10.8552111 Z" id="Path" fill="#6C63FF"></path>
                        <path d="M36.2810325,17.7417546 C35.4996837,17.8201187 34.6582311,18.0166227 34.177401,18.6916227 C33.762084,19.2722296 33.7710996,20.2850264 34.161173,20.8810686 C34.6041377,21.5584433 35.5093003,21.5827836 36.2125142,21.3637203 C36.9157282,21.144657 37.6435847,20.7605541 37.6369733,19.9306069 C37.6333671,19.4853562 37.4704859,19.0217018 37.2907757,18.6180079 C37.135708,18.2695251 36.8610338,17.9649736 36.4451158,18.003562 C36.3303176,18.014248 36.3291155,18.1923483 36.4451158,18.1816623 C37.0022776,18.1306069 37.1813868,18.7842348 37.3136151,19.1968338 C37.4338226,19.582124 37.5450146,20.0380607 37.3562888,20.4209763 C37.167563,20.8038918 36.7125775,20.9992084 36.3237062,21.139314 C35.9029799,21.2901055 35.440782,21.382124 35.0014235,21.2580475 C34.1311211,21.0176121 33.8907061,19.9282322 34.1413387,19.155277 C34.4298368,18.2647757 35.4516007,18.0029683 36.2840377,17.9198549 C36.3982348,17.9085752 36.3994369,17.7304749 36.2840377,17.7417546 L36.2810325,17.7417546 Z" id="Path" fill="#6C63FF"></path>
                        <path d="M33.9003227,12.589314 L34.4695053,13.2304749 C34.4924234,13.2523214 34.5252585,13.2607027 34.556023,13.2525589 C34.5867876,13.2444151 34.6109787,13.2209382 34.6197646,13.1906992 C34.7399722,12.8784301 34.7171327,12.5548813 34.7453815,12.2265831 C34.7765295,11.8872651 34.86278,11.555113 35.0008225,11.242876 C35.2781216,10.6095712 35.7482783,10.0773262 36.3459446,9.72011873 C36.4451158,9.66075198 36.3543591,9.50639842 36.2551879,9.56635884 C35.6658764,9.91686832 35.1931161,10.4298469 34.8950399,11.0422164 C34.7491265,11.3402044 34.6478928,11.6575801 34.5945211,11.9843668 C34.5344173,12.369657 34.5891117,12.7733509 34.4448627,13.1432058 L34.5957231,13.1034301 L34.0295457,12.4634565 C33.9526129,12.3773747 33.825794,12.5038259 33.9021258,12.589314 L33.9003227,12.589314 Z" id="Path" fill="#6C63FF"></path>
                        <path d="M24.4490067,20.4156332 C27.5491585,20.3222296 30.6501118,20.3024406 33.7518664,20.3562665 C33.8678666,20.3562665 33.8678666,20.1781662 33.7518664,20.1781662 C30.6509132,20.1235488 27.5499599,20.1433377 24.4490067,20.237533 C24.3330065,20.241095 24.3324054,20.4191953 24.4490067,20.4156332 Z" id="Path" fill="#6C63FF"></path>
                        <path d="M34.3997849,18.6595646 C35.4595677,19.0704055 36.4789863,19.5763487 37.4452423,20.1710422 C37.5438125,20.230409 37.6345692,20.0778364 37.535999,20.0172823 C36.5570146,19.4152454 35.524097,18.903331 34.450272,18.4879947 C34.3426863,18.4458443 34.2958054,18.6180079 34.4027901,18.6595646 L34.3997849,18.6595646 Z" id="Path" fill="#6C63FF"></path>
                        <path d="M36.3243072,17.8527704 C35.2496257,19.0902323 34.6270935,20.6484913 34.5566557,22.2773747 C34.5518474,22.3919525 34.7321587,22.3919525 34.736967,22.2773747 C34.8052432,20.6952577 35.4090627,19.1815374 36.4517272,17.978628 C36.5268569,17.8919525 36.400038,17.7655013 36.3243072,17.8527704 Z" id="Path" fill="#6C63FF"></path>
                        <path d="M12.2858092,19.7691293 L19.0036062,19.6824538 L19.7759395,19.6723615 C19.9147792,19.6723615 20.0536189,19.6676121 20.1924586,19.6670185 C20.3877958,19.6670185 20.519423,19.8273087 20.5158168,20.023219 C20.5068012,20.4387863 20.2423447,20.4239446 19.896147,20.4387863 L19.0613058,20.4761873 L15.6618373,20.6240106 C15.0529862,20.6507256 14.4435341,20.6833773 13.834683,20.7041557 C13.2853347,20.7207784 12.2407314,20.5438654 12.4847526,19.7542876 C12.5184107,19.6444591 12.3447109,19.5975594 12.3104517,19.7067942 C12.1902442,20.0950528 12.4030115,20.489248 12.7456029,20.692876 C13.2318423,20.9813984 13.8725484,20.8834433 14.409275,20.8596966 L18.5828799,20.6726913 L19.5962293,20.6281662 C19.8558775,20.6162929 20.2171011,20.6685356 20.455713,20.5492084 C20.7357965,20.4096966 20.7850816,19.8558047 20.6083766,19.6224934 C20.5176199,19.5037599 20.3901999,19.4930739 20.247754,19.4877309 C19.8739086,19.4734828 19.4934519,19.4978232 19.1190054,19.5025726 L17.0382133,19.5298813 L12.283405,19.589248 C12.1674048,19.589248 12.1674048,19.7673483 12.283405,19.7673483 L12.2858092,19.7691293 Z" id="Path" fill="#6C63FF"></path>
                        <g id="b30eccf6-7cfe-48df-9caa-415a128bd568" transform="translate(38.583118, 13.335034)">
                            <path d="M0.844346566,28.2513775 C0.692885096,28.345177 0.519786272,28.3980134 0.363516502,28.4805332 C0.207246731,28.563053 0.0551842226,28.6871295 0.0107074417,28.8581058 C-0.00588822919,28.9111777 -0.00312341902,28.9683167 0.0185209302,29.0195833 C0.0574054645,29.0814987 0.116912048,29.1281004 0.186811453,29.1513775 C0.828412292,29.4328291 1.55901947,29.4409882 2.20689876,29.1739369 C2.31970348,29.1203808 2.43619333,29.074753 2.55550056,29.0373934 C2.70247802,29.0077868 2.85206928,28.9926731 3.00207148,28.9922746 C3.159738,28.983176 3.31658077,28.9633399 3.47148183,28.9329079 C3.54935028,28.9243459 3.62314542,28.8940779 3.68424913,28.8456388 C3.74000112,28.7821846 3.77351896,28.7026449 3.77981411,28.6188578 C3.850944,28.1563431 3.74369596,27.6843059 3.47929532,27.2961665 C3.44598844,27.2417721 3.40131945,27.1950198 3.34826913,27.1590293 C3.28358653,27.126003 3.21244361,27.1071697 3.13970909,27.1038182 C2.8391903,27.0676045 2.5242466,27.0011137 2.22072263,26.9939897 C2.00314702,26.9892403 1.89375818,27.0913512 1.73989256,27.2391744 C1.42194368,27.5532245 1.23622307,28.0097549 0.844346566,28.2513775 Z" id="Path" fill="#323444"></path>
                            <path d="M5.2733925,28.2074461 C5.2733925,28.4983432 5.30885372,28.8064567 5.48736188,29.0385807 C5.56899604,29.1389533 5.66787107,29.2243579 5.77946614,29.2908894 C6.15691774,29.5283564 6.65698101,29.6156256 7.05486789,29.4143723 C7.11914222,29.3858767 7.17409339,29.3402344 7.21354181,29.2825781 C7.27364557,29.1792799 7.24179057,29.0504541 7.20813247,28.9364699 L6.63233847,26.9654936 C6.26029621,27.0218921 5.71335201,27.0616678 5.38278134,27.2480794 C5.14296734,27.3828419 5.2733925,27.9474198 5.2733925,28.2074461 Z" id="Path" fill="#323444"></path>
                            <path d="M0.506563446,16.0711005 C0.471703266,16.1797417 0.345485374,16.2302034 0.276366052,16.3216282 C0.195225979,16.429082 0.203640505,16.5780926 0.233091346,16.7086994 C0.269471441,16.9012893 0.361048751,17.0795195 0.496946844,17.2222219 C0.636886668,17.3656476 0.838433692,17.4333333 1.03788067,17.4038841 C1.23141477,17.3676704 1.39850322,17.1984752 1.40511463,17.0043459 C1.40162788,16.9160581 1.38250624,16.8290565 1.3486171,16.7472878 L0.938709466,15.5765754 C0.935328867,15.5598369 0.924817996,15.5453454 0.909859662,15.5367997 C0.894391225,15.5334022 0.878190267,15.5361759 0.864781844,15.5445174 C0.768014793,15.5896361 0.573879655,15.6371295 0.517382122,15.736272 C0.46088459,15.8354145 0.547434001,15.9636467 0.506563446,16.0711005 Z" id="Path" fill="#FBB3B2"></path>
                            <path d="M0.314832457,16.0123274 C0.464490815,15.9891744 0.595517008,15.9024989 0.735558764,15.8455068 C0.87560052,15.7885147 1.05110349,15.766549 1.16890686,15.8615359 C1.20256496,15.8888446 1.23502099,15.9262456 1.27889674,15.925652 C1.21921321,15.6353593 1.12896776,15.3520251 1.0096319,15.0802694 C1.00543498,15.0672481 0.99724348,15.0558376 0.986191435,15.0476177 C0.969811041,15.0410502 0.951483634,15.0410502 0.935103241,15.0476177 L0.530604949,15.1521031 C0.380946591,15.1906915 0.363516502,15.1788182 0.374936216,15.3242667 C0.377941403,15.3889765 0.411599508,16.0123274 0.314832457,16.0123274 Z" id="Path" fill="#323444"></path>
                            <path d="M0.270355676,7.55850156 C0.210251918,7.64992636 0.210251918,7.76391053 0.210251918,7.87136435 C0.210251918,8.39676013 0.215661257,8.92512425 0.29439718,9.44517702 C0.313029345,9.5698472 0.33646981,9.69451739 0.348490562,9.82037491 C0.362113794,9.9955712 0.364923836,10.1714243 0.356905088,10.346958 L0.29680133,12.6325781 C0.289588879,12.9121955 0.275163977,13.2125913 0.100262041,13.4322483 C0.0472277987,13.5058828 0.0223140844,13.5956923 0.0299406442,13.6857443 C0.0756195004,14.2592271 0.171785513,14.8279607 0.267350489,15.3949132 C0.579467102,15.2558554 0.940128489,15.2728507 1.23742514,15.4406256 C1.54067302,14.4988155 1.7084003,13.5195805 1.7356853,12.5316546 C1.74950916,12.0454409 1.72847285,11.5562588 1.80420358,11.0759818 C1.93102251,10.2674066 1.87933328,9.43805301 1.78617245,8.62472847 C1.75672161,8.36707675 1.69421371,8.10170736 1.52712526,7.90223506 C1.36895252,7.72770244 1.15829824,7.60785344 0.926087677,7.56028256 C0.703703772,7.50269681 0.504760333,7.56206356 0.270355676,7.55850156 Z" id="Path" fill="#5B5583"></path>
                            <path d="M0.270355676,7.55850156 C0.210251918,7.64992636 0.210251918,7.76391053 0.210251918,7.87136435 C0.210251918,8.39676013 0.215661257,8.92512425 0.29439718,9.44517702 C0.313029345,9.5698472 0.33646981,9.69451739 0.348490562,9.82037491 C0.362113794,9.9955712 0.364923836,10.1714243 0.356905088,10.346958 L0.29680133,12.6325781 C0.289588879,12.9121955 0.275163977,13.2125913 0.100262041,13.4322483 C0.0472277987,13.5058828 0.0223140844,13.5956923 0.0299406442,13.6857443 C0.0756195004,14.2592271 0.171785513,14.8279607 0.267350489,15.3949132 C0.579467102,15.2558554 0.940128489,15.2728507 1.23742514,15.4406256 C1.54067302,14.4988155 1.7084003,13.5195805 1.7356853,12.5316546 C1.74950916,12.0454409 1.72847285,11.5562588 1.80420358,11.0759818 C1.93102251,10.2674066 1.87933328,9.43805301 1.78617245,8.62472847 C1.75672161,8.36707675 1.69421371,8.10170736 1.52712526,7.90223506 C1.36895252,7.72770244 1.15829824,7.60785344 0.926087677,7.56028256 C0.703703772,7.50269681 0.504760333,7.56206356 0.270355676,7.55850156 Z" id="Path" fill="#000000" opacity="0.1"></path>
                            <path d="M1.0048236,14.1867997 C0.601722347,16.2271932 0.821807774,18.3398943 1.63711513,20.2564567 C1.70755372,20.3983335 1.75694481,20.5494884 1.7837683,20.7052694 C1.81682537,20.9961665 1.68099088,21.2757839 1.60345703,21.5571823 C1.42314576,22.1971559 1.52712526,22.8786863 1.64252447,23.5335016 C1.69060748,23.8065886 1.74009291,24.0794778 1.79098076,24.3521691 C1.84086687,24.6181322 1.88894988,24.9072483 1.76393406,25.1482773 C1.87151979,25.5911533 1.93522977,26.0298736 2.0428155,26.4727496 C2.05422206,26.5077899 2.05770987,26.5448747 2.05303314,26.5813907 C2.03135475,26.6393452 1.99315377,26.6898615 1.94304326,26.7268393 C1.77989949,26.8902182 1.71615253,27.1265073 1.77535378,27.3484092 C2.05002795,27.1536863 2.43288889,27.221958 2.74663051,27.3484092 C3.06037213,27.4748604 3.36930544,27.645243 3.70829064,27.645243 C3.65900556,27.2522351 3.61152359,26.8396361 3.75817676,26.4709686 C3.84352409,26.2572483 3.99378349,26.0554013 3.98957623,25.8268393 C3.98536896,25.622024 3.85855003,25.4391744 3.82789712,25.2367337 C3.81650484,25.1107805 3.82135192,24.9839082 3.84232202,24.8591612 C3.92286105,24.1325121 3.83150334,23.398739 3.74014563,22.6732773 C3.72981628,22.5302183 3.69570156,22.3898167 3.63917132,22.25771 C3.59649765,22.1722219 3.53278766,22.0902958 3.53398974,21.9947153 C3.53398974,21.8836994 3.62474641,21.793462 3.65840452,21.6877892 C3.71850828,21.4930662 3.60791736,21.2282905 3.77440477,21.107776 C4.21316221,20.7895702 4.04487168,20.0296757 4.03525508,19.4924066 C4.02764194,19.0289501 4.00760735,18.5658894 3.97515132,18.1032245 C4.25139949,18.8704558 4.36434672,19.6857495 4.30692407,20.4980794 C4.28769087,20.7640425 4.25222965,21.0436599 4.35741123,21.2894382 C4.43795026,21.4782245 4.59782626,21.6337654 4.64110096,21.8338314 C4.66814765,21.9573142 4.64891445,22.0849527 4.65492483,22.2108103 C4.6609352,22.3366678 4.70420991,22.473805 4.81419979,22.5373274 C4.82261431,23.1096229 4.87430354,23.7216942 4.88331911,24.2939897 C4.87747147,24.5865459 4.90163628,24.8789349 4.95544362,25.166681 C4.98242001,25.2582095 4.99736819,25.3527846 4.9999204,25.4480794 C4.98636366,25.5675653 4.9543368,25.6842913 4.90495646,25.7941876 C4.6922749,26.416194 4.80478012,27.1018393 5.20547525,27.625652 C5.34732012,27.3769052 5.64303061,27.2451111 5.93152865,27.2243327 C6.22002669,27.2035543 6.5049185,27.2753881 6.78440098,27.3478155 C6.74167012,27.0009491 6.81154167,26.649639 6.98394545,26.3445174 C7.03016576,26.275756 7.06562489,26.2005037 7.08912703,26.1212984 C7.12158306,25.9705068 7.04585232,25.8203089 7.00498177,25.6712984 C6.9382666,25.4338314 6.96170706,25.1779607 6.97733404,24.9298076 C7.0297816,24.0987092 6.9925076,23.2644572 6.86614209,22.4411533 C6.84662955,22.2789843 6.80810514,22.1196041 6.75134391,21.9662192 C6.72970656,21.9116018 6.7032609,21.8593591 6.68522977,21.804148 C6.65686499,21.7051117 6.6407203,21.6030527 6.63714677,21.5001902 L6.56802745,20.5503221 C6.5193434,19.8848208 6.74052523,19.2276308 6.89499189,18.5781585 C6.96411121,18.2872614 7.03924091,17.996958 7.0855208,17.7013116 C7.14862975,17.298805 7.15884739,16.8873934 7.25140718,16.4902298 C7.33435036,16.1340293 7.48400872,15.7867337 7.51526267,15.4216282 C7.56334568,14.855863 7.3253348,14.3090952 7.09453637,13.7902298 C6.99837035,13.5765095 6.63474262,13.5978815 6.400939,13.5598868 C4.74267631,13.2909554 2.9960611,13.2891744 1.43216132,13.8953089 C1.27042838,13.9614924 1.12476939,14.0608477 1.0048236,14.1867997 Z" id="Path" fill="#3C354C"></path>
                            <path d="M2.20028735,3.64979443 L2.38420485,4.35625881 C2.43420385,4.51828139 2.4618998,4.68621337 2.466547,4.85553322 C2.46844645,4.9172952 2.45459907,4.97853811 2.42627748,5.03363348 C2.3960095,5.07887676 2.35724483,5.11797218 2.31208034,5.14880499 C2.18646348,5.24319813 2.09931303,5.46344878 1.95566505,5.52875222 C2.02959268,5.65579707 2.13176906,5.57327728 2.26519941,5.63679971 C2.5002051,5.74959654 2.71537655,5.91166778 2.97021649,5.96747253 C3.21063152,6.01971528 3.4630673,5.97044087 3.70167922,5.90810578 C4.04006338,5.81727464 4.37664443,5.69201079 4.64891445,5.47294747 C4.92118448,5.25388414 5.07625217,5.06034852 5.07505703,4.71424034 C4.77453131,4.74926673 4.50706958,4.44946462 4.37424028,4.17993955 C4.32818569,4.07748634 4.29430175,3.9701084 4.27326596,3.85995274 L4.11218789,3.16001871 C3.93668492,3.19801343 3.79363797,3.32208995 3.62594849,3.38679971 C3.458259,3.45150947 3.2599166,3.45744615 3.07359495,3.46575749 C2.74285501,3.48061633 2.41394758,3.52271495 2.09029747,3.59161501 C2.04582069,3.60052003 1.98992419,3.6284224 2.00074287,3.67116646" id="Path" fill="#FBB3B2"></path>
                            <path d="M2.20028735,3.64979443 L2.38420485,4.35625881 C2.43420385,4.51828139 2.4618998,4.68621337 2.466547,4.85553322 C2.46844645,4.9172952 2.45459907,4.97853811 2.42627748,5.03363348 C2.3960095,5.07887676 2.35724483,5.11797218 2.31208034,5.14880499 C2.18646348,5.24319813 2.09931303,5.46344878 1.95566505,5.52875222 C2.02959268,5.65579707 2.13176906,5.57327728 2.26519941,5.63679971 C2.5002051,5.74959654 2.71537655,5.91166778 2.97021649,5.96747253 C3.21063152,6.01971528 3.4630673,5.97044087 3.70167922,5.90810578 C4.04006338,5.81727464 4.37664443,5.69201079 4.64891445,5.47294747 C4.92118448,5.25388414 5.07625217,5.06034852 5.07505703,4.71424034 C4.77453131,4.74926673 4.50706958,4.44946462 4.37424028,4.17993955 C4.32818569,4.07748634 4.29430175,3.9701084 4.27326596,3.85995274 L4.11218789,3.16001871 C3.93668492,3.19801343 3.79363797,3.32208995 3.62594849,3.38679971 C3.458259,3.45150947 3.2599166,3.45744615 3.07359495,3.46575749 C2.74285501,3.48061633 2.41394758,3.52271495 2.09029747,3.59161501 C2.04582069,3.60052003 1.98992419,3.6284224 2.00074287,3.67116646" id="Path" fill="#000000" opacity="0.1"></path>
                            <ellipse id="Oval" fill="#FBB3B2" cx="2.99005073" cy="2.46720868" rx="1.59154751" ry="1.57203166"></ellipse>
                            <path d="M3.42820713,5.05856752 C3.51331983,4.87700174 3.63619422,4.71517818 3.78882967,4.58363348 C4.01301669,4.38950419 4.31954586,4.23218229 4.37243716,3.94247253 L4.85807553,4.50111369 C4.88446785,4.52701732 4.90495888,4.55818655 4.91817929,4.59253849 C4.93056695,4.6577074 4.91392121,4.72498829 4.87250043,4.7771691 C4.75229292,4.96654905 4.56296608,5.10190525 4.38385688,5.23904245 C3.97332825,5.5602343 3.58030082,5.90266591 3.20642426,6.26489997 C3.1899495,6.28379678 3.16786921,6.29709021 3.14331531,6.3028947 C3.12008589,6.30352331 3.09722009,6.29709994 3.07780222,6.284491 C2.7552219,6.11719331 2.4697474,5.88790025 2.23815272,5.61008467 C2.22072263,5.5893063 2.19908527,5.5655596 2.17083651,5.56734061 C2.15380388,5.57043004 2.13810118,5.57849531 2.12575869,5.59049364 C1.96407958,5.7211005 1.78737453,5.87723506 1.58001656,5.85705037 C1.84868036,5.66648309 2.00074287,5.34827728 2.0572404,5.0259158 C2.06841247,4.9155852 2.09137992,4.80673307 2.12575869,4.70117966 C2.16192883,4.59393756 2.24983781,4.51155942 2.36016334,4.48152266 C2.22913715,4.67921396 2.31869175,4.95942504 2.49479576,5.11912161 C2.66589663,5.26257167 2.87103403,5.36081881 3.09102504,5.4046757 C3.29537782,5.44267042 3.35548158,5.21410842 3.42820713,5.05856752 Z" id="Path" fill="#323444"></path>
                            <path d="M1.35763266,14.3482773 C1.58422383,14.4034884 1.79879424,14.4972878 2.018774,14.5667469 C2.41970266,14.6907654 2.84164572,14.7345615 3.2599166,14.6955728 C3.38865686,14.6927831 3.51385746,14.6534163 3.62053915,14.5821823 C3.64878792,14.5596229 3.67463253,14.5329079 3.70468441,14.5121295 C3.75495294,14.4823308 3.80944785,14.4601198 3.86636352,14.4462324 C4.41751498,14.2758498 4.87911185,13.9083696 5.32688484,13.5486071 C5.34130974,13.5367337 5.35753776,13.5218921 5.35633568,13.5028947 C5.35426835,13.4899594 5.34792897,13.4780623 5.33830456,13.4690556 L5.10269783,13.2019052 C4.48483119,13.3057971 3.85193862,13.266615 3.22505642,13.2511797 C3.09635452,13.2455345 2.96740937,13.2489071 2.8391903,13.261272 C2.71537655,13.27552 2.59336593,13.3063907 2.4713553,13.3325121 C2.00795532,13.4322483 1.53433771,13.470243 1.06492736,13.5355464 C1.03208686,13.5379393 1.00022857,13.5476841 0.971766533,13.5640425 C0.951972773,13.5791635 0.93507785,13.5976608 0.921880414,13.6186599 L0.757196117,13.8472219 C0.693273681,13.9241036 0.64620147,14.0132527 0.618957473,14.1090293 C0.580491068,14.2871295 0.661030104,14.3464963 0.814294687,14.3233432 C0.995350522,14.2971652 1.17981414,14.3056304 1.35763266,14.3482773 L1.35763266,14.3482773 Z" id="Path" fill="#323444"></path>
                            <path d="M3.19981284,5.99300024 C3.01594885,5.80690535 2.80751338,5.64615552 2.5801431,5.51509786 C2.48828396,5.45746918 2.3863803,5.41720755 2.27962431,5.39636435 C2.17089636,5.37516406 2.05824265,5.40254749 1.97189307,5.47116646 C1.91840072,5.5180662 1.88474262,5.58336963 1.83305339,5.63264404 C1.76800401,5.68662377 1.69342893,5.72828429 1.61307363,5.75553322 C1.33947481,5.87100427 1.08014476,6.01700584 0.840139303,6.19069153 C0.709311554,6.28108717 0.591444431,6.38852273 0.489734393,6.51008467 C0.217464369,6.85441185 0.176593814,7.32281554 0.183806265,7.75975485 C0.189215603,8.06371264 0.484325055,8.2893063 0.687475757,8.51668097 C0.87801267,8.74042889 1.05044093,8.97863016 1.203166,9.22908203 C1.31255484,9.40005828 1.42675198,9.58528256 1.41292812,9.78891053 C1.4015084,9.95573111 1.30293824,10.1124593 1.31856522,10.2786863 C1.32397456,10.338053 1.34320776,10.3926704 1.3486171,10.4502562 C1.35943577,10.5689897 1.3119538,10.6877232 1.29993305,10.8064567 C1.28370504,10.9744646 1.33900049,11.1412852 1.34200568,11.3104804 C1.33979947,11.4263092 1.32488675,11.5415603 1.2975289,11.654214 C1.18212969,12.1968261 1.03727963,12.7424066 1.06673047,13.2962984 L0.733755651,13.3556651 C0.797726547,13.4175918 0.82801361,13.5059095 0.815313102,13.5934884 C0.802612593,13.6810674 0.748443077,13.7574359 0.66944463,13.7991348 C1.18934214,13.9707047 1.75131228,13.8840293 2.30246374,13.8834356 C2.75865126,13.8834356 3.21303567,13.9428023 3.66862216,13.934491 C4.12420864,13.9261797 4.59422003,13.8448472 4.96986852,13.5901638 C5.07204491,13.5212984 5.16580677,13.4405596 5.2733925,13.3805992 C5.41749923,13.3068368 5.57279018,13.2567105 5.73318625,13.2321823 C6.03029254,13.1762136 6.33229713,13.1495653 6.63474262,13.1526308 C6.78259786,13.1526308 6.94367593,13.1585675 7.0614793,13.0707047 C7.19130342,12.9733432 7.22436048,12.797024 7.24179057,12.6373274 C7.25922066,12.4687258 7.27003934,12.2995306 7.27304453,12.1303353 C7.27808308,11.9985792 7.27104227,11.8666429 7.25200821,11.7361401 C7.2339661,11.6407137 7.21048834,11.5463685 7.18168682,11.4535543 L6.95509565,10.6651638 C6.86133379,10.339834 6.99175894,9.98303981 7.01940667,9.64583665 C7.02601808,9.5662852 7.02722016,9.47367306 6.96531329,9.42261765 C6.9430749,9.40421396 6.91242198,9.39174694 6.90520953,9.3632509 C6.89866392,9.33590465 6.90388668,9.30710181 6.91963443,9.28369944 C7.03984195,9.04623243 7.22015322,8.83666778 7.38483752,8.6223538 C7.66143658,8.24642997 7.91822042,7.85666414 8.15416562,7.45460973 C8.0802773,6.61329 7.72160429,5.82108616 7.13600796,5.20579707 C7.01580044,5.07697121 6.87816284,4.95348836 6.70987232,4.89530894 C6.59989627,4.86213283 6.4858461,4.84395676 6.37088712,4.8412852 C5.89967366,4.80982082 5.40922699,4.78191844 4.99871832,4.54801343 C4.96925759,4.52785657 4.93590773,4.51391226 4.9007492,4.50705037 C4.80999252,4.49695802 4.74387839,4.58541448 4.68497671,4.65546725 C4.53351524,4.83356752 4.31053029,4.93567834 4.11459204,5.06687886 C3.74916119,5.31206356 3.46366834,5.64926673 3.19981284,5.99300024 Z" id="Path" fill="#5B5583"></path>
                            <path d="M8.19503618,7.69741976 C8.28879804,7.99069153 8.27978248,8.30414799 8.31043539,8.60988678 C8.32858958,8.79438959 8.36134612,8.97720456 8.40840452,9.15665459 C8.42988996,9.25528696 8.46852802,9.34949245 8.52260166,9.43508467 C8.57669504,9.51344878 8.65422889,9.57697121 8.68848803,9.66542768 C8.70721487,9.72535547 8.71554652,9.78797985 8.71313057,9.85065195 L8.72034302,10.2602826 C8.73577207,10.4773544 8.70231379,10.6951063 8.6223739,10.8978815 L8.3633267,11.6761797 C8.22328494,12.0976836 8.07963696,12.5257179 7.82720118,12.8926045 C7.79163638,12.9546983 7.73775255,13.0046079 7.67273452,13.0356783 C7.6218325,13.0489683 7.56965531,13.0569277 7.51706579,13.059425 C7.32804849,13.0927252 7.18959056,13.2538979 7.18709615,13.4435279 C7.12695019,13.356718 7.05189089,13.2809717 6.96531329,13.2197153 L6.43820333,12.804148 C6.25789206,12.6592931 6.06976729,12.5120636 5.85098961,12.4283564 C6.45216429,12.2429132 6.8861654,11.7248675 6.95810084,11.1068525 C6.95790887,11.0167961 6.97846211,10.9278768 7.01820459,10.8468261 C7.06208034,10.7767733 7.14322041,10.7233432 7.14923079,10.6408235 C7.15644324,10.5369316 7.0374378,10.4585675 7.0374378,10.3546757 C7.0374378,10.2858103 7.08912703,10.2288182 7.11196646,10.1641084 C7.13331339,10.0841425 7.13331339,10.0000769 7.11196646,9.92011105 L7.03924091,9.52116646 C7.03495354,9.48119336 7.02269721,9.44245402 7.00317866,9.40718229 C6.97596646,9.37336772 6.94579855,9.34198051 6.91302302,9.31338282 C6.7880072,9.17505828 6.84330266,8.95718229 6.91302302,8.78679971 C7.07312652,8.40860034 7.27940801,8.05113714 7.52728343,7.7223538 C7.6155147,7.61194774 7.69719246,7.49658274 7.77190572,7.37683929 C7.8356157,7.26760446 7.85004061,7.11621923 7.91735682,7.02063876 C8.00390623,7.24504509 8.12110856,7.46648309 8.19503618,7.69741976 Z" id="Path" fill="#5B5583"></path>
                            <path d="M5.83235745,12.4526968 C5.80553011,12.4723635 5.78234896,12.4964655 5.76383916,12.5239369 C5.69302465,12.6117485 5.59869585,12.6781825 5.49156914,12.7156915 C5.5516729,12.7584356 5.60636732,12.800586 5.66286485,12.8439237 C6.08088604,13.1628 6.46366371,13.5243677 6.80483625,13.9226177 C6.84270162,13.7890425 7.06929279,13.7985411 7.12458825,13.6709026 C7.13761023,13.6343694 7.14172855,13.5953183 7.136609,13.5569184 C7.12512483,13.3569363 7.09616732,13.1583084 7.05005959,12.9632509 C7.03186061,12.8628269 6.99075258,12.7678137 6.92985207,12.6854145 C6.84570681,12.5850847 6.71468062,12.5369976 6.5896648,12.4954409 C6.40033796,12.4301374 6.02468947,12.338119 5.83235745,12.4526968 Z" id="Path" fill="#323444"></path>
                            <path d="M5.08106047,12.9193195 C4.9007492,13.0511137 4.74267631,13.2161533 4.54012665,13.3063907 C4.39707971,13.3705068 4.23419852,13.3984092 4.1091827,13.4939897 C4.17709995,13.6418129 4.353805,13.718396 4.51788826,13.7124593 C4.68212132,13.6965244 4.83953586,13.6395203 4.97527786,13.5468261 C5.08286358,13.4815227 5.20908148,13.4055332 5.32628381,13.4512456 C5.34431493,13.5414831 5.26618005,13.6263775 5.26618005,13.7178023 C5.26618005,13.8092271 5.34311286,13.8757179 5.41884359,13.923805 C5.77946614,14.1535543 6.24346715,14.134557 6.67320902,14.1078419 C6.69786183,14.1087469 6.7221371,14.1016578 6.74232835,14.0876572 C6.76114584,14.0659672 6.77044558,14.0377692 6.76817296,14.0092931 C6.7735823,13.9154936 6.77598645,13.8222878 6.77658749,13.7284884 C6.80139027,13.5740809 6.73342902,13.4194553 6.60228659,13.3319184 C6.36908228,13.1339112 6.11754255,12.9580049 5.85098961,12.8065227 C5.58653308,12.6551374 5.31847032,12.7447812 5.08106047,12.9193195 Z" id="Path" fill="#FBB3B2"></path>
                            <path d="M3.54901568,1.81006198 C3.28215499,1.84186198 3.08801985,2.05006198 3.11506655,2.27626198 C3.14211324,2.50246198 3.38012412,2.65846198 3.6469848,2.62606198 C3.91384549,2.59366198 4.10798063,2.38606198 4.08093394,2.16046198 C4.05388725,1.93486198 3.81587636,1.77826198 3.54901568,1.81006198 Z M3.63977235,2.56366198 C3.41378222,2.59066198 3.21243463,2.45806198 3.18899417,2.26726198 C3.1655537,2.07646198 3.33083904,1.90006198 3.55622813,1.87306198 C3.78161722,1.84606198 3.98356585,1.97866198 4.00700632,2.16946198 C4.03044678,2.36026198 3.86516145,2.53666198 3.63977235,2.56366198 L3.63977235,2.56366198 Z" id="Shape" fill="#3C354C"></path>
                            <path d="M2.24837035,1.96441581 C1.98150967,1.99621581 1.78737453,2.20441581 1.81442122,2.43001581 C1.84146791,2.65561581 2.07947879,2.81221581 2.34633948,2.78041581 C2.61320017,2.74861581 2.8073353,2.54041581 2.78028861,2.31421581 C2.75324192,2.08801581 2.51523104,1.93261581 2.24837035,1.96441581 Z M2.33912703,2.71741581 C2.1131369,2.74441581 1.91178931,2.61181581 1.88894988,2.42161581 C1.86611045,2.23141581 2.03019371,2.05441581 2.25618384,2.02681581 C2.48217397,1.99921581 2.68352156,2.13241581 2.70636099,2.32321581 C2.72920042,2.51401581 2.56451612,2.69041581 2.33912703,2.71741581 Z" id="Shape" fill="#3C354C"></path>
                            <polygon id="Path" fill="#3C354C" points="1.28250296 2.0789501 1.86250423 2.20124562 1.80540566 2.35203718 1.25846146 2.19352794"></polygon>
                            <polygon id="Path" fill="#3C354C" points="4.51548411 1.69544087 3.98056066 1.95012425 4.07251941 2.08310578 4.56597127 1.80111369"></polygon>
                            <polygon id="Path" fill="#3C354C" points="2.72679627 2.1632509 3.13369871 2.11516382 3.1126624 2.21489997 2.76345956 2.23805301"></polygon>
                            <path d="M1.93763393,2.02848836 C1.97592114,1.94714956 1.99640182,1.85874645 1.99773768,1.76905565 C1.99916301,1.71537243 2.00847617,1.66217845 2.02538541,1.61114008 C2.05493008,1.54631877 2.09987823,1.48949878 2.1564116,1.44550683 C2.34393533,1.2887786 2.61259913,1.20803981 2.8776567,1.19676013 C3.16667118,1.1836267 3.45417151,1.24500457 3.71189686,1.37486039 C3.79062255,1.41129318 3.8611367,1.46297513 3.91925483,1.52683929 C4.00340009,1.62835644 4.02143122,1.75955696 4.10617752,1.85988678 C4.22381299,1.98370634 4.3984375,2.03774808 4.5665723,2.00236699 C4.59602314,1.89906884 4.55755674,1.78983401 4.57258268,1.68416119 C4.59626537,1.59361351 4.62825263,1.50538589 4.66814765,1.4205728 C4.76130848,1.14926673 4.62547399,0.834622927 4.34539047,0.672551687 C4.24742135,0.613184933 4.13142109,0.574596542 4.05809451,0.494451424 C3.98476793,0.414306305 3.96733784,0.331192848 3.91685068,0.25104773 C3.7828193,0.0391084156 3.43602061,-0.0600340646 3.17216512,0.0379210805 C3.08922193,0.0687917929 3.01589534,0.115691529 2.93175008,0.148936912 C2.77548031,0.212459339 2.59757319,0.223739022 2.42567644,0.245111054 C2.25624272,0.260583509 2.09054428,0.303505882 1.93522977,0.372155909 C1.78677349,0.44458335 1.66235871,0.560942189 1.62809957,0.699860394 C1.61187156,0.763976489 1.61547778,0.830467255 1.59924977,0.893989682 C1.51630658,1.21635116 0.980782097,1.37307939 0.950730218,1.70197121 C0.939911541,1.82070472 1.00542464,1.93468889 1.08716575,2.0314567 C1.14366328,2.0973538 1.27889674,2.27367306 1.37446171,2.29920076 C1.47002669,2.32472847 1.54275223,2.23508467 1.63410995,2.20421396 C1.77835897,2.15968889 1.86550942,2.15019021 1.93763393,2.02848836 Z" id="Path" fill="#CBCEDA"></path>
                        </g>
                        <path d="M47.3010566,36.2730871 C47.3010566,39.2556728 49.195527,41.6695251 51.5365684,41.6695251" id="Path" fill="#46455B"></path>
                        <path d="M51.5365684,41.6701187 C51.5365684,38.6536939 53.6510186,36.2131266 56.263729,36.2131266" id="Path" fill="#6C63FF"></path>
                        <path d="M48.8361065,36.5437995 C48.8361065,39.3773747 50.0441921,41.6701187 51.5365684,41.6701187" id="Path" fill="#6C63FF"></path>
                        <path d="M51.5365684,41.6701187 C51.5365684,37.816029 53.9803872,34.6968997 57,34.6968997" id="Path" fill="#46455B"></path>
                        <ellipse id="Oval" fill="#6C63FF" opacity="0.1" cx="51.3532519" cy="42.525" rx="1.05301784" ry="1"></ellipse>
                        <path d="M50.6458307,41.7081135 C50.6458307,41.7081135 51.2468683,41.6897098 51.4271796,41.5626649 C51.6074908,41.4356201 52.3509743,41.2830475 52.3960521,41.4872691 C52.44113,41.6914908 53.2976085,42.5030343 52.6202391,42.5083773 C51.9428698,42.5137203 51.0443186,42.4038918 50.8640073,42.2952507 C50.6836961,42.1866095 50.6458307,41.7081135 50.6458307,41.7081135 Z" id="Path" fill="#A8A8A8"></path>
                        <path d="M52.6328609,42.4371372 C51.9548905,42.4424802 51.0575414,42.3326517 50.8766291,42.2240106 C50.7389915,42.1414908 50.6842971,41.8440633 50.6656649,41.7075198 L50.6458307,41.7075198 C50.6458307,41.7075198 50.6836961,42.1860158 50.8646084,42.294657 C51.0455207,42.4032982 51.9428698,42.5131266 52.6208402,42.5077836 C52.8167784,42.5077836 52.8840946,42.4371372 52.8804884,42.3356201 C52.8534417,42.3973615 52.7819183,42.4359499 52.6328609,42.4371372 Z" id="Path" fill="#000000" opacity="0.2"></path>
                        <path d="M1.35173352,38.016095 C1.35173352,40.3907652 2.85853473,42.3094987 4.7211502,42.3094987" id="Path" fill="#46455B"></path>
                        <path d="M4.7211502,42.3094987 C4.7211502,39.9098945 6.40405542,37.9680079 8.48184234,37.9680079" id="Path" fill="#6C63FF"></path>
                        <path d="M2.57244085,38.23219 C2.57244085,40.4881266 3.53410097,42.310686 4.7211502,42.310686" id="Path" fill="#6C63FF"></path>
                        <path d="M4.7211502,42.3094987 C4.7211502,39.2432058 6.66550677,36.7616755 9.06785398,36.7616755" id="Path" fill="#46455B"></path>
                        <ellipse id="Oval" fill="#6C63FF" opacity="0.1" cx="4.57509806" cy="42.9898417" rx="1" ry="1"></ellipse>
                        <path d="M4.01252689,42.3397757 C4.01252689,42.3397757 4.49035177,42.324934 4.63399975,42.2210422 C4.77764773,42.1171504 5.36966975,41.9984169 5.40513096,42.1616755 C5.44059218,42.324934 6.12337087,42.969657 5.58544224,42.9738127 C5.0475136,42.9779683 4.33167784,42.8906992 4.18802986,42.8046174 C4.04438188,42.7185356 4.01252689,42.3397757 4.01252689,42.3397757 Z" id="Path" fill="#A8A8A8"></path>
                        <path d="M5.59325573,42.9221636 C5.0523219,42.9263193 4.33949133,42.8390501 4.19584335,42.7523747 C4.08645451,42.6870712 4.04317981,42.4501979 4.02815387,42.3415567 L4.01252689,42.3415567 C4.01252689,42.3415567 4.04257877,42.7220976 4.18622675,42.8087731 C4.32987473,42.8954485 5.04450841,42.982124 5.58363912,42.9779683 C5.73930786,42.9779683 5.79340124,42.9221636 5.79039605,42.8408311 C5.7687587,42.8883245 5.70925598,42.9186016 5.59325573,42.9221636 Z" id="Path" fill="#000000" opacity="0.2"></path>
                    </g>
                </g>
            </g>
        </g>
    </g>
</svg>