<?xml version="1.0" encoding="UTF-8"?>
<svg width="255px" height="255px" viewBox="0 0 255 255" version="1.1" xmlns="http://www.w3.org/2000/svg" xmlns:xlink="http://www.w3.org/1999/xlink">
    <title>Group 2</title>
    <defs>
        <linearGradient x1="50.0472883%" y1="100.314409%" x2="48.7673782%" y2="0.0523021077%" id="linearGradient-1">
            <stop stop-color="#808080" stop-opacity="0.25" offset="0%"></stop>
            <stop stop-color="#808080" stop-opacity="0.12" offset="54%"></stop>
            <stop stop-color="#808080" stop-opacity="0.1" offset="100%"></stop>
        </linearGradient>
    </defs>
    <g id="Page-1" stroke="none" stroke-width="1" fill="none" fill-rule="evenodd">
        <g id="Mining-Provider-Windows-Onboarding-Steps-02-Alt" transform="translate(-534.000000, -426.000000)">
            <g id="Mining-app-design" transform="translate(320.000000, 160.000000)">
                <g id="Group-2" transform="translate(214.000000, 266.000000)">
                    <circle id="Oval" fill="#FFFFFF" cx="127.5" cy="127.5" r="127.5"></circle>
                    <g id="undraw_ethereum_desire_wy1b" transform="translate(23.000000, 54.000000)">
                        <path d="M13.2246039,32.2089488 C13.2246039,32.2089488 50.4117894,63.1792453 63.0753495,81.8408086 C75.7389096,100.502372 107.700373,97.3269542 107.700373,97.3269542" id="Path" stroke="#5D596A" stroke-width="0.6" opacity="0.5"></path>
                        <path d="M160.598788,143.131159 C160.356337,142.101941 159.695107,141.734933 158.238397,141.910458 C156.655452,142.109919 155.074511,142.295418 153.13891,140.939084 C152.113001,140.221024 151.315517,139.586739 150.788537,139.143935 L150.874697,139.121995 C150.874697,139.121995 146.953402,134.237197 147.203868,131.424798 C147.454334,128.612399 145.380475,121.348032 145.380475,121.348032 C145.380475,121.348032 145.268267,116.602857 144.178239,113.848302 C143.886056,113.125902 143.664619,112.37711 143.517008,111.612345 C142.871808,108.137736 140.928192,98.9525606 137.778332,94.903504 L137.577959,86.8073854 L137.577959,86.4962264 L137.660112,86.5780054 C137.954546,86.2649351 138.19187,85.9031439 138.361417,85.5088949 C139.285135,85.9816173 141.276841,86.9609704 142.354846,87.1704043 C143.789515,87.447655 145.560811,88.6523989 145.560811,88.6523989 C145.560811,88.6523989 149.638397,93.3836119 152.762209,91.2872776 C155.886021,89.1909434 146.921342,85.8180593 146.921342,85.8180593 C146.921342,85.8180593 143.867661,84.176496 142.589282,83.7396765 C141.683597,83.4305121 139.802097,82.2078167 138.782199,81.5196765 C138.764834,81.4093082 138.744797,81.2969452 138.722088,81.1825876 C138.132992,78.1467925 137.271389,76.9939084 137.628052,75.1209704 C137.725448,74.6412323 137.873893,74.1731841 138.070876,73.7247439 C139.273113,70.8943935 134.263793,66.9630189 134.263793,66.9630189 C134.263793,66.9630189 130.857456,64.0847978 132.09576,62.4990836 C132.09576,62.4990836 133.995294,62.2996226 132.372274,60.7797305 C132.093756,60.5184367 131.805219,60.2770889 131.518686,60.0536927 C131.530708,60.0118059 131.542731,59.9719137 131.556757,59.930027 C131.89364,58.8910158 132.42232,57.9236989 133.115657,57.0777358 C133.223858,56.944097 133.340075,56.8124528 133.462302,56.678814 C136.181569,55.9581098 138.056164,53.4837439 138.004753,50.6830189 C137.97006,49.2025549 137.386216,47.7872443 136.365704,46.7097574 C136.749143,46.3661864 136.943035,45.8599081 136.886673,45.349434 C137.050979,43.3747709 133.069571,41.3801617 131.406477,41.6713747 C130.458714,41.8369272 129.603122,42.3455526 128.653355,42.5190836 C127.669525,42.6985984 126.649627,42.5031267 125.647763,42.5190836 C124.308581,42.5339914 122.999252,42.9148599 121.862721,43.6201078 C121.577953,43.7779548 121.338044,44.0051055 121.165424,44.2803235 C121.026785,44.6041871 120.958501,44.9535705 120.965051,45.3055526 C120.684529,48.9377358 118.043616,51.9595687 115.238397,54.3471159 C114.860321,54.6276735 114.53821,54.9760543 114.28863,55.3743396 C114.004101,55.9088949 114.010112,56.541186 114.006104,57.143558 C113.962022,63.1632884 111.818034,69.4861995 106.952982,73.1562803 C107.029124,73.2041509 107.105266,73.250027 107.185415,73.2919137 C107.111277,73.3497574 107.037139,73.4115903 106.960997,73.4674394 C108.541938,74.4906739 110.91836,73.9920216 111.970317,72.4701348 C111.580522,74.1358019 110.902497,75.7212343 109.966589,77.1554717 L110.166962,77.1454987 C110.100839,77.2532075 110.036719,77.3609164 109.966589,77.4666307 C112.134623,77.4207547 113.731594,75.5398383 115.015983,73.8244744 C115.030009,73.990027 115.040028,74.1575741 115.046039,74.3231267 C115.053696,76.1783758 114.545352,77.9995334 113.577307,79.5849057 L113.777679,79.5669542 C113.714896,79.6786523 113.648105,79.7890207 113.577307,79.8980593 C113.896567,79.8714645 114.215828,79.8388859 114.535089,79.8003235 C113.25671,82.3933154 111.250979,87.1205391 111.250979,87.1205391 L110.505592,88.9595687 C110.102225,89.9449862 109.515539,90.8457107 108.776375,91.6143935 C107.964865,92.4581132 106.94096,93.4833423 106.502144,93.7566038 C105.72069,94.2412938 103.805126,100.51434 107.271575,99.4990836 C110.738024,98.4838275 112.05247,93.6269542 112.05247,93.6269542 C112.159404,92.8311677 112.469118,92.0758555 112.952144,91.4328841 C113.215598,91.0675632 113.436112,90.6733816 113.609366,90.2580593 C114.570561,88.1492533 115.648209,86.0949919 116.837372,84.10469 C117.521841,82.9778566 118.100687,81.7907128 118.566589,80.5582749 C118.833856,79.858983 119.175782,79.1902802 119.586486,78.5636658 C120.364845,78.2395081 121.104177,77.8293735 121.790587,77.3409704 C122.373655,76.9360609 122.878082,76.4291993 123.279357,75.8450135 C123.525408,76.8263805 123.824397,77.7938384 124.175023,78.7431806 C125.016589,81.0090566 126.553448,86.2548787 124.327307,89.7633962 C122.285508,92.9826954 122.241426,94.5404852 122.393709,95.1827493 C122.393709,95.2166577 122.373672,95.250566 122.363653,95.286469 C121.980119,96.7233514 122.162912,98.2518301 122.874604,99.5589218 C123.261565,100.293332 123.476008,101.105599 123.501771,101.934501 L123.501771,102.17186 C123.514396,102.720946 123.441394,103.26866 123.285368,103.795472 C122.850559,105.263504 121.944874,108.49876 121.642311,110.842426 C121.241566,113.965984 118.614678,116.983827 118.614678,116.983827 C118.614678,116.983827 111.651724,124.463612 108.996785,133.243881 C108.996785,133.243881 107.5,137.015687 106.407968,137.819515 C106.407968,137.819515 104.330103,139.050189 103.983458,141.409811 C103.983458,141.473639 103.965424,141.537466 103.959413,141.609272 L103.508574,142.710296 C103.508574,142.710296 107.379776,144.808625 108.173253,144.788679 L108.626095,143.843235 L112.663607,146.863073 L118.688816,146.72345 C118.853763,146.61386 119.000473,146.479259 119.123625,146.324528 C119.412162,145.949542 119.582479,145.363127 118.668779,144.752776 C118.214528,144.460789 117.667824,144.346404 117.133924,144.431644 C116.358481,144.545337 114.875722,144.288032 113.487139,141.401833 L112.721715,139.981671 L112.819897,140.01558 C112.819897,140.01558 111.499441,137.867385 114.130336,135.003127 C116.76123,132.138868 120.542265,124.579299 120.542265,124.579299 C120.542265,124.579299 125.679823,120.412561 126.569478,117.743774 C126.569478,117.743774 129.995853,111.985337 131.979543,108.568571 C132.310158,109.282642 132.580662,109.823181 132.580662,109.823181 C132.580662,109.823181 136.676281,115.332291 137.251351,119.522965 C137.826421,123.713639 141.71165,134.037736 143.366729,136.806253 C145.021808,139.574771 145.043849,140.659838 145.043849,140.659838 C145.043849,140.659838 144.01794,143.276765 144.661137,145.426954 L144.681174,145.494771 L144.71123,146.739407 L149.319804,146.787278 L149.305778,146.16496 L155.180708,146.338491 C155.180708,146.338491 160.853262,144.649057 160.664911,143.40841 C160.642203,143.311339 160.620162,143.218922 160.598788,143.131159 Z" id="Path" fill="url(#linearGradient-1)" fill-rule="nonzero"></path>
                        <path d="M134.967102,56.7685714 C134.247007,57.2665935 133.601985,57.8643521 133.051538,58.5437736 C132.380739,59.374236 131.869893,60.3209512 131.544734,61.3362264 C131.26906,62.1549344 131.133591,63.0139456 131.143989,63.8773585 L128.168453,61.3501887 L124.36137,62.2038814 C125.155341,61.4457063 125.841004,60.582628 126.399161,59.638814 C126.901988,58.7920427 127.305381,57.8905478 127.601398,56.9520755 C127.800657,56.3458852 127.940895,55.7220257 128.020177,55.0891105 C128.020177,55.0891105 139.044688,53.9242588 134.967102,56.7685714 Z" id="Path" fill="#EFB4B6" fill-rule="nonzero"></path>
                        <path d="M119.546412,146.101132 C119.428169,146.255369 119.286151,146.390008 119.125629,146.500054 L113.296785,146.635687 L109.391519,143.671698 L108.952703,144.599191 C108.185275,144.617143 104.454334,142.56469 104.454334,142.56469 L104.889143,141.485606 C104.889143,141.421779 104.903169,141.357951 104.913187,141.286146 C105.24781,138.960431 107.257549,137.755687 107.257549,137.755687 L108.016962,137.432561 L112.647577,138.547547 L114.092265,141.264205 C115.436766,144.09655 116.869432,144.349865 117.620829,144.238167 C118.137928,144.15463 118.6677,144.267076 119.105592,144.553315 C119.99124,145.157682 119.82493,145.734124 119.546412,146.101132 Z" id="Path" fill="#C17174" fill-rule="nonzero"></path>
                        <path d="M159.715144,143.260809 C159.897484,144.479515 154.411277,146.13504 154.411277,146.13504 L148.728705,145.961509 L148.742731,146.57186 L144.292451,146.521995 L144.264399,145.301294 L144.244362,145.235472 C143.623206,143.125175 144.613048,140.558113 144.613048,140.558113 L145.055871,139.784205 L149.474091,138.459784 C150.412533,139.314103 151.405082,140.107594 152.44562,140.835364 C154.319105,142.165768 155.851957,141.978275 157.378798,141.788787 C158.781407,141.615256 159.428611,141.978275 159.663048,142.985553 C159.683085,143.073315 159.70045,143.165067 159.715144,143.260809 Z" id="Path" fill="#C17174" fill-rule="nonzero"></path>
                        <path d="M133.22987,106.759461 C133.083597,107.07062 132.602703,107.934286 131.963514,109.057251 C130.055965,112.412183 126.735788,118.060916 126.735788,118.060916 C125.884203,120.673854 120.924977,124.766792 120.924977,124.766792 C120.924977,124.766792 117.264166,132.184744 114.71342,134.993154 C112.162675,137.801563 113.449068,139.909865 113.449068,139.909865 L107.259553,137.763666 C108.315517,136.965822 109.762209,133.275795 109.762209,133.275795 C112.320969,124.661078 119.053495,117.318922 119.053495,117.318922 C119.053495,117.318922 121.592218,114.356927 121.980941,111.293208 C122.271482,108.993423 123.147111,105.82 123.567894,104.379892 C123.716112,103.861295 123.783686,103.323164 123.768267,102.784205 L123.768267,102.550836 C123.745055,101.739344 123.53966,100.943315 123.167148,100.221132 C122.477814,98.9369275 122.300365,97.4411738 122.670224,96.0324528 C122.793239,95.5314367 122.99619,95.0533059 123.271342,94.6162803 L124.784157,94.1774663 L130.142125,92.6256604 C130.142125,92.6256604 130.47274,93.7845283 130.919571,95.4420485 C131.955499,99.3095957 133.63863,105.893801 133.22987,106.759461 Z" id="Path" fill="#5D596A" fill-rule="nonzero"></path>
                        <path d="M133.22987,106.759461 C133.083597,107.07062 132.602703,107.934286 131.963514,109.057251 C130.055965,112.412183 126.735788,118.060916 126.735788,118.060916 C125.884203,120.673854 120.924977,124.766792 120.924977,124.766792 C120.924977,124.766792 117.264166,132.184744 114.71342,134.993154 C112.162675,137.801563 113.449068,139.909865 113.449068,139.909865 L107.259553,137.763666 C108.315517,136.965822 109.762209,133.275795 109.762209,133.275795 C112.320969,124.661078 119.053495,117.318922 119.053495,117.318922 C119.053495,117.318922 121.592218,114.356927 121.980941,111.293208 C122.271482,108.993423 123.147111,105.82 123.567894,104.379892 C123.716112,103.861295 123.783686,103.323164 123.768267,102.784205 L123.768267,102.550836 C123.745055,101.739344 123.53966,100.943315 123.167148,100.221132 C122.477814,98.9369275 122.300365,97.4411738 122.670224,96.0324528 C122.793239,95.5314367 122.99619,95.0533059 123.271342,94.6162803 L124.784157,94.1774663 L130.142125,92.6256604 C130.142125,92.6256604 130.47274,93.7845283 130.919571,95.4420485 C131.955499,99.3095957 133.63863,105.893801 133.22987,106.759461 Z" id="Path" fill="#000000" fill-rule="nonzero" opacity="0.1"></path>
                        <path d="M150.255545,139.052183 L144.613048,140.558113 C144.613048,140.558113 144.586999,139.489003 142.990028,136.768356 C141.393057,134.047709 137.624045,123.909111 137.067008,119.798221 C136.509972,115.687332 132.546598,110.287925 132.546598,110.287925 C132.546598,110.287925 132.286114,109.757358 131.965517,109.057251 C131.668966,108.409003 131.324324,107.617143 131.087884,106.962911 C130.594967,105.600593 128.400885,103.665822 128.400885,103.665822 C124.39343,101.447817 123.591938,98.7929919 123.545853,97.1314825 C123.523337,96.58794 123.595883,96.0446371 123.760252,95.5258221 L124.790168,94.1814555 L126.735788,91.6363342 L133.322041,84.6093261 L137.329497,85.4330997 L137.569944,95.6614555 C140.617614,99.634717 142.501118,108.646361 143.126281,112.057143 C143.269461,112.807127 143.484164,113.541809 143.767474,114.251213 C144.823439,116.953908 144.933644,121.609326 144.933644,121.609326 C144.933644,121.609326 146.937372,128.742049 146.700932,131.496604 C146.464492,134.251159 150.255545,139.052183 150.255545,139.052183 Z" id="Path" fill="#5D596A" fill-rule="nonzero"></path>
                        <path d="M137.864492,82.058221 C137.864492,82.058221 140.9863,84.2762264 142.2226,84.707062 C143.4589,85.1378976 146.414399,86.7475472 146.414399,86.7475472 C146.414399,86.7475472 155.086533,90.0585984 152.064911,92.1150404 C149.04329,94.1714825 145.09795,89.5220485 145.09795,89.5220485 C145.09795,89.5220485 143.382759,88.3392453 141.994175,88.0659838 C140.605592,87.7927224 137.654101,86.1810782 137.654101,86.1810782 L137.864492,82.058221 Z" id="Path" fill="#EFB4B6" fill-rule="nonzero"></path>
                        <path d="M134.967102,56.7685714 C134.247007,57.2665935 133.601985,57.8643521 133.051538,58.5437736 C132.686957,58.6204204 132.316006,58.663156 131.943476,58.6714286 C130.256337,58.7113208 129.382712,56.8762803 128.268639,55.7792453 C128.619292,54.6702426 128.022181,55.0970889 128.022181,55.0970889 C128.022181,55.0970889 139.044688,53.9242588 134.967102,56.7685714 Z" id="Path" fill="#000000" fill-rule="nonzero" opacity="0.1"></path>
                        <ellipse id="Oval" fill="#EFB4B6" fill-rule="nonzero" transform="translate(131.794227, 52.416268) rotate(-1.340000) translate(-131.794227, -52.416268) " cx="131.794227" cy="52.416268" rx="5.98311652" ry="5.95591786"></ellipse>
                        <path d="M131.143989,63.8853369 L128.168453,61.3581671 L124.36137,62.2118598 C125.155924,61.4512328 125.841612,60.5854387 126.399161,59.638814 L126.42521,59.638814 C127.705186,59.395802 129.030085,59.6475927 130.130103,60.3429111 C130.620362,60.6482265 131.092677,60.9812051 131.544734,61.3402156 C131.268616,62.1601906 131.133141,63.0205876 131.143989,63.8853369 L131.143989,63.8853369 Z" id="Path" fill="#000000" fill-rule="nonzero" opacity="0.1"></path>
                        <path d="M137.329497,85.4311051 L137.383597,87.7149326 C136.920736,87.2541779 134.620457,85.0780593 135.247623,88.2295418 C135.942917,91.7260916 131.861323,94.2652291 131.861323,94.2652291 C131.565332,94.672905 131.248318,95.065039 130.911556,95.4400539 C127.673532,99.0123989 124.804194,97.93531 123.543849,97.1374663 C123.300272,96.9879478 123.072082,96.8149113 122.862582,96.6208625 C122.74133,96.4512284 122.671763,96.2504012 122.662209,96.0424259 C122.785224,95.5414097 122.988175,95.063279 123.263327,94.6262534 L124.776142,94.1874394 L126.735788,91.6363342 L133.322041,84.6093261 L137.329497,85.4311051 Z" id="Path" fill="#000000" fill-rule="nonzero" opacity="0.1"></path>
                        <path d="M137.455732,87.4895418 C137.455732,87.4895418 134.544315,84.4258221 135.241612,87.922372 C135.93891,91.4189218 131.855312,93.9580593 131.855312,93.9580593 C127.098462,100.48442 122.85657,96.3057143 122.85657,96.3057143 C122.85657,96.3057143 121.75452,95.1089488 124.563747,90.6130997 C126.71575,87.1704043 125.228984,82.0243127 124.413467,79.8003235 C124.065475,78.8397209 123.770487,77.8609025 123.529823,76.868248 L123.32945,76.0704043 L122.864585,74.1994609 C122.324064,72.0203468 122.154735,69.766387 122.363653,67.5314825 C122.500979,66.037384 122.814378,64.5645511 123.29739,63.1433423 C123.605965,62.2338005 123.95261,61.4519137 124.325303,60.9851752 C124.859458,60.3486763 125.605263,59.9240371 126.427213,59.7884097 C127.71143,59.5442871 129.040804,59.7991018 130.142125,60.5004852 C130.931082,60.9844597 131.669454,61.5457415 132.346226,62.1759569 C133.915144,63.6659299 132.07973,63.8633962 132.07973,63.8633962 C130.889515,65.4191914 134.177633,68.2515364 134.177633,68.2515364 C134.177633,68.2515364 139.024651,72.1091105 137.862488,74.8876011 C136.700326,77.6660916 137.796365,78.5556873 138.495666,82.2058221 C139.194967,85.8559569 137.455732,87.4895418 137.455732,87.4895418 Z" id="Path" fill="#9F9EFF" fill-rule="nonzero"></path>
                        <path d="M131.400466,43.7338005 C130.482759,43.8973585 129.653215,44.3940162 128.737512,44.563558 C127.785741,44.7390836 126.807922,44.5476011 125.838117,44.563558 C124.540921,44.5782743 123.273406,44.9518948 122.177307,45.6426415 C121.899166,45.7957394 121.664724,46.0167591 121.496039,46.2849057 C121.360733,46.599985 121.292506,46.9395637 121.295666,47.2822102 C121.025163,50.8465768 118.472414,53.810566 115.759366,56.1502426 C115.393415,56.4231315 115.081558,56.7613 114.839655,57.1475472 C114.563141,57.6721294 114.571156,58.2924528 114.567148,58.8848518 C114.527074,64.7908895 112.455219,70.994124 107.754473,74.5943935 C109.341426,75.6375741 111.761929,75.0711051 112.715704,73.433531 C112.366571,75.2387918 111.677165,76.9619079 110.683924,78.5118059 C112.779823,78.4679245 114.324697,76.6209164 115.567008,74.9394609 C115.741859,77.0261032 115.251035,79.1144801 114.164399,80.9073315 C116.969618,80.6659838 119.834949,80.0636119 122.103169,78.4120755 C123.1411,77.6561186 124.084856,76.5550943 124.062815,75.2745553 C124.050792,74.5405391 123.722181,73.8563881 123.487745,73.1602695 C122.876608,71.3491644 123.02288,69.0653369 124.535694,67.8905121 C124.821222,67.7046496 125.089457,67.4937084 125.337185,67.2602156 C125.68383,66.8732615 125.806058,66.3407008 125.876188,65.8260916 C126.046645,64.5739577 125.982786,63.3012314 125.687838,62.0722372 C125.608079,61.8136796 125.566897,61.5448637 125.56561,61.2743935 C125.599674,60.7099191 126.026468,60.2371968 126.51137,59.9459838 C126.996272,59.6547709 127.549301,59.4952022 128.064259,59.2538544 C129.866366,58.3756062 131.019682,56.5636794 131.04781,54.5665229 C131.04781,53.9940701 130.971668,53.3557951 131.336347,52.9149865 C131.875349,52.2607547 132.995433,52.4841509 133.640634,51.9356334 C134.251771,51.4150404 134.183644,50.4456604 134.610438,49.7654987 C134.96109,49.2070081 135.612302,48.9098113 136.087185,48.4610243 C138.471622,46.2749326 133.326048,43.3927224 131.400466,43.7338005 Z" id="Path" fill="#000000" fill-rule="nonzero" opacity="0.1"></path>
                        <path d="M130.895527,66.2968194 L130.895527,66.334717 L127.116496,71.4429111 L124.800186,74.5724528 C124.800186,74.5724528 124.169012,75.1708356 123.325443,76.0704043 L122.864585,74.1994609 C122.324064,72.0203468 122.154735,69.766387 122.363653,67.5314825 C123.239282,65.7921833 124.181034,64.6273315 125.062675,63.8434501 C126.074108,62.9505134 127.510942,62.7154813 128.756242,63.2392698 C130.001542,63.7630582 130.833745,64.9524752 130.895527,66.2968194 L130.895527,66.2968194 Z" id="Path" fill="#000000" fill-rule="nonzero" opacity="0.1"></path>
                        <path d="M131.392451,43.4286253 C130.474744,43.5921833 129.6452,44.088841 128.729497,44.2583827 C127.777726,44.4339084 126.799907,44.2424259 125.830103,44.2583827 C124.532906,44.2730991 123.265391,44.6467196 122.169292,45.3374663 C121.891151,45.4905642 121.656709,45.7115839 121.488024,45.9797305 C121.352718,46.2948098 121.284492,46.6343885 121.287651,46.977035 C121.017148,50.5414016 118.464399,53.5053908 115.751351,55.8450674 C115.3854,56.1179563 115.073543,56.4561248 114.83164,56.842372 C114.555126,57.3669542 114.563141,57.9872776 114.559133,58.5796765 C114.519059,64.4857143 112.447204,70.6889488 107.746459,74.2892183 C109.333411,75.3323989 111.753914,74.7659299 112.707689,73.1283558 C112.358556,74.9336166 111.66915,76.6567327 110.675909,78.2066307 C112.771808,78.1627493 114.316682,76.3157412 115.558993,74.6342857 C115.733844,76.720928 115.24302,78.8093049 114.156384,80.6021563 C116.961603,80.3608086 119.826934,79.7584367 122.095154,78.1069003 C123.133085,77.3509434 124.076841,76.2499191 124.0548,74.9693801 C124.042777,74.2353639 123.714166,73.5512129 123.47973,72.8550943 C122.868593,71.0439892 123.014865,68.7601617 124.527679,67.5853369 C124.813208,67.3994744 125.081442,67.1885332 125.329171,66.9550404 C125.675815,66.5680863 125.798043,66.0355256 125.868173,65.5209164 C126.038631,64.2687825 125.974771,62.9960562 125.679823,61.767062 C125.600064,61.5085044 125.558882,61.2396885 125.557596,60.9692183 C125.591659,60.4047439 126.018453,59.9320216 126.503355,59.6408086 C126.988257,59.3495957 127.541286,59.190027 128.056244,58.9486792 C129.858351,58.070431 131.011667,56.2585042 131.039795,54.2613477 C131.039795,53.6888949 130.963653,53.0506199 131.328332,52.6098113 C131.867335,51.9555795 132.987418,52.1789757 133.632619,51.6304582 C134.243756,51.1098652 134.175629,50.1404852 134.602423,49.4603235 C134.953075,48.9018329 135.604287,48.6046361 136.079171,48.1558491 C138.463607,45.961779 133.318034,43.083558 131.392451,43.4286253 Z" id="Path" fill="#C17174" fill-rule="nonzero"></path>
                        <path d="M130.580941,65.997628 L130.580941,66.0355256 L126.799907,71.1437197 L124.483597,74.2732615 C124.483597,74.2732615 120.123486,78.348248 118.979357,81.5795148 C118.529758,82.7872264 117.970403,83.9515855 117.308248,85.0581132 C116.158157,87.0116705 115.116656,89.0265972 114.188444,91.0938005 C114.021289,91.5001875 113.808189,91.8863048 113.553262,92.24469 C113.084667,92.8792736 112.785461,93.6218254 112.683644,94.4028571 C112.683644,94.4028571 111.415284,99.1679784 108.063048,100.163288 C104.710811,101.158598 106.560252,95.0052291 107.315657,94.5285175 C107.740447,94.2612399 108.730289,93.2559569 109.519758,92.4281941 C110.235773,91.6717237 110.802642,90.7880767 111.190867,89.8232345 L111.922227,88.0061456 C111.922227,88.0061456 115.408714,79.6766577 116.011836,79.2039353 C116.18799,79.0532948 116.337064,78.8738706 116.452656,78.6733693 C116.935555,77.8894879 117.426468,77.1115903 117.931407,76.3416712 C118.594641,75.3343935 119.644595,73.3198383 121.149394,69.3066846 C121.255592,69.0254447 121.361789,68.7541779 121.471994,68.4948787 C122.499907,66.0375202 123.676095,64.5056604 124.752097,63.5442588 C125.763687,62.6538174 127.198864,62.4203122 128.442611,62.9438073 C129.686358,63.4673024 130.517918,64.6548805 130.580941,65.997628 Z" id="Path" fill="#EFB4B6" fill-rule="nonzero"></path>
                        <path d="M130.580941,65.997628 L130.580941,66.0355256 L126.799907,71.1437197 L121.465983,68.4988679 C122.493896,66.0415094 123.670084,64.5096496 124.746086,63.548248 C125.75689,62.6544252 127.193691,62.4182914 128.439473,62.941251 C129.685255,63.4642107 130.518329,64.6532019 130.580941,65.997628 L130.580941,65.997628 Z" id="Path" fill="#9F9EFF" fill-rule="nonzero"></path>
                        <path d="M125.900233,61.940593 C125.900233,61.940593 129.989842,63.6838814 131.987558,63.7895957" id="Path" fill="#000000" fill-rule="nonzero" opacity="0.1"></path>
                        <path d="M159.715144,143.260809 C159.897484,144.479515 154.411277,146.13504 154.411277,146.13504 L148.728705,145.961509 L148.742731,146.57186 L144.292451,146.521995 L144.264399,145.301294 L144.244362,145.235472 L154.463374,145.4469 L159.653029,142.989542 C159.679745,143.074645 159.70045,143.165067 159.715144,143.260809 Z" id="Path" fill="#000000" fill-rule="nonzero" opacity="0.1"></path>
                        <path d="M119.546412,146.101132 C119.428169,146.255369 119.286151,146.390008 119.125629,146.500054 L113.296785,146.635687 L109.391519,143.671698 L108.952703,144.599191 C108.185275,144.617143 104.454334,142.56469 104.454334,142.56469 L104.889143,141.485606 C104.889143,141.421779 104.903169,141.357951 104.913187,141.286146 L109.459646,143.280755 L113.362908,146.091159 L119.546412,146.101132 Z" id="Path" fill="#000000" fill-rule="nonzero" opacity="0.1"></path>
                        <path d="M123.529823,95.4540162 C123.529823,95.4540162 125.721901,90.8205391 127.990121,89.3923989" id="Path" fill="#000000" fill-rule="nonzero" opacity="0.1"></path>
                        <path d="M132.246039,74.7798922 C132.246039,74.7798922 133.530429,77.1634501 137.421668,76.2479245" id="Path" fill="#000000" fill-rule="nonzero" opacity="0.1"></path>
                        <path d="M168.309133,126.075256 C168.309133,126.075256 154.757922,134.213261 179.730382,146.743396 C179.730382,146.743396 185.232619,136.570889 179.149301,128.279299 C176.70469,124.932768 172.131932,123.935316 168.505499,125.957574 L168.309133,126.075256 Z" id="Path" fill="#6C63FF" fill-rule="nonzero"></path>
                        <path d="M168.465424,125.90372 C168.465424,125.90372 180.063001,134.735849 179.736393,146.743396" id="Path" stroke="#535461" stroke-width="0.5"></path>
                        <path d="M180.393616,146.890997 C180.393616,146.890997 176.147717,132.529811 181.195107,121.976334 C183.338597,117.559032 183.984744,112.568755 183.036533,107.754771 C182.568775,105.473323 181.892026,103.239333 181.014772,101.080809" id="Path" stroke="#535461" stroke-width="0.5"></path>
                        <path d="M184.146598,94.4048518 C184.146598,96.164097 180.940634,101.264313 180.940634,101.264313 C180.940634,101.264313 177.734669,96.164097 177.734669,94.4048518 C177.846281,92.7278777 179.245287,91.4244512 180.933621,91.4244512 C182.621955,91.4244512 184.020961,92.7278777 184.132572,94.4048518 L184.146598,94.4048518 Z" id="Path" fill="#6C63FF" fill-rule="nonzero"></path>
                        <path d="M189.434436,104.148518 C188.474651,105.624528 183.004473,108.175633 183.004473,108.175633 C183.004473,108.175633 183.10466,102.163881 184.064445,100.687871 C184.647335,99.6487752 185.76263,99.0188691 186.95768,99.0538049 C188.152729,99.0887407 189.228968,99.7827138 189.749595,100.854069 C190.270223,101.925425 190.148734,103.196151 189.434436,104.150512 L189.434436,104.148518 Z" id="Path" fill="#6C63FF" fill-rule="nonzero"></path>
                        <path d="M189.204007,120.795526 C187.627074,121.593369 181.611883,121.040863 181.611883,121.040863 C181.611883,121.040863 184.745713,115.900755 186.324651,115.108895 C187.354574,114.504449 188.636808,114.520712 189.650926,115.151083 C190.665045,115.781453 191.242536,116.921186 191.149012,118.107692 C191.055487,119.294198 190.306487,120.330321 189.206011,120.795526 L189.204007,120.795526 Z" id="Path" fill="#6C63FF" fill-rule="nonzero"></path>
                        <path d="M186.180382,133.353585 C184.759739,134.39876 178.738537,134.871482 178.738537,134.871482 C178.738537,134.871482 180.95466,129.286577 182.375303,128.231429 C183.796177,127.31636 185.686849,127.65824 186.69365,129.012292 C187.700452,130.366344 187.476609,132.266188 186.182386,133.35159 L186.180382,133.353585 Z" id="Path" fill="#6C63FF" fill-rule="nonzero"></path>
                        <path d="M176.287978,108.506739 C177.554334,109.731429 183.45932,111.001995 183.45932,111.001995 C183.45932,111.001995 182.012628,105.163774 180.746272,103.939084 C179.460191,102.850964 177.546851,102.941821 176.37066,104.146863 C175.194469,105.351905 175.158315,107.258364 176.287978,108.506739 Z" id="Path" fill="#6C63FF" fill-rule="nonzero"></path>
                        <path d="M172.937745,123.2469 C174.514678,124.044744 180.52987,123.492237 180.52987,123.492237 C180.52987,123.492237 177.396039,118.350135 175.82712,117.558275 C174.797197,116.953829 173.514962,116.970092 172.500844,117.600463 C171.486726,118.230833 170.909234,119.370566 171.002759,120.557072 C171.096284,121.743578 171.845284,122.779701 172.94576,123.244906 L172.937745,123.2469 Z" id="Path" fill="#6C63FF" fill-rule="nonzero"></path>
                        <path d="M171.655359,138.009003 C173.076002,139.054178 179.097204,139.5269 179.097204,139.5269 C179.097204,139.5269 176.881081,133.941995 175.460438,132.886846 C174.547628,132.121317 173.283173,131.923948 172.178787,132.374614 C171.074402,132.82528 170.31295,133.84936 170.202586,135.032416 C170.092221,136.215472 170.651218,137.361614 171.653355,138.007008 L171.655359,138.009003 Z" id="Path" fill="#6C63FF" fill-rule="nonzero"></path>
                        <path d="M184.146598,94.4048518 C184.146598,96.164097 180.940634,101.264313 180.940634,101.264313 C180.940634,101.264313 177.734669,96.164097 177.734669,94.4048518 C177.846281,92.7278777 179.245287,91.4244512 180.933621,91.4244512 C182.621955,91.4244512 184.020961,92.7278777 184.132572,94.4048518 L184.146598,94.4048518 Z" id="Path" fill="#000000" fill-rule="nonzero" opacity="0.25"></path>
                        <path d="M189.434436,104.148518 C188.474651,105.624528 183.004473,108.175633 183.004473,108.175633 C183.004473,108.175633 183.10466,102.163881 184.064445,100.687871 C184.647335,99.6487752 185.76263,99.0188691 186.95768,99.0538049 C188.152729,99.0887407 189.228968,99.7827138 189.749595,100.854069 C190.270223,101.925425 190.148734,103.196151 189.434436,104.150512 L189.434436,104.148518 Z" id="Path" fill="#000000" fill-rule="nonzero" opacity="0.25"></path>
                        <path d="M189.204007,120.795526 C187.627074,121.593369 181.611883,121.040863 181.611883,121.040863 C181.611883,121.040863 184.745713,115.900755 186.324651,115.108895 C187.354574,114.504449 188.636808,114.520712 189.650926,115.151083 C190.665045,115.781453 191.242536,116.921186 191.149012,118.107692 C191.055487,119.294198 190.306487,120.330321 189.206011,120.795526 L189.204007,120.795526 Z" id="Path" fill="#000000" fill-rule="nonzero" opacity="0.25"></path>
                        <path d="M186.180382,133.353585 C184.759739,134.39876 178.738537,134.871482 178.738537,134.871482 C178.738537,134.871482 180.95466,129.286577 182.375303,128.231429 C183.796177,127.31636 185.686849,127.65824 186.69365,129.012292 C187.700452,130.366344 187.476609,132.266188 186.182386,133.35159 L186.180382,133.353585 Z" id="Path" fill="#000000" fill-rule="nonzero" opacity="0.25"></path>
                        <path d="M176.287978,108.506739 C177.554334,109.731429 183.45932,111.001995 183.45932,111.001995 C183.45932,111.001995 182.012628,105.163774 180.746272,103.939084 C179.460191,102.850964 177.546851,102.941821 176.37066,104.146863 C175.194469,105.351905 175.158315,107.258364 176.287978,108.506739 Z" id="Path" fill="#000000" fill-rule="nonzero" opacity="0.25"></path>
                        <path d="M172.937745,123.2469 C174.514678,124.044744 180.52987,123.492237 180.52987,123.492237 C180.52987,123.492237 177.396039,118.350135 175.82712,117.558275 C174.797197,116.953829 173.514962,116.970092 172.500844,117.600463 C171.486726,118.230833 170.909234,119.370566 171.002759,120.557072 C171.096284,121.743578 171.845284,122.779701 172.94576,123.244906 L172.937745,123.2469 Z" id="Path" fill="#000000" fill-rule="nonzero" opacity="0.25"></path>
                        <path d="M171.655359,138.009003 C173.076002,139.054178 179.097204,139.5269 179.097204,139.5269 C179.097204,139.5269 176.881081,133.941995 175.460438,132.886846 C174.547628,132.121317 173.283173,131.923948 172.178787,132.374614 C171.074402,132.82528 170.31295,133.84936 170.202586,135.032416 C170.092221,136.215472 170.651218,137.361614 171.653355,138.007008 L171.655359,138.009003 Z" id="Path" fill="#000000" fill-rule="nonzero" opacity="0.25"></path>
                        <path d="M190.219897,147.164259 C190.219897,147.164259 185.973998,132.803073 191.021389,122.249596 C193.164878,117.832294 193.811025,112.842016 192.862815,108.028032 C192.395057,105.746585 191.718308,103.512594 190.841053,101.35407" id="Path" stroke="#535461" stroke-width="0.5"></path>
                        <path d="M193.97288,94.6781132 C193.97288,96.4373585 190.766915,101.537574 190.766915,101.537574 C190.766915,101.537574 187.560951,96.4373585 187.560951,94.6781132 C187.672562,93.0011391 189.071568,91.6977127 190.759902,91.6977127 C192.448236,91.6977127 193.847242,93.0011391 193.958854,94.6781132 L193.97288,94.6781132 Z" id="Path" fill="#6C63FF" fill-rule="nonzero"></path>
                        <path d="M199.270736,104.421779 C198.310951,105.89779 192.840774,108.448895 192.840774,108.448895 C192.840774,108.448895 192.94096,102.437143 193.900746,100.961132 C194.483635,99.9220367 195.598931,99.2921305 196.79398,99.3270664 C197.989029,99.3620022 199.065268,100.055975 199.585895,101.127331 C200.106523,102.198686 199.985034,103.469412 199.270736,104.423774 L199.270736,104.421779 Z" id="Path" fill="#6C63FF" fill-rule="nonzero"></path>
                        <path d="M199.030289,121.072776 C197.453355,121.87062 191.438164,121.318113 191.438164,121.318113 C191.438164,121.318113 194.571994,116.178005 196.150932,115.386146 C197.181137,114.778998 198.465349,114.793842 199.481114,115.424639 C200.496879,116.055436 201.074933,117.197072 200.980106,118.385097 C200.88528,119.573122 200.133375,120.609567 199.030289,121.072776 Z" id="Path" fill="#6C63FF" fill-rule="nonzero"></path>
                        <path d="M196.00466,133.626846 C194.584017,134.672022 188.562815,135.144744 188.562815,135.144744 C188.562815,135.144744 190.778938,129.559838 192.199581,128.50469 C193.620455,127.589622 195.511127,127.931501 196.517928,129.285553 C197.52473,130.639605 197.300887,132.539449 196.006664,133.624852 L196.00466,133.626846 Z" id="Path" fill="#6C63FF" fill-rule="nonzero"></path>
                        <path d="M186.112255,108.787978 C187.378611,110.012668 193.283597,111.283235 193.283597,111.283235 C193.283597,111.283235 191.836906,105.445013 190.57055,104.220323 C189.284469,103.132204 187.371128,103.223061 186.194938,104.428103 C185.018747,105.633145 184.982592,107.539604 186.112255,108.787978 L186.112255,108.787978 Z" id="Path" fill="#6C63FF" fill-rule="nonzero"></path>
                        <path d="M182.764026,123.520162 C184.34096,124.318005 190.356151,123.765499 190.356151,123.765499 C190.356151,123.765499 187.222321,118.623396 185.645387,117.831536 C184.090699,117.174323 182.29044,117.830573 181.529782,119.331802 C180.769124,120.83303 181.309011,122.664242 182.764026,123.518167 L182.764026,123.520162 Z" id="Path" fill="#6C63FF" fill-rule="nonzero"></path>
                        <path d="M181.48164,138.282264 C182.902283,139.327439 188.923486,139.800162 188.923486,139.800162 C188.923486,139.800162 186.707363,134.215256 185.286719,133.160108 C184.37391,132.394578 183.109454,132.197209 182.005069,132.647875 C180.900683,133.098542 180.139231,134.122621 180.028867,135.305677 C179.918503,136.488733 180.4775,137.634876 181.479637,138.28027 L181.48164,138.282264 Z" id="Path" fill="#6C63FF" fill-rule="nonzero"></path>
                        <rect id="Rectangle" fill="#6C63FF" fill-rule="nonzero" x="91.1696179" y="146.398329" width="27.4510718" height="1"></rect>
                        <rect id="Rectangle" fill="#6C63FF" fill-rule="nonzero" x="128.038211" y="146.398329" width="41.0764212" height="1"></rect>
                        <rect id="Rectangle" fill="#6C63FF" fill-rule="nonzero" x="178.932898" y="146.398329" width="12.4231128" height="1"></rect>
                        <polygon id="Path" fill="#343434" fill-rule="nonzero" points="13.1244175 0 12.8378844 0.969380054 12.8378844 29.1212938 13.1244175 29.4065229 26.2448276 21.6853908"></polygon>
                        <polygon id="Path" fill="#8C8C8C" fill-rule="nonzero" points="13.1244175 0 0 21.6754178 13.1244175 29.3965499"></polygon>
                        <polygon id="Path" fill="#3C3C3B" fill-rule="nonzero" points="13.1244175 31.8698652 12.9621156 32.0693261 12.9621156 42.0862534 13.1244175 42.5549865 26.2528425 24.1507278"></polygon>
                        <polygon id="Path" fill="#8C8C8C" fill-rule="nonzero" points="13.1244175 42.5569811 13.1244175 31.8698652 0 24.1527224"></polygon>
                        <polygon id="Path" fill="#141414" fill-rule="nonzero" points="13.1244175 29.3965499 26.2448276 21.6774124 13.1244175 15.7394609"></polygon>
                        <polygon id="Path" fill="#393939" fill-rule="nonzero" points="0 21.6754178 13.1244175 29.3965499 13.1244175 15.7394609"></polygon>
                        <path d="M195.022833,66.1871159 C194.533924,42.537035 177.247763,23.5363881 155.990214,23.5363881 C145.59287,23.5363881 136.153308,28.084097 129.15028,35.5040431 C114.593197,37.0199461 102.354427,47.4716981 96.8682199,61.9206469 C80.2032153,66.8892183 67.9263747,83.8952561 67.9263747,104.118598 C67.9263747,128.253369 85.4048928,147.800539 106.967008,147.800539 C113.300528,147.792381 119.516306,146.096056 124.9685,142.887817 C135.354694,148.704648 147.99058,148.902006 158.554986,143.412399 C163.862627,146.408411 169.857787,147.988669 175.959366,148 C197.521482,148 215,128.45283 215,104.318059 C215,87.9343396 206.94301,73.6649057 195.022833,66.1871159 Z" id="Path" fill="#6C63FF" fill-rule="nonzero" opacity="0.1"></path>
                    </g>
                </g>
            </g>
        </g>
    </g>
</svg>