<?xml version="1.0" encoding="UTF-8"?>
<svg width="68px" height="65px" viewBox="0 0 68 65" version="1.1" xmlns="http://www.w3.org/2000/svg" xmlns:xlink="http://www.w3.org/1999/xlink">
    <title>Group 3</title>
    <g id="Page-1" stroke="none" stroke-width="1" fill="none" fill-rule="evenodd">
        <g id="Mining-Provider-Windows-Onboarding-Steps-01" transform="translate(-993.000000, -537.000000)">
            <g id="My-Balance-Copy-2" transform="translate(963.000000, 459.000000)">
                <g id="Group-3" transform="translate(30.000000, 78.000000)">
                    <circle id="Oval-Copy" fill="#FFFFFF" cx="32.5" cy="32.5" r="32.5"></circle>
                    <g id="undraw_hacker_mind_6y85" transform="translate(5.000000, 15.000000)" fill-rule="nonzero">
                        <rect id="Rectangle" fill="#3F3D56" x="0" y="0" width="52.901089" height="28.5425545"></rect>
                        <rect id="Rectangle" fill="#6C63FF" x="9.56324787" y="4.02403201" width="1" height="1"></rect>
                        <rect id="Rectangle" fill="#6C63FF" x="11.1493477" y="3.8368677" width="1" height="1"></rect>
                        <rect id="Rectangle" fill="#6C63FF" x="11.9890476" y="3.8368677" width="1" height="1"></rect>
                        <rect id="Rectangle" fill="#6C63FF" x="11.9890476" y="6.08283939" width="1" height="1"></rect>
                        <rect id="Rectangle" fill="#6C63FF" x="12.9220474" y="4.95985354" width="1" height="1"></rect>
                        <rect id="Rectangle" fill="#6C63FF" x="12.9220474" y="6.17642154" width="1" height="1"></rect>
                        <rect id="Rectangle" fill="#6C63FF" x="11.9890476" y="8.51597539" width="1" height="1"></rect>
                        <rect id="Rectangle" fill="#6C63FF" x="12.9220474" y="9.73254339" width="1" height="1"></rect>
                        <rect id="Rectangle" fill="#6C63FF" x="11.9890476" y="14.3180683" width="1" height="1"></rect>
                        <rect id="Rectangle" fill="#6C63FF" x="11.1493477" y="9.73254339" width="1" height="1"></rect>
                        <rect id="Rectangle" fill="#6C63FF" x="9.56324787" y="5.24060001" width="1" height="1"></rect>
                        <rect id="Rectangle" fill="#6C63FF" x="9.56324787" y="16.9383686" width="1" height="1"></rect>
                        <rect id="Rectangle" fill="#6C63FF" x="9.56324787" y="19.371504" width="1" height="1"></rect>
                        <rect id="Rectangle" fill="#6C63FF" x="9.56324787" y="20.588072" width="1" height="1"></rect>
                        <rect id="Rectangle" fill="#6C63FF" x="9.37664789" y="6.55075016" width="1" height="1"></rect>
                        <rect id="Rectangle" fill="#6C63FF" x="11.8957476" y="7.67373601" width="1" height="1"></rect>
                        <rect id="Rectangle" fill="#6C63FF" x="9.37664789" y="12.5400074" width="1" height="1"></rect>
                        <rect id="Rectangle" fill="#6C63FF" x="9.37664789" y="13.5694111" width="1" height="1"></rect>
                        <rect id="Rectangle" fill="#6C63FF" x="11.8957476" y="19.5586683" width="1" height="1"></rect>
                        <rect id="Rectangle" fill="#6C63FF" x="11.1493477" y="21.80464" width="1" height="1"></rect>
                        <polygon id="Path" fill="#6C63FF" points="9.56324727 7.39301501 9.56324727 7.58015385 9.74982185 7.58015385 9.74982185 7.95449217 9.56324727 7.95449217 9.56324727 8.14163101 10.0297442 8.14163101 10.0297442 7.39301501"></polygon>
                        <polygon id="Path" fill="#6C63FF" points="11.1493731 6.08286122 11.1493731 6.27000006 11.3359476 6.27000006 11.3359476 6.64433838 11.1493731 6.64433838 11.1493731 6.83147722 11.61587 6.83147722 11.61587 6.08286122"></polygon>
                        <polygon id="Path" fill="#6C63FF" points="12.9220734 7.29938495 12.9220734 7.48658443 13.108648 7.48658443 13.108648 7.86092275 12.9220734 7.86092275 12.9220734 8.04806159 13.3885704 8.04806159 13.3885704 7.29938495"></polygon>
                        <polygon id="Path" fill="#6C63FF" points="12.9220734 10.9491381 12.9220734 11.1362769 13.108648 11.1362769 13.108648 11.5106152 12.9220734 11.5106152 12.9220734 11.6977541 13.3885704 11.6977541 13.3885704 10.9491381"></polygon>
                        <polygon id="Path" fill="#6C63FF" points="12.9220734 12.1656618 12.9220734 12.3528613 13.108648 12.3528613 13.108648 12.7271996 12.9220734 12.7271996 12.9220734 12.9143384 13.3885704 12.9143384 13.3885704 12.1656618"></polygon>
                        <polygon id="Path" fill="#6C63FF" points="12.9220734 8.42239991 12.9220734 8.60953874 13.108648 8.60953874 13.108648 8.98387706 12.9220734 8.98387706 12.9220734 9.17107654 13.3885704 9.17107654 13.3885704 8.42239991"></polygon>
                        <polygon id="Path" fill="#6C63FF" points="11.9890191 4.95984627 11.9890191 5.14704575 12.1756542 5.14704575 12.1756542 5.52132342 11.9890191 5.52132342 11.9890191 5.7085229 12.4555765 5.7085229 12.4555765 4.95984627"></polygon>
                        <rect id="Rectangle" fill="#6C63FF" x="11.9890476" y="10.9491114" width="1" height="1"></rect>
                        <rect id="Rectangle" fill="#6C63FF" x="11.9890476" y="13.1950825" width="1" height="1"></rect>
                        <polygon id="Path" fill="#6C63FF" points="11.9890191 12.0720924 11.9890191 12.2592312 12.1756542 12.2592312 12.1756542 12.6335695 11.9890191 12.6335695 11.9890191 12.820769 12.4555765 12.820769 12.4555765 12.0720924"></polygon>
                        <polygon id="Path" fill="#6C63FF" points="11.1493731 7.29938495 11.1493731 7.48658443 11.3359476 7.48658443 11.3359476 7.86092275 11.1493731 7.86092275 11.1493731 8.04806159 11.61587 8.04806159 11.61587 7.29938495"></polygon>
                        <polygon id="Path" fill="#6C63FF" points="11.1493731 8.51596933 11.1493731 8.7031688 11.3359476 8.7031688 11.3359476 9.07744648 11.1493731 9.07744648 11.1493731 9.26464596 11.61587 9.26464596 11.61587 8.51596933"></polygon>
                        <rect id="Rectangle" fill="#6C63FF" x="11.1493477" y="12.1656788" width="1" height="1"></rect>
                        <polygon id="Path" fill="#6C63FF" points="11.1493731 10.9491381 11.1493731 11.1362769 11.3359476 11.1362769 11.3359476 11.5106152 11.1493731 11.5106152 11.1493731 11.6977541 11.61587 11.6977541 11.61587 10.9491381"></polygon>
                        <rect id="Rectangle" fill="#6C63FF" x="11.1493477" y="14.5988148" width="1" height="1"></rect>
                        <polygon id="Path" fill="#6C63FF" points="11.1493731 13.3822462 11.1493731 13.569385 11.3359476 13.569385 11.3359476 13.9437233 11.1493731 13.9437233 11.1493731 14.1309228 11.61587 14.1309228 11.61587 13.3822462"></polygon>
                        <rect id="Rectangle" fill="#6C63FF" x="11.1493477" y="17.0319508" width="1" height="1"></rect>
                        <rect id="Rectangle" fill="#6C63FF" x="11.9890476" y="16.8447865" width="1" height="1"></rect>
                        <polygon id="Path" fill="#6C63FF" points="11.1493731 15.8153543 11.1493731 16.0025538 11.3359476 16.0025538 11.3359476 16.3768921 11.1493731 16.3768921 11.1493731 16.5640309 11.61587 16.5640309 11.61587 15.8153543"></polygon>
                        <polygon id="Path" fill="#6C63FF" points="12.9220734 15.8153543 12.9220734 16.0025538 13.108648 16.0025538 13.108648 16.3768921 12.9220734 16.3768921 12.9220734 16.5640309 13.3885704 16.5640309 13.3885704 15.8153543"></polygon>
                        <rect id="Rectangle" fill="#6C63FF" x="17.6803462" y="4.95985354" width="1" height="1"></rect>
                        <rect id="Rectangle" fill="#6C63FF" x="17.6803462" y="6.17642154" width="1" height="1"></rect>
                        <rect id="Rectangle" fill="#6C63FF" x="17.6803462" y="9.73254339" width="1" height="1"></rect>
                        <polygon id="Path" fill="#6C63FF" points="17.6803299 7.29938495 17.6803299 7.48658443 17.8669649 7.48658443 17.8669649 7.86092275 17.6803299 7.86092275 17.6803299 8.04806159 18.1468268 8.04806159 18.1468268 7.29938495"></polygon>
                        <polygon id="Path" fill="#6C63FF" points="17.6803299 10.9491381 17.6803299 11.1362769 17.8669649 11.1362769 17.8669649 11.5106152 17.6803299 11.5106152 17.6803299 11.6977541 18.1468268 11.6977541 18.1468268 10.9491381"></polygon>
                        <polygon id="Path" fill="#6C63FF" points="17.6803299 12.1656618 17.6803299 12.3528613 17.8669649 12.3528613 17.8669649 12.7271996 17.6803299 12.7271996 17.6803299 12.9143384 18.1468268 12.9143384 18.1468268 12.1656618"></polygon>
                        <polygon id="Path" fill="#6C63FF" points="17.6803299 8.42239991 17.6803299 8.60953874 17.8669649 8.60953874 17.8669649 8.98387706 17.6803299 8.98387706 17.6803299 9.17107654 18.1468268 9.17107654 18.1468268 8.42239991"></polygon>
                        <polygon id="Path" fill="#6C63FF" points="17.6803299 15.8153543 17.6803299 16.0025538 17.8669649 16.0025538 17.8669649 16.3768921 17.6803299 16.3768921 17.6803299 16.5640309 18.1468268 16.5640309 18.1468268 15.8153543"></polygon>
                        <rect id="Rectangle" fill="#6C63FF" x="11.1493477" y="19.4650862" width="1" height="1"></rect>
                        <rect id="Rectangle" fill="#6C63FF" x="11.9890476" y="18.0613545" width="1" height="1"></rect>
                        <rect id="Rectangle" fill="#6C63FF" x="11.1493477" y="22.6468794" width="1" height="1"></rect>
                        <rect id="Rectangle" fill="#6C63FF" x="11.9890476" y="20.4009077" width="1" height="1"></rect>
                        <polygon id="Path" fill="#6C63FF" points="11.1493731 18.248523 11.1493731 18.4356619 11.3359476 18.4356619 11.3359476 18.8100002 11.1493731 18.8100002 11.1493731 18.9971997 11.61587 18.9971997 11.61587 18.248523"></polygon>
                        <polygon id="Path" fill="#6C63FF" points="11.1493731 23.9570459 11.1493731 24.1441848 11.3359476 24.1441848 11.3359476 24.5185231 11.1493731 24.5185231 11.1493731 24.7056619 11.61587 24.7056619 11.61587 23.9570459"></polygon>
                        <rect id="Rectangle" fill="#6C63FF" x="16.2808464" y="3.8368677" width="1" height="1"></rect>
                        <rect id="Rectangle" fill="#6C63FF" x="16.2808464" y="9.73254339" width="1" height="1"></rect>
                        <rect id="Rectangle" fill="#6C63FF" x="16.2808464" y="21.80464" width="1" height="1"></rect>
                        <polygon id="Path" fill="#6C63FF" points="16.2808392 6.08286122 16.2808392 6.27000006 16.4674742 6.27000006 16.4674742 6.64433838 16.2808392 6.64433838 16.2808392 6.83147722 16.7473361 6.83147722 16.7473361 6.08286122"></polygon>
                        <polygon id="Path" fill="#6C63FF" points="16.2808392 7.29938495 16.2808392 7.48658443 16.4674742 7.48658443 16.4674742 7.86092275 16.2808392 7.86092275 16.2808392 8.04806159 16.7473361 8.04806159 16.7473361 7.29938495"></polygon>
                        <polygon id="Path" fill="#6C63FF" points="16.2808392 8.51596933 16.2808392 8.7031688 16.4674742 8.7031688 16.4674742 9.07744648 16.2808392 9.07744648 16.2808392 9.26464596 16.7473361 9.26464596 16.7473361 8.51596933"></polygon>
                        <rect id="Rectangle" fill="#6C63FF" x="16.2808464" y="12.1656788" width="1" height="1"></rect>
                        <polygon id="Path" fill="#6C63FF" points="16.2808392 10.9491381 16.2808392 11.1362769 16.4674742 11.1362769 16.4674742 11.5106152 16.2808392 11.5106152 16.2808392 11.6977541 16.7473361 11.6977541 16.7473361 10.9491381"></polygon>
                        <rect id="Rectangle" fill="#6C63FF" x="16.2808464" y="14.5988148" width="1" height="1"></rect>
                        <polygon id="Path" fill="#6C63FF" points="16.2808392 13.3822462 16.2808392 13.569385 16.4674742 13.569385 16.4674742 13.9437233 16.2808392 13.9437233 16.2808392 14.1309228 16.7473361 14.1309228 16.7473361 13.3822462"></polygon>
                        <rect id="Rectangle" fill="#6C63FF" x="16.2808464" y="17.0319508" width="1" height="1"></rect>
                        <polygon id="Path" fill="#6C63FF" points="16.2808392 15.8153543 16.2808392 16.0025538 16.4674742 16.0025538 16.4674742 16.3768921 16.2808392 16.3768921 16.2808392 16.5640309 16.7473361 16.5640309 16.7473361 15.8153543"></polygon>
                        <rect id="Rectangle" fill="#6C63FF" x="16.2808464" y="19.4650862" width="1" height="1"></rect>
                        <rect id="Rectangle" fill="#6C63FF" x="16.2808464" y="22.6468794" width="1" height="1"></rect>
                        <polygon id="Path" fill="#6C63FF" points="16.2808392 18.248523 16.2808392 18.4356619 16.4674742 18.4356619 16.4674742 18.8100002 16.2808392 18.8100002 16.2808392 18.9971997 16.7473361 18.9971997 16.7473361 18.248523"></polygon>
                        <polygon id="Path" fill="#6C63FF" points="16.2808392 23.9570459 16.2808392 24.1441848 16.4674742 24.1441848 16.4674742 24.5185231 16.2808392 24.5185231 16.2808392 24.7056619 16.7473361 24.7056619 16.7473361 23.9570459"></polygon>
                        <rect id="Rectangle" fill="#6C63FF" x="18.5200461" y="3.8368677" width="1" height="1"></rect>
                        <rect id="Rectangle" fill="#6C63FF" x="18.5200461" y="9.73254339" width="1" height="1"></rect>
                        <rect id="Rectangle" fill="#6C63FF" x="18.5200461" y="21.80464" width="1" height="1"></rect>
                        <polygon id="Path" fill="#6C63FF" points="18.5200364 6.08286122 18.5200364 6.27000006 18.7066715 6.27000006 18.7066715 6.64433838 18.5200364 6.64433838 18.5200364 6.83147722 18.9865334 6.83147722 18.9865334 6.08286122"></polygon>
                        <polygon id="Path" fill="#6C63FF" points="18.5200364 7.29938495 18.5200364 7.48658443 18.7066715 7.48658443 18.7066715 7.86092275 18.5200364 7.86092275 18.5200364 8.04806159 18.9865334 8.04806159 18.9865334 7.29938495"></polygon>
                        <polygon id="Path" fill="#6C63FF" points="18.5200364 8.51596933 18.5200364 8.7031688 18.7066715 8.7031688 18.7066715 9.07744648 18.5200364 9.07744648 18.5200364 9.26464596 18.9865334 9.26464596 18.9865334 8.51596933"></polygon>
                        <rect id="Rectangle" fill="#6C63FF" x="18.5200461" y="12.1656788" width="1" height="1"></rect>
                        <polygon id="Path" fill="#6C63FF" points="18.5200364 10.9491381 18.5200364 11.1362769 18.7066715 11.1362769 18.7066715 11.5106152 18.5200364 11.5106152 18.5200364 11.6977541 18.9865334 11.6977541 18.9865334 10.9491381"></polygon>
                        <rect id="Rectangle" fill="#6C63FF" x="18.5200461" y="14.5988148" width="1" height="1"></rect>
                        <polygon id="Path" fill="#6C63FF" points="18.5200364 13.3822462 18.5200364 13.569385 18.7066715 13.569385 18.7066715 13.9437233 18.5200364 13.9437233 18.5200364 14.1309228 18.9865334 14.1309228 18.9865334 13.3822462"></polygon>
                        <rect id="Rectangle" fill="#6C63FF" x="18.5200461" y="17.0319508" width="1" height="1"></rect>
                        <polygon id="Path" fill="#6C63FF" points="18.5200364 15.8153543 18.5200364 16.0025538 18.7066715 16.0025538 18.7066715 16.3768921 18.5200364 16.3768921 18.5200364 16.5640309 18.9865334 16.5640309 18.9865334 15.8153543"></polygon>
                        <rect id="Rectangle" fill="#6C63FF" x="18.5200461" y="19.4650862" width="1" height="1"></rect>
                        <rect id="Rectangle" fill="#6C63FF" x="18.5200461" y="22.6468794" width="1" height="1"></rect>
                        <polygon id="Path" fill="#6C63FF" points="18.5200364 18.248523 18.5200364 18.4356619 18.7066715 18.4356619 18.7066715 18.8100002 18.5200364 18.8100002 18.5200364 18.9971997 18.9865334 18.9971997 18.9865334 18.248523"></polygon>
                        <polygon id="Path" fill="#6C63FF" points="18.5200364 23.9570459 18.5200364 24.1441848 18.7066715 24.1441848 18.7066715 24.5185231 18.5200364 24.5185231 18.5200364 24.7056619 18.9865334 24.7056619 18.9865334 23.9570459"></polygon>
                        <polygon id="Path" fill="#6C63FF" points="11.9890191 22.6468921 11.9890191 22.834031 12.1756542 22.834031 12.1756542 23.2083693 11.9890191 23.2083693 11.9890191 23.3955081 12.4555765 23.3955081 12.4555765 22.6468921"></polygon>
                        <polygon id="Path" fill="#6C63FF" points="11.9890191 23.8634765 11.9890191 24.0506153 12.1756542 24.0506153 12.1756542 24.4249537 11.9890191 24.4249537 11.9890191 24.6120925 12.4555765 24.6120925 12.4555765 23.8634765"></polygon>
                        <polygon id="Path" fill="#6C63FF" points="9.56324727 9.7325537 9.56324727 9.91969254 9.74982185 9.91969254 9.74982185 10.2940309 9.56324727 10.2940309 9.56324727 10.4812303 10.0297442 10.4812303 10.0297442 9.7325537"></polygon>
                        <polygon id="Path" fill="#6C63FF" points="9.56324727 14.5052611 9.56324727 14.6924 9.74982185 14.6924 9.74982185 15.0667383 9.56324727 15.0667383 9.56324727 15.2538771 10.0297442 15.2538771 10.0297442 14.5052611"></polygon>
                        <polygon id="Path" fill="#6C63FF" points="9.56324727 15.7217849 9.56324727 15.9089843 9.74982185 15.9089843 9.74982185 16.2833227 9.56324727 16.2833227 9.56324727 16.4704615 10.0297442 16.4704615 10.0297442 15.7217849"></polygon>
                        <polygon id="Path" fill="#6C63FF" points="9.56324727 18.1549536 9.56324727 18.3420924 9.74982185 18.3420924 9.74982185 18.7164308 9.56324727 18.7164308 9.56324727 18.9035696 10.0297442 18.9035696 10.0297442 18.1549536"></polygon>
                        <polygon id="Path" fill="#6C63FF" points="9.56324727 21.6174466 9.56324727 21.8046461 9.74982185 21.8046461 9.74982185 22.1789844 9.56324727 22.1789844 9.56324727 22.3661232 10.0297442 22.3661232 10.0297442 21.6174466"></polygon>
                        <polygon id="Path" fill="#6C63FF" points="9.56324727 22.6468921 9.56324727 22.834031 9.74982185 22.834031 9.74982185 23.2083693 9.56324727 23.2083693 9.56324727 23.3955081 10.0297442 23.3955081 10.0297442 22.6468921"></polygon>
                        <rect id="Rectangle" fill="#6C63FF" x="14.4148472" y="4.02403201" width="1" height="1"></rect>
                        <rect id="Rectangle" fill="#6C63FF" x="14.4148472" y="5.24060001" width="1" height="1"></rect>
                        <rect id="Rectangle" fill="#6C63FF" x="14.2282473" y="6.55075016" width="1" height="1"></rect>
                        <rect id="Rectangle" fill="#6C63FF" x="14.2282473" y="12.5400074" width="1" height="1"></rect>
                        <rect id="Rectangle" fill="#6C63FF" x="14.2282473" y="13.5694111" width="1" height="1"></rect>
                        <polygon id="Path" fill="#6C63FF" points="14.4148515 7.39301501 14.4148515 7.58015385 14.6014261 7.58015385 14.6014261 7.95449217 14.4148515 7.95449217 14.4148515 8.14163101 14.8813484 8.14163101 14.8813484 7.39301501"></polygon>
                        <polygon id="Path" fill="#6C63FF" points="14.4148515 9.7325537 14.4148515 9.91969254 14.6014261 9.91969254 14.6014261 10.2940309 14.4148515 10.2940309 14.4148515 10.4812303 14.8813484 10.4812303 14.8813484 9.7325537"></polygon>
                        <polygon id="Path" fill="#6C63FF" points="14.4148515 14.5052611 14.4148515 14.6924 14.6014261 14.6924 14.6014261 15.0667383 14.4148515 15.0667383 14.4148515 15.2538771 14.8813484 15.2538771 14.8813484 14.5052611"></polygon>
                        <rect id="Rectangle" fill="#6C63FF" x="19.732946" y="12.1656788" width="1" height="1"></rect>
                        <rect id="Rectangle" fill="#6C63FF" x="19.732946" y="13.3822468" width="1" height="1"></rect>
                        <rect id="Rectangle" fill="#6C63FF" x="19.546346" y="14.6923969" width="1" height="1"></rect>
                        <rect id="Rectangle" fill="#6C63FF" x="19.546346" y="20.6816542" width="1" height="1"></rect>
                        <rect id="Rectangle" fill="#6C63FF" x="19.546346" y="21.7110579" width="1" height="1"></rect>
                        <polygon id="Path" fill="#6C63FF" points="19.7329526 15.534646 19.7329526 15.7217849 19.9195272 15.7217849 19.9195272 16.0961232 19.7329526 16.0961232 19.7329526 16.2833227 20.1994495 16.2833227 20.1994495 15.534646"></polygon>
                        <polygon id="Path" fill="#6C63FF" points="19.7329526 17.8741847 19.7329526 18.0613842 19.9195272 18.0613842 19.9195272 18.4356619 19.7329526 18.4356619 19.7329526 18.6228613 20.1994495 18.6228613 20.1994495 17.8741847"></polygon>
                        <polygon id="Path" fill="#6C63FF" points="19.7329526 22.6468921 19.7329526 22.834031 19.9195272 22.834031 19.9195272 23.2083693 19.7329526 23.2083693 19.7329526 23.3955081 20.1994495 23.3955081 20.1994495 22.6468921"></polygon>
                        <rect id="Rectangle" fill="#6C63FF" x="21.2257458" y="4.02403201" width="1" height="1"></rect>
                        <rect id="Rectangle" fill="#6C63FF" x="22.811845" y="3.8368677" width="1" height="1"></rect>
                        <rect id="Rectangle" fill="#6C63FF" x="23.6515449" y="3.8368677" width="1" height="1"></rect>
                        <rect id="Rectangle" fill="#6C63FF" x="23.6515449" y="6.08283939" width="1" height="1"></rect>
                        <rect id="Rectangle" fill="#6C63FF" x="24.5845447" y="4.95985354" width="1" height="1"></rect>
                        <rect id="Rectangle" fill="#6C63FF" x="24.5845447" y="6.17642154" width="1" height="1"></rect>
                        <rect id="Rectangle" fill="#6C63FF" x="23.6515449" y="8.51597539" width="1" height="1"></rect>
                        <rect id="Rectangle" fill="#6C63FF" x="24.5845447" y="9.73254339" width="1" height="1"></rect>
                        <rect id="Rectangle" fill="#6C63FF" x="23.6515449" y="14.3180683" width="1" height="1"></rect>
                        <rect id="Rectangle" fill="#6C63FF" x="22.811845" y="9.73254339" width="1" height="1"></rect>
                        <rect id="Rectangle" fill="#6C63FF" x="21.2257458" y="5.24060001" width="1" height="1"></rect>
                        <rect id="Rectangle" fill="#6C63FF" x="21.2257458" y="16.9383686" width="1" height="1"></rect>
                        <rect id="Rectangle" fill="#6C63FF" x="21.2257458" y="19.371504" width="1" height="1"></rect>
                        <rect id="Rectangle" fill="#6C63FF" x="21.2257458" y="20.588072" width="1" height="1"></rect>
                        <rect id="Rectangle" fill="#6C63FF" x="21.0391458" y="6.55075016" width="1" height="1"></rect>
                        <rect id="Rectangle" fill="#6C63FF" x="23.5582449" y="7.67373601" width="1" height="1"></rect>
                        <rect id="Rectangle" fill="#6C63FF" x="21.0391458" y="12.5400074" width="1" height="1"></rect>
                        <rect id="Rectangle" fill="#6C63FF" x="21.0391458" y="13.5694111" width="1" height="1"></rect>
                        <rect id="Rectangle" fill="#6C63FF" x="23.5582449" y="19.5586683" width="1" height="1"></rect>
                        <rect id="Rectangle" fill="#6C63FF" x="22.811845" y="21.80464" width="1" height="1"></rect>
                        <polygon id="Path" fill="#6C63FF" points="21.2257307 7.39301501 21.2257307 7.58015385 21.4123657 7.58015385 21.4123657 7.95449217 21.2257307 7.95449217 21.2257307 8.14163101 21.6922276 8.14163101 21.6922276 7.39301501"></polygon>
                        <polygon id="Path" fill="#6C63FF" points="22.8118565 6.08286122 22.8118565 6.27000006 22.998431 6.27000006 22.998431 6.64433838 22.8118565 6.64433838 22.8118565 6.83147722 23.2783534 6.83147722 23.2783534 6.08286122"></polygon>
                        <polygon id="Path" fill="#6C63FF" points="24.5845568 7.29938495 24.5845568 7.48658443 24.7711314 7.48658443 24.7711314 7.86092275 24.5845568 7.86092275 24.5845568 8.04806159 25.0510537 8.04806159 25.0510537 7.29938495"></polygon>
                        <polygon id="Path" fill="#6C63FF" points="24.5845568 10.9491381 24.5845568 11.1362769 24.7711314 11.1362769 24.7711314 11.5106152 24.5845568 11.5106152 24.5845568 11.6977541 25.0510537 11.6977541 25.0510537 10.9491381"></polygon>
                        <polygon id="Path" fill="#6C63FF" points="24.5845568 12.1656618 24.5845568 12.3528613 24.7711314 12.3528613 24.7711314 12.7271996 24.5845568 12.7271996 24.5845568 12.9143384 25.0510537 12.9143384 25.0510537 12.1656618"></polygon>
                        <polygon id="Path" fill="#6C63FF" points="24.5845568 8.42239991 24.5845568 8.60953874 24.7711314 8.60953874 24.7711314 8.98387706 24.5845568 8.98387706 24.5845568 9.17107654 25.0510537 9.17107654 25.0510537 8.42239991"></polygon>
                        <polygon id="Path" fill="#6C63FF" points="23.651563 4.95984627 23.651563 5.14704575 23.8381376 5.14704575 23.8381376 5.52132342 23.651563 5.52132342 23.651563 5.7085229 24.1180599 5.7085229 24.1180599 4.95984627"></polygon>
                        <rect id="Rectangle" fill="#6C63FF" x="23.6515449" y="10.9491114" width="1" height="1"></rect>
                        <rect id="Rectangle" fill="#6C63FF" x="23.6515449" y="13.1950825" width="1" height="1"></rect>
                        <polygon id="Path" fill="#6C63FF" points="23.651563 12.0720924 23.651563 12.2592312 23.8381376 12.2592312 23.8381376 12.6335695 23.651563 12.6335695 23.651563 12.820769 24.1180599 12.820769 24.1180599 12.0720924"></polygon>
                        <polygon id="Path" fill="#6C63FF" points="22.8118565 7.29938495 22.8118565 7.48658443 22.998431 7.48658443 22.998431 7.86092275 22.8118565 7.86092275 22.8118565 8.04806159 23.2783534 8.04806159 23.2783534 7.29938495"></polygon>
                        <polygon id="Path" fill="#6C63FF" points="22.8118565 8.51596933 22.8118565 8.7031688 22.998431 8.7031688 22.998431 9.07744648 22.8118565 9.07744648 22.8118565 9.26464596 23.2783534 9.26464596 23.2783534 8.51596933"></polygon>
                        <rect id="Rectangle" fill="#6C63FF" x="22.811845" y="12.1656788" width="1" height="1"></rect>
                        <polygon id="Path" fill="#6C63FF" points="22.8118565 10.9491381 22.8118565 11.1362769 22.998431 11.1362769 22.998431 11.5106152 22.8118565 11.5106152 22.8118565 11.6977541 23.2783534 11.6977541 23.2783534 10.9491381"></polygon>
                        <rect id="Rectangle" fill="#6C63FF" x="22.811845" y="14.5988148" width="1" height="1"></rect>
                        <polygon id="Path" fill="#6C63FF" points="22.8118565 13.3822462 22.8118565 13.569385 22.998431 13.569385 22.998431 13.9437233 22.8118565 13.9437233 22.8118565 14.1309228 23.2783534 14.1309228 23.2783534 13.3822462"></polygon>
                        <rect id="Rectangle" fill="#6C63FF" x="22.811845" y="17.0319508" width="1" height="1"></rect>
                        <rect id="Rectangle" fill="#6C63FF" x="23.6515449" y="16.8447865" width="1" height="1"></rect>
                        <polygon id="Path" fill="#6C63FF" points="22.8118565 15.8153543 22.8118565 16.0025538 22.998431 16.0025538 22.998431 16.3768921 22.8118565 16.3768921 22.8118565 16.5640309 23.2783534 16.5640309 23.2783534 15.8153543"></polygon>
                        <polygon id="Path" fill="#6C63FF" points="24.5845568 15.8153543 24.5845568 16.0025538 24.7711314 16.0025538 24.7711314 16.3768921 24.5845568 16.3768921 24.5845568 16.5640309 25.0510537 16.5640309 25.0510537 15.8153543"></polygon>
                        <rect id="Rectangle" fill="#6C63FF" x="29.3428441" y="4.95985354" width="1" height="1"></rect>
                        <rect id="Rectangle" fill="#6C63FF" x="29.3428441" y="6.17642154" width="1" height="1"></rect>
                        <rect id="Rectangle" fill="#6C63FF" x="29.3428441" y="9.73254339" width="1" height="1"></rect>
                        <polygon id="Path" fill="#6C63FF" points="29.3428738 7.29938495 29.3428738 7.48658443 29.5294483 7.48658443 29.5294483 7.86092275 29.3428738 7.86092275 29.3428738 8.04806159 29.8093707 8.04806159 29.8093707 7.29938495"></polygon>
                        <polygon id="Path" fill="#6C63FF" points="29.3428738 10.9491381 29.3428738 11.1362769 29.5294483 11.1362769 29.5294483 11.5106152 29.3428738 11.5106152 29.3428738 11.6977541 29.8093707 11.6977541 29.8093707 10.9491381"></polygon>
                        <polygon id="Path" fill="#6C63FF" points="29.3428738 12.1656618 29.3428738 12.3528613 29.5294483 12.3528613 29.5294483 12.7271996 29.3428738 12.7271996 29.3428738 12.9143384 29.8093707 12.9143384 29.8093707 12.1656618"></polygon>
                        <polygon id="Path" fill="#6C63FF" points="29.3428738 8.42239991 29.3428738 8.60953874 29.5294483 8.60953874 29.5294483 8.98387706 29.3428738 8.98387706 29.3428738 9.17107654 29.8093707 9.17107654 29.8093707 8.42239991"></polygon>
                        <polygon id="Path" fill="#6C63FF" points="29.3428738 15.8153543 29.3428738 16.0025538 29.5294483 16.0025538 29.5294483 16.3768921 29.3428738 16.3768921 29.3428738 16.5640309 29.8093707 16.5640309 29.8093707 15.8153543"></polygon>
                        <rect id="Rectangle" fill="#6C63FF" x="22.811845" y="19.4650862" width="1" height="1"></rect>
                        <rect id="Rectangle" fill="#6C63FF" x="23.6515449" y="18.0613545" width="1" height="1"></rect>
                        <rect id="Rectangle" fill="#6C63FF" x="22.811845" y="22.6468794" width="1" height="1"></rect>
                        <rect id="Rectangle" fill="#6C63FF" x="23.6515449" y="20.4009077" width="1" height="1"></rect>
                        <polygon id="Path" fill="#6C63FF" points="22.8118565 18.248523 22.8118565 18.4356619 22.998431 18.4356619 22.998431 18.8100002 22.8118565 18.8100002 22.8118565 18.9971997 23.2783534 18.9971997 23.2783534 18.248523"></polygon>
                        <polygon id="Path" fill="#6C63FF" points="22.8118565 23.9570459 22.8118565 24.1441848 22.998431 24.1441848 22.998431 24.5185231 22.8118565 24.5185231 22.8118565 24.7056619 23.2783534 24.7056619 23.2783534 23.9570459"></polygon>
                        <rect id="Rectangle" fill="#6C63FF" x="27.9433443" y="3.8368677" width="1" height="1"></rect>
                        <rect id="Rectangle" fill="#6C63FF" x="27.9433443" y="9.73254339" width="1" height="1"></rect>
                        <rect id="Rectangle" fill="#6C63FF" x="27.9433443" y="21.80464" width="1" height="1"></rect>
                        <polygon id="Path" fill="#6C63FF" points="27.9433225 6.08286122 27.9433225 6.27000006 28.1299576 6.27000006 28.1299576 6.64433838 27.9433225 6.64433838 27.9433225 6.83147722 28.4098195 6.83147722 28.4098195 6.08286122"></polygon>
                        <polygon id="Path" fill="#6C63FF" points="27.9433225 7.29938495 27.9433225 7.48658443 28.1299576 7.48658443 28.1299576 7.86092275 27.9433225 7.86092275 27.9433225 8.04806159 28.4098195 8.04806159 28.4098195 7.29938495"></polygon>
                        <polygon id="Path" fill="#6C63FF" points="27.9433225 8.51596933 27.9433225 8.7031688 28.1299576 8.7031688 28.1299576 9.07744648 27.9433225 9.07744648 27.9433225 9.26464596 28.4098195 9.26464596 28.4098195 8.51596933"></polygon>
                        <rect id="Rectangle" fill="#6C63FF" x="27.9433443" y="12.1656788" width="1" height="1"></rect>
                        <polygon id="Path" fill="#6C63FF" points="27.9433225 10.9491381 27.9433225 11.1362769 28.1299576 11.1362769 28.1299576 11.5106152 27.9433225 11.5106152 27.9433225 11.6977541 28.4098195 11.6977541 28.4098195 10.9491381"></polygon>
                        <rect id="Rectangle" fill="#6C63FF" x="27.9433443" y="14.5988148" width="1" height="1"></rect>
                        <polygon id="Path" fill="#6C63FF" points="27.9433225 13.3822462 27.9433225 13.569385 28.1299576 13.569385 28.1299576 13.9437233 27.9433225 13.9437233 27.9433225 14.1309228 28.4098195 14.1309228 28.4098195 13.3822462"></polygon>
                        <rect id="Rectangle" fill="#6C63FF" x="27.9433443" y="17.0319508" width="1" height="1"></rect>
                        <polygon id="Path" fill="#6C63FF" points="27.9433225 15.8153543 27.9433225 16.0025538 28.1299576 16.0025538 28.1299576 16.3768921 27.9433225 16.3768921 27.9433225 16.5640309 28.4098195 16.5640309 28.4098195 15.8153543"></polygon>
                        <rect id="Rectangle" fill="#6C63FF" x="27.9433443" y="19.4650862" width="1" height="1"></rect>
                        <rect id="Rectangle" fill="#6C63FF" x="27.9433443" y="22.6468794" width="1" height="1"></rect>
                        <polygon id="Path" fill="#6C63FF" points="27.9433225 18.248523 27.9433225 18.4356619 28.1299576 18.4356619 28.1299576 18.8100002 27.9433225 18.8100002 27.9433225 18.9971997 28.4098195 18.9971997 28.4098195 18.248523"></polygon>
                        <polygon id="Path" fill="#6C63FF" points="27.9433225 23.9570459 27.9433225 24.1441848 28.1299576 24.1441848 28.1299576 24.5185231 27.9433225 24.5185231 27.9433225 24.7056619 28.4098195 24.7056619 28.4098195 23.9570459"></polygon>
                        <rect id="Rectangle" fill="#6C63FF" x="30.182544" y="3.8368677" width="1" height="1"></rect>
                        <rect id="Rectangle" fill="#6C63FF" x="30.182544" y="9.73254339" width="1" height="1"></rect>
                        <rect id="Rectangle" fill="#6C63FF" x="30.182544" y="21.80464" width="1" height="1"></rect>
                        <polygon id="Path" fill="#6C63FF" points="30.1825198 6.08286122 30.1825198 6.27000006 30.3691549 6.27000006 30.3691549 6.64433838 30.1825198 6.64433838 30.1825198 6.83147722 30.6490168 6.83147722 30.6490168 6.08286122"></polygon>
                        <polygon id="Path" fill="#6C63FF" points="30.1825198 7.29938495 30.1825198 7.48658443 30.3691549 7.48658443 30.3691549 7.86092275 30.1825198 7.86092275 30.1825198 8.04806159 30.6490168 8.04806159 30.6490168 7.29938495"></polygon>
                        <polygon id="Path" fill="#6C63FF" points="30.1825198 8.51596933 30.1825198 8.7031688 30.3691549 8.7031688 30.3691549 9.07744648 30.1825198 9.07744648 30.1825198 9.26464596 30.6490168 9.26464596 30.6490168 8.51596933"></polygon>
                        <rect id="Rectangle" fill="#6C63FF" x="30.182544" y="12.1656788" width="1" height="1"></rect>
                        <polygon id="Path" fill="#6C63FF" points="30.1825198 10.9491381 30.1825198 11.1362769 30.3691549 11.1362769 30.3691549 11.5106152 30.1825198 11.5106152 30.1825198 11.6977541 30.6490168 11.6977541 30.6490168 10.9491381"></polygon>
                        <rect id="Rectangle" fill="#6C63FF" x="30.182544" y="14.5988148" width="1" height="1"></rect>
                        <polygon id="Path" fill="#6C63FF" points="30.1825198 13.3822462 30.1825198 13.569385 30.3691549 13.569385 30.3691549 13.9437233 30.1825198 13.9437233 30.1825198 14.1309228 30.6490168 14.1309228 30.6490168 13.3822462"></polygon>
                        <rect id="Rectangle" fill="#6C63FF" x="30.182544" y="17.0319508" width="1" height="1"></rect>
                        <polygon id="Path" fill="#6C63FF" points="30.1825198 15.8153543 30.1825198 16.0025538 30.3691549 16.0025538 30.3691549 16.3768921 30.1825198 16.3768921 30.1825198 16.5640309 30.6490168 16.5640309 30.6490168 15.8153543"></polygon>
                        <rect id="Rectangle" fill="#6C63FF" x="30.182544" y="19.4650862" width="1" height="1"></rect>
                        <rect id="Rectangle" fill="#6C63FF" x="30.182544" y="22.6468794" width="1" height="1"></rect>
                        <polygon id="Path" fill="#6C63FF" points="30.1825198 18.248523 30.1825198 18.4356619 30.3691549 18.4356619 30.3691549 18.8100002 30.1825198 18.8100002 30.1825198 18.9971997 30.6490168 18.9971997 30.6490168 18.248523"></polygon>
                        <polygon id="Path" fill="#6C63FF" points="30.1825198 23.9570459 30.1825198 24.1441848 30.3691549 24.1441848 30.3691549 24.5185231 30.1825198 24.5185231 30.1825198 24.7056619 30.6490168 24.7056619 30.6490168 23.9570459"></polygon>
                        <polygon id="Path" fill="#6C63FF" points="23.651563 22.6468921 23.651563 22.834031 23.8381376 22.834031 23.8381376 23.2083693 23.651563 23.2083693 23.651563 23.3955081 24.1180599 23.3955081 24.1180599 22.6468921"></polygon>
                        <polygon id="Path" fill="#6C63FF" points="23.651563 23.8634765 23.651563 24.0506153 23.8381376 24.0506153 23.8381376 24.4249537 23.651563 24.4249537 23.651563 24.6120925 24.1180599 24.6120925 24.1180599 23.8634765"></polygon>
                        <polygon id="Path" fill="#6C63FF" points="21.2257307 9.7325537 21.2257307 9.91969254 21.4123657 9.91969254 21.4123657 10.2940309 21.2257307 10.2940309 21.2257307 10.4812303 21.6922276 10.4812303 21.6922276 9.7325537"></polygon>
                        <polygon id="Path" fill="#6C63FF" points="21.2257307 14.5052611 21.2257307 14.6924 21.4123657 14.6924 21.4123657 15.0667383 21.2257307 15.0667383 21.2257307 15.2538771 21.6922276 15.2538771 21.6922276 14.5052611"></polygon>
                        <polygon id="Path" fill="#6C63FF" points="21.2257307 15.7217849 21.2257307 15.9089843 21.4123657 15.9089843 21.4123657 16.2833227 21.2257307 16.2833227 21.2257307 16.4704615 21.6922276 16.4704615 21.6922276 15.7217849"></polygon>
                        <polygon id="Path" fill="#6C63FF" points="21.2257307 18.1549536 21.2257307 18.3420924 21.4123657 18.3420924 21.4123657 18.7164308 21.2257307 18.7164308 21.2257307 18.9035696 21.6922276 18.9035696 21.6922276 18.1549536"></polygon>
                        <polygon id="Path" fill="#6C63FF" points="21.2257307 21.6174466 21.2257307 21.8046461 21.4123657 21.8046461 21.4123657 22.1789844 21.2257307 22.1789844 21.2257307 22.3661232 21.6922276 22.3661232 21.6922276 21.6174466"></polygon>
                        <polygon id="Path" fill="#6C63FF" points="21.2257307 22.6468921 21.2257307 22.834031 21.4123657 22.834031 21.4123657 23.2083693 21.2257307 23.2083693 21.2257307 23.3955081 21.6922276 23.3955081 21.6922276 22.6468921"></polygon>
                        <rect id="Rectangle" fill="#6C63FF" x="26.0773445" y="4.02403201" width="1" height="1"></rect>
                        <rect id="Rectangle" fill="#6C63FF" x="26.0773445" y="5.24060001" width="1" height="1"></rect>
                        <rect id="Rectangle" fill="#6C63FF" x="25.8907446" y="6.55075016" width="1" height="1"></rect>
                        <rect id="Rectangle" fill="#6C63FF" x="25.8907446" y="12.5400074" width="1" height="1"></rect>
                        <rect id="Rectangle" fill="#6C63FF" x="25.8907446" y="13.5694111" width="1" height="1"></rect>
                        <polygon id="Path" fill="#6C63FF" points="26.0773349 7.39301501 26.0773349 7.58015385 26.2639699 7.58015385 26.2639699 7.95449217 26.0773349 7.95449217 26.0773349 8.14163101 26.5438318 8.14163101 26.5438318 7.39301501"></polygon>
                        <polygon id="Path" fill="#6C63FF" points="26.0773349 9.7325537 26.0773349 9.91969254 26.2639699 9.91969254 26.2639699 10.2940309 26.0773349 10.2940309 26.0773349 10.4812303 26.5438318 10.4812303 26.5438318 9.7325537"></polygon>
                        <polygon id="Path" fill="#6C63FF" points="26.0773349 14.5052611 26.0773349 14.6924 26.2639699 14.6924 26.2639699 15.0667383 26.0773349 15.0667383 26.0773349 15.2538771 26.5438318 15.2538771 26.5438318 14.5052611"></polygon>
                        <rect id="Rectangle" fill="#6C63FF" x="31.3954433" y="12.1656788" width="1" height="1"></rect>
                        <rect id="Rectangle" fill="#6C63FF" x="31.3954433" y="13.3822468" width="1" height="1"></rect>
                        <rect id="Rectangle" fill="#6C63FF" x="31.2088433" y="14.6923969" width="1" height="1"></rect>
                        <rect id="Rectangle" fill="#6C63FF" x="31.2088433" y="20.6816542" width="1" height="1"></rect>
                        <rect id="Rectangle" fill="#6C63FF" x="31.2088433" y="21.7110579" width="1" height="1"></rect>
                        <polygon id="Path" fill="#6C63FF" points="31.395436 15.534646 31.395436 15.7217849 31.5820711 15.7217849 31.5820711 16.0961232 31.395436 16.0961232 31.395436 16.2833227 31.8619329 16.2833227 31.8619329 15.534646"></polygon>
                        <polygon id="Path" fill="#6C63FF" points="31.395436 17.8741847 31.395436 18.0613842 31.5820711 18.0613842 31.5820711 18.4356619 31.395436 18.4356619 31.395436 18.6228613 31.8619329 18.6228613 31.8619329 17.8741847"></polygon>
                        <polygon id="Path" fill="#6C63FF" points="31.395436 22.6468921 31.395436 22.834031 31.5820711 22.834031 31.5820711 23.2083693 31.395436 23.2083693 31.395436 23.3955081 31.8619329 23.3955081 31.8619329 22.6468921"></polygon>
                        <rect id="Rectangle" fill="#6C63FF" x="32.8882431" y="4.02403201" width="1" height="1"></rect>
                        <rect id="Rectangle" fill="#6C63FF" x="34.4743429" y="3.8368677" width="1" height="1"></rect>
                        <rect id="Rectangle" fill="#6C63FF" x="35.3140428" y="3.8368677" width="1" height="1"></rect>
                        <rect id="Rectangle" fill="#6C63FF" x="35.3140428" y="6.08283939" width="1" height="1"></rect>
                        <rect id="Rectangle" fill="#6C63FF" x="36.2470426" y="4.95985354" width="1" height="1"></rect>
                        <rect id="Rectangle" fill="#6C63FF" x="36.2470426" y="6.17642154" width="1" height="1"></rect>
                        <rect id="Rectangle" fill="#6C63FF" x="35.3140428" y="8.51597539" width="1" height="1"></rect>
                        <rect id="Rectangle" fill="#6C63FF" x="36.2470426" y="9.73254339" width="1" height="1"></rect>
                        <rect id="Rectangle" fill="#6C63FF" x="35.3140428" y="14.3180683" width="1" height="1"></rect>
                        <rect id="Rectangle" fill="#6C63FF" x="34.4743429" y="9.73254339" width="1" height="1"></rect>
                        <rect id="Rectangle" fill="#6C63FF" x="32.8882431" y="5.24060001" width="1" height="1"></rect>
                        <rect id="Rectangle" fill="#6C63FF" x="32.8882431" y="16.9383686" width="1" height="1"></rect>
                        <rect id="Rectangle" fill="#6C63FF" x="32.8882431" y="19.371504" width="1" height="1"></rect>
                        <rect id="Rectangle" fill="#6C63FF" x="32.8882431" y="20.588072" width="1" height="1"></rect>
                        <rect id="Rectangle" fill="#6C63FF" x="32.7016431" y="6.55075016" width="1" height="1"></rect>
                        <rect id="Rectangle" fill="#6C63FF" x="35.2207428" y="7.67373601" width="1" height="1"></rect>
                        <rect id="Rectangle" fill="#6C63FF" x="32.7016431" y="12.5400074" width="1" height="1"></rect>
                        <rect id="Rectangle" fill="#6C63FF" x="32.7016431" y="13.5694111" width="1" height="1"></rect>
                        <rect id="Rectangle" fill="#6C63FF" x="35.2207428" y="19.5586683" width="1" height="1"></rect>
                        <rect id="Rectangle" fill="#6C63FF" x="34.4743429" y="21.80464" width="1" height="1"></rect>
                        <polygon id="Path" fill="#6C63FF" points="32.8882141 7.39301501 32.8882141 7.58015385 33.0748491 7.58015385 33.0748491 7.95449217 32.8882141 7.95449217 32.8882141 8.14163101 33.3547714 8.14163101 33.3547714 7.39301501"></polygon>
                        <polygon id="Path" fill="#6C63FF" points="34.4743398 6.08286122 34.4743398 6.27000006 34.6609144 6.27000006 34.6609144 6.64433838 34.4743398 6.64433838 34.4743398 6.83147722 34.9408368 6.83147722 34.9408368 6.08286122"></polygon>
                        <polygon id="Path" fill="#6C63FF" points="36.2470402 7.29938495 36.2470402 7.48658443 36.4336148 7.48658443 36.4336148 7.86092275 36.2470402 7.86092275 36.2470402 8.04806159 36.7135371 8.04806159 36.7135371 7.29938495"></polygon>
                        <polygon id="Path" fill="#6C63FF" points="36.2470402 10.9491381 36.2470402 11.1362769 36.4336148 11.1362769 36.4336148 11.5106152 36.2470402 11.5106152 36.2470402 11.6977541 36.7135371 11.6977541 36.7135371 10.9491381"></polygon>
                        <polygon id="Path" fill="#6C63FF" points="36.2470402 12.1656618 36.2470402 12.3528613 36.4336148 12.3528613 36.4336148 12.7271996 36.2470402 12.7271996 36.2470402 12.9143384 36.7135371 12.9143384 36.7135371 12.1656618"></polygon>
                        <polygon id="Path" fill="#6C63FF" points="36.2470402 8.42239991 36.2470402 8.60953874 36.4336148 8.60953874 36.4336148 8.98387706 36.2470402 8.98387706 36.2470402 9.17107654 36.7135371 9.17107654 36.7135371 8.42239991"></polygon>
                        <polygon id="Path" fill="#6C63FF" points="35.3140464 4.95984627 35.3140464 5.14704575 35.500621 5.14704575 35.500621 5.52132342 35.3140464 5.52132342 35.3140464 5.7085229 35.7805433 5.7085229 35.7805433 4.95984627"></polygon>
                        <rect id="Rectangle" fill="#6C63FF" x="35.3140428" y="10.9491114" width="1" height="1"></rect>
                        <rect id="Rectangle" fill="#6C63FF" x="35.3140428" y="13.1950825" width="1" height="1"></rect>
                        <polygon id="Path" fill="#6C63FF" points="35.3140464 12.0720924 35.3140464 12.2592312 35.500621 12.2592312 35.500621 12.6335695 35.3140464 12.6335695 35.3140464 12.820769 35.7805433 12.820769 35.7805433 12.0720924"></polygon>
                        <polygon id="Path" fill="#6C63FF" points="34.4743398 7.29938495 34.4743398 7.48658443 34.6609144 7.48658443 34.6609144 7.86092275 34.4743398 7.86092275 34.4743398 8.04806159 34.9408368 8.04806159 34.9408368 7.29938495"></polygon>
                        <polygon id="Path" fill="#6C63FF" points="34.4743398 8.51596933 34.4743398 8.7031688 34.6609144 8.7031688 34.6609144 9.07744648 34.4743398 9.07744648 34.4743398 9.26464596 34.9408368 9.26464596 34.9408368 8.51596933"></polygon>
                        <rect id="Rectangle" fill="#6C63FF" x="34.4743429" y="12.1656788" width="1" height="1"></rect>
                        <polygon id="Path" fill="#6C63FF" points="34.4743398 10.9491381 34.4743398 11.1362769 34.6609144 11.1362769 34.6609144 11.5106152 34.4743398 11.5106152 34.4743398 11.6977541 34.9408368 11.6977541 34.9408368 10.9491381"></polygon>
                        <rect id="Rectangle" fill="#6C63FF" x="34.4743429" y="14.5988148" width="1" height="1"></rect>
                        <polygon id="Path" fill="#6C63FF" points="34.4743398 13.3822462 34.4743398 13.569385 34.6609144 13.569385 34.6609144 13.9437233 34.4743398 13.9437233 34.4743398 14.1309228 34.9408368 14.1309228 34.9408368 13.3822462"></polygon>
                        <rect id="Rectangle" fill="#6C63FF" x="34.4743429" y="17.0319508" width="1" height="1"></rect>
                        <rect id="Rectangle" fill="#6C63FF" x="35.3140428" y="16.8447865" width="1" height="1"></rect>
                        <polygon id="Path" fill="#6C63FF" points="34.4743398 15.8153543 34.4743398 16.0025538 34.6609144 16.0025538 34.6609144 16.3768921 34.4743398 16.3768921 34.4743398 16.5640309 34.9408368 16.5640309 34.9408368 15.8153543"></polygon>
                        <polygon id="Path" fill="#6C63FF" points="36.2470402 15.8153543 36.2470402 16.0025538 36.4336148 16.0025538 36.4336148 16.3768921 36.2470402 16.3768921 36.2470402 16.5640309 36.7135371 16.5640309 36.7135371 15.8153543"></polygon>
                        <rect id="Rectangle" fill="#6C63FF" x="41.0053414" y="4.95985354" width="1" height="1"></rect>
                        <rect id="Rectangle" fill="#6C63FF" x="41.0053414" y="6.17642154" width="1" height="1"></rect>
                        <rect id="Rectangle" fill="#6C63FF" x="41.0053414" y="9.73254339" width="1" height="1"></rect>
                        <polygon id="Path" fill="#6C63FF" points="41.0053572 7.29938495 41.0053572 7.48658443 41.1919317 7.48658443 41.1919317 7.86092275 41.0053572 7.86092275 41.0053572 8.04806159 41.4718541 8.04806159 41.4718541 7.29938495"></polygon>
                        <polygon id="Path" fill="#6C63FF" points="41.0053572 10.9491381 41.0053572 11.1362769 41.1919317 11.1362769 41.1919317 11.5106152 41.0053572 11.5106152 41.0053572 11.6977541 41.4718541 11.6977541 41.4718541 10.9491381"></polygon>
                        <polygon id="Path" fill="#6C63FF" points="41.0053572 12.1656618 41.0053572 12.3528613 41.1919317 12.3528613 41.1919317 12.7271996 41.0053572 12.7271996 41.0053572 12.9143384 41.4718541 12.9143384 41.4718541 12.1656618"></polygon>
                        <polygon id="Path" fill="#6C63FF" points="41.0053572 8.42239991 41.0053572 8.60953874 41.1919317 8.60953874 41.1919317 8.98387706 41.0053572 8.98387706 41.0053572 9.17107654 41.4718541 9.17107654 41.4718541 8.42239991"></polygon>
                        <polygon id="Path" fill="#6C63FF" points="41.0053572 15.8153543 41.0053572 16.0025538 41.1919317 16.0025538 41.1919317 16.3768921 41.0053572 16.3768921 41.0053572 16.5640309 41.4718541 16.5640309 41.4718541 15.8153543"></polygon>
                        <rect id="Rectangle" fill="#6C63FF" x="34.4743429" y="19.4650862" width="1" height="1"></rect>
                        <rect id="Rectangle" fill="#6C63FF" x="35.3140428" y="18.0613545" width="1" height="1"></rect>
                        <rect id="Rectangle" fill="#6C63FF" x="34.4743429" y="22.6468794" width="1" height="1"></rect>
                        <rect id="Rectangle" fill="#6C63FF" x="35.3140428" y="20.4009077" width="1" height="1"></rect>
                        <polygon id="Path" fill="#6C63FF" points="34.4743398 18.248523 34.4743398 18.4356619 34.6609144 18.4356619 34.6609144 18.8100002 34.4743398 18.8100002 34.4743398 18.9971997 34.9408368 18.9971997 34.9408368 18.248523"></polygon>
                        <polygon id="Path" fill="#6C63FF" points="34.4743398 23.9570459 34.4743398 24.1441848 34.6609144 24.1441848 34.6609144 24.5185231 34.4743398 24.5185231 34.4743398 24.7056619 34.9408368 24.7056619 34.9408368 23.9570459"></polygon>
                        <rect id="Rectangle" fill="#6C63FF" x="39.6058416" y="3.8368677" width="1" height="1"></rect>
                        <rect id="Rectangle" fill="#6C63FF" x="39.6058416" y="9.73254339" width="1" height="1"></rect>
                        <rect id="Rectangle" fill="#6C63FF" x="39.6058416" y="21.80464" width="1" height="1"></rect>
                        <polygon id="Path" fill="#6C63FF" points="39.6058664 6.08286122 39.6058664 6.27000006 39.792441 6.27000006 39.792441 6.64433838 39.6058664 6.64433838 39.6058664 6.83147722 40.0723633 6.83147722 40.0723633 6.08286122"></polygon>
                        <polygon id="Path" fill="#6C63FF" points="39.6058664 7.29938495 39.6058664 7.48658443 39.792441 7.48658443 39.792441 7.86092275 39.6058664 7.86092275 39.6058664 8.04806159 40.0723633 8.04806159 40.0723633 7.29938495"></polygon>
                        <polygon id="Path" fill="#6C63FF" points="39.6058664 8.51596933 39.6058664 8.7031688 39.792441 8.7031688 39.792441 9.07744648 39.6058664 9.07744648 39.6058664 9.26464596 40.0723633 9.26464596 40.0723633 8.51596933"></polygon>
                        <rect id="Rectangle" fill="#6C63FF" x="39.6058416" y="12.1656788" width="1" height="1"></rect>
                        <polygon id="Path" fill="#6C63FF" points="39.6058664 10.9491381 39.6058664 11.1362769 39.792441 11.1362769 39.792441 11.5106152 39.6058664 11.5106152 39.6058664 11.6977541 40.0723633 11.6977541 40.0723633 10.9491381"></polygon>
                        <rect id="Rectangle" fill="#6C63FF" x="39.6058416" y="14.5988148" width="1" height="1"></rect>
                        <polygon id="Path" fill="#6C63FF" points="39.6058664 13.3822462 39.6058664 13.569385 39.792441 13.569385 39.792441 13.9437233 39.6058664 13.9437233 39.6058664 14.1309228 40.0723633 14.1309228 40.0723633 13.3822462"></polygon>
                        <rect id="Rectangle" fill="#6C63FF" x="39.6058416" y="17.0319508" width="1" height="1"></rect>
                        <polygon id="Path" fill="#6C63FF" points="39.6058664 15.8153543 39.6058664 16.0025538 39.792441 16.0025538 39.792441 16.3768921 39.6058664 16.3768921 39.6058664 16.5640309 40.0723633 16.5640309 40.0723633 15.8153543"></polygon>
                        <rect id="Rectangle" fill="#6C63FF" x="39.6058416" y="19.4650862" width="1" height="1"></rect>
                        <rect id="Rectangle" fill="#6C63FF" x="39.6058416" y="22.6468794" width="1" height="1"></rect>
                        <polygon id="Path" fill="#6C63FF" points="39.6058664 18.248523 39.6058664 18.4356619 39.792441 18.4356619 39.792441 18.8100002 39.6058664 18.8100002 39.6058664 18.9971997 40.0723633 18.9971997 40.0723633 18.248523"></polygon>
                        <polygon id="Path" fill="#6C63FF" points="39.6058664 23.9570459 39.6058664 24.1441848 39.792441 24.1441848 39.792441 24.5185231 39.6058664 24.5185231 39.6058664 24.7056619 40.0723633 24.7056619 40.0723633 23.9570459"></polygon>
                        <rect id="Rectangle" fill="#6C63FF" x="41.8450413" y="3.8368677" width="1" height="1"></rect>
                        <rect id="Rectangle" fill="#6C63FF" x="41.8450413" y="9.73254339" width="1" height="1"></rect>
                        <rect id="Rectangle" fill="#6C63FF" x="41.8450413" y="21.80464" width="1" height="1"></rect>
                        <polygon id="Path" fill="#6C63FF" points="41.8450637 6.08286122 41.8450637 6.27000006 42.0316383 6.27000006 42.0316383 6.64433838 41.8450637 6.64433838 41.8450637 6.83147722 42.3115606 6.83147722 42.3115606 6.08286122"></polygon>
                        <polygon id="Path" fill="#6C63FF" points="41.8450637 7.29938495 41.8450637 7.48658443 42.0316383 7.48658443 42.0316383 7.86092275 41.8450637 7.86092275 41.8450637 8.04806159 42.3115606 8.04806159 42.3115606 7.29938495"></polygon>
                        <polygon id="Path" fill="#6C63FF" points="41.8450637 8.51596933 41.8450637 8.7031688 42.0316383 8.7031688 42.0316383 9.07744648 41.8450637 9.07744648 41.8450637 9.26464596 42.3115606 9.26464596 42.3115606 8.51596933"></polygon>
                        <rect id="Rectangle" fill="#6C63FF" x="41.8450413" y="12.1656788" width="1" height="1"></rect>
                        <polygon id="Path" fill="#6C63FF" points="41.8450637 10.9491381 41.8450637 11.1362769 42.0316383 11.1362769 42.0316383 11.5106152 41.8450637 11.5106152 41.8450637 11.6977541 42.3115606 11.6977541 42.3115606 10.9491381"></polygon>
                        <rect id="Rectangle" fill="#6C63FF" x="41.8450413" y="14.5988148" width="1" height="1"></rect>
                        <polygon id="Path" fill="#6C63FF" points="41.8450637 13.3822462 41.8450637 13.569385 42.0316383 13.569385 42.0316383 13.9437233 41.8450637 13.9437233 41.8450637 14.1309228 42.3115606 14.1309228 42.3115606 13.3822462"></polygon>
                        <rect id="Rectangle" fill="#6C63FF" x="41.8450413" y="17.0319508" width="1" height="1"></rect>
                        <polygon id="Path" fill="#6C63FF" points="41.8450637 15.8153543 41.8450637 16.0025538 42.0316383 16.0025538 42.0316383 16.3768921 41.8450637 16.3768921 41.8450637 16.5640309 42.3115606 16.5640309 42.3115606 15.8153543"></polygon>
                        <rect id="Rectangle" fill="#6C63FF" x="41.8450413" y="19.4650862" width="1" height="1"></rect>
                        <rect id="Rectangle" fill="#6C63FF" x="41.8450413" y="22.6468794" width="1" height="1"></rect>
                        <polygon id="Path" fill="#6C63FF" points="41.8450637 18.248523 41.8450637 18.4356619 42.0316383 18.4356619 42.0316383 18.8100002 41.8450637 18.8100002 41.8450637 18.9971997 42.3115606 18.9971997 42.3115606 18.248523"></polygon>
                        <polygon id="Path" fill="#6C63FF" points="41.8450637 23.9570459 41.8450637 24.1441848 42.0316383 24.1441848 42.0316383 24.5185231 41.8450637 24.5185231 41.8450637 24.7056619 42.3115606 24.7056619 42.3115606 23.9570459"></polygon>
                        <polygon id="Path" fill="#6C63FF" points="35.3140464 22.6468921 35.3140464 22.834031 35.500621 22.834031 35.500621 23.2083693 35.3140464 23.2083693 35.3140464 23.3955081 35.7805433 23.3955081 35.7805433 22.6468921"></polygon>
                        <polygon id="Path" fill="#6C63FF" points="35.3140464 23.8634765 35.3140464 24.0506153 35.500621 24.0506153 35.500621 24.4249537 35.3140464 24.4249537 35.3140464 24.6120925 35.7805433 24.6120925 35.7805433 23.8634765"></polygon>
                        <polygon id="Path" fill="#6C63FF" points="32.8882141 9.7325537 32.8882141 9.91969254 33.0748491 9.91969254 33.0748491 10.2940309 32.8882141 10.2940309 32.8882141 10.4812303 33.3547714 10.4812303 33.3547714 9.7325537"></polygon>
                        <polygon id="Path" fill="#6C63FF" points="32.8882141 14.5052611 32.8882141 14.6924 33.0748491 14.6924 33.0748491 15.0667383 32.8882141 15.0667383 32.8882141 15.2538771 33.3547714 15.2538771 33.3547714 14.5052611"></polygon>
                        <polygon id="Path" fill="#6C63FF" points="32.8882141 15.7217849 32.8882141 15.9089843 33.0748491 15.9089843 33.0748491 16.2833227 32.8882141 16.2833227 32.8882141 16.4704615 33.3547714 16.4704615 33.3547714 15.7217849"></polygon>
                        <polygon id="Path" fill="#6C63FF" points="32.8882141 18.1549536 32.8882141 18.3420924 33.0748491 18.3420924 33.0748491 18.7164308 32.8882141 18.7164308 32.8882141 18.9035696 33.3547714 18.9035696 33.3547714 18.1549536"></polygon>
                        <polygon id="Path" fill="#6C63FF" points="32.8882141 21.6174466 32.8882141 21.8046461 33.0748491 21.8046461 33.0748491 22.1789844 32.8882141 22.1789844 32.8882141 22.3661232 33.3547714 22.3661232 33.3547714 21.6174466"></polygon>
                        <polygon id="Path" fill="#6C63FF" points="32.8882141 22.6468921 32.8882141 22.834031 33.0748491 22.834031 33.0748491 23.2083693 32.8882141 23.2083693 32.8882141 23.3955081 33.3547714 23.3955081 33.3547714 22.6468921"></polygon>
                        <rect id="Rectangle" fill="#6C63FF" x="37.7398425" y="4.02403201" width="1" height="1"></rect>
                        <rect id="Rectangle" fill="#6C63FF" x="37.7398425" y="5.24060001" width="1" height="1"></rect>
                        <rect id="Rectangle" fill="#6C63FF" x="37.5532425" y="6.55075016" width="1" height="1"></rect>
                        <rect id="Rectangle" fill="#6C63FF" x="37.5532425" y="12.5400074" width="1" height="1"></rect>
                        <rect id="Rectangle" fill="#6C63FF" x="37.5532425" y="13.5694111" width="1" height="1"></rect>
                        <polygon id="Path" fill="#6C63FF" points="37.7398183 7.39301501 37.7398183 7.58015385 37.9264533 7.58015385 37.9264533 7.95449217 37.7398183 7.95449217 37.7398183 8.14163101 38.2063152 8.14163101 38.2063152 7.39301501"></polygon>
                        <polygon id="Path" fill="#6C63FF" points="37.7398183 9.7325537 37.7398183 9.91969254 37.9264533 9.91969254 37.9264533 10.2940309 37.7398183 10.2940309 37.7398183 10.4812303 38.2063152 10.4812303 38.2063152 9.7325537"></polygon>
                        <polygon id="Path" fill="#6C63FF" points="37.7398183 14.5052611 37.7398183 14.6924 37.9264533 14.6924 37.9264533 15.0667383 37.7398183 15.0667383 37.7398183 15.2538771 38.2063152 15.2538771 38.2063152 14.5052611"></polygon>
                        <rect id="Rectangle" fill="#6C63FF" x="43.0579412" y="12.1656788" width="1" height="1"></rect>
                        <rect id="Rectangle" fill="#6C63FF" x="43.0579412" y="13.3822468" width="1" height="1"></rect>
                        <rect id="Rectangle" fill="#6C63FF" x="42.8713412" y="14.6923969" width="1" height="1"></rect>
                        <rect id="Rectangle" fill="#6C63FF" x="42.8713412" y="20.6816542" width="1" height="1"></rect>
                        <rect id="Rectangle" fill="#6C63FF" x="42.8713412" y="21.7110579" width="1" height="1"></rect>
                        <polygon id="Path" fill="#6C63FF" points="43.0579194 15.534646 43.0579194 15.7217849 43.2445544 15.7217849 43.2445544 16.0961232 43.0579194 16.0961232 43.0579194 16.2833227 43.5244163 16.2833227 43.5244163 15.534646"></polygon>
                        <polygon id="Path" fill="#6C63FF" points="43.0579194 17.8741847 43.0579194 18.0613842 43.2445544 18.0613842 43.2445544 18.4356619 43.0579194 18.4356619 43.0579194 18.6228613 43.5244163 18.6228613 43.5244163 17.8741847"></polygon>
                        <polygon id="Path" fill="#6C63FF" points="43.0579194 22.6468921 43.0579194 22.834031 43.2445544 22.834031 43.2445544 23.2083693 43.0579194 23.2083693 43.0579194 23.3955081 43.5244163 23.3955081 43.5244163 22.6468921"></polygon>
                        <rect id="Rectangle" fill="#2F2E41" x="12.9643725" y="42.8451023" width="50.0356275" height="1"></rect>
                        <path d="M23.3067084,24.5196456 L23.3067084,27.6729896 L23.7299171,29.6135089 C23.7299171,29.6135089 23.6694587,30.8263336 23.7299171,31.1901809 C23.7903755,31.5540283 23.6694587,32.1604406 23.3067084,32.1604406 C22.943958,32.1604406 22.7625829,33.0700591 22.7625829,33.0700591 C22.7625829,33.0700591 22.6416661,33.4339065 22.3393742,33.4945477 C22.0370822,33.5551889 22.0370822,33.4945477 22.0370822,33.4945477 L21.7952487,34.10096 L16.7772025,37.4362277 L17.7445367,39.8618769 C17.7445367,39.8618769 19.2559964,39.3161059 19.3769132,39.1341822 C19.4978299,38.9522585 20.5256225,39.3767471 20.5256225,38.9522585 C20.5256225,38.5277699 20.7069977,37.4362277 21.069748,37.3755865 C21.4324983,37.3149453 24.4554177,35.9201969 24.4554177,35.9201969 C24.4554177,35.9201969 26.0273358,34.1616013 26.1482526,33.4945477 C26.2691693,32.8274942 26.8132948,30.947616 26.8132948,30.947616 L28.3247545,33.4945477 L28.3247545,38.5884111 L28.082921,41.3172665 L30.74309,40.9534191 C30.74309,40.9534191 30.5012565,39.2554646 30.74309,39.0128997 C30.9849236,38.7703348 31.3476739,35.8595557 31.1058403,35.4957083 C30.8640068,35.1318609 31.2267571,33.4945477 31.1058403,33.2519828 C30.9849236,33.0094179 31.0453819,31.2508222 30.74309,30.7656923 C30.4407981,30.2805625 28.6270464,25.3079816 28.6270464,25.3079816 L23.3067084,24.5196456 Z" id="Path" fill="#2F2E41"></path>
                        <path d="M28.4456713,41.195984 C28.4456713,41.195984 27.5387955,42.7120148 28.1433793,42.8939385 C28.7479632,43.0758622 29.8966726,42.8939385 30.0175894,42.8939385 C30.1385061,42.8939385 32.3150081,42.9545797 32.3150081,42.9545797 C32.3150081,42.9545797 33.7660094,42.6513736 33.7660094,42.2268849 C33.7660094,41.8023963 32.8591336,41.8023963 32.5568416,41.7417551 C32.2545497,41.6811139 30.3803397,40.9534191 30.3803397,40.9534191 L28.4456713,41.195984 Z" id="Path" fill="#2F2E41"></path>
                        <path d="M17.0548589,37.5046413 C17.0548589,37.5046413 15.3074646,37.2725376 15.3813356,37.9012999 C15.4552067,38.5300621 16.0782165,39.515014 16.1262773,39.6263046 C16.1588263,39.7016768 16.540682,40.6558908 16.7837749,41.2639738 C16.9594823,41.7097402 17.2234697,42.1151477 17.5597849,42.4556983 C17.7974608,42.6939649 18.0565111,42.8849969 18.226413,42.8111814 C18.6147554,42.6424599 18.2543001,41.8077801 18.1896259,41.5054508 C18.1249518,41.2031215 18.0457404,39.1888794 18.0457404,39.1888794 L17.0548589,37.5046413 Z" id="Path" fill="#2F2E41"></path>
                        <path d="M29.2014011,14.4835219 L31.1360695,9.99607077 C31.1360695,9.99607077 30.9546944,9.57158216 30.5314857,9.63222339 C30.5314857,9.63222339 29.957131,8.14651323 28.86888,8.14651323 C28.86888,8.14651323 27.2365035,7.23689477 26.7528364,8.14651323 C26.7528364,8.14651323 25.7250439,9.0561317 25.7855022,9.90510893 C25.8459606,10.7540862 25.906419,11.3604985 25.906419,11.3604985 C25.906419,11.3604985 24.9390848,11.4817809 25.12046,11.9669108 C25.3018351,12.4520406 25.3622935,12.4520406 25.12046,12.6339643 L24.8786264,12.815888 C24.8786264,12.815888 19.8605803,17.3639803 22.6416661,24.0345157 L22.8834996,25.0654166 L22.8834996,26.0356763 C22.8834996,26.0356763 28.9897968,26.0963176 28.9897968,26.0356763 C28.9897968,25.9750351 28.86888,25.6111877 29.1107135,25.3686228 C29.3525471,25.1260579 29.3525471,24.7622105 29.3525471,24.7622105 C29.3525471,24.7622105 29.1107135,23.5493859 29.2316303,23.1855385 C29.3525471,22.8216911 29.4130055,21.2450191 29.1711719,20.8811717 C28.9293384,20.5173243 29.0502552,17.6065452 29.0502552,17.6065452 L29.5943806,16.5756443 L29.4130055,15.969232 L29.2316303,15.3628197 L29.2014011,14.4835219 Z" id="Path" fill="#8985A8"></path>
                        <path d="M28.6875048,26.6420886 C28.6875048,26.6420886 27.9620042,24.640928 28.0224626,24.2770806 C28.082921,23.9132332 27.9015458,23.1855385 27.9015458,23.1855385 L27.6597123,18.2735988 C27.6597123,18.2735988 28.6875048,13.9074302 26.3900861,13.1797354 C26.3900861,13.1797354 25.8087503,13.4341593 25.3324337,14.2529033 C24.8614163,14.4633374 24.2898657,14.9958954 24.1531258,16.3330794 C23.9112922,18.6980874 24.9995432,24.7622105 25.5436687,25.7931114 C26.0877942,26.8240123 26.4505445,27.5517071 26.4505445,27.5517071 L27.0192463,27.2981867 C27.0427302,27.3449108 27.0551284,27.3697834 27.0551284,27.3697834 L28.6875048,26.6420886 Z" id="Path" fill="#000000" opacity="0.1"></path>
                        <ellipse id="Oval" fill="#F2F2F2" cx="29.020026" cy="13.7558271" rx="1" ry="1"></ellipse>
                        <rect id="Rectangle" fill="#3F3D56" x="28.9595676" y="13.7558271" width="1" height="2.85013785"></rect>
                        <path d="M26.843524,26.8543329 L27.3271911,27.8852339 C27.3271911,27.8852339 28.4154421,27.5213865 28.4154421,27.3394628 C28.4154421,27.1575391 27.931775,26.3692031 27.931775,26.3692031 L26.843524,26.8543329 Z" id="Path" fill="#FFB8B8"></path>
                        <path d="M26.1482526,13.1797354 C26.1482526,13.1797354 24.7577097,13.7861477 24.5158761,16.1511557 C24.2740426,18.5161637 25.3622935,24.5802868 25.906419,25.6111877 C26.4505445,26.6420886 26.8132948,27.3697834 26.8132948,27.3697834 L28.4456713,26.6420886 C28.4456713,26.6420886 27.7201706,24.640928 27.780629,24.2770806 C27.8410874,23.9132332 27.6597123,23.1855385 27.6597123,23.1855385 L27.4178787,18.2735988 C27.4178787,18.2735988 28.4456713,13.9074302 26.1482526,13.1797354 Z" id="Path" fill="#8985A8"></path>
                    </g>
                </g>
            </g>
        </g>
    </g>
</svg>