<?xml version="1.0" encoding="UTF-8"?>
<svg width="255px" height="255px" viewBox="0 0 255 255" version="1.1" xmlns="http://www.w3.org/2000/svg" xmlns:xlink="http://www.w3.org/1999/xlink">
    <title>Group 4</title>
    <defs>
        <linearGradient x1="50.0011621%" y1="100.00118%" x2="50.0011621%" y2="-0.0158321861%" id="linearGradient-1">
            <stop stop-color="#808080" stop-opacity="0.25" offset="0%"></stop>
            <stop stop-color="#808080" stop-opacity="0.12" offset="54%"></stop>
            <stop stop-color="#808080" stop-opacity="0.1" offset="100%"></stop>
        </linearGradient>
    </defs>
    <g id="Page-1" stroke="none" stroke-width="1" fill="none" fill-rule="evenodd">
        <g id="Mining-Provider-Windows-Onboarding-Steps-06" transform="translate(-531.000000, -461.000000)">
            <g id="Group-4" transform="translate(531.000000, 461.000000)">
                <circle id="Oval" fill="#FFFFFF" cx="127.5" cy="127.5" r="127.5"></circle>
                <g id="undraw_server_status_5pbv" transform="translate(22.000000, 38.000000)">
                    <path d="M68.823938,97.7080155 C75.8024842,94.9756618 86.7570626,94.4184447 96.7281278,94.6373514 C128.048627,95.3199423 156.320635,101.960776 180.774532,109.473256 C189.62815,112.19367 198.343837,115.12503 204.090992,118.870324 C215.789203,126.494248 212.31892,137.055502 196.05297,143.336134 C190.51771,145.47346 183.80903,147.11725 176.920439,148.562035 C164.670502,151.145134 151.46104,153.216787 137.55992,153.813806 C127.648825,154.233708 117.613791,153.891418 107.760668,153.30435 C80.2282938,151.65857 53.2056677,148.042629 30.5548779,141.827668 C20.619795,139.107255 11.256429,135.724151 7.16645322,131.320146 C3.07647741,126.916141 5.69118335,121.33999 15.8361624,118.73301 C20.0340848,117.656387 25.0476036,117.168822 29.9591728,116.713098 C37.1875953,116.040458 44.5319605,115.375777 51.0547323,114.008605 C57.7933972,112.595662 65.7714487,109.863308 64.4381086,106.736922 C63.00082,103.381679 61.8533878,100.436389 68.823938,97.7080155 Z" id="Path" fill="#6C63FF" fill-rule="nonzero" opacity="0.1"></path>
                    <path d="M100.626199,5.99605383 L99.8645755,49.9764022 C99.8645755,49.9764022 127.434931,49.9764022 150.891322,57.5585346 L151.349095,13.1164921 C151.349095,13.1164921 113.725715,4.17713806 100.626199,5.99605383 Z" id="Path" fill="#000000" fill-rule="nonzero" opacity="0.1"></path>
                    <path d="M100.226396,5.39903552 L99.4647734,49.3793839 C99.4647734,49.3793839 127.035128,49.3793839 150.49152,56.9615163 L150.949293,12.5194738 C150.949293,12.5194738 113.325913,3.58011976 100.226396,5.39903552 Z" id="Path" fill="#F5F5FB" fill-rule="nonzero"></path>
                    <path d="M88.88401,5.96222279 L89.645633,49.9425711 C89.645633,49.9425711 62.075278,49.9425711 38.6188869,57.5247036 L38.1611135,13.0946015 C38.1611135,13.0946015 75.7844931,4.14330703 88.88401,5.96222279 Z" id="Path" fill="#000000" fill-rule="nonzero" opacity="0.1"></path>
                    <path d="M89.2838121,5.36520449 L90.0454352,49.3455528 C90.0454352,49.3455528 62.4750802,49.3455528 39.0186891,56.9276853 L38.5609156,12.4975832 C38.5609156,12.4975832 76.1842953,3.54628872 89.2838121,5.36520449 Z" id="Path" fill="#F5F5FB" fill-rule="nonzero"></path>
                    <path d="M158.003802,19.3871744 L158.003802,62.9078186 C158.003802,62.9078186 166.99935,61.8471161 185.878006,85.0472474 L187.555176,41.5266031 C187.555176,41.5266031 167.904901,20.449867 158.003802,19.3871744 Z" id="Path" fill="#000000" fill-rule="nonzero" opacity="0.1"></path>
                    <path d="M157.603999,18.9891622 L157.603999,62.5098064 C157.603999,62.5098064 166.599547,61.4491039 185.478204,84.6492352 L187.155374,41.1285909 C187.155374,41.1285909 167.505099,20.0518547 157.603999,18.9891622 Z" id="Path" fill="#F5F5FB" fill-rule="nonzero"></path>
                    <path d="M31.9961646,20.678724 L31.9961646,64.2013583 C31.9961646,64.2013583 23.0006167,63.1406558 4.12195998,86.340787 L2.44678905,42.8201428 C2.44678905,42.8201428 22.0950648,21.7434066 31.9961646,20.678724 Z" id="Path" fill="#000000" fill-rule="nonzero" opacity="0.1"></path>
                    <path d="M32.3959668,20.0817057 L32.3959668,63.60434 C32.3959668,63.60434 23.4004188,62.5436375 4.52176211,85.7437687 L2.84659118,42.2231245 C2.84659118,42.2231245 22.494867,21.1463883 32.3959668,20.0817057 Z" id="Path" fill="#F5F5FB" fill-rule="nonzero"></path>
                    <path d="M133.545906,93.4691856 C133.545906,94.951781 124.088587,103.518994 102.561241,103.518994 C81.0338951,103.518994 69.377664,95.2502902 69.377664,93.7676947 C69.377664,92.2850993 81.4336973,95.9567618 102.961043,95.9567618 C124.488389,95.9567618 133.545906,91.9846001 133.545906,93.4691856 Z" id="Path" fill="#F7F7FD" fill-rule="nonzero"></path>
                    <ellipse id="Oval" fill="#6C63FF" fill-rule="nonzero" opacity="0.1" cx="63.190726" cy="72.73673" rx="2.29086622" ry="1"></ellipse>
                    <ellipse id="Oval" fill="#6C63FF" fill-rule="nonzero" opacity="0.1" cx="54.4170682" cy="73.6223071" rx="2.29086622" ry="1"></ellipse>
                    <ellipse id="Oval" fill="#6C63FF" fill-rule="nonzero" opacity="0.1" cx="44.0861811" cy="72.4242904" rx="2.29086622" ry="1"></ellipse>
                    <ellipse id="Oval" fill="#6C63FF" fill-rule="nonzero" opacity="0.1" cx="57.9293299" cy="76.1437144" rx="1.62719468" ry="1"></ellipse>
                    <ellipse id="Oval" fill="#6C63FF" fill-rule="nonzero" opacity="0.1" cx="48.8238364" cy="75.9208276" rx="1.62719468" ry="1"></ellipse>
                    <path d="M54.3690919,73.552655 C54.3690919,73.552655 57.5795031,63.0710036 53.8653412,58.873965 C51.0867164,55.7336487 47.9282796,56.10181 46.5289721,56.4998222 C45.7892787,56.695785 45.1732346,57.2050379 44.8438061,57.8928649 C44.3500505,58.9535674 44.444004,60.6789503 47.9262806,62.6849318 C53.7613927,66.0481349 54.1232136,70.6630864 54.1232136,70.6630864 L54.3690919,73.552655 Z" id="Path" fill="#6C63FF" fill-rule="nonzero"></path>
                    <path d="M47.0247268,57.9844077 C47.0247268,57.9844077 56.4920413,60.931688 54.3690919,73.552655" id="Path" stroke="#565987" stroke-width="0.5"></path>
                    <path d="M52.5539903,59.0411301 C52.5539903,59.0411301 51.2506353,59.9147669 51.6644305,61.2301972" id="Path" stroke="#565987" stroke-width="0.5"></path>
                    <path d="M47.9742568,59.8192439 C47.9742568,59.8192439 48.7738611,59.0112792 49.7393832,59.4570528" id="Path" stroke="#565987" stroke-width="0.5"></path>
                    <path d="M51.7263998,63.8769783 C51.7263998,63.8769783 53.1257073,63.1705067 53.4875282,64.0560838" id="Path" stroke="#565987" stroke-width="0.5"></path>
                    <path d="M55.1786912,65.3516135 C55.1786912,65.3516135 54.1272116,65.268031 54.1092205,65.7675363" id="Path" stroke="#565987" stroke-width="0.5"></path>
                    <path d="M54.4990276,73.6362375 C54.4990276,73.6362375 50.7368896,66.018284 49.701402,66.1854491 C49.2116444,66.2650516 48.9857562,66.7446563 48.8818077,67.2282411 C48.7532317,67.8521459 48.8231029,68.5004303 49.0817087,69.0829779 C49.6234406,70.3008953 51.0567313,72.6193164 54.4990276,73.6362375 Z" id="Path" fill="#6C63FF" fill-rule="nonzero"></path>
                    <path d="M49.7273892,67.6302334 C49.7273892,67.6302334 53.6754352,73.3297681 54.4390573,73.5805158" id="Path" stroke="#565987" stroke-width="0.5"></path>
                    <line x1="49.3695663" y1="68.5197907" x2="50.2911102" y2="68.5197907" id="Path" stroke="#565987" stroke-width="0.5"></line>
                    <line x1="50.4730202" y1="70.6053746" x2="51.9163059" y2="70.6670665" id="Path" stroke="#565987" stroke-width="0.5"></line>
                    <line x1="51.3525848" y1="68.9377035" x2="51.194663" y2="69.6859664" id="Path" stroke="#565987" stroke-width="0.5"></line>
                    <line x1="52.887825" y1="71.2163233" x2="52.8598389" y2="71.8969242" id="Path" stroke="#565987" stroke-width="0.5"></line>
                    <path d="M54.387083,73.6362375 C54.387083,73.6362375 58.1472221,66.018284 59.1847086,66.1854491 C59.6764652,66.2650516 59.9023534,66.7446563 60.004303,67.2282411 C60.1319444,67.85219 60.0621038,68.5001898 59.8044019,69.0829779 C59.26267,70.3008953 57.8293794,72.6193164 54.387083,73.6362375 Z" id="Path" fill="#6C63FF" fill-rule="nonzero"></path>
                    <path d="M59.1527244,67.6302334 C59.1527244,67.6302334 55.2046784,73.3297681 54.4430553,73.5805158" id="Path" stroke="#565987" stroke-width="0.5"></path>
                    <line x1="59.5165444" y1="68.5197907" x2="58.5950005" y2="68.5197907" id="Path" stroke="#565987" stroke-width="0.5"></line>
                    <line x1="58.4130905" y1="70.6053746" x2="56.9678058" y2="70.6670665" id="Path" stroke="#565987" stroke-width="0.5"></line>
                    <line x1="57.5335258" y1="68.9377035" x2="57.6914476" y2="69.6859664" id="Path" stroke="#565987" stroke-width="0.5"></line>
                    <line x1="55.9982856" y1="71.2163233" x2="56.0262718" y2="71.8969242" id="Path" stroke="#565987" stroke-width="0.5"></line>
                    <path d="M47.9282796,75.4153521 C47.8257468,75.3320087 47.7511395,75.2195575 47.7143854,75.0929622 C47.6796513,74.9624879 47.7424536,74.825775 47.8643112,74.7665922 C48.000244,74.7128605 48.1481708,74.8083835 48.2641134,74.9039064 C48.3601995,75.016604 48.4995301,75.0837901 48.6479234,75.0889821 C48.4956416,74.9514203 48.426654,74.7446295 48.4660135,74.5437054 C48.4737863,74.5028414 48.4916472,74.4645438 48.5179877,74.4322619 C48.5939501,74.3506694 48.7318819,74.3864905 48.8238364,74.4501725 C49.1136929,74.6491786 49.1936533,75.0471908 49.1956523,75.3994316 C49.2112744,75.2672166 49.2112744,75.1336344 49.1956523,75.0014194 C49.1835808,74.8686143 49.2391164,74.7386152 49.3435791,74.6551488 C49.412293,74.6182841 49.4894291,74.599772 49.5674683,74.6014171 C49.6986264,74.582781 49.8315708,74.6203885 49.9332873,74.7049003 C50.0315753,74.8399172 50.0258229,75.0239907 49.9192942,75.152664 C49.8114156,75.2734668 49.6836496,75.3750874 49.5414812,75.4531632 C49.4327569,75.5167593 49.3403703,75.6046446 49.2716147,75.7098811 C49.2629276,75.7241808 49.2562044,75.739575 49.2516246,75.7556525 L48.4320303,75.7556525 C48.2501662,75.6641656 48.0808633,75.5497958 47.9282796,75.4153521 Z" id="Path" fill="#6C63FF" fill-rule="nonzero"></path>
                    <path d="M62.261186,72.346678 C62.1587993,72.2640342 62.084179,72.1522578 62.0472919,72.0262782 C62.0123151,71.8952452 62.0750518,71.7578424 62.1972177,71.6979181 C62.3459733,71.669108 62.498779,71.7223506 62.5970198,71.8372224 C62.6926814,71.9501976 62.8324464,72.0168685 62.9808299,72.020308 C62.8282051,71.8829688 62.7591519,71.6759812 62.7989199,71.4750313 C62.8057689,71.4344718 62.8237573,71.3965897 62.8508942,71.3655779 C62.9268566,71.2839854 63.0647883,71.3178165 63.1567428,71.3814984 C63.4465993,71.5805045 63.5265598,71.9785167 63.5285588,72.3327476 C63.5440352,72.2005242 63.5440352,72.0669588 63.5285588,71.9347354 C63.5164873,71.8019303 63.5720229,71.6719312 63.6764856,71.5884648 C63.745013,71.551303 63.8224105,71.5334162 63.9003748,71.5367232 C64.0316017,71.5170429 64.1649702,71.5547703 64.2661937,71.6402063 C64.3648757,71.7743766 64.3591052,71.9582056 64.2522006,72.08598 C64.144322,72.2067828 64.016556,72.3084034 63.8743876,72.3864792 C63.7660962,72.450644 63.6738278,72.5384169 63.6045212,72.6431971 C63.595834,72.6574968 63.5891108,72.6728909 63.5845311,72.6889685 L62.7649367,72.6889685 C62.5825424,72.5975701 62.4131453,72.4824676 62.261186,72.346678 L62.261186,72.346678 Z" id="Path" fill="#6C63FF" fill-rule="nonzero"></path>
                    <path d="M57.4835505,75.4153521 C57.3810178,75.3320087 57.3064104,75.2195575 57.2696564,75.0929622 C57.2357438,74.9625587 57.2983157,74.8263473 57.4195822,74.7665922 C57.5575139,74.7128605 57.7034417,74.8083835 57.8193843,74.9039064 C57.9156252,75.0164049 58.054862,75.0835459 58.2031944,75.0889821 C58.0512994,74.9512227 57.9830258,74.744298 58.0232834,74.5437054 C58.0294038,74.5027105 58.0466877,74.464168 58.0732587,74.4322619 C58.1492211,74.3506694 58.2871528,74.3864905 58.3791073,74.4501725 C58.6689639,74.6491786 58.7509233,75.0471908 58.7529223,75.3994316 C58.7674987,75.2671577 58.7674987,75.1336933 58.7529223,75.0014194 C58.7408508,74.8686143 58.7963864,74.7386152 58.9008491,74.6551488 C59.0925214,74.5672944 59.3164693,74.5861881 59.4905572,74.7049003 C59.59029,74.8394721 59.5845069,75.0245244 59.4765642,75.152664 C59.3690987,75.2738995 59.2412523,75.3755841 59.0987512,75.4531632 C58.9908323,75.517815 58.898663,75.6054936 58.8288847,75.7098811 C58.8210286,75.724594 58.8143447,75.7398982 58.8088946,75.7556525 L57.9912992,75.7556525 C57.8078178,75.6648319 57.6371092,75.5504205 57.4835505,75.4153521 L57.4835505,75.4153521 Z" id="Path" fill="#6C63FF" fill-rule="nonzero"></path>
                    <path d="M43.9302583,69.214322 C43.9302583,69.214322 43.6244096,69.6123342 44.072188,70.2093525 C44.5199664,70.8063708 44.8917824,71.3217966 44.7418566,71.6979181 C44.7418566,71.6979181 44.064192,70.5775138 43.514464,70.5615933 C42.9647361,70.5456728 43.3305551,69.8869626 43.9302583,69.214322 Z" id="Path" fill="#6C63FF" fill-rule="nonzero"></path>
                    <path d="M43.9302583,69.214322 C43.9034377,69.2528033 43.8825501,69.2950622 43.8682889,69.3396958 C43.3305551,69.966565 43.0446965,70.553633 43.5604413,70.5675635 C44.0422029,70.5814939 44.6199169,71.4392102 44.7598477,71.6541368 C44.7557201,71.6710803 44.7503757,71.6877069 44.7438556,71.7038883 C44.7438556,71.7038883 44.066191,70.5834839 43.5164631,70.5675635 C42.9667351,70.551643 43.3305551,69.8869626 43.9302583,69.214322 Z" id="Path" fill="#000000" fill-rule="nonzero" opacity="0.1"></path>
                    <path d="M43.3665373,69.7217875 C43.3665373,69.8630819 43.3825293,69.9765153 43.4025195,69.9765153 C43.4225096,69.9765153 43.4365026,69.8630819 43.4365026,69.7217875 C43.4365026,69.5804932 43.4185115,69.6481553 43.3985214,69.6481553 C43.3785313,69.6481553 43.3665373,69.5824833 43.3665373,69.7217875 Z" id="Path" fill="#FFD037" fill-rule="nonzero"></path>
                    <path d="M43.1706342,69.8909427 C43.2945729,69.9586048 43.4025195,69.998406 43.4125145,69.9804955 C43.4225096,69.9625849 43.3285561,69.8949228 43.2126134,69.8292508 C43.0966708,69.7635788 43.136651,69.8093502 43.128655,69.8292508 C43.1206589,69.8491514 43.0466956,69.8332309 43.1706342,69.8909427 Z" id="Path" fill="#FFD037" fill-rule="nonzero"></path>
                    <path d="M45.5574529,69.214322 C45.5574529,69.214322 45.8653006,69.6123342 45.4155232,70.2093525 C44.9657458,70.8063708 44.5979278,71.3217966 44.7478536,71.6979181 C44.7478536,71.6979181 45.4235192,70.5775138 45.9752462,70.5615933 C46.5269731,70.5456728 46.1631532,69.8869626 45.5574529,69.214322 Z" id="Path" fill="#6C63FF" fill-rule="nonzero"></path>
                    <path d="M45.5574529,69.214322 C45.5842735,69.2528033 45.6051611,69.2950622 45.6194223,69.3396958 C46.1571561,69.966565 46.4430147,70.553633 45.9272699,70.5675635 C45.4455083,70.5814939 44.8697933,71.4392102 44.7278635,71.6541368 C44.7319911,71.6710803 44.7373355,71.6877069 44.7438556,71.7038883 C44.7438556,71.7038883 45.4195212,70.5834839 45.9712481,70.5675635 C46.5229751,70.551643 46.1631532,69.8869626 45.5574529,69.214322 Z" id="Path" fill="#000000" fill-rule="nonzero" opacity="0.1"></path>
                    <path d="M46.12917,69.7217875 C46.12917,69.8630819 46.1151769,69.9765153 46.0951868,69.9765153 C46.0751967,69.9765153 46.0592046,69.8630819 46.0592046,69.7217875 C46.0592046,69.5804932 46.0791947,69.6481553 46.0991848,69.6481553 C46.1191749,69.6481553 46.12917,69.5824833 46.12917,69.7217875 Z" id="Path" fill="#FFD037" fill-rule="nonzero"></path>
                    <path d="M46.3290711,69.8909427 C46.2051324,69.9586048 46.0971858,69.998406 46.0891898,69.9804955 C46.0811937,69.9625849 46.1711492,69.8949228 46.2890908,69.8292508 C46.4070325,69.7635788 46.3650532,69.8093502 46.3750483,69.8292508 C46.3850434,69.8491514 46.4470127,69.8332309 46.3290711,69.8909427 Z" id="Path" fill="#FFD037" fill-rule="nonzero"></path>
                    <path d="M46.0312185,71.6521467 C46.0312185,71.6521467 45.1716439,71.6262759 44.9137715,71.4431903 C44.6558991,71.2601047 43.5944245,71.0451781 43.5304561,71.3337369 C43.4664878,71.6222958 42.2410943,72.7964318 43.2086154,72.804392 C44.1761366,72.8123523 45.4595014,72.6531474 45.7173738,72.4979226 C45.9752462,72.3426979 46.0312185,71.6521467 46.0312185,71.6521467 Z" id="Path" fill="#A8A8A8" fill-rule="nonzero"></path>
                    <path d="M43.1926233,72.7009089 C44.1601445,72.7009089 45.4435093,72.5516543 45.7013817,72.3944395 C45.9012828,72.2750358 45.9752462,71.8471727 46.0012333,71.6501567 L46.0312185,71.6501567 C46.0312185,71.6501567 45.9752462,72.3387178 45.7173738,72.4959326 C45.4595014,72.6531474 44.1781356,72.8103622 43.2086154,72.802402 C42.9307529,72.802402 42.8328014,72.7009089 42.8387984,72.5536443 C42.8767796,72.6451872 42.9847262,72.6989188 43.1926233,72.7009089 Z" id="Path" fill="#000000" fill-rule="nonzero" opacity="0.2"></path>
                    <ellipse id="Oval" fill="#6C63FF" fill-rule="nonzero" opacity="0.1" cx="39.0146911" cy="98.7846385" rx="6.94056501" ry="1.0209013"></ellipse>
                    <ellipse id="Oval" fill="#6C63FF" fill-rule="nonzero" opacity="0.1" cx="58.4010964" cy="107.238418" rx="6.94056501" ry="1.0209013"></ellipse>
                    <ellipse id="Oval" fill="#6C63FF" fill-rule="nonzero" opacity="0.1" cx="29.8832104" cy="116.856383" rx="6.94056501" ry="1.0209013"></ellipse>
                    <ellipse id="Oval" fill="#6C63FF" fill-rule="nonzero" opacity="0.1" cx="176.94043" cy="137.98287" rx="6.94056501" ry="1.0209013"></ellipse>
                    <ellipse id="Oval" fill="#6C63FF" fill-rule="nonzero" opacity="0.1" cx="98.1694145" cy="114.49219" rx="4.59572551" ry="1"></ellipse>
                    <ellipse id="Oval" fill="#6C63FF" fill-rule="nonzero" opacity="0.1" cx="163.936865" cy="88.2233848" rx="4.59572551" ry="1"></ellipse>
                    <ellipse id="Oval" fill="#6C63FF" fill-rule="nonzero" opacity="0.1" cx="128.152575" cy="127.029574" rx="4.59572551" ry="1"></ellipse>
                    <ellipse id="Oval" fill="#6C63FF" fill-rule="nonzero" opacity="0.1" cx="88.4842079" cy="123.654431" rx="4.59572551" ry="1"></ellipse>
                    <ellipse id="Oval" fill="#6C63FF" fill-rule="nonzero" opacity="0.1" cx="51.3086066" cy="122.32706" rx="4.59572551" ry="1"></ellipse>
                    <ellipse id="Oval" fill="#6C63FF" fill-rule="nonzero" opacity="0.1" cx="41.621401" cy="131.489301" rx="4.59572551" ry="1"></ellipse>
                    <g id="Group" opacity="0.1" transform="translate(70.810951, 34.151437)" fill="#000000" fill-rule="nonzero">
                        <ellipse id="Oval" cx="30.8987112" cy="13.5105242" rx="30.4089502" ry="13.5105242"></ellipse>
                        <path d="M61.8354002,18.3404023 C60.490066,25.3852183 47.1966451,30.9155978 30.9926647,30.9155978 C14.6467545,30.9155978 1.26137915,25.2877053 0.113947032,18.1573167 L3.42402512e-06,18.1573167 L3.42402512e-06,29.6379786 C5.34535793,35.1982091 17.179501,39.0648977 30.9167023,39.0648977 C44.6539035,39.0648977 56.4880467,35.1982091 61.8354002,29.6379786 L61.8354002,18.3404023 Z" id="Path"></path>
                        <path d="M61.8354002,32.3106306 C60.490066,39.3534565 47.1966451,44.8858261 30.9926647,44.8858261 C14.6467545,44.8858261 1.26137915,39.2579336 0.113947032,32.1255549 L3.42402512e-06,32.1255549 L3.42402512e-06,43.6082069 C5.34535793,49.1684374 17.179501,53.0331359 30.9167023,53.0331359 C44.6539035,53.0331359 56.4880467,49.1684374 61.8354002,43.6082069 L61.8354002,32.3106306 Z" id="Path"></path>
                        <path d="M61.8354036,47.6758916 C60.490066,54.7207076 47.1966451,60.2510872 30.9926647,60.2510872 C14.6467545,60.2510872 1.26137915,54.6251847 0.113947032,47.492806 L0,47.492806 L0,59.8749656 C-0.00100837304,60.4083711 0.222259526,60.9178563 0.615698707,61.2799487 C6.21292856,66.3963956 17.6852507,68.400387 30.9167023,68.400387 C44.1481539,68.400387 55.614479,66.3963956 61.2197049,61.2799487 C61.6131441,60.9178563 61.836412,60.4083711 61.8354036,59.8749656 L61.8354036,47.6758916 Z" id="Path"></path>
                    </g>
                    <ellipse id="Oval" fill="#6C63FF" fill-rule="nonzero" cx="101.709662" cy="46.8659368" rx="30.4089502" ry="13.5105242"></ellipse>
                    <path d="M132.646351,51.6958149 C131.301017,58.7406309 118.007596,64.2710104 101.803616,64.2710104 C85.4577057,64.2710104 72.0723303,58.6431179 70.9248982,51.5127293 L70.8109546,51.5127293 L70.8109546,62.9933913 C76.1563091,68.5536217 87.9904522,72.4203103 101.727653,72.4203103 C115.464855,72.4203103 127.298998,68.5536217 132.646351,62.9933913 L132.646351,51.6958149 Z" id="Path" fill="#6C63FF" fill-rule="nonzero"></path>
                    <path d="M132.646351,65.6660432 C131.301017,72.7088691 118.007596,78.2412387 101.803616,78.2412387 C85.4577057,78.2412387 72.0723303,72.6133462 70.9248982,65.4809675 L70.8109546,65.4809675 L70.8109546,76.9636196 C76.1563091,82.52385 87.9904522,86.3885485 101.727653,86.3885485 C115.464855,86.3885485 127.298998,82.52385 132.646351,76.9636196 L132.646351,65.6660432 Z" id="Path" fill="#6C63FF" fill-rule="nonzero"></path>
                    <path d="M132.646355,81.0313043 C131.301017,88.0761202 118.007596,93.6064998 101.803616,93.6064998 C85.4577057,93.6064998 72.0723303,87.9805973 70.9248982,80.8482186 L70.8109512,80.8482186 L70.8109512,93.2303783 C70.8099428,93.7637837 71.0332107,94.2732689 71.4266499,94.6353613 C77.0238797,99.7518082 88.4962019,101.7558 101.727653,101.7558 C114.959105,101.7558 126.42543,99.7518082 132.030656,94.6353613 C132.424095,94.2732689 132.647363,93.7637837 132.646355,93.2303783 L132.646355,81.0313043 Z" id="Path" fill="#6C63FF" fill-rule="nonzero"></path>
                    <ellipse id="Oval" fill="#6C63FF" fill-rule="nonzero" opacity="0.1" cx="146.533478" cy="113.682235" rx="11.3943608" ry="2.0418026"></ellipse>
                    <path d="M140.136644,87.6661677 C140.712359,88.004478 141.615912,88.2253748 142.753349,87.4970125 L142.743354,89.110952 C142.823315,90.2174259 144.198634,94.2512796 144.198634,94.2512796 L145.168154,97.5687113 C145.864007,99.9131941 146.222729,102.343992 146.233627,104.788653 C146.233627,105.596617 146.309589,106.432443 146.543473,107.061302 C147.061217,108.454345 146.343572,110.2454 146.029728,110.9061 C145.5048,111.082802 144.971012,111.232258 144.430519,111.353864 C144.382322,111.365437 144.334916,111.380061 144.288589,111.397645 L144.288589,111.387695 C144.288589,111.387695 142.83331,111.962823 142.18563,111.88322 C141.703869,111.825508 141.402018,112.424517 141.785828,112.86432 C141.472564,112.959515 141.145658,113.002549 140.818307,112.991684 C140.170627,112.912082 139.846788,114.018556 141.060187,114.334975 C142.273587,114.651395 149.148184,114.334975 149.148184,114.334975 C149.54529,114.136987 149.757457,113.696543 149.663929,113.264322 L150.523504,113.228501 C150.523504,113.228501 151.736903,112.675264 150.523504,111.172768 L150.457536,111.22053 L150.199664,110.460326 L150.199664,109.435445 C150.199664,109.435445 151.736903,102.072219 151.251144,101.210523 C150.765384,100.348826 150.507512,95.9030302 150.507512,95.9030302 L150.677428,91.0870825 C151.115211,90.187575 151.3391,88.7746317 151.453044,87.6701478 C151.618613,87.1438505 151.722583,86.6002808 151.76289,86.0502381 C151.78288,85.7895401 151.798872,85.5188918 151.808868,85.2363032 C151.815576,84.6163076 151.71551,83.9997525 151.513014,83.4134073 C152.061754,82.6031 152.674741,81.8378013 153.346107,81.1248371 C153.912898,80.5999511 154.185479,79.8319631 154.075746,79.0691041 L153.675944,76.3805317 L152.704424,71.8033913 C152.826364,70.5317424 152.560496,69.7993999 152.264642,69.3854672 C152.334607,68.9735246 152.400575,68.563572 152.45055,68.1496393 C152.664405,66.3555743 152.568401,64.5383103 152.16669,62.7764746 C152.02676,62.1635358 151.834855,61.5326865 151.401069,61.0670122 C150.911312,60.537656 150.115706,60.2172561 149.931797,59.526705 C149.905853,59.3506782 149.868459,59.1765134 149.819852,59.005309 C149.64194,58.5535651 149.082217,58.3883901 148.59046,58.3286882 C147.714894,58.223215 146.44952,58.1436126 145.607936,58.4859031 C144.869362,58.8110049 144.261348,59.3728617 143.880791,60.081932 C143.691326,60.3732719 143.61989,60.7252998 143.68089,61.0670122 C143.710822,61.1856252 143.757248,61.2994953 143.818822,61.4053226 C143.235811,62.9788258 144.032476,64.726481 145.605937,65.3257428 C145.625928,65.3874346 145.643919,65.4471365 145.657912,65.5048482 C145.694897,65.6467089 145.721619,65.7910265 145.737872,65.9366915 C145.72188,66.2153 145.703889,66.4958986 145.691895,66.7764972 L145.66191,66.8899307 C144.965995,67.1966475 144.287331,67.5407717 143.628916,67.9207823 C144.112677,68.6332242 143.546956,71.6382163 143.546956,71.6382163 C142.333557,72.3486681 141.122157,74.1675838 142.415516,76.066102 C143.708876,77.9646202 142.981236,80.0183632 142.981236,80.0183632 L142.781335,83.110918 L142.781335,83.110918 L142.781335,83.110918 L142.741355,83.729827 L142.755348,83.729827 L142.741355,83.9646542 L142.775338,83.9646542 L142.775338,84.2173919 C142.207619,84.4263483 141.376031,84.8442612 140.882275,85.6203849 C140.648328,86.0009368 140.363905,86.3483473 140.036694,86.6532266 C139.881964,86.785077 139.80165,86.9838331 139.821561,87.1856226 C139.841472,87.3874121 139.9591,87.566811 140.136644,87.6661677 L140.136644,87.6661677 Z M149.901811,79.4511958 C149.853061,78.9160104 149.952622,78.3777615 150.189669,77.8949681 L150.761386,77.8949681 C150.778238,78.0207921 150.801591,78.1456681 150.831351,78.2690996 C150.99527,78.9755712 150.339595,79.3079114 149.901811,79.4511958 L149.901811,79.4511958 Z" id="Shape" fill="url(#linearGradient-1)" fill-rule="nonzero"></path>
                    <path d="M150.061732,110.098135 L150.373578,111.027494 L149.362078,112.034465 L146.015735,112.818549 L143.602929,112.585712 L143.758852,111.733966 L143.758852,111.733966 C143.852536,111.360336 144.147965,111.07007 144.524473,110.981722 C145.523978,110.750875 147.407046,110.221519 147.804849,109.487187 L150.061732,110.098135 Z" id="Path" fill="#DB8B8B" fill-rule="nonzero"></path>
                    <path d="M150.061732,110.098135 L150.373578,111.027494 L149.362078,112.034465 L146.015735,112.818549 L143.602929,112.585712 L143.758852,111.733966 L143.758852,111.733966 C143.852536,111.360336 144.147965,111.07007 144.524473,110.981722 C145.523978,110.750875 147.407046,110.221519 147.804849,109.487187 L150.061732,110.098135 Z" id="Path" fill="#000000" fill-rule="nonzero" opacity="0.1"></path>
                    <path d="M144.380544,112.344914 L144.848312,111.726005 L144.380544,111.007593 C144.380544,111.007593 142.981236,111.570781 142.357545,111.493168 C141.733854,111.415556 141.424007,112.500139 142.591429,112.810589 C143.758852,113.121038 150.373578,112.810589 150.373578,112.810589 C150.373578,112.810589 151.541,112.267302 150.373578,110.794657 L149.362078,111.570781 C149.362078,111.570781 147.648926,112.500139 146.79335,112.344914 L144.380544,112.344914 Z" id="Path" fill="#C17174" fill-rule="nonzero"></path>
                    <path d="M142.281583,113.662335 L144.694389,113.895172 L148.040732,113.119048 L149.052232,112.112077 L148.970272,111.8673 L148.85433,111.521029 L148.740386,111.182719 L146.479505,110.56381 C146.364795,110.749252 146.208008,110.905337 146.021732,111.019534 C145.288095,111.519039 143.972746,111.87924 143.199129,112.058345 C143.166521,112.066187 143.134467,112.076159 143.103176,112.088196 C142.952669,112.135887 142.815658,112.218408 142.703374,112.328994 C142.568306,112.460928 142.472788,112.627681 142.427511,112.810589 L142.281583,113.662335 Z" id="Path" fill="#DB8B8B" fill-rule="nonzero"></path>
                    <path d="M142.281583,113.662335 L144.694389,113.895172 L148.040732,113.119048 L149.052232,112.112077 L148.970272,111.8673 L148.040732,112.577751 C148.040732,112.577751 146.32758,113.50711 145.472004,113.351885 L143.057199,113.351885 L143.524967,112.732976 L143.105175,112.088196 C142.954668,112.135887 142.817657,112.218408 142.705373,112.328994 C142.570305,112.460928 142.474787,112.627681 142.42951,112.810589 L142.281583,113.662335 Z" id="Path" fill="#000000" fill-rule="nonzero" opacity="0.1"></path>
                    <path d="M143.057199,113.429498 L143.524967,112.810589 L143.057199,112.092177 C143.057199,112.092177 141.657891,112.655364 141.0342,112.577751 C140.410509,112.500139 140.100662,113.584722 141.268084,113.895172 C142.435507,114.205621 149.050233,113.895172 149.050233,113.895172 C149.050233,113.895172 150.217655,113.351885 149.050233,111.88123 L148.038733,112.655364 C148.038733,112.655364 146.325581,113.584722 145.470005,113.429498 L143.057199,113.429498 Z" id="Path" fill="#C17174" fill-rule="nonzero"></path>
                    <path d="M145.002236,68.4939199 C145.002236,68.4939199 148.738387,68.8919321 148.200653,67.3317243 C148.047036,66.8922901 148.00716,66.4213972 148.084711,65.9625623 C148.18089,65.3945619 148.406559,64.8560629 148.744384,64.388424 L145.242118,64.9297206 C145.45263,65.2791642 145.612784,65.6563184 145.717882,66.050125 C146.127679,67.6939154 145.002236,68.4939199 145.002236,68.4939199 Z" id="Path" fill="#DB8B8B" fill-rule="nonzero"></path>
                    <path d="M151.385077,86.1517312 C151.385077,86.1517312 151.307116,89.4830934 150.529501,91.1109633 L150.373578,95.8373582 C150.373578,95.8373582 150.605463,100.175691 151.073232,101.027437 C151.541,101.879183 150.061732,109.085194 150.061732,109.085194 L150.061732,110.325002 C150.061732,110.325002 147.570965,111.254361 146.863315,110.169778 L147.562969,100.949825 L147.251123,88.167663 L151.385077,86.1517312 Z" id="Path" fill="#474463" fill-rule="nonzero"></path>
                    <path d="M151.385077,86.1517312 C151.385077,86.1517312 151.307116,89.4830934 150.529501,91.1109633 L150.373578,95.8373582 C150.373578,95.8373582 150.605463,100.175691 151.073232,101.027437 C151.541,101.879183 150.061732,109.085194 150.061732,109.085194 L150.061732,110.325002 C150.061732,110.325002 147.570965,111.254361 146.863315,110.169778 L147.562969,100.949825 L147.251123,88.167663 L151.385077,86.1517312 Z" id="Path" fill="#000000" fill-rule="nonzero" opacity="0.1"></path>
                    <path d="M152.940308,75.4670937 L153.408076,76.7069017 L153.807878,79.3397524 C153.913506,80.084984 153.652365,80.835276 153.106225,81.3556842 C152.172687,82.2850427 150.927304,84.2213721 150.927304,84.2213721 L149.450035,79.8054267 C149.450035,79.8054267 150.927304,79.5725895 150.69342,78.5656187 C150.459535,77.5586478 150.539496,75.6999308 150.539496,75.6999308 L152.940308,75.4670937 Z" id="Path" fill="#FF748E" fill-rule="nonzero"></path>
                    <path d="M152.958299,75.4491831 L153.424068,76.6889911 L153.82387,79.3238319 C153.931027,80.0682354 153.67044,80.8183299 153.124217,81.3377737 C152.18868,82.2671321 150.945295,84.2054516 150.945295,84.2054516 L149.456032,79.783536 C149.456032,79.783536 150.9353,79.5506989 150.701416,78.543728 C150.467531,77.5367571 150.545493,75.6760501 150.545493,75.6760501 L152.958299,75.4491831 Z" id="Path" fill="#000000" fill-rule="nonzero" opacity="0.05"></path>
                    <path d="M146.023731,111.027494 C147.023236,112.591682 148.576467,111.704115 148.852331,111.528989 L148.738387,111.190679 L146.479505,110.56381 C146.366353,110.751926 146.210194,110.910795 146.023731,111.027494 Z" id="Path" fill="#000000" fill-rule="nonzero" opacity="0.1"></path>
                    <path d="M142.901276,89.1806041 C142.979237,90.2651873 144.300584,94.2154585 144.300584,94.2154585 L145.234121,97.4672181 C145.901963,99.7664127 146.247066,102.146536 146.259614,104.539895 C146.236169,105.293395 146.336784,106.045634 146.557467,106.766773 C147.181158,108.472256 145.935774,110.794657 145.935774,110.794657 C147.025235,112.732976 148.892311,111.415556 148.892311,111.415556 L148.892311,110.175748 C148.892311,110.175748 150.371579,103.435411 149.981772,102.117991 C149.591965,100.80057 149.438041,97.2383611 149.438041,97.2383611 L149.438041,90.8064839 C150.684174,89.5698858 151.441947,87.9283311 151.572984,86.1815822 C151.590975,85.9268543 151.606967,85.6601862 151.616963,85.3855578 C151.678932,83.6382842 150.477526,81.5885213 150.017754,80.8581689 C149.905809,80.6810535 149.833845,80.5815505 149.833845,80.5815505 L142.963245,83.2959937 L142.947253,83.2959937 L142.947253,83.5646519 L142.947253,84.1497299 L142.901276,89.1806041 Z" id="Path" fill="#474463" fill-rule="nonzero"></path>
                    <path d="M145.23612,64.9297206 C145.446633,65.2791642 145.606787,65.6563184 145.711885,66.050125 C146.480323,66.3403899 147.334036,66.3088062 148.078714,65.9625623 C148.174893,65.3945619 148.400562,64.8560629 148.738387,64.388424 L145.23612,64.9297206 Z" id="Path" fill="#000000" fill-rule="nonzero" opacity="0.1"></path>
                    <ellipse id="Oval" fill="#DB8B8B" fill-rule="nonzero" cx="146.79335" cy="63.0710036" rx="3.03449818" ry="3.02091262"></ellipse>
                    <path d="M142.901276,84.1437597 L142.935259,84.1437597 C146.197645,84.8124202 150.295616,81.4273264 150.295616,81.4273264 C150.185761,81.2427585 150.090842,81.0497762 150.011757,80.8502087 C149.899812,80.6730933 149.827848,80.5735902 149.827848,80.5735902 L142.957248,83.2880334 L142.939257,83.5586817 L142.901276,84.1437597 Z" id="Path" fill="#000000" fill-rule="nonzero" opacity="0.1"></path>
                    <path d="M143.758852,68.4163075 C143.758852,68.4163075 148.116695,65.7814667 149.516002,66.86605 L151.463039,69.345666 C151.463039,69.345666 152.708422,69.7337279 152.476537,72.2213042 L153.410075,76.7148619 L150.61146,77.4113833 C150.61146,77.4113833 148.978268,78.9616408 150.301614,81.2084197 C150.301614,81.2084197 146.175656,84.6173942 142.905274,83.9188828 L143.139158,80.2790612 C143.139158,80.2790612 143.838812,78.2631294 142.595427,76.4044124 C141.352043,74.5456954 142.517466,72.7626008 143.684888,72.0660794 C143.68089,72.0581192 144.224621,69.1128289 143.758852,68.4163075 Z" id="Path" fill="#FF748E" fill-rule="nonzero"></path>
                    <path d="M143.524967,84.2213721 C143.524967,84.2213721 141.889777,84.5318216 141.112162,85.7716296 C140.887263,86.1442351 140.612927,86.4849514 140.296565,86.7845706 C140.152526,86.9150652 140.078997,87.10571 140.098298,87.2986392 C140.117599,87.4915684 140.227453,87.6640312 140.394517,87.7636807 C141.012211,88.133832 142.017713,88.360699 143.291083,87.3198971 C145.48,85.5387924 143.524967,84.2213721 143.524967,84.2213721 Z" id="Path" fill="#DB8B8B" fill-rule="nonzero"></path>
                    <path d="M145.937773,69.8889527 C145.937773,69.8889527 147.493004,69.7337279 147.882811,73.7616114 C148.272618,77.7894949 148.89431,78.7208434 148.89431,78.7208434 C148.89431,78.7208434 149.284117,80.8123975 148.34858,82.0522056 C147.413043,83.2920136 145.625928,85.9268543 145.625928,85.9268543 C145.625928,85.9268543 143.68089,86.4681509 143.291083,84.5338116 L145.703889,80.0402539 C145.703889,80.0402539 146.091697,78.4899963 145.158159,77.4054131 C144.224621,76.3208298 143.524967,69.1128289 145.937773,69.8889527 Z" id="Path" fill="#000000" fill-rule="nonzero" opacity="0.1"></path>
                    <path d="M145.78185,69.6561155 C145.78185,69.6561155 147.337081,69.5008908 147.726888,73.5307643 C148.116695,77.5606379 148.738387,78.4880063 148.738387,78.4880063 C148.738387,78.4880063 149.138189,80.5795604 148.194656,81.8193684 C147.251123,83.0591764 145.48,85.6940172 145.48,85.6940172 C145.48,85.6940172 143.534962,86.2353138 143.145155,84.3009745 L145.557961,79.8074167 C145.557961,79.8074167 145.947768,78.2571592 145.012231,77.172576 C144.076694,76.0879927 143.369045,68.8819818 145.78185,69.6561155 Z" id="Path" fill="#FF748E" fill-rule="nonzero"></path>
                    <path d="M144.496487,72.5616046 C144.496487,72.5616046 144.342563,74.9636082 145.042216,76.2810286 C145.74187,77.598449 145.74187,79.3019412 145.042216,80.2312997" id="Path" fill="#000000" fill-rule="nonzero" opacity="0.1"></path>
                    <path d="M144.108678,69.6163143 C144.108678,69.6163143 144.730371,68.9974053 146.521484,68.9197929 C148.312598,68.8421806 149.088214,68.300884 149.088214,68.300884" id="Path" fill="#000000" fill-rule="nonzero" opacity="0.1"></path>
                    <path d="M148.436537,59.1665039 C148.910302,59.2242157 149.450035,59.3854106 149.619951,59.8272042 C149.66674,59.9953683 149.703454,60.166151 149.729896,60.3386499 C149.905809,61.0152706 150.67143,61.3336804 151.143197,61.8471161 C151.558991,62.3048301 151.7429,62.9217491 151.878833,63.5247375 C152.266371,65.2515512 152.358954,67.0310168 152.152697,68.7884489 C152.000773,70.0720383 151.688927,71.3377171 151.602969,72.6272766 C151.517012,73.9168361 151.674934,75.2760478 152.382584,76.3606311 C152.688432,76.8263053 153.090233,77.2362579 153.306127,77.7536738 C152.860347,78.1138748 152.244652,78.1656164 151.668937,78.185517 C151.0026,78.208071 150.332931,78.208071 149.659931,78.185517 C149.307644,78.1995111 148.957367,78.1263505 148.640436,77.9725805 C148.416194,77.8303873 148.231864,77.6338723 148.104701,77.401433 C147.720891,76.7546631 147.624938,75.9765493 147.64093,75.2262963 C147.656922,74.4760433 147.776863,73.7297704 147.790856,72.9775273 C147.83058,72.5671542 147.738919,72.1547865 147.528986,71.7994112 C147.335797,71.5758759 147.117096,71.3755181 146.877308,71.2023929 C146.043721,70.4660703 145.757862,69.2879542 145.729876,68.1794902 C145.70189,67.0710263 145.885799,65.9625623 145.791845,64.8580784 C145.755863,64.4262352 145.591944,63.9068293 145.166155,63.8232467 C145.031612,63.817813 144.897819,63.8004978 144.766353,63.7715051 C144.424522,63.6401611 144.458505,63.1605564 144.366551,62.8083156 C144.256605,62.4103034 143.916773,62.105824 143.820821,61.7078118 C143.596932,60.7704931 144.796338,59.6500888 145.581949,59.3197386 C146.367561,58.9893885 147.594953,59.0630208 148.436537,59.1665039 Z" id="Path" fill="#000000" fill-rule="nonzero" opacity="0.1"></path>
                    <path d="M148.514498,59.0112792 C148.988264,59.0689909 149.527996,59.2301859 149.697912,59.6739695 C149.744905,59.8414113 149.781621,60.0115441 149.807858,60.1834251 C149.983771,60.8600458 150.749392,61.1784556 151.221158,61.6918913 C151.636953,62.1496054 151.820862,62.7665243 151.956794,63.3695128 C152.344341,65.0983689 152.436252,66.879909 152.22866,68.6391943 C152.078734,69.9227837 151.766888,71.1884625 151.680931,72.4800121 C151.594973,73.7715617 151.752895,75.1267932 152.460545,76.2113765 C152.766394,76.6790408 153.168195,77.0870033 153.384088,77.6044192 C152.938309,77.9666103 152.322613,78.0163618 151.746898,78.0362624 C151.080561,78.0574898 150.410893,78.0574898 149.737892,78.0362624 C149.385767,78.0509581 149.035478,77.9784788 148.718397,77.825316 C148.494073,77.682367 148.309765,77.4851921 148.182662,77.2521784 C147.798852,76.6054086 147.7029,75.8272947 147.718892,75.0770417 C147.734884,74.3267887 147.854824,73.5805158 147.868818,72.8302628 C147.868818,72.4203103 147.844829,71.986477 147.606947,71.6521467 C147.414211,71.4281756 147.195456,71.2277679 146.95527,71.0551284 C146.121682,70.3188058 145.835824,69.1406897 145.807838,68.0322257 C145.779851,66.9237617 145.96376,65.8152978 145.869807,64.7108139 C145.833825,64.2789707 145.669906,63.7595647 145.244117,63.6759822 C145.109574,63.6705485 144.975781,63.6532333 144.844314,63.6242406 C144.502484,63.4928966 144.536467,63.0132919 144.444512,62.6610511 C144.334567,62.2630389 143.994735,61.9605496 143.898782,61.5605473 C143.674893,60.6232286 144.8743,59.5028242 145.659911,59.1724741 C146.445522,58.842124 147.678912,58.907796 148.514498,59.0112792 Z" id="Path" fill="#464353" fill-rule="nonzero"></path>
                    <path d="M25.5953325,113.984725 C25.5953325,113.984725 27.7382719,113.919053 28.3819534,113.461338 C29.0256348,113.003624 31.6763229,112.456358 31.8362438,113.19069 C31.9961646,113.925023 35.0546509,116.840462 32.635848,116.860363 C30.2170451,116.880263 27.0186281,116.484241 26.3729476,116.094189 C25.7272672,115.704137 25.5953325,113.984725 25.5953325,113.984725 Z" id="Path" fill="#A8A8A8" fill-rule="nonzero"></path>
                    <path d="M32.6798263,116.599665 C30.2630224,116.619565 27.0626063,116.225533 26.4189249,115.835481 C25.9291673,115.536972 25.7332642,114.470299 25.6672969,113.976764 L25.5953325,113.976764 C25.5953325,113.976764 25.7312652,115.696177 26.3749466,116.086229 C27.0186281,116.476281 30.2190441,116.870313 32.637847,116.852402 C33.3355018,116.852402 33.575383,116.599665 33.563389,116.233493 C33.4654375,116.462351 33.199569,116.599665 32.6798263,116.599665 Z" id="Path" fill="#000000" fill-rule="nonzero" opacity="0.2"></path>
                    <path d="M161.705969,85.9945164 C161.705969,85.9945164 163.175242,85.948745 163.619023,85.6343154 C164.062803,85.3198857 165.879904,84.9457543 165.989849,85.4492397 C166.099795,85.9527251 168.200755,87.9547265 166.539577,87.9686569 C164.878399,87.9825874 162.683486,87.709949 162.241704,87.4432808 C161.799923,87.1766127 161.705969,85.9945164 161.705969,85.9945164 Z" id="Path" fill="#A8A8A8" fill-rule="nonzero"></path>
                    <path d="M166.569562,87.7935316 C164.910383,87.8054719 162.713471,87.5348236 162.271689,87.2681555 C161.933857,87.0691494 161.799923,86.3308367 161.755945,85.9925264 L161.705969,85.9925264 C161.705969,85.9925264 161.799923,87.1726325 162.241704,87.4412908 C162.683486,87.709949 164.880398,87.9786072 166.539577,87.9666669 C167.01934,87.9666669 167.185258,87.7935316 167.175262,87.5407938 C167.109295,87.6960186 166.927385,87.7895515 166.569562,87.7935316 Z" id="Path" fill="#000000" fill-rule="nonzero" opacity="0.2"></path>
                    <ellipse id="Oval" fill="#6C63FF" fill-rule="nonzero" opacity="0.1" cx="6.25490436" cy="4.30450197" rx="4.32386006" ry="4.30450197"></ellipse>
                    <ellipse id="Oval" fill="#6C63FF" fill-rule="nonzero" opacity="0.1" cx="192.162896" cy="16.6428802" rx="4.32386006" ry="4.30450197"></ellipse>
                    <ellipse id="Oval" fill="#6C63FF" fill-rule="nonzero" opacity="0.1" cx="3.19841706" cy="21.1304678" rx="3.19841706" ry="3.18409762"></ellipse>
                    <ellipse id="Oval" fill="#6C63FF" fill-rule="nonzero" opacity="0.1" cx="35.5823897" cy="3.21991872" rx="3.19841706" ry="3.18409762"></ellipse>
                    <ellipse id="Oval" fill="#6C63FF" fill-rule="nonzero" opacity="0.1" cx="166.717489" cy="3.61793092" rx="3.19841706" ry="3.18409762"></ellipse>
                    <path d="M177.835986,128.637544 C177.835986,128.637544 178.635591,129.680336 177.466169,131.254474 C176.296748,132.828612 175.331226,134.155983 175.721033,135.137083 C175.721033,135.137083 177.486159,132.215673 178.91945,132.173882 C180.352741,132.132091 179.415205,130.396758 177.835986,128.637544 Z" id="Path" fill="#FC6681" fill-rule="nonzero"></path>
                    <path d="M177.835986,128.637544 C177.905501,128.738699 177.960033,128.849285 177.997906,128.965904 C179.397214,130.605714 180.148842,132.136071 178.79751,132.173882 C177.542132,132.209703 176.036877,134.444542 175.675056,135.009719 C175.687021,135.053049 175.701709,135.095587 175.719034,135.137083 C175.719034,135.137083 177.48416,132.215673 178.917451,132.173882 C180.350742,132.132091 179.415205,130.396758 177.835986,128.637544 Z" id="Path" fill="#000000" fill-rule="nonzero" opacity="0.1"></path>
                    <path d="M179.32325,129.966905 C179.32325,130.333076 179.281271,130.631585 179.231296,130.631585 C179.181321,130.631585 179.139341,130.333076 179.139341,129.966905 C179.139341,129.600733 179.191316,129.767898 179.241291,129.767898 C179.291266,129.767898 179.32325,129.598743 179.32325,129.966905 Z" id="Path" fill="#FFD037" fill-rule="nonzero"></path>
                    <path d="M179.834997,130.404718 C179.511157,130.579843 179.235294,130.685317 179.20331,130.641535 C179.171325,130.597754 179.423201,130.418648 179.745042,130.243523 C180.066882,130.068398 179.944943,130.195762 179.966932,130.243523 C179.988921,130.291284 180.158837,130.229593 179.834997,130.404718 Z" id="Path" fill="#FFD037" fill-rule="nonzero"></path>
                    <path d="M173.60608,128.637544 C173.60608,128.637544 172.806476,129.680336 173.975897,131.254474 C175.145318,132.828612 176.11084,134.155983 175.721033,135.137083 C175.721033,135.137083 173.953908,132.215673 172.522616,132.173882 C171.091324,132.132091 172.024862,130.396758 173.60608,128.637544 Z" id="Path" fill="#FC6681" fill-rule="nonzero"></path>
                    <path d="M173.60608,128.637544 C173.536309,128.738842 173.481134,128.849369 173.442161,128.965904 C172.042853,130.605714 171.293224,132.136071 172.642557,132.173882 C173.897935,132.209703 175.405189,134.444542 175.765011,135.009719 C175.753017,135.05151 175.739024,135.095292 175.723032,135.137083 C175.723032,135.137083 173.955907,132.215673 172.524615,132.173882 C171.093323,132.132091 172.024862,130.396758 173.60608,128.637544 Z" id="Path" fill="#000000" fill-rule="nonzero" opacity="0.1"></path>
                    <path d="M172.116817,129.966905 C172.116817,130.333076 172.158796,130.631585 172.21077,130.631585 C172.262745,130.631585 172.302725,130.333076 172.302725,129.966905 C172.302725,129.600733 172.250751,129.767898 172.198776,129.767898 C172.146802,129.767898 172.116817,129.598743 172.116817,129.966905 Z" id="Path" fill="#FFD037" fill-rule="nonzero"></path>
                    <path d="M171.607069,130.404718 C171.930909,130.579843 172.206772,130.685317 172.236757,130.641535 C172.266743,130.597754 172.018865,130.418648 171.695026,130.243523 C171.371186,130.068398 171.495125,130.195762 171.475134,130.243523 C171.455144,130.291284 171.283229,130.229593 171.607069,130.404718 Z" id="Path" fill="#FFD037" fill-rule="nonzero"></path>
                    <path d="M172.37269,135.001759 C172.37269,135.001759 174.611582,134.932107 175.285249,134.454492 C175.958915,133.976877 178.729544,133.40573 178.897461,134.171903 C179.065378,134.938077 182.259797,137.98685 179.733047,138.006751 C177.206298,138.026652 173.859954,137.608739 173.188287,137.210727 C172.516619,136.812714 172.37269,135.001759 172.37269,135.001759 Z" id="Path" fill="#A8A8A8" fill-rule="nonzero"></path>
                    <path d="M179.779025,137.740083 C177.250276,137.759983 173.905931,137.342071 173.232265,136.944058 C172.720518,136.633609 172.51462,135.517185 172.446654,135.001759 L172.37269,135.001759 C172.37269,135.001759 172.51462,136.792814 173.188287,137.206746 C173.861953,137.620679 177.206298,138.026652 179.733047,138.002771 C180.462686,138.002771 180.714562,137.738093 180.700569,137.356001 C180.600618,137.590828 180.320757,137.736103 179.779025,137.740083 Z" id="Path" fill="#000000" fill-rule="nonzero" opacity="0.2"></path>
                    <path d="M63.2586923,25.0687986 C60.9402438,25.0687986 59.06077,26.939858 59.06077,29.2479267 C59.06077,31.5559954 60.9402438,33.4270548 63.2586923,33.4270548 C65.5771409,33.4270548 67.4566147,31.5559954 67.4566147,29.2479267 C67.4566147,26.939858 65.5771409,25.0687986 63.2586923,25.0687986 L63.2586923,25.0687986 Z M63.2586923,25.8787534 C65.1355316,25.8787534 66.6570105,27.3934205 66.6570105,29.2618571 C66.6570105,31.1302937 65.1355316,32.6449608 63.2586923,32.6449608 C61.3818531,32.6449608 59.8603742,31.1302937 59.8603742,29.2618571 C59.8603742,27.3934205 61.3818531,25.8787534 63.2586923,25.8787534 M65.635516,28.0777708 L65.253705,27.693689 C65.216027,27.654773 65.1640693,27.632788 65.1097762,27.632788 C65.0554831,27.632788 65.0035254,27.654773 64.9658474,27.693689 L62.5670346,30.0598716 L61.5555353,29.0369802 C61.5178573,28.9980642 61.4658996,28.9760792 61.4116065,28.9760792 C61.3573134,28.9760792 61.3053557,28.9980642 61.2676777,29.0369802 L60.8838677,29.4170819 C60.8447766,29.4545912 60.8226928,29.5063162 60.8226928,29.5603663 C60.8226928,29.6144163 60.8447766,29.6661413 60.8838677,29.7036507 L62.4231059,31.247938 C62.4607839,31.286854 62.5127416,31.308839 62.5670346,31.308839 C62.6213277,31.308839 62.6732854,31.286854 62.7109634,31.247938 L65.635516,28.3583694 C65.674607,28.3208601 65.6966909,28.269135 65.6966909,28.215085 C65.6966909,28.161035 65.674607,28.1093099 65.635516,28.0718006 L65.635516,28.0777708 Z" id="Shape" fill="#3ACC6C" fill-rule="nonzero" opacity="0.7"></path>
                    <path d="M16.7856925,46.2271272 C14.5288372,46.7490326 13.1234503,48.992514 13.6456333,51.2397429 C14.1678164,53.4869718 16.4200976,54.888123 18.6779105,54.3703384 C20.9357234,53.8525538 22.3452403,51.6116418 21.8271974,49.3634634 C21.5778157,48.2812084 20.9060567,47.3422432 19.960192,46.7538178 C19.0143274,46.1653924 17.8721245,45.9758862 16.7856925,46.2271272 L16.7856925,46.2271272 Z M16.9696015,47.0231516 C18.3095577,46.7118586 19.7058354,47.2356773 20.506179,48.3499115 C21.3065226,49.4641457 21.3529656,50.9488753 20.6238126,52.1105254 C19.8946597,53.2721755 18.5338261,53.8814672 17.1770103,53.6537768 C15.8201944,53.4260864 14.7351956,52.4063538 14.4288589,51.0709357 C14.0124085,49.2554971 15.1479934,47.44634 16.9696015,47.0231516 M19.7822095,48.6351011 L19.322437,48.340572 C19.2770758,48.3112247 19.2217033,48.3014334 19.1689647,48.3134339 C19.1162262,48.3254345 19.0706252,48.3582022 19.0425755,48.404254 L17.243466,51.2460611 L16.0260685,50.4798876 C15.9807072,50.4505403 15.9253347,50.4407489 15.8725962,50.4527495 C15.8198576,50.4647501 15.7742566,50.4975178 15.746207,50.5435696 L15.4563504,51.0012836 C15.4268712,51.0464417 15.4170357,51.1015663 15.4290903,51.1540688 C15.4411448,51.2065713 15.4740599,51.2519681 15.5203188,51.2798921 L17.3674046,52.4400977 C17.4129183,52.4700991 17.4687763,52.4802667 17.5220092,52.4682395 C17.5752421,52.4562124 17.6212191,52.4230369 17.6492651,52.3764158 L19.8481768,48.9077394 C19.8778326,48.8628261 19.8879786,48.8078807 19.8763065,48.7554041 C19.8646345,48.7029276 19.8321369,48.6573824 19.7862075,48.6291309 L19.7822095,48.6351011 Z" id="Shape" fill="#3ACC6C" fill-rule="nonzero" opacity="0.7"></path>
                    <path d="M124.442412,25.6737771 C122.123963,25.6737771 120.244489,27.5448365 120.244489,29.8529052 C120.244489,32.160974 122.123963,34.0320334 124.442412,34.0320334 C126.76086,34.0320334 128.640334,32.160974 128.640334,29.8529052 C128.640334,27.5448365 126.76086,25.6737771 124.442412,25.6737771 Z M124.442412,26.4837319 C126.319251,26.4837319 127.84073,27.9983991 127.84073,29.8668357 C127.84073,31.7352722 126.319251,33.2499394 124.442412,33.2499394 C122.565572,33.2499394 121.044093,31.7352722 121.044093,29.8668357 C121.044093,27.9983991 122.565572,26.4837319 124.442412,26.4837319 M126.819235,28.6827494 L126.437424,28.2986676 C126.399746,28.2597516 126.347789,28.2377666 126.293495,28.2377666 C126.239202,28.2377666 126.187245,28.2597516 126.149567,28.2986676 L123.750754,30.6648501 L122.737256,29.6479289 C122.699578,29.6090129 122.64762,29.5870279 122.593327,29.5870279 C122.539034,29.5870279 122.487076,29.6090129 122.449398,29.6479289 L122.067587,30.0320107 C122.028496,30.06952 122.006412,30.1212451 122.006412,30.1752951 C122.006412,30.2293451 122.028496,30.2810702 122.067587,30.3185795 L123.606825,31.8628669 C123.644503,31.9017829 123.696461,31.9237679 123.750754,31.9237679 C123.805047,31.9237679 123.857005,31.9017829 123.894683,31.8628669 L126.819235,28.9732983 C126.858326,28.935789 126.88041,28.8840639 126.88041,28.8300139 C126.88041,28.7759638 126.858326,28.7242388 126.819235,28.6867295 L126.819235,28.6827494 Z" id="Shape" fill="#3ACC6C" fill-rule="nonzero" opacity="0.7"></path>
                    <path d="M172.604575,46.3126999 C170.293809,46.1341728 168.274939,47.8537396 168.094575,50.1540809 C167.914211,52.4544221 169.640607,54.4650223 171.951213,54.6456084 C174.261818,54.8261944 176.282233,53.1084273 176.464665,50.8082477 C176.552377,49.7023437 176.19481,48.6070989 175.470754,47.7638465 C174.746698,46.9205942 173.71557,46.3985339 172.604575,46.3126999 L172.604575,46.3126999 Z M172.540607,47.1186746 C173.91266,47.2213151 175.087146,48.1374644 175.515444,49.439173 C175.943741,50.7408815 175.541319,52.171241 174.496156,53.0621051 C173.450993,53.9529692 171.969366,54.1285148 170.743367,53.5067415 C169.517369,52.8849682 168.788967,51.5885906 168.89841,50.2231697 C168.967311,49.3304493 169.389903,48.5016251 170.07308,47.9193069 C170.756256,47.3369887 171.643959,47.0489579 172.540607,47.1186746 M174.739519,49.4948074 L174.387693,49.0828648 C174.353423,49.0412618 174.303692,49.0152457 174.249836,49.0107465 C174.195981,49.0062474 174.14259,49.0236488 174.101834,49.0589841 L171.529108,51.2341207 L170.597569,50.1415772 C170.563262,50.0993644 170.513118,50.0729401 170.458763,50.0684309 C170.404409,50.0639216 170.350563,50.0817188 170.309711,50.1176965 L169.895916,50.4679472 C169.854416,50.5023506 169.828663,50.5520064 169.824521,50.6056113 C169.820379,50.6592161 169.8382,50.7122087 169.873927,50.752526 L171.287227,52.4102468 C171.321498,52.4518497 171.371228,52.4778659 171.425084,52.482365 C171.47894,52.4868642 171.53233,52.4694628 171.573086,52.4341275 L174.715531,49.7793861 C174.757321,49.7452694 174.783454,49.6957612 174.787973,49.6421467 C174.792493,49.5885322 174.775013,49.5353805 174.739519,49.4948074 L174.739519,49.4948074 Z" id="Shape" fill="#3ACC6C" fill-rule="nonzero" opacity="0.7"></path>
                </g>
            </g>
        </g>
    </g>
</svg>