<?xml version="1.0" encoding="UTF-8"?>
<svg width="255px" height="255px" viewBox="0 0 255 255" version="1.1" xmlns="http://www.w3.org/2000/svg" xmlns:xlink="http://www.w3.org/1999/xlink">
    <title>Group 4</title>
    <g id="Page-1" stroke="none" stroke-width="1" fill="none" fill-rule="evenodd">
        <g id="Mining-Provider-Windows-Onboarding-Steps-05" transform="translate(-531.000000, -461.000000)">
            <g id="Group-4" transform="translate(531.000000, 461.000000)">
                <circle id="Oval" fill="#FFFFFF" cx="127.5" cy="127.5" r="127.5"></circle>
                <g id="undraw_text_field_htlv" transform="translate(26.000000, 79.000000)" fill-rule="nonzero">
                    <path d="M182.639232,97.6922668 C182.386313,98.3321283 182.071482,98.9468629 181.699035,99.5280839 C181.595326,99.6885779 181.486791,99.8466509 181.371076,100 L171.766396,100 C171.698946,99.9504488 171.633849,99.8984956 171.566278,99.8489538 C171.228787,99.8230315 170.893658,99.7899643 170.56581,99.7545942 C170.599596,99.7262509 170.635724,99.69791 170.669519,99.6696824 C170.495887,99.683854 170.322373,99.69791 170.148743,99.7050525 C170.286116,99.7215271 170.425963,99.7381196 170.565815,99.7546036 C170.462106,99.8372126 170.356045,99.9198215 170.24763,100 L169.828089,100 L170.110136,99.7050525 C169.886006,99.7120817 169.664112,99.7168055 169.43998,99.7120817 L170.141566,99.5280839 L170.89848,99.3299169 C170.927439,99.3534207 170.958751,99.3770378 170.98771,99.4006572 C173.598114,97.1553194 175.166269,93.9696247 175.333497,90.5722194 C175.500725,87.174814 174.252722,83.8563316 171.874936,81.3757902 C175.70147,83.8890391 178.337424,87.8001641 179.191809,92.2322805 C179.409215,93.3048186 179.441802,94.4053936 179.28822,95.4884541 C179.372621,95.3965155 179.456906,95.3044588 179.538838,95.2100992 C182.011084,92.2789026 183.021935,88.4227351 182.296914,84.6886622 C184.185569,88.803442 184.308883,93.4877549 182.639232,97.6922668 Z" id="Path" fill="#E6E6E6"></path>
                    <ellipse id="Oval" fill="#2F2E41" cx="134.726936" cy="12.1478678" rx="6.77001117" ry="6.6261097"></ellipse>
                    <polygon id="Path" fill="#FFB8B8" points="156.681146 97.2380688 153.725476 97.2378328 152.319242 86.0798495 156.681629 86.0800854"></polygon>
                    <path d="M151.614231,96.4112978 L157.314352,96.4112978 L157.314352,99.923979 L148.02527,99.923979 L148.02527,99.923979 C148.02527,98.9923587 148.403389,98.0988945 149.07645,97.4401387 C149.749511,96.781383 150.662378,96.4112978 151.614231,96.4112978 L151.614231,96.4112978 Z" id="Path" fill="#2F2E41"></path>
                    <polygon id="Path" fill="#FFB8B8" points="126.530898 96.8593561 123.677205 96.1061781 125.286913 84.9746221 129.498622 86.0862203"></polygon>
                    <path d="M121.366193,94.9817708 L127.05811,94.9513168 L127.038935,98.4691633 L117.763235,98.5187919 L117.763235,98.5187919 C117.773824,96.5759421 119.386922,94.9923646 121.366193,94.9817708 L121.366193,94.9817708 Z" id="Path" fill="#2F2E41" transform="translate(122.410673, 96.735054) rotate(15.089560) translate(-122.410673, -96.735054) "></path>
                    <path d="M132.131765,45.6097202 L123.330751,94.4220607 L127.844091,95.3055418 L142.061116,60.8497704 L152.667464,95.084671 L158.083475,94.4220583 C158.083475,94.4220583 155.601136,45.3888494 147.702791,41.1923122 L132.131765,45.6097202 Z" id="Path" fill="#2F2E41"></path>
                    <path d="M118.1742,63.0713908 C118.816512,62.7585471 119.284254,62.183316 119.451569,61.5004792 C119.618884,60.8176425 119.468584,60.0973425 119.041111,59.533396 L123.894917,52.5671363 L119.418629,52.4991426 L115.495635,59.1248441 C114.554606,59.9076932 114.360542,61.2556944 115.043916,62.2625636 C115.727289,63.2694327 117.072097,63.6169134 118.1742,63.0713884 L118.1742,63.0713908 Z" id="Path" fill="#FFB8B8"></path>
                    <path d="M150.218918,54.4574503 C150.861232,54.1446089 151.328976,53.5693779 151.496292,52.8865403 C151.663607,52.2037027 151.513306,51.4834015 151.085831,50.9194555 L155.939637,43.9531934 L151.463349,43.8851997 L147.540355,50.5109012 C146.599323,51.2937493 146.405257,52.6417517 147.088631,53.6486222 C147.772005,54.6554928 149.116813,55.0029739 150.218918,54.4574479 L150.218918,54.4574503 Z" id="Path" fill="#FFB8B8"></path>
                    <ellipse id="Oval" fill="#FFB8B8" cx="134.899295" cy="14.2904847" rx="5.92123232" ry="5.79537227"></ellipse>
                    <path d="M147.702791,23.301821 C147.477124,22.4183398 143.640794,22.6392107 143.640794,22.6392107 C143.640794,22.6392107 139.320944,21.6671863 139.361822,21.7887306 C135.721509,21.5144766 131.280894,22.8520991 130.63414,23.0549593 C129.310935,23.4122564 126.782771,24.5052116 124.959542,25.3091041 C124.431387,25.5420859 124.193575,26.1479985 124.426531,26.6671417 L129.987933,39.0940483 L130.777767,47.1558164 L149.056797,41.6340587 C144.543452,39.8670917 147.928457,24.1852997 147.702791,23.301821 Z" id="Path" fill="#6C63FF"></path>
                    <polygon id="Path" fill="#6C63FF" points="146.123183 23.5226564 147.623439 23.153854 155.82675 38.9835704 156.278057 48.0394037 151.087793 44.0637468 151.087793 40.5298034 145.671877 33.6827733"></polygon>
                    <path d="M126.377256,24.7374769 L124.640108,25.4931302 C124.456429,25.5730307 124.325454,25.7371951 124.290779,25.9309762 L120.848414,45.1679809 L117.463408,54.8862757 L121.976748,57.0949774 L127.16709,44.94711 L128.972426,36.1122963 L126.377256,24.7374769 Z" id="Path" fill="#6C63FF"></path>
                    <path d="M128.689752,11.5584918 C129.891548,11.1722663 131.159304,11.7777534 132.333298,12.2386833 C133.490318,12.6929497 134.726507,13.0203132 135.970991,12.9487518 C137.215475,12.8771905 138.47407,12.3627925 139.226459,11.3899281 C139.978848,10.4170637 140.111253,8.95902949 139.366492,7.98057053 C138.876217,7.3364405 138.093912,6.96892407 137.310522,6.72961071 C135.636704,6.21828966 133.763368,6.20063056 132.172332,6.92199673 C130.581297,7.6433629 129.333659,9.16729548 129.202576,10.8786731" id="Path" fill="#2F2E41"></path>
                    <path d="M134.546606,6.94222541 C134.142935,4.26738866 135.639944,1.49017916 137.683122,0.493914807 C139.7263,-0.502349549 142.123301,0.0853581959 143.963924,1.56892072 C145.804547,3.05248324 147.146332,5.33227197 148.145004,7.75570724 C149.143676,10.1791425 149.835168,12.7748224 150.648869,15.3022703 C151.37154,17.5469627 152.219878,19.7930118 153.592379,21.5097693 C154.964881,23.2265267 156.960824,24.3436724 158.873309,23.8719781 C157.302098,25.9396076 154.411597,25.5815955 152.618375,23.8130523 C150.825153,22.0445092 149.892938,19.2802561 149.159136,16.5895134 C148.425335,13.8987707 147.786845,11.0834045 146.367306,8.8536294 C143.841922,4.8868304 138.88622,3.69507718 135.347113,6.20348093" id="Path" fill="#2F2E41"></path>
                    <rect id="Rectangle" fill="#3F3D56" x="0" y="99.5280839" width="196" height="1"></rect>
                    <path d="M102.831292,54.2495548 L17.2895047,54.2495548 C15.8633344,54.248032 14.7075829,53.1168468 14.7060271,51.7209908 L14.7060271,31.7734363 C14.7075843,30.3775811 15.8633353,29.2463974 17.2895047,29.2448746 L102.831292,29.2448746 C104.257461,29.2463974 105.413212,30.3775811 105.414769,31.7734363 L105.414769,51.7209908 C105.413213,53.1168468 104.257462,54.248032 102.831292,54.2495548 L102.831292,54.2495548 Z M17.2895047,29.8067756 C16.1803164,29.8080901 15.2814765,30.6878245 15.2801335,31.7734363 L15.2801335,51.7209908 C15.2814765,52.8066025 16.1803164,53.6863369 17.2895047,53.6876514 L102.831292,53.6876514 C103.94048,53.6863369 104.83932,52.8066025 104.840663,51.7209908 L104.840663,31.7734363 C104.83932,30.6878245 103.94048,29.8080901 102.831292,29.8067756 L17.2895047,29.8067756 Z" id="Shape" fill="#3F3D56"></path>
                    <path d="M98.6690254,50.0352842 L21.4517757,50.0352842 C21.3490233,50.0355744 21.2539485,49.9820892 21.2024862,49.8950427 C21.1510238,49.8079962 21.1510238,49.7006664 21.2024862,49.6136199 C21.2539485,49.5265734 21.3490233,49.4730882 21.4517757,49.4733784 L98.6690254,49.4733784 C98.7717778,49.4730882 98.8668526,49.5265734 98.9183149,49.6136199 C98.9697773,49.7006664 98.9697773,49.8079962 98.9183149,49.8950427 C98.8668526,49.9820892 98.7717778,50.0355744 98.6690254,50.0352842 L98.6690254,50.0352842 Z" id="Path" fill="#E6E6E6"></path>
                    <path d="M29.6327819,40.763882 L23.3176282,40.763882 C23.1594179,40.7643438 23.0314057,40.8899986 23.0314057,41.0448467 C23.0314057,41.1996948 23.1594179,41.3253496 23.3176282,41.3257984 L26.1881579,41.3257984 L26.1881579,46.2937555 C26.1776821,47.0411407 26.7629704,47.6675795 27.5244777,47.7240293 C27.542419,47.7248527 27.5609197,47.7251265 27.5797024,47.7251265 C28.0378203,47.7168018 28.4622721,47.4878888 28.7141784,47.1132873 C28.808989,46.9891787 28.7831735,46.8133619 28.6564912,46.7204076 C28.5298089,46.6274534 28.3501408,46.6524948 28.2550056,46.7763652 C28.1061467,47.0185921 27.8373769,47.1655698 27.5485859,47.1626733 C27.0933556,47.121341 26.7492075,46.7410375 26.7622739,46.2937531 L26.7622739,41.3257866 L29.6328036,41.3257866 C29.735556,41.326078 29.8306308,41.2725928 29.8820932,41.1855463 C29.9335555,41.0984998 29.9335555,40.99117 29.8820932,40.9041235 C29.8306308,40.817077 29.735556,40.7635918 29.6328036,40.763882 L29.6327819,40.763882 Z" id="Path" fill="#6C63FF"></path>
                    <ellipse id="Oval" fill="#E6E6E6" cx="51.161757" cy="62.9590488" rx="2.29642327" ry="2.24761114"></ellipse>
                    <ellipse id="Oval" fill="#6C63FF" cx="60.0603981" cy="62.9590488" rx="2.29642327" ry="2.24761114"></ellipse>
                    <ellipse id="Oval" fill="#E6E6E6" cx="68.9590416" cy="62.9590488" rx="2.29642327" ry="2.24761114"></ellipse>
                    <path d="M30.9731158,47.5155509 C31.1679615,47.5089437 31.3224275,47.3524324 31.3224275,47.1616138 C31.3224275,46.9707953 31.1679615,46.814284 30.9731158,46.8076768 C30.7782701,46.814284 30.6238041,46.9707953 30.6238041,47.1616138 C30.6238041,47.3524324 30.7782701,47.5089437 30.9731158,47.5155509 L30.9731158,47.5155509 Z" id="Path" fill="#3F3D56"></path>
                    <path d="M33.2695415,47.5155509 C33.4643871,47.5089437 33.6188532,47.3524324 33.6188532,47.1616138 C33.6188532,46.9707953 33.4643871,46.814284 33.2695415,46.8076768 C33.0746958,46.814284 32.9202297,46.9707953 32.9202297,47.1616138 C32.9202297,47.3524324 33.0746958,47.5089437 33.2695415,47.5155509 L33.2695415,47.5155509 Z" id="Path" fill="#3F3D56"></path>
                    <path d="M35.5659647,47.5155509 C35.7608104,47.5089437 35.9152764,47.3524324 35.9152764,47.1616138 C35.9152764,46.9707953 35.7608104,46.814284 35.5659647,46.8076768 C35.371119,46.814284 35.216653,46.9707953 35.216653,47.1616138 C35.216653,47.3524324 35.371119,47.5089437 35.5659647,47.5155509 L35.5659647,47.5155509 Z" id="Path" fill="#3F3D56"></path>
                </g>
            </g>
        </g>
    </g>
</svg>