<?xml version="1.0" encoding="UTF-8"?>
<svg width="255px" height="255px" viewBox="0 0 255 255" version="1.1" xmlns="http://www.w3.org/2000/svg" xmlns:xlink="http://www.w3.org/1999/xlink">
    <title>Group 4</title>
    <g id="Page-1" stroke="none" stroke-width="1" fill="none" fill-rule="evenodd">
        <g id="Mining-Provider-Windows-Onboarding-Steps-02" transform="translate(-532.000000, -458.000000)">
            <g id="Group-4" transform="translate(532.000000, 458.000000)">
                <circle id="Oval" fill="#FFFFFF" cx="127.5" cy="127.5" r="127.5"></circle>
                <g id="undraw_exams_g4ow" transform="translate(24.000000, 43.000000)" fill-rule="nonzero">
                    <path d="M201.966244,97.9732008 C201.966244,98.10159 201.966244,98.2299792 201.966244,98.3562637 C201.942889,100.570451 201.811613,102.779027 201.571527,104.981989 C201.57267,104.995294 201.57267,105.008673 201.571527,105.021979 C201.552572,105.205092 201.531512,105.386099 201.510452,105.569212 C201.474649,105.878609 201.436741,106.185901 201.394621,106.495298 C200.903629,110.261351 200.091253,113.978538 198.966374,117.606227 L198.966374,117.606227 C197.459377,122.508249 195.328919,127.196644 192.62724,131.556451 C191.796062,132.889454 190.91083,134.17966 189.971543,135.42707 L189.971543,135.42707 C189.470309,136.087959 188.958545,136.734114 188.429933,137.369746 C188.059273,137.814548 187.681592,138.252334 187.296892,138.683105 L187.056805,138.948302 C185.032658,141.169419 182.850766,143.241656 180.528128,145.14887 C176.737284,148.289144 172.655808,151.021098 168.509046,153.555206 C168.273171,153.700433 168.03519,153.843556 167.79721,153.976154 C167.780626,153.98821 167.763007,153.998775 167.744559,154.007725 C162.108837,157.413197 156.264619,160.486119 150.243494,162.946561 C143.651637,165.646944 136.844966,167.610668 129.861388,168.469402 C120.127342,169.664895 110.275359,168.692505 100.600282,167.02134 C92.5537451,165.639609 84.6046013,163.741413 76.8022034,161.338539 L75.5175284,160.936533 C74.8520246,160.724656 74.1872228,160.508569 73.523123,160.288273 C69.5118481,158.962286 65.5455017,157.488967 61.6240839,155.868317 C51.7752541,151.814329 42.3665457,146.765511 33.5444575,140.800474 C32.4212444,140.045574 31.3141774,139.273835 30.2232566,138.485259 C28.6984948,137.387987 27.1919852,136.258443 25.7037278,135.096626 L24.7855011,134.385223 C20.8907243,131.337313 17.2416808,127.988179 13.8720814,124.36876 C9.33991642,119.439456 5.46693712,113.87873 2.92075334,107.530831 C2.51920465,106.533183 2.15135235,105.516593 1.81719644,104.481061 L1.78560607,104.377928 C1.6171241,103.851743 1.46127828,103.325558 1.3180686,102.778325 C1.10746614,101.995361 0.922837979,101.202575 0.764184123,100.399967 C0.730487729,100.246321 0.701003384,100.092675 0.673625064,99.9369243 C0.170261224,97.2358551 -0.052055494,94.4899772 0.0102273056,91.7431669 C0.0629000842,89.3364634 0.344978823,86.9402553 0.852637158,84.5870469 L0.852637158,84.5870469 C1.37223895,82.1476318 2.17295508,79.7766115 3.23876306,77.5214307 L3.23876306,77.5214307 C4.20193382,75.4935522 5.42914708,73.6018373 6.88850375,71.8954575 L6.88850375,71.8954575 C7.91398186,70.7024482 9.06725184,69.6254014 10.327642,68.6836225 C12.6126787,66.9829916 15.1462263,65.7980223 17.772439,64.8614125 L17.772439,64.8614125 C19.0065695,64.4194168 20.2575481,64.0321445 21.5148448,63.6722337 C22.4056932,63.4154553 23.3007537,63.1713053 24.1916021,62.9313648 L26.8199208,62.2220671 C28.5047405,61.7632335 30.1895603,61.2917714 31.8491077,60.7824241 C36.3728486,59.4017139 40.8060304,57.7305494 44.9064604,55.2385358 C45.555116,54.8449492 46.2164077,54.4134773 46.8776994,53.9504342 C47.7201093,53.3653161 48.549883,52.7296843 49.3712326,52.0435387 L49.3712326,52.0435387 C50.2010063,51.3489741 51.0139318,50.6060005 51.7889489,49.8188273 C51.9089923,49.6967523 52.0269296,49.5746773 52.144867,49.4504975 C52.7766744,48.7853993 53.3895276,48.08873 53.9581542,47.364699 C54.2361495,47.0111025 54.5057206,46.6511918 54.7626556,46.2849668 C55.1185738,45.7777242 55.4555377,45.2620626 55.7672294,44.7316678 L55.7672294,44.7316678 C57.3298997,42.0796939 58.2944589,39.1541037 58.1807336,36.0706578 C58.1641067,35.5626228 58.1184014,35.0559549 58.043842,34.5531394 C57.7700588,32.694653 57.5068057,30.8803661 57.3130515,29.1060693 C56.500126,21.7668368 56.843408,15.1116451 62.3548744,8.85845907 C69.2078786,1.08564988 79.9633464,-0.499220231 89.7542549,0.121678418 C118.061332,1.91070842 143.830649,18.0624923 166.476732,37.2914077 C168.435335,38.9527501 170.37007,40.636543 172.280936,42.3427866 C172.762514,42.7721538 173.244793,43.2043273 173.727775,43.6393071 C177.308017,46.8616659 180.833502,50.2039949 184.116794,53.7841596 C184.382154,54.0746139 184.647513,54.3650682 184.90866,54.6576272 C185.068718,54.838635 185.230881,55.017538 185.388833,55.2006505 C186.412361,56.3582581 187.405703,57.543929 188.368858,58.7576631 C190.948962,61.9798497 193.227427,65.4320995 195.17553,69.0708949 C198.158426,74.7814733 200.177859,80.9448845 201.152428,87.3126867 L201.152428,87.3126867 C201.518853,89.6251286 201.759994,91.9556675 201.874794,94.2941132 C201.910597,94.9823636 201.933763,95.6727187 201.946399,96.3609691 C201.946399,96.5819669 201.946399,96.80086 201.946399,97.0218578 C201.966244,97.3417784 201.966244,97.6532801 201.966244,97.9732008 Z" id="Path" fill="#6C63FF" opacity="0.1"></path>
                    <polygon id="Path" fill="#3F3D56" points="82.9728556 94.4435498 79.6032161 154.384474 82.9728556 154.428674 85.7106876 93.6016534"></polygon>
                    <rect id="Rectangle" fill="#6C63FF" x="28.8480226" y="124.81286" width="41.6992877" height="9.05038709"></rect>
                    <path d="M73.2851423,132.808772 L73.2851423,138.491573 L30.2106205,138.491573 C28.6858587,137.394302 27.179349,136.264757 25.6910916,135.10294 L25.6910916,132.808772 L73.2851423,132.808772 Z" id="Path" fill="#3F3D56"></path>
                    <path d="M81.8861468,119.875138 C81.7682095,120.420266 81.6144697,120.959079 81.4523058,121.495788 C80.9742382,123.046983 80.3992935,124.577129 80.2876742,126.189361 C80.1381464,128.319359 80.7088791,130.79664 79.2346618,132.343624 C78.8555774,132.743525 78.3606616,133.042398 78.0215917,133.469661 C77.9693701,133.536664 77.9215339,133.606968 77.878382,133.680135 C77.5751144,134.181063 77.539312,134.791438 77.5351,135.363928 C77.5386458,136.584922 77.618126,137.804515 77.7730807,139.015654 C78.2722086,143.183041 79.2578281,147.358848 77.962623,151.292609 C77.7279388,151.974872 77.4544112,152.643166 77.1433794,153.294218 C76.511572,154.683347 75.8229019,156.053534 75.6165115,157.558424 C75.4648778,158.673937 75.5112103,159.823125 75.5027862,160.957581 C74.8372824,160.745703 74.1724806,160.529617 73.5083809,160.30932 C69.497106,158.983333 65.5307596,157.510015 61.6093417,155.889364 C61.6198718,155.832536 61.630402,155.773603 61.6388261,155.716775 C61.9399876,153.843556 61.5272067,151.928241 61.0259729,150.101326 C59.9729606,146.230707 58.4818951,142.397973 57.5994708,138.499992 C57.2441099,136.977527 57.0110039,135.429126 56.9023767,133.869562 C56.8771044,133.520175 56.8623622,133.168683 56.8602562,132.817191 C56.849726,132.358358 56.8602562,131.899524 56.8792104,131.436481 C56.9234369,130.5125 56.9634514,129.415929 56.2242367,128.853963 C55.817774,128.548776 55.2807377,128.496157 54.8068822,128.31094 C53.8928675,127.955239 53.2673781,127.13018 52.5429057,126.469292 C51.841352,125.78913 50.8496441,125.497861 49.8914207,125.690537 C45.1570773,126.774479 41.6779246,130.788221 37.2721211,132.817191 C37.1015331,132.897171 36.9309451,132.972942 36.7582511,133.044503 C36.1883393,133.253074 35.6459184,133.530126 35.1429302,133.869562 C34.7894841,134.114751 34.5331495,134.475932 34.4184577,134.890361 C34.3068384,135.336566 34.4037155,135.803819 34.4584722,136.262652 C34.547106,137.008687 34.515107,137.764113 34.3637011,138.499992 C34.3065964,138.785133 34.2313283,139.066337 34.1383564,139.341889 C33.9698745,139.840712 33.7445298,140.329012 33.5297153,140.815208 C32.4065022,140.060307 31.2994352,139.288569 30.2085145,138.499992 C28.6837526,137.402721 27.177243,136.273176 25.6889856,135.111359 L24.7855011,134.385223 C20.8907243,131.337313 17.2416808,127.988179 13.8720814,124.36876 C14.3206647,123.105915 14.9693203,121.93147 15.2810119,120.637054 C15.457918,119.89408 15.5232047,119.12164 15.7675036,118.399714 C16.0492289,117.651264 16.4410453,116.948978 16.9300292,116.31602 C18.7208784,113.82007 20.9076416,111.633217 23.4039489,109.841836 C26.0133134,107.972826 29.0270347,106.47425 31.3752521,104.352671 C32.3282021,103.518884 33.1496889,102.546047 33.8119226,101.467071 C33.8519371,101.401824 33.8898455,101.332368 33.9235419,101.256597 C34.1068375,100.87564 34.2338213,100.470107 34.3005203,100.052685 C34.4690023,99.109761 34.44373,98.0742284 34.527971,97.1691897 C37.3885606,97.6640613 40.3048259,97.7519282 43.1900503,97.4301776 C46.5491596,97.0534289 49.834558,96.1210286 53.1936673,95.7590131 C53.4463902,95.7295467 53.7012192,95.7063945 53.9560482,95.6853471 C55.0322268,95.5990527 56.1105114,95.5801101 57.190902,95.5927385 C58.0943866,95.5927385 58.9978712,95.6327286 59.9013557,95.662195 L69.8481101,95.9989536 C70.9495609,96.0368389 72.0741781,96.0789337 73.0998121,96.4809393 C74.3170943,96.9587156 75.2921837,97.9100586 76.0735189,98.9561149 C76.172502,99.0908184 76.2714852,99.2255218 76.3641503,99.3644347 C77.0070816,100.301748 77.5226479,101.320221 77.8973362,102.393157 C77.9373507,102.502604 77.9752591,102.603631 78.0110615,102.723602 C78.1058326,103.016161 78.1879676,103.310824 78.2616785,103.609698 C78.3185411,103.843324 78.3690857,104.07695 78.4154183,104.312681 C78.647081,105.478708 78.7839726,106.669991 79.1504209,107.796028 C79.1756931,107.878113 79.2030715,107.960198 79.2325558,108.040178 C79.672715,109.273556 80.4035055,110.378545 80.955284,111.563515 C81.3531163,112.421307 81.6567528,113.319665 81.8608746,114.24285 C82.2733729,116.096742 82.281992,118.017623 81.8861468,119.875138 Z" id="Path" fill="#35323E"></path>
                    <path d="M51.6520573,44.5527648 C50.7633149,43.8455718 49.4744278,44.3633381 48.4340516,44.8200669 C47.5617706,45.2050926 46.6638609,45.5292964 45.7467642,45.7903526 C45.5590821,45.8625418 45.3555794,45.8836061 45.1570773,45.8513901 C44.7358724,45.7503625 44.5589663,45.2515389 44.2451686,44.9484562 C43.6997083,44.4243756 42.8067538,44.5485553 42.1033416,44.8326954 C41.3999294,45.1168354 40.7049412,45.52726 39.9509844,45.4641177 C39.146483,45.4009755 38.4472828,44.8074385 37.6343573,44.7884958 C36.2022606,44.75482 34.9997205,46.5185931 33.6455467,46.0513405 C32.819985,45.7672005 32.1713294,44.6937825 31.3584039,44.9989699 C30.7265965,45.2389104 30.6697339,46.112378 30.2885434,46.6827629 C29.8399602,47.3478611 28.9659599,47.5351831 28.2183212,47.8298468 C25.8616796,48.7601424 24.3011154,51.3847547 24.608595,53.8978157 C24.779183,55.2848401 25.4510048,56.5561038 25.895376,57.879986 C27.2137475,61.7295576 26.7609522,66.0716387 28.4226056,69.7844021 C28.6332081,69.5865565 28.7511454,69.5128905 28.9554298,69.3171496 C28.430039,70.4061414 28.3286984,71.6514963 28.6711165,72.8110199 C28.8459165,73.3940333 29.1302299,73.9370565 29.3450444,74.5074413 C29.5681938,75.1471781 29.7483093,75.8011052 29.8841867,76.4648506 L31.7164281,84.5428473 C32.4324765,87.6999591 33.1506309,90.8570709 33.2748863,94.0899533 C33.3522498,96.1920746 33.1911656,98.2961904 32.7947127,100.362082 C36.1138075,99.8127446 39.1506951,98.3415305 42.5140164,98.3604732 C43.7481468,98.3604732 44.9717471,98.5709473 46.1953474,98.7393266 C49.7627854,99.2382294 53.3612768,99.4822966 56.9634514,99.4696718 C57.5236958,99.50154 58.0847375,99.4228704 58.6145747,99.2381503 C59.0779001,99.0403046 59.4569845,98.6888128 59.8950377,98.4341391 C60.7521897,97.9290012 61.7904598,97.8027168 62.7781854,97.8027168 C67.2829721,97.7206319 71.6234888,99.3686442 76.0987912,99.9495528 C77.8657458,96.2431035 77.9710471,91.8020996 76.6147672,87.9272711 C76.2125165,86.7759777 75.6712682,85.6541507 75.5112103,84.4439245 C75.4469441,83.6999682 75.4300619,82.9526815 75.4606657,82.2065846 C75.4536475,80.296491 75.1092938,78.4026313 74.4434558,76.6121825 C74.1823088,75.9113037 73.8685111,75.1977964 73.8958894,74.4506133 C73.9232677,73.7034302 74.291822,73.0067609 74.6540583,72.3458721 C75.3890609,70.9988378 76.1282755,69.639175 77.1665457,68.5026147 C78.2300881,67.3281692 79.5610957,66.4336542 80.877361,65.5559771 L84.1269571,63.3754652 C83.6825859,60.5698452 83.1097472,57.6147886 81.9198432,55.0343759 C80.7299393,52.4539632 78.9503485,50.0819199 76.5431624,48.5728205 C75.7315754,48.0848866 74.8822467,47.6625925 74.0032967,47.3099758 C72.7733783,46.7922094 71.4929153,46.3354806 70.1598017,46.2576052 C68.643464,46.1713108 67.1502925,46.5775258 65.652909,46.8300948 C60.9396259,47.6235822 55.392357,47.5267641 51.6520573,44.5527648 Z" id="Path" fill="#6C63FF"></path>
                    <path d="M87.1849048,93.2396379 L85.6390827,95.190733 L82.7243446,98.8677158 L79.3547052,103.117188 L78.4133122,104.304262 L76.5873889,104.304262 L31.3731461,104.356881 L3.05764495,104.388452 L1.79403017,104.388452 C1.6255482,103.862267 1.46970237,103.336081 1.3264927,102.788849 C1.11589024,102.005885 0.931262077,101.213099 0.772608222,100.410491 C0.738911828,100.256845 0.709427483,100.103199 0.682049163,99.947448 L10.9552373,93.2354284 L14.8176865,93.214381 L14.8176865,93.214381 L26.6324847,93.1470293 L26.6324847,93.1470293 L33.2306598,93.1091439 L34.4353059,93.1091439 L35.1913688,93.1091439 L35.1913688,93.1091439 L39.5887482,93.0859918 L39.5887482,93.0859918 L73.1040241,92.8944603 L73.1040241,92.8944603 L74.8183282,92.8839366 L74.8183282,92.8839366 L75.5617549,92.8839366 L77.5308879,92.8734129 L84.8577476,92.8313181 L86.2645721,92.2967138 L86.3677673,92.4061604 L87.1849048,93.2396379 Z" id="Path" fill="#3F3D56"></path>
                    <path d="M86.5530974,92.1872673 L86.3782974,92.3977414 L85.2284079,93.75109 L82.8612363,96.5440815 L77.8973362,102.393157 L33.9235419,101.27133 L0.764184123,100.429434 C0.730487729,100.275788 0.701003384,100.122142 0.673625064,99.9663907 C0.170261224,97.2653215 -0.052055494,94.5194436 0.0102273056,91.7726333 L3.68734631,89.8909947 L4.52975616,89.457418 L11.0858108,86.0898321 L16.8394701,83.1431944 L31.8470016,85.0921848 L35.1703085,85.5236567 L36.6740101,85.7172929 L38.8748058,86.0035377 L39.060136,86.0287946 L73.5715616,90.5013696 L77.3855722,90.9959838 L79.6242764,91.2864381 L86.5236131,92.1830578 L86.5530974,92.1872673 Z" id="Path" fill="#504F60"></path>
                    <path d="M79.3926137,102.290025 L79.3568113,103.117188 L79.1462088,107.787609 L78.0131676,133.465451 L77.7730807,139.015654 L77.1412734,153.294218 L76.7853552,161.359586 L75.5006802,160.957581 C74.8351764,160.745703 74.1703746,160.529617 73.5062748,160.30932 L76.5873889,104.323205 L76.6526756,103.148759 L78.0089555,102.727811 L79.3926137,102.290025 Z" id="Path" fill="#3F3D56"></path>
                    <path d="M3.15452208,102.228987 L3.05975097,104.390557 L2.92075334,107.547668 C2.51920465,106.550021 2.15135235,105.533431 1.81719644,104.497898 L1.78560607,104.394766 C1.6171241,103.868581 1.46127828,103.342396 1.3180686,102.795163 L3.15452208,102.228987 Z" id="Path" fill="#3F3D56"></path>
                    <ellipse id="Oval" fill="#A1616A" cx="58.2270662" cy="57.3559054" rx="9.6877133" ry="13.0493953"></ellipse>
                    <ellipse id="Oval" fill="#000000" opacity="0.1" cx="58.2270662" cy="57.3559054" rx="9.6877133" ry="13.0493953"></ellipse>
                    <ellipse id="Oval" fill="#A1616A" cx="59.5959822" cy="49.463126" rx="13.4785576" ry="13.4703436"></ellipse>
                    <path d="M59.8634473,28.701959 C59.0405489,28.7675316 58.2234191,28.892031 57.4183527,29.0744981 C55.2870558,29.5922645 53.4442842,30.7414532 51.6499512,31.8695944 C50.8454498,32.3768371 50.0177821,32.9051271 49.5186543,33.6502055 C48.6214878,34.9867161 48.9689819,36.687347 48.465642,38.1711895 C48.2044949,38.9331059 47.7243213,39.6171467 47.3178586,40.3264445 C46.1995595,42.2712254 45.6140846,44.4075377 45.0391399,46.5228026 C44.9212025,46.9605887 44.8875061,47.5541257 45.3655737,47.722505 C45.6408591,47.7796468 45.9272196,47.7471927 46.1827113,47.6298964 C47.692731,47.1310728 49.6113194,46.9879504 50.7317245,48.0003309 C51.8521296,49.0127114 51.7573585,50.8080556 53.0904721,51.5783909 C54.6173399,52.4686964 57.0013598,51.3931737 58.387124,52.4434395 C58.981023,52.8938541 59.1958375,53.6157803 59.6823292,54.1588036 C60.8153704,55.4216483 62.9951059,55.3606108 64.8083931,55.1059371 C65.8487693,54.9586052 67.1250202,54.8596824 67.7568276,55.5900276 C68.0600952,55.9352051 68.1464422,56.4087719 68.4981483,56.7202736 C69.1299557,57.2843442 70.2861632,56.9980994 70.9032284,56.4192956 C71.5202936,55.8404918 71.8151371,55.0575281 72.3290071,54.407163 C73.3293688,53.1443183 75.0878993,52.456068 76.1198514,51.2079564 C76.9833215,50.1555858 77.2444686,48.8380179 77.4803433,47.5667542 L78.3585556,42.8542387 C78.7144738,40.9431337 79.0388015,38.8552304 77.962623,37.1714375 C77.5793265,36.565272 77.0296541,36.0432962 76.6990082,35.4160833 C76.4778756,34.9951351 76.3536201,34.5510347 76.0966851,34.1532386 C75.7920046,33.7388345 75.4279767,33.3714825 75.0162945,33.0629827 L72.9376482,31.3434091 C72.2269434,30.7217115 71.4669886,30.1586037 70.6652476,29.6596162 C67.6978589,27.9316237 63.2541469,28.3862478 59.8634473,28.701959 Z" id="Path" fill="#464353"></path>
                    <path d="M15.4684481,63.4007221 C14.9693203,63.9311169 14.5081009,64.5036065 13.9731706,65.0003254 C13.502602,65.4185564 13.0105279,65.8119757 12.4989534,66.1789805 C11.6733917,66.7963712 10.8660823,67.435511 10.077025,68.0963997 C9.25381732,68.7468655 8.50891866,69.4906039 7.85727508,70.3126922 C6.73265792,71.8217916 6.19983369,73.6992207 5.14682138,75.2588339 C4.21595849,76.6416489 2.90390515,77.7340096 1.95830009,79.1063008 C1.54346137,79.6832691 1.2353329,80.329802 1.04849745,81.0153011 C0.909037428,81.6787467 0.846148054,82.3559844 0.861061256,83.0337479 C0.842107035,84.1450512 0.825258837,85.268983 1.0527095,86.3571342 C1.28016016,87.4452854 1.77928799,88.5144939 2.63433399,89.2280012 C3.42830528,89.8909947 4.45393927,90.1961821 5.45851302,90.4487511 C5.97659508,90.5771403 6.53679763,90.6971105 7.0296074,90.4929506 C7.39021787,90.3109169 7.70322647,90.047112 7.94362209,89.7226154 L10.5066541,86.7759777 C12.2209581,84.797521 14.0026549,82.7769695 16.3550845,81.6193618 C17.0921931,81.2594511 17.8693162,80.9879394 18.6085308,80.6385524 C21.7422955,79.129453 23.9578334,76.0396929 24.8170914,72.672107 C25.0276939,71.8491532 25.1624795,71.0093615 25.2993711,70.1695698 L25.6700314,67.8669829 C25.6984939,67.7515455 25.6984939,67.6309286 25.6700314,67.5154911 C25.6119873,67.3856871 25.518571,67.2748229 25.4004602,67.1955705 C23.6152038,65.7546953 21.9436892,64.1784902 20.4007578,62.4809502 C20.0343095,62.0768399 19.6910275,61.523293 19.2677165,61.1844296 C18.7369983,60.7634814 18.7770128,60.7950525 18.1388873,61.1844296 C17.1572506,61.8055885 16.2597255,62.5504764 15.4684481,63.4007221 Z" id="Path" fill="#A1616A"></path>
                    <path d="M33.0011031,78.7232379 C32.943063,78.5900992 32.8167094,78.4994335 32.6719257,78.487035 C32.5271421,78.4746364 32.3871965,78.5424977 32.3073383,78.6638275 C32.2274802,78.7851574 32.2205435,78.9404571 32.2892668,79.0684155 L32.0786643,79.1715478 L38.3588298,92.0357259 L39.4939771,91.482179 L33.2138116,78.6095819 L33.0011031,78.7232379 Z" id="Path" fill="#3F3D56"></path>
                    <path d="M15.4684481,63.4007221 C14.9693203,63.9311169 14.5081009,64.5036065 13.9731706,65.0003254 C13.502602,65.4185564 13.0105279,65.8119757 12.4989534,66.1789805 C11.6733917,66.7963712 10.8660823,67.435511 10.077025,68.0963997 C9.25381732,68.7468655 8.50891866,69.4906039 7.85727508,70.3126922 C6.73265792,71.8217916 6.19983369,73.6992207 5.14682138,75.2588339 C4.21595849,76.6416489 2.90390515,77.7340096 1.95830009,79.1063008 C1.54346137,79.6832691 1.2353329,80.329802 1.04849745,81.0153011 C0.909037428,81.6787467 0.846148054,82.3559844 0.861061256,83.0337479 C0.842107035,84.1450512 0.825258837,85.268983 1.0527095,86.3571342 C1.28016016,87.4452854 1.77928799,88.5144939 2.63433399,89.2280012 C3.42830528,89.8909947 4.45393927,90.1961821 5.45851302,90.4487511 C5.97659508,90.5771403 6.53679763,90.6971105 7.0296074,90.4929506 C7.39021787,90.3109169 7.70322647,90.047112 7.94362209,89.7226154 L10.5066541,86.7759777 C12.2209581,84.797521 14.0026549,82.7769695 16.3550845,81.6193618 C17.0921931,81.2594511 17.8693162,80.9879394 18.6085308,80.6385524 C21.7422955,79.129453 23.9578334,76.0396929 24.8170914,72.672107 C25.0276939,71.8491532 25.1624795,71.0093615 25.2993711,70.1695698 L25.6700314,67.8669829 C25.6984939,67.7515455 25.6984939,67.6309286 25.6700314,67.5154911 C25.6119873,67.3856871 25.518571,67.2748229 25.4004602,67.1955705 C23.6152038,65.7546953 21.9436892,64.1784902 20.4007578,62.4809502 C20.0343095,62.0768399 19.6910275,61.523293 19.2677165,61.1844296 C18.7369983,60.7634814 18.7770128,60.7950525 18.1388873,61.1844296 C17.1572506,61.8055885 16.2597255,62.5504764 15.4684481,63.4007221 Z" id="Path" fill="#000000" opacity="0.04"></path>
                    <path d="M88.0715412,87.1085268 C88.0504809,88.4513517 87.9978303,89.8341666 87.4397338,91.059126 C87.199647,91.5895208 86.8268806,92.1114966 86.2687841,92.2861901 C85.9310372,92.3641612 85.5815068,92.3770195 85.2389381,92.3240755 C81.1071269,91.9611574 76.9436763,92.2912418 72.9208,93.3006754 C73.9948726,91.1538394 73.3778073,88.5797409 73.6747568,86.1971739 C73.7568918,85.5468089 73.9064195,84.9069675 73.9632822,84.2544978 C74.1738847,81.9392825 73.1819471,79.6914189 72.7270457,77.40567 C72.332156,75.427056 72.332156,73.389981 72.7270457,71.4113671 C72.804511,70.9020563 72.9797141,70.4125014 73.2430218,69.9696193 C73.5514963,69.5386837 73.9569036,69.186151 74.4266076,68.9404009 C76.1324876,67.9701152 78.1437411,67.8585639 80.0602235,67.9869532 C81.3512166,68.0732475 83.9395209,67.9511726 85.0156994,68.74466 C86.1929672,69.6139181 86.5657336,72.5331941 86.8837433,73.8823332 C87.3598993,75.9514901 87.6836902,78.0527378 87.8525146,80.1691951 C88.058905,82.4759915 88.1031316,84.7933115 88.0715412,87.1085268 Z" id="Path" fill="#A1616A"></path>
                    <polygon id="Path" fill="#FFFFFF" points="12.6316329 91.7684238 20.2133216 96.8198026 54.3309206 95.5569579 31.796457 91.7684238"></polygon>
                    <path d="M22.6289318,51.6331142 C21.3842713,52.7296843 20.3291529,54.0219954 19.1497791,55.1901268 C17.5323522,56.7939395 15.6937927,58.1578118 13.8636573,59.5153699 C15.1985583,59.8882573 16.2386144,60.9356752 16.6014893,62.2725808 C16.6815183,62.5819778 16.7215327,62.9040032 16.8120918,63.2070859 C17.0226943,63.9248027 17.4860197,64.5435966 17.9830415,65.101353 C20.1185505,67.5070722 23.1069994,69.2876832 24.3664022,72.257473 C24.4075016,72.4019819 24.4966398,72.528184 24.6191251,72.615279 C24.7215959,72.6606195 24.8354182,72.6738295 24.9455589,72.6531644 C26.0849182,72.5331941 26.9568124,71.615527 27.6833909,70.7231167 C29.1997287,68.8288496 30.5159941,66.7367369 31.2636328,64.4257311 C32.0112716,62.1147253 32.131315,59.5595695 31.3162834,57.269611 C30.9098207,56.1288413 30.2822253,55.0806802 29.658842,54.0430428 C29.1126797,53.1351978 28.5679213,52.2287559 28.0245669,51.3237172 C27.7402536,50.845941 27.3780174,49.8756553 26.8199208,49.6399243 C25.6152748,49.1221579 23.4018429,50.8606741 22.6289318,51.6331142 Z" id="Path" fill="#6C63FF"></path>
                    <path d="M84.6597813,65.2360564 L86.4520082,69.4455388 C82.4938665,68.0633693 78.1119307,68.6705125 74.6793306,71.0767132 C73.6579086,71.8070584 72.7207277,72.7247256 72.2595083,73.8907522 C71.7949393,73.9790139 71.3208777,73.7932688 71.04012,73.4129759 C70.7705457,73.0350915 70.6142199,72.5883014 70.5894307,72.1248743 C70.4230548,70.5084331 71.035908,68.923563 71.642443,67.4123588 C71.9246503,66.7051658 72.2152817,65.9832395 72.7165156,65.4086452 C73.2177495,64.8340509 73.8832533,64.4551974 74.548757,64.0973914 C76.6719023,62.9239032 78.8955484,61.9420098 81.1932647,61.1633822 C82.1620361,60.8497758 83.1771399,60.85609 83.7204943,61.7611287 C84.3501957,62.840861 84.1669715,64.0868677 84.6597813,65.2360564 Z" id="Path" fill="#6C63FF"></path>
                    <path d="M12.6758594,77.8666083 C13.1244427,78.2244143 13.5182693,78.6474672 13.9794887,78.9884353 C14.4672547,79.3269131 14.986296,79.6179912 15.5295228,79.8576934 L17.6060631,80.8553408 C18.2495513,81.1895982 18.922899,81.463001 19.6173166,81.6719803 C20.506059,81.9098161 21.4390279,81.9329682 22.3319824,82.1539661 C23.4587055,82.4317919 24.4885516,83.0105957 25.5984266,83.3452496 C26.7083015,83.6799034 28.0077187,83.7346267 28.9343696,83.0379574 C29.5135263,82.6022759 29.9515795,81.8824544 30.6697339,81.7751126 C31.1330593,81.7140752 31.5795365,81.9371777 31.9923173,82.1539661 L37.3963765,84.9932619 C38.1250611,85.3763248 38.8958661,85.8014825 39.2770565,86.5318277 C39.658247,87.2621729 39.401312,88.3713715 38.5989166,88.5607982 C38.3192615,88.5929149 38.0380022,88.6090774 37.7565067,88.6092073 C37.4785115,88.6428831 37.175244,88.8070529 37.1373355,89.0869835 C37.1359234,89.2608211 37.1817823,89.4317779 37.2700151,89.5815977 C37.5122079,90.1372494 37.5838127,90.8023476 37.3016054,91.3411613 C37.0193981,91.8799751 36.326516,92.2146289 35.7726315,91.9725837 C35.8674027,92.7871185 34.9807663,93.3575034 34.1910071,93.5742917 C32.1987078,94.1194197 30.086365,93.7847658 28.0498392,93.4395883 C27.2495499,93.3048849 26.4366244,93.1659719 25.7079398,92.8081659 C25.3583398,92.6376819 25.034012,92.4187888 24.6801998,92.2609332 C23.7093225,91.8294613 22.6057656,91.8862893 21.5443291,91.905232 C16.6351857,91.9915264 11.7681628,91.0822782 6.94115436,90.1772395 C6.0460939,90.0088602 5.12576113,89.8299572 4.36127419,89.335343 C2.88705695,88.375581 2.33949055,86.4055433 2.58168338,84.6628176 C2.82387621,82.9200919 3.70840656,81.341536 4.57819473,79.8092844 L5.70491791,77.8245134 C5.85220706,77.5204647 6.05836089,77.2486219 6.311453,77.0247118 C7.96889438,75.7597623 11.2563988,76.7258385 12.6758594,77.8666083 Z" id="Path" fill="#A1616A"></path>
                    <path d="M12.6758594,77.8666083 C13.1244427,78.2244143 13.5182693,78.6474672 13.9794887,78.9884353 C14.4672547,79.3269131 14.986296,79.6179912 15.5295228,79.8576934 L17.6060631,80.8553408 C18.2495513,81.1895982 18.922899,81.463001 19.6173166,81.6719803 C20.506059,81.9098161 21.4390279,81.9329682 22.3319824,82.1539661 C23.4587055,82.4317919 24.4885516,83.0105957 25.5984266,83.3452496 C26.7083015,83.6799034 28.0077187,83.7346267 28.9343696,83.0379574 C29.5135263,82.6022759 29.9515795,81.8824544 30.6697339,81.7751126 C31.1330593,81.7140752 31.5795365,81.9371777 31.9923173,82.1539661 L37.3963765,84.9932619 C38.1250611,85.3763248 38.8958661,85.8014825 39.2770565,86.5318277 C39.658247,87.2621729 39.401312,88.3713715 38.5989166,88.5607982 C38.3192615,88.5929149 38.0380022,88.6090774 37.7565067,88.6092073 C37.4785115,88.6428831 37.175244,88.8070529 37.1373355,89.0869835 C37.1359234,89.2608211 37.1817823,89.4317779 37.2700151,89.5815977 C37.5122079,90.1372494 37.5838127,90.8023476 37.3016054,91.3411613 C37.0193981,91.8799751 36.326516,92.2146289 35.7726315,91.9725837 C35.8674027,92.7871185 34.9807663,93.3575034 34.1910071,93.5742917 C32.1987078,94.1194197 30.086365,93.7847658 28.0498392,93.4395883 C27.2495499,93.3048849 26.4366244,93.1659719 25.7079398,92.8081659 C25.3583398,92.6376819 25.034012,92.4187888 24.6801998,92.2609332 C23.7093225,91.8294613 22.6057656,91.8862893 21.5443291,91.905232 C16.6351857,91.9915264 11.7681628,91.0822782 6.94115436,90.1772395 C6.0460939,90.0088602 5.12576113,89.8299572 4.36127419,89.335343 C2.88705695,88.375581 2.33949055,86.4055433 2.58168338,84.6628176 C2.82387621,82.9200919 3.70840656,81.341536 4.57819473,79.8092844 L5.70491791,77.8245134 C5.85220706,77.5204647 6.05836089,77.2486219 6.311453,77.0247118 C7.96889438,75.7597623 11.2563988,76.7258385 12.6758594,77.8666083 Z" id="Path" fill="#000000" opacity="0.04"></path>
                    <path d="M76.9643673,81.503601 C75.8671285,82.0213674 74.6077257,82.0718812 73.4620483,82.4696772 C72.3163709,82.8674733 71.3433875,83.5830853 70.2924813,84.1660986 C67.5546492,85.6941407 64.3956123,86.2708398 61.293438,86.8201773 C59.412758,87.1569359 57.5025937,87.4936944 55.6071715,87.4137143 C53.0420335,87.3042677 50.5779847,86.4497428 48.0928756,85.805692 C45.6077666,85.1616412 42.9562816,84.7280645 40.4943388,85.4520955 C37.8869031,86.2455292 35.8140223,88.2335003 34.9133735,90.8044523 C34.3973975,92.3177612 34.3257926,93.9489357 34.4247758,95.5443295 C34.9428578,95.9252876 35.6673303,95.3969976 35.9495376,94.8181938 C36.2317449,94.2393899 36.3854847,93.5300922 36.9330511,93.1933336 C37.8828682,93.515359 38.1145309,94.7803084 38.8979721,95.4054166 C39.3865698,95.7968984 40.0394374,95.9000307 40.6607147,95.9884299 L43.8618722,96.443054 C44.6326772,96.5525005 45.5277376,96.6261664 46.0858342,96.0831432 C46.3575113,95.8200506 46.5070391,95.4517209 46.75555,95.1696855 C47.265208,94.6056149 48.1160419,94.5087968 48.8742108,94.5845675 C51.2413825,94.8202985 53.4611324,96.3546548 55.8114559,95.9905346 C56.6201694,95.8663549 57.3720202,95.5211773 58.1428252,95.2496657 C62.7107926,93.637434 67.7863119,94.6182434 72.5396095,93.694262 C74.3528967,93.3427702 76.0987912,92.7197668 77.8236253,92.0630876 C78.7608063,91.7073863 79.7085174,91.3348471 80.5088067,90.7328911 C82.0500277,89.5485649 82.8740959,87.655794 82.6906483,85.7215024 C82.5143409,84.2712987 81.7903634,82.9431841 80.6667586,82.0087389 C80.2960983,81.6930277 79.8096066,81.088967 79.3652354,80.8911214 C78.5165074,80.5185822 77.6846277,81.1647377 76.9643673,81.503601 Z" id="Path" fill="#A1616A"></path>
                    <g id="Group" opacity="0.1" transform="translate(45.385661, 31.960098)" fill="#000000">
                        <path d="M25.4249025,22.6554341 C25.0731964,22.3439324 24.9868494,21.8703656 24.6835818,21.5251881 C24.0517744,20.7948429 22.7755235,20.8937657 21.7351473,21.0410976 C19.9218601,21.2957713 17.7337006,21.3547041 16.6090834,20.0939641 C16.1225917,19.5509409 15.9077772,18.8311194 15.3138783,18.3786 C13.928114,17.3262294 11.5440942,18.4038569 10.0172263,17.5135514 C8.68411272,16.7369019 8.77045973,14.9352434 7.65847872,13.9354914 C6.54649772,12.9357393 4.61948518,13.0662333 3.10946552,13.5650569 C2.85397384,13.6823532 2.56761334,13.7148073 2.29232796,13.6576655 C1.81426037,13.4892862 1.84795677,12.8957492 1.96589415,12.4579631 C2.54083887,10.3426982 3.12631372,8.20638588 4.2446128,6.26160502 C4.65107555,5.55230724 5.13124917,4.86826636 5.39239622,4.10635005 C5.84940357,2.77194414 5.61563483,1.26284471 6.21585185,0 C5.57140831,0.420948237 4.95223707,0.879781815 4.55419842,1.47331883 C3.65703193,2.80982948 4.00452599,4.51046036 3.5011861,5.99430289 C3.24003905,6.7562192 2.75986543,7.44026009 2.35340268,8.14955786 C1.2351036,10.0943387 0.649628753,12.230651 0.0746840295,14.3459159 C-0.0432533498,14.7837021 -0.0769497439,15.3772391 0.401117847,15.5456184 C0.676403224,15.6027601 0.962763723,15.5703061 1.2182554,15.4530098 C2.72827506,14.9541861 4.6468635,14.8110637 5.7672686,15.8234442 C6.88767371,16.8358247 6.7929026,18.631169 8.12601619,19.4015042 C9.65288405,20.2918098 12.0369039,19.216287 13.4226681,20.2665529 C14.0165671,20.7169675 14.2313816,21.4388937 14.7178733,21.9819169 C15.8509145,23.2447616 18.03065,23.1837241 19.8439372,22.9290505 C20.8843134,22.7817186 22.1605643,22.6827957 22.7923717,23.4131409 C23.0956393,23.7583185 23.1819863,24.2318853 23.5336924,24.5433869 C24.1654998,25.1074576 25.3217073,24.8212128 25.9387725,24.242409 C26.3344288,23.8306411 26.6730098,23.3676766 26.9454523,22.8659082 C26.3978859,23.0321828 25.8145171,23.0069259 25.4249025,22.6554341 Z" id="Path"></path>
                        <path d="M29.2620794,20.3402188 C29.1264342,20.5148246 29.0005815,20.6968133 28.885101,20.8853468 C29.6938144,20.3086477 30.5509665,19.7698339 31.1553955,19.0352793 C31.3122891,18.8451827 31.4531715,18.6424356 31.5766004,18.4291138 C30.7362966,19.0310698 29.8601904,19.5846167 29.2620794,20.3402188 Z" id="Path"></path>
                    </g>
                    <polygon id="Path" fill="#3F3D56" points="117.195756 93.978402 117.827563 154.384474 120.775998 153.963526 120.14419 93.978402"></polygon>
                    <polygon id="Path" fill="#3F3D56" points="134.886363 104.923056 135.51817 165.329128 138.466605 164.90818 137.834797 104.923056"></polygon>
                    <path d="M189.965225,135.437594 L189.965225,135.437594 L189.952589,134.277881 L189.952589,133.587526 L189.840969,122.962793 L189.666169,106.352175 L189.636685,104.918847 L186.688251,104.918847 L186.702993,106.299557 L186.795658,115.196298 L186.835672,119.047974 L186.835672,119.047974 L186.869369,122.167201 L186.924125,127.559548 L186.957822,130.739812 L186.957822,130.739812 L186.957822,131.07657 L187.002048,135.256586 L187.039957,138.941988 L187.280043,138.676791 C187.666148,138.24602 188.043828,137.808234 188.413085,137.363432 L189.965225,135.437594 Z" id="Path" fill="#3F3D56"></path>
                    <polygon id="Path" fill="#6C63FF" points="131.622025 114.710103 129.937205 117.227373 131.622025 128.696108 145.942992 132.613031 169.109263 132.613031 183.009025 133.452823 189.630367 128.92342 188.48469 121.144296 183.43023 114.710103"></polygon>
                    <path d="M129.937205,117.227373 L129.094795,124.219323 C129.094795,124.219323 124.672143,137.927503 160.263959,137.087711 C195.855776,136.247919 189.748304,133.450718 189.748304,133.450718 L189.537702,125.339046 C189.537702,125.339046 190.77815,129.178094 172.689505,128.658223 C154.600859,128.138351 137.729496,126.458768 137.729496,126.458768 C137.729496,126.458768 131.411422,127.576386 129.937205,117.227373 Z" id="Path" fill="#3F3D56"></path>
                    <path d="M159.590032,54.5565997 C157.559824,55.480581 156.022426,57.2717158 154.99258,59.2522772 C153.962734,61.2328387 153.383577,63.4070363 152.812844,65.5665008 C152.210521,67.8438308 151.606092,70.1274749 151.294401,72.4616329 C150.73841,76.6121825 151.155403,80.975311 153.063461,84.7028076 C154.97152,88.4303043 158.497005,91.4379794 162.624813,92.1556962 C164.219074,92.4356267 165.857561,92.3787987 167.46867,92.2125242 C170.380736,91.9043373 173.249323,91.2725172 176.021236,90.3287808 C178.91702,89.3500762 181.930741,87.8430815 183.219628,85.0669279 C183.967267,83.4568009 184.030447,81.6214665 183.994645,79.8492745 C183.895275,75.0190914 183.165336,70.2225436 181.823334,65.581234 C181.433719,64.2341996 180.980924,62.8766416 180.155362,61.7421861 C179.3298,60.6077306 178.200971,59.7763578 177.048976,59.0060225 C172.122984,55.6910552 165.649064,51.8035982 159.590032,54.5565997 Z" id="Path" fill="#FBBEBE"></path>
                    <path d="M159.590032,54.5565997 C157.559824,55.480581 156.022426,57.2717158 154.99258,59.2522772 C153.962734,61.2328387 153.383577,63.4070363 152.812844,65.5665008 C152.210521,67.8438308 151.606092,70.1274749 151.294401,72.4616329 C150.73841,76.6121825 151.155403,80.975311 153.063461,84.7028076 C154.97152,88.4303043 158.497005,91.4379794 162.624813,92.1556962 C164.219074,92.4356267 165.857561,92.3787987 167.46867,92.2125242 C170.380736,91.9043373 173.249323,91.2725172 176.021236,90.3287808 C178.91702,89.3500762 181.930741,87.8430815 183.219628,85.0669279 C183.967267,83.4568009 184.030447,81.6214665 183.994645,79.8492745 C183.895275,75.0190914 183.165336,70.2225436 181.823334,65.581234 C181.433719,64.2341996 180.980924,62.8766416 180.155362,61.7421861 C179.3298,60.6077306 178.200971,59.7763578 177.048976,59.0060225 C172.122984,55.6910552 165.649064,51.8035982 159.590032,54.5565997 Z" id="Path" fill="#000000" opacity="0.05"></path>
                    <path d="M157.309207,81.0489769 C157.89687,81.856215 158.607501,82.5664136 159.415232,83.1537181 C161.420167,84.5386378 163.993729,84.7259598 166.428294,84.8017305 C168.382684,84.8606632 170.623495,84.7491119 171.849201,83.2252793 C172.400979,82.5391337 172.64949,81.6635614 172.872729,80.8111412 C174.250373,75.5768367 175.228968,70.2456856 175.800103,64.8635172 L181.376856,64.8824599 C183.790361,75.2104249 183.592394,85.9467097 183.381792,96.5525005 L183.076418,112.018139 L179.48354,111.637181 C170.952034,110.734247 162.407893,109.831313 153.830054,109.675562 C148.804093,109.583198 143.776702,109.748989 138.767766,110.172281 L146.591648,86.9233096 C147.606751,83.9009012 148.632385,80.8385028 148.870366,77.6624484 C149.213648,73.0551699 147.920549,68.191113 149.712776,63.9290122 C149.855986,63.5859393 150.037104,63.2302381 150.363538,63.0513351 C150.689972,62.8724321 151.102752,62.9166316 151.477625,62.9650407 C152.185249,63.059754 154.348136,62.9650407 154.862006,63.41756 C155.620175,64.0742393 155.118941,64.1731621 154.851476,65.2318469 C154.373409,67.126114 153.920613,68.8793634 153.926931,70.8536106 C153.933249,74.4379849 155.04523,78.2223095 157.309207,81.0489769 Z" id="Path" fill="#6C63FF"></path>
                    <path d="M189.965225,135.437594 L189.965225,135.437594 C190.904512,134.191587 191.789744,132.901381 192.620922,131.566975 C192.199717,130.666146 191.736392,129.786364 191.367837,128.866592 C190.803423,127.456415 190.479095,125.962049 190.158979,124.478207 C190.049466,123.973069 189.940655,123.467931 189.832545,122.962793 C188.653171,117.467314 187.545403,111.893959 187.315846,106.322709 C187.294786,105.859666 187.281447,105.396623 187.275831,104.93358 C187.275831,104.866228 187.275831,104.800981 187.275831,104.723106 C187.275831,104.215863 187.275831,103.708621 187.275831,103.203483 C187.301104,101.940638 187.381133,100.66727 187.526448,99.4002153 C187.553827,99.1518559 187.585417,98.9034964 187.619113,98.6551369 C187.619113,98.6004137 187.63175,98.5477951 187.640174,98.4930719 L201.961141,97.9710961 L201.961141,97.9710961 L203.165787,97.9268965 C203.993455,97.8974301 204.869561,97.8511258 205.551913,97.3817685 C206.699697,96.5945953 206.834482,94.9802588 206.815528,93.5932344 C206.745827,90.0874954 206.348163,86.5959568 205.62773,83.1642418 C205.084376,80.5838291 204.309359,77.9465884 202.569782,75.9639222 C201.141898,74.3348526 199.073781,73.1498833 198.330355,71.1230175 C198.054465,70.3695202 197.984967,69.5423569 197.626942,68.8225354 C197.268918,68.1027139 196.677125,67.5744239 196.119029,67.0187722 C194.154867,65.073673 192.525374,62.8179512 191.296232,60.3425332 C190.443292,58.6250644 189.518748,56.7307973 188.404661,55.5437233 C188.349904,55.4826858 188.295147,55.4258578 188.238285,55.3711345 C187.290574,54.4345247 186.205971,54.0241001 184.921296,54.6618367 C184.690296,54.7776827 184.470357,54.9143561 184.264216,55.0701565 L184.264216,55.0701565 C183.80638,55.419764 183.387662,55.8177628 183.015344,56.2572305 C181.717635,57.7484111 180.579133,59.3708278 179.618326,61.0981353 C178.942749,62.3142501 178.362555,63.5808921 177.882962,64.8866694 C177.504432,65.918292 177.191417,66.9727577 176.945781,68.0437812 C176.764662,68.8372686 176.621453,69.639175 176.507727,70.4431861 C176.086523,73.4655945 176.086523,76.5469355 176.145491,79.6072292 C176.208672,82.4191635 176.332927,85.2374119 176.587756,88.0388224 C176.650937,88.7165491 176.721138,89.3935742 176.798359,90.0698977 C176.952801,91.4071099 177.143747,92.7401126 177.371198,94.0689059 C177.461757,94.5761485 177.554422,95.0833912 177.657617,95.588529 C177.682889,95.7232325 177.710268,95.8579359 177.737646,95.9905346 L177.750282,96.0473626 C178.028478,97.2215043 178.244297,98.4095385 178.396832,99.60648 C178.41368,99.7566182 178.426316,99.9060548 178.43474,100.05479 C178.470196,100.742763 178.46457,101.432237 178.417892,102.119541 C178.369453,102.931971 178.293636,103.742296 178.255728,104.554726 C178.255728,104.697849 178.255728,104.838867 178.240986,104.975675 C178.230456,105.386099 178.240986,105.796524 178.240986,106.206948 C178.283691,107.188851 178.400557,108.166127 178.590586,109.130434 C178.9458,110.924094 179.559424,112.656789 180.412297,114.274421 C180.492326,114.425963 180.574461,114.575399 180.656596,114.722731 C181.72435,116.629627 183.072206,118.378667 184.059932,120.329762 C184.911933,122.085524 185.54836,123.937812 185.955354,125.846288 C186.095756,126.476307 186.229137,127.10773 186.355499,127.740555 C186.551359,128.750831 186.726159,129.769526 186.905171,130.788221 C186.922019,130.889248 186.940973,130.998695 186.959928,131.091303 C187.197908,132.442547 187.448525,133.787477 187.770747,135.10715 C187.958183,135.87538 188.168786,136.633087 188.415191,137.378165 L189.965225,135.437594 Z" id="Path" fill="#464353"></path>
                    <path d="M187.151576,118.848024 C187.151576,119.037451 187.13894,119.226877 187.130516,119.418409 C187.092925,120.341936 187.00787,121.262922 186.875687,122.177724 C186.701172,123.426391 186.395515,124.65321 185.963778,125.837869 C185.677582,126.616864 185.313504,127.365027 184.877069,128.071 C184.48998,128.697872 184.036695,129.28142 183.525002,129.811621 C182.261387,131.124979 180.441781,131.543823 178.681145,132.09737 C177.871072,132.33175 177.088164,132.651355 176.345564,133.050817 C176.212884,133.124483 176.08231,133.204463 175.955949,133.288653 L173.753047,134.747239 C173.066483,135.199758 172.365177,135.669115 171.893427,136.340528 C171.816138,136.454757 171.745809,136.57354 171.682825,136.696229 C171.384717,137.314277 171.166738,137.967815 171.034169,138.64101 C169.888492,143.410353 168.740709,148.183906 167.955161,153.024811 C167.902511,153.344732 167.851966,153.666757 167.79721,153.988783 L167.778255,154.08981 C167.768747,154.065862 167.757484,154.042647 167.744559,154.020354 C162.108837,157.425825 156.264619,160.498747 150.243494,162.95919 L148.935653,152.014535 C148.799347,151.124826 148.754185,150.223544 148.800867,149.324676 C148.925123,147.908185 149.502174,146.565361 149.658019,145.153079 C149.805634,143.77047 149.544227,142.374954 148.906169,141.139338 C148.657658,140.659457 148.345966,140.187995 148.289103,139.651286 C148.232241,139.114577 148.541826,138.624172 149.080969,138.569449 C149.502174,138.102196 149.53587,137.46446 149.411615,136.833037 C149.345603,136.503409 149.246833,136.181189 149.116771,135.871171 C148.758747,134.991389 148.305952,134.033732 148.613431,133.135007 C148.69476,132.972102 148.731111,132.790457 148.718732,132.608822 C148.720945,132.597705 148.720945,132.586262 148.718732,132.575146 C148.647128,132.339415 148.367026,132.236283 148.221711,132.036332 C147.947927,131.663793 148.221711,131.15655 148.390193,130.727183 C148.554044,130.265812 148.64913,129.782871 148.6724,129.293854 C148.695566,129.022343 148.712414,128.748726 148.741899,128.47932 C148.782921,128.114738 148.848354,127.753315 148.937759,127.397483 C149.449352,125.381256 150.679748,123.620984 152.397957,122.447131 C153.217201,121.895689 154.12911,121.493684 154.965202,120.973812 C155.821677,120.396788 156.639181,119.763995 157.412402,119.079545 C159.267108,117.536069 161.195524,116.080991 163.197652,114.714312 C165.350479,113.244954 167.580437,111.891775 169.877962,110.660581 C170.369368,110.395383 170.860773,110.137202 171.352179,109.886036 C171.887109,109.605404 172.42555,109.339505 172.9675,109.088339 C174.702864,108.261176 176.671997,108.570573 178.590586,109.122015 C179.395087,109.351432 180.189059,109.625048 180.955651,109.873407 C181.704286,110.116638 182.424497,110.43983 183.103797,110.837379 C184.803358,111.835026 186.208077,113.308345 186.791446,115.168936 C186.792378,115.180845 186.792378,115.192808 186.791446,115.204717 C187.162106,116.370743 187.185272,117.62096 187.151576,118.848024 Z" id="Path" fill="#F86D70"></path>
                    <path d="M187.151576,118.848024 C187.151576,119.037451 187.13894,119.226877 187.130516,119.418409 C187.092925,120.341936 187.00787,121.262922 186.875687,122.177724 C186.701172,123.426391 186.395515,124.65321 185.963778,125.837869 C185.677582,126.616864 185.313504,127.365027 184.877069,128.071 C184.48998,128.697872 184.036695,129.28142 183.525002,129.811621 C182.261387,131.124979 180.441781,131.543823 178.681145,132.09737 C177.871072,132.33175 177.088164,132.651355 176.345564,133.050817 C176.212884,133.124483 176.08231,133.204463 175.955949,133.288653 L173.753047,134.747239 C173.066483,135.199758 172.365177,135.669115 171.893427,136.340528 C171.816138,136.454757 171.745809,136.57354 171.682825,136.696229 C171.384717,137.314277 171.166738,137.967815 171.034169,138.64101 C169.888492,143.410353 168.740709,148.183906 167.955161,153.024811 C167.902511,153.344732 167.851966,153.666757 167.79721,153.988783 L167.778255,154.08981 C167.768747,154.065862 167.757484,154.042647 167.744559,154.020354 C162.108837,157.425825 156.264619,160.498747 150.243494,162.95919 L148.935653,152.014535 C148.799347,151.124826 148.754185,150.223544 148.800867,149.324676 C148.925123,147.908185 149.502174,146.565361 149.658019,145.153079 C149.805634,143.77047 149.544227,142.374954 148.906169,141.139338 C148.657658,140.659457 148.345966,140.187995 148.289103,139.651286 C148.232241,139.114577 148.541826,138.624172 149.080969,138.569449 C149.502174,138.102196 149.53587,137.46446 149.411615,136.833037 C149.345603,136.503409 149.246833,136.181189 149.116771,135.871171 C148.758747,134.991389 148.305952,134.033732 148.613431,133.135007 C148.69476,132.972102 148.731111,132.790457 148.718732,132.608822 C148.720945,132.597705 148.720945,132.586262 148.718732,132.575146 C148.647128,132.339415 148.367026,132.236283 148.221711,132.036332 C147.947927,131.663793 148.221711,131.15655 148.390193,130.727183 C148.554044,130.265812 148.64913,129.782871 148.6724,129.293854 C148.695566,129.022343 148.712414,128.748726 148.741899,128.47932 C148.782921,128.114738 148.848354,127.753315 148.937759,127.397483 C149.449352,125.381256 150.679748,123.620984 152.397957,122.447131 C153.217201,121.895689 154.12911,121.493684 154.965202,120.973812 C155.821677,120.396788 156.639181,119.763995 157.412402,119.079545 C159.267108,117.536069 161.195524,116.080991 163.197652,114.714312 C165.350479,113.244954 167.580437,111.891775 169.877962,110.660581 C170.369368,110.395383 170.860773,110.137202 171.352179,109.886036 C171.887109,109.605404 172.42555,109.339505 172.9675,109.088339 C174.702864,108.261176 176.671997,108.570573 178.590586,109.122015 C179.395087,109.351432 180.189059,109.625048 180.955651,109.873407 C181.704286,110.116638 182.424497,110.43983 183.103797,110.837379 C184.803358,111.835026 186.208077,113.308345 186.791446,115.168936 C186.792378,115.180845 186.792378,115.192808 186.791446,115.204717 C187.162106,116.370743 187.185272,117.62096 187.151576,118.848024 Z" id="Path" fill="#000000" opacity="0.1"></path>
                    <path d="M167.154872,83.9850909 C167.096832,83.8519521 166.970478,83.7612864 166.825695,83.7488879 C166.680911,83.7364894 166.540965,83.8043506 166.461107,83.9256805 C166.381249,84.0470104 166.374312,84.20231 166.443036,84.3302684 L166.232433,84.4334008 L172.512599,97.2975789 L173.647746,96.7440319 L167.367581,83.8714349 L167.154872,83.9850909 Z" id="Path" fill="#3F3D56"></path>
                    <ellipse id="Oval" fill="#FBBEBE" cx="175.006132" cy="57.0401943" rx="13.4785576" ry="13.4703436"></ellipse>
                    <path d="M192.795722,48.7012097 C192.732661,47.6304056 192.573366,46.5674392 192.31976,45.5251552 C191.527895,42.1217887 190.081056,38.7710408 187.589629,36.3274363 C187.436091,35.7299878 187.252636,35.14062 187.039957,34.5615584 C187.035985,34.5472148 187.03106,34.533152 187.025214,34.5194636 C186.282023,32.4795259 185.207602,30.5759007 183.845117,28.8850714 C183.055358,27.904262 182.03183,26.9360811 180.772427,26.8981958 C180.418615,26.8855673 180.043743,26.9466048 179.719415,26.7845397 C179.4809,26.6304195 179.280092,26.4246988 179.131834,26.1825838 C177.860753,24.5773348 175.804249,23.8082366 173.790956,24.1851844 L173.660382,24.212546 C173.586671,24.2272792 173.51296,24.2441171 173.44978,24.2630598 C173.386599,24.2820025 173.272874,24.3135736 173.184421,24.3409352 C173.281298,24.5008956 173.376069,24.6629606 173.468734,24.8271304 C173.718649,25.2719324 173.950312,25.7265565 174.163722,26.1910027 C174.340628,26.5782751 174.504196,26.9718617 174.654426,27.3717625 C172.497857,27.6180172 170.741432,29.1481641 169.136641,30.604645 L165.358433,34.0311636 C165.351596,34.0369371 165.345256,34.0432735 165.339479,34.0501063 L165.229966,34.1553434 C165.202587,34.182705 165.175209,34.2100666 165.149937,34.239533 C165.139744,34.2483084 165.130561,34.2581915 165.122558,34.2689994 C165.090968,34.3026752 165.061484,34.3384558 165.031999,34.3742364 C164.979427,34.4405243 164.932243,34.5109066 164.890896,34.5847106 C164.87025,34.616304 164.851949,34.6493668 164.836139,34.6836334 C164.83036,34.6937319 164.825429,34.7042917 164.821397,34.7152045 C164.807662,34.7439101 164.795705,34.7734321 164.785594,34.8036036 C164.784681,34.8077637 164.784681,34.8120721 164.785594,34.8162321 C164.779706,34.8334842 164.774784,34.8510509 164.770852,34.8688506 C164.727862,35.0169644 164.740597,35.1756811 164.806655,35.3150558 L167.298082,35.3424174 L167.590819,35.3424174 C167.603455,35.6749665 167.613985,36.0096203 167.626622,36.3421695 C167.231309,36.6378937 166.851708,36.9540349 166.489368,37.289303 C166.094283,37.654788 165.723533,38.0457006 165.379493,38.4595391 C163.132365,41.1725505 161.959309,44.6769445 161.841372,48.2044908 C161.841372,48.3139373 161.841372,48.4149649 161.841372,48.5286209 C161.841372,48.8506463 161.841372,49.1726717 161.841372,49.4925924 C161.841372,49.7030665 161.860326,49.9135406 161.877174,50.1240147 C161.878239,50.3981747 161.950829,50.6673175 162.087777,50.9048737 C162.105734,50.9314064 162.125434,50.9567189 162.146745,50.9806444 C162.273111,51.1177084 162.424694,51.2291828 162.593223,51.308984 L162.774341,51.3973831 L162.774341,51.3973831 C162.8649,51.4415827 162.951247,51.4836775 163.035488,51.5320866 C163.829459,51.9803964 164.299103,52.8454451 165.021469,53.4010967 C165.06359,53.4326679 165.10571,53.464239 165.147831,53.4916006 L165.242602,53.5547429 L165.30157,53.5926282 L165.381599,53.6389325 C165.434072,53.6705734 165.488204,53.6993796 165.543763,53.7252269 L165.543763,53.7252269 L165.644852,53.7757407 L165.661701,53.7757407 L165.661701,53.7757407 C165.745942,53.813626 165.830183,53.8494066 165.91653,53.8809777 L166.036573,53.9230726 L166.072375,53.935701 C166.106072,53.9462247 166.141874,53.9588532 166.177677,53.9672721 C166.249281,53.9883195 166.319482,54.0072622 166.388279,54.0241001 L166.598882,54.0704044 C166.681017,54.0851376 166.765258,54.0998708 166.849498,54.1103945 L166.973754,54.1272325 L167.100115,54.1398609 C167.30089,54.158102 167.503068,54.1686257 167.706651,54.171432 L167.706651,54.171432 C168.345531,54.1674935 168.983524,54.1232056 169.616815,54.0388333 L174.99139,53.407411 C176.210778,53.2663933 177.455439,53.1253757 178.657979,53.3737351 C179.677295,53.5842092 180.616582,54.0682997 181.606413,54.4113725 C181.829652,54.4892479 182.05289,54.5608091 182.278235,54.6218466 C182.36037,54.6449988 182.444611,54.6702557 182.528852,54.6913031 L182.644683,54.7207695 L182.914254,54.7860164 C183.011132,54.8091686 183.108009,54.8323208 183.204886,54.8512634 C183.341777,54.8807298 183.476563,54.9059867 183.613455,54.9312436 C183.70612,54.9501863 183.800891,54.9649194 183.895662,54.9817574 L183.914616,54.9817574 L184.184187,55.0238522 L184.249474,55.0238522 L184.249474,55.0238522 L184.449546,55.0512138 C184.546423,55.065947 184.643301,55.0785755 184.742284,55.0890992 C184.957098,55.1157592 185.171913,55.1389114 185.386727,55.1585556 C185.734221,55.1922315 186.083821,55.2174884 186.43974,55.2385358 L186.78934,55.2595832 L187.13894,55.2764211 L188.191952,55.3227254 L188.238285,55.3227254 L188.385706,55.3227254 C188.823475,55.3532228 189.263328,55.3306075 189.695654,55.2553737 C189.771471,55.2406405 189.845181,55.2238026 189.918892,55.2027552 C189.992603,55.1817078 190.053678,55.1606604 190.129495,55.1354035 C190.919254,54.8323208 191.496305,54.1356514 191.896449,53.390573 C191.98069,53.2327175 192.058613,53.0748619 192.130218,52.9127968 C192.201823,52.7507317 192.26711,52.5865619 192.326078,52.4223921 C192.399789,52.211918 192.46297,52.0119676 192.517727,51.8014934 C192.534575,51.7446654 192.549317,51.6878374 192.561953,51.6289047 C192.574589,51.5699719 192.604074,51.4542112 192.620922,51.365812 C192.673573,51.1237668 192.713587,50.8796168 192.743071,50.6333621 C192.743071,50.5554867 192.762026,50.4755065 192.77045,50.3976311 C192.789404,50.187157 192.804146,49.991416 192.81257,49.7851514 C192.81257,49.6294005 192.81257,49.471545 192.81257,49.3136894 C192.810464,49.1432053 192.795722,48.917998 192.795722,48.7012097 Z M187.395875,36.1359048 C187.225287,35.9759445 187.050487,35.8222984 186.873581,35.6770712 C187.070421,35.8012202 187.24605,35.9561344 187.393769,36.1359048 L187.395875,36.1359048 Z" id="Shape" fill="#464353"></path>
                    <path d="M149.137831,56.2993254 C147.551995,56.1035844 145.978794,55.4090198 144.414018,55.7499879 C143.434717,55.960462 142.592307,56.5687322 141.808866,57.1938404 C138.893362,59.5291919 136.414274,62.3616249 134.486218,65.5601866 C134.159285,66.0384129 133.929587,66.576193 133.810184,67.1429519 C133.709095,67.7996312 133.888107,68.4668341 134.100815,69.0961518 C135.541336,73.3498337 138.62245,76.9026368 140.025063,81.1689472 C141.49928,85.6562554 140.987516,90.5603024 139.900807,95.1570571 C138.553714,100.831846 136.364478,106.273223 133.405827,111.300422 C133.004121,112.047967 132.500932,112.73642 131.91055,113.34623 C131.143957,114.08289 130.114111,114.609075 129.65921,115.573047 C129.448607,115.993995 129.387532,116.473876 129.238005,116.92429 C128.8168,118.187135 127.797484,119.268972 127.698501,120.601273 C127.62479,121.617863 128.107069,122.57973 128.399807,123.547911 C128.893475,125.211265 128.841073,126.988913 128.250279,128.620337 C127.182525,131.545927 124.389936,134.20632 125.200755,137.213995 C127.009831,136.694124 129.014766,136.018502 129.867706,134.341024 C130.168868,133.747487 130.318395,133.040294 130.825947,132.606717 C131.838945,131.745878 133.563779,132.524632 134.639958,131.733249 C135.452883,131.131293 135.482368,129.897915 135.120131,128.950782 C134.757895,128.003648 134.134512,127.170171 133.856517,126.195675 C133.372131,124.438216 134.147148,122.57973 134.003938,120.763338 C133.936546,119.921442 133.677505,119.115326 133.65855,118.277639 C133.622748,116.650674 134.524126,115.120527 135.722454,114.015538 C136.920782,112.910549 138.401318,112.178099 139.858687,111.456173 L145.368047,108.720009 C147.366665,107.730781 149.55693,106.524764 150.211904,104.394766 C150.460415,103.597069 150.462521,102.746754 150.475157,101.913276 C150.662593,89.1774874 153.855327,76.6984769 157.029106,64.3625888 C157.521915,62.4514838 158.023149,60.5319599 158.756046,58.6966256 C159.488942,56.8612913 160.923145,55.3879724 161.653936,53.6831321 C157.414508,53.1864131 153.541529,56.8507675 149.137831,56.2993254 Z" id="Path" fill="#464353"></path>
                    <path d="M179.508813,136.197405 C179.995304,139.144043 180.292254,142.153823 180.523916,145.14887 C176.733072,148.289144 172.651596,151.021098 168.504834,153.555206 C168.268959,153.700433 168.030978,153.843556 167.792998,153.976154 L167.774043,154.077182 C167.764535,154.053233 167.753272,154.030018 167.740347,154.007725 C167.418607,153.313 166.85601,152.758223 166.156616,152.446007 C164.60237,149.183659 163.049528,145.92131 161.49809,142.658961 C160.65568,140.897293 159.81327,139.118786 159.392065,137.218205 C159.392065,137.178215 159.373111,137.13612 159.366793,137.09613 C159.046677,135.622811 158.972966,134.092664 158.760258,132.600403 C158.652486,131.745732 158.459889,130.903898 158.185313,130.087342 C157.93259,129.361206 157.585096,128.656118 157.277617,127.94682 C156.898532,127.071248 156.580522,126.185152 156.56578,125.240123 C156.56578,124.939145 156.584734,124.6087 156.437313,124.356132 C156.279709,124.13869 156.085102,123.950613 155.862368,123.80048 C155.297229,123.299648 155.029856,122.54335 155.154744,121.798871 C153.891129,121.864118 153.179293,123.221676 152.671741,124.372969 C152.210308,125.498993 151.604307,126.560263 150.868984,127.530081 C150.332992,128.222871 149.651475,128.789738 148.872472,129.190722 C148.802973,129.224398 148.733475,129.258074 148.66187,129.28754 C146.903339,130.062085 144.849965,129.788469 142.944013,129.439082 C141.278147,129.133894 139.555419,128.755041 138.215988,127.719508 L138.072778,127.605852 C137.676277,127.27653 137.322529,126.898958 137.019766,126.48192 C135.897255,124.949669 135.400233,122.931222 135.124343,121.009593 C135.099071,120.828585 135.073799,120.647578 135.050633,120.46657 C134.859157,119.108766 134.806235,117.735031 134.892681,116.366534 C134.917953,116.029775 134.953755,115.693017 134.997982,115.358363 C135.027466,115.147889 135.059057,114.920577 135.094859,114.701684 C135.093837,114.695411 135.093837,114.689014 135.094859,114.682741 C135.149616,114.335459 135.208584,113.986072 135.267553,113.63037 C135.478156,112.436982 135.688758,111.212023 136.320565,110.184909 C136.736332,109.545817 137.260945,108.984482 137.8706,108.526373 C138.09805,108.34747 138.331819,108.176986 138.567694,108.012816 C138.95099,107.747619 139.344817,107.49505 139.744962,107.257214 C140.751682,106.654999 141.808632,106.14093 142.903998,105.720753 C143.165146,105.619726 143.430505,105.525012 143.695864,105.434508 C144.727363,105.067831 145.83748,104.979976 146.913869,105.179835 C147.867673,105.317789 148.831519,105.374119 149.794911,105.348214 C152.265278,105.299805 154.746175,104.828343 157.21233,104.523155 C160.636726,104.102207 164.315951,104.051693 167.302294,105.786 C167.445503,105.868085 167.584501,105.954379 167.723499,106.044883 C169.197716,107.008855 170.385514,108.360099 171.343755,109.869198 C171.554358,110.187014 171.737582,110.513249 171.9187,110.843693 C172.336186,111.602205 172.71368,112.382025 173.049635,113.179956 C173.24845,113.571771 173.355741,114.003553 173.363433,114.442801 C173.358558,114.526325 173.347293,114.609354 173.329736,114.69116 C173.272874,114.990033 173.159148,115.280488 173.119134,115.58357 C172.986454,116.730654 173.961544,117.688311 174.325886,118.780672 C174.561761,119.492075 174.536488,120.253991 174.669168,121.003279 C174.860816,122.055649 175.376792,123.002783 175.840118,123.949916 C176.572278,125.474505 177.198546,127.04766 177.71448,128.658223 C178.080928,129.78005 178.394726,130.918715 178.670615,132.067903 C178.760472,132.436935 178.845415,132.806667 178.925444,133.177102 C179.155,134.195797 179.342437,135.193444 179.508813,136.197405 Z" id="Path" fill="#F86D70"></path>
                    <polygon id="Path" fill="#3F3D56" points="201.963247 105.028293 201.963247 106.501612 201.69157 106.497403 201.388302 106.493193 198.001815 106.451098 189.657745 106.341652 187.315846 106.312185 186.709311 106.303766 183.194356 106.259567 178.240986 106.19432 167.731923 106.057512 149.495856 105.821781 142.914529 105.737591 140.273574 105.703915 137.843221 105.672344 136.32899 105.651297 134.894787 105.632354 124.261468 105.495546 121.313034 105.45766 120.670696 105.449241 120.253704 104.373719 117.223134 96.5630242 116.66925 95.1360097 117.090455 93.4522167 118.985877 94.7150614 120.152614 94.8602886 139.361665 97.2470651 142.967179 97.695375 150.612049 98.646718 158.101072 99.5770136 161.036871 99.9411338 178.409468 102.100598 183.263854 102.704659 187.282149 103.203483 201.569421 104.979884"></polygon>
                    <polygon id="Path" fill="#504F60" points="117.090455 93.4522167 120.881299 103.3445 201.963247 105.028293 201.963247 94.2941132"></polygon>
                    <polygon id="Path" fill="#3F3D56" points="121.302504 104.396871 121.934311 164.802943 124.882746 164.381995 124.250938 104.396871"></polygon>
                    <path d="M201.69157,106.495298 L201.388302,106.495298 C200.897311,110.261351 200.084935,113.978538 198.960056,117.606227 L198.001815,106.451098 L197.9618,105.975427 L201.504134,105.567107 L201.622071,105.554479 L201.69157,106.495298 Z" id="Path" fill="#3F3D56"></path>
                    <polygon id="Path" fill="#FFFFFF" points="190.169509 99.3454921 159.316248 99.9769144 149.733836 96.8198026 175.427337 95.3464838"></polygon>
                    <path d="M151.467095,87.0706415 C151.139984,87.1960521 150.850114,87.4024582 150.624685,87.6704927 C150.448406,87.9608655 150.341059,88.2877503 150.310887,88.6260452 L149.792805,91.7137005 C149.713785,91.9961332 149.727815,92.2964831 149.832819,92.5703302 C149.967605,92.8292133 150.359326,92.9639168 150.555186,92.7492332 C150.529914,93.3532939 150.582564,93.9973447 150.93427,94.4898541 C151.285976,94.9823636 152.023085,95.2412467 152.520107,94.8981739 C152.677845,95.1550611 152.940522,95.3297436 153.238542,95.375939 C153.536563,95.4221344 153.839845,95.33518 154.068035,95.1381144 C153.76898,95.239142 153.747919,95.6958708 153.960628,95.9273924 C154.198799,96.1375043 154.502414,96.2587273 154.819886,96.2704652 C158.520777,96.791807 162.293833,96.3173746 165.750154,94.8960692 C166.076587,94.7613658 165.217329,90.7392054 165.130982,90.3266761 C164.92038,89.3563904 164.815079,88.1714211 163.995835,87.5189513 C162.037232,85.9572334 158.55808,85.6499412 156.171954,85.8351584 C154.54167,85.9584032 152.947424,86.3770477 151.467095,87.0706415 L151.467095,87.0706415 Z" id="Path" fill="#FBBEBE"></path>
                    <path d="M182.859498,87.537894 C175.242007,87.6831212 167.466564,87.8073009 160.196567,85.5278662 C160.891018,88.2173348 160.842982,91.0446389 160.057569,93.7089952 L195.674658,96.6556328 C197.184677,96.7798125 203.445888,97.4870056 204.918,97.1313043 C206.390111,96.7756031 192.566165,92.2251526 193.124262,90.8170808 C194.659554,86.9380428 199.802466,84.6649223 196.097969,84.5196952 C191.422594,84.3344779 187.570675,87.4494949 182.859498,87.537894 Z" id="Path" fill="#000000" opacity="0.1"></path>
                    <path d="M183.0701,87.9588422 C175.452609,88.1040694 167.677166,88.2282491 160.407169,85.9488144 C161.101621,88.638283 161.053585,91.4655871 160.268172,94.1299434 L195.88526,97.0765811 C197.39528,97.2007608 203.656491,97.9184775 205.128602,97.5522526 C206.600713,97.1860276 206.255325,95.3822644 206.813422,93.9741926 C208.348714,90.0951545 200.013068,85.0858705 196.308571,84.9406434 C191.633196,84.7554262 187.781277,87.8704431 183.0701,87.9588422 Z" id="Path" fill="#464353"></path>
                    <path d="M170.958353,88.5439603 C171.285596,88.6691248 171.575523,88.8755718 171.800762,89.1438115 C171.97677,89.4344681 172.084762,89.7611251 172.116666,90.099364 L172.634748,93.1870193 C172.712727,93.4695691 172.698713,93.7695884 172.594734,94.043649 C172.459948,94.3025322 172.066122,94.4372356 171.872367,94.222552 C171.895534,94.8266127 171.844989,95.4706635 171.493283,95.963173 C171.141577,96.4556824 170.404468,96.7145656 169.90534,96.3714928 C169.747602,96.62838 169.484925,96.8030625 169.186905,96.8492578 C168.888884,96.8954532 168.585602,96.8084988 168.357412,96.6114333 C168.656468,96.7124608 168.679634,97.1691897 168.466925,97.4007112 C168.227924,97.6108236 167.923656,97.7320107 167.605561,97.743784 C163.905361,98.2651549 160.132975,97.7907153 156.6774,96.369388 C156.350966,96.2346846 157.208118,92.2125242 157.296571,91.7999949 C157.507173,90.8297092 157.612474,89.6447399 158.431718,88.9922702 C160.388215,87.4305522 163.869474,87.12326 166.2556,87.3084772 C167.885166,87.4319739 169.478677,87.8506126 170.958353,88.5439603 Z" id="Path" fill="#FBBEBE"></path>
                    <path d="M120.624364,81.8403596 C119.925164,82.7411889 119.223858,83.6609608 118.773168,84.7112266 C117.911804,86.7149402 118.038166,88.9838512 118.181375,91.1601536 C118.22139,91.7915759 118.271934,92.4356267 118.60258,92.9597073 C118.888435,93.3556245 119.265522,93.6768913 119.701925,93.8963171 C121.525742,94.9318498 123.661251,95.2412467 125.746216,95.4727683 C128.938949,95.8263648 132.142915,96.04175 135.358112,96.1189238 C143.323097,96.31256 151.410232,95.662195 159.168827,97.4659582 C158.208479,96.0073725 158.210585,94.0773249 158.747622,92.4145793 C159.284658,90.7518338 160.318716,89.3037719 161.331714,87.8788621 C157.780956,86.7549303 153.973264,88.5102844 150.254024,88.3355909 C146.435802,88.1566879 142.901892,85.9509192 139.079458,85.9530239 C138.258108,85.9530239 137.422016,86.0561562 136.623833,85.8583105 C135.82565,85.6604649 135.052739,85.0585089 134.979028,84.2397646 C135.998344,84.4691814 136.965009,83.5978185 137.386214,82.642266 C137.807419,81.6867135 137.883236,80.6069813 138.291805,79.6451146 C139.309014,77.2520238 142.057377,76.1428252 143.767469,74.1727875 C144.03704,73.8612858 144.291869,73.4929561 144.283445,73.0804268 C144.243266,72.7309737 144.096173,72.4024221 143.86224,72.1396075 C142.440673,70.2453404 140.298846,69.1929699 138.519255,67.719651 C137.900084,67.2060942 136.651211,65.2697323 135.956223,65.0908293 C134.667336,64.7603849 133.574309,66.6209761 132.736112,67.5281196 C128.504406,72.1234712 124.467157,76.8942178 120.624364,81.8403596 Z" id="Path" fill="#464353"></path>
                    <path d="M162.972307,81.3057554 C163.506108,81.7014048 163.980554,82.1713088 164.381238,82.7011988 C164.784881,83.2392582 164.944521,83.9217048 164.821397,84.5828374 C164.687077,83.3292226 165.404104,82.1394941 166.575715,81.6719803 L162.972307,81.3057554 Z" id="Path" fill="#000000" opacity="0.07"></path>
                    <g id="Group" opacity="0.1" transform="translate(161.811177, 24.185184)" fill="#000000">
                        <path d="M12.8411428,1.92583818 C12.5934044,1.26800053 12.3079152,0.624987177 11.9860968,0 C11.7780646,0.0399627461 11.5726902,0.0926808944 11.3711376,0.157855589 C11.7324559,0.757647576 12.0580513,1.37822122 12.346227,2.01634205 C12.5083909,1.97424723 12.6726608,1.94478085 12.8411428,1.92583818 Z" id="Path"></path>
                        <path d="M25.0602977,10.2248327 C25.1171604,10.271137 25.171917,10.3237555 25.2266737,10.3721646 C25.2226916,10.3585096 25.2177657,10.3451475 25.2119315,10.3321745 C25.1641949,10.2970955 25.1136503,10.2613149 25.0602977,10.2248327 Z" id="Path"></path>
                        <path d="M5.48269275,11.1509188 C5.59220603,11.0646244 5.69329522,10.9741205 5.81123259,10.8899309 L5.7775362,9.89017882 L3.5283019,9.86702667 C3.16395963,10.2016805 2.7764511,10.6815615 2.99126562,11.1298714 L5.48269275,11.1509188 Z" id="Path"></path>
                        <path d="M30.0726363,27.9804293 C29.6724917,28.7255077 29.0954409,29.4242818 28.3056817,29.7252597 C27.6970405,29.9567813 27.0273247,29.9357339 26.3765631,29.9062675 C24.1568131,29.8157636 21.8991547,29.7168408 19.8015542,28.9822861 C18.8201467,28.6371085 17.8808597,28.1551228 16.8531197,27.942544 C15.6505797,27.6941845 14.4059191,27.8352022 13.1865308,27.9783246 L7.81195599,28.6097469 C6.22611945,28.7949641 4.45916478,28.9338771 3.19344398,27.9614866 C2.46897151,27.405835 2.00143404,26.5407863 1.20746275,26.0945812 C0.872604837,25.9051545 0.474566182,25.7830795 0.257645645,25.4631588 C0.120697783,25.2256026 0.0481083348,24.9564599 0.0470431822,24.6822999 C0.0301949852,24.461302 0.019664862,24.2403042 0.0112407635,24.0193064 C-0.0115892672,24.6614279 0.000362341837,25.3043137 0.0470431822,25.9451446 C0.0481083348,26.2193046 0.120697783,26.4884473 0.257645645,26.7260036 C0.468248108,27.0438195 0.872604837,27.1658945 1.20746275,27.3574259 C2.00143404,27.803631 2.47107753,28.6686797 3.19344398,29.2243313 C4.45705876,30.1967218 6.22611945,30.0662278 7.81195599,29.8725916 L13.1865308,29.2411693 C14.4059191,29.0980469 15.6505797,28.9570292 16.8531197,29.2053887 C17.8724357,29.4158628 18.8117226,29.8999533 19.8015542,30.2451308 C21.9075788,30.9796855 24.1568131,31.0870273 26.3765631,31.1691122 C27.0273247,31.1964738 27.6970405,31.219626 28.3056817,30.9881045 C29.0954409,30.6871265 29.6724917,29.9883524 30.0726363,29.243274 C30.8476534,27.8015263 31.0645739,26.1661424 30.982439,24.5181301 C30.9373213,25.7250062 30.6266909,26.9071257 30.0726363,27.9804293 Z" id="Path"></path>
                    </g>
                    <path d="M174.591245,27.4643711 L177.53968,30.2005347 C177.53968,30.2005347 175.01245,29.1481641 174.591245,27.4643711 Z" id="Path" fill="#000000" opacity="0.1"></path>
                </g>
            </g>
        </g>
    </g>
</svg>