<?xml version="1.0" encoding="UTF-8"?>
<svg width="105px" height="111px" viewBox="0 0 105 111" version="1.1" xmlns="http://www.w3.org/2000/svg" xmlns:xlink="http://www.w3.org/1999/xlink">
    <title>9Artboard 1</title>
    <defs>
        <linearGradient x1="9.20736589%" y1="31.6183451%" x2="100.320256%" y2="72.6866521%" id="linearGradient-1">
            <stop stop-color="#F45C43" offset="0%"></stop>
            <stop stop-color="#EB3349" offset="100%"></stop>
        </linearGradient>
        <linearGradient x1="-0.0313774396%" y1="49.9774721%" x2="99.8802582%" y2="49.9774721%" id="linearGradient-2">
            <stop stop-color="#667EEA" offset="0%"></stop>
            <stop stop-color="#064BA2" offset="100%"></stop>
        </linearGradient>
        <linearGradient x1="0.0417178081%" y1="50.1155884%" x2="99.9975861%" y2="50.1155884%" id="linearGradient-3">
            <stop stop-color="#667EEA" offset="0%"></stop>
            <stop stop-color="#064BA2" offset="100%"></stop>
        </linearGradient>
        <linearGradient x1="0.00298872567%" y1="49.6584156%" x2="100.124537%" y2="49.6584156%" id="linearGradient-4">
            <stop stop-color="#FFECD2" offset="0%"></stop>
            <stop stop-color="#FCB69F" offset="100%"></stop>
        </linearGradient>
        <linearGradient x1="0.0261985192%" y1="50.0607768%" x2="100%" y2="50.0607768%" id="linearGradient-5">
            <stop stop-color="#667EEA" offset="0%"></stop>
            <stop stop-color="#064BA2" offset="100%"></stop>
        </linearGradient>
        <linearGradient x1="0.0631026358%" y1="50.7220337%" x2="100%" y2="50.7220337%" id="linearGradient-6">
            <stop stop-color="#FFECD2" offset="0%"></stop>
            <stop stop-color="#FCB69F" offset="100%"></stop>
        </linearGradient>
        <linearGradient x1="0.0973394233%" y1="49.7480985%" x2="100.282165%" y2="49.7480985%" id="linearGradient-7">
            <stop stop-color="#FFECD2" offset="0%"></stop>
            <stop stop-color="#FCB69F" offset="100%"></stop>
        </linearGradient>
        <linearGradient x1="0%" y1="50.0156913%" x2="100%" y2="50.0156913%" id="linearGradient-8">
            <stop stop-color="#F5F7FA" offset="0%"></stop>
            <stop stop-color="#C3CFE2" offset="100%"></stop>
        </linearGradient>
        <linearGradient x1="0%" y1="49.9905624%" x2="100%" y2="49.9905624%" id="linearGradient-9">
            <stop stop-color="#F45C43" offset="0%"></stop>
            <stop stop-color="#EB3349" offset="100%"></stop>
        </linearGradient>
        <linearGradient x1="-0.0306766125%" y1="50.0011044%" x2="100.011771%" y2="50.0011044%" id="linearGradient-10">
            <stop stop-color="#F45C43" offset="0%"></stop>
            <stop stop-color="#EB3349" offset="100%"></stop>
        </linearGradient>
        <linearGradient x1="23.2392585%" y1="23.2365145%" x2="59.3637011%" y2="86.9294606%" id="linearGradient-11">
            <stop stop-color="#F5F7FA" offset="0%"></stop>
            <stop stop-color="#C3CFE2" offset="52%"></stop>
            <stop stop-color="#FFFFFF" offset="100%"></stop>
        </linearGradient>
        <linearGradient x1="-0.156641604%" y1="50%" x2="100.156642%" y2="50%" id="linearGradient-12">
            <stop stop-color="#66A6FF" offset="0%"></stop>
            <stop stop-color="#89F7FE" offset="100%"></stop>
        </linearGradient>
        <linearGradient x1="50%" y1="68.1430968%" x2="50%" y2="113.351056%" id="linearGradient-13">
            <stop stop-color="#D51CFF" offset="0%"></stop>
            <stop stop-color="#D01FFF" offset="12%"></stop>
            <stop stop-color="#C328FE" offset="26%"></stop>
            <stop stop-color="#AC38FC" offset="40%"></stop>
            <stop stop-color="#8D4EFA" offset="55%"></stop>
            <stop stop-color="#6469F7" offset="71%"></stop>
            <stop stop-color="#338BF3" offset="86%"></stop>
            <stop stop-color="#00AEEF" offset="100%"></stop>
        </linearGradient>
        <linearGradient x1="50.0156299%" y1="66.6097471%" x2="50.0156299%" y2="102.461035%" id="linearGradient-14">
            <stop stop-color="#064BA2" offset="0%"></stop>
            <stop stop-color="#5776DF" offset="85%"></stop>
            <stop stop-color="#667EEA" offset="100%"></stop>
        </linearGradient>
    </defs>
    <g id="Page-1" stroke="none" stroke-width="1" fill="none" fill-rule="evenodd">
        <g id="Mining-Provider-Windows-Onboarding-Steps-01" transform="translate(-993.000000, -528.000000)" fill-rule="nonzero">
            <g id="My-Balance-Copy-2" transform="translate(963.000000, 459.000000)">
                <g id="9Artboard-1" transform="translate(82.310000, 124.431668) scale(-1, 1) translate(-82.310000, -124.431668) translate(30.000000, 69.000000)">
                    <ellipse id="Oval" fill-opacity="0.1" fill="#000000" cx="74.43" cy="92.7233367" rx="30.19" ry="18.14"></ellipse>
                    <g id="Group" transform="translate(31.430000, 66.848018)">
                        <path d="M2.35,0.67531918 L2.41,33.9553192 C2.39222443,34.1651837 2.26207842,34.3489192 2.07,34.4353192 C1.54969576,34.7056974 0.930304243,34.7056974 0.41,34.4353192 C0.222157165,34.3490317 0.0931727707,34.1707297 0.07,33.9653192 L0.07,0.67531918 C0.0877755728,0.885183672 0.217921576,1.06891921 0.41,1.15531918 C0.929172055,1.41574475 1.54082795,1.41574475 2.06,1.15531918 C2.23138944,1.05442368 2.34041326,0.873970471 2.35,0.67531918 L2.35,0.67531918 Z" id="Path" fill="#414042"></path>
                        <path d="M0.36,0.19531918 C0.879172055,-0.0651063933 1.49082795,-0.0651063933 2.01,0.19531918 C2.47,0.45531918 2.47,0.88531918 2.01,1.19531918 C1.49082795,1.45574475 0.879172055,1.45574475 0.36,1.19531918 C-0.12,0.88531918 -0.12,0.45531918 0.36,0.19531918 Z" id="Path" fill="#0000B5"></path>
                    </g>
                    <g id="Group" transform="translate(11.054975, 54.880553)">
                        <path d="M2.49502503,0.672783672 L2.54502503,33.9627837 C2.5252169,34.1718996 2.39572289,34.3547147 2.20502503,34.4427837 C1.68237751,34.7033944 1.06767255,34.7033944 0.545025029,34.4427837 C0.355656858,34.353123 0.226775841,34.1711733 0.205025029,33.9627837 L0.155025029,0.682783672 C0.174203622,0.889717323 0.304485686,1.06981312 0.495025029,1.15278367 C1.01181276,1.42309273 1.6282373,1.42309273 2.14502503,1.15278367 C2.34099445,1.06920825 2.47537006,0.884921705 2.49502503,0.672783672 L2.49502503,0.672783672 Z" id="Path" fill="#414042"></path>
                        <path d="M0.495025029,0.202783672 C1.01532927,-0.0675945572 1.63472079,-0.0675945572 2.15502503,0.202783672 C2.4311674,0.202783672 2.65502503,0.426641297 2.65502503,0.702783672 C2.65502503,0.978926046 2.4311674,1.20278367 2.15502503,1.20278367 C1.6382373,1.47309273 1.02181276,1.47309273 0.505025029,1.20278367 C0.326392234,1.20457 0.16037573,1.11092117 0.0695123275,0.957113799 C-0.0213510753,0.803306424 -0.0232570646,0.612707501 0.0645123275,0.457113799 C0.15228172,0.301520096 0.316392234,0.204569999 0.495025029,0.202783672 L0.495025029,0.202783672 Z" id="Path" fill="#0000B5"></path>
                    </g>
                    <g id="Group" transform="translate(63.770000, 24.590605)">
                        <path d="M2.34,0.672731792 L2.4,33.9627318 C2.3743864,34.1725692 2.24195711,34.3541865 2.05,34.4427318 C1.53082795,34.7031574 0.919172055,34.7031574 0.4,34.4427318 C0.207921576,34.3563318 0.0777755728,34.1725963 0.06,33.9627318 L0,0.682731792 C0.0191785921,0.889665443 0.149460656,1.06976124 0.34,1.15273179 C0.856787734,1.42304085 1.47321227,1.42304085 1.99,1.15273179 C2.18596942,1.06915638 2.32034503,0.884869825 2.34,0.672731792 L2.34,0.672731792 Z" id="Path" fill="#D1D3D4"></path>
                        <path d="M0.35,0.202731792 C0.866787734,-0.067577264 1.48321227,-0.067577264 2,0.202731792 C2.20518727,0.270173586 2.34387505,0.461745194 2.34387505,0.677731792 C2.34387505,0.89371839 2.20518727,1.08529 2,1.15273179 C1.48321227,1.42304085 0.866787734,1.42304085 0.35,1.15273179 C0.144812732,1.08529 0.00612494996,0.89371839 0.00612494996,0.677731792 C0.00612494996,0.461745194 0.144812732,0.270173586 0.35,0.202731792 Z" id="Path" fill="#0000B5"></path>
                    </g>
                    <g id="Group" transform="translate(83.910000, 36.148018)">
                        <path d="M2.4,0.67531918 L2.4,33.9553192 C2.37826846,34.1666667 2.24458188,34.3500083 2.05,34.4353192 C1.53321227,34.7056282 0.916787734,34.7056282 0.4,34.4353192 C0.209460656,34.3523486 0.0791785921,34.1722528 0.06,33.9653192 L-1.42108547e-14,0.67531918 C0.0156463559,0.885955611 0.146486909,1.07067169 0.34,1.15531918 C0.859172055,1.41574475 1.47082795,1.41574475 1.99,1.15531918 C2.21087748,1.09251359 2.37249784,0.90329952 2.4,0.67531918 L2.4,0.67531918 Z" id="Path" fill="#D1D3D4"></path>
                        <path d="M0.4,0.19531918 C0.919172055,-0.0651063933 1.53082795,-0.0651063933 2.05,0.19531918 C2.28816027,0.243188802 2.45950124,0.452395704 2.45950124,0.69531918 C2.45950124,0.938242656 2.28816027,1.14744956 2.05,1.19531918 C1.53082795,1.45574475 0.919172055,1.45574475 0.4,1.19531918 C-0.07,0.89531918 -0.07,0.46531918 0.4,0.19531918 Z" id="Path" fill="#0000B5"></path>
                    </g>
                    <g id="Group" transform="translate(0.000000, 17.993337)">
                        <polygon id="Path" fill="#FFFFFF" points="3.55271368e-15 37.45 64.85 0 97.39 18.91 32.54 56.35"></polygon>
                        <polygon id="Path" fill="#E6EAED" points="97.39 18.91 97.4 21.51 32.55 58.95 32.54 56.35"></polygon>
                        <polygon id="Path" fill="#EEF2F5" points="32.54 56.35 32.55 58.95 0.01 40.04 3.55271368e-15 37.44"></polygon>
                    </g>
                    <g id="Group" transform="translate(37.190000, 38.806377)">
                        <path d="M31.26,5.17695986 C31.2535779,5.24873393 31.2071049,5.31069789 31.14,5.33695986 L9.24,17.9769599 C9.06310584,18.0767619 8.84689416,18.0767619 8.67,17.9769599 L0.12,13.0369599 C0.052895092,13.0106979 0.00642212237,12.9487339 1.42108547e-14,12.8769599 L1.42108547e-14,13.5769599 C0.00458981046,13.6464163 0.0467929665,13.7078027 0.11,13.7369599 L8.67,18.6369599 C8.85049243,18.7366107 9.06950757,18.7366107 9.25,18.6369599 L31.12,6.03695986 C31.1871049,6.01069789 31.2335779,5.94873393 31.24,5.87695986 L31.26,5.17695986 Z" id="Path" fill="#939598"></path>
                        <path d="M22.06,0.0669598618 C22.239512,-0.0223199539 22.450488,-0.0223199539 22.63,0.0669598618 L31.12,5.00695986 C31.1958266,5.02576798 31.2490732,5.09383544 31.2490732,5.17195986 C31.2490732,5.25008429 31.1958266,5.31815174 31.12,5.33695986 L9.24,17.9769599 C9.06310584,18.0767619 8.84689416,18.0767619 8.67,17.9769599 L0.12,13.0369599 C-0.04,12.9469599 -0.03,12.7969599 0.12,12.7069599 L22.06,0.0669598618 Z" id="Path" fill="#BCBEC0"></path>
                    </g>
                    <path d="M40.71,51.3233367 L38.95,52.3233367 C38.8597538,52.3731622 38.7502462,52.3731622 38.66,52.3233367 L37.66,51.7333367 C37.58,51.7333367 37.58,51.6133367 37.66,51.5633367 L39.42,50.5633367 C39.5126395,50.5238756 39.6173605,50.5238756 39.71,50.5633367 L40.71,51.1533367 C40.79,51.2033367 40.79,51.2833367 40.71,51.3233367 Z" id="Path" fill="#F1F2F2"></path>
                    <path d="M42.31,50.4433367 L41.22,51.0733367 C41.1297538,51.1231622 41.0202462,51.1231622 40.93,51.0733367 L39.93,50.4833367 C39.8858172,50.4833367 39.85,50.4475195 39.85,50.4033367 C39.85,50.359154 39.8858172,50.3233368 39.93,50.3233367 L41.02,49.6833367 C41.1126395,49.6438756 41.2173605,49.6438756 41.31,49.6833367 L42.31,50.2733367 C42.31,50.3033367 42.31,50.3833367 42.31,50.4433367 Z" id="Path" fill="#F1F2F2"></path>
                    <path d="M43.8,49.5433367 L42.7,50.1733367 C42.6097538,50.2231622 42.5002462,50.2231622 42.41,50.1733367 L41.41,49.5833367 C41.3658172,49.5833367 41.33,49.5475195 41.33,49.5033367 C41.33,49.459154 41.3658172,49.4233368 41.41,49.4233367 L42.51,48.7933367 C42.6002462,48.7435113 42.7097538,48.7435113 42.8,48.7933367 L43.8,49.3733367 C43.88,49.4433367 43.88,49.5033367 43.8,49.5433367 Z" id="Path" fill="#F1F2F2"></path>
                    <path d="M45.31,48.6633367 L44.22,49.2933367 C44.1297538,49.3431622 44.0202462,49.3431622 43.93,49.2933367 L42.93,48.7133367 C42.85,48.6633367 42.85,48.5833367 42.93,48.5433367 L44.03,47.9133367 C44.1202462,47.8635113 44.2297538,47.8635113 44.32,47.9133367 L45.32,48.4933367 C45.4,48.5433367 45.4,48.6233367 45.31,48.6633367 Z" id="Path" fill="#F1F2F2"></path>
                    <path d="M46.84,47.7833367 L45.75,48.4433367 C45.6597538,48.4931622 45.5502462,48.4931622 45.46,48.4433367 L44.46,47.8633367 C44.38,47.8633367 44.38,47.7333367 44.46,47.6933367 L45.55,47.0633367 C45.6402462,47.0135113 45.7497538,47.0135113 45.84,47.0633367 L46.84,47.6433367 C46.92,47.6633367 46.92,47.7433367 46.84,47.7833367 Z" id="Path" fill="#F1F2F2"></path>
                    <path d="M48.37,46.9033367 L47.27,47.5333367 C47.1797538,47.5831622 47.0702462,47.5831622 46.98,47.5333367 L45.98,46.9533367 C45.9,46.9533367 45.9,46.8233367 45.98,46.7833367 L47.08,46.1533367 C47.1702462,46.1035113 47.2797538,46.1035113 47.37,46.1533367 L48.37,46.7433367 C48.4141828,46.7433367 48.45,46.779154 48.45,46.8233367 C48.45,46.8675195 48.4141828,46.9033367 48.37,46.9033367 Z" id="Path" fill="#F1F2F2"></path>
                    <path d="M49.89,46.0233367 L48.8,46.6633367 C48.7073605,46.7027979 48.6026395,46.7027979 48.51,46.6633367 L47.51,46.0733367 C47.43,46.0233367 47.43,45.9433367 47.51,45.9033367 L48.6,45.2733367 C48.6902462,45.2235113 48.7997538,45.2235113 48.89,45.2733367 L49.89,45.8633367 C49.9341828,45.8633367 49.97,45.899154 49.97,45.9433367 C49.97,45.9875195 49.9341828,46.0233367 49.89,46.0233367 Z" id="Path" fill="#F1F2F2"></path>
                    <path d="M51.42,45.1433367 L50.32,45.7833367 C50.2273605,45.8227979 50.1226395,45.8227979 50.03,45.7833367 L49.03,45.1933367 C48.95,45.1933367 48.95,45.0633367 49.03,45.0233367 L50.1,44.4433367 C50.1938052,44.3935579 50.3061948,44.3935579 50.4,44.4433367 L51.4,45.0333367 C51.4354338,45.0584872 51.4443131,45.1073232 51.42,45.1433367 Z" id="Path" fill="#F1F2F2"></path>
                    <path d="M52.94,44.2633367 L51.85,44.9033367 C51.754,44.9433367 51.646,44.9433367 51.55,44.9033367 L50.55,44.3133367 C50.47,44.3133367 50.47,44.1833367 50.55,44.1433367 L51.65,43.5133367 C51.7402462,43.4635113 51.8497538,43.4635113 51.94,43.5133367 L52.94,44.1033367 C52.9841828,44.1033367 53.02,44.139154 53.02,44.1833367 C53.02,44.2275195 52.9841828,44.2633367 52.94,44.2633367 L52.94,44.2633367 Z" id="Path" fill="#F1F2F2"></path>
                    <path d="M54.46,43.3833367 L53.37,44.0233367 C53.2773605,44.0627979 53.1726395,44.0627979 53.08,44.0233367 L52.08,43.4333367 C52,43.3833367 52,43.3133367 52.08,43.2633367 L53.17,42.6333367 C53.2602462,42.5835113 53.3697538,42.5835113 53.46,42.6333367 L54.46,43.2233367 C54.5041828,43.2233367 54.54,43.259154 54.54,43.3033367 C54.54,43.3475195 54.5041828,43.3833367 54.46,43.3833367 Z" id="Path" fill="#F1F2F2"></path>
                    <path d="M55.99,42.5033367 L54.89,43.1433367 C54.7973605,43.1827979 54.6926395,43.1827979 54.6,43.1433367 L53.6,42.5533367 C53.52,42.5533367 53.52,42.4333367 53.6,42.3833367 L54.7,41.7533367 C54.7902462,41.7035113 54.8997538,41.7035113 54.99,41.7533367 L55.99,42.3433367 C56.0341828,42.3433367 56.07,42.379154 56.07,42.4233367 C56.07,42.4675195 56.0341828,42.5033367 55.99,42.5033367 Z" id="Path" fill="#F1F2F2"></path>
                    <path d="M57.51,41.6233367 L56.42,42.2633367 C56.3273605,42.3027979 56.2226395,42.3027979 56.13,42.2633367 L55.13,41.6733367 C55.05,41.6733367 55.05,41.5533367 55.13,41.5033367 L56.23,40.8733367 C56.3202462,40.8235113 56.4297538,40.8235113 56.52,40.8733367 L57.52,41.4633367 C57.5641828,41.4660982 57.5977614,41.504154 57.595,41.5483367 C57.5922386,41.5925195 57.5541828,41.6260982 57.51,41.6233367 L57.51,41.6233367 Z" id="Path" fill="#F1F2F2"></path>
                    <path d="M59.03,40.7433367 L57.94,41.3833367 C57.8473605,41.4227979 57.7426395,41.4227979 57.65,41.3833367 L56.65,40.7933367 C56.57,40.7433367 56.57,40.6733367 56.65,40.6233367 L57.74,39.9933367 C57.8302462,39.9435113 57.9397538,39.9435113 58.03,39.9933367 L59.03,40.5833367 C59.12,40.6233367 59.12,40.7033367 59.03,40.7433367 Z" id="Path" fill="#F1F2F2"></path>
                    <path d="M60.56,39.8733367 L59.46,40.5033367 C59.3673605,40.5427979 59.2626395,40.5427979 59.17,40.5033367 L58.17,39.9133367 C58.09,39.9133367 58.09,39.7933367 58.17,39.7433367 L59.27,39.1133367 C59.3602462,39.0635113 59.4697538,39.0635113 59.56,39.1133367 L60.56,39.7033367 C60.64,39.7433367 60.64,39.8233367 60.56,39.8733367 Z" id="Path" fill="#F1F2F2"></path>
                    <path d="M41.51,52.6033367 L40.45,53.2133367 C40.3597538,53.2631622 40.2502462,53.2631622 40.16,53.2133367 L39.16,52.6133367 C39.08,52.6133367 39.08,52.4933367 39.16,52.4433367 L40.16,51.8333367 C40.256,51.7933367 40.364,51.7933367 40.46,51.8333367 L41.46,52.4333367 C41.59,52.4433367 41.59,52.5633367 41.51,52.6033367 Z" id="Path" fill="#F1F2F2"></path>
                    <path d="M43.73,53.0033367 L41.91,54.0033367 C41.8197538,54.0531622 41.7102462,54.0531622 41.62,54.0033367 L40.62,53.4033367 C40.54,53.3533367 40.54,53.2833367 40.62,53.2333367 L42.43,52.2333367 C42.5226395,52.1938756 42.6273605,52.1938756 42.72,52.2333367 L43.77,52.8433367 C43.8141828,52.8543825 43.8410457,52.899154 43.83,52.9433367 C43.8189543,52.9875195 43.7741828,53.0143824 43.73,53.0033367 Z" id="Path" fill="#F1F2F2"></path>
                    <path d="M45.56,53.6233367 L43.36,54.8933367 C43.2673605,54.9327979 43.1626395,54.9327979 43.07,54.8933367 L42.07,54.2933367 C41.99,54.2933367 41.99,54.1633367 42.07,54.1233367 L44.26,52.8533367 C44.3502462,52.8035113 44.4597538,52.8035113 44.55,52.8533367 L45.55,53.4533367 C45.64,53.5033367 45.64,53.5733367 45.56,53.6233367 Z" id="Path" fill="#F1F2F2"></path>
                    <path d="M47.78,54.0133367 L44.78,55.7233367 C44.6897538,55.7731622 44.5802462,55.7731622 44.49,55.7233367 L43.49,55.1233367 C43.41,55.1233367 43.41,55.0033367 43.49,54.9533367 L46.49,53.2433367 C46.5802462,53.1935113 46.6897538,53.1935113 46.78,53.2433367 L47.78,53.8433367 C47.86,53.8933367 47.86,53.9633367 47.78,54.0133367 Z" id="Path" fill="#F1F2F2"></path>
                    <path d="M43.03,51.7233367 L41.97,52.3333367 C41.8797538,52.3831622 41.7702462,52.3831622 41.68,52.3333367 L40.68,51.7333367 C40.6,51.6833367 40.6,51.6133367 40.68,51.5633367 L41.73,50.9533367 C41.826,50.9133367 41.934,50.9133367 42.03,50.9533367 L43.03,51.5633367 C43.0741828,51.5633367 43.11,51.599154 43.11,51.6433367 C43.11,51.6875195 43.0741828,51.7233367 43.03,51.7233367 Z" id="Path" fill="#F1F2F2"></path>
                    <path d="M44.55,50.8533367 L43.49,51.4533367 C43.3997538,51.5031622 43.2902462,51.5031622 43.2,51.4533367 L42.2,50.8533367 C42.12,50.8533367 42.12,50.7333367 42.2,50.6833367 L43.26,50.0833367 C43.3502462,50.0335113 43.4597538,50.0335113 43.55,50.0833367 L44.55,50.6833367 C44.63,50.7233367 44.63,50.8033367 44.55,50.8533367 Z" id="Path" fill="#F1F2F2"></path>
                    <path d="M46.07,49.9733367 L45.01,50.5833367 C44.9173605,50.6227979 44.8126395,50.6227979 44.72,50.5833367 L43.72,49.9833367 C43.64,49.9333367 43.64,49.8533367 43.72,49.8133367 L44.78,49.2033367 C44.8702462,49.1535113 44.9797538,49.1535113 45.07,49.2033367 L46.07,49.8033367 C46.15,49.8533367 46.15,49.9233367 46.07,49.9733367 Z" id="Path" fill="#F1F2F2"></path>
                    <path d="M47.59,49.0933367 L46.59,49.7033367 C46.494,49.7433367 46.386,49.7433367 46.29,49.7033367 L45.29,49.1033367 C45.21,49.1033367 45.21,48.9833367 45.29,48.9333367 L46.31,48.3233367 C46.4002462,48.2735113 46.5097538,48.2735113 46.6,48.3233367 L47.6,48.9233367 C47.67,48.9733367 47.67,49.0433367 47.59,49.0933367 Z" id="Path" fill="#F1F2F2"></path>
                    <path d="M49.11,48.2133367 L48.11,48.8233367 C48.0161948,48.8731156 47.9038052,48.8731156 47.81,48.8233367 L46.81,48.2233367 C46.73,48.1733367 46.73,48.1033367 46.81,48.0533367 L47.78,47.4433367 C47.8726395,47.4038756 47.9773605,47.4038756 48.07,47.4433367 L49.07,48.0433367 C49.19,48.0933367 49.19,48.1733367 49.11,48.2133367 Z" id="Path" fill="#F1F2F2"></path>
                    <path d="M50.63,47.3333367 L49.63,47.9433367 C49.5397538,47.9931622 49.4302462,47.9931622 49.34,47.9433367 L48.34,47.3433367 C48.26,47.3433367 48.26,47.2233367 48.34,47.1733367 L49.4,46.5733367 C49.4902462,46.5235113 49.5997538,46.5235113 49.69,46.5733367 L50.69,47.1733367 C50.7341828,47.1899053 50.7565685,47.239154 50.74,47.2833367 C50.7234315,47.3275195 50.6741828,47.3499053 50.63,47.3333367 Z" id="Path" fill="#F1F2F2"></path>
                    <path d="M52.15,46.4433367 L51.15,47.0433367 C51.0597538,47.0931622 50.9502462,47.0931622 50.86,47.0433367 L49.86,46.4433367 C49.8158172,46.4433367 49.78,46.4075195 49.78,46.3633367 C49.78,46.319154 49.8158172,46.2833367 49.86,46.2833367 L50.92,45.6733367 C51.0102462,45.6235113 51.1197538,45.6235113 51.21,45.6733367 L52.21,46.2733367 C52.23,46.3433367 52.23,46.4433367 52.15,46.4433367 Z" id="Path" fill="#F1F2F2"></path>
                    <path d="M53.67,45.5833367 L52.67,46.1933367 C52.5773605,46.2327979 52.4726395,46.2327979 52.38,46.1933367 L51.38,45.5933367 C51.3,45.5933367 51.3,45.4633367 51.38,45.4233367 L52.31,44.8133367 C52.4002462,44.7635113 52.5097538,44.7635113 52.6,44.8133367 L53.6,45.4133367 C53.75,45.4433367 53.75,45.5333367 53.67,45.5833367 Z" id="Path" fill="#F1F2F2"></path>
                    <path d="M55.19,44.7033367 L54.19,45.3133367 C54.0997538,45.3631622 53.9902462,45.3631622 53.9,45.3133367 L52.9,44.7133367 C52.82,44.6633367 52.82,44.5933367 52.9,44.5433367 L53.9,43.9333367 C53.9926395,43.8938756 54.0973605,43.8938756 54.19,43.9333367 L55.19,44.5333367 C55.31,44.5833367 55.31,44.6533367 55.19,44.7033367 Z" id="Path" fill="#F1F2F2"></path>
                    <path d="M56.71,43.8233367 L55.66,44.4433367 C55.5697538,44.4931622 55.4602462,44.4931622 55.37,44.4433367 L54.37,43.8433367 C54.29,43.8433367 54.29,43.7233367 54.37,43.6733367 L55.37,43.0633367 C55.4626395,43.0238756 55.5673605,43.0238756 55.66,43.0633367 L56.66,43.6733367 C56.6988981,43.6667376 56.7367993,43.6894822 56.7492757,43.7269115 C56.7617521,43.7643408 56.745078,43.8052772 56.71,43.8233367 Z" id="Path" fill="#F1F2F2"></path>
                    <path d="M58.23,42.9533367 L57.23,43.5533367 C57.1397538,43.6031622 57.0302462,43.6031622 56.94,43.5533367 L55.94,42.9533367 C55.86,42.9533367 55.86,42.8333367 55.94,42.7833367 L56.94,42.1833367 C57.0302462,42.1335113 57.1397538,42.1335113 57.23,42.1833367 L58.23,42.7833367 C58.31,42.8233367 58.31,42.9033367 58.23,42.9533367 Z" id="Path" fill="#F1F2F2"></path>
                    <path d="M59.75,42.0733367 L58.75,42.6833367 C58.6573605,42.7227979 58.5526395,42.7227979 58.46,42.6833367 L57.46,42.0733367 C57.4158172,42.0733367 57.38,42.0375195 57.38,41.9933367 C57.38,41.949154 57.4158172,41.9133368 57.46,41.9133367 L58.46,41.3033367 C58.5502462,41.2535113 58.6597538,41.2535113 58.75,41.3033367 L59.75,41.9033367 C59.83,41.9533367 59.83,42.0233367 59.75,42.0733367 Z" id="Path" fill="#F1F2F2"></path>
                    <path d="M45.24,52.1333367 L44.24,52.7333367 C44.1497538,52.7831622 44.0402462,52.7831622 43.95,52.7333367 L42.95,52.1333367 C42.9058172,52.1333367 42.87,52.0975195 42.87,52.0533367 C42.87,52.009154 42.9058172,51.9733367 42.95,51.9733367 L44,51.3633367 C44.0902462,51.3135113 44.1997538,51.3135113 44.29,51.3633367 L45.29,51.9633367 C45.31,52.0033367 45.31,52.0833367 45.24,52.1333367 Z" id="Path" fill="#F1F2F2"></path>
                    <path d="M46.76,51.2533367 L45.71,51.8633367 C45.6173605,51.9027979 45.5126395,51.9027979 45.42,51.8633367 L44.42,51.2633367 C44.34,51.2633367 44.34,51.1333367 44.42,51.0933367 L45.42,50.4833367 C45.5102462,50.4335113 45.6197538,50.4335113 45.71,50.4833367 L46.71,51.0833367 C46.85,51.1333367 46.85,51.2033367 46.76,51.2533367 Z" id="Path" fill="#F1F2F2"></path>
                    <path d="M48.31,50.3733367 L47.25,50.9833367 C47.1597538,51.0331622 47.0502462,51.0331622 46.96,50.9833367 L45.96,50.3833367 C45.88,50.3833367 45.88,50.2633367 45.96,50.2133367 L46.96,49.6033367 C47.0502462,49.5535113 47.1597538,49.5535113 47.25,49.6033367 L48.25,50.2033367 C48.37,50.2533367 48.37,50.3233367 48.31,50.3733367 Z" id="Path" fill="#F1F2F2"></path>
                    <path d="M49.81,49.4933367 L48.75,50.1033367 C48.6597538,50.1531622 48.5502462,50.1531622 48.46,50.1033367 L47.46,49.5033367 C47.38,49.5033367 47.38,49.3833367 47.46,49.3333367 L48.46,48.7233367 C48.5526395,48.6838756 48.6573605,48.6838756 48.75,48.7233367 L49.75,49.3233367 C49.89,49.3733367 49.89,49.4433367 49.81,49.4933367 Z" id="Path" fill="#F1F2F2"></path>
                    <path d="M51.31,48.6133367 L50.31,49.2233367 C50.2197538,49.2731622 50.1102462,49.2731622 50.02,49.2233367 L49.02,48.6233367 C48.94,48.6233367 48.94,48.5033367 49.02,48.4533367 L50.07,47.8533367 C50.1602462,47.8035113 50.2697538,47.8035113 50.36,47.8533367 L51.36,48.4533367 C51.4041828,48.4671439 51.4288071,48.514154 51.415,48.5583367 C51.4011929,48.6025195 51.3541828,48.6271439 51.31,48.6133367 L51.31,48.6133367 Z" id="Path" fill="#F1F2F2"></path>
                    <path d="M52.85,47.7433367 L51.79,48.3533367 C51.6973605,48.3927979 51.5926395,48.3927979 51.5,48.3533367 L50.5,47.7433367 C50.4558172,47.7433367 50.42,47.7075195 50.42,47.6633367 C50.42,47.619154 50.4558172,47.5833367 50.5,47.5833367 L51.5,46.9733367 C51.5938052,46.9235579 51.7061948,46.9235579 51.8,46.9733367 L52.8,47.5733367 C52.93,47.6233367 52.93,47.6933367 52.85,47.7433367 Z" id="Path" fill="#F1F2F2"></path>
                    <path d="M54.37,46.8633367 L53.31,47.4433367 C53.2173605,47.4827979 53.1126395,47.4827979 53.02,47.4433367 L52.02,46.8433367 C51.94,46.8433367 51.94,46.7133367 52.02,46.6733367 L53.02,46.0633367 C53.1138052,46.0135579 53.2261948,46.0135579 53.32,46.0633367 L54.32,46.6633367 C54.45,46.7433367 54.45,46.8133367 54.37,46.8633367 Z" id="Path" fill="#F1F2F2"></path>
                    <path d="M55.89,45.9833367 L54.83,46.5933367 C54.7397538,46.6431622 54.6302462,46.6431622 54.54,46.5933367 L53.54,45.9933367 C53.46,45.9933367 53.46,45.8733367 53.54,45.8233367 L54.6,45.2133367 C54.6926395,45.1738756 54.7973605,45.1738756 54.89,45.2133367 L55.89,45.8133367 C55.97,45.8633367 55.97,45.9333367 55.89,45.9833367 Z" id="Path" fill="#F1F2F2"></path>
                    <path d="M57.41,45.1033367 L56.31,45.7133367 C56.2197538,45.7631622 56.1102462,45.7631622 56.02,45.7133367 L55.02,45.1133367 C54.94,45.0633367 54.94,44.9933367 55.02,44.9433367 L56.08,44.3333367 C56.1726395,44.2938756 56.2773605,44.2938756 56.37,44.3333367 L57.37,44.9433367 C57.4141828,44.9322911 57.4589543,44.959154 57.47,45.0033367 C57.4810457,45.0475195 57.4541828,45.0922911 57.41,45.1033367 Z" id="Path" fill="#F1F2F2"></path>
                    <path d="M58.93,44.2333367 L57.88,44.8333367 C57.7861948,44.8831156 57.6738052,44.8831156 57.58,44.8333367 L56.58,44.2333367 C56.5,44.2333367 56.5,44.1133367 56.58,44.0633367 L57.64,43.4633367 C57.7302462,43.4135113 57.8397538,43.4135113 57.93,43.4633367 L58.93,44.0633367 C59.01,44.1033367 59.01,44.1833367 58.93,44.2333367 Z" id="Path" fill="#F1F2F2"></path>
                    <path d="M60.45,43.3533367 L59.45,43.9633367 C59.3573605,44.0027979 59.2526395,44.0027979 59.16,43.9633367 L58.16,43.3533367 C58.1158172,43.3533367 58.08,43.3175195 58.08,43.2733367 C58.08,43.229154 58.1158172,43.1933367 58.16,43.1933367 L59.22,42.5833367 C59.3102462,42.5335113 59.4197538,42.5335113 59.51,42.5833367 L60.51,43.1833367 C60.53,43.2333367 60.53,43.3033367 60.45,43.3533367 Z" id="Path" fill="#F1F2F2"></path>
                    <path d="M61.97,42.4433367 L60.97,43.0533367 C60.8773605,43.0927979 60.7726395,43.0927979 60.68,43.0533367 L59.68,42.4533367 C59.6,42.4533367 59.6,42.3333367 59.68,42.2833367 L60.74,41.6733367 C60.8302462,41.6235113 60.9397538,41.6235113 61.03,41.6733367 L62.03,42.2733367 C62.05,42.3533367 62.05,42.4433367 61.97,42.4433367 Z" id="Path" fill="#F1F2F2"></path>
                    <path d="M47.06,52.7533367 L46,53.3633367 C45.9097538,53.4131622 45.8002462,53.4131622 45.71,53.3633367 L44.71,52.7633367 C44.63,52.7633367 44.63,52.6433367 44.71,52.5933367 L45.71,51.9833367 C45.8026395,51.9438756 45.9073605,51.9438756 46,51.9833367 L47,52.5933367 C47.0441828,52.5767682 47.0934314,52.599154 47.11,52.6433368 C47.1265685,52.6875195 47.1041828,52.7367682 47.06,52.7533367 Z" id="Path" fill="#F1F2F2"></path>
                    <path d="M48.58,51.8833367 L47.52,52.4833367 C47.4297538,52.5331622 47.3202462,52.5331622 47.23,52.4833367 L46.23,51.8833367 C46.15,51.8833367 46.15,51.7633367 46.23,51.7133367 L47.28,51.1133367 C47.3702462,51.0635113 47.4797538,51.0635113 47.57,51.1133367 L48.57,51.7133367 C48.66,51.7533367 48.66,51.8333367 48.58,51.8833367 Z" id="Path" fill="#F1F2F2"></path>
                    <path d="M50.1,51.0033367 L49.04,51.6133367 C48.9473605,51.6527979 48.8426395,51.6527979 48.75,51.6133367 L47.75,51.0033367 C47.7058172,51.0033367 47.67,50.9675195 47.67,50.9233367 C47.67,50.879154 47.7058172,50.8433368 47.75,50.8433367 L48.75,50.2333367 C48.8402462,50.1835113 48.9497538,50.1835113 49.04,50.2333367 L50.09,50.8333367 C50.18,50.8833367 50.18,50.9533367 50.1,51.0033367 Z" id="Path" fill="#F1F2F2"></path>
                    <path d="M51.62,50.1233367 L50.56,50.7333367 C50.4673605,50.7727979 50.3626395,50.7727979 50.27,50.7333367 L49.27,50.1333367 C49.19,50.1333367 49.19,50.0133367 49.27,49.9633367 L50.27,49.3533367 C50.3638052,49.3035579 50.4761948,49.3035579 50.57,49.3533367 L51.57,49.9533367 C51.7,50.0033367 51.7,50.0733367 51.62,50.1233367 Z" id="Path" fill="#F1F2F2"></path>
                    <path d="M53.14,49.2433367 L52.08,49.8533367 C51.9897538,49.9031622 51.8802462,49.9031622 51.79,49.8533367 L50.79,49.2533367 C50.71,49.2033367 50.71,49.1333367 50.79,49.0833367 L51.79,48.4733367 C51.886,48.4333367 51.994,48.4333367 52.09,48.4733367 L53.09,49.0733367 C53.22,49.1233367 53.22,49.2033367 53.14,49.2433367 Z" id="Path" fill="#F1F2F2"></path>
                    <path d="M54.66,48.3633367 L53.6,48.9733367 C53.5097538,49.0231622 53.4002462,49.0231622 53.31,48.9733367 L52.31,48.3733367 C52.23,48.3733367 52.23,48.2533367 52.31,48.2033367 L53.37,47.6033367 C53.4602462,47.5535113 53.5697538,47.5535113 53.66,47.6033367 L54.66,48.2033367 C54.7041828,48.2033367 54.74,48.239154 54.74,48.2833367 C54.74,48.3275195 54.7041828,48.3633367 54.66,48.3633367 L54.66,48.3633367 Z" id="Path" fill="#F1F2F2"></path>
                    <path d="M56.18,47.4933367 L55.12,48.0933367 C55.0297538,48.1431622 54.9202462,48.1431622 54.83,48.0933367 L53.83,47.4933367 C53.7858172,47.4933367 53.75,47.4575195 53.75,47.4133367 C53.75,47.369154 53.7858172,47.3333367 53.83,47.3333367 L54.89,46.7233367 C54.9802462,46.6735113 55.0897538,46.6735113 55.18,46.7233367 L56.18,47.3233367 C56.31,47.3633367 56.31,47.4433367 56.18,47.4933367 Z" id="Path" fill="#F1F2F2"></path>
                    <path d="M57.7,46.6133367 L56.7,47.2233367 C56.604,47.2633367 56.496,47.2633367 56.4,47.2233367 L55.4,46.6233367 C55.32,46.6233367 55.32,46.4933367 55.4,46.4533367 L56.46,45.8433367 C56.5502462,45.7935113 56.6597538,45.7935113 56.75,45.8433367 L57.75,46.4433367 C57.78,46.4933367 57.78,46.5633367 57.7,46.6133367 Z" id="Path" fill="#F1F2F2"></path>
                    <path d="M59.22,45.7333367 L58.22,46.3433367 C58.1261948,46.3931156 58.0138052,46.3931156 57.92,46.3433367 L56.92,45.7433367 C56.84,45.7433367 56.84,45.6233367 56.92,45.5733367 L57.98,44.9633367 C58.0726395,44.9238756 58.1773605,44.9238756 58.27,44.9633367 L59.27,45.5633367 C59.31,45.6133367 59.31,45.6833367 59.22,45.7333367 Z" id="Path" fill="#F1F2F2"></path>
                    <path d="M60.74,44.8533367 L59.69,45.4433367 C59.5997538,45.4931622 59.4902462,45.4931622 59.4,45.4433367 L58.4,44.8433367 C58.32,44.7933367 58.32,44.7233367 58.4,44.6733367 L59.46,44.0633367 C59.5526395,44.0238756 59.6573605,44.0238756 59.75,44.0633367 L60.75,44.6633367 C60.82,44.7333367 60.82,44.8133367 60.74,44.8533367 Z" id="Path" fill="#F1F2F2"></path>
                    <path d="M62.31,43.9833367 L61.31,44.5833367 C61.2197538,44.6331622 61.1102462,44.6331622 61.02,44.5833367 L60.02,43.9833367 C59.94,43.9833367 59.94,43.8633367 60.02,43.8133367 L61.08,43.2133367 C61.1702462,43.1635113 61.2797538,43.1635113 61.37,43.2133367 L62.37,43.8133367 C62.31,43.8533367 62.31,43.9333367 62.31,43.9833367 Z" id="Path" fill="#F1F2F2"></path>
                    <path d="M49.31,53.1533367 L48.31,53.7633367 C48.2197538,53.8131622 48.1102462,53.8131622 48.02,53.7633367 L47.02,53.1633367 C46.94,53.1633367 46.94,53.0433367 47.02,52.9933367 L48.08,52.3833367 C48.1726395,52.3438756 48.2773605,52.3438756 48.37,52.3833367 L49.37,52.9933367 C49.4141828,53.0099053 49.4365685,53.059154 49.42,53.1033367 C49.4034314,53.1475195 49.3541828,53.1699053 49.31,53.1533367 L49.31,53.1533367 Z" id="Path" fill="#F1F2F2"></path>
                    <path d="M47.31,55.9733367 L46.31,56.5833367 C46.2173605,56.6227979 46.1126395,56.6227979 46.02,56.5833367 L45.02,55.9733367 C44.9758172,55.9733367 44.94,55.9375195 44.94,55.8933367 C44.94,55.849154 44.9758172,55.8133367 45.02,55.8133367 L46.02,55.2033367 C46.1138052,55.1535579 46.2261948,55.1535579 46.32,55.2033367 L47.32,55.8033367 C47.42,55.8533367 47.42,55.9233367 47.31,55.9733367 Z" id="Path" fill="#F1F2F2"></path>
                    <path d="M48.86,55.0933367 L47.8,55.7033367 C47.7073605,55.7427979 47.6026395,55.7427979 47.51,55.7033367 L46.51,55.1033367 C46.43,55.1033367 46.43,54.9833367 46.51,54.9333367 L47.51,54.3233367 C47.6038052,54.2735579 47.7161948,54.2735579 47.81,54.3233367 L48.81,54.9233367 C48.94,54.9733367 48.94,55.0433367 48.86,55.0933367 Z" id="Path" fill="#F1F2F2"></path>
                    <path d="M50.38,54.2133367 L49.31,54.8233367 C49.2197538,54.8731622 49.1102462,54.8731622 49.02,54.8233367 L48.02,54.2233367 C47.94,54.2233367 47.94,54.1033367 48.02,54.0533367 L49.05,53.4433367 C49.1338129,53.4118836 49.2261871,53.4118836 49.31,53.4433367 L50.31,54.0433367 C50.46,54.0933367 50.46,54.1733367 50.38,54.2133367 Z" id="Path" fill="#F1F2F2"></path>
                    <path d="M52.31,53.1033367 L50.85,53.9433367 C50.7597538,53.9931622 50.6502462,53.9931622 50.56,53.9433367 L49.56,53.3433367 C49.48,53.2933367 49.48,53.2233367 49.56,53.1733367 L51.02,52.3333367 C51.1126395,52.2938756 51.2173605,52.2938756 51.31,52.3333367 L52.31,52.9333367 C52.38,52.9833367 52.38,53.0533367 52.31,53.1033367 Z" id="Path" fill="#F1F2F2"></path>
                    <path d="M59.86,48.7433367 L52.72,52.8633367 C52.6273605,52.9027979 52.5226395,52.9027979 52.43,52.8633367 L51.43,52.2633367 C51.35,52.2633367 51.35,52.1433367 51.43,52.0933367 L58.57,47.9733367 C58.6602462,47.9235113 58.7697538,47.9235113 58.86,47.9733367 L59.86,48.5733367 C59.94,48.6233367 59.94,48.6933367 59.86,48.7433367 Z" id="Path" fill="#F1F2F2"></path>
                    <path d="M50.78,52.2833367 L49.78,52.8833367 C49.6897538,52.9331622 49.5802462,52.9331622 49.49,52.8833367 L48.49,52.2833367 C48.41,52.2833367 48.41,52.1633367 48.49,52.1133367 L49.55,51.5133367 C49.6402462,51.4635113 49.7497538,51.4635113 49.84,51.5133367 L50.84,52.1133367 C50.86,52.1533367 50.86,52.2333367 50.78,52.2833367 Z" id="Path" fill="#F1F2F2"></path>
                    <path d="M52.31,51.4433367 L51.31,52.0533367 C51.2173605,52.0927979 51.1126395,52.0927979 51.02,52.0533367 L50.02,51.4533367 C49.93,51.4533367 49.93,51.3233367 50.02,51.2833367 L51.02,50.6733367 C51.1102462,50.6235113 51.2197538,50.6235113 51.31,50.6733367 L52.31,51.2733367 C52.38,51.2833367 52.38,51.3533367 52.31,51.4433367 Z" id="Path" fill="#F1F2F2"></path>
                    <path d="M53.82,50.5233367 L52.77,51.1333367 C52.6773605,51.1727979 52.5726395,51.1727979 52.48,51.1333367 L51.48,50.5333367 C51.4,50.5333367 51.4,50.4133367 51.48,50.3633367 L52.53,49.7533367 C52.6202462,49.7035113 52.7297538,49.7035113 52.82,49.7533367 L53.82,50.3533367 C53.9,50.4433367 53.9,50.4433367 53.82,50.5233367 Z" id="Path" fill="#F1F2F2"></path>
                    <path d="M55.31,49.6433367 L54.31,50.2533367 C54.2197538,50.3031622 54.1102462,50.3031622 54.02,50.2533367 L53.02,49.6533367 C52.94,49.6533367 52.94,49.5333367 53.02,49.4833367 L54.02,48.8733367 C54.1126395,48.8338756 54.2173605,48.8338756 54.31,48.8733367 L55.31,49.4733367 C55.42,49.5233367 55.42,49.6033367 55.31,49.6433367 Z" id="Path" fill="#F1F2F2"></path>
                    <path d="M56.86,48.7633367 L55.86,49.3733367 C55.7697538,49.4231622 55.6602462,49.4231622 55.57,49.3733367 L54.57,48.7733367 C54.49,48.7733367 54.49,48.6533367 54.57,48.6033367 L55.57,48.0033367 C55.6602462,47.9535113 55.7697538,47.9535113 55.86,48.0033367 L56.86,48.6033367 C56.9041828,48.6033367 56.94,48.639154 56.94,48.6833367 C56.94,48.7275195 56.9041828,48.7633367 56.86,48.7633367 Z" id="Path" fill="#F1F2F2"></path>
                    <path d="M58.38,47.8933367 L57.38,48.4933367 C57.2897538,48.5431622 57.1802462,48.5431622 57.09,48.4933367 L56.09,47.8933367 C56.0458172,47.8933367 56.01,47.8575195 56.01,47.8133367 C56.01,47.769154 56.0458172,47.7333368 56.09,47.7333367 L57.09,47.1233367 C57.1802462,47.0735113 57.2897538,47.0735113 57.38,47.1233367 L58.38,47.7233367 C58.46,47.7733367 58.46,47.8433367 58.38,47.8933367 Z" id="Path" fill="#F1F2F2"></path>
                    <path d="M59.9,47.0133367 L58.9,47.6233367 C58.8073605,47.6627979 58.7026395,47.6627979 58.61,47.6233367 L57.61,47.0233367 C57.53,47.0233367 57.53,46.8933367 57.61,46.8533367 L58.66,46.2433367 C58.7502462,46.1935113 58.8597538,46.1935113 58.95,46.2433367 L59.95,46.8433367 C59.98,46.8933367 59.98,46.9633367 59.9,47.0133367 Z" id="Path" fill="#F1F2F2"></path>
                    <path d="M61.78,47.6333367 L60.31,48.4433367 C60.2161948,48.4931156 60.1038052,48.4931156 60.01,48.4433367 L59.01,47.8433367 C58.93,47.8433367 58.93,47.7233367 59.01,47.6733367 L60.47,46.8333367 C60.5602462,46.7835113 60.6697538,46.7835113 60.76,46.8333367 L61.76,47.4333367 C61.86,47.5133367 61.86,47.5833367 61.78,47.6333367 Z" id="Path" fill="#F1F2F2"></path>
                    <path d="M61.42,46.1333367 L60.42,46.7433367 C60.3297538,46.7931622 60.2202462,46.7931622 60.13,46.7433367 L59.13,46.1433367 C59.05,46.0933367 59.05,46.0233367 59.13,45.9733367 L60.13,45.3633367 C60.2226395,45.3238756 60.3273605,45.3238756 60.42,45.3633367 L61.42,45.9633367 C61.5,46.0133367 61.5,46.0833367 61.42,46.1333367 Z" id="Path" fill="#F1F2F2"></path>
                    <path d="M63.31,46.7633367 L62.31,47.3733367 C62.2161948,47.4231156 62.1038052,47.4231156 62.01,47.3733367 L61.01,46.7733367 C60.93,46.7733367 60.93,46.6533367 61.01,46.6033367 L62.07,45.9933367 C62.1626395,45.9538756 62.2673605,45.9538756 62.36,45.9933367 L63.36,46.6033367 C63.4041828,46.6171439 63.4288071,46.664154 63.415,46.7083367 C63.4011929,46.7525195 63.3541828,46.7771439 63.31,46.7633367 L63.31,46.7633367 Z" id="Path" fill="#F1F2F2"></path>
                    <path d="M64.8,45.8933367 L63.74,46.5033367 C63.6473605,46.5427979 63.5426395,46.5427979 63.45,46.5033367 L62.45,45.8933367 C62.4058172,45.8933367 62.37,45.8575195 62.37,45.8133367 C62.37,45.769154 62.4058172,45.7333368 62.45,45.7333367 L63.5,45.1233367 C63.5902462,45.0735113 63.6997538,45.0735113 63.79,45.1233367 L64.79,45.7233367 C64.88,45.7733367 64.88,45.8433367 64.8,45.8933367 Z" id="Path" fill="#F1F2F2"></path>
                    <path d="M66.31,45.0133367 L65.31,45.6233367 C65.2197538,45.6731622 65.1102462,45.6731622 65.02,45.6233367 L64.02,45.0233367 C63.94,45.0233367 63.94,44.9033367 64.02,44.8533367 L65.02,44.2433367 C65.1126395,44.2038756 65.2173605,44.2038756 65.31,44.2433367 L66.31,44.8433367 C66.39,44.8933367 66.39,44.9733367 66.31,45.0133367 Z" id="Path" fill="#F1F2F2"></path>
                    <path d="M67.85,44.1233367 L66.8,44.7333367 C66.7097538,44.7831622 66.6002462,44.7831622 66.51,44.7333367 L65.51,44.1333367 C65.43,44.1333367 65.43,44.0133367 65.51,43.9633367 L66.51,43.3533367 C66.6026395,43.3138756 66.7073605,43.3138756 66.8,43.3533367 L67.8,43.9633367 C67.8285812,43.9544051 67.8597564,43.9613998 67.881782,43.9816861 C67.9038077,44.0019724 67.9133376,44.0324682 67.906782,44.0616861 C67.9002264,44.090904 67.8785812,44.1144051 67.85,44.1233367 L67.85,44.1233367 Z" id="Path" fill="#F1F2F2"></path>
                    <path d="M62.94,45.2533367 L61.94,45.8633367 C61.8497538,45.9131622 61.7402462,45.9131622 61.65,45.8633367 L60.65,45.2633367 C60.57,45.2633367 60.57,45.1433367 60.65,45.0933367 L61.65,44.4833367 C61.7426395,44.4438756 61.8473605,44.4438756 61.94,44.4833367 L62.94,45.0933367 C62.9841828,45.0933367 63.02,45.129154 63.02,45.1733367 C63.02,45.2175195 62.9841828,45.2533367 62.94,45.2533367 Z" id="Path" fill="#F1F2F2"></path>
                    <path d="M64.93,42.4433367 L62.73,43.7133367 C62.6373605,43.7527979 62.5326395,43.7527979 62.44,43.7133367 L61.44,43.1033367 C61.35,43.1033367 61.35,42.9833367 61.44,42.9433367 L63.64,41.6733367 C63.7302462,41.6235113 63.8397538,41.6235113 63.93,41.6733367 L64.93,42.2733367 C65.01,42.3133367 65.01,42.4433367 64.93,42.4433367 Z" id="Path" fill="#F1F2F2"></path>
                    <path d="M66.38,43.2733367 L63.38,44.9833367 C63.2861948,45.0331156 63.1738052,45.0331156 63.08,44.9833367 L62.08,44.3833367 C62,44.3833367 62,44.2633367 62.08,44.2133367 L65.08,42.5033367 C65.176,42.4633367 65.284,42.4633367 65.38,42.5033367 L66.38,43.1033367 C66.46,43.1533367 66.46,43.2333367 66.38,43.2733367 Z" id="Path" fill="#F1F2F2"></path>
                    <path d="M63.48,41.6033367 L62.48,42.2133367 C62.384,42.2533367 62.276,42.2533367 62.18,42.2133367 L61.18,41.6133367 C61.1,41.5633367 61.1,41.4833367 61.18,41.4433367 L62.24,40.8333367 C62.3302462,40.7835113 62.4397538,40.7835113 62.53,40.8333367 L63.53,41.4333367 C63.56,41.4433367 63.56,41.5533367 63.48,41.6033367 Z" id="Path" fill="#F1F2F2"></path>
                    <path d="M62.06,40.7333367 L60.2,41.8133367 C60.1097538,41.8631622 60.0002462,41.8631622 59.91,41.8133367 L58.91,41.2133367 C58.83,41.1633367 58.83,41.0933367 58.91,41.0433367 L60.77,39.9633367 C60.8626395,39.9238756 60.9673605,39.9238756 61.06,39.9633367 L62.06,40.5733367 C62.1041828,40.5733367 62.14,40.609154 62.14,40.6533367 C62.14,40.6975195 62.1041828,40.7333367 62.06,40.7333367 L62.06,40.7333367 Z" id="Path" fill="#F1F2F2"></path>
                    <circle id="Oval" fill="#000000" cx="63.53" cy="81.3133367" r="1.73"></circle>
                    <path d="M74.56,88.0633367 C71.7230715,84.8316373 68.196189,82.2787486 64.24,80.5933367 C63.8730627,80.4571102 63.4992127,80.3402821 63.12,80.2433367 C62.92,80.2433367 62.37,80.1733367 62.33,79.9033367 C62.27,79.4733367 63.03,79.6833367 63.23,79.7133367 C63.6375029,79.7615228 64.0416158,79.8349978 64.44,79.9333367 C68.781652,81.1988917 72.78352,83.4236705 76.15,86.4433367 C77.31,87.4433367 75.6,89.2033367 74.56,88.0633367 Z" id="Path" fill="#D1D3D4"></path>
                    <path d="M68.31,58.5733367 C66.9430276,58.6781809 65.5970288,58.9709357 64.31,59.4433367 C62.9711035,59.9029542 61.8840891,60.899384 61.31,62.1933367 C60.9863966,63.3871988 60.9419151,64.639524 61.18,65.8533367 C61.7145078,70.8425718 61.6574453,75.8774971 61.01,80.8533367 C60.6859457,82.3459656 60.9021067,83.9051597 61.62,85.2533367 C62.4754564,86.5216454 63.8644734,87.328528 65.39,87.4433367 C65.9686559,87.5104077 66.5536289,87.3913114 67.06,87.1033367 C67.8448136,86.454772 68.2256692,85.4378875 68.06,84.4333367 C67.99,83.4333367 67.64,82.4333367 67.57,81.4333367 C67.640537,79.9030701 67.8888732,78.386206 68.31,76.9133367 C68.628169,74.187449 68.4998189,71.4279228 67.93,68.7433367 C67.81,67.9433367 68.7,67.3533367 69.15,66.6833367 C69.9888783,65.4368502 70.3737193,63.9398542 70.24,62.4433367 C70.0465421,60.9741117 69.3671597,59.6118268 68.31,58.5733367 Z" id="Path" fill="#064BA2"></path>
                    <g id="Group" transform="translate(55.100000, 58.993337)">
                        <polygon id="Path" fill="#00B300" points="32.8 7.3 32.81 10.71 12.49 22.44 12.48 19.03"></polygon>
                        <polygon id="Path" fill="url(#linearGradient-1)" points="12.48 19.03 12.49 22.44 0.01 15.19 1.42108547e-14 11.78"></polygon>
                        <path d="M9.44,5.45 C12.9497758,3.40879682 16.5835032,1.58859329 20.32,0 L32.8,7.26 L12.48,19.03 L1.42108547e-14,11.78 C2.98602228,9.4397643 6.14132509,7.32397332 9.44,5.45 L9.44,5.45 Z" id="Path" fill="#B52738"></path>
                    </g>
                    <path d="M86.31,61.8033367 C86.9761883,64.0830314 87.0245042,66.4988282 86.45,68.8033367 C85.8495786,71.1057437 84.4311939,73.1106784 82.46,74.4433367 C80.8787534,75.3864614 79.1299377,76.0146767 77.31,76.2933367 C75.6035216,76.670585 73.856911,76.8351695 72.11,76.7833367 C70.3481746,76.7351877 68.6275544,76.2396491 67.11,75.3433367 C63.72,73.2333367 59.65,72.3433367 55.96,70.8533367 C56.2900038,73.308966 56.2900038,75.7977075 55.96,78.2533367 C55.683803,80.8530022 55.737563,83.4771645 56.12,86.0633367 C56.3794031,87.5955591 56.479936,89.1504675 56.42,90.7033367 C56.4236748,91.1184749 56.2617235,91.5179547 55.97,91.8133367 C55.5726784,92.0339024 55.1009837,92.0774434 54.67,91.9333367 C53.3490475,91.7230404 52.0936999,91.2133761 51,90.4433367 C50.4576462,90.0671052 50.0786931,89.4986755 49.94,88.8533367 C49.72,88.0733367 49.51,87.2933367 49.32,86.5033367 C48.5318143,83.3629387 47.9175469,80.1814342 47.48,76.9733367 C47.25,75.3433367 47.07,73.6933367 46.94,72.0533367 C46.7700828,70.6250392 46.7700828,69.1816343 46.94,67.7533367 C47.1102889,66.2761683 47.8230186,64.9148546 48.94,63.9333367 C50.3098516,62.9772615 51.9625692,62.5121044 53.63,62.6133367 C59.28,62.6133367 64.72,64.9133367 70.37,65.1133367 C75.75,65.3133367 81.13,63.5633367 86.31,61.8033367 Z" id="Path" fill="url(#linearGradient-2)"></path>
                    <path d="M66.05,54.6133367 C67.6928717,57.4406448 68.6581261,60.6102389 68.87,63.8733367 C68.8586218,64.4100347 68.9537908,64.9436608 69.15,65.4433367 C69.6294946,66.1994417 70.4216395,66.701867 71.31,66.8133367 C73.4508618,67.1682147 75.6484145,66.911718 77.65,66.0733367 C79.65,65.3433367 81.65,64.3633367 83.65,63.7633367 C84.92,63.3933367 86.35,63.0933367 87.08,61.9933367 C87.5858932,61.0767553 87.6977782,59.9939976 87.39,58.9933367 C87.0894171,58.0243192 86.8423771,57.0394975 86.65,56.0433367 C86.6258402,54.626817 86.7769878,53.2127478 87.1,51.8333367 C87.5944492,48.2370693 86.747204,44.5846594 84.72,41.5733367 C82.72,38.5733367 79.45,36.7733367 76.07,35.5733367 C75.72,35.4433367 68.86,36.9633367 67.9,37.9733367 C66.94,38.9833367 65.9,40.2233367 65.9,40.2933367 L63.59,42.2933367 L66.05,54.6133367 Z" id="Path" fill="url(#linearGradient-3)"></path>
                    <path d="M58.82,44.5533367 C59.3494689,44.4068013 59.8523721,44.1772885 60.31,43.8733367 C60.7526764,43.5846317 61.2715668,43.4348848 61.8,43.4433367 C61.8983032,43.454819 61.9934172,43.4853913 62.08,43.5333367 C62.2123753,43.6464842 62.2920121,43.8093777 62.3,43.9833367 C62.3407214,44.3411984 62.2996909,44.703635 62.18,45.0433367 C62.062487,45.3903577 61.9117898,45.7252404 61.73,46.0433367 C61.4974502,46.4754949 61.2334034,46.8899482 60.94,47.2833367 C60.8699756,47.3807573 60.7773142,47.4596911 60.67,47.5133367 C60.5579758,47.5376983 60.4420242,47.5376983 60.33,47.5133367 L59.66,47.5133367 C59.5636137,47.5237496 59.4663863,47.5237496 59.37,47.5133367 C59.2717005,47.4820326 59.1892968,47.41396 59.14,47.3233367 C59.0934212,47.1339194 59.1741799,46.9360606 59.34,46.8333367 C59.5365628,46.6908482 59.7681433,46.6044376 60.01,46.5833367 C60.25,46.5833367 60.5,46.5333367 60.74,46.5033367 C60.74,46.5033367 60.86,46.5033367 60.88,46.4233367 C60.9,46.3433367 60.88,46.2833367 60.82,46.2433367 C60.76,46.2033367 60.69,46.1733367 60.65,46.1133367 C60.5858236,46.0163231 60.5858236,45.8903504 60.65,45.7933367 C60.7120424,45.7007083 60.7860114,45.6166525 60.87,45.5433367 C60.9505595,45.468079 60.9974174,45.3635497 61,45.2533367 C61,45.0733367 60.81,44.9433367 60.63,44.9233367 C60.4517695,44.9309415 60.2760421,44.9681146 60.11,45.0333367 C59.6519154,45.1830065 59.1580846,45.1830065 58.7,45.0333367 C58.6122158,45.0120226 58.5409068,44.9482198 58.51,44.8633367 C58.5075131,44.7894684 58.5459677,44.72025 58.61,44.6833367 C58.6694527,44.6249147 58.7411974,44.5805013 58.82,44.5533367 Z" id="Path" fill="url(#linearGradient-4)"></path>
                    <path d="M46.77,56.3733367 C48.58,58.2033367 50.22,60.2833367 52.55,61.3733367 C54.8718314,62.5887198 57.6524141,62.5397394 59.93,61.2433367 C60.7372935,60.6702709 61.4696566,59.9983782 62.11,59.2433367 C64.4102044,56.8972866 66.4580679,54.3165094 68.22,51.5433367 C68.9454703,50.4727116 69.3481053,49.2162127 69.38,47.9233367 C69.31,46.1933367 68.09,44.7433367 66.94,43.4433367 C66.22,42.6433367 65.35,41.7733367 64.28,41.8333367 C63.2640244,42.0254598 62.405595,42.7010063 61.98,43.6433367 C60.62,45.9733367 60.13,48.7833367 58.49,50.9233367 C57.59,52.0933367 56.38,53.0133367 55.56,54.2333367 C55.28,54.6533367 55,55.1433367 54.56,55.3033367 C54.1431166,55.4013885 53.7059927,55.3664186 53.31,55.2033367 C51.8,54.7333367 50.31,54.2033367 48.79,53.8133367 C48.06,53.5833367 46.31,55.9133367 46.77,56.3733367 Z" id="Path" fill="url(#linearGradient-5)"></path>
                    <path d="M48.69,53.7933367 C48.6394996,53.5708478 48.5692201,53.3533162 48.48,53.1433367 C48.3623595,52.9373226 48.1935957,52.7651147 47.99,52.6433367 C47.8290613,52.5521999 47.6528409,52.4912006 47.47,52.4633367 C47.24,52.4633367 46.95,51.9833367 46.64,51.7233367 C46.15004,51.3844352 45.6191544,51.1089123 45.06,50.9033367 C44.8528091,50.8547608 44.6371909,50.8547608 44.43,50.9033367 C44.18,50.9033367 44.17,51.0433367 44.06,51.1333367 C43.95,51.2233367 43.8,51.2833367 43.74,51.2433367 L43.36,50.9633367 C43.2175648,50.8781534 43.0667777,50.8077861 42.91,50.7533367 C42.6493487,50.738517 42.3882193,50.77243 42.14,50.8533367 C41.8459582,51.0233784 41.5710458,51.2245338 41.32,51.4533367 C41.13,51.5933367 41.22,51.9133367 41.24,51.9633367 C41.4839411,51.9345885 41.7248734,51.8843943 41.96,51.8133367 C41.96,51.8133367 42.67,51.7433367 42.77,51.7533367 C42.9463051,51.7786599 43.1180589,51.8291757 43.28,51.9033367 C43.38,51.9033367 43.36,52.0833367 43.33,52.1633367 C43.3,52.2433367 43.22,52.1633367 42.99,52.1633367 C42.76,52.1633367 42.59,51.9633367 42.38,51.9033367 C42.185974,51.8577587 41.984026,51.8577587 41.79,51.9033367 C41.5967365,51.9038141 41.409549,51.970919 41.26,52.0933367 C41.0862661,52.3322267 40.9292264,52.5828221 40.79,52.8433367 C40.44,53.4333367 41.1,53.3133367 41.21,53.2633367 C41.32,53.2133367 41.45,53.0633367 41.57,52.9833367 C41.7237043,52.8957623 41.8940089,52.8412648 42.07,52.8233367 C42.3586609,52.913535 42.6368962,53.0342154 42.9,53.1833367 C43.01,53.2433367 42.9,53.3733367 42.78,53.4133367 C42.66,53.4533367 42.32,53.2933367 42.08,53.2433367 C41.8582555,53.2056623 41.6317445,53.2056623 41.41,53.2433367 C41.2484142,53.2881438 41.1049927,53.3825921 41,53.5133367 C40.8300859,53.6900273 40.715402,53.9124446 40.67,54.1533367 C40.61,54.4433367 41.1,54.4433367 41.25,54.3833367 C41.4,54.3233367 41.71,54.1233367 41.98,54.1533367 C42.25,54.1833367 42.81,54.7433367 42.98,54.8933367 C43.4508408,55.2296032 43.9417521,55.5368403 44.45,55.8133367 C45.1416683,56.1142064 45.9021238,56.2213615 46.65,56.1233367 C46.67,55.5133367 47.96,53.8433367 48.69,53.7933367 Z" id="Path" fill="url(#linearGradient-6)"></path>
                    <path d="M76.05,35.6033367 L76.05,35.6033367 C74.6911313,35.0677236 73.2004116,34.9629892 71.78,35.3033367 C70.11,35.7533367 68.63,36.4333367 68.03,37.9133367 C69.31,36.9333367 75.38,35.5733367 76.05,35.6033367 Z" id="Path" fill="#253545"></path>
                    <path d="M64.7,38.7933367 C65.1247966,39.0665052 65.6260222,39.1961929 66.13,39.1633367 C66.39,39.1633367 66.64,39.1633367 66.9,39.1633367 C67.21,38.8033367 67.57,38.4033367 67.9,38.0433367 C67.9316881,38.0049072 67.9687332,37.9712298 68.01,37.9433367 C68.61,36.4633367 70.09,35.7833367 71.76,35.3333367 C72.1423217,35.2294434 72.5344488,35.1657647 72.93,35.1433367 C72.93,34.9633367 72.86,34.7833367 72.83,34.6133367 C72.7934206,33.8133519 72.8880038,33.0127726 73.11,32.2433367 C73.4257462,30.9330618 73.4733666,29.5724807 73.25,28.2433367 C73.0068844,26.8957688 72.2459282,25.6969039 71.13,24.9033367 C69.5293445,23.9572585 67.5406555,23.9572585 65.94,24.9033367 C64.3721172,25.8545863 63.165381,27.3005589 62.51,29.0133367 C62.2152255,29.6040189 62.0971693,30.267217 62.17,30.9233367 C62.2882846,31.3461991 62.4352929,31.7604952 62.61,32.1633367 C62.7623666,32.9042793 62.8493675,33.6571716 62.87,34.4133367 C63.0711597,35.5886106 63.4452151,36.7276263 63.98,37.7933367 C64.1350001,38.1803207 64.3821596,38.5235979 64.7,38.7933367 Z" id="Path" fill="url(#linearGradient-7)"></path>
                    <path d="M73.31,28.1833367 C73.0668844,26.8357688 72.3059282,25.6369039 71.19,24.8433367 C69.5893445,23.8972585 67.6006555,23.8972585 66,24.8433367 C65.2017771,25.29375 64.5014409,25.8988949 63.94,26.6233367 C63.5862673,27.7368274 63.4704319,28.9122165 63.6,30.0733367 C63.8,31.0033367 64.4,31.8833367 64.27,32.8333367 C64.2121434,33.0862192 64.1786569,33.3440647 64.17,33.6033367 C64.1686883,33.872935 64.3564401,34.1065817 64.62,34.1633367 L64.98,32.2933367 C65.0119782,31.9056231 65.1660208,31.5380215 65.42,31.2433367 C65.7847866,30.9471421 66.2780666,30.8636639 66.72,31.0233367 C67.4392459,31.3046201 68.0348203,31.8328378 68.4,32.5133367 C68.79,33.1633367 69.07,33.8733367 69.48,34.5133367 C69.7701376,34.9851161 70.1632927,35.3851087 70.63,35.6833367 C71.018939,35.530845 71.4162493,35.400634 71.82,35.2933367 C72.2023217,35.1894434 72.5944488,35.1257647 72.99,35.1033367 C72.99,34.9233367 72.92,34.7433367 72.89,34.5733367 C72.8534206,33.7733519 72.9480038,32.9727726 73.17,32.2033367 C73.4884701,30.8866513 73.5361002,29.5189874 73.31,28.1833367 L73.31,28.1833367 Z" id="Path" fill="#231F20"></path>
                    <path d="M53.31,92.7233367 C51.73,92.7233367 50.24,92.3333367 47.03,91.8133367 C43.82,91.2933367 42.95,89.5233367 42.7,87.9833367 C42.5160979,88.2839378 42.4223841,88.6310258 42.43,88.9833367 C42.4549107,89.5241099 42.6589501,90.0412443 43.01,90.4533367 C43.3794377,90.8597405 43.8200007,91.1952462 44.31,91.4433367 C46.3991552,92.524537 48.7285321,93.0578508 51.08,92.9933367 L51.08,93.7333367 C52.02,93.7333367 52.91,94.2633367 53.85,94.2133367 C54.7960523,94.1998729 55.705312,93.8446933 56.41,93.2133367 L56.41,92.4133367 C55.4130735,92.7482284 54.3535005,92.8541857 53.31,92.7233367 Z" id="Path" fill="#231F20"></path>
                    <path d="M47.07,91.8133367 C50.28,92.3333367 51.77,92.7533367 53.35,92.7233367 C54.3635547,92.8263697 55.3873842,92.706923 56.35,92.3733367 L56.35,90.9733367 C56.3222034,91.2944849 56.1760835,91.5938525 55.94,91.8133367 C55.5426784,92.0339024 55.0709837,92.0774434 54.64,91.9333367 C53.3295067,91.7186615 52.0848763,91.2091836 51,90.4433367 C50.4576462,90.0671052 50.0786931,89.4986755 49.94,88.8533367 C49.75,88.1533367 49.56,87.4533367 49.38,86.7533367 C48.9277893,87.2202339 48.3262725,87.5139157 47.68,87.5833367 C46.9561082,87.6500542 46.2261611,87.5959841 45.52,87.4233367 C45.1235611,87.3237235 44.7182681,87.263432 44.31,87.2433367 C43.8978928,87.2284042 43.4906471,87.3363069 43.14,87.5533367 C42.97946,87.6687139 42.8434859,87.814886 42.74,87.9833367 C42.99,89.5233367 43.83,91.1633367 47.07,91.8133367 Z" id="Path" fill="#414042"></path>
                    <path d="M60.44,85.8833367 C61.62,86.6233367 61.87,86.7433367 61.99,86.8133367 C62.11,86.8833367 62.92,87.4133367 63.19,87.5633367 C63.46,87.7133367 66.7,88.6433367 67.89,87.0533367 C67.9255216,86.7920232 67.9050693,86.5261433 67.83,86.2733367 C67.6659212,86.6302117 67.406357,86.934767 67.08,87.1533367 C66.5736289,87.4413114 65.9886559,87.5604077 65.41,87.4933367 C63.8844734,87.378528 62.4954564,86.5716454 61.64,85.3033367 C61.0139924,84.1996214 60.7713479,82.9195837 60.95,81.6633367 C60.7833322,81.6594188 60.6183293,81.697232 60.47,81.7733367 C60.1845269,81.9425185 59.9523624,82.1885435 59.8,82.4833367 C59.5131505,82.8824272 59.2842145,83.3200988 59.12,83.7833367 C59.217768,84.6476437 59.7035538,85.4204847 60.44,85.8833367 Z" id="Path" fill="#414042"></path>
                    <path d="M63.19,87.5633367 C62.92,87.4133367 62.11,86.8833367 61.99,86.8133367 C61.87,86.7433367 61.62,86.6233367 60.44,85.8833367 C59.7035538,85.4204847 59.217768,84.6476437 59.12,83.7833367 C59.1153308,83.8599323 59.1153308,83.9367412 59.12,84.0133367 C58.9934152,84.831188 59.2517802,85.6616469 59.82,86.2633367 C60.3825038,86.8316826 61.0868761,87.2391137 61.86,87.4433367 C62.1035056,87.4834978 62.3296739,87.5948422 62.51,87.7633367 C62.74,88.0233367 62.69,88.4433367 62.87,88.7633367 C63.117722,89.0597944 63.48367,89.2317899 63.87,89.2333367 C64.6902007,89.3068575 65.5163091,89.2799922 66.33,89.1533367 C66.6471251,89.1223746 66.952263,89.0160906 67.22,88.8433367 C67.6580489,88.3894259 67.8864546,87.773093 67.85,87.1433367 L67.85,87.0433367 C66.7,88.6433367 63.43,87.6933367 63.19,87.5633367 Z" id="Path" fill="#231F20"></path>
                    <path d="M59.3100289,93.7033367 C59.3140498,94.4079969 58.8926898,95.0455267 58.2428275,95.3179993 C57.5929651,95.5904719 56.8429259,95.4440833 56.3432138,94.9472431 C55.8435017,94.450403 55.6927926,93.7012199 55.9615151,93.0497979 C56.2302376,92.3983759 56.8653282,91.9733367 57.57,91.9733367 C58.5270837,91.9733367 59.3044995,92.7462688 59.3100289,93.7033367 L59.3100289,93.7033367 Z" id="Path" fill="#414042"></path>
                    <path d="M80.5,99.3033367 C80.5,100.258789 79.7254526,101.033337 78.77,101.033337 C77.8145474,101.033337 77.04,100.258789 77.04,99.3033367 C77.04,98.3478841 77.8145474,97.5733367 78.77,97.5733367 C79.2288245,97.5733367 79.6688568,97.7556041 79.9932947,98.080042 C80.3177327,98.40448 80.5,98.8445122 80.5,99.3033367 L80.5,99.3033367 Z" id="Path" fill="#414042"></path>
                    <circle id="Oval" fill="#414042" cx="92.66" cy="89.8233367" r="1.73"></circle>
                    <path d="M84.82,79.7333367 C84.82,80.6887894 84.0454526,81.4633367 83.09,81.4633367 C82.1345474,81.4633367 81.36,80.6887894 81.36,79.7333367 C81.36,78.7778841 82.1345474,78.0033367 83.09,78.0033367 C83.5488245,78.0033367 83.9888568,78.1856041 84.3132947,78.510042 C84.6377327,78.83448 84.82,79.2745122 84.82,79.7333367 L84.82,79.7333367 Z" id="Path" fill="#414042"></path>
                    <path d="M55.88,92.5433367 C58.8483543,90.7481187 61.986959,89.2508335 65.25,88.0733367 C68.5071972,87.0015251 71.8878157,86.3495967 75.31,86.1333367 C75.7601881,86.1106717 76.1814573,86.3553982 76.384771,86.7576998 C76.5880847,87.1600014 76.5352596,87.6443239 76.25,87.9933367 C75.79,88.5333367 74.93,88.3933367 74.3,88.3933367 C72.1606573,88.4129051 70.0279101,88.6338804 67.93,89.0533367 C63.8901064,89.9742479 59.9849419,91.4092782 56.31,93.3233367 C56.094609,93.4420779 55.8237413,93.3637278 55.705,93.1483367 C55.5862588,92.9329457 55.664609,92.662078 55.88,92.5433367 L55.88,92.5433367 Z" id="Path" fill="#D1D3D4"></path>
                    <path d="M74.31,86.7733367 C75.6104056,84.1835215 77.3843141,81.8601423 79.54,79.9233367 C79.8956883,79.6236211 80.2697499,79.3464147 80.66,79.0933367 C81.17,78.7633367 81.66,78.4433367 82.22,78.0933367 L83.29,77.5533367 C83.83,77.2933367 84.1,77.9933367 83.73,78.3433367 C83.4144987,78.5774681 83.080004,78.7848548 82.73,78.9633367 C82.27,79.3033367 81.82,79.6433367 81.38,79.9633367 C81.0297554,80.2368752 80.6958492,80.5307127 80.38,80.8433367 C78.5967351,82.8405113 77.202766,85.1536182 76.27,87.6633367 C76.2131393,88.1482732 75.8512462,88.541842 75.3727717,88.6390976 C74.8942972,88.7363531 74.4074742,88.5152957 74.1658092,88.0910381 C73.9241443,87.6667804 73.982303,87.1352914 74.31,86.7733367 L74.31,86.7733367 Z" id="Path" fill="#D1D3D4"></path>
                    <path d="M76.08,86.4433367 C76.42,86.7533367 76.73,87.0833367 77.08,87.4433367 C77.2869464,87.6859857 77.4805648,87.9396924 77.66,88.2033367 C77.8768505,88.5243422 78.0738842,88.8582978 78.25,89.2033367 L78.52,89.7433367 C78.6637366,90.0276677 78.7873727,90.3217212 78.89,90.6233367 C79.0095138,90.9301042 79.1097096,91.2440512 79.19,91.5633367 C79.26,91.8333367 79.33,92.1033367 79.39,92.3733367 C79.4736126,92.7530429 79.537035,93.136915 79.58,93.5233367 L79.67,94.5233367 C79.6953887,96.2905887 79.5446443,98.0559738 79.22,99.7933367 C79.11,100.383337 78.39,100.163337 78.34,99.6733367 C78.3414828,99.1647363 78.3782376,98.6568511 78.45,98.1533367 C78.4800921,96.9904272 78.4199115,95.8269357 78.27,94.6733367 C78.21,94.3833367 78.15,94.0933367 78.1,93.8033367 C78.05,93.5133367 77.92,93.1433367 77.83,92.8033367 L77.58,92.1133367 C77.49,91.8533367 77.36,91.6033367 77.24,91.3433367 C77.1292458,91.1017101 77.0022899,90.867844 76.86,90.6433367 L76.59,90.2233367 C76.4211291,89.9726264 76.2374703,89.7322004 76.04,89.5033367 C75.8765129,89.3109385 75.7029357,89.1273473 75.52,88.9533367 C75.24,88.7033367 74.97,88.4733367 74.67,88.2433367 C74.348461,87.9914645 74.1857189,87.5871859 74.2430771,87.1827888 C74.3004353,86.7783917 74.5691798,86.4353137 74.9480771,86.2827888 C75.3269744,86.130264 75.758461,86.1914645 76.08,86.4433367 L76.08,86.4433367 Z" id="Path" fill="#D1D3D4"></path>
                    <path d="M75.01,86.1933367 C78.3371857,85.4000381 81.7917689,85.2979322 85.16,85.8933367 C88.2132154,86.3609845 91.187698,87.2459267 94,88.5233367 C94.58,88.7833367 94.18,89.4633367 93.66,89.3833367 C93.3171571,89.3001798 92.9824785,89.1863891 92.66,89.0433367 C91.5453963,88.6389221 90.4064865,88.3049309 89.25,88.0433367 C87.4725879,87.6653008 85.6659042,87.4411382 83.85,87.3733367 C81.580373,87.2557615 79.305048,87.430528 77.08,87.8933367 C76.42,88.0433367 75.48,88.5933367 74.81,88.2833367 C74.4073193,88.0654725 74.1740438,87.6278408 74.2176569,87.1720838 C74.26127,86.7163268 74.5733092,86.3308783 75.01,86.1933367 Z" id="Path" fill="#D1D3D4"></path>
                    <path d="M76.95,85.8733367 C77.95,86.4233367 77.95,87.3033367 76.95,87.8733367 C75.8833655,88.4232167 74.6166345,88.4232167 73.55,87.8733367 C72.6,87.3333367 72.6,86.4533367 73.55,85.8733367 C74.6189945,85.3332724 75.8810055,85.3332724 76.95,85.8733367 L76.95,85.8733367 Z" id="Path" fill="#414042"></path>
                    <g id="Group" transform="translate(74.050000, 71.838018)">
                        <path d="M2.34,0.67531918 L2.4,14.9153192 C2.37826846,15.1266667 2.24458188,15.3100083 2.05,15.3953192 C1.53082795,15.6557448 0.919172055,15.6557448 0.4,15.3953192 C0.206486909,15.3106717 0.0756463559,15.1259556 0.06,14.9153192 L0,0.67531918 C0.0198081299,0.884435086 0.149302143,1.06725016 0.34,1.15531918 C0.86264752,1.41592987 1.47735248,1.41592987 2,1.15531918 C2.19207842,1.06891921 2.32222443,0.885183672 2.34,0.67531918 Z" id="Path" fill="url(#linearGradient-8)"></path>
                        <path d="M0.35,0.19531918 C0.869172055,-0.0651063933 1.48082795,-0.0651063933 2,0.19531918 C2.23816027,0.243188802 2.40950124,0.452395704 2.40950124,0.69531918 C2.40950124,0.938242656 2.23816027,1.14744956 2,1.19531918 C1.47735248,1.45592987 0.86264752,1.45592987 0.34,1.19531918 C-0.11,0.89531918 -0.11,0.46531918 0.35,0.19531918 Z" id="Path" fill="#0000B5"></path>
                    </g>
                    <g id="Group" transform="translate(67.420000, 38.625272)">
                        <path d="M17.49,0.358065043 C16.2026841,-0.233457747 14.6963672,-0.0843553118 13.55,0.748065043 L6.55,4.74806504 C3.28741406,6.86895696 1.23577732,10.4221539 1.03,14.308065 L1.42108547e-14,42.738065 L2.83,44.388065 L3.89,15.978065 C4.09094954,12.090724 6.14376209,8.53549065 9.41,6.41806504 L16.41,2.41806504 C17.5563672,1.58564469 19.0626841,1.43654225 20.35,2.02806504 L17.49,0.358065043 Z" id="Path" fill="#EB3349"></path>
                        <path d="M16.38,2.39806504 C19.44,0.628065043 21.93,2.04806504 21.94,5.55806504 L23.16,32.648065 L2.83,44.388065 L3.89,15.978065 C4.09094954,12.090724 6.14376209,8.53549065 9.41,6.41806504 L16.38,2.39806504 Z" id="Path" fill="url(#linearGradient-9)"></path>
                    </g>
                    <path d="M60.76,76.3133367 C60.6740295,76.3077959 60.592687,76.2724296 60.53,76.2133367 C56.72,72.2833367 57.15,67.8433367 57.4,65.2133367 C57.4630939,64.7393309 57.4931664,64.2615129 57.49,63.7833367 C57.49,63.6066056 57.6332689,63.4633367 57.81,63.4633367 C57.9867311,63.4633367 58.13,63.6066056 58.13,63.7833367 C58.133819,64.2914407 58.1037523,64.7992338 58.04,65.3033367 C57.8,67.7933367 57.4,71.9233367 60.79,75.5833367 C63.67,73.0433367 65.89,68.0433367 65.91,67.9933367 C65.983039,67.8289401 66.1742897,67.7533293 66.34,67.8233367 C66.4183883,67.8561019 66.4798937,67.9196035 66.5101392,67.998998 C66.5403848,68.0783925 66.5367194,68.1667211 66.5,68.2433367 C66.41,68.4733367 64.08,73.7133367 60.97,76.2433367 C60.9105563,76.2909092 60.8360984,76.3157285 60.76,76.3133367 L60.76,76.3133367 Z" id="Path" fill="#D1D3D4"></path>
                    <g id="Group" transform="translate(56.840000, 63.023004)">
                        <path d="M10.11,5.75033299 L9.97,5.83033299 C9.25269421,6.19059732 8.40730579,6.19059732 7.69,5.83033299 L0.47,1.67033299 C0.206650273,1.55012637 0.0274714467,1.29851355 0,1.01033299 L0,1.67033299 C0.0188932081,1.96163846 0.200891786,2.21721094 0.47,2.33033299 L7.66,6.49033299 C8.38078316,6.85077699 9.22921684,6.85077699 9.95,6.49033299 L10.09,6.41033299 C10.3533497,6.29012637 10.5325286,6.03851355 10.56,5.75033299 L10.56,5.09033299 C10.5364533,5.37414282 10.3655937,5.62473702 10.11,5.75033299 Z" id="Path" fill="#B52738"></path>
                        <path d="M2.91,0.270332994 C2.18921684,-0.0901109979 1.34078316,-0.0901109979 0.62,0.270332994 L0.49,0.350332994 C0.210268263,0.449187679 0.0232380758,0.713647818 0.0232380758,1.01033299 C0.0232380758,1.30701817 0.210268263,1.57147831 0.49,1.67033299 L7.69,5.83033299 C8.40730579,6.19059732 9.25269421,6.19059732 9.97,5.83033299 L10.11,5.75033299 C10.74,5.38033299 10.73,4.75033299 10.11,4.42033299 L2.91,0.270332994 Z" id="Path" fill="url(#linearGradient-10)"></path>
                    </g>
                    <path d="M64.57,64.3433367 C65.72,64.5833367 66.87,64.7933367 68.03,64.9333367 L68.13,62.3833367 C66.96,63.0033367 65.76,63.6633367 64.57,64.3433367 Z" id="Path" fill="#064BA2"></path>
                    <path d="M55.66,34.9033367 C57.66,38.4133367 54.37,44.1033367 48.27,47.6133367 C42.17,51.1233367 35.58,51.1333367 33.56,47.6133367 C31.54,44.0933367 34.85,38.4133367 40.95,34.9033367 C47.05,31.3933367 53.64,31.4433367 55.66,34.9033367 Z" id="Path" fill-opacity="0.02" fill="#000000"></path>
                    <polygon id="Path" fill="#A5B0BF" points="50.16 40.9833367 50.16 41.9733367 44.19 45.4233367 44.19 44.4233367"></polygon>
                    <path d="M44.19,45.4433367 L44.19,44.4433367 L40.96,42.5733367 C40.7881376,42.4694855 40.6822186,42.2841274 40.68,42.0833367 L40.68,38.2533367 L39.82,37.7533367 L39.82,42.5433367 C39.8202229,42.7472933 39.931315,42.9350006 40.11,43.0333367 L44.19,45.4433367 Z" id="Path" fill="#B4C0D1"></path>
                    <path d="M40.68,41.4433367 L40.68,42.1033367 C40.6822186,42.3041274 40.7881376,42.4894855 40.96,42.5933367 L44.19,44.4433367 L50.19,41.0033367 L46.96,39.1233367 C46.7881376,39.0194855 46.6822186,38.8341274 46.68,38.6333367 L46.68,34.8033367 L40.68,38.2533367 L40.68,41.4433367 L40.68,41.4433367 Z" id="Path" fill="url(#linearGradient-11)"></path>
                    <path d="M24.54,47.0133367 L24.54,44.2633367 L23.68,43.7633367 L23.68,46.5133367 C23.6609412,46.6907056 23.7418182,46.8640135 23.89,46.9633367 L24.74,47.4633367 C24.5989678,47.3588403 24.5230583,47.1880438 24.54,47.0133367 Z" id="Path" fill="#A5B0BF"></path>
                    <polygon id="Path" fill="#C3C3C4" points="24.53 44.2633367 23.67 43.7733367 58.6 23.6033367 59.45 24.1033367"></polygon>
                    <path d="M59.45,24.1033367 L59.45,26.8533367 C59.4237083,27.3454386 59.1634946,27.7952366 58.75,28.0633367 L44.98,36.0633367 L38.98,39.5133367 L25.24,47.4433367 C24.86,47.6733367 24.54,47.4933367 24.54,47.0433367 L24.54,44.2633367 L59.45,24.1033367 Z" id="Path" fill="#E6EAF7"></path>
                    <polygon id="Path" fill="#00BAC2" points="25.92 21.0433367 25.07 20.5433367 57.15 2.02333675 58 2.51333675"></polygon>
                    <path d="M58.68,0.613336749 C59.07,0.393336749 59.39,0.613336749 59.39,1.02333675 L59.45,24.1033367 L24.53,44.2633367 L24.47,21.1833367 C24.4914972,20.6871621 24.7524891,20.2322904 25.17,19.9633367 L58.68,0.613336749 Z" id="Path" fill="#EEF1F7"></path>
                    <path d="M58.31,0.0733367486 C58.1540609,-0.0244455829 57.9559391,-0.0244455829 57.8,0.0733367486 L24.31,19.4433367 C23.8940403,19.7090859 23.6330248,20.1602698 23.61,20.6533367 L23.67,43.7333367 L24.53,44.2333367 L24.47,21.1533367 C24.4914972,20.6571621 24.7524891,20.2022904 25.17,19.9333367 L58.68,0.613336749 C58.8335088,0.519678115 59.0264912,0.519678115 59.18,0.613336749 L58.31,0.0733367486 Z" id="Path" fill="#B4C0D1"></path>
                    <path d="M56.31,3.99333675 C57.2,3.48333675 57.92,3.89333675 57.92,4.91333675 L57.92,21.4133367 C57.8579904,22.541386 57.2642319,23.5730414 56.32,24.1933367 L27.61,40.7933367 C26.72,41.3033367 26,40.8933367 26,39.8733367 L26,23.3733367 C26.060426,22.244818 26.6545666,21.2124987 27.6,20.5933367 L56.31,3.99333675 Z" id="Path" fill="url(#linearGradient-12)"></path>
                    <path d="M56.31,3.99333675 C57.2,3.48333675 57.92,3.89333675 57.92,4.91333675 L57.92,21.4133367 C57.8579904,22.541386 57.2642319,23.5730414 56.32,24.1933367 L27.61,40.7933367 C26.72,41.3033367 26,40.8933367 26,39.8733367 L26,23.3733367 C26.060426,22.244818 26.6545666,21.2124987 27.6,20.5933367 L56.31,3.99333675 Z" id="Path" fill="url(#linearGradient-12)"></path>
                    <path d="M54.76,16.8033367 L54.69,16.8033367 C54.6518857,16.7644524 54.6518857,16.7022211 54.69,16.6633367 C54.7318315,16.633294 54.7881685,16.633294 54.83,16.6633367 C54.8359274,16.6862936 54.8359274,16.7103799 54.83,16.7333367 C54.8343353,16.7564687 54.8343353,16.7802048 54.83,16.8033367 L54.76,16.8033367 Z" id="Path" fill="#FFFFFF"></path>
                    <path d="M54.66,24.3533367 C54.66,24.2981083 54.7047715,24.2533367 54.76,24.2533367 L54.76,24.2533367 C54.7857076,24.2531775 54.8102562,24.2640195 54.8274539,24.2831282 C54.8446517,24.3022369 54.8528569,24.3277879 54.85,24.3533367 L54.85,24.3533367 C54.85,24.4030424 54.8097056,24.4433367 54.76,24.4433367 L54.76,24.4433367 C54.7084522,24.4435951 54.6651542,24.4046269 54.66,24.3533367 L54.66,24.3533367 Z M54.66,23.8733367 C54.6646504,23.8201534 54.7068166,23.7779871 54.76,23.7733367 L54.76,23.7733367 C54.8112901,23.7784909 54.8502583,23.8217889 54.85,23.8733367 L54.85,23.8733367 C54.85,23.8972062 54.8405179,23.9200981 54.8236396,23.9369764 C54.8067613,23.9538546 54.7838695,23.9633367 54.76,23.9633367 L54.76,23.9633367 C54.7084522,23.9635951 54.6651542,23.9246269 54.66,23.8733367 L54.66,23.8733367 Z M54.66,23.3933367 C54.6646504,23.3401534 54.7068166,23.2979871 54.76,23.2933367 L54.76,23.2933367 C54.8112901,23.2984909 54.8502583,23.3417889 54.85,23.3933367 L54.85,23.3933367 C54.85,23.4172062 54.8405179,23.4400981 54.8236396,23.4569764 C54.8067613,23.4738546 54.7838695,23.4833367 54.76,23.4833367 L54.76,23.4833367 C54.7217203,23.490626 54.6826927,23.475015 54.66,23.4433367 L54.66,23.3933367 Z M54.66,22.9133367 C54.6651542,22.8620466 54.7084522,22.8230784 54.76,22.8233367 L54.76,22.8233367 C54.8097056,22.8233367 54.85,22.8636311 54.85,22.9133367 L54.85,22.9133367 C54.8533466,22.9380818 54.844947,22.9629703 54.8272903,22.980627 C54.8096336,22.9982837 54.7847451,23.0066833 54.76,23.0033367 L54.76,23.0033367 C54.7344512,23.0061937 54.7089001,22.9979885 54.6897914,22.9807907 C54.6706828,22.9635929 54.6598408,22.9390443 54.66,22.9133367 L54.66,22.9133367 Z M54.66,22.4433367 C54.66,22.3881083 54.7047715,22.3433367 54.76,22.3433367 L54.76,22.3433367 C54.7857076,22.3431775 54.8102562,22.3540195 54.8274539,22.3731282 C54.8446517,22.3922369 54.8528569,22.4177879 54.85,22.4433367 L54.85,22.4433367 C54.85,22.4930424 54.8097056,22.5333367 54.76,22.5333367 L54.76,22.5333367 C54.7084522,22.5335951 54.6651542,22.4946269 54.66,22.4433367 L54.66,22.4433367 Z M54.66,21.9633367 C54.6646504,21.9101534 54.7068166,21.8679871 54.76,21.8633367 L54.76,21.8633367 C54.8112901,21.8684909 54.8502583,21.9117889 54.85,21.9633367 L54.85,21.9633367 C54.85,21.9872062 54.8405179,22.0100981 54.8236396,22.0269764 C54.8067613,22.0438546 54.7838695,22.0533367 54.76,22.0533367 L54.76,22.0533367 C54.7084522,22.0535951 54.6651542,22.0146269 54.66,21.9633367 L54.66,21.9633367 Z M54.66,21.4833367 C54.6651542,21.4320466 54.7084522,21.3930784 54.76,21.3933367 L54.76,21.3933367 C54.8097056,21.3933367 54.85,21.4336311 54.85,21.4833367 L54.85,21.4833367 C54.85,21.5330424 54.8097056,21.5733367 54.76,21.5733367 L54.76,21.5733367 C54.7273527,21.5748532 54.6960245,21.5603205 54.6760976,21.5344155 C54.6561707,21.5085106 54.65016,21.4745028 54.66,21.4433367 L54.66,21.4833367 Z M54.66,21.0033367 C54.6651542,20.9520466 54.7084522,20.9130784 54.76,20.9133367 L54.76,20.9133367 C54.7838695,20.9133367 54.8067613,20.9228189 54.8236396,20.9396971 C54.8405179,20.9565754 54.85,20.9794673 54.85,21.0033367 L54.85,21.0033367 C54.8533466,21.0280818 54.844947,21.0529703 54.8272903,21.070627 C54.8096336,21.0882837 54.7847451,21.0966833 54.76,21.0933367 L54.76,21.0933367 C54.7344512,21.0961937 54.7089001,21.0879885 54.6897914,21.0707907 C54.6706828,21.0535929 54.6598408,21.0290443 54.66,21.0033367 L54.66,21.0033367 Z M54.66,20.5333367 C54.66,20.4781083 54.7047715,20.4333367 54.76,20.4333367 L54.76,20.4333367 C54.7857076,20.4331775 54.8102562,20.4440195 54.8274539,20.4631282 C54.8446517,20.4822369 54.8528569,20.5077879 54.85,20.5333367 L54.85,20.5333367 C54.85,20.5830424 54.8097056,20.6233367 54.76,20.6233367 L54.76,20.6233367 C54.7084522,20.6235951 54.6651542,20.5846269 54.66,20.5333367 L54.66,20.5333367 Z M54.66,20.0533367 C54.6646504,20.0001534 54.7068166,19.9579871 54.76,19.9533367 L54.76,19.9533367 C54.8112901,19.9584909 54.8502583,20.0017889 54.85,20.0533367 L54.85,20.0533367 C54.85,20.1030424 54.8097056,20.1433367 54.76,20.1433367 L54.76,20.1433367 C54.7084522,20.1435951 54.6651542,20.1046269 54.66,20.0533367 L54.66,20.0533367 Z M54.66,19.5733367 C54.6651542,19.5220466 54.7084522,19.4830784 54.76,19.4833367 L54.76,19.4833367 C54.7838695,19.4833367 54.8067613,19.4928189 54.8236396,19.5096971 C54.8405179,19.5265754 54.85,19.5494673 54.85,19.5733367 L54.85,19.5733367 C54.8502583,19.6248846 54.8112901,19.6681826 54.76,19.6733367 L54.76,19.6733367 C54.7068166,19.6686864 54.6646504,19.6265201 54.66,19.5733367 L54.66,19.5733367 Z M54.66,19.1033367 C54.66,19.0481083 54.7047715,19.0033367 54.76,19.0033367 L54.76,19.0033367 C54.7857076,19.0031775 54.8102562,19.0140195 54.8274539,19.0331282 C54.8446517,19.0522369 54.8528569,19.0777879 54.85,19.1033367 L54.85,19.1033367 C54.85,19.1530424 54.8097056,19.1933367 54.76,19.1933367 L54.76,19.1933367 C54.7084522,19.1935951 54.6651542,19.1546269 54.66,19.1033367 L54.66,19.1033367 Z M54.66,18.6233367 C54.6646504,18.5701534 54.7068166,18.5279871 54.76,18.5233367 L54.76,18.5233367 C54.8112901,18.5284909 54.8502583,18.5717889 54.85,18.6233367 L54.85,18.6233367 C54.85,18.6730424 54.8097056,18.7133367 54.76,18.7133367 L54.76,18.7133367 C54.7084522,18.7135951 54.6651542,18.6746269 54.66,18.6233367 L54.66,18.6233367 Z M54.66,18.1433367 C54.6651542,18.0920466 54.7084522,18.0530784 54.76,18.0533367 L54.76,18.0533367 C54.8097056,18.0533367 54.85,18.0936311 54.85,18.1433367 L54.85,18.1433367 C54.8502583,18.1948846 54.8112901,18.2381826 54.76,18.2433367 L54.76,18.2433367 C54.7068166,18.2386864 54.6646504,18.1965201 54.66,18.1433367 L54.66,18.1433367 Z M54.66,17.6633367 C54.6651542,17.6120466 54.7084522,17.5730784 54.76,17.5733367 L54.76,17.5733367 C54.8097056,17.5733367 54.85,17.6136311 54.85,17.6633367 L54.85,17.6633367 C54.8528569,17.6888856 54.8446517,17.7144366 54.8274539,17.7335453 C54.8102562,17.752654 54.7857076,17.763496 54.76,17.7633367 L54.76,17.7633367 C54.7334784,17.7633367 54.708043,17.7528011 54.6892893,17.7340474 C54.6705357,17.7152938 54.66,17.6898584 54.66,17.6633367 L54.66,17.6633367 Z M54.66,17.1933367 C54.66,17.1381083 54.7047715,17.0933367 54.76,17.0933367 L54.76,17.0933367 C54.7857076,17.0931775 54.8102562,17.1040195 54.8274539,17.1231282 C54.8446517,17.1422369 54.8528569,17.1677879 54.85,17.1933367 L54.85,17.1933367 C54.85,17.2430424 54.8097056,17.2833367 54.76,17.2833367 L54.76,17.2833367 C54.7084522,17.2835951 54.6651542,17.2446269 54.66,17.1933367 L54.66,17.1933367 Z" id="Shape" fill="#FFFFFF"></path>
                    <path d="M54.76,24.9133367 C54.7376226,24.9227826 54.7123774,24.9227826 54.69,24.9133367 C54.679282,24.8947727 54.679282,24.8719008 54.69,24.8533367 C54.6805542,24.8309594 54.6805542,24.8057141 54.69,24.7833367 C54.7152306,24.7506256 54.7594906,24.7392915 54.7973381,24.7558498 C54.8351855,24.772408 54.8569002,24.8126061 54.85,24.8533367 C54.857784,24.8725794 54.857784,24.8940941 54.85,24.9133367 C54.8221539,24.9294137 54.7878461,24.9294137 54.76,24.9133367 Z" id="Path" fill="#FFFFFF"></path>
                    <rect id="Rectangle" fill="#FFFFFF" x="49.81" y="16.6433367" width="1" height="11.3"></rect>
                    <rect id="Rectangle" fill="#FFFFFF" x="38.27" y="20.6633367" width="1" height="13.95"></rect>
                    <path d="M44.93,22.5933367 C44.9076226,22.6027826 44.8823774,22.6027826 44.86,22.5933367 C44.8509941,22.5743506 44.8509941,22.5523229 44.86,22.5333367 C44.8505542,22.5109594 44.8505542,22.4857141 44.86,22.4633367 C44.9018315,22.433294 44.9581685,22.433294 45,22.4633367 C45.0043353,22.4864687 45.0043353,22.5102048 45,22.5333367 C45.0043361,22.5531017 45.0043361,22.5735718 45,22.5933367 C44.9772892,22.6009591 44.9527108,22.6009591 44.93,22.5933367 Z" id="Path" fill="#FFFFFF"></path>
                    <path d="M44.83,30.0333367 C44.83,29.9781083 44.8747715,29.9333367 44.93,29.9333367 L44.93,29.9333367 C44.9812901,29.9384909 45.0202583,29.9817889 45.02,30.0333367 L45.02,30.0333367 C45.02,30.0830424 44.9797056,30.1233367 44.93,30.1233367 L44.93,30.1233367 C44.9044512,30.1261937 44.8789001,30.1179885 44.8597914,30.1007907 C44.8406828,30.0835929 44.8298408,30.0590443 44.83,30.0333367 L44.83,30.0333367 Z M44.83,29.5633367 C44.83,29.5081083 44.8747715,29.4633367 44.93,29.4633367 L44.93,29.4633367 C44.9812901,29.4684909 45.0202583,29.5117889 45.02,29.5633367 L45.02,29.5633367 C45.02,29.5872062 45.0105179,29.6100981 44.9936396,29.6269764 C44.9767613,29.6438546 44.9538695,29.6533367 44.93,29.6533367 L44.93,29.6533367 C44.9044512,29.6561937 44.8789001,29.6479885 44.8597914,29.6307907 C44.8406828,29.6135929 44.8298408,29.5890443 44.83,29.5633367 L44.83,29.5633367 Z M44.83,29.0933367 C44.826742,29.0659453 44.8362252,29.0385724 44.8557304,29.0190672 C44.8752357,28.9995619 44.9026085,28.9900787 44.93,28.9933367 L44.93,28.9933367 C44.9557076,28.9931775 44.9802562,29.0040195 44.9974539,29.0231282 C45.0146517,29.0422369 45.0228569,29.0677879 45.02,29.0933367 L45.02,29.0933367 C45.02,29.1430424 44.9797056,29.1833367 44.93,29.1833367 L44.93,29.1833367 C44.9044512,29.1861937 44.8789001,29.1779885 44.8597914,29.1607907 C44.8406828,29.1435929 44.8298408,29.1190443 44.83,29.0933367 L44.83,29.0933367 Z M44.83,28.6233367 C44.826742,28.5959453 44.8362252,28.5685724 44.8557304,28.5490672 C44.8752357,28.5295619 44.9026085,28.5200787 44.93,28.5233367 L44.93,28.5233367 C44.9557076,28.5231775 44.9802562,28.5340195 44.9974539,28.5531282 C45.0146517,28.5722369 45.0228569,28.5977879 45.02,28.6233367 L45.02,28.6233367 C45.0154284,28.6710207 44.9776839,28.7087651 44.93,28.7133367 L44.93,28.7133367 C44.8784522,28.7135951 44.8351542,28.6746269 44.83,28.6233367 L44.83,28.6233367 Z M44.83,28.1533367 C44.826742,28.1259453 44.8362252,28.0985724 44.8557304,28.0790672 C44.8752357,28.0595619 44.9026085,28.0500787 44.93,28.0533367 L44.93,28.0533367 C44.9557076,28.0531775 44.9802562,28.0640195 44.9974539,28.0831282 C45.0146517,28.1022369 45.0228569,28.1277879 45.02,28.1533367 L45.02,28.1533367 C45.0154284,28.2010207 44.9776839,28.2387651 44.93,28.2433367 L44.93,28.2433367 C44.8784522,28.2435951 44.8351542,28.2046269 44.83,28.1533367 L44.83,28.1533367 Z M44.83,27.6833367 C44.826742,27.6559453 44.8362252,27.6285724 44.8557304,27.6090672 C44.8752357,27.5895619 44.9026085,27.5800787 44.93,27.5833367 L44.93,27.5833367 C44.9557076,27.5831775 44.9802562,27.5940195 44.9974539,27.6131282 C45.0146517,27.6322369 45.0228569,27.6577879 45.02,27.6833367 L45.02,27.6833367 C45.0154284,27.7310207 44.9776839,27.7687651 44.93,27.7733367 L44.93,27.7733367 C44.8784522,27.7735951 44.8351542,27.7346269 44.83,27.6833367 L44.83,27.6833367 Z M44.83,27.2133367 C44.826742,27.1859453 44.8362252,27.1585724 44.8557304,27.1390672 C44.8752357,27.1195619 44.9026085,27.1100787 44.93,27.1133367 L44.93,27.1133367 C44.9557076,27.1131775 44.9802562,27.1240195 44.9974539,27.1431282 C45.0146517,27.1622369 45.0228569,27.1877879 45.02,27.2133367 L45.02,27.2133367 C45.0154284,27.2610207 44.9776839,27.2987651 44.93,27.3033367 L44.93,27.3033367 C44.8784522,27.3035951 44.8351542,27.2646269 44.83,27.2133367 L44.83,27.2133367 Z M44.83,26.7433367 C44.826742,26.7159453 44.8362252,26.6885724 44.8557304,26.6690672 C44.8752357,26.6495619 44.9026085,26.6400787 44.93,26.6433367 L44.93,26.6433367 C44.9557076,26.6431775 44.9802562,26.6540195 44.9974539,26.6731282 C45.0146517,26.6922369 45.0228569,26.7177879 45.02,26.7433367 L45.02,26.7433367 C45.0154284,26.7910207 44.9776839,26.8287651 44.93,26.8333367 L44.93,26.8333367 C44.8784522,26.8335951 44.8351542,26.7946269 44.83,26.7433367 L44.83,26.7433367 Z M44.83,26.2633367 C44.8298408,26.2376292 44.8406828,26.2130806 44.8597914,26.1958828 C44.8789001,26.178685 44.9044512,26.1704798 44.93,26.1733367 L44.93,26.1733367 C44.9538695,26.1733367 44.9767613,26.1828189 44.9936396,26.1996971 C45.0105179,26.2165754 45.02,26.2394673 45.02,26.2633367 L45.02,26.2633367 C45.02,26.3130424 44.9797056,26.3533367 44.93,26.3533367 L44.93,26.3533367 C44.9044512,26.3561937 44.8789001,26.3479885 44.8597914,26.3307907 C44.8406828,26.3135929 44.8298408,26.2890443 44.83,26.2633367 L44.83,26.2633367 Z M44.83,25.7933367 C44.8298408,25.7676292 44.8406828,25.7430806 44.8597914,25.7258828 C44.8789001,25.708685 44.9044512,25.7004798 44.93,25.7033367 L44.93,25.7033367 C44.9797056,25.7033367 45.02,25.7436311 45.02,25.7933367 L45.02,25.7933367 C45.02,25.8430424 44.9797056,25.8833367 44.93,25.8833367 L44.93,25.8833367 C44.9044512,25.8861937 44.8789001,25.8779885 44.8597914,25.8607907 C44.8406828,25.8435929 44.8298408,25.8190443 44.83,25.7933367 L44.83,25.7933367 Z M44.83,25.3233367 C44.8298408,25.2976292 44.8406828,25.2730806 44.8597914,25.2558828 C44.8789001,25.238685 44.9044512,25.2304798 44.93,25.2333367 L44.93,25.2333367 C44.9797056,25.2333367 45.02,25.2736311 45.02,25.3233367 L45.02,25.3233367 C45.02,25.3730424 44.9797056,25.4133367 44.93,25.4133367 L44.93,25.4133367 C44.9044512,25.4161937 44.8789001,25.4079885 44.8597914,25.3907907 C44.8406828,25.3735929 44.8298408,25.3490443 44.83,25.3233367 L44.83,25.3233367 Z M44.83,24.8533367 C44.8298408,24.8276292 44.8406828,24.8030806 44.8597914,24.7858828 C44.8789001,24.768685 44.9044512,24.7604798 44.93,24.7633367 L44.93,24.7633367 C44.9538695,24.7633367 44.9767613,24.7728189 44.9936396,24.7896971 C45.0105179,24.8065754 45.02,24.8294673 45.02,24.8533367 L45.02,24.8533367 C45.02,24.9030424 44.9797056,24.9433367 44.93,24.9433367 L44.93,24.9433367 C44.9044512,24.9461937 44.8789001,24.9379885 44.8597914,24.9207907 C44.8406828,24.9035929 44.8298408,24.8790443 44.83,24.8533367 L44.83,24.8533367 Z M44.83,24.3833367 C44.8298408,24.3576292 44.8406828,24.3330806 44.8597914,24.3158828 C44.8789001,24.298685 44.9044512,24.2904798 44.93,24.2933367 L44.93,24.2933367 C44.9797056,24.2933367 45.02,24.3336311 45.02,24.3833367 L45.02,24.3833367 C45.02,24.4330424 44.9797056,24.4733367 44.93,24.4733367 L44.93,24.4733367 C44.9044512,24.4761937 44.8789001,24.4679885 44.8597914,24.4507907 C44.8406828,24.4335929 44.8298408,24.4090443 44.83,24.3833367 L44.83,24.3833367 Z M44.83,23.9133367 C44.8298408,23.8876292 44.8406828,23.8630806 44.8597914,23.8458828 C44.8789001,23.828685 44.9044512,23.8204798 44.93,23.8233367 L44.93,23.8233367 C44.9797056,23.8233367 45.02,23.8636311 45.02,23.9133367 L45.02,23.9133367 C45.02,23.9630424 44.9797056,24.0033367 44.93,24.0033367 L44.93,24.0033367 C44.9044512,24.0061937 44.8789001,23.9979885 44.8597914,23.9807907 C44.8406828,23.9635929 44.8298408,23.9390443 44.83,23.9133367 L44.83,23.9133367 Z M44.83,23.4433367 C44.8298408,23.4176292 44.8406828,23.3930806 44.8597914,23.3758828 C44.8789001,23.358685 44.9044512,23.3504798 44.93,23.3533367 L44.93,23.3533367 C44.9538695,23.3533367 44.9767613,23.3628189 44.9936396,23.3796971 C45.0105179,23.3965754 45.02,23.4194673 45.02,23.4433367 L45.02,23.4433367 C45.02,23.4930424 44.9797056,23.5333367 44.93,23.5333367 L44.93,23.5333367 C44.9044512,23.5361937 44.8789001,23.5279885 44.8597914,23.5107907 C44.8406828,23.4935929 44.8298408,23.4690443 44.83,23.4433367 L44.83,23.4433367 Z M44.83,22.9733367 C44.8298408,22.9476292 44.8406828,22.9230806 44.8597914,22.9058828 C44.8789001,22.888685 44.9044512,22.8804798 44.93,22.8833367 L44.93,22.8833367 C44.9797056,22.8833367 45.02,22.9236311 45.02,22.9733367 L45.02,22.9733367 C45.02,23.0230424 44.9797056,23.0633367 44.93,23.0633367 L44.93,23.0633367 C44.9044512,23.0661937 44.8789001,23.0579885 44.8597914,23.0407907 C44.8406828,23.0235929 44.8298408,22.9990443 44.83,22.9733367 L44.83,22.9733367 Z" id="Shape" fill="#FFFFFF"></path>
                    <path d="M44.93,30.5933367 C44.9076226,30.6027826 44.8823774,30.6027826 44.86,30.5933367 C44.8531371,30.5739255 44.8531371,30.552748 44.86,30.5333367 C44.8505542,30.5109594 44.8505542,30.4857141 44.86,30.4633367 C44.8986981,30.4349917 44.9513019,30.4349917 44.99,30.4633367 C44.9994458,30.4857141 44.9994458,30.5109594 44.99,30.5333367 C44.9943361,30.5531017 44.9943361,30.5735718 44.99,30.5933367 L44.93,30.5933367 Z" id="Path" fill="#FFFFFF"></path>
                    <path d="M31.48,30.9433367 C31.4247715,30.9433367 31.38,30.8985652 31.38,30.8433367 C31.3709941,30.8243506 31.3709941,30.8023229 31.38,30.7833367 C31.3969763,30.7656104 31.4204558,30.7555862 31.445,30.7555862 C31.4695442,30.7555862 31.4930237,30.7656104 31.51,30.7833367 C31.5190059,30.8023229 31.5190059,30.8243506 31.51,30.8433367 C31.5194458,30.8657141 31.5194458,30.8909594 31.51,30.9133367 C31.5025336,30.9255846 31.4922478,30.9358703 31.48,30.9433367 L31.48,30.9433367 Z" id="Path" fill="#FFFFFF"></path>
                    <path d="M31.38,37.8033367 C31.3846504,37.7501534 31.4268166,37.7079871 31.48,37.7033367 L31.48,37.7033367 C31.5312901,37.7084909 31.5702583,37.7517889 31.57,37.8033367 L31.57,37.8033367 C31.57,37.8272062 31.5605179,37.8500981 31.5436396,37.8669764 C31.5267613,37.8838546 31.5038695,37.8933367 31.48,37.8933367 L31.48,37.8933367 C31.4284522,37.8935951 31.3851542,37.8546269 31.38,37.8033367 L31.38,37.8033367 Z M31.38,37.3333367 C31.3851542,37.2820466 31.4284522,37.2430784 31.48,37.2433367 L31.48,37.2433367 C31.5038695,37.2433367 31.5267613,37.2528189 31.5436396,37.2696971 C31.5605179,37.2865754 31.57,37.3094673 31.57,37.3333367 L31.57,37.3333367 C31.5728569,37.3588856 31.5646517,37.3844366 31.5474539,37.4035453 C31.5302562,37.422654 31.5057076,37.433496 31.48,37.4333367 L31.48,37.4333367 C31.4247715,37.4333367 31.38,37.3885652 31.38,37.3333367 L31.38,37.3333367 Z M31.38,36.8733367 C31.3851542,36.8220466 31.4284522,36.7830784 31.48,36.7833367 L31.48,36.7833367 C31.5038695,36.7833367 31.5267613,36.7928189 31.5436396,36.8096971 C31.5605179,36.8265754 31.57,36.8494673 31.57,36.8733367 L31.57,36.8733367 C31.5702583,36.9248846 31.5312901,36.9681826 31.48,36.9733367 L31.48,36.9733367 C31.4268166,36.9686864 31.3846504,36.9265201 31.38,36.8733367 Z M31.38,36.4133367 C31.38,36.3581083 31.4247715,36.3133367 31.48,36.3133367 L31.48,36.3133367 C31.5057076,36.3131775 31.5302562,36.3240195 31.5474539,36.3431282 C31.5646517,36.3622369 31.5728569,36.3877879 31.57,36.4133367 L31.57,36.4133367 C31.57,36.4372062 31.5605179,36.4600981 31.5436396,36.4769764 C31.5267613,36.4938546 31.5038695,36.5033367 31.48,36.5033367 L31.48,36.5033367 C31.4372479,36.5068552 31.3970141,36.4827149 31.38,36.4433367 L31.38,36.4133367 Z M31.38,35.9433367 C31.3851542,35.8920466 31.4284522,35.8530784 31.48,35.8533367 L31.48,35.8533367 C31.5038695,35.8533367 31.5267613,35.8628189 31.5436396,35.8796971 C31.5605179,35.8965754 31.57,35.9194673 31.57,35.9433367 L31.57,35.9433367 C31.5728569,35.9688856 31.5646517,35.9944366 31.5474539,36.0135453 C31.5302562,36.032654 31.5057076,36.043496 31.48,36.0433367 L31.48,36.0433367 C31.4247715,36.0433367 31.38,35.9985652 31.38,35.9433367 L31.38,35.9433367 Z M31.38,35.4833367 C31.3846504,35.4301534 31.4268166,35.3879871 31.48,35.3833367 L31.48,35.3833367 C31.5312901,35.3884909 31.5702583,35.4317889 31.57,35.4833367 L31.57,35.4833367 C31.5702583,35.5348846 31.5312901,35.5781826 31.48,35.5833367 L31.48,35.5833367 C31.4465584,35.5815751 31.4157406,35.5646755 31.3962761,35.5374253 C31.3768116,35.510175 31.3708205,35.4755421 31.38,35.4433367 L31.38,35.4833367 Z M31.38,35.0233367 C31.38,34.9681083 31.4247715,34.9233367 31.48,34.9233367 L31.48,34.9233367 C31.5057076,34.9231775 31.5302562,34.9340195 31.5474539,34.9531282 C31.5646517,34.9722369 31.5728569,34.9977879 31.57,35.0233367 L31.57,35.0233367 C31.57,35.0472062 31.5605179,35.0700981 31.5436396,35.0869764 C31.5267613,35.1038546 31.5038695,35.1133367 31.48,35.1133367 L31.48,35.1133367 C31.4284522,35.1135951 31.3851542,35.0746269 31.38,35.0233367 L31.38,35.0233367 Z M31.38,34.5533367 C31.3851542,34.5020466 31.4284522,34.4630784 31.48,34.4633367 L31.48,34.4633367 C31.5038695,34.4633367 31.5267613,34.4728189 31.5436396,34.4896971 C31.5605179,34.5065754 31.57,34.5294673 31.57,34.5533367 L31.57,34.5533367 C31.5702583,34.6048846 31.5312901,34.6481826 31.48,34.6533367 L31.48,34.6533367 C31.4268166,34.6486864 31.3846504,34.6065201 31.38,34.5533367 L31.38,34.5533367 Z M31.38,34.0933367 C31.3846504,34.0401534 31.4268166,33.9979871 31.48,33.9933367 L31.48,33.9933367 C31.5312901,33.9984909 31.5702583,34.0417889 31.57,34.0933367 L31.57,34.0933367 C31.57,34.1172062 31.5605179,34.1400981 31.5436396,34.1569764 C31.5267613,34.1738546 31.5038695,34.1833367 31.48,34.1833367 L31.48,34.1833367 C31.4284522,34.1835951 31.3851542,34.1446269 31.38,34.0933367 L31.38,34.0933367 Z M31.38,33.6233367 C31.3851542,33.5720466 31.4284522,33.5330784 31.48,33.5333367 L31.48,33.5333367 C31.5038695,33.5333367 31.5267613,33.5428189 31.5436396,33.5596971 C31.5605179,33.5765754 31.57,33.5994673 31.57,33.6233367 L31.57,33.6233367 C31.5728569,33.6488856 31.5646517,33.6744366 31.5474539,33.6935453 C31.5302562,33.712654 31.5057076,33.723496 31.48,33.7233367 L31.48,33.7233367 C31.4534784,33.7233367 31.428043,33.7128011 31.4092893,33.6940474 C31.3905357,33.6752938 31.38,33.6498584 31.38,33.6233367 L31.38,33.6233367 Z M31.38,33.1633367 C31.3851542,33.1120466 31.4284522,33.0730784 31.48,33.0733367 L31.48,33.0733367 C31.5038695,33.0733367 31.5267613,33.0828189 31.5436396,33.0996971 C31.5605179,33.1165754 31.57,33.1394673 31.57,33.1633367 L31.57,33.1633367 C31.5702583,33.2148846 31.5312901,33.2581826 31.48,33.2633367 L31.48,33.2633367 C31.4268166,33.2586864 31.3846504,33.2165201 31.38,33.1633367 L31.38,33.1633367 Z M31.38,32.7033367 C31.38,32.6481083 31.4247715,32.6033367 31.48,32.6033367 L31.48,32.6033367 C31.5057076,32.6031775 31.5302562,32.6140195 31.5474539,32.6331282 C31.5646517,32.6522369 31.5728569,32.6777879 31.57,32.7033367 L31.57,32.7033367 C31.57,32.7272062 31.5605179,32.7500981 31.5436396,32.7669764 C31.5267613,32.7838546 31.5038695,32.7933367 31.48,32.7933367 L31.48,32.7933367 C31.4284522,32.7935951 31.3851542,32.7546269 31.38,32.7033367 L31.38,32.7033367 Z M31.38,32.2333367 C31.3851542,32.1820466 31.4284522,32.1430784 31.48,32.1433367 L31.48,32.1433367 C31.5038695,32.1433367 31.5267613,32.1528189 31.5436396,32.1696971 C31.5605179,32.1865754 31.57,32.2094673 31.57,32.2333367 L31.57,32.2333367 C31.5728569,32.2588856 31.5646517,32.2844366 31.5474539,32.3035453 C31.5302562,32.322654 31.5057076,32.333496 31.48,32.3333367 L31.48,32.3333367 C31.4247715,32.3333367 31.38,32.2885652 31.38,32.2333367 L31.38,32.2333367 Z M31.38,31.7733367 C31.3846504,31.7201534 31.4268166,31.6779871 31.48,31.6733367 L31.48,31.6733367 C31.5312901,31.6784909 31.5702583,31.7217889 31.57,31.7733367 L31.57,31.7733367 C31.5702583,31.8248846 31.5312901,31.8681826 31.48,31.8733367 L31.48,31.8733367 C31.4268166,31.8686864 31.3846504,31.8265201 31.38,31.7733367 Z M31.38,31.3133367 C31.38,31.2868151 31.3905357,31.2613797 31.4092893,31.2426261 C31.428043,31.2238724 31.4534784,31.2133367 31.48,31.2133367 L31.48,31.2133367 C31.5057076,31.2131775 31.5302562,31.2240195 31.5474539,31.2431282 C31.5646517,31.2622369 31.5728569,31.2877879 31.57,31.3133367 L31.57,31.3133367 C31.57,31.3372062 31.5605179,31.3600981 31.5436396,31.3769764 C31.5267613,31.3938546 31.5038695,31.4033367 31.48,31.4033367 L31.48,31.4033367 C31.4284522,31.4035951 31.3851542,31.3646269 31.38,31.3133367 L31.38,31.3133367 Z" id="Shape" fill="#FFFFFF"></path>
                    <path d="M31.48,38.3633367 C31.4247715,38.3633367 31.38,38.3185652 31.38,38.2633367 C31.3709941,38.2443506 31.3709941,38.2223229 31.38,38.2033367 C31.3969763,38.1856104 31.4204558,38.1755862 31.445,38.1755862 C31.4695442,38.1755862 31.4930237,38.1856104 31.51,38.2033367 C31.5190059,38.2223229 31.5190059,38.2443506 31.51,38.2633367 C31.5194458,38.2857141 31.5194458,38.3109594 31.51,38.3333367 L31.48,38.3633367 Z" id="Path" fill="#FFFFFF"></path>
                    <path d="M25.97,29.8933367 L25.97,39.8933367 C25.97,40.8933367 26.69,41.3233367 27.58,40.8133367 L56.34,24.2133367 C57.2941255,23.6029156 57.8996858,22.5738346 57.97,21.4433367 L57.97,18.2833367 C56.77,17.6733367 52.97,14.8833367 49.92,16.6133367 C48.23,17.6133367 46.34,20.2833367 45.05,22.3333367 C44.54,23.1333367 44.12,23.8333367 43.84,24.3333367 L43.54,24.8333367 C42.195364,27.1797207 40.3139921,29.1741804 38.05,30.6533367 C35.15,32.3333367 30.71,30.6533367 29.05,30.1833367 C28.0489024,29.903445 27.0057472,29.8052258 25.97,29.8933367 Z" id="Path" fill="url(#linearGradient-13)"></path>
                    <path d="M25.98,35.3833367 L25.98,39.8733367 C25.98,40.8733367 26.7,41.3033367 27.59,40.7933367 L56.35,24.1933367 C57.2948608,23.5847831 57.8957481,22.5647582 57.97,21.4433367 L57.97,12.2233367 C56.9462893,13.2266586 56.0858821,14.3839907 55.42,15.6533367 L55.29,15.8533367 C53.66,18.4333367 51.62,21.6133367 49.46,22.8533367 C46.12,24.7833367 40.9,19.2033367 38.46,20.5833367 C37.4584797,21.2834166 36.6306406,22.2036179 36.04,23.2733367 C34.92,25.0633367 33.88,27.2733367 32.74,29.1333367 C32.2747108,29.91619 31.7100165,30.635503 31.06,31.2733367 C29.4949809,32.7947501 27.7946216,34.1704345 25.98,35.3833367 Z" id="Path" fill="url(#linearGradient-14)"></path>
                    <path d="M26.05,35.4933367 L25.92,35.2933367 C27.7337974,34.075581 29.4340232,32.6966578 31,31.1733367 C32.3456541,29.6508549 33.4608442,27.9393244 34.31,26.0933367 C35.56,23.7733367 36.84,21.3733367 38.4,20.4733367 C39.55,19.7933367 41.29,20.6533367 43.13,21.5633367 C45.22,22.5633367 47.6,23.7533367 49.35,22.7433367 C51.55,21.4433367 53.61,18.2233367 55.31,15.6033367 C56.42,13.8433367 57.31,12.4433367 57.95,12.0733367 L58.07,12.2833367 C57.47,12.6233367 56.56,14.0633367 55.5,15.7333367 C53.84,18.3733367 51.76,21.6533367 49.5,22.9433367 C47.64,24.0233367 45.2,22.8233367 43.06,21.7733367 C41.27,20.8933367 39.59,20.0633367 38.55,20.6733367 C37.05,21.5433367 35.78,23.9133367 34.55,26.2033367 C33.6829058,28.0739396 32.5439157,29.8060134 31.17,31.3433367 C29.5930354,32.8794341 27.8792719,34.2685197 26.05,35.4933367 L26.05,35.4933367 Z" id="Path" fill="#09BDFF"></path>
                    <path d="M34.97,31.4433367 C33.2249929,31.3508646 31.5015602,31.0142566 29.85,30.4433367 L28.99,30.2033367 C28.0138957,29.9363007 26.9980987,29.844879 25.99,29.9333367 L25.99,29.7033367 C27.0278609,29.60903 28.0742231,29.7004597 29.08,29.9733367 L29.94,30.2133367 C31.94,30.7933367 35.56,31.8733367 38.02,30.4533367 C41.02,28.7133367 43.09,25.2933367 43.76,24.1733367 L43.89,23.9533367 C45,22.1033367 47.59,17.7633367 49.89,16.4433367 C52.56,14.9033367 55.89,16.8433367 57.44,17.7633367 L58.05,18.1133367 L57.95,18.3233367 C57.79,18.2433367 57.58,18.1133367 57.33,17.9733367 C55.78,17.0633367 52.55,15.1833367 50.01,16.6433367 C47.77,17.9333367 45.2,22.2433367 44.1,24.0833367 L43.97,24.2933367 C43.29,25.4333367 41.21,28.8833367 38.15,30.6633367 C37.1783269,31.201762 36.0805329,31.4710322 34.97,31.4433367 L34.97,31.4433367 Z" id="Path" fill="#EC82FF"></path>
                </g>
            </g>
        </g>
    </g>
</svg>