<?xml version="1.0" encoding="UTF-8"?>
<svg width="121px" height="160px" viewBox="0 0 121 160" version="1.1" xmlns="http://www.w3.org/2000/svg" xmlns:xlink="http://www.w3.org/1999/xlink">
    <title>13Artboard 1</title>
    <defs>
        <linearGradient x1="39.0498263%" y1="87.5192604%" x2="75.433985%" y2="21.3790447%" id="linearGradient-1">
            <stop stop-color="#DCE6F5" offset="0%"></stop>
            <stop stop-color="#E1E9F6" offset="2%"></stop>
            <stop stop-color="#EFF3F8" offset="4%"></stop>
            <stop stop-color="#F4F6F9" offset="5%"></stop>
            <stop stop-color="#EEF2F6" offset="17%"></stop>
            <stop stop-color="#DFE5EF" offset="32%"></stop>
            <stop stop-color="#C5D1E3" offset="49%"></stop>
            <stop stop-color="#C3CFE2" offset="50%"></stop>
            <stop stop-color="#D8E0EC" offset="60%"></stop>
            <stop stop-color="#EEF1F7" offset="74%"></stop>
            <stop stop-color="#FBFCFD" offset="87%"></stop>
            <stop stop-color="#FFFFFF" offset="100%"></stop>
        </linearGradient>
        <linearGradient x1="-0.012220457%" y1="50.0025639%" x2="100.01222%" y2="50.0025639%" id="linearGradient-2">
            <stop stop-color="#D8E0ED" offset="0%"></stop>
            <stop stop-color="#EBEFF7" offset="100%"></stop>
        </linearGradient>
        <linearGradient x1="1.49970006%" y1="50.0031924%" x2="99.8920216%" y2="50.0031924%" id="linearGradient-3">
            <stop stop-color="#FFFFFF" offset="0%"></stop>
            <stop stop-color="#FBFBFD" offset="31%"></stop>
            <stop stop-color="#EDF1F7" offset="65%"></stop>
            <stop stop-color="#D8E0ED" offset="100%"></stop>
        </linearGradient>
        <linearGradient x1="15.6764735%" y1="26.2171517%" x2="84.3235265%" y2="74.186067%" id="linearGradient-4">
            <stop stop-color="#89F7FE" offset="0%"></stop>
            <stop stop-color="#66A6FF" offset="100%"></stop>
        </linearGradient>
    </defs>
    <g id="Page-1" stroke="none" stroke-width="1" fill="none" fill-rule="evenodd">
        <g id="Mining-Provider-Windows-Onboarding-Steps-05" transform="translate(-598.000000, -508.000000)" fill-rule="nonzero">
            <g id="My-Balance" transform="translate(531.000000, 461.000000)">
                <g id="13Artboard-1" transform="translate(67.000000, 47.000000)">
                    <g id="Group" transform="translate(28.296895, 131.957811)" fill="#000000" fill-opacity="0.05">
                        <path d="M15.8681048,0.711858295 C17.7066908,-0.237286098 19.8922569,-0.237286098 21.7308429,0.711858295 L44.4615572,13.9548672 C45.1911014,14.208297 45.6800191,14.8948876 45.6800191,15.6659617 C45.6800191,16.4370358 45.1911014,17.1236264 44.4615572,17.3770562 L29.8119143,25.889392 C27.9783836,26.8384085 25.7971117,26.8384085 23.963581,25.889392 L1.21846196,12.6463831 C0.488917771,12.3929533 0,11.7063627 0,10.9352886 C0,10.1642145 0.488917771,9.47762386 1.21846196,9.22419408 L15.8681048,0.711858295 Z" id="Path"></path>
                    </g>
                    <path d="M117.859762,158.307329 L117.859762,149.061667 L120.740714,147.37933 L120.740714,156.639371 C120.797617,157.233923 120.534461,157.814017 120.049286,158.16354 L117.168333,159.845876 C117.660666,159.495647 117.925084,158.907273 117.859762,158.307329 Z" id="Path" fill="#CAD4E3"></path>
                    <polygon id="Path" fill="#C3C3C4" points="117.888571 149.061667 120.783929 147.37933 2.9097619 79.4531916 0.0144047619 81.1355282"></polygon>
                    <path d="M65.700119,141.282658 C65.6011699,143.236682 64.5665867,145.023892 62.92,146.085225 L52.1452381,152.29693 C51.8993346,152.456589 51.744228,152.723535 51.7275,153.015877 C51.7186494,153.123536 51.7680853,153.227713 51.8571429,153.289077 L30.8117857,141.081352 C30.7227281,141.019988 30.6732923,140.915811 30.6821429,140.808152 C30.6988708,140.51581 30.8539775,140.248864 31.099881,140.089205 L41.8746429,133.877501 C42.6965035,133.364043 43.3752752,132.651868 43.8480952,131.806932 C44.3510863,130.982081 44.6291794,130.040242 44.6547619,129.074933 L44.6547619,115.961334 L65.700119,128.169059 L65.700119,141.282658 Z" id="Path" fill="url(#linearGradient-1)"></path>
                    <path d="M45.3461905,115.213629 C45.2534679,115.156536 45.136413,115.156536 45.0436905,115.213629 C44.797787,115.373288 44.6426803,115.640234 44.6259524,115.932577 L65.6713095,128.140301 C65.6880375,127.847959 65.8431441,127.581013 66.0890476,127.421354 C66.1817702,127.364261 66.2988251,127.364261 66.3915476,127.421354 L45.3461905,115.213629 Z" id="Path" fill="#FAFBFD"></path>
                    <path d="M66.0890476,127.450112 C66.3195238,127.306322 66.5067857,127.450112 66.5067857,127.680175 L66.5067857,140.793773 C66.3685537,143.342072 65.0198441,145.671371 62.8767857,147.062994 L52.1164286,153.260319 C51.8859524,153.38973 51.6842857,153.260319 51.6842857,153.015877 C51.7018765,152.720103 51.863261,152.451611 52.1164286,152.29693 L62.8767857,146.085225 C64.5233724,145.023892 65.5579556,143.236682 65.6569048,141.282658 L65.6569048,128.169059 C65.6720261,127.872529 65.8340493,127.602974 66.0890476,127.450112 Z" id="Path" fill="#B4C0D1"></path>
                    <path d="M0,81.1211493 L0,90.3668113 C0.0902374127,92.0335949 0.973653991,93.5567616 2.37678571,94.4648108 L48.8465476,121.267165 L69.0132143,132.885353 L115.497381,159.673329 C116.808214,160.435413 117.874167,159.817118 117.874167,158.307329 L117.874167,149.061667 L0,81.1211493 Z" id="Path" fill="url(#linearGradient-2)"></path>
                    <polygon id="Path" fill="#00BAC2" points="113.192619 70.8114453 116.073571 69.1291086 7.79297619 6.72448484 4.91202381 8.40682147"></polygon>
                    <path d="M115.742262,67.187951 C117.14891,68.0926583 118.033464,69.6177871 118.119048,71.2859505 L117.902976,149.061667 L0,81.1211493 L0.23047619,3.34543263 C0.23047619,1.83564334 1.29642857,1.23172763 2.6072619,1.99381174 L115.742262,67.187951 Z" id="Path" fill="#EEF1F7"></path>
                    <path d="M3.8172619,0.153306708 C4.37323358,-0.101356647 5.02379178,-0.035316755 5.51702381,0.325854055 L118.637619,65.5199933 C120.037013,66.4295979 120.915328,67.9532024 121,69.6179928 L120.783929,147.37933 L117.902976,149.061667 L118.119048,71.2859505 C118.036704,69.6204765 117.157823,68.0958899 115.756667,67.187951 L2.62166667,2.03694858 C2.13290182,1.67833183 1.48782573,1.61228876 0.936309524,1.86440123 L3.8172619,0.153306708 Z" id="Path" fill="url(#linearGradient-3)"></path>
                    <polygon id="Path" fill="url(#linearGradient-4)" points="113.10619 140.592468 5.0272619 78.3028759 5.0272619 10.1466739 113.10619 72.4218872"></polygon>
                    <polygon id="Path" fill="#476ED3" points="113.10619 83.2492332 5.0272619 20.959641 5.0272619 10.1466739 113.10619 72.4218872"></polygon>
                    <polygon id="Path" fill="#4064BF" points="22.629881 88.4544115 5.0272619 78.3028759 5.0272619 20.959641 22.629881 31.1111765"></polygon>
                    <path d="M42.9405952,39.1058703 L29.9763095,31.6575765 C29.0850394,31.1238694 28.4978769,30.2020779 28.3917857,29.1700189 L28.3917857,29.1700189 C28.3917857,28.2929032 29.1120238,28.0053243 29.9763095,28.5085874 L42.9405952,35.9425023 C43.8335022,36.4745305 44.4212452,37.3972334 44.525119,38.4300598 L44.525119,38.4300598 C44.525119,39.3071755 43.8192857,39.6091334 42.9405952,39.1058703 Z" id="Path" fill="#FFFFFF"></path>
                    <path d="M62.6463095,50.4652373 L49.7540476,43.0169435 C48.8578197,42.4883328 48.2688885,41.5637646 48.1695238,40.5293859 L48.1695238,40.5293859 C48.1695238,39.6522702 48.8753571,39.3646913 49.7540476,39.8679544 L62.6463095,47.3018693 C63.5425375,47.83048 64.1314687,48.7550481 64.2308333,49.7894268 L64.2308333,49.7894268 C64.2308333,50.6665425 63.525,50.9253635 62.6463095,50.4652373 Z" id="Path" fill="#FFFFFF"></path>
                    <path d="M82.3664286,61.8246043 L69.4021429,54.3763105 C68.5059149,53.8476998 67.9169837,52.9231316 67.817619,51.8887529 L67.817619,51.8887529 C67.817619,51.0116372 68.5234524,50.7096794 69.4021429,51.2273214 L82.3664286,58.6612363 C83.2576987,59.1949434 83.8448612,60.1167348 83.9509524,61.1487939 L83.9509524,61.1487939 C83.9509524,62.0259095 83.2307143,62.3278674 82.3664286,61.8246043 Z" id="Path" fill="#FFFFFF"></path>
                    <path d="M102.072143,73.1839713 L89.1078571,65.7356775 C88.2116292,65.2070668 87.622698,64.2824986 87.5233333,63.2481199 L87.5233333,63.2481199 C87.5233333,62.3710042 88.2291667,62.0690464 89.1078571,62.5723095 L102.072143,70.0206033 C102.986613,70.5328785 103.597888,71.4534996 103.714286,72.4937819 L103.714286,72.4937819 C103.714286,73.3852765 102.950833,73.6872344 102.072143,73.1839713 Z" id="Path" fill="#FFFFFF"></path>
                    <polygon id="Path" fill="#FFFFFF" points="12.1720238 34.3033025 7.21678571 31.4418923 7.21678571 26.495535 12.1720238 29.3569452"></polygon>
                    <polygon id="Path" fill="#FFFFFF" points="19.5040476 38.5307125 14.5488095 35.6693023 14.5488095 30.722945 19.5040476 33.5843552"></polygon>
                    <polygon id="Path" fill="#FFFFFF" points="12.1720238 41.6221858 7.21678571 38.7607756 7.21678571 33.8144183 12.1720238 36.6758285"></polygon>
                    <polygon id="Path" fill="#FFFFFF" points="19.5040476 45.8495958 14.5488095 42.9881856 14.5488095 38.0418283 19.5040476 40.9032385"></polygon>
                    <polygon id="Path" fill="#FFFFFF" points="12.1720238 48.955448 7.21678571 46.0940378 7.21678571 41.1333016 12.1720238 43.9947118"></polygon>
                    <polygon id="Path" fill="#FFFFFF" points="19.5040476 53.182858 14.5488095 50.3214478 14.5488095 45.3607116 19.5040476 48.2221218"></polygon>
                    <polygon id="Path" fill="#FFFFFF" points="12.1720238 56.2743313 7.21678571 53.4129211 7.21678571 48.4521849 12.1720238 51.3135951"></polygon>
                    <polygon id="Path" fill="#FFFFFF" points="12.1720238 63.5932146 7.21678571 60.7318044 7.21678571 55.7854472 12.1720238 58.6468573"></polygon>
                    <polygon id="Path" fill="#FFFFFF" points="19.5040476 60.5017413 14.5488095 57.6403311 14.5488095 52.6939739 19.5040476 55.5410051"></polygon>
                    <polygon id="Path" fill="#4064BF" points="113.10619 83.2492332 95.6188095 73.1695924 95.6188095 86.2831907 113.10619 96.3628316"></polygon>
                    <polygon id="Path" fill="#4064BF" points="95.6188095 130.512827 113.10619 140.592468 113.10619 115.644998 95.6188095 105.565357"></polygon>
                    <polygon id="Path" fill="#4C76E3" points="95.6188095 86.2831907 95.6188095 105.565357 113.10619 115.644998 113.10619 96.3628316"></polygon>
                    <polygon id="Path" fill="#35529E" points="95.6188095 86.2831907 95.6188095 89.4178009 101.193452 92.6243057 101.193452 89.5040745"></polygon>
                    <polygon id="Path" fill="#456BCF" points="101.193452 89.5040745 101.193452 92.6243057 107.517143 96.2765579 107.517143 93.1563267"></polygon>
                    <polygon id="Path" fill="#35529E" points="113.10619 96.3628316 107.517143 93.1563267 107.517143 96.2765579 113.10619 99.4830628"></polygon>
                    <path d="M110.066786,117.068513 L98.6438095,110.482956 C98.2600821,110.264291 98.0073728,109.872488 97.9667857,109.433293 L97.9667857,109.433293 C97.9667857,109.059441 98.2692857,108.93003 98.6438095,109.145714 L110.066786,115.731271 C110.444477,115.96305 110.694202,116.35553 110.74381,116.795313 L110.74381,116.795313 C110.74381,117.183545 110.44131,117.312955 110.066786,117.068513 Z" id="Path" fill="#FFFFFF"></path>
                    <path d="M47.6797619,52.6364581 L26.072619,40.1986701 C25.8810223,40.0843817 25.7533338,39.8878814 25.7269048,39.6666492 L25.7269048,39.6666492 C25.7269048,39.4797229 25.8853571,39.4078281 26.072619,39.5228597 L47.6797619,51.9606476 C47.8713587,52.074936 47.9990472,52.2714364 48.0254762,52.4926686 L48.0254762,52.4926686 C48.0254762,52.6795949 47.8670238,52.7371107 47.6797619,52.6364581 Z" id="Path" fill="#064BA2"></path>
                    <path d="M47.6797619,56.6769418 L26.072619,44.2247749 C25.8777552,44.1139051 25.7488746,43.9155703 25.7269048,43.6927539 L25.7269048,43.6927539 C25.7269048,43.5058276 25.8853571,43.4483118 26.072619,43.5489645 L47.6797619,56.0011313 C47.8746258,56.1120012 48.0035064,56.310336 48.0254762,56.5331523 L48.0254762,56.5331523 C48.0254762,56.6769418 47.8670238,56.6769418 47.6797619,56.6769418 Z" id="Path" fill="#064BA2"></path>
                    <path d="M47.6797619,60.588015 L26.072619,48.150227 C25.8810223,48.0359386 25.7533338,47.8394383 25.7269048,47.6182061 L25.7269048,47.6182061 C25.7269048,47.4312798 25.8853571,47.373764 26.072619,47.4744166 L47.6797619,59.9122045 C47.8713587,60.0264929 47.9990472,60.2229933 48.0254762,60.4442255 L48.0254762,60.4442255 C48.0254762,60.6311518 47.8670238,60.7030465 47.6797619,60.588015 Z" id="Path" fill="#064BA2"></path>
                    <path d="M47.6797619,64.5709829 L26.072619,52.118816 C25.8815922,52.0108365 25.7532853,51.8187211 25.7269048,51.601174 L25.7269048,51.601174 C25.7269048,51.4142477 25.8853571,51.342353 26.072619,51.4573845 L47.6797619,63.8664146 C47.8713587,63.980703 47.9990472,64.1772033 48.0254762,64.3984356 L48.0254762,64.3984356 C48.0254762,64.6141197 47.8670238,64.6716355 47.6797619,64.5709829 Z" id="Path" fill="#064BA2"></path>
                    <path d="M47.6797619,68.5395719 L26.072619,56.101784 C25.8777552,55.9909141 25.7488746,55.7925793 25.7269048,55.569763 L25.7269048,55.569763 C25.7269048,55.3828367 25.8853571,55.3253209 26.072619,55.4259735 L47.6797619,67.8781404 C47.8746258,67.9890102 48.0035064,68.187345 48.0254762,68.4101614 L48.0254762,68.4101614 C48.0254762,68.5827087 47.8670238,68.6546034 47.6797619,68.5395719 Z" id="Path" fill="#064BA2"></path>
                    <path d="M47.6797619,84.1551068 L26.072619,71.7173189 C25.8810223,71.6030304 25.7533338,71.4065301 25.7269048,71.1852979 L25.7269048,71.1852979 C25.7269048,70.9983716 25.8853571,70.9264768 26.072619,71.0415084 L47.6797619,83.4792963 C47.8713587,83.5935847 47.9990472,83.7900851 48.0254762,84.0113173 L48.0254762,84.0113173 C48.0254762,84.1982436 47.8670238,84.2557594 47.6797619,84.1551068 Z" id="Path" fill="#064BA2"></path>
                    <path d="M47.6797619,88.1380747 L26.072619,75.6859078 C25.8777552,75.575038 25.7488746,75.3767032 25.7269048,75.1538868 L25.7269048,75.1538868 C25.7269048,74.9669606 25.8853571,74.9094448 26.072619,75.0100974 L47.6797619,87.4622643 C47.8746258,87.5731341 48.0035064,87.7714689 48.0254762,87.9942852 L48.0254762,87.9942852 C48.0254762,88.1812115 47.8670238,88.3106221 47.6797619,88.1380747 Z" id="Path" fill="#064BA2"></path>
                    <path d="M47.6797619,92.1066637 L26.1014286,79.6832547 C25.9098318,79.5689663 25.7821433,79.372466 25.7557143,79.1512337 L25.7557143,79.1512337 C25.7557143,78.9643074 25.9141667,78.9067916 26.1014286,79.0074443 L47.7085714,91.4452322 C47.9001682,91.5595206 48.0278567,91.7560209 48.0542857,91.9772532 L48.0542857,91.9772532 C48.0254762,92.1498005 47.8670238,92.2216952 47.6797619,92.1066637 Z" id="Path" fill="#064BA2"></path>
                    <path d="M110.066786,120.102471 L98.6438095,113.516914 C98.2643068,113.291345 98.0094529,112.904449 97.952381,112.467251 L97.952381,112.467251 C97.952381,112.093398 98.254881,111.963988 98.6294048,112.179672 L110.052381,118.765229 C110.430072,118.997008 110.679798,119.389488 110.729405,119.829271 L110.729405,119.829271 C110.74381,120.188744 110.44131,120.318155 110.066786,120.102471 Z" id="Path" fill="#FFFFFF"></path>
                    <path d="M110.066786,123.10767 L98.6438095,116.522113 C98.2661183,116.290334 98.0163929,115.897854 97.9667857,115.458071 L97.9667857,115.458071 C97.9667857,115.098598 98.2692857,114.969187 98.6438095,115.184871 L110.066786,121.770428 C110.440788,121.999176 110.690003,122.38556 110.74381,122.820091 L110.74381,122.820091 C110.74381,123.193944 110.44131,123.323355 110.066786,123.10767 Z" id="Path" fill="#FFFFFF"></path>
                    <polygon id="Path" fill="#FFFFFF" points="91.0380952 100.820305 51.7707143 78.2022233 51.7707143 52.1763318 91.0380952 74.7944132"></polygon>
                    <polygon id="Path" fill="#FFFFFF" points="91.0380952 125.580849 51.7707143 102.962768 51.7707143 85.8374434 91.0380952 108.469904"></polygon>
                    <polygon id="Path" fill="#FFFFFF" points="36.7321429 66.8140984 39.8291667 71.9761399 38.2302381 70.9696137 39.4258333 75.1682658 38.8208333 75.0963711 37.6108333 70.897719 36.4872619 71.5735294"></polygon>
                    <path d="M71.4044048,76.8074656 C73.6371429,78.1015707 75.4521429,77.3394866 75.4521429,75.11075 C75.1924286,72.4664331 73.6901707,70.1023494 71.4044048,68.7408771 C69.1716667,67.446772 67.3566667,68.2088561 67.3566667,70.4375927 C67.616381,73.0819096 69.1186389,75.4459933 71.4044048,76.8074656 L71.4044048,76.8074656 Z" id="Path" fill="#4064BF"></path>
                    <path d="M80.5370238,90.0792324 C80.5370238,86.2688118 78.5347619,81.9982649 76.0283333,80.5172335 L75.9275,80.5172335 L66.8813095,75.2976763 L66.7804762,75.2976763 C64.2884524,73.8597817 62.2717857,75.8440762 62.2717857,79.61136 L62.2717857,80.2871704 L65.9594048,82.4152544 L65.9594048,79.8270442 L66.8813095,80.3590651 L66.8813095,82.9472754 L75.9275,88.1668326 L75.9275,85.5786224 L76.8494048,86.1106434 L76.8494048,88.6988536 L80.5370238,90.8269375 L80.5370238,90.0792324 Z" id="Path" fill="#4064BF"></path>
                </g>
            </g>
        </g>
    </g>
</svg>