<?xml version="1.0" encoding="UTF-8"?>
<svg width="180px" height="172px" viewBox="0 0 180 172" version="1.1" xmlns="http://www.w3.org/2000/svg" xmlns:xlink="http://www.w3.org/1999/xlink">
    <title>12Artboard 2</title>
    <defs>
        <linearGradient x1="100%" y1="49.9988017%" x2="0.00575600198%" y2="49.9988017%" id="linearGradient-1">
            <stop stop-color="#E4EAF2" offset="0%"></stop>
            <stop stop-color="#E2E8F0" offset="20%"></stop>
            <stop stop-color="#DCE1E9" offset="27%"></stop>
            <stop stop-color="#D0D6DE" offset="32%"></stop>
            <stop stop-color="#C0C5CD" offset="36%"></stop>
            <stop stop-color="#ABB0B7" offset="39%"></stop>
            <stop stop-color="#9CA0A7" offset="41%"></stop>
        </linearGradient>
        <linearGradient x1="0.220592007%" y1="50%" x2="99.9179193%" y2="50%" id="linearGradient-2">
            <stop stop-color="#030405" offset="57%"></stop>
            <stop stop-color="#101114" offset="59%"></stop>
            <stop stop-color="#1E2025" offset="64%"></stop>
            <stop stop-color="#292B30" offset="70%"></stop>
            <stop stop-color="#2E3137" offset="78%"></stop>
            <stop stop-color="#303339" offset="100%"></stop>
        </linearGradient>
        <linearGradient x1="0.00513004668%" y1="49.9990891%" x2="100%" y2="49.9990891%" id="linearGradient-3">
            <stop stop-color="#030405" offset="0%"></stop>
            <stop stop-color="#060708" offset="25%"></stop>
            <stop stop-color="#0F1113" offset="47%"></stop>
            <stop stop-color="#1E2125" offset="67%"></stop>
            <stop stop-color="#34373D" offset="86%"></stop>
            <stop stop-color="#474C54" offset="100%"></stop>
        </linearGradient>
        <linearGradient x1="100.008848%" y1="50.0010896%" x2="-1.00974154e-13%" y2="50.0010896%" id="linearGradient-4">
            <stop stop-color="#E4EAF2" offset="0%"></stop>
            <stop stop-color="#DEE4EC" offset="34%"></stop>
            <stop stop-color="#D7DDE6" offset="100%"></stop>
        </linearGradient>
        <linearGradient x1="0%" y1="49.9973607%" x2="100.003189%" y2="49.9973607%" id="linearGradient-5">
            <stop stop-color="#C9D0D9" offset="0%"></stop>
            <stop stop-color="#C3C9D2" offset="42%"></stop>
            <stop stop-color="#B4B8C0" offset="100%"></stop>
        </linearGradient>
        <linearGradient x1="19.2235185%" y1="39.3143864%" x2="79.6506681%" y2="60.293793%" id="linearGradient-6">
            <stop stop-color="#474A4C" offset="0%"></stop>
            <stop stop-color="#66666C" offset="100%"></stop>
        </linearGradient>
        <linearGradient x1="32.7355933%" y1="56.1936759%" x2="72.4938005%" y2="42.616894%" id="linearGradient-7">
            <stop stop-color="#030405" offset="0%"></stop>
            <stop stop-color="#0F1012" offset="20%"></stop>
            <stop stop-color="#27292E" offset="71%"></stop>
            <stop stop-color="#303339" offset="100%"></stop>
        </linearGradient>
        <linearGradient x1="64.8849044%" y1="71.3758033%" x2="48.4649505%" y2="42.0403194%" id="linearGradient-8">
            <stop stop-color="#4C4E51" offset="0%"></stop>
            <stop stop-color="#424446" offset="25%"></stop>
            <stop stop-color="#27292A" offset="69%"></stop>
            <stop stop-color="#101213" offset="100%"></stop>
        </linearGradient>
        <linearGradient x1="69.7342013%" y1="96.2431355%" x2="43.9168622%" y2="35.3035064%" id="linearGradient-9">
            <stop stop-color="#474A4C" offset="0%"></stop>
            <stop stop-color="#66666C" offset="100%"></stop>
        </linearGradient>
        <linearGradient x1="0%" y1="50.0069519%" x2="100.002484%" y2="50.0069519%" id="linearGradient-10">
            <stop stop-color="#030405" offset="0%"></stop>
            <stop stop-color="#111215" offset="17%"></stop>
            <stop stop-color="#222429" offset="44%"></stop>
            <stop stop-color="#2D2F35" offset="72%"></stop>
            <stop stop-color="#303339" offset="100%"></stop>
        </linearGradient>
        <linearGradient x1="59.9240654%" y1="67.6343042%" x2="59.9240654%" y2="43.7304669%" id="linearGradient-11">
            <stop stop-color="#030405" offset="0%"></stop>
            <stop stop-color="#111215" offset="17%"></stop>
            <stop stop-color="#222429" offset="44%"></stop>
            <stop stop-color="#2D2F35" offset="72%"></stop>
            <stop stop-color="#303339" offset="100%"></stop>
        </linearGradient>
        <linearGradient x1="0%" y1="50%" x2="100%" y2="50%" id="linearGradient-12">
            <stop stop-color="#030405" offset="57%"></stop>
            <stop stop-color="#101114" offset="60%"></stop>
            <stop stop-color="#1E2025" offset="65%"></stop>
            <stop stop-color="#292B30" offset="70%"></stop>
            <stop stop-color="#2E3137" offset="78%"></stop>
            <stop stop-color="#303339" offset="100%"></stop>
        </linearGradient>
        <linearGradient x1="0%" y1="49.9958544%" x2="100%" y2="49.9958544%" id="linearGradient-13">
            <stop stop-color="#474A4C" offset="0%"></stop>
            <stop stop-color="#66666C" offset="100%"></stop>
        </linearGradient>
        <linearGradient x1="0.807126129%" y1="49.7595836%" x2="100.807126%" y2="50.2476289%" id="linearGradient-14">
            <stop stop-color="#C0CBDA" offset="46%"></stop>
            <stop stop-color="#C4CEDC" offset="46%"></stop>
            <stop stop-color="#DAE0E9" offset="48%"></stop>
            <stop stop-color="#EBEEF3" offset="51%"></stop>
            <stop stop-color="#F6F8FA" offset="53%"></stop>
            <stop stop-color="#FDFDFE" offset="57%"></stop>
            <stop stop-color="#FFFFFF" offset="68%"></stop>
        </linearGradient>
        <linearGradient x1="47.4029776%" y1="65.6247303%" x2="52.7977584%" y2="33.144427%" id="linearGradient-15">
            <stop stop-color="#E4EAF2" offset="0%"></stop>
            <stop stop-color="#FFFFFF" offset="100%"></stop>
        </linearGradient>
        <linearGradient x1="38.2325309%" y1="43.5032582%" x2="53.0369911%" y2="51.4306217%" id="linearGradient-16">
            <stop stop-color="#4C4E51" offset="0%"></stop>
            <stop stop-color="#424446" offset="25%"></stop>
            <stop stop-color="#27292A" offset="69%"></stop>
            <stop stop-color="#101213" offset="100%"></stop>
        </linearGradient>
        <linearGradient x1="37.3525641%" y1="30.7674363%" x2="114.856185%" y2="56.4344919%" id="linearGradient-17">
            <stop stop-color="#5B5E61" offset="0%"></stop>
            <stop stop-color="#7E7E82" offset="100%"></stop>
        </linearGradient>
        <linearGradient x1="10930.5269%" y1="-17064.7191%" x2="10997.602%" y2="-17064.7191%" id="linearGradient-18">
            <stop stop-color="#5B5E61" offset="0%"></stop>
            <stop stop-color="#7E7E82" offset="100%"></stop>
        </linearGradient>
        <linearGradient x1="5884.79831%" y1="-9244.66273%" x2="5973.86354%" y2="-9244.66273%" id="linearGradient-19">
            <stop stop-color="#5B5E61" offset="0%"></stop>
            <stop stop-color="#7E7E82" offset="100%"></stop>
        </linearGradient>
        <linearGradient x1="5537.72655%" y1="-9534.24514%" x2="5626.81117%" y2="-9534.24514%" id="linearGradient-20">
            <stop stop-color="#5B5E61" offset="0%"></stop>
            <stop stop-color="#7E7E82" offset="100%"></stop>
        </linearGradient>
        <linearGradient x1="5485.56071%" y1="-9545.10678%" x2="5574.64195%" y2="-9545.10678%" id="linearGradient-21">
            <stop stop-color="#5B5E61" offset="0%"></stop>
            <stop stop-color="#7E7E82" offset="100%"></stop>
        </linearGradient>
        <linearGradient x1="5433.91453%" y1="-9605.40124%" x2="5522.99915%" y2="-9605.40124%" id="linearGradient-22">
            <stop stop-color="#5B5E61" offset="0%"></stop>
            <stop stop-color="#7E7E82" offset="100%"></stop>
        </linearGradient>
        <linearGradient x1="4130.97504%" y1="-7406.5495%" x2="4226.16974%" y2="-7406.5495%" id="linearGradient-23">
            <stop stop-color="#5B5E61" offset="0%"></stop>
            <stop stop-color="#7E7E82" offset="100%"></stop>
        </linearGradient>
        <linearGradient x1="10824.2196%" y1="-17147.1707%" x2="10891.3328%" y2="-17147.1707%" id="linearGradient-24">
            <stop stop-color="#5B5E61" offset="0%"></stop>
            <stop stop-color="#7E7E82" offset="100%"></stop>
        </linearGradient>
        <linearGradient x1="2170.00169%" y1="-3491.12305%" x2="2229.64547%" y2="-3491.12305%" id="linearGradient-25">
            <stop stop-color="#5B5E61" offset="0%"></stop>
            <stop stop-color="#7E7E82" offset="100%"></stop>
        </linearGradient>
        <linearGradient x1="83.5808045%" y1="45.4473866%" x2="154.717008%" y2="21.6226254%" id="linearGradient-26">
            <stop stop-color="#FF6E00" offset="0%"></stop>
            <stop stop-color="#FF668C" offset="100%"></stop>
        </linearGradient>
        <linearGradient x1="84.3564356%" y1="45.4653593%" x2="155.643564%" y2="21.5812839%" id="linearGradient-27">
            <stop stop-color="#00E8DC" offset="0%"></stop>
            <stop stop-color="#009C00" offset="100%"></stop>
        </linearGradient>
        <linearGradient x1="0.0103646889%" y1="49.9783268%" x2="100.017047%" y2="49.9783268%" id="linearGradient-28">
            <stop stop-color="#404143" offset="0%"></stop>
            <stop stop-color="#353738" offset="31%"></stop>
            <stop stop-color="#191B1C" offset="85%"></stop>
            <stop stop-color="#101213" offset="100%"></stop>
        </linearGradient>
    </defs>
    <g id="Page-1" stroke="none" stroke-width="1" fill="none" fill-rule="evenodd">
        <g id="Mining-Provider-Windows-Onboarding-Steps-04" transform="translate(-573.000000, -491.000000)" fill-rule="nonzero">
            <g id="Group-4" transform="translate(536.000000, 458.000000)">
                <g id="12Artboard-2" transform="translate(37.000000, 33.000000)">
                    <path d="M24.064,75.4230731 L73.496,80.8868259 L80.504,76.8419702 C83.856,74.9114708 88.904,74.6996355 91.824,76.3743337 L105.824,84.4600483 L180,92.6536791 L180,122.490486 L179.968,122.490486 C179.944,123.761498 179.04,125.092463 177.228,126.135652 L123.544,157.099583 C120.196,159.034079 115.144,159.241917 112.228,157.571216 L26,107.829882 C24.528,106.978544 23.904,105.807454 24.08,104.604389 L24.064,75.4230731 Z" id="Path" fill="url(#linearGradient-1)"></path>
                    <path d="M24.064,69.3198174 L28.34,70.7267238 L80.504,40.634116 C83.856,38.6996198 88.904,38.4917813 91.824,40.1624826 L104.56,47.5127689 L104.56,49.8509514 L163.276,83.72462 L165.276,82.5255521 L175.6,88.4969103 L180,86.7542649 L180,96.1789388 L179.96,96.1789388 C180.016,97.4899197 179.112,98.8688478 177.228,99.9560027 L123.544,130.92393 C120.196,132.858426 115.144,133.066265 112.228,131.395563 L26,81.6542294 C24.736,80.9267949 24.128,79.9635436 24.08,78.9483328 L24.056,78.9483328 L24.064,69.3198174 Z" id="Path" fill="url(#linearGradient-2)"></path>
                    <path d="M177.228,98.7329534 L123.544,129.704878 C120.196,131.635377 115.144,131.847212 112.228,130.172514 L26,80.435177 C24.736,79.7037456 24.128,78.7444913 24.08,77.7252835 L24.056,77.7252835 L24.056,78.9483328 L24.08,78.9483328 C24.128,79.9635436 24.736,80.9267949 26,81.6542294 L112.228,131.395563 C115.128,133.066265 120.196,132.858426 123.544,130.92393 L177.228,99.9560027 C179.112,98.8688478 180.028,97.4899197 179.96,96.1789388 L180,96.1789388 L180,94.9558895 L179.96,94.9558895 C180,96.2708673 179.112,97.6497954 177.228,98.7329534 Z" id="Path" fill="#000000"></path>
                    <path d="M177.228,121.515244 L123.544,152.487168 C120.196,154.417667 115.144,154.629503 112.228,152.954805 L26,103.217467 C24.736,102.486036 24.128,101.526782 24.08,100.507574 L24.056,100.507574 L24.056,101.730623 L24.08,101.730623 C24.128,102.745834 24.736,103.709085 26,104.43652 L112.228,154.177854 C115.128,155.848555 120.196,155.640717 123.544,153.70622 L177.228,122.738293 C179.112,121.651138 180.028,120.27221 179.96,118.957232 L180,118.957232 L180,117.758164 L179.96,117.758164 C180,119.053158 179.112,120.432086 177.228,121.515244 Z" id="Path" fill="url(#linearGradient-3)"></path>
                    <path d="M120.892,0.912992831 L167.692,27.9120054 C171.544,30.1342779 173.996,35.7059469 173.176,40.3623273 L166.524,78.0690163 L105.78,43.024258 L112.436,5.31756898 C113.256,0.665185462 117.044,-1.30927971 120.892,0.912992831 Z" id="Path" fill="url(#linearGradient-4)"></path>
                    <path d="M119.672,1.78831241 L166.472,28.7913219 C170.32,31.0135944 172.776,36.5852633 171.956,41.2416437 L165.3,78.9483328 L104.56,43.9035745 L111.2,6.19688545 C112.036,1.54050504 115.82,-0.429963235 119.672,1.78831241 Z" id="Path" fill="url(#linearGradient-5)"></path>
                    <path d="M26,72.1855898 L112.228,121.922927 C115.128,123.597625 120.196,123.38579 123.544,121.45529 L177.228,90.4833662 C180.58,88.5528668 180.944,85.6271411 178.028,83.9564398 L165.264,76.5901659 L163.264,77.7892338 L104.56,43.9035745 L104.56,41.5613952 L91.824,34.2151058 C88.92,32.5404076 83.856,32.7522429 80.504,34.6827422 L26.82,65.6546665 C23.472,67.5851659 23.108,70.5108916 26,72.1855898 Z" id="Path" fill="url(#linearGradient-6)"></path>
                    <path d="M70.248,64.9831885 L124.712,96.3907741 C126.444,97.3899974 129.476,97.2660937 131.476,96.1109916 L163.276,77.7652525 L104.56,43.9035745 L104.56,41.5613952 L70.732,61.078224 C68.732,62.2333261 68.512,63.9799683 70.248,64.9831885 Z" id="Path" fill="url(#linearGradient-7)"></path>
                    <path d="M124.712,96.3907741 L70.248,64.9831885 C69.9902533,64.8179955 69.7640471,64.6082067 69.58,64.3636701 C69.90447,63.9818737 70.2946003,63.6610783 70.732,63.4164064 L104.56,43.9035745 L163.276,77.7772431 L131.476,96.1229823 C129.476,97.2780844 126.444,97.401988 124.712,96.3907741 Z" id="Path" fill="url(#linearGradient-8)"></path>
                    <path d="M156.612,79.4599351 L102.516,48.2481973 C101.788,47.848508 101.88,47.101089 102.72,46.6174649 L102.72,46.6174649 C103.591393,46.1304301 104.642498,46.0859264 105.552,46.4975581 L159.648,77.709296 C160.372,78.1089853 160.284,78.8564043 159.444,79.3400283 L159.444,79.3400283 C158.572071,79.8251697 157.521876,79.869635 156.612,79.4599351 Z" id="Path" fill="#000000"></path>
                    <path d="M111.34,47.8125359 L112.292,42.4047396 C112.292,42.3567769 112.332,42.3248018 112.344,42.276839 L111.584,41.7252678 L113.408,40.6221253 L113.408,40.6421098 C114.072152,40.2784888 114.88291,40.310771 115.516,40.7260445 L157.392,64.8872631 C158.86,65.7306075 159.792,67.8569546 159.48,69.6275782 L158.524,75.0353745 L156.828,76.0585791 L156.128,73.6604433 L111.34,47.8125359 Z" id="Path" fill="url(#linearGradient-9)"></path>
                    <path d="M113.816,41.7492492 L155.692,65.9064708 C157.16,66.7538121 158.092,68.8761623 157.784,70.6507828 L156.828,76.0585791 L109.64,48.8277468 L110.596,43.4199505 C110.908,41.6533237 112.352,40.9019078 113.816,41.7492492 Z" id="Path" fill="url(#linearGradient-10)"></path>
                    <path d="M42.508,98.8168882 L96.188,129.784816 C98.2057347,130.946945 99.4487635,133.097314 99.4480004,135.424432 L99.4480004,150.320852 L38.704,115.276094 L38.704,101.011182 C38.704,100.105904 39.1874787,99.2694304 39.9721041,98.8168281 C40.7567295,98.3642258 41.7233961,98.3642487 42.508,98.8168882 Z" id="Path" fill="#000000"></path>
                    <path d="M42.504,98.8488633 L96.188,129.820788 C98.2057347,130.982917 99.4487635,133.133286 99.4480004,135.460404 L99.4480004,142.075262 L42.504,109.224798 L42.504,98.8488633 Z" id="Path" fill="url(#linearGradient-11)"></path>
                    <polygon id="Path" fill="url(#linearGradient-12)" points="38.704 115.276094 99.448 148.426325 99.448 150.320852 76.94 163.478624 16.196 128.437863 16.196 126.543335"></polygon>
                    <polygon id="Path" fill="url(#linearGradient-13)" points="38.704 113.381566 99.448 148.426325 76.94 161.588094 16.196 126.543335"></polygon>
                    <polygon id="Path" fill="url(#linearGradient-14)" points="5.756 142.391016 50.004 116.970776 90.636 140.412554 95.648 139.713098 95.648 143.302308 45.644 172 0 145.668469 0 142.075262"></polygon>
                    <polygon id="Path" fill="url(#linearGradient-15)" points="45.644 168.406793 95.648 139.713098 50.004 113.381566 0 142.075262"></polygon>
                    <path d="M35.276,77.5294358 L26,72.1855898 C23.1,70.5108916 23.464,67.5851659 26.8,65.6546665 L80.484,34.6827422 C83.836,32.7522429 88.884,32.5404076 91.804,34.2151058 L101.072,39.5629487 L35.276,77.5294358 Z" id="Path" fill="url(#linearGradient-16)"></path>
                    <polygon id="Path" fill="#000000" points="36.424 78.19292 35.276 77.5294358 101.092 39.5629487 102.24 40.2264329"></polygon>
                    <path d="M38.4,67.2134548 L33.684,64.4955675 C33.396,64.327698 33.432,64.0359248 33.764,63.8400771 L34.92,63.1725959 C35.2690941,62.9797139 35.6889758,62.9634061 36.052,63.1286301 L40.768,65.8465174 C41.06,66.0143869 41.024,66.3061601 40.688,66.5020078 L39.532,67.169489 C39.1829059,67.362371 38.7630242,67.3786789 38.4,67.2134548 L38.4,67.2134548 Z" id="Path" fill="url(#linearGradient-17)"></path>
                    <path d="M42.916,69.8274229 L41.6,69.0680132 C41.308,68.9001437 41.344,68.6083705 41.68,68.4125227 L42.836,67.7450416 C43.1850941,67.5521595 43.6049758,67.5358517 43.968,67.7010758 L45.284,68.4604854 C45.576,68.6283549 45.54,68.9201281 45.204,69.111979 L44.048,69.7794601 C43.6995472,69.9736278 43.2796518,69.9914188 42.916,69.8274229 Z" id="Path" fill="url(#linearGradient-18)"></path>
                    <path d="M42.976,64.5675116 L38.26,61.8496243 C37.968,61.6817548 38.004,61.3899816 38.34,61.1941339 L39.496,60.5266527 C39.8450941,60.3337707 40.2649758,60.3174628 40.628,60.4826869 L45.344,63.2005742 C45.636,63.3684437 45.596,63.6602169 45.264,63.8560646 L44.108,64.5235458 C43.7589059,64.7164278 43.3390242,64.7327357 42.976,64.5675116 L42.976,64.5675116 Z" id="Path" fill="url(#linearGradient-19)"></path>
                    <path d="M71.632,50.6463331 L66.916,47.9284458 C66.628,47.7605763 66.664,47.4688031 66.996,47.2729554 L68.152,46.6094711 C68.4999094,46.4133917 68.9207277,46.3955617 69.284,46.5615084 L74,49.2833926 C74.292,49.4472652 74.256,49.7430353 73.92,49.9348861 L72.764,50.6023673 C72.4149059,50.7952493 71.9950242,50.8115572 71.632,50.6463331 L71.632,50.6463331 Z" id="Path" fill="url(#linearGradient-20)"></path>
                    <path d="M75.512,48.4280575 L70.8,45.6861888 C70.512,45.5223162 70.548,45.2265461 70.884,45.0346953 L72.04,44.3672141 C72.3890941,44.174332 72.8089758,44.1580242 73.172,44.3232483 L77.888,47.0411356 C78.176,47.2090051 78.14,47.5007783 77.804,47.696626 L76.648,48.3601103 C76.3023064,48.5639973 75.8795659,48.5892825 75.512,48.4280575 L75.512,48.4280575 Z" id="Path" fill="url(#linearGradient-21)"></path>
                    <path d="M79.396,46.1698129 L74.68,43.4479287 C74.388,43.2800592 74.424,42.988286 74.76,42.7964351 L75.916,42.128954 C76.2644528,41.9347863 76.6843482,41.9169954 77.048,42.0809913 L81.764,44.8028755 C82.052,44.970745 82.016,45.2625182 81.684,45.454369 L80.528,46.1218502 C80.1800906,46.3179296 79.7592723,46.3357596 79.396,46.1698129 L79.396,46.1698129 Z" id="Path" fill="url(#linearGradient-22)"></path>
                    <path d="M85.54,45.230543 L78.56,41.2096686 C78.272,41.0417991 78.308,40.7500259 78.64,40.558175 L79.796,39.8906939 C80.1439094,39.6946145 80.5647277,39.6767845 80.928,39.8427312 L87.908,43.8715994 C88.2,44.035472 88.164,44.3312421 87.828,44.5230929 L86.672,45.1905741 C86.3222656,45.3821729 85.9023963,45.3969978 85.54,45.230543 L85.54,45.230543 Z" id="Path" fill="url(#linearGradient-23)"></path>
                    <path d="M47.504,67.1814797 L46.184,66.42207 C45.896,66.2542005 45.932,65.9584304 46.268,65.7665795 L47.42,65.0990984 C47.7690941,64.9062163 48.1889758,64.8899085 48.552,65.0551326 L49.872,65.8145422 C50.16,65.9824117 50.124,66.2741849 49.792,66.4660358 L48.636,67.1335169 C48.2875472,67.3276846 47.8676518,67.3454756 47.504,67.1814797 Z" id="Path" fill="url(#linearGradient-24)"></path>
                    <path d="M55.032,62.8368569 L45.788,57.5050016 C45.496,57.3371321 45.532,57.0453589 45.868,56.853508 L54.952,51.6255719 C55.2999094,51.4294925 55.7207277,51.4116625 56.084,51.5776092 L65.328,56.9094645 C65.616,57.077334 65.58,57.3691072 65.244,57.5609581 L56.164,62.8008849 C55.8141485,62.9931185 55.3933685,63.0064898 55.032,62.8368569 L55.032,62.8368569 Z" id="Path" fill="url(#linearGradient-25)"></path>
                    <path d="M29.684,70.9025871 C29.0553966,71.2209337 28.3126034,71.2209337 27.684,70.9025871 C27.128,70.5828357 27.128,70.0632396 27.684,69.7394912 C28.3135121,69.4249677 29.0544879,69.4249677 29.684,69.7394912 C30.24,70.0632396 30.24,70.5828357 29.684,70.9025871 Z" id="Path" fill="url(#linearGradient-26)"></path>
                    <path d="M35.6,74.30794 C34.9704879,74.6224635 34.2295121,74.6224635 33.6,74.30794 C33.04,73.9881885 33.04,73.4645955 33.6,73.1448441 C34.2295121,72.8303206 34.9704879,72.8303206 35.6,73.1448441 C36.144,73.4645955 36.144,74.008173 35.6,74.30794 Z" id="Path" fill="url(#linearGradient-27)"></path>
                    <path d="M83.852,94.6601194 L78.2,91.3986547 C78.02,91.2947355 78.044,91.1188722 78.248,90.9989654 L83.8,87.8014509 C84.0155464,87.686394 84.2719005,87.6760889 84.496,87.7734727 L90.148,91.0349374 C90.324,91.1388566 90.3,91.3147199 90.096,91.4346267 L84.544,94.6321412 C84.3295361,94.7459214 84.0749626,94.7562141 83.852,94.6601194 L83.852,94.6601194 Z" id="Path" fill="url(#linearGradient-28)"></path>
                </g>
            </g>
        </g>
    </g>
</svg>