<?xml version="1.0" encoding="UTF-8"?>
<svg width="190px" height="114px" viewBox="0 0 190 114" version="1.1" xmlns="http://www.w3.org/2000/svg" xmlns:xlink="http://www.w3.org/1999/xlink">
    <title>16Artboard 1</title>
    <defs>
        <linearGradient x1="100.000475%" y1="49.9977963%" x2="0.000445983484%" y2="49.9977963%" id="linearGradient-1">
            <stop stop-color="#2F054A" offset="0%"></stop>
            <stop stop-color="#5824B0" offset="100%"></stop>
        </linearGradient>
        <linearGradient x1="86.85176%" y1="49.9997921%" x2="-13.14824%" y2="49.9997921%" id="linearGradient-2">
            <stop stop-color="#9F79B8" offset="6%"></stop>
            <stop stop-color="#A17BBA" offset="26%"></stop>
            <stop stop-color="#A783BF" offset="36%"></stop>
            <stop stop-color="#B290C9" offset="43%"></stop>
            <stop stop-color="#C1A1D5" offset="49%"></stop>
            <stop stop-color="#C4A5D7" offset="51%"></stop>
            <stop stop-color="#CDB3DD" offset="52%"></stop>
            <stop stop-color="#DBC8E7" offset="53%"></stop>
            <stop stop-color="#EFE7F4" offset="55%"></stop>
            <stop stop-color="#FFFFFF" offset="56%"></stop>
            <stop stop-color="#ECE0F3" offset="57%"></stop>
            <stop stop-color="#DDC8EA" offset="58%"></stop>
            <stop stop-color="#D4B9E5" offset="59%"></stop>
            <stop stop-color="#D1B4E3" offset="60%"></stop>
            <stop stop-color="#B395D6" offset="66%"></stop>
            <stop stop-color="#9C7DCB" offset="72%"></stop>
            <stop stop-color="#8E6EC5" offset="77%"></stop>
            <stop stop-color="#8969C3" offset="81%"></stop>
            <stop stop-color="#B086CC" offset="100%"></stop>
        </linearGradient>
        <linearGradient x1="100.000475%" y1="49.9949023%" x2="0.000445983484%" y2="49.9949023%" id="linearGradient-3">
            <stop stop-color="#58098A" offset="0%"></stop>
            <stop stop-color="#773BDB" offset="100%"></stop>
        </linearGradient>
        <linearGradient x1="6948.06605%" y1="49.9977508%" x2="7048.0513%" y2="49.9977508%" id="linearGradient-4">
            <stop stop-color="#2F054A" offset="0%"></stop>
            <stop stop-color="#5824B0" offset="100%"></stop>
        </linearGradient>
        <linearGradient x1="43.5413797%" y1="74.9910132%" x2="57.6454382%" y2="20.3972752%" id="linearGradient-5">
            <stop stop-color="#7C1DC9" offset="3%"></stop>
            <stop stop-color="#6E41D2" offset="21%"></stop>
            <stop stop-color="#4C9BE8" offset="62%"></stop>
            <stop stop-color="#2AF6FF" offset="100%"></stop>
        </linearGradient>
        <linearGradient x1="53.8555176%" y1="64.0747472%" x2="45.413475%" y2="33.3090291%" id="linearGradient-6">
            <stop stop-color="#7C1DC9" offset="3%"></stop>
            <stop stop-color="#6E41D2" offset="21%"></stop>
            <stop stop-color="#4C9BE8" offset="62%"></stop>
            <stop stop-color="#2AF6FF" offset="100%"></stop>
        </linearGradient>
        <linearGradient x1="-821.21393%" y1="99.7146776%" x2="-926.393035%" y2="151.745466%" id="linearGradient-7">
            <stop stop-color="#3D065F" offset="0%"></stop>
            <stop stop-color="#5F27BD" offset="100%"></stop>
        </linearGradient>
        <linearGradient x1="-821.21393%" y1="99.7146776%" x2="-926.393035%" y2="151.745466%" id="linearGradient-8">
            <stop stop-color="#2F054A" offset="0%"></stop>
            <stop stop-color="#5824B0" offset="100%"></stop>
        </linearGradient>
        <linearGradient x1="-969.661247%" y1="509.229148%" x2="-973.084011%" y2="608.194153%" id="linearGradient-9">
            <stop stop-color="#9F79B8" offset="6%"></stop>
            <stop stop-color="#A17BBA" offset="26%"></stop>
            <stop stop-color="#A783BF" offset="36%"></stop>
            <stop stop-color="#B290C9" offset="43%"></stop>
            <stop stop-color="#C1A1D5" offset="49%"></stop>
            <stop stop-color="#C4A5D7" offset="51%"></stop>
            <stop stop-color="#CDB3DD" offset="52%"></stop>
            <stop stop-color="#DBC8E7" offset="53%"></stop>
            <stop stop-color="#EFE7F4" offset="55%"></stop>
            <stop stop-color="#FFFFFF" offset="56%"></stop>
            <stop stop-color="#ECE0F3" offset="57%"></stop>
            <stop stop-color="#DDC8EA" offset="58%"></stop>
            <stop stop-color="#D4B9E5" offset="59%"></stop>
            <stop stop-color="#D1B4E3" offset="60%"></stop>
            <stop stop-color="#B395D6" offset="66%"></stop>
            <stop stop-color="#9C7DCB" offset="72%"></stop>
            <stop stop-color="#8E6EC5" offset="77%"></stop>
            <stop stop-color="#8969C3" offset="81%"></stop>
            <stop stop-color="#B086CC" offset="100%"></stop>
        </linearGradient>
        <linearGradient x1="229172.569%" y1="-32604.9299%" x2="229293.766%" y2="-32604.9299%" id="linearGradient-10">
            <stop stop-color="#3D065F" offset="0%"></stop>
            <stop stop-color="#5F27BD" offset="100%"></stop>
        </linearGradient>
        <linearGradient x1="-823.985037%" y1="99.9171529%" x2="-929.426434%" y2="152.026073%" id="linearGradient-11">
            <stop stop-color="#2F054A" offset="0%"></stop>
            <stop stop-color="#5824B0" offset="100%"></stop>
        </linearGradient>
        <linearGradient x1="-972.482385%" y1="564.391257%" x2="-975.905149%" y2="662.018534%" id="linearGradient-12">
            <stop stop-color="#9F79B8" offset="6%"></stop>
            <stop stop-color="#A17BBA" offset="26%"></stop>
            <stop stop-color="#A783BF" offset="36%"></stop>
            <stop stop-color="#B290C9" offset="43%"></stop>
            <stop stop-color="#C1A1D5" offset="49%"></stop>
            <stop stop-color="#C4A5D7" offset="51%"></stop>
            <stop stop-color="#CDB3DD" offset="52%"></stop>
            <stop stop-color="#DBC8E7" offset="53%"></stop>
            <stop stop-color="#EFE7F4" offset="55%"></stop>
            <stop stop-color="#FFFFFF" offset="56%"></stop>
            <stop stop-color="#ECE0F3" offset="57%"></stop>
            <stop stop-color="#DDC8EA" offset="58%"></stop>
            <stop stop-color="#D4B9E5" offset="59%"></stop>
            <stop stop-color="#D1B4E3" offset="60%"></stop>
            <stop stop-color="#B395D6" offset="66%"></stop>
            <stop stop-color="#9C7DCB" offset="72%"></stop>
            <stop stop-color="#8E6EC5" offset="77%"></stop>
            <stop stop-color="#8969C3" offset="81%"></stop>
            <stop stop-color="#B086CC" offset="100%"></stop>
        </linearGradient>
        <linearGradient x1="152887.004%" y1="49.6339232%" x2="153070.925%" y2="60.4349923%" id="linearGradient-13">
            <stop stop-color="#58098A" offset="0%"></stop>
            <stop stop-color="#773BDB" offset="100%"></stop>
        </linearGradient>
        <linearGradient x1="539.782609%" y1="662.064861%" x2="13.2608696%" y2="12.5214468%" id="linearGradient-14">
            <stop stop-color="#D4D1D8" offset="17%"></stop>
            <stop stop-color="#FFFFFF" offset="100%"></stop>
        </linearGradient>
        <linearGradient x1="629.442971%" y1="594.920237%" x2="-12.7320955%" y2="-6.30606854%" id="linearGradient-15">
            <stop stop-color="#D4D1D8" offset="17%"></stop>
            <stop stop-color="#FFFFFF" offset="100%"></stop>
        </linearGradient>
        <linearGradient x1="622.206026%" y1="894.384241%" x2="-34.7667772%" y2="-79.0177163%" id="linearGradient-16">
            <stop stop-color="#D4D1D8" offset="17%"></stop>
            <stop stop-color="#FFFFFF" offset="100%"></stop>
        </linearGradient>
        <linearGradient x1="512.584108%" y1="656.649181%" x2="-47.4186562%" y2="-78.7355523%" id="linearGradient-17">
            <stop stop-color="#D4D1D8" offset="17%"></stop>
            <stop stop-color="#FFFFFF" offset="100%"></stop>
        </linearGradient>
        <linearGradient x1="572.252747%" y1="640.848877%" x2="-92.8571429%" y2="-112.79128%" id="linearGradient-18">
            <stop stop-color="#D4D1D8" offset="17%"></stop>
            <stop stop-color="#FFFFFF" offset="100%"></stop>
        </linearGradient>
        <linearGradient x1="533.525325%" y1="754.203962%" x2="-114.287022%" y2="-193.024137%" id="linearGradient-19">
            <stop stop-color="#D4D1D8" offset="17%"></stop>
            <stop stop-color="#FFFFFF" offset="100%"></stop>
        </linearGradient>
        <linearGradient x1="512.61027%" y1="611.283841%" x2="-146.819907%" y2="-190.05815%" id="linearGradient-20">
            <stop stop-color="#D4D1D8" offset="17%"></stop>
            <stop stop-color="#FFFFFF" offset="100%"></stop>
        </linearGradient>
        <linearGradient x1="556.602692%" y1="845.850812%" x2="-201.063598%" y2="-349.03742%" id="linearGradient-21">
            <stop stop-color="#D4D1D8" offset="17%"></stop>
            <stop stop-color="#FFFFFF" offset="100%"></stop>
        </linearGradient>
        <linearGradient x1="488.515406%" y1="592.520341%" x2="-189.635854%" y2="-247.43151%" id="linearGradient-22">
            <stop stop-color="#D4D1D8" offset="17%"></stop>
            <stop stop-color="#FFFFFF" offset="100%"></stop>
        </linearGradient>
        <linearGradient x1="460.770409%" y1="555.127862%" x2="-206.492613%" y2="-266.68387%" id="linearGradient-23">
            <stop stop-color="#D4D1D8" offset="17%"></stop>
            <stop stop-color="#FFFFFF" offset="100%"></stop>
        </linearGradient>
        <linearGradient x1="374.16745%" y1="483.023262%" x2="-191.521416%" y2="-275.175959%" id="linearGradient-24">
            <stop stop-color="#D4D1D8" offset="17%"></stop>
            <stop stop-color="#FFFFFF" offset="100%"></stop>
        </linearGradient>
        <linearGradient x1="0.0524658972%" y1="50%" x2="100%" y2="50%" id="linearGradient-25">
            <stop stop-color="#D4D1D8" offset="17%"></stop>
            <stop stop-color="#FFFFFF" offset="100%"></stop>
        </linearGradient>
        <linearGradient x1="6.67923762%" y1="49.9858587%" x2="99.8560309%" y2="49.9858587%" id="linearGradient-26">
            <stop stop-color="#FFBB96" offset="0%"></stop>
            <stop stop-color="#FFFBC9" offset="23%"></stop>
            <stop stop-color="#F9B673" offset="54%"></stop>
            <stop stop-color="#F9B876" offset="64%"></stop>
            <stop stop-color="#FABE81" offset="72%"></stop>
            <stop stop-color="#FCC993" offset="81%"></stop>
            <stop stop-color="#FED2A3" offset="86%"></stop>
            <stop stop-color="#FFC28C" offset="97%"></stop>
        </linearGradient>
        <linearGradient x1="45.8542108%" y1="51.9793437%" x2="41.5916699%" y2="55.2574901%" id="linearGradient-27">
            <stop stop-color="#FFBB96" offset="0%"></stop>
            <stop stop-color="#FFFBC9" offset="23%"></stop>
            <stop stop-color="#F9B673" offset="54%"></stop>
            <stop stop-color="#F9B876" offset="64%"></stop>
            <stop stop-color="#FABE81" offset="72%"></stop>
            <stop stop-color="#FCC993" offset="81%"></stop>
            <stop stop-color="#FED2A3" offset="86%"></stop>
            <stop stop-color="#FFC28C" offset="97%"></stop>
        </linearGradient>
        <linearGradient x1="-46.4490497%" y1="3.88912639%" x2="48.5153557%" y2="59.6193163%" id="linearGradient-28">
            <stop stop-color="#FFBA78" offset="4%"></stop>
            <stop stop-color="#FFC987" offset="40%"></stop>
            <stop stop-color="#FEECA8" offset="100%"></stop>
        </linearGradient>
        <linearGradient x1="42.5%" y1="50%" x2="58.5%" y2="50%" id="linearGradient-29">
            <stop stop-color="#FFBB96" offset="0%"></stop>
            <stop stop-color="#FFFBC9" offset="23%"></stop>
            <stop stop-color="#F9B673" offset="54%"></stop>
            <stop stop-color="#F9B876" offset="64%"></stop>
            <stop stop-color="#FABE81" offset="72%"></stop>
            <stop stop-color="#FCC993" offset="81%"></stop>
            <stop stop-color="#FED2A3" offset="86%"></stop>
            <stop stop-color="#FFC28C" offset="97%"></stop>
        </linearGradient>
        <linearGradient x1="6.65266861%" y1="49.9617601%" x2="99.8271879%" y2="49.9617601%" id="linearGradient-30">
            <stop stop-color="#FFBB96" offset="0%"></stop>
            <stop stop-color="#FFFBC9" offset="23%"></stop>
            <stop stop-color="#F9B673" offset="54%"></stop>
            <stop stop-color="#F9B876" offset="64%"></stop>
            <stop stop-color="#FABE81" offset="72%"></stop>
            <stop stop-color="#FCC993" offset="81%"></stop>
            <stop stop-color="#FED2A3" offset="86%"></stop>
            <stop stop-color="#FFC28C" offset="97%"></stop>
        </linearGradient>
        <linearGradient x1="51.4872684%" y1="57%" x2="52.4787806%" y2="63%" id="linearGradient-31">
            <stop stop-color="#FEE2A6" offset="0%"></stop>
            <stop stop-color="#F9BA96" offset="47%"></stop>
            <stop stop-color="#F7AA90" offset="63%"></stop>
            <stop stop-color="#F7A990" offset="63%"></stop>
            <stop stop-color="#F59E8B" offset="69%"></stop>
            <stop stop-color="#F49788" offset="77%"></stop>
            <stop stop-color="#F49587" offset="100%"></stop>
        </linearGradient>
        <radialGradient cx="50.0170942%" cy="49.9071199%" fx="50.0170942%" fy="49.9071199%" r="115.209867%" gradientTransform="translate(0.500171,0.499071),scale(0.322133,1.000000),rotate(180.000000),translate(-0.500171,-0.499071)" id="radialGradient-32">
            <stop stop-color="#FFFFFF" offset="0%"></stop>
            <stop stop-color="#000000" offset="100%"></stop>
        </radialGradient>
        <linearGradient x1="79.9383418%" y1="36.2213766%" x2="-20.8688182%" y2="93.2799086%" id="linearGradient-33">
            <stop stop-color="#FFBA78" offset="4%"></stop>
            <stop stop-color="#FFC987" offset="51%"></stop>
            <stop stop-color="#FEDE9B" offset="100%"></stop>
        </linearGradient>
        <linearGradient x1="35709.2436%" y1="49.9251497%" x2="35809.2361%" y2="49.9251497%" id="linearGradient-34">
            <stop stop-color="#FFBB96" offset="0%"></stop>
            <stop stop-color="#FFFBC9" offset="23%"></stop>
            <stop stop-color="#F9B673" offset="54%"></stop>
            <stop stop-color="#F9B876" offset="64%"></stop>
            <stop stop-color="#FABE81" offset="72%"></stop>
            <stop stop-color="#FCC993" offset="81%"></stop>
            <stop stop-color="#FED2A3" offset="86%"></stop>
            <stop stop-color="#FFC28C" offset="97%"></stop>
        </linearGradient>
        <radialGradient cx="-20.3888176%" cy="-1022.24104%" fx="-20.3888176%" fy="-1022.24104%" r="104.835635%" gradientTransform="translate(-0.203888,-10.222410),scale(0.554431,1.000000),rotate(179.424614),translate(0.203888,10.222410)" id="radialGradient-35">
            <stop stop-color="#F49587" offset="0%"></stop>
            <stop stop-color="#EE9184" offset="1%"></stop>
            <stop stop-color="#BC7368" offset="8%"></stop>
            <stop stop-color="#90584F" offset="16%"></stop>
            <stop stop-color="#69403A" offset="24%"></stop>
            <stop stop-color="#482C28" offset="33%"></stop>
            <stop stop-color="#2E1C19" offset="42%"></stop>
            <stop stop-color="#19100E" offset="52%"></stop>
            <stop stop-color="#0B0706" offset="64%"></stop>
            <stop stop-color="#030201" offset="77%"></stop>
            <stop stop-color="#000000" offset="100%"></stop>
        </radialGradient>
        <radialGradient cx="65.0534465%" cy="849.572964%" fx="65.0534465%" fy="849.572964%" r="110.222279%" gradientTransform="translate(0.650534,8.495730),scale(0.470152,1.000000),rotate(-163.674038),translate(-0.650534,-8.495730)" id="radialGradient-36">
            <stop stop-color="#F49587" offset="0%"></stop>
            <stop stop-color="#BD7368" offset="12%"></stop>
            <stop stop-color="#8B554D" offset="24%"></stop>
            <stop stop-color="#603B35" offset="36%"></stop>
            <stop stop-color="#3E2622" offset="48%"></stop>
            <stop stop-color="#231513" offset="61%"></stop>
            <stop stop-color="#0F0908" offset="74%"></stop>
            <stop stop-color="#040202" offset="86%"></stop>
            <stop stop-color="#000000" offset="100%"></stop>
        </radialGradient>
        <radialGradient cx="58.0722567%" cy="10.7784431%" fx="58.0722567%" fy="10.7784431%" r="81.9106315%" gradientTransform="translate(0.580723,0.107784),scale(0.477950,1.000000),translate(-0.580723,-0.107784)" id="radialGradient-37">
            <stop stop-color="#FFFFFF" offset="0%"></stop>
            <stop stop-color="#BABABA" offset="25%"></stop>
            <stop stop-color="#575757" offset="62%"></stop>
            <stop stop-color="#181818" offset="88%"></stop>
            <stop stop-color="#000000" offset="100%"></stop>
        </radialGradient>
        <linearGradient x1="99.911621%" y1="50.1185181%" x2="-3.81474513e-12%" y2="50.1185181%" id="linearGradient-38">
            <stop stop-color="#FFBB96" offset="0%"></stop>
            <stop stop-color="#FFFBC9" offset="23%"></stop>
            <stop stop-color="#F9B673" offset="54%"></stop>
            <stop stop-color="#F9B876" offset="64%"></stop>
            <stop stop-color="#FABE81" offset="72%"></stop>
            <stop stop-color="#FCC993" offset="81%"></stop>
            <stop stop-color="#FED2A3" offset="86%"></stop>
            <stop stop-color="#FFC28C" offset="97%"></stop>
        </linearGradient>
        <radialGradient cx="49.825784%" cy="49.7109827%" fx="49.825784%" fy="49.7109827%" r="68.493585%" gradientTransform="translate(0.498258,0.497110),scale(0.605362,1.000000),rotate(180.000000),translate(-0.498258,-0.497110)" id="radialGradient-39">
            <stop stop-color="#FFFFFF" offset="0%"></stop>
            <stop stop-color="#000000" offset="100%"></stop>
        </radialGradient>
        <radialGradient cx="50.0428429%" cy="49.4268094%" fx="50.0428429%" fy="49.4268094%" r="104.07342%" gradientTransform="translate(0.500428,0.494268),scale(0.361471,1.000000),rotate(180.000000),translate(-0.500428,-0.494268)" id="radialGradient-40">
            <stop stop-color="#FFFFFF" offset="0%"></stop>
            <stop stop-color="#000000" offset="100%"></stop>
        </radialGradient>
    </defs>
    <g id="Page-1" stroke="none" stroke-width="1" fill="none" fill-rule="evenodd">
        <g id="Mining-Provider-Windows-Onboarding-Steps-02-Alt" transform="translate(-1072.000000, -506.000000)" fill-rule="nonzero">
            <g id="Mining-app-design" transform="translate(320.000000, 160.000000)">
                <g id="Group-3" transform="translate(720.000000, 266.000000)">
                    <g id="16Artboard-1" transform="translate(32.000000, 80.000000)">
                        <g id="Group" opacity="0.7" fill="#000000">
                            <path d="M64.2018158,113.996231 C67.0329209,114.057119 69.8313347,113.379398 72.323624,112.029288 L185.346132,46.6870838 C188.14253,45.249649 189.929246,42.3883931 190,39.2343552 C189.802808,35.6038053 187.654977,32.3682982 184.393796,30.7891324 L135.644978,2.51207255 C132.633302,0.836470963 129.241006,-0.0276587726 125.798184,0.00376921602 C122.967079,-0.0571191367 120.168665,0.620601875 117.676376,1.97071212 L4.65386798,67.3129162 C1.86304233,68.7472871 0.0772775649,71.6000958 6.38372989e-15,74.7475995 C0.198401352,78.3822204 2.34485467,81.6225609 5.6062039,83.2108676 L54.3550218,111.469882 C57.3649992,113.15177 60.7573946,114.022142 64.2018158,113.996231 L64.2018158,113.996231 Z" id="Path" opacity="0"></path>
                            <path d="M117.676376,2.27748303 L4.65386798,67.6196871 C1.98648574,68.9819786 0.281125515,71.7069547 0.215623227,74.7115088 C0.420361083,78.179468 2.48495121,81.2619349 5.6062039,82.7597339 L52.1808209,109.827755 L54.6065822,111.199202 C57.6428204,112.777666 61.0376044,113.530446 64.4533762,113.382689 C67.2512475,113.318547 69.9931057,112.5822 72.4494042,111.235293 L184.86098,46.2720408 C187.531186,44.9036602 189.236343,42.1720767 189.299225,39.1621738 C189.086949,35.6967756 187.024693,32.6177937 183.908644,31.1139487 L135.393418,3.01734229 C134.252439,2.36658117 133.04829,1.83449283 131.799697,1.42935169 C129.796932,0.773880577 127.706801,0.427079639 125.60053,0.400766866 C122.841141,0.319314298 120.108771,0.966434659 117.676376,2.27748303 Z" id="Path" opacity="0.0909090936"></path>
                            <path d="M117.676376,2.58425394 L4.65386798,67.926458 C2.10986496,69.2165841 0.484867336,71.8137963 0.431246454,74.6754181 C0.658406454,77.97562 2.6351155,80.8982045 5.6062039,82.3266455 L52.3245697,109.394667 C52.4683185,109.394667 54.6065822,110.693932 54.7682996,110.748068 C60.4352633,113.51771 67.0836604,113.376651 72.6290902,110.369116 L184.483639,45.8209071 C187.03328,44.527772 188.659253,41.9220525 188.706261,39.0539017 C188.475418,35.7549794 186.49985,32.8340814 183.531303,31.4026743 L135.357481,3.46847598 C134.20877,2.8283673 133.006231,2.29095177 131.76376,1.86244003 C129.789732,1.18170802 127.723065,0.810431977 125.636467,0.76167382 C122.869109,0.649486004 120.121834,1.27851514 117.676376,2.58425394 L117.676376,2.58425394 Z" id="Path" opacity="0.181818184"></path>
                            <path d="M117.676376,2.89102485 L4.65386798,68.233229 C2.23599933,69.4542166 0.692519268,71.9218207 0.64686968,74.6393274 C0.901114384,77.7557727 2.78186841,80.5030991 5.58823529,81.8574665 L52.6120673,109.123987 C52.8456592,109.250304 54.8222054,110.369116 55.0917344,110.441297 C58.2157263,111.938948 61.69904,112.514679 65.1361831,112.101469 C67.8587231,111.793895 70.4921633,110.940968 72.8806507,109.593166 L184.052393,45.3336827 C186.484579,44.1285689 188.034196,41.6511534 188.059391,38.9275843 C187.808806,35.8046274 185.918342,33.0531221 183.100057,31.7094452 L135.213732,3.95570037 C134.102155,3.31835222 132.942638,2.76930204 131.745792,2.31357372 C129.787815,1.60911237 127.733009,1.21344031 125.654435,1.14062612 C122.886178,0.986064366 120.128239,1.59116054 117.676376,2.89102485 Z" id="Path" opacity="0.272727274"></path>
                            <path d="M117.676376,3.21584111 L4.65386798,68.5760906 C2.35638088,69.7215589 0.891948491,72.0635061 0.862492907,74.6393274 C1.11519049,77.6050417 2.91343133,80.2143576 5.58823529,81.4965595 L52.8276906,108.871352 C53.1331568,109.051806 54.9839228,110.08039 55.3432949,110.188662 C58.5053826,111.620924 62.0143394,112.097472 65.4416493,111.560109 C68.1264692,111.128285 70.7127416,110.217695 73.0783053,108.871352 L183.621146,44.936685 C185.921522,43.7944256 187.387198,41.4504886 187.412521,38.8734482 C187.157252,35.9131003 185.358819,33.3103736 182.686779,32.0342614 L135.069983,4.42487941 C133.958128,3.80682559 132.81229,3.25254632 131.63798,2.76470742 C129.683835,2.03590407 127.628963,1.61586931 125.546624,1.51957842 C122.817497,1.34329391 120.093148,1.93046868 117.676376,3.21584111 Z" id="Path" opacity="0.363636365"></path>
                            <path d="M117.676376,3.61283876 L4.65386798,68.8648161 C2.47532804,69.9264929 1.08321793,72.1354213 1.06014753,74.567146 C1.32601553,77.3634318 3.04011376,79.811825 5.57026669,81.0093351 L53.0253452,108.52849 C53.8457339,109.002089 54.6915467,109.429814 55.5589181,109.80971 C58.7596164,111.203078 62.3063223,111.586953 65.729147,110.910476 C68.3697924,110.345316 70.908786,109.377716 73.2579913,108.041266 L183.171931,44.5035967 C185.353303,43.4357436 186.745159,41.2202283 186.765652,38.7832215 C186.499784,35.9869356 184.785685,33.5385425 182.255532,32.3410323 L134.926234,4.9121038 C133.825439,4.28570736 132.691767,3.71946215 131.530168,3.21584111 C129.61283,2.4775049 127.595687,2.03341972 125.546624,1.89853073 C122.815088,1.71814023 120.088039,2.3121497 117.676376,3.61283876 Z" id="Path" opacity="0.454545455"></path>
                            <path d="M117.676376,3.82938293 L4.65386798,69.171587 C2.58468077,70.1706606 1.2757339,72.2795443 1.29355595,74.5851914 C1.58362232,77.2121597 3.20911969,79.5003078 5.58823529,80.6303828 L53.258937,108.275856 C54.0900079,108.747202 54.9479964,109.16899 55.8284471,109.53903 C59.0669146,110.88168 62.6442208,111.165804 66.0525818,110.351071 C68.6360315,109.637061 71.117885,108.59399 73.4376773,107.247271 L182.740685,44.0885537 C184.800767,43.0793078 186.105715,40.9768664 186.100827,38.6749494 C185.81093,36.047981 184.185433,33.7598329 181.806317,32.6297579 L134.782485,5.41737353 C134.297333,5.12864797 131.997352,3.91960967 131.422357,3.7030655 C129.544756,2.93867239 127.564624,2.45824862 125.546624,2.27748303 C122.829729,2.03442162 120.100048,2.57267549 117.676376,3.82938293 Z" id="Path" opacity="0.545454545"></path>
                            <path d="M117.676376,4.13615384 L4.63589938,69.478358 C2.74412583,70.4266292 1.55282881,72.3716296 1.56320034,74.4949646 C1.86634637,76.956417 3.40656081,79.0892194 5.6421411,80.1431585 L53.4745602,107.914949 C54.3145334,108.387662 55.1849449,108.803627 56.0800076,109.160078 C59.3578758,110.453835 62.9666953,110.637581 66.358048,109.683393 C68.8936458,108.868368 71.3384251,107.791941 73.6533005,106.471321 L182.345375,43.63742 C184.26415,42.7111995 185.480954,40.7588062 185.471962,38.6208133 C185.168834,36.159361 183.62862,34.0265586 181.39304,32.9726195 L134.674674,5.90459792 C134.261396,5.6700084 131.799697,4.33465267 131.332514,4.10006315 C129.486199,3.33227357 127.536061,2.84569779 125.546624,2.65643533 C122.835703,2.36953928 120.100357,2.8838232 117.676376,4.13615384 Z" id="Path" opacity="0.636363635"></path>
                            <path d="M117.676376,4.44292476 L4.63589938,69.7851289 C2.83972853,70.6381467 1.70277509,72.4636322 1.72466619,74.4588739 C2.03760051,76.7560287 3.49361326,78.735142 5.58823529,79.7100701 L53.6722149,107.590132 C54.5141642,108.078054 55.3982046,108.488744 56.3135994,108.817216 C59.6274957,110.085429 63.2741187,110.174596 66.6455457,109.069851 C69.1269161,108.124527 71.5301813,106.984134 73.8329866,105.65928 L181.914129,43.1862863 C183.717308,42.3385358 184.861974,40.5119427 184.843243,38.5125413 C184.530396,36.2153865 183.074384,34.2362731 180.979762,33.2613451 L134.530925,6.33768627 C134.225459,6.15723279 131.584074,4.71360497 131.242671,4.53315149 C129.402732,3.72993282 127.451748,3.2127218 125.456781,2.99929694 C122.778362,2.70109426 120.071873,3.20327409 117.676376,4.44292476 Z" id="Path" opacity="0.727272726"></path>
                            <path d="M117.676376,4.76774101 L4.63589938,70.0918998 C2.96842161,70.8785597 1.9140193,72.5728089 1.94011764,74.4227832 C2.2601337,76.5359771 3.60806685,78.3499221 5.53432949,79.2589364 L53.8519009,107.283361 C57.8309686,109.560688 62.6010225,109.982404 66.9150747,108.438264 C69.3296044,107.358858 71.6866676,106.154212 73.9767354,104.829194 L181.428977,42.7171073 C183.096455,41.9304473 184.150857,40.2361981 184.124758,38.3862238 C183.804742,36.27303 182.456809,34.459085 180.530547,33.5500706 L134.369207,6.80686531 C134.171553,6.69859322 131.350482,5.11060262 131.11689,5.00233054 C129.302609,4.1838628 127.376629,3.64252856 125.402875,3.39629459 C122.748615,3.06139858 120.055521,3.53942021 117.676376,4.76774101 Z" id="Path" opacity="0.818181816"></path>
                            <path d="M117.676376,5.07451193 L4.63589938,70.3806253 C3.09018848,71.0834385 2.1134921,72.647141 2.15488417,74.3506018 C2.50994469,76.3042942 3.79116844,77.9615047 5.58823529,78.7897574 L54.1034613,106.9405 C54.951684,107.431006 55.8490974,107.830216 56.7807831,108.131493 C60.1895351,109.316133 63.9139523,109.194026 67.2385096,107.788631 C67.5260072,107.788631 73.9767354,104.179562 74.17439,104.035199 L181.015699,42.2840189 C182.560981,41.5711193 183.535812,40.003309 183.496578,38.2959971 C183.141654,36.3423048 181.86043,34.6850942 180.063363,33.8568415 L134.225459,7.22190831 L130.937204,5.41737353 C129.14301,4.57765847 127.236098,4.00618134 125.277095,3.72111085 C122.665642,3.39415079 120.016709,3.86582583 117.676376,5.07451193 L117.676376,5.07451193 Z" id="Path" opacity="0.909090906"></path>
                            <path d="M67.579913,107.21118 L180.62039,41.8689759 C184.016455,39.902033 183.585209,36.4553716 179.668054,34.1997032 L130.937204,5.92264327 C126.862211,3.65199567 121.957802,3.45123386 117.712313,5.38128284 L4.63589938,70.7234869 C1.25780216,72.6904298 1.67108001,76.1370913 5.58823529,78.3927597 L54.3550218,106.66982 C58.4300148,108.940467 63.3344241,109.141229 67.579913,107.21118 Z" id="Path"></path>
                        </g>
                        <path d="M51.5698884,108.041266 L5.98354454,81.6048316 C0.844524305,78.6273492 1.49139399,73.4122438 7.42103272,69.9836277 L114.603745,7.83545013 C120.551352,4.38878871 129.535653,4.00983641 134.674674,7.00536413 L180.261018,33.4237532 C185.400038,36.4012356 184.753168,41.6163411 178.805561,45.0630025 L71.6408171,107.21118 C65.6932098,110.639796 56.7089086,111.018748 51.5698884,108.041266 Z" id="Path" fill="url(#linearGradient-1)"></path>
                        <path d="M51.5698884,107.247271 L5.98354454,80.8288817 C3.99918833,79.9121358 2.66991106,77.9823307 2.51560431,75.7942297 C2.51560431,75.6318215 2.51560431,72.0407973 2.51560431,71.8783892 C2.71325894,69.7129475 4.31246454,70.9039404 7.40306412,69.1354963 L114.603745,7.04145483 C120.551352,3.61283876 129.535653,3.23388646 134.674674,6.21136883 L180.261018,32.6478032 C182.54303,33.9651136 183.693021,31.6372638 183.728958,33.4959346 C183.728958,33.6583427 183.728958,37.9350901 183.728958,38.0974983 C183.549272,40.26294 181.932098,42.5005631 178.823529,44.2690072 L71.6408171,106.471321 C65.6932098,109.863846 56.7089086,110.242798 51.5698884,107.247271 Z" id="Path" fill="url(#linearGradient-2)"></path>
                        <path d="M51.5698884,103.33143 L5.98354454,76.8949959 C0.844524305,73.9175135 1.49139399,68.7204533 7.42103272,65.2737919 L114.603745,3.12561437 C120.551352,-0.321047043 129.535653,-0.699999345 134.674674,2.29552838 L180.261018,28.7139174 C185.400038,31.6913998 184.753168,36.9065053 178.805561,40.3531667 L71.6408171,102.501344 C65.6932098,105.948006 56.7089086,106.308913 51.5698884,103.33143 Z" id="Path" fill="url(#linearGradient-3)"></path>
                        <path d="M5.98354454,76.3897261 L51.5698884,102.862251 C56.7089086,105.839734 65.6932098,105.460781 71.6228485,102.01412 L178.805561,39.8659423 C181.932098,38.0614076 183.603178,35.7516031 183.710989,33.5500706 C183.836769,35.9140112 182.183658,38.4403599 178.805561,40.3892574 L71.6408171,102.501344 C65.7111784,105.948006 56.7268772,106.308913 51.587857,103.33143 L5.98354454,76.8949959 C3.90241678,75.9527506 2.55593825,73.8821493 2.53357291,71.5896636 C2.77479841,73.6830684 4.08107548,75.5005359 5.98354454,76.3897261 Z" id="Path" fill="#FFFFFF"></path>
                        <path d="M8.62492907,66.0497419 L115.95139,3.82938293 C121.144316,0.797764516 129.014564,0.472948257 133.524683,3.08952368 L178.877435,29.3815953 C183.369586,31.9981707 182.812559,36.5997344 177.601664,39.5772168 L70.2931719,101.797576 C65.0822773,104.811149 57.2120295,105.135965 52.7019103,102.537435 L7.36712692,76.2453633 C2.85700775,73.6287879 3.36012862,69.063315 8.62492907,66.0497419 Z" id="Path" fill="url(#linearGradient-4)"></path>
                        <path d="M10.7092869,66.9339639 L117.49669,5.03842123 C121.845092,2.51207255 128.439569,2.22334699 132.212975,4.42487941 L176.577454,30.1394999 C180.350861,32.3410323 179.883677,36.1486007 175.535275,38.6749494 L68.7478721,100.588537 C64.3994704,103.114886 57.8049934,103.385566 54.0315869,101.202079 L9.6491394,75.4694134 C5.87573293,73.2859263 6.36088519,69.4603126 10.7092869,66.9339639 Z" id="Path" fill="#1F0D3D"></path>
                        <path d="M131.817666,5.23692006 C127.786479,3.17955776 123.019271,3.17955776 118.988084,5.23692006 L11.0327218,67.818186 C7.43900132,69.8573103 7.43900132,73.2317903 11.0327218,75.2528692 L54.4089276,100.390039 C58.4463856,102.447661 63.2190201,102.447661 67.2564782,100.390039 L175.21184,37.8989994 C178.805561,35.8598751 178.805561,32.4853951 175.21184,30.4643162 L131.817666,5.23692006 Z" id="Path" fill="url(#linearGradient-5)"></path>
                        <path d="M60.8596558,101.057716 C62.9233451,101.103693 64.9644885,100.61918 66.7892945,99.6501793 L174.744657,37.0508681 C176.073301,36.6866473 176.994936,35.4745669 176.994936,34.0914311 C176.994936,32.7082952 176.073301,31.4962149 174.744657,31.131994 L131.38642,5.99482466 C127.618766,4.10735333 123.186984,4.10735333 119.41933,5.99482466 L11.4639682,68.5760906 C10.2538047,69.081714 9.41372738,70.2089061 9.27179875,71.5174822 C9.43711431,72.8416584 10.2933163,73.9766721 11.517874,74.4949646 L54.8581426,99.6140886 C56.7012454,100.606911 58.7686719,101.104218 60.8596558,101.057716 Z" id="Path" fill="url(#linearGradient-6)"></path>
                        <path d="M158.572915,55.5293042 L163.532249,52.6420485 C164.23074,52.1500527 164.651773,51.3513719 164.664271,50.4946521 L164.664271,50.4946521 C164.664271,49.6645662 164.16115,49.2675685 163.532249,49.6284755 L158.572915,52.5157311 C157.874424,53.0077269 157.453391,53.8064077 157.440893,54.6631275 L157.440893,54.6631275 C157.440893,55.4932135 157.890108,55.9443472 158.572915,55.5293042 Z" id="Path" fill="url(#linearGradient-7)"></path>
                        <path d="M158.572915,55.5293042 L163.532249,52.6420485 C164.23074,52.1500527 164.651773,51.3513719 164.664271,50.4946521 L164.664271,50.4946521 C164.664271,49.6645662 164.16115,49.2675685 163.532249,49.6284755 L158.572915,52.5157311 C157.874424,53.0077269 157.453391,53.8064077 157.440893,54.6631275 L157.440893,54.6631275 C157.440893,55.4932135 157.890108,55.9443472 158.572915,55.5293042 Z" id="Path" fill="url(#linearGradient-8)"></path>
                        <path d="M158.1237,55.366896 C158.230853,55.3595417 158.33511,55.328747 158.429166,55.2766693 L163.3885,52.3894137 C163.971224,51.9676251 164.334129,51.3049796 164.376773,50.5848789 C164.376773,50.2600626 164.268962,49.8811103 163.981464,49.8811103 C163.871975,49.8897949 163.766659,49.9271239 163.675998,49.9893824 L158.716664,52.8585927 C158.120774,53.3071249 157.763048,54.0056753 157.746359,54.7533542 C157.746359,54.9879437 157.890108,55.366896 158.1237,55.366896 Z" id="Path" fill="url(#linearGradient-9)"></path>
                        <path d="M149.696425,60.6722283 L154.673728,57.7849726 C155.360947,57.2851807 155.773701,56.4895769 155.787781,55.6375762 L155.787781,55.6375762 C155.787781,54.8074903 155.28466,54.4104926 154.673728,54.7713996 L149.696425,57.7488819 C149.009206,58.2486738 148.596453,59.0442776 148.582372,59.8962783 L148.582372,59.8962783 C148.582372,60.6361376 149.085493,61.0331352 149.696425,60.6722283 Z" id="Path" fill="url(#linearGradient-10)"></path>
                        <path d="M149.696425,60.6722283 L154.673728,57.7849726 C155.360947,57.2851807 155.773701,56.4895769 155.787781,55.6375762 L155.787781,55.6375762 C155.787781,54.8074903 155.28466,54.4104926 154.673728,54.7713996 L149.696425,57.7488819 C149.009206,58.2486738 148.596453,59.0442776 148.582372,59.8962783 L148.582372,59.8962783 C148.582372,60.6361376 149.085493,61.0331352 149.696425,60.6722283 Z" id="Path" fill="url(#linearGradient-11)"></path>
                        <path d="M149.24721,60.5098201 C149.347914,60.5312526 149.451973,60.5312526 149.552676,60.5098201 L154.529979,57.6225645 C155.102051,57.1937372 155.456998,56.5336214 155.500284,55.8180297 C155.500284,55.4932135 155.392472,55.1142612 155.104974,55.1142612 C155.001141,55.123513 154.901765,55.1609381 154.817477,55.2225332 L149.840174,58.0917435 C149.268102,58.5205709 148.913155,59.1806867 148.869869,59.8962783 C148.905807,60.1308678 148.905807,60.5098201 149.24721,60.5098201 Z" id="Path" fill="url(#linearGradient-12)"></path>
                        <path d="M24.6169851,91.3132287 L32.7747305,96.0411098 L32.7747305,96.0411098 C32.7479923,94.4929408 31.9954004,93.0482138 30.7442784,92.1433147 L26.7193115,89.7613288 C25.6052582,89.1116963 24.7068281,89.7613288 24.7068281,91.3132287 L24.6169851,91.3132287 Z" id="Path" fill="url(#linearGradient-13)"></path>
                        <path d="M25.8747872,89.5267393 C25.4063583,89.9126863 25.1631532,90.5097267 25.2279175,91.1147299 L32.7208247,95.4636587 C32.738589,95.655729 32.738589,95.8490395 32.7208247,96.0411098 L24.6169851,91.3132287 C24.6169851,90.2305078 25.1380745,89.5086939 25.8747872,89.5267393 Z" id="Path" fill="#4916A1" style="mix-blend-mode: color-dodge;"></path>
                        <polygon id="Path" fill="url(#linearGradient-14)" points="39.5488935 64.1549804 37.6442217 63.0542142 34.1583128 65.0752931 32.3614526 64.0286629 35.8653301 62.007584 33.9067524 60.8887724 35.0208057 60.2571853 40.6270096 63.5053479"></polygon>
                        <path d="M41.2199735,66.4467395 C40.8956984,66.2568153 40.5595901,66.0880434 40.2137318,65.9414698 C39.9349304,65.8213863 39.6364291,65.7540896 39.3332703,65.742971 L37.3207868,66.8978732 L35.5239266,65.8873338 L38.9199924,63.9023455 L40.5371666,64.8407036 L39.890297,65.2196559 C40.2777371,65.1653228 40.670816,65.1653228 41.0582561,65.2196559 C41.4188534,65.2857559 41.7653587,65.4139609 42.0824664,65.5986082 L42.2980897,65.7249256 L41.2199735,66.4467395 Z" id="Path" fill="url(#linearGradient-15)"></path>
                        <path d="M39.8184225,68.4317278 C39.5978722,68.3143908 39.3976395,68.1620515 39.2254587,67.9805941 C39.0832088,67.8584164 38.9722821,67.7036935 38.9020238,67.5294604 C38.8582144,67.4007847 38.8582144,67.2611384 38.9020238,67.1324627 C38.9690337,66.9958256 39.0754819,66.8826342 39.2074901,66.8076465 C39.3994734,66.6972221 39.6152971,66.6352948 39.8363911,66.627193 C40.1041311,66.583087 40.3772383,66.583087 40.6449782,66.627193 C40.9518236,66.6735044 41.2529605,66.7521344 41.5434084,66.8617825 C41.8665683,66.9863774 42.1790618,67.1372563 42.4777757,67.3129162 C42.7946193,67.4870942 43.0850526,67.7058495 43.3402686,67.9625487 L43.4480802,67.9625487 C43.6097976,67.9625487 43.6637034,67.7640499 43.591829,67.6557778 C43.4593157,67.4632036 43.2799264,67.3078972 43.0707395,67.2046441 C42.7938912,67.0501233 42.5055293,66.917393 42.2082466,66.8076465 L41.0941933,66.5008756 L41.3457537,65.7610163 C42.2710557,65.9739787 43.1607569,66.3204383 43.9871383,66.7896011 C44.5762161,67.0647271 45.0748988,67.5029381 45.4246264,68.0527755 C45.6043125,68.4317278 45.4246264,68.756544 44.9754114,69.0452696 L44.3105731,69.4242219 C44.2027615,69.4242219 44.1308871,69.5505393 44.1488557,69.6046754 C44.1668243,69.6588114 44.1488557,69.7309928 44.3285417,69.8031742 L43.2863628,70.3986707 L42.8910535,70.2001719 L42.5316815,70.0197184 C42.2972451,69.9085815 42.0936135,69.7412623 41.9387176,69.532494 C41.8419622,69.4179986 41.8419622,69.2499917 41.9387176,69.1354963 L41.9387176,69.1354963 C41.5377193,69.1223731 41.139661,69.0618036 40.7527899,68.9550429 C40.4211516,68.8197283 40.1073408,68.643971 39.8184225,68.4317278 Z M41.2199735,68.2151836 C41.3341083,68.2860811 41.4543879,68.3464778 41.5793456,68.3956371 L41.9746548,68.5039092 L42.2441838,68.5039092 L42.4418385,68.5039092 L42.6933989,68.3595464 L42.4059013,68.1249569 C42.3161214,68.0370082 42.2130182,67.9639187 42.100435,67.9084127 C41.8980925,67.7932691 41.6802061,67.7081736 41.4535653,67.6557778 C41.2973005,67.5961348 41.124678,67.5961348 40.9684131,67.6557778 C40.9684131,67.6557778 40.8426329,67.7820953 40.9684131,67.872322 C41.0169925,68.0089002 41.1044708,68.1281279 41.2199735,68.2151836 L41.2199735,68.2151836 Z" id="Shape" fill="url(#linearGradient-16)"></path>
                        <path d="M47.9941366,73.0874275 L46.1972763,72.0588427 L48.1199168,70.9580765 C48.2816342,70.9580765 48.3535086,70.7595776 48.3175714,70.6513056 C48.2643987,70.5261839 48.168946,70.4239328 48.0480424,70.36258 C47.637988,70.1533254 47.1712975,70.0836562 46.7183658,70.1640812 L44.813694,71.2648474 L43.0168337,70.2362626 L46.484774,68.2693197 L48.0839796,69.1896324 L47.5808587,69.478358 C47.9710199,69.4803885 48.3586681,69.5412172 48.7308493,69.6588114 C49.1704805,69.7951778 49.5926404,69.9829328 49.9886514,70.2182172 C50.2430187,70.3538257 50.4687965,70.5376706 50.6534897,70.7595776 C50.7561677,70.8786837 50.8020889,71.0368003 50.7792699,71.192666 C50.7572377,71.3273409 50.686941,71.4492812 50.5816153,71.5355276 C50.4849709,71.6409153 50.3690703,71.7266805 50.2402118,71.7881625 L47.9941366,73.0874275 Z" id="Path" fill="url(#linearGradient-17)"></path>
                        <path d="M49.8628712,74.2603751 C49.4652967,74.0279717 49.0920593,73.7559165 48.7488179,73.4483344 C48.4903677,73.2098365 48.2825659,72.9213541 48.1378854,72.6002031 L49.4855305,72.6002031 C49.6356882,72.8561805 49.816744,73.0925584 50.0245886,73.3039717 C50.2249458,73.5040511 50.4480998,73.6797025 50.6894269,73.8272868 C50.9409873,73.9716495 51.1206733,74.0077402 51.228485,73.9536042 C51.3362966,73.8994681 51.228485,73.8453321 51.228485,73.7731507 C51.1057011,73.6205395 50.9671693,73.481416 50.8152071,73.3581077 L50.0784944,72.6543391 C49.9386673,72.5188324 49.8231717,72.3601108 49.737091,72.1851601 C49.6885438,72.0823765 49.6885438,71.9631274 49.737091,71.8603439 C49.7884477,71.7548437 49.8697181,71.6669479 49.9706828,71.607709 C50.1658895,71.505167 50.3798996,71.4437601 50.5995839,71.4272555 C50.8619121,71.3913697 51.1278741,71.3913697 51.3902024,71.4272555 C51.6910157,71.4651349 51.9864626,71.5377983 52.2706639,71.6437997 C52.5813863,71.7561441 52.8819606,71.8949988 53.169094,72.0588427 C53.4947798,72.25398 53.8069482,72.4710196 54.1034613,72.7084752 C54.3471732,72.9308691 54.5428712,73.2011033 54.6784566,73.5024705 L53.2769056,73.5024705 C53.146762,73.2795294 52.9898609,73.0734747 52.809722,72.8889287 C52.6694049,72.7322127 52.505744,72.5982898 52.3245697,72.491931 L52.0191035,72.3656136 C51.9439583,72.33639 51.8606568,72.33639 51.7855116,72.3656136 C51.7855116,72.3656136 51.7855116,72.4738857 51.7855116,72.5460671 C51.9273,72.6985227 52.077261,72.8431001 52.2347267,72.9791554 C52.4775967,73.1724037 52.7058277,73.3835144 52.9175336,73.6107426 C53.0675674,73.7412315 53.1898034,73.900817 53.2769056,74.0799216 C53.3313308,74.1876738 53.3313308,74.315031 53.2769056,74.4227832 C53.217108,74.5388387 53.1229385,74.6334104 53.0073766,74.6934634 C52.8176545,74.7936847 52.6099848,74.8550249 52.3964441,74.8739169 C52.1461455,74.9097018 51.8920614,74.9097018 51.6417628,74.8739169 C51.3466915,74.8183973 51.0577945,74.7337758 50.7792699,74.6212821 C50.4646603,74.5258555 50.1582054,74.4051639 49.8628712,74.2603751 Z" id="Path" fill="url(#linearGradient-18)"></path>
                        <path d="M53.0073766,76.0829552 C52.7929219,75.9562519 52.5939216,75.8048502 52.4144127,75.6318215 C52.2792051,75.5072049 52.17464,75.3527759 52.1089465,75.1806878 C52.0637302,75.0522508 52.0637302,74.9121272 52.1089465,74.7836902 C52.1693267,74.642554 52.2775536,74.5274715 52.4144127,74.4588739 C52.6063961,74.3484495 52.8222197,74.2865223 53.0433138,74.2784204 C53.3117066,74.2432711 53.5835081,74.2432711 53.8519009,74.2784204 C54.1592688,74.3312141 54.4603561,74.4158786 54.750331,74.5310553 C55.0761446,74.6418691 55.3893489,74.7870423 55.6846983,74.9641437 C56.001542,75.1383216 56.2919753,75.357077 56.5471912,75.6137762 L56.6550028,75.6137762 C56.7987517,75.6137762 56.8526575,75.4152774 56.7987517,75.2889599 C56.6662383,75.0963857 56.4868491,74.9410792 56.2776622,74.8378262 C56.0041744,74.6815197 55.7150897,74.5545049 55.4151693,74.4588739 C55.0810135,74.3429624 54.7386425,74.2524799 54.390959,74.1881937 L54.6425194,73.4483344 C55.5693949,73.6470798 56.4602871,73.9879168 57.2839039,74.4588739 C57.8653267,74.7456733 58.3611597,75.1813802 58.7213921,75.7220483 C58.9010781,76.1010006 58.7213921,76.4438622 58.272177,76.7145424 L57.6073388,77.0934947 C57.4815585,77.0934947 57.4276527,77.2378575 57.4276527,77.2919935 C57.4276527,77.3461296 57.4276527,77.4002656 57.6073388,77.4904923 L56.5831284,78.0859888 L56.1339134,77.8694446 L55.7745413,77.6889912 C55.5371062,77.5826795 55.3323576,77.4144424 55.1815775,77.2017668 C55.0848221,77.0872714 55.0848221,76.9192645 55.1815775,76.8047691 L55.1815775,76.8047691 C54.779809,76.8006283 54.3806069,76.7398848 53.9956497,76.6243156 C53.646354,76.4831348 53.3146808,76.3014494 53.0073766,76.0829552 Z M54.4268962,75.8844564 L54.7862682,76.0468645 C54.9129338,76.0996417 55.0457695,76.1360244 55.1815775,76.1551366 C55.270656,76.1717819 55.3620279,76.1717819 55.4511065,76.1551366 C55.5153773,76.1758494 55.5844903,76.1758494 55.6487611,76.1551366 L55.9003215,76.0107738 L55.6128239,75.7942297 L55.3073577,75.5776855 C55.1087861,75.4583903 54.8891402,75.378735 54.660488,75.343096 C54.5057026,75.2758462 54.3301211,75.2758462 54.1753357,75.343096 C54.0675241,75.343096 54.0495555,75.4694134 54.1753357,75.5596401 C54.2331568,75.6859264 54.3192491,75.7970892 54.4268962,75.8844564 L54.4268962,75.8844564 Z" id="Shape" fill="url(#linearGradient-19)"></path>
                        <path d="M57.7151504,76.7506331 C57.97789,76.6060126 58.2636444,76.508319 58.5596747,76.4619075 C58.9175955,76.4160386 59.27987,76.4160386 59.6377908,76.4619075 C60.0519979,76.5078906 60.4610482,76.5924665 60.8596558,76.7145424 C61.3101877,76.8677277 61.7437396,77.0672877 62.1533951,77.3100389 C62.6305413,77.5591047 63.0523451,77.9029004 63.3932287,78.3205783 C63.6050389,78.5692935 63.6911798,78.9020198 63.6268205,79.2228457 L61.5424626,78.4468958 C61.5424626,78.2423818 61.3987138,78.0619284 61.1112162,77.9055353 C60.8655774,77.7578331 60.5883503,77.6712163 60.3026291,77.6529005 C60.0291147,77.6311149 59.755039,77.6874153 59.5120106,77.8153086 C59.2784188,77.9596714 59.1885758,78.1040342 59.224513,78.2844876 C59.2984381,78.4934571 59.4542481,78.6629722 59.6557594,78.7536667 C59.9401558,78.9157953 60.2632174,78.9969057 60.5901267,78.9882562 L61.9377719,80.1972945 C61.4133098,80.2409343 60.8852712,80.198267 60.3745035,80.0709771 C59.7415273,79.9266129 59.1351434,79.6830234 58.5776433,79.3491632 C58.2081032,79.1457827 57.8692877,78.8905857 57.5714016,78.5912586 C57.362355,78.3971519 57.2022287,78.1559367 57.1042179,77.88749 C57.0330022,77.683035 57.0330022,77.4603578 57.1042179,77.2559028 C57.2512042,77.0283271 57.4645626,76.8518697 57.7151504,76.7506331 Z" id="Path" fill="url(#linearGradient-20)"></path>
                        <path d="M64.327596,82.3446909 C64.0041611,82.2364188 63.6807263,82.1281467 63.3393229,81.9837839 C63.0283092,81.8649167 62.7277778,81.7200455 62.4408928,81.5506956 C62.254797,81.4495316 62.0800929,81.3285314 61.9198033,81.1897886 C61.7974956,81.0934061 61.6990895,80.969873 61.6323057,80.8288817 C61.5716002,80.716303 61.5716002,80.5805534 61.6323057,80.4679747 C61.7007318,80.3157463 61.8221281,80.1938315 61.9737091,80.1251131 L63.5369775,79.2228457 L62.926045,78.8799841 L63.8604123,78.3386237 L64.4533762,78.6814853 L65.5314923,78.0679435 L67.3283526,79.0965283 L66.268205,79.7100701 L67.2205409,80.2694759 L66.2861736,80.8108363 L65.3338377,80.2514305 L64.2197844,80.9010631 C64.0940042,80.9010631 64.058067,81.0273805 64.0760356,81.0995619 C64.1248998,81.1872016 64.20048,81.2567795 64.2916588,81.2980607 L64.6150936,81.4604688 L65.0283715,81.6048316 L64.327596,82.3446909 Z" id="Path" fill="url(#linearGradient-21)"></path>
                        <path d="M63.7166635,82.2003281 L67.1127293,80.2333852 L68.9095896,81.26197 L65.5135237,83.2289129 L63.7166635,82.2003281 Z M67.310384,80.0709771 L68.3345943,79.4754806 L70.1314545,80.4860201 L69.1072442,81.0995619 L67.310384,80.0709771 Z" id="Shape" fill="url(#linearGradient-22)"></path>
                        <path d="M67.7775676,84.63645 C67.4080276,84.4330695 67.069212,84.1778726 66.7713259,83.8785454 C66.5603084,83.6896357 66.4049327,83.4462143 66.3221108,83.1747769 C66.2312552,82.98044 66.2312552,82.7555719 66.3221108,82.5612351 C66.4255805,82.34931 66.5962394,82.1779223 66.8072631,82.0740107 C67.0676872,81.9241757 67.3544236,81.8261464 67.6517874,81.7852851 C68.0091149,81.7308411 68.372576,81.7308411 68.7299035,81.7852851 C69.1441106,81.8312682 69.5531609,81.9158441 69.9517685,82.03792 C70.4023004,82.1911053 70.8358524,82.3906653 71.2455078,82.6334164 C71.6203439,82.8369916 71.9650695,83.0920848 72.2697182,83.391321 C72.4722439,83.5873654 72.6261105,83.8284225 72.7189332,84.0950896 C72.7916024,84.2992941 72.7916024,84.5224723 72.7189332,84.7266768 C72.5931215,84.927714 72.4204357,85.0949436 72.2158124,85.2139012 C71.9496898,85.3506542 71.6652188,85.4479091 71.3712881,85.5026267 C71.019371,85.5483342 70.6630576,85.5483342 70.3111405,85.5026267 C69.8907558,85.458513 69.4755679,85.3739122 69.071307,85.2499919 C68.6200554,85.0910532 68.1864786,84.8854341 67.7775676,84.63645 Z M68.6759977,83.1206408 C68.4424059,83.2469583 68.3525629,83.391321 68.3885001,83.5717745 C68.4564363,83.7843141 68.6142132,83.9559692 68.8197465,84.0409536 C69.0653854,84.1886558 69.3426124,84.2752726 69.6283336,84.2935884 C69.8986118,84.3200378 70.1700617,84.2566403 70.4009835,84.113135 C70.6345754,83.9868175 70.742387,83.8424547 70.7064498,83.6620013 C70.6325247,83.4530318 70.4767147,83.2835167 70.2752033,83.1928222 C70.0295645,83.0451199 69.7523374,82.9585031 69.4666162,82.9401874 C69.1906314,82.9137103 68.9134768,82.976969 68.6759977,83.1206408 Z" id="Shape" fill="url(#linearGradient-23)"></path>
                        <path d="M75.1267259,88.8229707 L73.3298657,87.8124312 L75.2345375,86.6214383 C75.4142236,86.5312115 75.4681294,86.4229395 75.4501608,86.3146674 C75.3969881,86.1895457 75.3015353,86.0872946 75.1806317,86.0259418 C74.9874955,85.9344497 74.7814046,85.8735758 74.5696993,85.8454883 C74.3321691,85.8009627 74.0884854,85.8009627 73.8509552,85.8454883 L71.9462833,86.9462545 L70.1494231,85.9176697 L73.5454889,83.9507268 L75.1267259,84.8710396 L74.6236051,85.1597651 C75.0138543,85.1606849 75.401668,85.2215397 75.7735956,85.3402186 C76.2132269,85.4765849 76.6353867,85.66434 77.0313978,85.8996244 C77.2890995,86.0301152 77.5158396,86.2147437 77.6962361,86.4409848 C77.8032956,86.5582511 77.8555719,86.71575 77.8399849,86.8740732 C77.8149957,87.0076657 77.7452489,87.128652 77.6423302,87.2169348 C77.5388578,87.3143848 77.4242588,87.3991869 77.3009268,87.4695696 L75.1267259,88.8229707 Z" id="Path" fill="url(#linearGradient-24)"></path>
                        <path d="M65.7650842,94.1463483 L22.6404388,69.0994056 C21.5802913,68.4858638 21.7240401,67.4211883 22.9279364,66.7174197 L22.9279364,66.7174197 C24.1938092,66.0066737 25.72,65.9397432 27.0427464,66.5369663 L70.1673917,91.5839089 C71.2275392,92.1974507 71.0837904,93.2621262 69.8798941,93.9658948 L69.8798941,93.9658948 C68.6140214,94.6766408 67.0878305,94.7435714 65.7650842,94.1463483 L65.7650842,94.1463483 Z" id="Path" fill="#4B61B8"></path>
                        <polygon id="Path" fill="url(#linearGradient-25)" points="23.4130887 67.9986394 25.0841687 67.042236 57.6612446 85.9357151 56.0081332 86.8921185"></polygon>
                        <path d="M130.937204,56.7563878 C122.38415,51.8841439 116.562323,45.5863176 114.513902,38.7110401 L114.513902,38.7110401 C103.61916,37.7553909 93.0463781,34.5091418 83.482126,29.1830965 L83.1586911,29.002643 L78.4688859,32.1966696 C62.2971439,43.4389212 59.6018536,54.7172635 61.7580859,69.117451 L62.0815207,69.2979045 C86.8961604,70.5430335 106.356157,68.9911336 125.744278,59.6075527 L131.260639,56.9368413 L130.937204,56.7563878 Z" id="Path" fill="#000000" opacity="0"></path>
                        <path d="M130.937204,56.7563878 C122.420087,51.9021893 116.706071,45.6224083 114.585776,38.8193122 L114.585776,38.8193122 C103.671115,37.8786183 93.0776958,34.6316734 83.5000946,29.2913686 L83.1766597,29.0928697 L78.5946662,32.2868963 C62.4229242,43.4930572 59.7995082,54.7353089 61.9377719,69.063315 L62.2612067,69.2618138 C86.9860034,70.5069428 106.374125,68.9369975 125.690373,59.6075527 L131.188765,56.9368413 L130.937204,56.7563878 Z" id="Path" fill="#000000" opacity="0.0095238097"></path>
                        <path d="M130.793456,56.7563878 C122.312275,51.9202346 116.616228,45.6765443 114.513902,38.8914936 L114.40609,38.8914936 C103.593975,37.940172 93.1013914,34.7187036 83.6079062,29.4357314 L83.2844713,29.2552779 L78.7204464,32.4312591 C62.656516,43.5471933 59.9791943,54.7353089 62.1174579,69.0272243 L62.4588614,69.2076777 C87.0758464,70.4528067 106.392094,68.9009068 125.654435,59.5895074 L131.045016,56.9368413 L130.793456,56.7563878 Z" id="Path" fill="#000000" opacity="0.0190476192"></path>
                        <path d="M130.73955,56.7563878 C122.276338,51.93828 116.59826,45.712635 114.567808,38.963675 L114.567808,38.963675 C103.793977,38.0154965 93.3383608,34.8063967 83.8774352,29.5440034 L83.5540004,29.36355 L78.828258,32.4853951 C62.8182334,43.6013293 60.1588803,54.7713996 62.2971439,68.9911336 L62.6205788,69.1896324 C87.183658,70.3806253 106.410062,68.8467708 125.546624,59.5534167 L130.937204,56.9187959 L130.73955,56.7563878 Z" id="Path" fill="#000000" opacity="0.0285714287"></path>
                        <path d="M130.667675,56.7563878 C122.240401,51.9563253 116.580291,45.7487257 114.495933,39.017811 L114.495933,39.017811 C103.772398,38.0694029 93.3661643,34.8727244 83.9493096,29.6342302 L83.6438434,29.4537767 L78.9540382,32.4853951 C63.015888,43.5652386 60.3565349,54.6811728 62.4947986,68.8648161 L62.8182334,69.0452696 C87.273501,70.3806253 106.446,68.8106801 125.546624,59.5534167 L130.937204,56.9187959 L130.667675,56.7563878 Z" id="Path" fill="#000000" opacity="0.0380952382"></path>
                        <path d="M130.595801,56.7563878 C122.204464,51.9743707 116.562323,45.7848164 114.424059,39.0899924 L114.424059,39.0899924 C103.701751,38.1601565 93.294164,34.9753589 83.8774352,29.7425023 L83.571969,29.5620488 L79.0438812,32.7019393 C63.195574,43.6915561 60.5541895,54.7533542 62.656516,68.8828615 L62.9799508,69.0813603 C87.3633441,70.3806253 106.463968,68.7745894 125.546624,59.5534167 L130.937204,56.9368413 L130.595801,56.7563878 Z" id="Path" fill="#000000" opacity="0.0476190477"></path>
                        <path d="M130.541895,56.7563878 C122.168527,51.992416 116.562323,45.9291792 114.477965,39.1441284 L114.477965,39.1441284 C103.816832,38.2165235 93.4698595,35.0438362 84.111027,29.832729 L83.8055608,29.6522755 L79.2954416,32.792166 C63.4651031,43.7817828 60.8416872,54.8255356 62.9440136,68.8828615 L63.2674485,69.063315 C87.4531871,70.2543079 106.481937,68.7204533 125.546624,59.5534167 L130.937204,56.9368413 L130.541895,56.7563878 Z" id="Path" fill="#000000" opacity="0.0571428572"></path>
                        <path d="M130.470021,56.7563878 C122.132589,52.0104614 116.544354,45.9291792 114.477965,39.2163098 L114.477965,39.2163098 C103.852666,38.2671547 93.5440505,35.0888191 84.2188387,29.886865 L83.9133724,29.7064116 L79.4212219,32.8102114 C63.5549461,43.7817828 60.8596558,54.7713996 63.0338566,68.7926347 L63.3572915,68.9911336 C87.5430301,70.2001719 106.481937,68.6843627 125.402875,59.5353714 L130.793456,56.9368413 L130.470021,56.7563878 Z" id="Path" fill="#000000" opacity="0.0666666667"></path>
                        <path d="M130.398146,56.7563878 C122.096652,52.0285067 116.526385,45.9291792 114.459996,39.2704459 L114.459996,39.2704459 C103.842181,38.33685 93.5386888,35.1705028 84.2188387,29.9770918 L83.9133724,29.7966383 L79.4391905,32.9004381 C63.7346321,43.8359188 61.1112162,54.7894449 63.2674485,68.756544 L63.5729147,68.9369975 C87.6328731,70.1460358 106.535843,68.5760906 125.366938,59.5534167 L130.757518,56.972932 L130.398146,56.7563878 Z" id="Path" fill="#000000" opacity="0.0761904762"></path>
                        <path d="M130.344241,56.7563878 C122.060715,52.0285067 116.508417,45.9291792 114.459996,39.3426273 L114.459996,39.3426273 C103.919775,38.4224794 93.6899726,35.2869424 84.4344619,30.1394999 L84.111027,29.9590464 L79.6727823,33.0448009 C64.0221298,43.8720095 61.4166824,54.8435809 63.5010403,68.756544 L63.8065065,68.9369975 C87.8125591,70.1099451 106.553811,68.5760906 125.313032,59.5534167 L130.703613,56.972932 L130.344241,56.7563878 Z" id="Path" fill="#000000" opacity="0.0857142857"></path>
                        <path d="M130.272366,56.7563878 C122.024778,52.046552 116.490448,45.9291792 114.459996,39.4148086 L114.459996,39.4148086 C103.957036,38.490635 93.764449,35.3613946 84.5422735,30.2297267 L84.2188387,30.0492732 L79.7805939,33.1350276 C64.2018158,43.9622363 61.5963685,54.7894449 63.6088519,68.7204533 L63.9143181,68.9009068 C87.8125591,70.0558091 106.57178,68.5760906 125.277095,59.5534167 L130.667675,56.9909773 L130.272366,56.7563878 Z" id="Path" fill="#000000" opacity="0.0952380952"></path>
                        <path d="M130.200492,56.7563878 C121.952903,52.0645974 116.562323,46.0374513 114.442028,39.4689447 L114.442028,39.4689447 C103.977965,38.557201 93.8216692,35.4462696 84.6321165,30.3379987 L84.3266503,30.1575453 L79.9063741,33.2252544 C64.3815018,44.052463 61.7940231,54.8796716 63.8604123,68.6663173 L64.1838472,68.8467708 C88.0102137,70.0558091 106.679591,68.5580452 125.277095,59.5534167 L130.667675,56.9909773 L130.200492,56.7563878 Z" id="Path" fill="#000000" opacity="0.104761905"></path>
                        <path d="M130.146586,56.7563878 C121.952903,52.0826427 116.562323,46.073542 114.442028,39.5411261 L114.442028,39.5411261 C104.014816,38.6274776 93.8953051,35.5227108 84.7399281,30.4282255 L84.4344619,30.247772 L80.0321543,33.3154811 C64.5611878,44.1426897 62.0635521,54.8616263 64.0400984,68.6302266 L64.3635332,68.8106801 C88.1000567,70.001673 106.715529,68.5039092 125.259126,59.5353714 L130.541895,56.9909773 L130.146586,56.7563878 Z" id="Path" fill="#000000" opacity="0.114285714"></path>
                        <path d="M130.074712,56.7563878 C121.916966,52.1006881 116.454511,46.1096326 114.424059,39.5952621 L114.424059,39.5952621 C104.045176,38.6995333 93.9691216,35.6256905 84.8477397,30.5725883 L84.5422735,30.3921348 L80.1579346,33.4417985 C64.7408738,44.1607351 62.1893323,54.9157623 64.2197844,68.6121813 L64.5432192,68.7926347 C88.1898998,70.001673 106.733497,68.5039092 125.223189,59.5714621 L130.470021,57.027068 L130.074712,56.7563878 Z" id="Path" fill="#000000" opacity="0.123809524"></path>
                        <path d="M130.002837,56.7563878 C121.952903,52.1187334 116.436542,46.1457233 114.424059,39.7035342 L114.424059,39.7035342 C104.080801,38.7997938 94.0415638,35.7259779 84.9555514,30.6808603 L84.6500851,30.5004069 L80.2837148,33.5500706 C64.9205599,44.2148711 62.3151125,54.9338077 64.417439,68.5941359 L64.7229052,68.7745894 C88.2797428,69.9655823 106.751466,68.4858638 125.169283,59.5714621 L130.416115,57.0451134 L130.002837,56.7563878 Z" id="Path" fill="#000000" opacity="0.133333333"></path>
                        <path d="M129.948931,56.7563878 C121.845092,52.1367788 116.418574,46.1998594 114.424059,39.7396249 L114.424059,39.7396249 C104.116324,38.8284044 94.1137961,35.7545826 85.063363,30.716951 L84.7578967,30.5364976 L80.409495,33.568116 C65.1002459,44.1968258 62.5487044,54.8616263 64.597125,68.4678185 L64.9025913,68.648272 C88.3695858,69.8392649 106.769434,68.3595464 125.133346,59.4812353 L130.344241,56.972932 L129.948931,56.7563878 Z" id="Path" fill="#000000" opacity="0.142857143"></path>
                        <path d="M129.877057,56.7563878 C121.809155,52.1548241 116.418574,46.2359501 114.40609,39.7937609 L114.40609,39.7937609 C104.138902,38.8784111 94.1782696,35.8042946 85.1711746,30.7710871 L84.8657083,30.5906336 L80.4454322,33.6042067 C65.1900889,44.2148711 62.656516,54.8435809 64.686968,68.3956371 L64.9924343,68.5760906 C88.3516172,69.7490382 106.715529,68.287365 124.989597,59.4451446 L130.182523,56.9368413 L129.877057,56.7563878 Z" id="Path" fill="#000000" opacity="0.152380952"></path>
                        <path d="M129.805183,56.7563878 C121.773217,52.1728695 116.400605,46.2720408 114.40609,39.8659423 L114.40609,39.8659423 C104.174418,38.9431169 94.2504948,35.868993 85.2789862,30.8432685 L84.97352,30.662815 L80.6251182,33.6944334 C65.4416493,44.2509618 62.9080764,54.8435809 64.9385285,68.3595464 L65.2439947,68.5219545 C88.6031776,69.7129475 106.805372,68.233229 125.007566,59.4992807 L130.200492,57.0090227 L129.805183,56.7563878 Z" id="Path" fill="#000000" opacity="0.161904762"></path>
                        <path d="M129.751277,56.7563878 C121.73728,52.1909148 116.382637,46.3081315 114.40609,39.9200784 L114.40609,39.9200784 C104.212488,39.0344707 94.3187884,36.003266 85.3688292,31.023722 L85.0813316,30.8432685 L80.6251182,33.7846602 C65.4955551,44.3050979 62.9799508,54.8616263 64.9924343,68.3054103 L65.2979005,68.4858638 C88.5133346,69.6588114 106.625686,68.1971383 124.845848,59.46319 L130.002837,56.9548866 L129.751277,56.7563878 Z" id="Path" fill="#000000" opacity="0.171428571"></path>
                        <path d="M129.679402,56.7563878 C121.719312,52.2089602 116.364668,46.3442222 114.388122,39.9922598 L114.298279,39.9922598 C104.149018,39.1078335 94.2985496,36.0890409 85.3867978,31.131994 L85.0993002,30.9515406 L80.8048042,33.8748869 C65.729147,44.3592339 63.2315113,54.8616263 65.2439947,68.2693197 L65.5494609,68.4317278 C88.6570834,69.6046754 106.769434,68.1430022 124.845848,59.4090539 L129.984869,56.9187959 L129.679402,56.7563878 Z" id="Path" fill="#000000" opacity="0.180952381"></path>
                        <path d="M129.607528,56.7563878 C121.683374,52.2270055 116.346699,46.3983582 114.388122,40.0463958 L114.298279,40.0463958 C104.206089,39.1436508 94.4133255,36.1318079 85.5485152,31.2041754 L85.2610176,31.023722 L80.9844903,34.0012043 C65.9627388,44.4314153 63.4651031,54.897717 65.4775865,68.287365 L65.7830528,68.4678185 C88.8008322,69.6227207 106.859277,68.1790929 124.845848,59.4451446 L129.9669,56.9548866 L129.607528,56.7563878 Z" id="Path" fill="#000000" opacity="0.19047619"></path>
                        <path d="M129.553622,56.7563878 C121.647437,52.2450509 116.346699,46.4344489 114.370153,40.1185772 L114.370153,40.1185772 C104.279394,39.2457646 94.4841853,36.251614 85.6203896,31.3304929 L85.3149234,31.1500394 L81.0743333,34.1094764 C66.1244562,44.5035967 63.6268205,54.9338077 65.6213354,68.233229 L65.9268016,68.3956371 C88.854738,69.5685847 106.841309,68.1069115 124.773974,59.3729632 L129.877057,56.9007506 L129.553622,56.7563878 Z" id="Path" fill="#000000" opacity="0.2"></path>
                        <path d="M127.343484,52.6240032 C119.724797,48.2931197 114.334216,45.1712746 112.447513,39.0899924 L112.447513,39.0899924 C102.722344,38.246126 93.28541,35.3432985 84.7578967,30.5725883 L84.4703991,30.4101801 L80.3915264,33.2613451 C65.998676,43.3126038 63.5908833,54.1398124 65.5135237,66.9159186 L65.8010214,67.872322 C87.8844335,68.9911336 105.188197,67.6016418 122.438056,59.2466458 L127.343484,56.8827052 L127.343484,52.6240032 Z" id="Path" fill="url(#linearGradient-26)"></path>
                        <path d="M65.8010214,66.7715558 L65.5135237,65.8151524 C65.1728126,63.6417067 64.9866661,61.4466517 64.9564971,59.2466458 C64.9332701,61.7901022 65.1195809,64.3311299 65.5135237,66.8437372 L65.8010214,67.8001406 C87.8844335,68.9189522 105.188197,67.5294604 122.438056,59.1744644 L127.343484,56.8827052 L127.343484,55.9443472 L122.438056,58.3082877 C105.188197,66.5550116 87.8125591,67.9445034 65.8010214,66.7715558 Z" id="Path" fill="url(#linearGradient-27)" style="mix-blend-mode: multiply;"></path>
                        <path d="M127.055986,52.461595 C119.437299,48.1126662 114.334216,42.5186085 112.447513,36.4553716 L112.447513,36.4553716 C102.725655,35.5944101 93.2921998,32.6926525 84.7578967,27.9379675 L84.4703991,27.7755594 L80.3915264,30.6808603 C66.0166446,40.6960283 63.5908833,50.7292417 65.5135237,63.5233932 L65.8010214,63.6858013 C87.8844335,64.8046129 105.188197,63.4151211 122.438056,55.0601251 L127.343484,52.6240032 L127.055986,52.461595 Z" id="Path" fill="url(#linearGradient-28)"></path>
                        <g id="Group" opacity="0.2" transform="translate(64.956869, 56.521798)">
                            <polygon id="Path" fill="url(#linearGradient-29)" points="62.0811483 0.812040648 62.3866146 0.992494125 62.0991169 0.830085995"></polygon>
                            <path d="M0.556654275,11.8197028 L0.84415191,11.9821109 C22.9275641,13.1009224 40.231328,11.7114307 57.4811861,3.35643468 L62.3866146,0.992494125 L62.3866146,3.64516024 L57.4811861,6.00910079 C40.231328,14.3640968 22.9275641,15.7535886 0.84415191,14.634777 L0.556654275,13.6783736 C0.0927712581,11.3023657 -0.0822049728,8.87859231 0.0355648099,6.46023448 C0.114276955,8.25475594 0.288220409,10.0437854 0.556654275,11.8197028 Z" id="Path" fill="url(#linearGradient-30)"></path>
                        </g>
                        <polygon id="Path" fill="url(#linearGradient-31)" opacity="0.2" points="127.038018 61.2496794 127.343484 61.3579515 127.055986 61.177498"></polygon>
                        <path d="M67.7056932,44.0344177 C64.8127483,49.8991557 64.5432192,56.142846 65.6033667,63.1624862 L65.908833,63.3248944 C87.9742765,64.4437059 105.27804,63.0542142 122.527899,54.6992182 L126.984112,52.5518218 L127.253641,52.7142299 L122.348213,55.0781705 C105.080386,63.5053479 87.8125591,64.967021 65.7111784,63.7760281 L65.4236807,63.5955746 C64.327596,56.3593902 64.6330622,50.0074278 67.7056932,44.0344177 Z" id="Path" fill="url(#radialGradient-32)" style="mix-blend-mode: color-dodge;"></path>
                        <path d="M78.4868545,60.5639562 C95,60.5639562 107.056932,58.1458796 118.736524,52.4976857 L119.311519,52.2270055 C114.641708,49.1799134 110.962508,44.8263135 108.728012,39.7035342 C100.320621,38.7960613 92.1617249,36.2913967 84.6860223,32.322987 L82.1524494,34.1275218 C70.0955173,42.4825178 68.0470967,50.5307428 69.1431814,60.347412 C72.50331,60.4917748 75.575941,60.5639562 78.4868545,60.5639562 Z" id="Path" fill="url(#linearGradient-33)"></path>
                        <path d="M118.574806,52.5698671 C114.238371,49.5824788 110.82615,45.4303041 108.728012,40.5877562 C100.320621,39.6802833 92.1617249,37.1756188 84.6860223,33.207209 L82.1524494,35.0117438 C72.1080008,41.9952934 68.981464,48.6901174 68.8736524,56.4315715 C68.7478721,48.3111651 71.7486287,41.3817515 82.1524494,34.1275218 L84.6860223,32.322987 C92.1617249,36.2913967 100.320621,38.7960613 108.728012,39.7035342 C110.965458,44.8196765 114.644393,49.1666908 119.311519,52.2089602 L118.736524,52.4796404 L118.574806,52.5698671 Z" id="Path" fill="url(#linearGradient-34)" style="mix-blend-mode: multiply;"></path>
                        <path d="M73.2399447,64.4617513 C73.2399447,66.1219233 76.4923397,69.2618138 80.4274636,69.2076777 C84.3625875,69.1535417 87.4172499,65.9053791 87.3993601,64.2632525 C87.3813127,62.6211258 84.2188387,61.3579515 80.2657462,61.3579515 C76.3126537,61.3579515 73.2220541,62.8196246 73.2399447,64.4617513 Z" id="Path" fill="url(#radialGradient-35)" style="mix-blend-mode: color-dodge;"></path>
                        <path d="M86.0156989,32.4853951 C85.602421,33.8568415 88.31568,35.8779205 92.0531492,36.996732 C95.7906185,38.1155436 99.1507471,37.8809541 99.564025,36.4914623 C99.9773028,35.1019705 97.2640439,33.0808916 93.5265746,31.9801254 C89.7891054,30.8793592 86.5008511,31.1500394 86.0156989,32.4853951 Z" id="Path" fill="url(#radialGradient-36)" style="mix-blend-mode: color-dodge;"></path>
                        <path d="M82.1524494,34.0914311 L84.6860223,32.2868963 C92.1591855,36.2678611 100.318205,38.7848116 108.728012,39.7035342 C110.907747,44.6857087 114.461699,48.9373581 118.970115,51.9563253 L119.311519,51.7758718 C114.644393,48.7336025 110.965458,44.3865882 108.728012,39.2704459 C100.320621,38.362973 92.1617249,35.8583084 84.6860223,31.8898986 L82.1524494,33.6944334 C71.7306601,40.9125725 68.7478721,47.8780767 68.8736524,55.9984832 L68.8736524,55.8541204 C68.9095896,47.9502581 71.9822205,41.1652074 82.1524494,34.0914311 Z" id="Path" fill="url(#radialGradient-37)" style="mix-blend-mode: screen;"></path>
                        <path d="M94.0656327,49.4841127 C94.8113904,49.1990221 95.3042851,48.4809468 95.3042851,47.6795779 C95.3042851,46.878209 94.8113904,46.1601337 94.0656327,45.8750431 C92.0834814,44.8654685 89.7408046,44.8654685 87.7586533,45.8750431 C86.4828825,46.6149024 86.1594477,47.6795779 86.7164744,48.5818453 L81.6672971,51.523237 L84.3625875,53.0751369 L89.4297333,50.1517905 C91.0055908,50.4682505 92.6418494,50.2325911 94.0656327,49.4841127 L94.0656327,49.4841127 Z" id="Path" fill="#FED2A3" style="mix-blend-mode: multiply;"></path>
                        <path d="M94.0476641,47.6073965 C92.0655128,46.5978218 89.722836,46.5978218 87.7406847,47.6073965 C86.4649139,48.3292104 86.1414791,49.4119313 86.6985058,50.3141987 L83.1946283,52.3352776 L81.6493285,51.4330102 L86.6985058,48.4916185 C86.1414791,47.5713058 86.4649139,46.5246756 87.7406847,45.7848164 C89.722836,44.7752417 92.0655128,44.7752417 94.0476641,45.7848164 C95.3414034,46.5246756 95.6828069,47.5893512 95.089843,48.5277092 C94.8183318,48.1438197 94.4615106,47.828723 94.0476641,47.6073965 Z" id="Path" fill="url(#linearGradient-38)" style="mix-blend-mode: multiply;"></path>
                        <g id="Group" style="mix-blend-mode: color-dodge;" transform="translate(81.505580, 44.702819)">
                            <polygon id="Path" fill="url(#radialGradient-39)" style="mix-blend-mode: multiply;" points="4.99527142 3.48202851 5.15698884 3.80684477 0.359372045 6.60387367 0 6.3873295"></polygon>
                            <path d="M12.5061472,1.11808796 C10.5239959,0.108513285 8.18131904,0.108513285 6.19916777,1.11808796 C5.36849493,1.46604241 4.85403539,2.31015782 4.92339701,3.2113483 C4.56402497,2.34517161 4.92339701,1.40681353 6.09135616,0.757181007 C8.07350742,-0.252393669 10.4161843,-0.252393669 12.3983355,0.757181007 C13.0399853,1.05740846 13.5098601,1.63562957 13.6741063,2.32712626 C13.436455,1.80009628 13.0234949,1.37261165 12.5061472,1.11808796 Z" id="Path" fill="url(#radialGradient-40)" style="mix-blend-mode: multiply;"></path>
                        </g>
                    </g>
                </g>
            </g>
        </g>
    </g>
</svg>