<?xml version="1.0" encoding="UTF-8"?>
<svg width="177px" height="192px" viewBox="0 0 177 192" version="1.1" xmlns="http://www.w3.org/2000/svg" xmlns:xlink="http://www.w3.org/1999/xlink">
    <title>15Artboard 1</title>
    <defs>
        <linearGradient x1="0%" y1="50.0160031%" x2="99.986755%" y2="50.0160031%" id="linearGradient-1">
            <stop stop-color="#F5F7FA" offset="0%"></stop>
            <stop stop-color="#F2F5F9" offset="22%"></stop>
            <stop stop-color="#EAEFF5" offset="36%"></stop>
            <stop stop-color="#DCE4F0" offset="46%"></stop>
            <stop stop-color="#D1DCEB" offset="52%"></stop>
            <stop stop-color="#C9D3E2" offset="100%"></stop>
        </linearGradient>
        <radialGradient cx="50%" cy="55.2173913%" fx="50%" fy="55.2173913%" r="83.3554297%" gradientTransform="translate(0.500000,0.552174),scale(0.599841,1.000000),translate(-0.500000,-0.552174)" id="radialGradient-2">
            <stop stop-color="#D3DDED" offset="0%"></stop>
            <stop stop-color="#DDE5F1" offset="33%"></stop>
            <stop stop-color="#F9FAFD" offset="90%"></stop>
            <stop stop-color="#FFFFFF" offset="100%"></stop>
        </radialGradient>
        <linearGradient x1="0%" y1="49.862259%" x2="134.663866%" y2="49.862259%" id="linearGradient-3">
            <stop stop-color="#F5F7FA" offset="0%"></stop>
            <stop stop-color="#C3CFE2" offset="100%"></stop>
        </linearGradient>
        <linearGradient x1="0%" y1="50.137741%" x2="134.663866%" y2="50.137741%" id="linearGradient-4">
            <stop stop-color="#F5F7FA" offset="0%"></stop>
            <stop stop-color="#C3CFE2" offset="100%"></stop>
        </linearGradient>
        <linearGradient x1="0%" y1="49.862259%" x2="134.381551%" y2="49.862259%" id="linearGradient-5">
            <stop stop-color="#F5F7FA" offset="0%"></stop>
            <stop stop-color="#C3CFE2" offset="100%"></stop>
        </linearGradient>
        <radialGradient cx="50.0016938%" cy="49.988693%" fx="50.0016938%" fy="49.988693%" r="50.0701765%" gradientTransform="translate(0.500017,0.499887),scale(1.000000,0.998564),rotate(81.152518),translate(-0.500017,-0.499887)" id="radialGradient-6">
            <stop stop-color="#9CB0BA" offset="0%"></stop>
            <stop stop-color="#D1DADF" offset="51%"></stop>
            <stop stop-color="#FFFFFF" offset="100%"></stop>
        </radialGradient>
        <radialGradient cx="-44.7588774%" cy="50.8474576%" fx="-44.7588774%" fy="50.8474576%" r="49.8424971%" gradientTransform="translate(-0.447589,0.508475),scale(1.000000,0.591586),translate(0.447589,-0.508475)" id="radialGradient-7">
            <stop stop-color="#B8CFDB" offset="0%"></stop>
            <stop stop-color="#CDDDE5" offset="34%"></stop>
            <stop stop-color="#FFFFFF" offset="100%"></stop>
        </radialGradient>
        <radialGradient cx="50%" cy="59.1690544%" fx="50%" fy="59.1690544%" r="83.3634505%" gradientTransform="translate(0.500000,0.591691),scale(0.599783,1.000000),translate(-0.500000,-0.591691)" id="radialGradient-8">
            <stop stop-color="#9CB0BA" offset="0%"></stop>
            <stop stop-color="#D1DADF" offset="51%"></stop>
            <stop stop-color="#FFFFFF" offset="100%"></stop>
        </radialGradient>
        <radialGradient cx="50%" cy="60.1572327%" fx="50%" fy="60.1572327%" r="83.3016356%" gradientTransform="translate(0.500000,0.601572),scale(0.600228,1.000000),translate(-0.500000,-0.601572)" id="radialGradient-9">
            <stop stop-color="#9CB0BA" offset="0%"></stop>
            <stop stop-color="#D1DADF" offset="51%"></stop>
            <stop stop-color="#FFFFFF" offset="100%"></stop>
        </radialGradient>
        <linearGradient x1="51.0705843%" y1="69.8699522%" x2="51.0705843%" y2="97.5827664%" id="linearGradient-10">
            <stop stop-color="#F5F7FA" offset="0%"></stop>
            <stop stop-color="#F2F5F9" offset="30%"></stop>
            <stop stop-color="#E8EDF5" offset="53%"></stop>
            <stop stop-color="#D7E1EF" offset="74%"></stop>
            <stop stop-color="#C0CFE6" offset="94%"></stop>
            <stop stop-color="#B7C8E2" offset="100%"></stop>
        </linearGradient>
        <linearGradient x1="0%" y1="49.4971491%" x2="105.113636%" y2="49.4971491%" id="linearGradient-11">
            <stop stop-color="#064BA2" offset="0%"></stop>
            <stop stop-color="#667EEA" offset="100%"></stop>
        </linearGradient>
        <linearGradient x1="0.184903243%" y1="48.2234528%" x2="100.285593%" y2="48.2234528%" id="linearGradient-12">
            <stop stop-color="#064BA2" offset="0%"></stop>
            <stop stop-color="#667EEA" offset="100%"></stop>
        </linearGradient>
        <linearGradient x1="49.7064579%" y1="5.53987972%" x2="49.7064579%" y2="103.595751%" id="linearGradient-13">
            <stop stop-color="#F5F7FA" offset="0%"></stop>
            <stop stop-color="#F2F5F9" offset="30%"></stop>
            <stop stop-color="#E8EDF5" offset="53%"></stop>
            <stop stop-color="#D7E1EF" offset="74%"></stop>
            <stop stop-color="#C0CFE6" offset="94%"></stop>
            <stop stop-color="#B7C8E2" offset="100%"></stop>
        </linearGradient>
        <linearGradient x1="-0.36045915%" y1="50.255102%" x2="100%" y2="50.255102%" id="linearGradient-14">
            <stop stop-color="#F5F7FA" offset="0%"></stop>
            <stop stop-color="#B7C8E2" offset="100%"></stop>
        </linearGradient>
        <radialGradient cx="49.8693353%" cy="49.9725074%" fx="49.8693353%" fy="49.9725074%" r="50.0698577%" gradientTransform="translate(0.498693,0.499725),scale(1.000000,0.998569),rotate(80.882847),translate(-0.498693,-0.499725)" id="radialGradient-15">
            <stop stop-color="#A4C1DE" offset="0%"></stop>
            <stop stop-color="#AFC8E2" offset="19%"></stop>
            <stop stop-color="#CBDCEC" offset="52%"></stop>
            <stop stop-color="#FAFBFD" offset="96%"></stop>
            <stop stop-color="#FFFFFF" offset="100%"></stop>
        </radialGradient>
        <linearGradient x1="-0.578960514%" y1="49.7089976%" x2="99.9285848%" y2="49.7089976%" id="linearGradient-16">
            <stop stop-color="#F5F7FA" offset="0%"></stop>
            <stop stop-color="#B7C8E2" offset="100%"></stop>
        </linearGradient>
        <linearGradient x1="0%" y1="50.041806%" x2="190.350877%" y2="50.041806%" id="linearGradient-17">
            <stop stop-color="#667EEA" offset="0%"></stop>
            <stop stop-color="#05397A" offset="100%"></stop>
        </linearGradient>
        <linearGradient x1="-1.64464926%" y1="49.9688636%" x2="141.110907%" y2="49.9688636%" id="linearGradient-18">
            <stop stop-color="#F5F7FA" offset="0%"></stop>
            <stop stop-color="#E5EBF4" offset="32%"></stop>
            <stop stop-color="#BBCBE4" offset="94%"></stop>
            <stop stop-color="#B7C8E2" offset="100%"></stop>
        </linearGradient>
        <radialGradient cx="50%" cy="50%" fx="50%" fy="50%" r="50.0754634%" gradientTransform="translate(0.500000,0.500000),scale(0.998493,1.000000),translate(-0.500000,-0.500000)" id="radialGradient-19">
            <stop stop-color="#3E7DBD" offset="0%"></stop>
            <stop stop-color="#FFFFFF" offset="100%"></stop>
        </radialGradient>
        <linearGradient x1="-0.0739775722%" y1="49.754012%" x2="100.121804%" y2="49.754012%" id="linearGradient-20">
            <stop stop-color="#F5F7FA" offset="0%"></stop>
            <stop stop-color="#B7C8E2" offset="100%"></stop>
        </linearGradient>
        <linearGradient x1="-0.319488818%" y1="51.1278195%" x2="100%" y2="51.1278195%" id="linearGradient-21">
            <stop stop-color="#F5F7FA" offset="0%"></stop>
            <stop stop-color="#C3CFE2" offset="100%"></stop>
        </linearGradient>
        <radialGradient cx="29.4216024%" cy="13.9356815%" fx="29.4216024%" fy="13.9356815%" r="91.9984789%" gradientTransform="translate(0.294216,0.139357),scale(1.000000,0.995258),translate(-0.294216,-0.139357)" id="radialGradient-22">
            <stop stop-color="#F5F7FA" offset="0%"></stop>
            <stop stop-color="#F3F5F9" offset="42%"></stop>
            <stop stop-color="#EBEFF5" offset="64%"></stop>
            <stop stop-color="#DDE4EF" offset="81%"></stop>
            <stop stop-color="#CBD5E6" offset="95%"></stop>
            <stop stop-color="#C3CFE2" offset="100%"></stop>
        </radialGradient>
        <linearGradient x1="-1.58172017%" y1="50.2845144%" x2="98.9689065%" y2="50.2845144%" id="linearGradient-23">
            <stop stop-color="#89F7FE" offset="0%"></stop>
            <stop stop-color="#66A6FF" offset="100%"></stop>
        </linearGradient>
        <linearGradient x1="0%" y1="49.5384444%" x2="61.1702128%" y2="49.4065714%" id="linearGradient-24">
            <stop stop-color="#667EEA" offset="0%"></stop>
            <stop stop-color="#05397A" offset="100%"></stop>
        </linearGradient>
        <radialGradient cx="50.0063859%" cy="49.9958658%" fx="50.0063859%" fy="49.9958658%" r="50%" id="radialGradient-25">
            <stop stop-color="#A4C1DE" offset="0%"></stop>
            <stop stop-color="#A7C3DF" offset="27%"></stop>
            <stop stop-color="#B0C9E3" offset="46%"></stop>
            <stop stop-color="#C1D4E8" offset="64%"></stop>
            <stop stop-color="#D7E4F1" offset="80%"></stop>
            <stop stop-color="#F4F8FB" offset="95%"></stop>
            <stop stop-color="#FFFFFF" offset="100%"></stop>
        </radialGradient>
        <linearGradient x1="0.671547931%" y1="50.178117%" x2="100%" y2="50.178117%" id="linearGradient-26">
            <stop stop-color="#F5F7FA" offset="0%"></stop>
            <stop stop-color="#B7C8E2" offset="100%"></stop>
        </linearGradient>
        <linearGradient x1="14.4067797%" y1="-577.285782%" x2="85.5932203%" y2="-601.007287%" id="linearGradient-27">
            <stop stop-color="#064BA2" offset="0%"></stop>
            <stop stop-color="#667EEA" offset="100%"></stop>
        </linearGradient>
        <linearGradient x1="-1.12784561e-12%" y1="46.2416054%" x2="100%" y2="46.2416054%" id="linearGradient-28">
            <stop stop-color="#064BA2" offset="0%"></stop>
            <stop stop-color="#667EEA" offset="100%"></stop>
        </linearGradient>
        <linearGradient x1="44.9908592%" y1="49.8413793%" x2="55.0091408%" y2="66.6413793%" id="linearGradient-29">
            <stop stop-color="#064BA2" offset="0%"></stop>
            <stop stop-color="#667EEA" offset="100%"></stop>
        </linearGradient>
        <linearGradient x1="0%" y1="50%" x2="100%" y2="50%" id="linearGradient-30">
            <stop stop-color="#F5F7FA" offset="0%"></stop>
            <stop stop-color="#B7C8E2" offset="100%"></stop>
        </linearGradient>
        <linearGradient x1="0%" y1="50%" x2="99.5555556%" y2="50%" id="linearGradient-31">
            <stop stop-color="#F5F7FA" offset="0%"></stop>
            <stop stop-color="#B7C8E2" offset="100%"></stop>
        </linearGradient>
        <linearGradient x1="-3.13014421e-13%" y1="51.0675318%" x2="100%" y2="51.0675318%" id="linearGradient-32">
            <stop stop-color="#667EEA" offset="0%"></stop>
            <stop stop-color="#05397A" offset="100%"></stop>
        </linearGradient>
        <linearGradient x1="-4.76190476%" y1="50.9537803%" x2="107.792208%" y2="50.9537803%" id="linearGradient-33">
            <stop stop-color="#667EEA" offset="0%"></stop>
            <stop stop-color="#05397A" offset="100%"></stop>
        </linearGradient>
        <linearGradient x1="0%" y1="50%" x2="100%" y2="50%" id="linearGradient-34">
            <stop stop-color="#F5F7FA" offset="0%"></stop>
            <stop stop-color="#B7C8E2" offset="100%"></stop>
        </linearGradient>
        <linearGradient x1="100.69844%" y1="55.7923268%" x2="69.3878769%" y2="53.2769275%" id="linearGradient-35">
            <stop stop-color="#667EEA" offset="0%"></stop>
            <stop stop-color="#05397A" offset="100%"></stop>
        </linearGradient>
        <linearGradient x1="-0.893619984%" y1="55.7949851%" x2="30.4241268%" y2="53.2784315%" id="linearGradient-36">
            <stop stop-color="#667EEA" offset="0%"></stop>
            <stop stop-color="#05397A" offset="100%"></stop>
        </linearGradient>
        <linearGradient x1="39.0038779%" y1="51.1387286%" x2="61.0214587%" y2="48.9115208%" id="linearGradient-37">
            <stop stop-color="#BCCDE8" offset="0%"></stop>
            <stop stop-color="#D0DCEE" offset="3%"></stop>
            <stop stop-color="#E1E8F4" offset="7%"></stop>
            <stop stop-color="#ECF1F7" offset="12%"></stop>
            <stop stop-color="#F3F6F9" offset="19%"></stop>
            <stop stop-color="#F5F7FA" offset="39%"></stop>
            <stop stop-color="#F1F4F9" offset="54%"></stop>
            <stop stop-color="#E4EAF5" offset="71%"></stop>
            <stop stop-color="#CEDAEE" offset="89%"></stop>
            <stop stop-color="#BCCDE8" offset="100%"></stop>
        </linearGradient>
        <linearGradient x1="18.0638183%" y1="50.3389575%" x2="81.7198486%" y2="50.3389575%" id="linearGradient-38">
            <stop stop-color="#6F2388" offset="0%"></stop>
            <stop stop-color="#CC2B5E" offset="100%"></stop>
        </linearGradient>
        <linearGradient x1="-7.30259749e-14%" y1="49.9097473%" x2="100%" y2="49.9097473%" id="linearGradient-39">
            <stop stop-color="#F5F7FA" offset="0%"></stop>
            <stop stop-color="#C3CFE2" offset="100%"></stop>
        </linearGradient>
        <linearGradient x1="0%" y1="49.9851252%" x2="100%" y2="49.9851252%" id="linearGradient-40">
            <stop stop-color="#89F7FE" offset="0%"></stop>
            <stop stop-color="#66A6FF" offset="100%"></stop>
        </linearGradient>
        <linearGradient x1="0.137728317%" y1="49.719439%" x2="100%" y2="49.719439%" id="linearGradient-41">
            <stop stop-color="#89F7FE" offset="0%"></stop>
            <stop stop-color="#66A6FF" offset="100%"></stop>
        </linearGradient>
        <linearGradient x1="43.830468%" y1="20.7785253%" x2="57.2895778%" y2="99.4491535%" id="linearGradient-42">
            <stop stop-color="#667EEA" offset="0%"></stop>
            <stop stop-color="#064BA2" offset="100%"></stop>
        </linearGradient>
        <linearGradient x1="55.969278%" y1="21.6283943%" x2="42.999931%" y2="98.3647523%" id="linearGradient-43">
            <stop stop-color="#064BA2" offset="0%"></stop>
            <stop stop-color="#667EEA" offset="100%"></stop>
        </linearGradient>
        <radialGradient cx="42.4664346%" cy="5.69812074%" fx="42.4664346%" fy="5.69812074%" r="92.0092759%" gradientTransform="translate(0.424664,0.056981),scale(0.959841,1.000000),translate(-0.424664,-0.056981)" id="radialGradient-44">
            <stop stop-color="#FF822F" offset="0%"></stop>
            <stop stop-color="#FF6B2F" offset="15%"></stop>
            <stop stop-color="#FF4E2F" offset="31%"></stop>
            <stop stop-color="#FC4C30" offset="48%"></stop>
            <stop stop-color="#F24532" offset="61%"></stop>
            <stop stop-color="#E23936" offset="73%"></stop>
            <stop stop-color="#CA293B" offset="85%"></stop>
            <stop stop-color="#AC1442" offset="95%"></stop>
            <stop stop-color="#9C0946" offset="100%"></stop>
        </radialGradient>
    </defs>
    <g id="Page-1" stroke="none" stroke-width="1" fill="none" fill-rule="evenodd">
        <g id="Mining-Provider-Windows-Onboarding-Steps-07" transform="translate(-570.000000, -487.000000)" fill-rule="nonzero">
            <g id="Group-4" transform="translate(531.000000, 461.000000)">
                <g id="15Artboard-1" transform="translate(39.000000, 26.000000)">
                    <g id="Group" transform="translate(0.000000, 76.500786)">
                        <path d="M136.26872,39.3670397 C136.205131,40.0621268 135.770278,40.668625 135.131782,40.9527513 L70.6511164,78.1088564 C68.9486588,78.9665131 66.9395803,78.9665131 65.2371227,78.1088564 L1.13543688,40.9527513 C0.506729184,40.6697709 0.0792333096,40.0708017 0.0165448416,39.3850592 L0.0165448416,73.3517217 C0.0838075175,74.0454384 0.517470252,74.6502767 1.15348353,74.9374332 L65.1649361,112.075519 C66.8673937,112.933176 68.8764722,112.933176 70.5789298,112.075519 L135.095689,74.8653554 C135.743977,74.5801005 136.186196,73.966066 136.250674,73.2616244 L136.26872,39.3670397 Z" id="Path" fill="url(#linearGradient-1)"></path>
                        <path d="M65.5980556,0.643242529 C67.3005132,-0.214414176 69.3095917,-0.214414176 71.0120493,0.643242529 L135.113735,37.7813282 C135.792835,38.0131318 136.249172,38.6504361 136.249172,39.3670397 C136.249172,40.0836433 135.792835,40.7209476 135.113735,40.9527513 L70.6511164,78.1088564 C68.9486588,78.9665131 66.9395803,78.9665131 65.2371227,78.1088564 L1.13543688,40.9527513 C0.456336967,40.7209476 0,40.0836433 0,39.3670397 C0,38.6504361 0.456336967,38.0131318 1.13543688,37.7813282 L65.5980556,0.643242529 Z" id="Path" fill="#F2F4F8"></path>
                    </g>
                    <path d="M135.113735,114.282114 L135.492715,114.552406 C136.02199,114.878246 136.315362,115.479844 136.245849,116.096806 C136.176336,116.713769 135.756427,117.235243 135.167875,117.435518 L132.659391,118.931132 L116.778343,128.193129 L94.2380825,141.23921 L81.6054304,148.573126 L75.0905913,152.357211 L71.8061018,154.267273 C71.2313207,154.618328 70.6275737,154.919746 70.0014372,155.168245 C68.7412236,155.587526 67.3849426,155.625143 66.1033617,155.276362 C65.4650625,155.088031 64.8572649,154.808865 64.2986971,154.447467 L61.0142076,152.519386 L54.4993684,148.735301 L41.8667164,141.347327 L19.470829,128.247187 L3.60782735,118.931132 L1.0632503,117.417498 C0.366762482,117.099464 -0.0528304988,116.377118 0.0165448416,115.615553 C0.11899608,115.165801 0.390272006,114.772399 0.774503964,114.516367 C0.890819255,114.413037 1.01786819,114.322425 1.15348353,114.246075 C1.01786819,114.322425 0.890819255,114.413037 0.774503964,114.516367 C0.403297739,114.781791 0.140551687,115.172117 0.0345914874,115.615553 C-0.034783853,116.377118 0.384809127,117.099464 1.08129694,117.417498 L3.66196729,118.895093 L19.5971555,127.940857 L42.1193694,140.93288 L54.7520215,148.266796 L61.2849073,152.032861 L64.5693968,153.942922 C65.0819554,154.269212 65.6337372,154.529551 66.2116416,154.717759 C66.7992123,154.87837 67.4073603,154.951238 68.0163061,154.933992 C68.6301835,154.926525 69.2391077,154.823164 69.8209707,154.627662 C70.3864048,154.374832 70.9349538,154.085924 71.4632155,153.762728 L74.7657517,151.870686 L81.2986374,148.12264 L93.9312895,140.91486 L116.597877,127.940857 L132.659391,118.931132 L135.222015,117.471556 C135.932659,117.164971 136.36831,116.439981 136.304814,115.669611 C136.196163,115.227051 135.941985,114.833669 135.582948,114.552406 L135.113735,114.282114 Z" id="Path" fill="#FFFFFF"></path>
                    <ellipse id="Oval" fill="url(#radialGradient-2)" style="mix-blend-mode: multiply;" cx="68.124586" cy="115.867825" rx="19.3460043" ry="11.6045255"></ellipse>
                    <polygon id="Path" fill="#C3CFE2" points="177 170.737049 177 172.286722 142.8377 192 142.8377 190.432308"></polygon>
                    <polygon id="Path" fill="url(#linearGradient-3)" points="142.8377 190.432308 142.8377 192 134.247496 187.008612 134.247496 185.45894"></polygon>
                    <polygon id="Path" fill="#F2F4F8" points="168.409797 165.745662 177 170.737049 142.8377 190.432308 134.247496 185.45894"></polygon>
                    <path d="M142.8377,190.432308 L141.448108,189.71153 C140.636009,189.279063 139.55321,188.666402 138.470411,188.053741 C137.387613,187.441079 136.340907,186.792379 135.546855,186.251796 L134.247496,185.422901 L135.619041,186.143679 C136.43114,186.576146 137.423706,187.188807 138.596738,187.801468 C139.76977,188.41413 140.726242,189.06283 141.520294,189.603413 L142.8377,190.432308 Z" id="Path" fill="#F1F2F2" style="mix-blend-mode: screen;"></path>
                    <polygon id="Path" fill="#F1F2F2" style="mix-blend-mode: screen;" points="177 170.737049 171.694286 173.872434 159.982013 180.683786 148.197553 187.40504 142.78356 190.414288 148.089273 187.278904 159.801547 180.467552 171.56796 173.746298"></polygon>
                    <polygon id="Path" fill="#C3CFE2" points="166.514899 161.619208 166.514899 163.1869 132.352598 182.882159 132.352598 181.314466"></polygon>
                    <polygon id="Path" fill="url(#linearGradient-3)" points="132.352598 181.314466 132.352598 182.882159 123.762395 177.890771 123.762395 176.341098"></polygon>
                    <polygon id="Path" fill="#F2F4F8" points="157.924695 156.64584 166.514899 161.619208 132.352598 181.314466 123.762395 176.341098"></polygon>
                    <path d="M132.352598,181.314466 L130.981053,180.593688 C130.150908,180.161222 129.068109,179.54856 128.003357,178.935899 C126.938605,178.323238 125.855806,177.674538 125.061753,177.133954 L123.762395,176.305059 L125.13394,177.025837 C125.964086,177.458304 126.938605,178.070965 128.111637,178.683627 C129.284669,179.296288 130.259187,179.944988 131.035193,180.485572 L132.352598,181.314466 Z" id="Path" fill="#F1F2F2" style="mix-blend-mode: screen;"></path>
                    <polygon id="Path" fill="#F1F2F2" style="mix-blend-mode: screen;" points="166.514899 161.619208 161.209185 164.754592 149.496912 171.565944 137.712452 178.395316 132.298458 181.404564 137.604172 178.269179 149.316445 171.457827 161.100905 164.736573"></polygon>
                    <polygon id="Path" fill="#C3CFE2" points="156.029798 152.465328 156.047844 154.015 121.867497 173.710259 121.867497 172.160586"></polygon>
                    <polygon id="Path" fill="url(#linearGradient-4)" points="121.867497 172.160586 121.867497 173.710259 113.277294 168.736891 113.277294 167.169198"></polygon>
                    <polygon id="Path" fill="#F2F4F8" points="147.439594 147.47394 156.029798 152.465328 121.867497 172.160586 113.277294 167.169198"></polygon>
                    <path d="M121.831404,172.160586 L120.459859,171.439808 L117.482162,169.763999 C116.41741,169.133318 115.334611,168.502638 114.558606,167.962054 L113.2412,167.11514 L114.612746,167.835918 L117.590442,169.511727 L120.532045,171.313672 L121.831404,172.160586 Z" id="Path" fill="#F1F2F2" style="mix-blend-mode: screen;"></path>
                    <polygon id="Path" fill="#F1F2F2" style="mix-blend-mode: screen;" points="156.120031 152.465328 150.706037 155.600712 138.993764 162.412064 127.245398 169.133318 121.831404 172.160586 127.245398 169.025202 138.885484 162.177811 150.706037 155.474576"></polygon>
                    <polygon id="Path" fill="#C3CFE2" points="145.562743 143.293428 145.562743 144.86112 111.400443 164.556378 111.382396 162.988686"></polygon>
                    <polygon id="Path" fill="url(#linearGradient-5)" points="111.382396 162.988686 111.400443 164.556378 102.810239 159.564991 102.792193 158.015318"></polygon>
                    <polygon id="Path" fill="#F2F4F8" points="136.97254 138.30204 145.562743 143.293428 111.382396 162.988686 102.792193 158.015318"></polygon>
                    <path d="M111.382396,162.988686 L110.010851,162.267908 C109.198752,161.835441 108.206186,161.22278 107.033154,160.610119 C105.860122,159.997458 104.90365,159.348757 104.109598,158.808174 L102.792193,157.979279 L104.181784,158.700057 C104.993883,159.132524 105.986449,159.745185 107.159481,160.357846 C108.332513,160.970508 109.288985,161.619208 110.083037,162.159791 L111.382396,162.988686 Z" id="Path" fill="#F1F2F2" style="mix-blend-mode: screen;"></path>
                    <polygon id="Path" fill="#F1F2F2" style="mix-blend-mode: screen;" points="145.562743 143.293428 140.257029 146.428812 128.526709 153.168086 116.760296 159.90736 111.346303 162.916608 116.652017 159.781224 128.382336 152.969872 140.148749 146.248617"></polygon>
                    <polygon id="Path" fill="#C3CFE2" points="135.077642 134.139547 135.077642 135.68922 100.915341 155.384478 100.915341 153.834806"></polygon>
                    <polygon id="Path" fill="url(#linearGradient-4)" points="100.915341 153.834806 100.915341 155.384478 92.325138 150.41111 92.325138 148.843418"></polygon>
                    <polygon id="Path" fill="#F2F4F8" points="126.487438 129.14816 135.077642 134.139547 100.915341 153.834806 92.325138 148.843418"></polygon>
                    <polygon id="Path" fill="#F1F2F2" style="mix-blend-mode: screen;" points="100.915341 153.834806 99.5257497 153.114028 96.5660998 151.366141 93.6425431 149.564196 92.3431846 148.717282 93.7147297 149.43806 96.6924263 151.113869 99.6159829 152.915814"></polygon>
                    <polygon id="Path" fill="#F1F2F2" style="mix-blend-mode: screen;" points="135.077642 134.139547 129.771928 137.256912 118.059655 144.158361 106.275195 150.879616 100.861201 153.906884 106.166915 150.771499 117.879188 143.942128 129.645601 137.220873"></polygon>
                    <ellipse id="Oval" fill="url(#radialGradient-6)" style="mix-blend-mode: multiply;" transform="translate(124.429377, 130.692468) rotate(-81.140000) translate(-124.429377, -130.692468) " cx="124.429377" cy="130.692468" rx="26.5796405" ry="26.6178516"></ellipse>
                    <ellipse id="Oval" fill="url(#radialGradient-7)" style="mix-blend-mode: multiply;" transform="translate(140.909705, 163.067568) rotate(-54.100000) translate(-140.909705, -163.067568) " cx="140.909705" cy="163.067568" rx="15.7391547" ry="26.6050123"></ellipse>
                    <ellipse id="Oval" fill="url(#radialGradient-8)" style="mix-blend-mode: multiply;" cx="126.216739" cy="152.0689" rx="10.4851012" ry="6.28878791"></ellipse>
                    <ellipse id="Oval" fill="url(#radialGradient-9)" style="mix-blend-mode: multiply;" cx="136.034114" cy="158.339668" rx="9.54667562" ry="5.73018497"></ellipse>
                    <path d="M137.892919,158.718077 C137.909998,158.442041 137.909998,158.165217 137.892919,157.889182 C137.885555,157.514104 137.779769,157.147519 137.586126,156.826034 C137.200451,156.334326 136.6801,155.964995 136.088254,155.762887 C135.631363,155.537743 135.153963,155.356725 134.662569,155.222303 C134.510769,155.168715 134.345156,155.168715 134.193356,155.222303 C134.091231,155.296112 134.020426,155.405373 133.994843,155.528634 C133.814118,156.02324 133.814118,156.565681 133.994843,157.060287 C134.139216,157.528793 134.427963,157.96126 134.554289,158.429765 C135.092479,158.774757 135.719414,158.956294 136.358954,158.952329 C136.880011,158.963659 137.399071,158.884393 137.892919,158.718077 Z" id="Path" fill="url(#linearGradient-10)"></path>
                    <path d="M136.358954,158.970349 C135.719414,158.974313 135.092479,158.792776 134.554289,158.447785 C134.554289,158.447785 134.554289,158.573921 134.554289,158.627979 C134.554289,158.682038 134.554289,159.006388 134.554289,159.204602 C134.568374,159.392126 134.644565,159.569635 134.770849,159.709146 C134.944827,159.836123 135.151363,159.911114 135.366388,159.92538 C135.86306,159.997594 136.367588,159.997594 136.86426,159.92538 C137.069812,159.904149 137.264471,159.822641 137.423706,159.691127 C137.589045,159.517787 137.696266,159.29737 137.730499,159.060446 C137.730499,158.952329 137.730499,158.862232 137.730499,158.772135 C137.286333,158.908624 136.82365,158.97549 136.358954,158.970349 L136.358954,158.970349 Z" id="Path" fill="url(#linearGradient-11)"></path>
                    <path d="M127.101024,151.924744 L125.29636,151.924744 C124.775258,151.916271 124.255916,151.862003 123.744348,151.762569 C123.228588,151.650815 122.75015,151.408855 122.354757,151.05981 C121.940599,150.659645 121.689818,150.120315 121.650937,149.546177 C121.536013,149.652907 121.454524,149.790602 121.416331,149.942605 C121.338502,150.273473 121.390144,150.621529 121.560704,150.915655 C121.789466,151.419203 122.167392,151.840583 122.643503,152.122958 C123.13331,152.380517 123.678038,152.516494 124.231608,152.519386 C124.773007,152.519386 125.314406,152.519386 125.873853,152.519386 C127.182378,152.763847 128.51351,152.866553 129.844115,152.825717 C130.11628,152.80904 130.372979,152.693699 130.56598,152.501366 C130.737566,152.227711 130.795813,151.898142 130.7284,151.582375 L130.7284,151.366141 C130.341625,151.596946 129.921663,151.767108 129.483182,151.870686 C128.695014,151.99377 127.893979,152.011948 127.101024,151.924744 L127.101024,151.924744 Z" id="Path" fill="url(#linearGradient-12)"></path>
                    <path d="M129.302715,149.564196 C128.040707,149.164429 126.749492,148.863198 125.440733,148.663224 C125.238816,148.830336 124.980598,148.91413 124.718867,148.897477 L123.148809,148.987574 C122.799514,148.987274 122.45236,149.042006 122.12015,149.149749 C121.938092,149.216771 121.772109,149.321121 121.632891,149.456079 C121.671771,150.030218 121.922553,150.569548 122.33671,150.969713 C122.732103,151.318757 123.210541,151.560718 123.726302,151.672472 C124.237869,151.771906 124.757212,151.826174 125.278313,151.834647 L127.082978,151.834647 C127.88541,151.942988 128.698796,151.942988 129.501228,151.834647 C129.974981,151.753293 130.432197,151.595031 130.854727,151.366141 C130.832714,150.949384 130.68836,150.548309 130.439654,150.212896 C130.131274,149.891689 129.736428,149.666402 129.302715,149.564196 Z" id="Path" fill="url(#linearGradient-13)"></path>
                    <path d="M136.26872,158.357688 C135.174015,158.32872 134.151682,157.805067 133.489537,156.934151 C132.876313,156.124821 132.490105,155.166975 132.370645,154.159156 C132.370645,153.582533 132.244318,153.023931 132.208225,152.465328 C132.172132,151.906725 132.208225,151.870686 132.208225,151.564355 C132.029168,150.108966 131.739588,148.66927 131.341986,147.257707 C130.861814,145.653599 130.505848,144.015008 130.277234,142.356416 C130.17825,139.63716 130.439172,136.916755 131.05324,134.265683 C131.12417,133.722387 131.335645,133.206918 131.666826,132.770069 C132.100545,132.323902 132.661338,132.021907 133.272977,131.905136 L139.60735,130.103191 L139.065951,138.518274 C138.88561,140.657558 138.831377,142.805577 138.903531,144.951217 C138.903531,145.942287 139.065951,146.951376 139.17423,147.942446 C139.661465,150.677524 139.606281,153.4815 139.011811,156.195354 C138.646976,157.365412 137.585188,158.180387 136.358954,158.231551 L136.26872,158.357688 Z" id="Path" fill="url(#linearGradient-14)"></path>
                    <ellipse id="Oval" fill="url(#radialGradient-15)" style="mix-blend-mode: multiply;" transform="translate(133.312694, 133.515200) rotate(-80.870000) translate(-133.312694, -133.515200) " cx="133.312694" cy="133.5152" rx="7.60449691" ry="7.61539578"></ellipse>
                    <path d="M127.534144,150.825558 C126.918512,150.839528 126.305904,150.735542 125.729479,150.519227 C124.844346,150.114777 124.111141,149.439477 123.636068,148.591146 C123.116227,147.714218 122.692686,146.783832 122.372803,145.816151 L120.369626,140.410316 C119.921976,139.4084 119.659094,138.33404 119.59362,137.238893 C119.639816,135.813302 120.160525,134.443744 121.073445,133.346692 C121.996331,132.288221 123.037818,131.338993 124.177468,130.517638 C124.758304,130.001934 125.449726,129.625924 126.198692,129.418452 C126.408331,129.390878 126.620686,129.390878 126.830325,129.418452 C127.160961,129.401459 127.492254,129.401459 127.82289,129.418452 C129.627555,129.688743 131.540499,130.049132 133.345164,130.481599 C133.972406,130.574866 134.54039,130.903542 134.933269,131.400591 C135.199929,131.905658 135.251957,132.496585 135.077642,133.040361 C134.716536,134.505866 133.862965,135.803375 132.659391,136.716329 C131.445182,137.62009 130.000245,138.163467 128.490616,138.284021 C128.277599,138.293049 128.066012,138.32323 127.858984,138.374118 L127.245398,138.554312 L127.606331,139.058857 L127.786797,139.329149 C129.516335,142.033616 130.522873,145.135533 130.710354,148.338874 C130.823149,148.970889 130.67328,149.621516 130.295281,150.140819 C129.772016,150.620737 129.072687,150.862197 128.36429,150.807538 L127.534144,150.825558 Z" id="Path" fill="url(#linearGradient-16)"></path>
                    <path d="M121.614844,132.643933 C121.434378,132.842147 121.235865,133.040361 121.073445,133.256594 C120.101268,134.37494 119.546539,135.794688 119.503387,137.274932 C119.50769,137.725181 119.568315,138.17313 119.683853,138.608371 C122.246477,138.788565 124.8091,138.842624 127.371724,138.770546 L127.245398,138.554312 L127.732657,138.410157 C125.437874,136.777711 123.379252,134.837398 121.614844,132.643933 Z" id="Path" fill="url(#linearGradient-17)"></path>
                    <path d="M127.245398,138.536293 C126.835887,138.413756 126.446707,138.231603 126.090412,137.99571 C125.440733,137.581262 124.664727,136.932562 123.870675,136.301881 C123.076622,135.671201 122.33671,134.968442 121.795311,134.499936 C121.253911,134.031431 120.911025,133.580944 120.911025,133.580944 L124.033095,136.157726 C124.827147,136.806426 125.585106,137.491165 126.180645,137.959671 C126.511842,138.192657 126.869186,138.386179 127.245398,138.536293 L127.245398,138.536293 Z" id="Path" fill="#21409A"></path>
                    <path d="M119.503387,137.419087 L120.712512,137.545223 C121.452424,137.545223 122.517176,137.779476 123.383415,137.941651 L126.054319,138.374118 L127.263444,138.590351 L126.036272,138.590351 C125.29636,138.590351 124.231608,138.392137 123.347322,138.266001 C122.463036,138.139865 121.416331,137.923632 120.694465,137.761457 L119.503387,137.419087 Z" id="Path" fill="#21409A"></path>
                    <path d="M119.629713,136.103667 C119.629713,136.103667 120.080879,136.283862 120.784698,136.518115 C121.488518,136.752368 122.408897,137.058698 123.347322,137.32899 C124.285748,137.599282 125.151987,137.959671 125.909946,138.157885 L127.082978,138.500254 C126.675974,138.461074 126.272037,138.394856 125.873853,138.30204 C125.13394,138.157885 124.195514,137.869573 123.257089,137.581262 C122.318663,137.292951 121.452424,136.950581 120.730558,136.66227 C120.353267,136.49713 119.985721,136.310626 119.629713,136.103667 Z" id="Path" fill="#21409A"></path>
                    <path d="M120.026739,135.004481 L121.127585,135.599123 C121.795311,135.977531 122.66155,136.464056 123.581928,136.896523 C125.386593,137.761457 127.281491,138.482235 127.281491,138.482235 C127.281491,138.482235 126.776185,138.374118 126.054319,138.139865 C125.165463,137.864737 124.297083,137.527542 123.455602,137.130776 C123.004436,136.896523 122.55327,136.66227 122.156243,136.428017 C121.759217,136.193765 121.380238,135.923473 121.055398,135.725259 L120.026739,135.004481 Z" id="Path" fill="#21409A"></path>
                    <path d="M119.683853,138.608371 C119.845829,139.22045 120.044705,139.822195 120.279392,140.410316 L122.28257,145.816151 C122.602453,146.783832 123.025994,147.714218 123.545835,148.591146 C124.030259,149.445204 124.776818,150.121149 125.675339,150.519227 C126.251764,150.735542 126.864372,150.839528 127.480004,150.825558 L128.274056,150.825558 C128.982454,150.880216 129.681783,150.638757 130.205047,150.158838 C130.583046,149.639535 130.732916,148.988909 130.62012,148.356893 C130.43264,145.153553 129.426102,142.051635 127.696564,139.347168 L127.516097,139.076877 L127.371724,138.752526 C124.8091,138.836617 122.246477,138.788565 119.683853,138.608371 Z" id="Path" fill="url(#linearGradient-18)"></path>
                    <ellipse id="Oval" fill="url(#radialGradient-19)" style="mix-blend-mode: multiply;" cx="123.455602" cy="135.220714" rx="4.54775474" ry="4.5409013"></ellipse>
                    <ellipse id="Oval" fill="url(#radialGradient-19)" style="mix-blend-mode: multiply;" cx="122.66155" cy="137.184834" rx="4.54775474" ry="4.5409013"></ellipse>
                    <path d="M121.398284,135.148636 C121.485012,135.503371 121.453328,135.876682 121.308051,136.211784 C121.181725,136.572173 121.001258,136.878504 120.856885,137.220873 C120.411749,138.366859 120.511312,139.652605 121.127585,140.716646 C121.758098,141.766426 122.835272,142.470181 124.051141,142.626708 C124.200955,142.690821 124.37054,142.690821 124.520354,142.626708 C124.646681,142.518591 124.646681,142.284339 124.520354,142.2483 C124.757397,142.239766 124.990431,142.184657 125.206127,142.086125 C125.417867,141.968103 125.533208,141.73057 125.494873,141.491483 C125.494873,141.203172 125.0798,141.095055 124.791054,141.022977 C124.952887,140.961303 125.079807,140.83233 125.138726,140.669684 C125.197644,140.507038 125.182721,140.326837 125.097847,140.176063 C124.981677,140.05022 124.818086,139.978632 124.646681,139.978632 C124.475275,139.978632 124.311684,140.05022 124.195514,140.176063 L123.816535,135.671201 C123.026058,135.43151 122.217282,135.25674 121.398284,135.148636 Z" id="Path" fill="#FFFFFF"></path>
                    <path d="M138.813298,129.094101 C137.736775,125.659093 137.422699,122.031135 137.892919,118.462626 C138.229605,117.292704 138.327791,116.067225 138.181665,114.858736 C137.590302,113.064434 136.002083,111.781677 134.12117,111.579196 C132.269578,111.42604 130.408934,111.73568 128.707176,112.480169 C128.165777,112.678383 127.624377,112.894616 127.082978,113.146889 L127.082978,113.146889 L126.992745,113.146889 C125.676442,113.560042 124.451353,114.220593 123.383415,115.092989 C122.60741,115.795748 121.001258,116.138117 120.784698,117.147206 C120.658429,117.880625 120.658429,118.63018 120.784698,119.363599 C120.70333,120.280795 120.70333,121.203378 120.784698,122.120574 C120.947118,124.499142 121.037351,126.877709 121.001258,129.328354 C120.965165,131.778999 121.001258,133.779158 120.730558,135.959512 C121.873611,136.446265 123.097782,136.715177 124.339888,136.752368 C124.791181,135.697841 125.171015,134.614235 125.476826,133.508867 C125.675339,132.806108 125.819713,132.08533 125.964086,131.382572 C126.594852,132.378919 127.504746,133.168394 128.580849,133.653022 C130.214912,134.158155 131.963754,134.158155 133.597817,133.653022 C134.824989,133.364711 136.052161,133.004322 137.207146,132.607894 C137.788584,132.461184 138.311221,132.140529 138.705018,131.688902 C139.115033,130.880253 139.154519,129.934005 138.813298,129.094101 L138.813298,129.094101 Z" id="Path" fill="url(#linearGradient-20)"></path>
                    <path d="M128.725223,112.408091 C129.922938,111.930556 131.179335,111.615415 132.460878,111.47108 L131.955572,110.768321 C131.533392,110.997042 131.092706,111.189929 130.638167,111.344944 C129.685786,111.636694 128.715178,111.865437 127.732657,112.029683 L127.119071,112.029683 C127.111645,112.071401 127.111645,112.1141 127.119071,112.155819 C127.083236,112.508849 126.979041,112.851563 126.812278,113.164908 C127.436395,112.879786 128.0749,112.627175 128.725223,112.408091 Z" id="Path" fill="url(#linearGradient-21)"></path>
                    <path d="M133.47149,107.416704 C133.47149,110.660204 132.460878,113.291044 127.335631,113.291044 C124.20799,113.118148 121.760593,110.535403 121.760593,107.407694 C121.760593,104.279984 124.20799,101.69724 127.335631,101.524344 C130.854727,101.524344 133.47149,102.94788 133.47149,107.416704 Z" id="Path" fill="url(#radialGradient-22)"></path>
                    <path d="M124.574494,104.984078 C124.908641,104.076767 124.908641,103.080355 124.574494,102.173044 C122.64824,103.206141 121.468672,105.23417 121.524611,107.416704 C121.523978,107.809645 121.560229,108.201781 121.632891,108.587968 C121.740487,108.605147 121.850134,108.605147 121.95773,108.587968 C122.28257,108.624007 123.148809,109.380824 124.574494,104.984078 Z" id="Path" fill="url(#linearGradient-23)"></path>
                    <path d="M124.231608,126.51732 C123.102938,126.328056 122.015919,125.943904 121.019305,125.382095 C121.019305,125.958717 121.019305,126.51732 121.019305,127.18404 C122.007591,127.732129 123.081392,128.10983 124.195514,128.301246 C126.180645,128.301246 127.804844,127.16602 127.804844,125.778523 C127.803363,125.48275 127.728989,125.191888 127.588284,124.931609 C126.835335,126.023198 125.554385,126.628325 124.231608,126.51732 L124.231608,126.51732 Z" id="Path" fill="url(#linearGradient-24)"></path>
                    <circle id="Oval" fill="url(#radialGradient-25)" style="mix-blend-mode: multiply;" transform="translate(133.217951, 121.957032) rotate(-45.000000) translate(-133.217951, -121.957032) " cx="133.217951" cy="121.957032" r="10.7116334"></circle>
                    <path d="M137.207146,111.362963 C136.370222,110.97743 135.38993,111.073933 134.644522,111.615235 L129.050062,114.804678 C126.922156,116.1745 125.580185,118.479211 125.440733,121.003369 L125.440733,131.815038 C125.346056,132.716325 125.746341,133.598381 126.487438,134.121528 L130.096768,136.265842 C129.35567,135.742695 128.955385,134.860639 129.050062,133.959353 L129.050062,123.147683 C129.198151,120.626115 130.538012,118.325028 132.659391,116.948992 L138.199712,113.75955 C138.977902,113.158021 140.036477,113.066416 140.906708,113.525297 L137.207146,111.362963 Z" id="Path" fill="url(#linearGradient-26)"></path>
                    <path d="M138.362131,113.75955 C140.347262,112.624324 141.971461,113.543316 141.971461,115.813767 L141.971461,126.625437 C141.843759,129.153092 140.498895,131.462771 138.362131,132.824127 L132.821811,136.01357 C130.83668,137.166815 129.212482,136.247823 129.212482,133.959353 L129.212482,123.147683 C129.360571,120.626115 130.700432,118.325028 132.821811,116.948992 L138.362131,113.75955 Z" id="Path" fill="#C9D5EB"></path>
                    <ellipse id="Oval" fill="url(#linearGradient-27)" cx="136.214581" cy="113.273025" rx="1.0647521" ry="1"></ellipse>
                    <path d="M136.26872,113.399161 C136.232218,113.404423 136.195236,113.393496 136.167481,113.369247 C136.139725,113.344997 136.123969,113.309848 136.124347,113.273025 L136.124347,101.560382 C136.118093,101.52056 136.131276,101.480151 136.159822,101.451648 C136.188368,101.423145 136.228838,101.409982 136.26872,101.416227 C136.305599,101.415849 136.340802,101.431582 136.365088,101.459295 C136.389374,101.487009 136.400318,101.523935 136.395047,101.560382 L136.395047,113.273025 C136.395047,113.342688 136.338489,113.399161 136.26872,113.399161 Z" id="Path" fill="#00AEEF"></path>
                    <path d="M128.472569,131.544747 C128.472569,132.175427 127.967263,132.391661 127.335631,132.031272 C126.691399,131.645155 126.269352,130.976249 126.198692,130.229327 C126.198692,129.598646 126.703998,129.382413 127.335631,129.742802 C127.979862,130.128918 128.40191,130.797825 128.472569,131.544747 Z" id="Path" fill="url(#linearGradient-28)"></path>
                    <polygon id="Path" fill="url(#linearGradient-29)" points="128.09359 128.211148 126.577672 127.328195 126.577672 122.985508 128.09359 123.868461"></polygon>
                    <polygon id="Path" fill="#B7C8E2" style="mix-blend-mode: multiply;" points="135.727321 126.931767 135.727321 131.220396 131.991665 133.38273 131.991665 129.094101"></polygon>
                    <polygon id="Path" fill="#D8E1EF" points="132.136039 133.094419 131.540499 132.75205 131.522453 128.769751 132.117992 129.112121"></polygon>
                    <polygon id="Path" fill="url(#linearGradient-30)" points="132.117992 129.112121 131.522453 128.769751 134.987409 126.769592 135.582948 127.111962"></polygon>
                    <polygon id="Path" fill="#B7C8E2" points="135.582948 127.111962 135.600995 131.09426 132.136039 133.094419 132.117992 129.112121"></polygon>
                    <polygon id="Path" fill="#B7C8E2" style="mix-blend-mode: multiply;" points="140.238983 124.535181 140.238983 128.82381 136.503327 130.986144 136.48528 126.697515"></polygon>
                    <polygon id="Path" fill="#D8E1EF" points="136.503327 130.751891 135.907788 130.409521 135.907788 126.427223 136.48528 126.769592"></polygon>
                    <polygon id="Path" fill="url(#linearGradient-31)" points="136.48528 126.769592 135.907788 126.427223 139.372744 124.427064 139.968283 124.769434"></polygon>
                    <polygon id="Path" fill="#B7C8E2" points="139.968283 124.769434 139.968283 128.751732 136.503327 130.751891 136.48528 126.769592"></polygon>
                    <path d="M125.18808,113.885686 C126.939727,113.906494 128.684899,113.669703 130.367467,113.182927 C131.433224,112.722789 132.429396,112.116283 133.327117,111.380982 L132.948138,110.570107 C132.046871,111.07062 131.089862,111.463733 130.096768,111.741371 C128.503572,112.339542 126.831881,112.703725 125.13394,112.822538 L125.18808,113.885686 Z" id="Path" fill="url(#linearGradient-32)"></path>
                    <path d="M138.957671,145.671995 L138.957671,145.077353 C138.957671,144.825081 138.957671,144.572809 138.957671,144.320536 C136.213362,144.942249 133.364429,144.942249 130.62012,144.320536 C130.62012,144.734984 130.78254,145.149431 130.872773,145.545859 C133.542578,146.0303 136.274011,146.072915 138.957671,145.671995 L138.957671,145.671995 Z" id="Path" fill="url(#linearGradient-33)"></path>
                    <polygon id="Path" fill="#B7C8E2" style="mix-blend-mode: multiply;" points="139.39079 117.705809 139.39079 121.994438 132.063852 126.391184 132.063852 122.084536"></polygon>
                    <polygon id="Path" fill="#D8E1EF" points="132.208225 126.084853 131.612686 125.742484 131.594639 121.778205 132.190179 122.120574"></polygon>
                    <polygon id="Path" fill="url(#linearGradient-34)" points="132.190179 122.120574 131.594639 121.778205 138.668924 117.543634 139.246417 117.886004"></polygon>
                    <polygon id="Path" fill="#B7C8E2" points="139.246417 117.886004 139.264464 121.868302 132.208225 126.084853 132.190179 122.120574"></polygon>
                    <path d="M68.6118454,67.91807 C68.6118454,67.91807 89.1489283,65.9719695 99.8505893,79.9911013 C100.608548,80.982171 99.4174698,82.0813574 97.5406186,82.1714547 C90.8272664,82.4597659 80.4504451,83.0183688 80.4504451,83.0183688 L68.6118454,67.91807 Z" id="Path" fill="url(#linearGradient-35)"></path>
                    <path d="M67.6914665,67.91807 C67.6914665,67.91807 47.1724303,65.9719695 36.4527227,79.9911013 C35.7128102,80.982171 36.8858422,82.0813574 38.78074,82.1714547 C45.4760456,82.4597659 55.8528669,83.0183688 55.8528669,83.0183688 L67.6914665,67.91807 Z" id="Path" fill="url(#linearGradient-36)"></path>
                    <path d="M69.2795713,0.489289604 C68.9769339,0.176586724 68.5600948,0 68.124586,0 C67.6890773,0 67.2722381,0.176586724 66.9696007,0.489289604 C62.2774728,5.2464243 44.5737133,24.7975271 44.5737133,52.565499 C44.5737133,67.4856032 45.3136257,80.9641515 48.7605351,90.6225765 C48.9590482,91.1991989 49.1756079,91.7758213 49.3921677,92.3164048 C49.5292801,92.5705129 49.6798832,92.8171298 49.8433338,93.0552022 C50.9993045,94.7102492 52.5254647,96.0737032 54.3008553,97.0375006 C62.9943812,101.418768 73.2547908,101.418768 81.9483167,97.0375006 C83.728734,96.0738122 85.2608007,94.7106006 86.4238848,93.0552022 L86.875051,92.2803659 C87.0916107,91.7578019 87.2901238,91.2172184 87.4886369,90.6766349 C90.9355463,81.0001904 91.6754588,67.5036227 91.6754588,52.565499 C91.6754588,24.7975271 74.0258392,5.2464243 69.2795713,0.489289604 Z" id="Path" fill="url(#linearGradient-37)"></path>
                    <path d="M81.9483167,97.0375006 C73.2547908,101.418768 62.9943812,101.418768 54.3008553,97.0375006 C53.2748268,96.4498353 52.3183428,95.7486649 51.4494853,94.9472444 C51.6119051,95.4157501 51.7562783,95.8662364 51.9367447,96.3167226 C52.1172112,96.7672088 52.1713511,96.7491894 52.3157243,96.9834422 C53.3062221,98.4671111 54.6282793,99.7008166 56.1777065,100.587332 C63.6313076,104.641168 72.635911,104.641168 80.0895122,100.587332 C81.6339589,99.7007058 82.9501082,98.4667472 83.9334477,96.9834422 C84.0891027,96.7535357 84.2278254,96.5126424 84.3485206,96.2626643 C84.5109404,95.8301975 84.6553135,95.3797112 84.8177334,94.929225 C83.947683,95.742281 82.9845456,96.4499366 81.9483167,97.0375006 Z" id="Path" fill="url(#linearGradient-38)"></path>
                    <path d="M60.7435079,69.0172564 C59.1886589,68.956622 57.676782,68.4906965 56.358173,67.6657977 C51.6840917,64.9808997 48.0206226,59.178637 48.0206226,54.4575412 C48.0206226,51.1599819 49.8252872,49.0517063 52.8571237,49.0517063 C54.4105975,49.1052412 55.9227764,49.5650462 57.2424586,50.3851456 C61.9165399,53.088063 65.580009,58.8903258 65.580009,63.5934021 C65.580009,66.8729419 63.6851112,69.0172564 60.7435079,69.0172564 Z" id="Path" fill="url(#linearGradient-39)"></path>
                    <path d="M64.6957233,63.5753827 C64.6957233,67.9360895 61.0863942,69.4136843 56.8093391,66.9089808 C52.5322841,64.4042774 48.9049083,58.818248 48.9049083,54.4575412 C48.9049083,50.0968344 52.5142374,48.6192395 56.8093391,51.1419624 C61.1044408,53.6646854 64.6957233,59.2146759 64.6957233,63.5753827 Z" id="Path" fill="url(#linearGradient-40)"></path>
                    <path d="M58.7583769,65.6836583 C54.1925755,63.0528186 50.4930131,57.2325364 50.4930131,52.6736157 C50.4841741,51.9180222 50.6125762,51.1670861 50.8719926,50.4572234 C49.5074255,51.3340416 48.7481881,52.8989127 48.9049083,54.5115995 C48.9049083,58.8723063 52.5142374,64.4403163 56.8093391,66.9630392 C59.7328957,68.638848 62.2233328,68.5307313 63.6309712,66.9630392 C61.9079269,67.1067642 60.1877315,66.6550982 58.7583769,65.6836583 Z" id="Path" fill="url(#linearGradient-41)" style="mix-blend-mode: multiply;"></path>
                    <path d="M81.7498036,72.5851075 C81.7498036,72.5851075 99.5257497,92.406502 93.1733304,114.210036 C92.7402109,115.741689 90.6648466,115.3813 89.1308817,113.489258 C83.716888,106.768003 75.1447312,96.4428587 75.1447312,96.4428587 L81.7498036,72.5851075 Z" id="Path" fill="url(#linearGradient-42)"></path>
                    <path d="M81.7498036,72.5851075 C81.7498036,72.5851075 96.9992193,95.7761391 91.6574121,114.210036 C91.5833444,114.53825 91.3735156,114.819782 91.0799194,114.984872 C92.0544383,115.363281 92.884584,115.129028 93.1733304,114.210036 C99.5257497,92.3704631 81.7498036,72.5851075 81.7498036,72.5851075 Z" id="Path" fill="#05418C"></path>
                    <path d="M54.4993684,72.5851075 C54.4993684,72.5851075 36.741469,92.406502 43.0758417,114.210036 C43.5270078,115.741689 45.5843254,115.363281 47.1182903,113.471239 C52.5322841,106.768003 61.1224875,96.4428587 61.1224875,96.4428587 L54.4993684,72.5851075 Z" id="Path" fill="url(#linearGradient-43)"></path>
                    <path d="M54.4993684,72.5851075 C54.4993684,72.5851075 39.2499528,95.7761391 44.6098066,114.210036 C44.6707339,114.538908 44.8760172,114.823226 45.1692526,114.984872 C44.1947337,115.363281 43.364588,115.129028 43.0758417,114.210036 C36.741469,92.3704631 54.4993684,72.5851075 54.4993684,72.5851075 Z" id="Path" fill="#05418C"></path>
                    <path d="M68.124586,34.8343606 C75.1729248,34.8149923 81.8390681,31.6325044 86.2795117,26.1670053 C82.2715641,16.6212378 76.5051197,7.91125898 69.2795713,0.489289604 C68.9769339,0.176586724 68.5600948,0 68.124586,0 C67.6890773,0 67.2722381,0.176586724 66.9696007,0.489289604 C59.7454775,7.90874264 53.9845542,16.6196294 49.987707,26.1670053 C54.4126584,31.6421627 61.0784485,34.8276485 68.124586,34.8343606 Z" id="Path" fill="url(#radialGradient-44)"></path>
                </g>
            </g>
        </g>
    </g>
</svg>