<?xml version="1.0" encoding="UTF-8"?>
<svg width="82px" height="114px" viewBox="0 0 82 114" version="1.1" xmlns="http://www.w3.org/2000/svg" xmlns:xlink="http://www.w3.org/1999/xlink">
    <title>8Artboard 1</title>
    <defs>
        <linearGradient x1="38.0416527%" y1="60.6857196%" x2="62.1095062%" y2="39.1683006%" id="linearGradient-1">
            <stop stop-color="#064BA2" offset="0%"></stop>
            <stop stop-color="#1251AB" offset="19%"></stop>
            <stop stop-color="#3162C2" offset="53%"></stop>
            <stop stop-color="#627CE7" offset="97%"></stop>
            <stop stop-color="#667EEA" offset="100%"></stop>
        </linearGradient>
        <linearGradient x1="45.6503859%" y1="60.6782694%" x2="59.3445527%" y2="39.4941594%" id="linearGradient-2">
            <stop stop-color="#053B80" offset="0%"></stop>
            <stop stop-color="#10428C" offset="17%"></stop>
            <stop stop-color="#2C56AB" offset="49%"></stop>
            <stop stop-color="#5A75DD" offset="90%"></stop>
            <stop stop-color="#667EEA" offset="100%"></stop>
        </linearGradient>
        <linearGradient x1="38.0416527%" y1="60.6857196%" x2="62.1095062%" y2="39.1683006%" id="linearGradient-3">
            <stop stop-color="#EB3349" offset="0%"></stop>
            <stop stop-color="#F45C43" offset="100%"></stop>
        </linearGradient>
        <linearGradient x1="46.7322536%" y1="60.149692%" x2="58.5473871%" y2="38.7403781%" id="linearGradient-4">
            <stop stop-color="#D42035" offset="0%"></stop>
            <stop stop-color="#D42135" offset="0%"></stop>
            <stop stop-color="#E23B3B" offset="24%"></stop>
            <stop stop-color="#EC4D40" offset="48%"></stop>
            <stop stop-color="#F25842" offset="73%"></stop>
            <stop stop-color="#F45C43" offset="100%"></stop>
        </linearGradient>
        <radialGradient cx="50%" cy="52.6170376%" fx="50%" fy="52.6170376%" r="83.2310054%" gradientTransform="translate(0.500000,0.526170),scale(0.600738,1.000000),translate(-0.500000,-0.526170)" id="radialGradient-5">
            <stop stop-color="#BA6C6C" offset="7%"></stop>
            <stop stop-color="#BB6E6E" offset="41%"></stop>
            <stop stop-color="#BE7575" offset="56%"></stop>
            <stop stop-color="#C48282" offset="66%"></stop>
            <stop stop-color="#CD9393" offset="75%"></stop>
            <stop stop-color="#D7AAAA" offset="83%"></stop>
            <stop stop-color="#E5C7C7" offset="90%"></stop>
            <stop stop-color="#F4E8E8" offset="96%"></stop>
            <stop stop-color="#FFFFFF" offset="100%"></stop>
        </radialGradient>
        <radialGradient cx="50.3944223%" cy="51.19985%" fx="50.3944223%" fy="51.19985%" r="51.5969254%" gradientTransform="translate(0.503944,0.511999),scale(0.965954,1.000000),translate(-0.503944,-0.511999)" id="radialGradient-6">
            <stop stop-color="#BCCFD9" offset="0%"></stop>
            <stop stop-color="#C0D2DB" offset="25%"></stop>
            <stop stop-color="#CBDAE2" offset="49%"></stop>
            <stop stop-color="#DFE8ED" offset="73%"></stop>
            <stop stop-color="#F9FBFC" offset="96%"></stop>
            <stop stop-color="#FFFFFF" offset="100%"></stop>
        </radialGradient>
        <linearGradient x1="-0.0397614314%" y1="49.9511241%" x2="100%" y2="49.9511241%" id="linearGradient-7">
            <stop stop-color="#667EEA" offset="0%"></stop>
            <stop stop-color="#064BA2" offset="100%"></stop>
        </linearGradient>
        <linearGradient x1="-0.0765041652%" y1="50.2265511%" x2="100.067448%" y2="50.2265511%" id="linearGradient-8">
            <stop stop-color="#FFECD2" offset="0%"></stop>
            <stop stop-color="#FCB69F" offset="100%"></stop>
        </linearGradient>
        <linearGradient x1="31.6078857%" y1="33.7362444%" x2="72.0659794%" y2="79.33969%" id="linearGradient-9">
            <stop stop-color="#FCB69F" offset="0%"></stop>
            <stop stop-color="#FFECD2" offset="100%"></stop>
        </linearGradient>
        <linearGradient x1="0.246835107%" y1="50.0423603%" x2="100%" y2="50.0423603%" id="linearGradient-10">
            <stop stop-color="#FFECD2" offset="0%"></stop>
            <stop stop-color="#FCB69F" offset="100%"></stop>
        </linearGradient>
        <linearGradient x1="-0.203049884%" y1="50.1820304%" x2="99.8237942%" y2="50.1820304%" id="linearGradient-11">
            <stop stop-color="#FFECD2" offset="0%"></stop>
            <stop stop-color="#FCB69F" offset="100%"></stop>
        </linearGradient>
        <linearGradient x1="0.388601036%" y1="50.1164844%" x2="100%" y2="50.1164844%" id="linearGradient-12">
            <stop stop-color="#667EEA" offset="0%"></stop>
            <stop stop-color="#064BA2" offset="100%"></stop>
        </linearGradient>
        <linearGradient x1="2.88057866e-13%" y1="49.7076023%" x2="100%" y2="49.7076023%" id="linearGradient-13">
            <stop stop-color="#667EEA" offset="0%"></stop>
            <stop stop-color="#064BA2" offset="100%"></stop>
        </linearGradient>
    </defs>
    <g id="Page-1" stroke="none" stroke-width="1" fill="none" fill-rule="evenodd">
        <g id="Mining-Provider-Windows-Onboarding-Steps-01" transform="translate(-567.000000, -526.000000)" fill-rule="nonzero">
            <g id="My-Balance" transform="translate(536.000000, 459.000000)">
                <g id="8Artboard-1" transform="translate(31.000000, 67.000000)">
                    <polygon id="Path" fill="#032857" points="42.87 59.9069572 75.98 79.1469572 49.55 94.4069572 16.44 75.1669572"></polygon>
                    <path d="M71.73,76.9369572 C71.6226818,75.745996 71.6968609,74.545643 71.95,73.3769572 C72.0971087,72.7122538 72.3150193,72.0652271 72.6,71.4469572 L49.6,84.7669572 C47.4511163,87.1550095 46.9391698,90.5968651 48.3,93.5069572 L72.3,79.6569572 C72.030123,78.7688832 71.8393788,77.8586651 71.73,76.9369572 Z" id="Path" fill="#DFE8F4"></path>
                    <g id="Group" transform="translate(16.440000, 50.286957)">
                        <polygon id="Path" fill="#737713" points="33.11 34.5 33.12 36.07 0.01 16.83 1.42108547e-14 15.26"></polygon>
                        <polygon id="Path" fill="url(#linearGradient-1)" points="26.43 1.42108547e-14 59.54 19.24 33.11 34.5 1.42108547e-14 15.26"></polygon>
                    </g>
                    <path d="M16.44,65.5469572 C16.44,65.5469572 11.93,69.8769572 16.44,76.7369572 L49.56,95.9369572 C45.05,89.0769572 49.56,84.7469572 49.56,84.7469572 L16.44,65.5469572 Z" id="Path" fill="url(#linearGradient-2)"></path>
                    <path d="M49.82,94.2469572 C48,90.7169572 49.17,86.4669572 49.95,86.0269572 L75.95,71.1069572 L75.95,69.5269572 L49.51,84.7869572 C49.51,84.7869572 45.01,89.1169572 49.51,95.9769572 L75.93,80.7269572 L75.93,79.1469572 L49.82,94.2469572 Z" id="Path" fill="#667EEA"></path>
                    <polygon id="Path" fill="#CF2D40" points="48.65 45.0169572 81.76 64.2669572 55.33 79.5169572 22.22 60.2769572"></polygon>
                    <path d="M77.51,62.0669572 C77.4073253,60.8792562 77.4814661,59.6828932 77.73,58.5169572 C77.8740139,57.8513968 78.0920366,57.2040373 78.38,56.5869572 L55.34,69.9369572 C53.1911163,72.3250095 52.6791698,75.7668651 54.04,78.6769572 L78.04,64.8269572 C77.7813359,63.9246139 77.6039615,63.0009282 77.51,62.0669572 Z" id="Path" fill="#DFE8F4"></path>
                    <g id="Group" transform="translate(22.220000, 35.396957)">
                        <polygon id="Path" fill="#737713" points="33.11 34.5 33.12 36.07 0.01 16.83 1.42108547e-14 15.26"></polygon>
                        <polygon id="Path" fill="url(#linearGradient-3)" points="26.43 0 59.54 19.24 33.11 34.5 1.42108547e-14 15.26"></polygon>
                    </g>
                    <path d="M22.22,50.6569572 C22.22,50.6569572 17.71,54.9869572 22.22,61.8469572 L55.34,81.0869572 C50.83,74.2269572 55.34,69.8969572 55.34,69.8969572 L22.22,50.6569572 Z" id="Path" fill="url(#linearGradient-4)"></path>
                    <path d="M55.6,79.3569572 C53.78,75.8369572 54.95,71.5769572 55.73,71.1369572 L81.73,56.2169572 L81.73,54.6369572 L55.33,69.9369572 C55.33,69.9369572 50.83,74.2669572 55.33,81.1269572 L81.76,65.8369572 L81.76,64.2569572 L55.6,79.3569572 Z" id="Path" fill="#FF8A46"></path>
                    <ellipse id="Oval" fill="url(#radialGradient-5)" style="mix-blend-mode: multiply;" cx="39.36" cy="56.6369572" rx="21.69" ry="13.03"></ellipse>
                    <ellipse id="Oval" fill="url(#radialGradient-6)" style="mix-blend-mode: multiply;" cx="27.61" cy="86.5769572" rx="27.61" ry="26.67"></ellipse>
                    <path d="M46.59,15.9969572 C46.38,16.2469572 46.15,16.4769572 45.95,16.7269572 C45.41,17.3669572 45.05,18.1469572 44.51,18.7869572 C43.8704067,19.5460308 43.0107924,20.0876577 42.05,20.3369572 C41.2790065,20.5703349 40.4465502,20.483846 39.74,20.0969572 C39.2156292,19.7431415 38.8276046,19.2210721 38.64,18.6169572 C38.4586185,18.0139248 38.3709296,17.3866119 38.38,16.7569572 C38.3528484,16.1274003 38.3964548,15.4967851 38.51,14.8769572 C37.3099372,14.975891 36.1290171,15.2383177 35,15.6569572 C34.1457777,16.7510543 33.442793,17.95521 32.91,19.2369572 C32.91,19.3269572 33.47,20.0669572 33.54,20.1769572 C33.75,20.5169572 33.95,20.8469572 34.14,21.1769572 C34.5111458,21.8651615 34.8449624,22.5728528 35.14,23.2969572 C35.4520516,24.0176312 35.6769756,24.772973 35.81,25.5469572 C35.95,26.4069572 36.08,27.2569572 36.22,28.1169572 C36.52,29.9969572 36.81,31.8669572 37.11,33.7469572 C37.3524716,34.8769804 37.4065332,36.039306 37.27,37.1869572 C36.9279653,38.2871468 36.6475302,39.4055487 36.43,40.5369572 C36.3019821,43.10499 36.8648579,45.6603772 38.06,47.9369572 C41.99,47.5469572 45.98,47.1569572 49.88,47.8069572 C50.694106,47.9149741 51.486726,48.1477009 52.23,48.4969572 C52.9817249,48.8427783 53.5922876,49.4356947 53.96,50.1769572 C54.354795,51.3067956 54.354795,52.5371188 53.96,53.6669572 C54.37,54.1469572 54.72,54.6669572 55.13,55.1269572 C56.3618453,52.2928638 56.9263549,49.2137207 56.78,46.1269572 C56.68,43.0169572 56.18,39.9369572 55.86,36.8369572 L58.06,21.4369572 C57.91,21.1369572 57.73,20.8469572 57.56,20.5769572 C56.8513282,19.4203212 55.8865405,18.4418486 54.74,17.7169572 C52.3228636,16.255246 49.7284082,15.1092495 47.02,14.3069572 L46.69,14.2069572 C46.9573044,14.4239786 47.1087646,14.752758 47.1,15.0969572 C47.0288926,15.4431313 46.8504297,15.7580658 46.59,15.9969572 Z" id="Path" fill="url(#linearGradient-7)"></path>
                    <path d="M37.58,15.8069572 C37.58,16.1069572 37.58,16.4269572 37.58,16.8069572 C37.5814337,17.5149708 37.6858606,18.21901 37.89,18.8969572 C38.1365493,19.6798852 38.6404851,20.3564984 39.32,20.8169572 C39.8596584,21.1420973 40.4800676,21.308464 41.11,21.2969572 C41.4981264,21.2956735 41.8845299,21.2452731 42.26,21.1469572 C43.381588,20.8502188 44.3861742,20.2188643 45.14,19.3369572 C45.4321793,18.9755154 45.6994616,18.5946382 45.94,18.1969572 C46.1322876,17.8729885 46.3461014,17.5622904 46.58,17.2669572 L46.88,16.9169572 L47.22,16.5369572 L47.29,16.4569572 C47.5603327,16.174661 47.7592017,15.8317834 47.87,15.4569572 C47.9215589,15.1539369 47.8649223,14.8424355 47.71,14.5769572 L47.03,14.3469572 L46.7,14.2469572 C46.9673044,14.4639786 47.1187646,14.792758 47.11,15.1369572 C47.0388926,15.4831313 46.8604297,15.7980658 46.6,16.0369572 C46.39,16.2869572 46.16,16.5169572 45.96,16.7669572 C45.42,17.4069572 45.06,18.1869572 44.52,18.8269572 C43.8804067,19.5860308 43.0207924,20.1276577 42.06,20.3769572 C41.2890065,20.6103349 40.4565502,20.523846 39.75,20.1369572 C39.2256292,19.7831415 38.8376046,19.2610721 38.65,18.6569572 C38.4686185,18.0539248 38.3809296,17.4266119 38.39,16.7969572 C38.356517,16.1544745 38.3967798,15.510271 38.51,14.8769572 C38.2,14.8769572 37.89,14.9369572 37.58,14.9869572 C37.56,15.2569572 37.59,15.5269572 37.58,15.8069572 Z" id="Path" fill="#414042"></path>
                    <path d="M58.06,21.4369572 C58.2220511,21.7372775 58.3559556,22.0519532 58.46,22.3769572 C58.6716925,23.1837848 58.8386139,24.0016997 58.96,24.8269572 C59.4015093,27.5297763 59.4385815,30.2832311 59.07,32.9969572 C58.7245449,33.2194951 58.32956,33.3534465 57.92,33.3869572 C56.1820485,33.6385046 54.4232912,33.715555 52.67,33.6169572 C52.0609645,32.3987212 51.8778779,31.0114882 52.15,29.6769572 C52.31,28.9269572 52.61,28.2069572 52.75,27.4369572 C52.9383362,26.6756318 52.7888871,25.8700647 52.34,25.2269572 C53.930561,23.541414 55.8877546,22.2446021 58.06,21.4369572 L58.06,21.4369572 Z" id="Path" fill="#054494"></path>
                    <path d="M36.51,29.6569572 L36.27,28.1369572 C36.13,27.2769572 36,26.4269572 35.86,25.5669572 C35.7269756,24.792973 35.5020516,24.0376312 35.19,23.3169572 C34.8949624,22.5928528 34.5611458,21.8851615 34.19,21.1969572 C34,20.8469572 33.8,20.5169572 33.59,20.1969572 C33.3614909,19.9126057 33.1542623,19.6117899 32.97,19.2969572 C33.07,20.0069572 33.16,20.7169572 33.23,21.4369572 C33.2479456,21.7318354 33.2813247,22.0255711 33.33,22.3169572 C33.4144076,22.7196469 33.4745162,23.1270493 33.51,23.5369572 C33.5967514,25.140291 33.5230519,26.7482811 33.29,28.3369572 C34.228806,29.0520667 35.3393801,29.5073331 36.51,29.6569572 Z" id="Path" fill="#054494"></path>
                    <path d="M32.79,8.57695722 C33.3859833,8.6242291 33.983,8.49927213 34.51,8.21695722 L36.51,7.38695722 C36.89,7.22695722 37.36,7.07695722 37.68,7.33695722 C38,7.59695722 37.98,7.98695722 38.16,8.33695722 C38.4879474,8.79131261 38.9723572,9.10831609 39.52,9.22695722 C40.0725097,9.34652127 40.5380939,9.71603259 40.78,10.2269572 C40.8206137,10.5587333 40.840652,10.8927052 40.84,11.2269572 C40.84,11.5569572 41.16,11.9069572 41.48,11.8269572 C41.8,11.7469572 41.86,11.4169572 41.93,11.1369572 C42.0733297,10.3560581 42.4458043,9.63547638 43,9.06695722 C43.3939236,8.7145775 43.9015407,8.51579039 44.43,8.50695722 C44.4876803,8.16114937 44.5919627,7.82475438 44.74,7.50695722 C44.9664346,6.75241808 44.9837163,5.95055133 44.79,5.18695722 C44.5877031,4.42855504 44.3200341,3.68911969 43.99,2.97695722 C42.99,0.576957217 39.72,-0.333042783 37.14,0.106957217 C36.0166469,0.31273081 34.9558484,0.774691418 34.04,1.45695722 C33.2027611,2.05680137 32.5177748,2.84453561 32.04,3.75695722 C31.4670258,5.00767827 31.2992051,6.40618387 31.56,7.75695722 C31.8589611,8.16836342 32.2952554,8.45922625 32.79,8.57695722 Z" id="Path" fill="#231F20"></path>
                    <path d="M44.64,9.71695722 C44.64,9.31695722 44.43,8.93695722 44.43,8.53695722 L44.43,8.48695722 C43.9015407,8.49579039 43.3939236,8.6945775 43,9.04695722 C42.4458043,9.61547638 42.0733297,10.3360581 41.93,11.1169572 C41.86,11.3969572 41.76,11.7269572 41.48,11.8069572 C41.2,11.8869572 40.88,11.5369572 40.84,11.2069572 C40.840652,10.8727052 40.8206137,10.5387333 40.78,10.2069572 C40.5380939,9.69603259 40.0725097,9.32652127 39.52,9.20695722 C38.9723572,9.08831609 38.4879474,8.77131261 38.16,8.31695722 C37.98,7.98695722 37.97,7.55695722 37.68,7.31695722 C37.39,7.07695722 36.89,7.20695722 36.51,7.36695722 L34.51,8.19695722 C33.9859281,8.47739212 33.3926549,8.60229173 32.8,8.55695722 C32.3052067,8.43342014 31.869731,8.13956252 31.57,7.72695722 C31.8256686,9.04745278 32.2455987,10.330759 32.82,11.5469572 C33.243072,12.3285276 33.4501806,13.2087391 33.42,14.0969572 C33.3609795,14.3324319 33.3307585,14.5741998 33.33,14.8169572 C33.3363348,15.0648125 33.4897228,15.2850618 33.72,15.3769572 C33.93,15.3769572 34.14,15.2969572 34.36,15.3069572 C34.6833357,15.3592387 34.9478656,15.5926475 35.04,15.9069572 C35.15,16.2069572 35.16,16.5269572 35.26,16.8369572 C35.483337,17.4361842 36.0093876,17.8707478 36.64,17.9769572 C37.3569848,18.0097192 38.0633412,17.7942805 38.64,17.3669572 C40.0325264,16.5523625 41.2713113,15.4997339 42.3,14.2569572 C42.9458796,13.5659066 43.5470963,12.8344264 44.1,12.0669572 C44.08974,11.9705628 44.08974,11.8733516 44.1,11.7769572 C44.12,11.0769572 44.67,10.4369572 44.64,9.71695722 Z" id="Path" fill="url(#linearGradient-8)"></path>
                    <path d="M46.69,14.2069572 C46.1190266,14.0674397 45.5727226,13.8414991 45.07,13.5369572 C44.5509813,13.2121966 44.1891258,12.6875061 44.07,12.0869572 C43.5170963,12.8544264 42.9158796,13.5859066 42.27,14.2769572 C41.2413113,15.5197339 40.0025264,16.5723625 38.61,17.3869572 L38.4,17.5069572 C38.4336624,17.8837264 38.5074128,18.2558308 38.62,18.6169572 C38.8076046,19.2210721 39.1956292,19.7431415 39.72,20.0969572 C40.4265502,20.483846 41.2590065,20.5703349 42.03,20.3369572 C42.9980355,20.091455 43.8651286,19.5495218 44.51,18.7869572 C45.05,18.1469572 45.41,17.3669572 45.95,16.7269572 C46.15,16.4769572 46.38,16.2469572 46.59,15.9969572 C46.8504297,15.7580658 47.0288926,15.4431313 47.1,15.0969572 C47.1087646,14.752758 46.9573044,14.4239786 46.69,14.2069572 L46.69,14.2069572 Z" id="Path" fill="url(#linearGradient-9)"></path>
                    <path d="M53.96,50.1469572 C53.5922876,49.4056947 52.9817249,48.8127783 52.23,48.4669572 C51.486726,48.1177009 50.694106,47.8849741 49.88,47.7769572 C46.5929199,47.3318952 43.2622281,47.3117296 39.97,47.7169572 C39.56,48.2769572 39.19,48.8869572 38.84,49.4769572 C37.91,51.0369572 36.97,52.5869572 36.07,54.1569572 C34.3952775,56.992367 32.8893269,59.924129 31.56,62.9369572 C30.4679905,65.744551 30.2998435,68.8272453 31.08,71.7369572 C31.68,74.4269572 32.64,77.0369572 32.93,79.7369572 C33.15,81.8269572 32.93,83.9369572 33,86.0469572 C32.9229513,88.1563611 33.3479444,90.2539078 34.24,92.1669572 C35.1705509,94.0985234 37.0371233,95.4085316 39.17,95.6269572 C40.008131,95.6751319 40.8384509,95.4429238 41.53,94.9669572 C42.1832505,94.4440707 42.6640871,93.736753 42.91,92.9369572 C44.27,88.6569572 42.17,84.0869572 42.19,79.5969572 C42.19,78.1569572 42.47,76.7469572 42.6,75.3169572 C42.8356691,72.5269818 42.054271,69.745915 40.4,67.4869572 C40.2638022,67.3425644 40.1824322,67.1550596 40.17,66.9569572 C40.17,66.6469572 40.56,66.4869572 40.85,66.3769572 C43.41,65.3769572 44.96,62.8469572 47.01,61.0269572 C48.28,59.8969572 49.77,59.0269572 51.01,57.8969572 C51.7780988,57.2021975 52.4506324,56.4086078 53.01,55.5369572 C53.38,54.9369572 53.61,54.2169572 53.95,53.6069572 C54.3380045,52.4868262 54.3415233,51.2693123 53.96,50.1469572 Z" id="Path" fill="#000000"></path>
                    <path d="M33.22,56.6669572 C33.81,56.4769572 34.4,56.2969572 34.98,56.0769572 C35.34,55.4369572 35.7,54.7969572 36.07,54.1569572 C36.97,52.5869572 37.91,51.0369572 38.84,49.4769572 C39.19,48.8869572 39.56,48.2769572 39.97,47.7169572 L38.06,47.9369572 C37.2439801,46.3320934 36.71918,44.5951742 36.51,42.8069572 C35.6173901,42.3042531 34.5721099,42.1442613 33.57,42.3569572 C32.3574217,42.6668583 31.2026457,43.1699625 30.15,43.8469572 C26.604598,45.7445609 23.2346981,47.9532341 20.08,50.4469572 C18.0375423,52.0173701 16.4583458,54.1114468 15.51,56.5069572 C15.0530255,57.9744493 14.8666618,59.5127973 14.96,61.0469572 C14.96,61.8269572 15.04,62.5969572 15.11,63.3669572 C15.2430197,64.0898681 15.4508022,64.7969991 15.73,65.4769572 C16.3302804,67.4789528 16.5773046,69.5701984 16.46,71.6569572 C16.2793954,72.6476828 16.172436,73.650427 16.14,74.6569572 C16.25,75.6569572 16.4,76.7569572 16.5,77.8169572 C16.64,79.2869572 16.85,80.8969572 17.93,81.8969572 C19.01,82.8969572 20.6,82.9769572 22.06,83.0069572 C23.32,83.0069572 24.82,83.0069572 25.51,81.8969572 C26.45,80.4469572 25.76,78.0369572 25.72,76.4269572 C25.6800228,74.3450566 25.7903091,72.2629846 26.05,70.1969572 C26.3727608,68.3594179 26.5665673,66.5015487 26.63,64.6369572 C26.6791656,62.7566446 26.0866541,60.9156267 24.95,59.4169572 C27.7,58.5169572 30.43,57.5469572 33.22,56.6669572 Z" id="Path" fill="#000000"></path>
                    <path d="M34.89,63.1269572 L14.41,51.3069572 C14.3327962,51.2808676 14.2808276,51.2084501 14.2808276,51.1269572 C14.2808276,51.0454643 14.3327962,50.9730468 14.41,50.9469572 L28.57,42.7769572 C28.7611361,42.677356 28.9888639,42.677356 29.18,42.7769572 L49.66,54.5969572 C49.83,54.6969572 49.83,54.8569572 49.66,54.9469572 L35.51,63.1269572 C35.3161946,63.2300688 35.0838054,63.2300688 34.89,63.1269572 Z" id="Path" fill="#EEF1F7"></path>
                    <path d="M18.14,51.1469572 L16.32,50.1469572 C16.2754993,50.1268497 16.2245007,50.1268497 16.18,50.1469572 L15.77,50.3869572 L17.59,51.4369572 C17.6345007,51.4570648 17.6854993,51.4570648 17.73,51.4369572 L18.14,51.1969572 L18.14,51.1469572 Z" id="Path" fill="#414042"></path>
                    <path d="M19.62,51.9969572 L18.45,51.3169572 C18.4021161,51.2963851 18.3478839,51.2963851 18.3,51.3169572 L17.9,51.5569572 L19.07,52.2369572 C19.1145007,52.2570648 19.1654993,52.2570648 19.21,52.2369572 L19.62,52.0069572 C19.62,52.0069572 19.66,52.0269572 19.62,51.9969572 Z" id="Path" fill="#414042"></path>
                    <path d="M21.07,52.8369572 L19.89,52.1569572 C19.8454993,52.1368497 19.7945007,52.1368497 19.75,52.1569572 L19.35,52.3969572 L20.52,53.0769572 C20.5645007,53.0970648 20.6154993,53.0970648 20.66,53.0769572 L21.07,52.8369572 Z" id="Path" fill="#414042"></path>
                    <path d="M22.51,53.6769572 L21.33,52.9969572 C21.2854993,52.9768497 21.2345007,52.9768497 21.19,52.9969572 L20.78,53.2269572 C20.767085,53.2383472 20.7596863,53.2547372 20.7596863,53.2719572 C20.7596863,53.2891773 20.767085,53.3055672 20.78,53.3169572 L21.96,53.9869572 C22.0018315,54.017 22.0581685,54.017 22.1,53.9869572 L22.51,53.7569572 L22.51,53.6769572 Z" id="Path" fill="#414042"></path>
                    <path d="M23.97,54.5069572 L22.79,53.8269572 C22.7454993,53.8068497 22.6945007,53.8068497 22.65,53.8269572 L22.24,54.0669572 L23.42,54.7469572 C23.4645007,54.7670648 23.5154993,54.7670648 23.56,54.7469572 L23.97,54.5169572 C23.97,54.5169572 24.01,54.5369572 23.97,54.5069572 Z" id="Path" fill="#414042"></path>
                    <path d="M25.42,55.3469572 L24.24,54.6669572 C24.1954993,54.6468497 24.1445007,54.6468497 24.1,54.6669572 L23.69,54.9069572 L24.87,55.5869572 C24.9145007,55.6070648 24.9654993,55.6070648 25.01,55.5869572 L25.42,55.3469572 Z" id="Path" fill="#414042"></path>
                    <path d="M26.87,56.1869572 L25.69,55.5069572 C25.6454993,55.4868497 25.5945007,55.4868497 25.55,55.5069572 L25.14,55.7369572 C25.14,55.7369572 25.14,55.7969572 25.14,55.8269572 L26.32,56.4969572 C26.3618315,56.527 26.4181685,56.527 26.46,56.4969572 L26.87,56.2669572 L26.87,56.1869572 Z" id="Path" fill="#414042"></path>
                    <path d="M28.32,57.0169572 L27.14,56.3469572 C27.0981685,56.3169145 27.0418315,56.3169145 27,56.3469572 L26.59,56.5769572 L27.77,57.2569572 C27.8145007,57.2770648 27.8654993,57.2770648 27.91,57.2569572 L28.32,57.0269572 C28.32,57.0269572 28.36,57.0469572 28.32,57.0169572 Z" id="Path" fill="#414042"></path>
                    <path d="M29.77,57.8569572 L28.59,57.1769572 C28.5454993,57.1568497 28.4945007,57.1568497 28.45,57.1769572 L28.04,57.4169572 L29.22,58.0969572 C29.2645007,58.1170648 29.3154993,58.1170648 29.36,58.0969572 L29.77,57.8569572 Z" id="Path" fill="#414042"></path>
                    <path d="M31.22,58.6969572 L30.04,58.0169572 C29.9954993,57.9968497 29.9445007,57.9968497 29.9,58.0169572 L29.49,58.2469572 C29.49,58.2469572 29.49,58.3069572 29.49,58.3369572 L30.67,59.0069572 C30.7118315,59.037 30.7681685,59.037 30.81,59.0069572 L31.22,58.7769572 L31.22,58.6969572 Z" id="Path" fill="#414042"></path>
                    <path d="M32.66,59.5269572 L31.51,58.8569572 C31.4681685,58.8269145 31.4118315,58.8269145 31.37,58.8569572 L30.96,59.0869572 L32.13,59.7669572 C32.1778839,59.7875293 32.2321161,59.7875293 32.28,59.7669572 L32.68,59.5369572 C32.68,59.5369572 32.7,59.5569572 32.66,59.5269572 Z" id="Path" fill="#414042"></path>
                    <path d="M34.11,60.3669572 L32.94,59.6869572 C32.8954993,59.6668497 32.8445007,59.6668497 32.8,59.6869572 L32.39,59.9269572 L33.56,60.6069572 C33.6081065,60.6264173 33.6618935,60.6264173 33.71,60.6069572 L34.11,60.3669572 Z" id="Path" fill="#414042"></path>
                    <path d="M35.56,61.2069572 L34.39,60.5269572 C34.3454993,60.5068497 34.2945007,60.5068497 34.25,60.5269572 L33.84,60.7569572 C33.84,60.7569572 33.84,60.8169572 33.84,60.8469572 L35.01,61.5269572 C35.0545007,61.5470648 35.1054993,61.5470648 35.15,61.5269572 L35.56,61.2869572 L35.56,61.2069572 Z" id="Path" fill="#414042"></path>
                    <path d="M37.01,62.0369572 L35.84,61.3669572 C35.7942182,61.3379118 35.7357818,61.3379118 35.69,61.3669572 L35.29,61.5969572 L36.46,62.2769572 C36.5045007,62.2970648 36.5554993,62.2970648 36.6,62.2769572 L37.01,62.0469572 C37.01,62.0469572 37.05,62.0669572 37.01,62.0369572 Z" id="Path" fill="#414042"></path>
                    <path d="M18.91,49.9369572 L17.77,49.2869572 C17.7281685,49.2569145 17.6718315,49.2569145 17.63,49.2869572 L16.51,49.9369572 C16.51,49.9369572 16.51,49.9969572 16.51,50.0269572 L17.65,50.6769572 C17.6945007,50.6970648 17.7454993,50.6970648 17.79,50.6769572 L18.93,50.0269572 C18.940884,50.0128609 18.9449434,49.9946579 18.94108,49.9772728 C18.9372167,49.9598876 18.9258298,49.9451172 18.91,49.9369572 L18.91,49.9369572 Z" id="Path" fill="#414042"></path>
                    <path d="M21.03,49.5269572 L19.17,48.4569572 C19.1218935,48.4374972 19.0681065,48.4374972 19.02,48.4569572 L17.89,49.1169572 L19.75,50.1869572 C19.7918315,50.217 19.8481685,50.217 19.89,50.1869572 L21.03,49.5369572 C21.03,49.5369572 21.07,49.5569572 21.03,49.5269572 Z" id="Path" fill="#414042"></path>
                    <path d="M22.78,48.9369572 L20.56,47.6569572 C20.5181685,47.6269145 20.4618315,47.6269145 20.42,47.6569572 L19.28,48.3069572 C19.28,48.3069572 19.28,48.3669572 19.28,48.3969572 L21.51,49.6769572 C21.5545007,49.6970648 21.6054993,49.6970648 21.65,49.6769572 L22.79,49.0169572 L22.78,48.9369572 Z" id="Path" fill="#414042"></path>
                    <path d="M24.91,48.5569572 L21.91,46.8469572 C21.8654993,46.8268497 21.8145007,46.8268497 21.77,46.8469572 L20.63,47.5069572 L23.63,49.2169572 C23.6745007,49.2370648 23.7254993,49.2370648 23.77,49.2169572 L24.91,48.5669572 C24.91,48.5669572 24.95,48.5869572 24.91,48.5569572 Z" id="Path" fill="#414042"></path>
                    <path d="M20.35,50.7569572 L19.21,50.0969572 C19.1654993,50.0768497 19.1145007,50.0768497 19.07,50.0969572 L17.94,50.7569572 L19.07,51.4169572 C19.1145007,51.4370648 19.1654993,51.4370648 19.21,51.4169572 L20.35,50.7569572 L20.35,50.7569572 Z" id="Path" fill="#414042"></path>
                    <path d="M21.8,51.5869572 L20.66,50.9369572 C20.6161601,50.9018572 20.5538399,50.9018572 20.51,50.9369572 L19.37,51.5869572 C19.37,51.5869572 19.37,51.6469572 19.37,51.6769572 L20.51,52.3269572 C20.5545007,52.3470648 20.6054993,52.3470648 20.65,52.3269572 L21.79,51.6769572 C21.79,51.6769572 21.84,51.6169572 21.8,51.5869572 Z" id="Path" fill="#414042"></path>
                    <path d="M23.24,52.4269572 L22.11,51.7669572 C22.0621161,51.7463851 22.0078839,51.7463851 21.96,51.7669572 L20.83,52.4269572 L21.96,53.0869572 C22.0081065,53.1064173 22.0618935,53.1064173 22.11,53.0869572 L23.24,52.4269572 Z" id="Path" fill="#414042"></path>
                    <path d="M24.69,53.2569572 L23.51,52.6069572 C23.4681685,52.5769145 23.4118315,52.5769145 23.37,52.6069572 L22.23,53.2569572 C22.23,53.2569572 22.23,53.3169572 22.23,53.3369572 L23.37,53.9969572 C23.4145007,54.0170648 23.4654993,54.0170648 23.51,53.9969572 L24.65,53.3369572 C24.65,53.3369572 24.73,53.2869572 24.69,53.2569572 Z" id="Path" fill="#414042"></path>
                    <path d="M26.14,54.0969572 L25,53.4369572 C24.9554993,53.4168497 24.9045007,53.4168497 24.86,53.4369572 L23.72,54.0969572 L24.86,54.7569572 C24.9045007,54.7770648 24.9554993,54.7770648 25,54.7569572 L26.14,54.0969572 Z" id="Path" fill="#414042"></path>
                    <path d="M27.58,54.9369572 L26.44,54.2869572 C26.3981685,54.2569145 26.3418315,54.2569145 26.3,54.2869572 L25.17,54.9369572 C25.17,54.9369572 25.17,54.9969572 25.17,55.0169572 L26.3,55.6769572 C26.3445007,55.6970648 26.3954993,55.6970648 26.44,55.6769572 L27.58,55.0169572 C27.58,55.0169572 27.62,54.9369572 27.58,54.9369572 Z" id="Path" fill="#414042"></path>
                    <path d="M29.03,55.7669572 L27.89,55.1069572 C27.8454993,55.0868497 27.7945007,55.0868497 27.75,55.1069572 L26.61,55.7669572 L27.75,56.4269572 C27.7945007,56.4470648 27.8454993,56.4470648 27.89,56.4269572 L29.03,55.7669572 Z" id="Path" fill="#414042"></path>
                    <path d="M30.51,56.5969572 L29.34,55.9369572 C29.2981685,55.9069145 29.2418315,55.9069145 29.2,55.9369572 L28.06,56.5869572 C28.06,56.5869572 28.06,56.6469572 28.06,56.6669572 L29.2,57.3269572 C29.2445007,57.3470648 29.2954993,57.3470648 29.34,57.3269572 L30.51,56.6769572 C30.51,56.6769572 30.51,56.6269572 30.51,56.5969572 Z" id="Path" fill="#414042"></path>
                    <path d="M31.92,57.4369572 L30.78,56.7769572 C30.7354993,56.7568497 30.6845007,56.7568497 30.64,56.7769572 L29.51,57.4369572 L30.65,58.0969572 C30.6945007,58.1170648 30.7454993,58.1170648 30.79,58.0969572 L31.93,57.4369572 L31.92,57.4369572 Z" id="Path" fill="#414042"></path>
                    <path d="M33.37,58.2669572 L32.23,57.6169572 C32.1881685,57.5869145 32.1318315,57.5869145 32.09,57.6169572 L30.95,58.2669572 C30.95,58.2669572 30.95,58.3269572 30.95,58.3469572 L32.09,59.0069572 C32.1345007,59.0270648 32.1854993,59.0270648 32.23,59.0069572 L33.37,58.3469572 C33.37,58.3469572 33.41,58.2969572 33.37,58.2669572 Z" id="Path" fill="#414042"></path>
                    <path d="M34.81,59.1069572 L33.68,58.4469572 C33.6321161,58.4263851 33.5778839,58.4263851 33.53,58.4469572 L32.4,59.1069572 L33.53,59.7669572 C33.5781065,59.7864173 33.6318935,59.7864173 33.68,59.7669572 L34.81,59.1069572 Z" id="Path" fill="#414042"></path>
                    <path d="M36.26,59.9369572 L35.12,59.2869572 C35.0781685,59.2569145 35.0218315,59.2569145 34.98,59.2869572 L33.84,59.9369572 L34.98,60.5969572 C35.0245007,60.6170648 35.0754993,60.6170648 35.12,60.5969572 L36.26,59.9369572 Z" id="Path" fill="#414042"></path>
                    <path d="M22.51,50.3669572 L21.38,49.7069572 C21.3318935,49.6874972 21.2781065,49.6874972 21.23,49.7069572 L20.1,50.3669572 L21.23,51.0269572 C21.2781065,51.0464173 21.3318935,51.0464173 21.38,51.0269572 L22.51,50.4469572 L22.51,50.3669572 Z" id="Path" fill="#414042"></path>
                    <path d="M23.92,51.1969572 L22.78,50.5469572 C22.7381685,50.5169145 22.6818315,50.5169145 22.64,50.5469572 L21.51,51.1969572 C21.51,51.1969572 21.51,51.2569572 21.51,51.2869572 L22.65,51.9369572 C22.6945007,51.9570648 22.7454993,51.9570648 22.79,51.9369572 L23.93,51.2869572 C23.93,51.2869572 23.96,51.2269572 23.92,51.1969572 Z" id="Path" fill="#414042"></path>
                    <path d="M25.36,52.0369572 L24.23,51.3769572 C24.1854993,51.3568497 24.1345007,51.3568497 24.09,51.3769572 L22.95,52.0369572 L24.09,52.6969572 C24.1345007,52.7170648 24.1854993,52.7170648 24.23,52.6969572 L25.36,52.0369572 Z" id="Path" fill="#414042"></path>
                    <path d="M26.81,52.8669572 L25.67,52.2169572 C25.6281685,52.1869145 25.5718315,52.1869145 25.53,52.2169572 L24.4,52.8669572 C24.4,52.8669572 24.4,52.9269572 24.4,52.9569572 L25.53,53.6069572 C25.5745007,53.6270648 25.6254993,53.6270648 25.67,53.6069572 L26.81,52.9369572 C26.81,52.9369572 26.85,52.9369572 26.81,52.8669572 Z" id="Path" fill="#414042"></path>
                    <path d="M28.26,53.7069572 L27.12,53.0469572 C27.0754993,53.0268497 27.0245007,53.0268497 26.98,53.0469572 L25.84,53.7069572 L26.98,54.3669572 C27.0245007,54.3870648 27.0754993,54.3870648 27.12,54.3669572 L28.26,53.7069572 Z" id="Path" fill="#414042"></path>
                    <path d="M29.7,54.5369572 L28.57,53.9369572 C28.5242182,53.9079118 28.4657818,53.9079118 28.42,53.9369572 L27.29,54.5869572 C27.29,54.5869572 27.29,54.6469572 27.29,54.6669572 L28.42,55.3269572 C28.4681065,55.3464173 28.5218935,55.3464173 28.57,55.3269572 L29.7,54.6669572 C29.7,54.6669572 29.74,54.5669572 29.7,54.5369572 Z" id="Path" fill="#414042"></path>
                    <path d="M31.15,55.3769572 L30.01,54.7169572 C29.9654993,54.6968497 29.9145007,54.6968497 29.87,54.7169572 L28.73,55.3769572 L29.87,56.0369572 C29.9145007,56.0570648 29.9654993,56.0570648 30.01,56.0369572 L31.15,55.3769572 Z" id="Path" fill="#414042"></path>
                    <path d="M32.6,56.2069572 L31.51,55.5569572 C31.4681685,55.5269145 31.4118315,55.5269145 31.37,55.5569572 L30.23,56.2069572 C30.23,56.2069572 30.23,56.2669572 30.23,56.2869572 L31.37,56.9469572 C31.4159288,56.9639433 31.4669517,56.9602988 31.51,56.9369572 L32.65,56.2769572 C32.65,56.2769572 32.63,56.2369572 32.6,56.2069572 Z" id="Path" fill="#414042"></path>
                    <path d="M34.04,57.0469572 L32.9,56.3869572 C32.8554993,56.3668497 32.8045007,56.3668497 32.76,56.3869572 L31.63,57.0469572 L32.76,57.7069572 C32.8045007,57.7270648 32.8554993,57.7270648 32.9,57.7069572 L34.04,57.0469572 L34.04,57.0469572 Z" id="Path" fill="#414042"></path>
                    <path d="M35.51,57.8769572 L34.37,57.2269572 C34.3281685,57.1969145 34.2718315,57.1969145 34.23,57.2269572 L33.09,57.8769572 C33.09,57.8769572 33.09,57.9369572 33.09,57.9569572 L34.23,58.6169572 C34.2745007,58.6370648 34.3254993,58.6370648 34.37,58.6169572 L35.51,57.9369572 C35.51,57.9369572 35.51,57.9369572 35.51,57.8769572 Z" id="Path" fill="#414042"></path>
                    <path d="M36.93,58.7169572 L35.8,58.0569572 C35.7554993,58.0368497 35.7045007,58.0368497 35.66,58.0569572 L34.51,58.7169572 L35.65,59.3769572 C35.6945007,59.3970648 35.7454993,59.3970648 35.79,59.3769572 L36.92,58.7169572 L36.93,58.7169572 Z" id="Path" fill="#414042"></path>
                    <path d="M38.38,59.5469572 L37.24,58.9369572 C37.1981685,58.9069145 37.1418315,58.9069145 37.1,58.9369572 L35.96,59.5869572 C35.96,59.5869572 35.96,59.6469572 35.96,59.6669572 L37.1,60.3269572 C37.1445007,60.3470648 37.1954993,60.3470648 37.24,60.3269572 L38.38,59.6669572 C38.38,59.6669572 38.42,59.5769572 38.38,59.5469572 Z" id="Path" fill="#414042"></path>
                    <path d="M24.21,49.7569572 L23.07,49.1069572 C23.0254993,49.0868497 22.9745007,49.0868497 22.93,49.1069572 L21.79,49.7569572 C21.79,49.7569572 21.79,49.8169572 21.79,49.8469572 L22.93,50.4969572 C22.9718315,50.527 23.0281685,50.527 23.07,50.4969572 L24.21,49.8469572 C24.21,49.8469572 24.25,49.7869572 24.21,49.7569572 Z" id="Path" fill="#414042"></path>
                    <path d="M25.65,50.5969572 L24.51,49.9369572 C24.4621161,49.9163851 24.4078839,49.9163851 24.36,49.9369572 L23.23,50.5969572 L24.36,51.2569572 C24.4078839,51.2775293 24.4621161,51.2775293 24.51,51.2569572 L25.64,50.5969572 L25.65,50.5969572 Z" id="Path" fill="#414042"></path>
                    <path d="M27.1,51.4269572 L25.96,50.7769572 C25.9154993,50.7568497 25.8645007,50.7568497 25.82,50.7769572 L24.68,51.4269572 C24.68,51.4269572 24.68,51.4869572 24.68,51.5169572 L25.82,52.1669572 C25.8618315,52.197 25.9181685,52.197 25.96,52.1669572 L27.1,51.5169572 C27.1,51.5169572 27.14,51.4569572 27.1,51.4269572 Z" id="Path" fill="#414042"></path>
                    <path d="M28.51,52.2669572 L27.37,51.6069572 C27.3254993,51.5868497 27.2745007,51.5868497 27.23,51.6069572 L26.09,52.2669572 L27.23,52.9269572 C27.2745007,52.9470648 27.3254993,52.9470648 27.37,52.9269572 L28.51,52.3469572 L28.51,52.2669572 Z" id="Path" fill="#414042"></path>
                    <path d="M29.99,53.0969572 L28.85,52.4469572 C28.8054993,52.4268497 28.7545007,52.4268497 28.71,52.4469572 L27.58,53.0969572 C27.58,53.0969572 27.58,53.1569572 27.58,53.1869572 L28.71,53.8369572 C28.7518315,53.867 28.8081685,53.867 28.85,53.8369572 L29.99,53.1869572 C29.99,53.1869572 30.03,53.1269572 29.99,53.0969572 Z" id="Path" fill="#414042"></path>
                    <path d="M31.44,53.9369572 L30.3,53.2769572 C30.2554993,53.2568497 30.2045007,53.2568497 30.16,53.2769572 L29.02,53.9369572 L30.16,54.5969572 C30.2045007,54.6170648 30.2554993,54.6170648 30.3,54.5969572 L31.44,53.9369572 L31.44,53.9369572 Z" id="Path" fill="#414042"></path>
                    <path d="M32.88,54.7669572 L31.75,54.1169572 C31.7054993,54.0968497 31.6545007,54.0968497 31.61,54.1169572 L30.51,54.7669572 C30.51,54.7669572 30.51,54.8269572 30.51,54.8569572 L31.65,55.5069572 C31.6945007,55.5270648 31.7454993,55.5270648 31.79,55.5069572 L32.92,54.8569572 C32.92,54.8569572 32.92,54.7969572 32.88,54.7669572 Z" id="Path" fill="#414042"></path>
                    <path d="M34.33,55.6069572 L33.19,54.9369572 C33.1454993,54.9168497 33.0945007,54.9168497 33.05,54.9369572 L31.91,55.5969572 L33.05,56.2569572 C33.0945007,56.2770648 33.1454993,56.2770648 33.19,56.2569572 L34.33,55.5969572 L34.33,55.6069572 Z" id="Path" fill="#414042"></path>
                    <path d="M35.78,56.4369572 L34.64,55.7869572 C34.5954993,55.7668497 34.5445007,55.7668497 34.5,55.7869572 L33.36,56.4369572 C33.36,56.4369572 33.36,56.4969572 33.36,56.5269572 L34.5,57.1769572 C34.5445007,57.1970648 34.5954993,57.1970648 34.64,57.1769572 L35.78,56.5269572 C35.792915,56.5155672 35.8003137,56.4991773 35.8003137,56.4819572 C35.8003137,56.4647372 35.792915,56.4483472 35.78,56.4369572 L35.78,56.4369572 Z" id="Path" fill="#414042"></path>
                    <path d="M37.22,57.2769572 L36.08,56.6169572 C36.0354993,56.5968497 35.9845007,56.5968497 35.94,56.6169572 L34.81,57.2769572 L35.94,57.9369572 C35.9845007,57.9570648 36.0354993,57.9570648 36.08,57.9369572 L37.22,57.2769572 Z" id="Path" fill="#414042"></path>
                    <path d="M38.67,58.1069572 L37.51,57.4569572 C37.4681685,57.4269145 37.4118315,57.4269145 37.37,57.4569572 L36.23,58.1069572 C36.23,58.1069572 36.23,58.1669572 36.23,58.1969572 L37.37,58.8469572 C37.4145007,58.8670648 37.4654993,58.8670648 37.51,58.8469572 L38.65,58.1969572 C38.65,58.1969572 38.71,58.1369572 38.67,58.1069572 Z" id="Path" fill="#414042"></path>
                    <path d="M26.32,49.3769572 L25.18,48.7169572 C25.1354993,48.6968497 25.0845007,48.6968497 25.04,48.7169572 L23.9,49.3769572 L25.04,50.0369572 C25.0845007,50.0570648 25.1354993,50.0570648 25.18,50.0369572 L26.32,49.3769572 Z" id="Path" fill="#414042"></path>
                    <path d="M24.51,46.6869572 L23.37,46.0369572 C23.3281685,46.0069145 23.2718315,46.0069145 23.23,46.0369572 L22.09,46.6869572 C22.077085,46.6983472 22.0696863,46.7147372 22.0696863,46.7319572 C22.0696863,46.7491773 22.077085,46.7655672 22.09,46.7769572 L23.23,47.4269572 C23.2745007,47.4470648 23.3254993,47.4470648 23.37,47.4269572 L24.51,46.7769572 C24.51,46.7769572 24.51,46.7169572 24.51,46.6869572 Z" id="Path" fill="#414042"></path>
                    <path d="M25.95,47.5269572 L24.81,46.8669572 C24.7654993,46.8468497 24.7145007,46.8468497 24.67,46.8669572 L23.51,47.5269572 L24.65,48.1869572 C24.6945007,48.2070648 24.7454993,48.2070648 24.79,48.1869572 L25.93,47.5269572 L25.95,47.5269572 Z" id="Path" fill="#414042"></path>
                    <path d="M27.39,48.3569572 L26.25,47.7069572 C26.2081685,47.6769145 26.1518315,47.6769145 26.11,47.7069572 L24.98,48.3569572 C24.98,48.3569572 24.98,48.4169572 24.98,48.4369572 L26.11,49.0969572 C26.1545007,49.1170648 26.2054993,49.1170648 26.25,49.0969572 L27.39,48.4369572 C27.39,48.4369572 27.43,48.3869572 27.39,48.3569572 Z" id="Path" fill="#414042"></path>
                    <path d="M29.22,49.4169572 L27.7,48.5369572 C27.6554993,48.5168497 27.6045007,48.5168497 27.56,48.5369572 L26.42,49.1969572 L27.94,50.0769572 C27.9881065,50.0964173 28.0418935,50.0964173 28.09,50.0769572 L29.22,49.4169572 L29.22,49.4169572 Z" id="Path" fill="#414042"></path>
                    <path d="M36.41,53.5669572 L29.49,49.5669572 C29.4454993,49.5468497 29.3945007,49.5468497 29.35,49.5669572 L28.21,50.2269572 L35.13,54.2269572 C35.1745007,54.2470648 35.2254993,54.2470648 35.27,54.2269572 L36.41,53.5669572 Z" id="Path" fill="#414042"></path>
                    <path d="M27.76,50.2069572 L26.63,49.5569572 C26.5842182,49.5279118 26.5257818,49.5279118 26.48,49.5569572 L25.35,50.2069572 L26.51,50.9369572 C26.5581065,50.9564173 26.6118935,50.9564173 26.66,50.9369572 L27.79,50.2769572 L27.76,50.2069572 Z" id="Path" fill="#414042"></path>
                    <path d="M29.21,51.0469572 L28.07,50.3869572 C28.0254993,50.3668497 27.9745007,50.3668497 27.93,50.3869572 L26.79,51.0469572 L27.93,51.7069572 C27.9745007,51.7270648 28.0254993,51.7270648 28.07,51.7069572 L29.21,51.0469572 L29.21,51.0469572 Z" id="Path" fill="#414042"></path>
                    <path d="M30.65,51.8769572 L29.51,51.2269572 C29.4681685,51.1969145 29.4118315,51.1969145 29.37,51.2269572 L28.23,51.8769572 L29.37,52.5369572 C29.4145007,52.5570648 29.4654993,52.5570648 29.51,52.5369572 L30.65,51.9369572 L30.65,51.8769572 Z" id="Path" fill="#414042"></path>
                    <path d="M32.1,52.7169572 L30.96,52.0569572 C30.9154993,52.0368497 30.8645007,52.0368497 30.82,52.0569572 L29.69,52.7169572 L30.82,53.3669572 C30.8618315,53.397 30.9181685,53.397 30.96,53.3669572 L32.1,52.7169572 L32.1,52.7169572 Z" id="Path" fill="#414042"></path>
                    <path d="M33.51,53.5469572 L32.41,52.9369572 C32.3681685,52.9069145 32.3118315,52.9069145 32.27,52.9369572 L31.13,53.5869572 L32.27,54.2469572 C32.3145007,54.2670648 32.3654993,54.2670648 32.41,54.2469572 L33.51,53.6269572 L33.51,53.5469572 Z" id="Path" fill="#414042"></path>
                    <path d="M34.99,54.3869572 L33.86,53.7269572 C33.8121161,53.7063851 33.7578839,53.7063851 33.71,53.7269572 L32.58,54.3869572 L33.71,55.0369572 C33.7557818,55.0660027 33.8142182,55.0660027 33.86,55.0369572 L34.99,54.3869572 L34.99,54.3869572 Z" id="Path" fill="#414042"></path>
                    <path d="M36.44,55.2169572 L35.3,54.5669572 C35.2581685,54.5369145 35.2018315,54.5369145 35.16,54.5669572 L34.02,55.2169572 L35.16,55.8769572 C35.2045007,55.8970648 35.2554993,55.8970648 35.3,55.8769572 L36.44,55.2169572 L36.44,55.2169572 Z" id="Path" fill="#414042"></path>
                    <path d="M38.24,54.6269572 L36.72,53.7469572 C36.6754993,53.7268497 36.6245007,53.7268497 36.58,53.7469572 L35.44,54.3969572 C35.44,54.3969572 35.44,54.4569572 35.44,54.4869572 L36.96,55.3569572 C37.0018315,55.387 37.0581685,55.387 37.1,55.3569572 L38.24,54.7069572 C38.24,54.7069572 38.28,54.6469572 38.24,54.6269572 Z" id="Path" fill="#414042"></path>
                    <path d="M37.88,56.0569572 L36.75,55.3969572 C36.7054993,55.3768497 36.6545007,55.3768497 36.61,55.3969572 L35.51,56.0569572 L36.65,56.7069572 C36.6918315,56.737 36.7481685,56.737 36.79,56.7069572 L37.92,56.0569572 L37.88,56.0569572 Z" id="Path" fill="#414042"></path>
                    <path d="M39.66,55.4469572 L38.51,54.7869572 C38.4654993,54.7668497 38.4145007,54.7668497 38.37,54.7869572 L37.24,55.4469572 L38.37,56.1069572 C38.4145007,56.1270648 38.4654993,56.1270648 38.51,56.1069572 L39.65,55.4469572 L39.66,55.4469572 Z" id="Path" fill="#414042"></path>
                    <path d="M41.1,56.2769572 L39.97,55.6169572 C39.9254993,55.5968497 39.8745007,55.5968497 39.83,55.6169572 L38.69,56.2769572 L39.83,56.9369572 C39.8745007,56.9570648 39.9254993,56.9570648 39.97,56.9369572 L41.1,56.2769572 Z" id="Path" fill="#414042"></path>
                    <path d="M42.51,57.1069572 L41.37,56.4569572 C41.3281685,56.4269145 41.2718315,56.4269145 41.23,56.4569572 L40.09,57.1069572 C40.09,57.1069572 40.09,57.1669572 40.09,57.1969572 L41.23,57.8469572 C41.2745007,57.8670648 41.3254993,57.8670648 41.37,57.8469572 L42.51,57.1969572 C42.51,57.1969572 42.59,57.1369572 42.51,57.1069572 Z" id="Path" fill="#414042"></path>
                    <path d="M44.01,57.9369572 L42.87,57.2769572 C42.8254993,57.2568497 42.7745007,57.2568497 42.73,57.2769572 L41.6,57.9369572 L42.73,58.5969572 C42.7745007,58.6170648 42.8254993,58.6170648 42.87,58.5969572 L44.01,57.9369572 Z" id="Path" fill="#414042"></path>
                    <path d="M39.33,56.9369572 L38.19,56.2769572 C38.1454993,56.2568497 38.0945007,56.2568497 38.05,56.2769572 L36.92,56.9369572 L38.05,57.5969572 C38.0945007,57.6170648 38.1454993,57.6170648 38.19,57.5969572 L39.33,56.9369572 Z" id="Path" fill="#414042"></path>
                    <path d="M41.2,59.5769572 L38.98,58.2869572 C38.9354993,58.2668497 38.8845007,58.2668497 38.84,58.2869572 L37.7,58.9369572 L39.93,60.2269572 C39.9745007,60.2470648 40.0254993,60.2470648 40.07,60.2269572 L41.2,59.5669572 L41.2,59.5769572 Z" id="Path" fill="#414042"></path>
                    <path d="M42.6,58.7769572 L39.6,57.0669572 C39.5554993,57.0468497 39.5045007,57.0468497 39.46,57.0669572 L38.33,57.7269572 L41.33,59.4269572 C41.3718315,59.457 41.4281685,59.457 41.47,59.4269572 L42.61,58.7769572 C42.61,58.7769572 42.63,58.7969572 42.6,58.7769572 Z" id="Path" fill="#414042"></path>
                    <path d="M39.81,60.3769572 L38.68,59.7169572 C38.6354993,59.6968497 38.5845007,59.6968497 38.54,59.7169572 L37.4,60.3769572 L38.54,61.0369572 C38.5845007,61.0570648 38.6354993,61.0570648 38.68,61.0369572 L39.81,60.3769572 Z" id="Path" fill="#414042"></path>
                    <path d="M38.51,61.2069572 L36.51,60.1069572 C36.4654993,60.0868497 36.4145007,60.0868497 36.37,60.1069572 L35.23,60.7669572 C35.23,60.7669572 35.23,60.7669572 35.23,60.8469572 L37.18,61.9369572 C37.2245007,61.9570648 37.2754993,61.9570648 37.32,61.9369572 L38.51,61.2869572 L38.51,61.2069572 Z" id="Path" fill="#414042"></path>
                    <path d="M43.43,51.2569572 L34.97,46.3769572 C34.9281685,46.3469145 34.8718315,46.3469145 34.83,46.3769572 L29.74,49.3069572 C29.74,49.3069572 29.74,49.3669572 29.74,49.3969572 L38.19,54.2769572 C38.2378839,54.2975293 38.2921161,54.2975293 38.34,54.2769572 L43.43,51.3369572 L43.43,51.2569572 Z" id="Path" fill="#D1D3D4"></path>
                    <polygon id="Path" fill="#C3C3C4" points="30.24 60.2469572 19.39 53.9869572 18.77 54.3469572 29.62 60.6069572"></polygon>
                    <path d="M49.66,54.9369572 L35.51,63.1269572 C35.3188639,63.2265585 35.0911361,63.2265585 34.9,63.1269572 L14.56,51.3869572 L14.41,51.4769572 C14.24,51.5769572 14.24,51.7369572 14.41,51.8269572 L34.89,63.6569572 C35.0832879,63.7473468 35.3067121,63.7473468 35.5,63.6569572 L49.66,55.4769572 C49.7341032,55.4466445 49.7845226,55.376833 49.79,55.2969572 L49.79,54.7769572 C49.79,54.8369572 49.75,54.9369572 49.66,54.9369572 Z" id="Path" fill="#B4C0D1"></path>
                    <polygon id="Path" fill="#BCBEC0" points="49.79 54.7769572 49.79 54.7469572 49.78 54.7469572"></polygon>
                    <path d="M37.38,36.1669572 C37.3616008,35.3615196 37.2779941,34.5588954 37.13,33.7669572 C36.91,32.3969572 36.7,31.0269572 36.48,29.6569572 C35.5113159,29.525732 34.5830012,29.1844399 33.76,28.6569572 C33.9127579,29.9832389 33.7340878,31.326701 33.24,32.5669572 C32.7951095,33.3600488 32.2867847,34.1158476 31.72,34.8269572 C31.0746393,35.8223223 30.5191159,36.8731315 30.06,37.9669572 C29.23,39.7869572 28.39,41.6069572 27.56,43.4369572 L27.15,43.4369572 C26.15,43.6269572 25.15,43.6069572 24.15,43.7169572 C23.1602807,43.7836944 22.202154,44.0927676 21.36,44.6169572 C20.7043889,45.1174975 20.1624536,45.7514596 19.77,46.4769572 C19.1822823,47.4415868 18.7882658,48.5115453 18.61,49.6269572 C18.5748052,49.7715125 18.5748052,49.9224019 18.61,50.0669572 C18.6381046,50.2200156 18.750438,50.3439696 18.9,50.3869572 C19.15,50.4469572 19.35,50.1969572 19.49,49.9869572 C19.63,49.7769572 19.82,49.4069572 19.96,49.1169572 C19.8924561,49.3468131 19.8390231,49.5805823 19.8,49.8169572 C19.7500328,50.0189803 19.7862535,50.2326822 19.9,50.4069572 C20.1092256,50.6088839 20.4407744,50.6088839 20.65,50.4069572 C20.8353034,50.1964727 20.9627944,49.9414906 21.02,49.6669572 C21.2837365,48.4549263 21.879243,47.3400828 22.74,46.4469572 C22.9583007,46.2444776 23.2281815,46.1060772 23.52,46.0469572 C23.8168267,45.9885107 24.1214851,46.1003474 24.31,46.3369572 C24.4947766,46.6557195 24.4587235,47.05631 24.22,47.3369572 C24.0159447,47.5726315 23.7764031,47.775061 23.51,47.9369572 C23.1,48.2069572 22.69,48.4969572 22.3,48.8069572 C21.91,49.1169572 21.76,49.3069572 21.86,49.6269572 C21.9397453,49.8360968 22.1363657,49.9776635 22.36,49.9869572 C22.5757163,50.0001277 22.7915105,49.9624493 22.99,49.8769572 C23.5784273,49.6477111 24.1498601,49.3770324 24.7,49.0669572 C25.4822869,48.6940507 26.2202408,48.2345067 26.9,47.6969572 C27.5657231,47.0804615 28.181022,46.4116584 28.74,45.6969572 C30.0578735,44.2122401 31.5294296,42.8714145 33.13,41.6969572 C34.7545356,40.416982 36.0732022,38.7908543 36.99,36.9369572 C37.13,36.6969572 37.26,36.4269572 37.38,36.1669572 Z" id="Path" fill="url(#linearGradient-10)"></path>
                    <path d="M34.79,63.5869572 L14.32,51.7669572 C14.1455052,51.661314 14.0307233,51.4798845 14.01,51.2769572 L14.01,37.1169572 C14.01,36.9469572 14.15,36.8869572 14.32,36.9869572 L34.79,48.8069572 C34.9644948,48.9126004 35.0792767,49.09403 35.1,49.2969572 L35.1,63.4569572 C35.1,63.6269572 34.96,63.6869572 34.79,63.5869572 Z" id="Path" fill="#EEF1F7"></path>
                    <path d="M34.99,48.7269572 L14.51,36.9369572 C14.4399919,36.905726 14.3600081,36.905726 14.29,36.9369572 L14.29,36.9369572 L14.11,37.0169572 L14.11,37.0169572 C14.1742087,36.9913555 14.2457913,36.9913555 14.31,37.0169572 L34.79,48.8069572 C34.9644948,48.9126004 35.0792767,49.09403 35.1,49.2969572 L35.1,63.4569572 C35.1056777,63.4833217 35.1056777,63.5105928 35.1,63.5369572 C35.1502309,63.5596811 35.208879,63.5530184 35.2527325,63.5196062 C35.2965861,63.4861939 35.3185764,63.4314179 35.31,63.3769572 L35.31,49.2069572 C35.2840661,49.0057936 35.1657149,48.8282668 34.99,48.7269572 L34.99,48.7269572 Z" id="Path" fill="#B4C0D1"></path>
                    <path d="M26.72,51.5369572 C26.72,52.7369572 25.72,53.1469572 24.56,52.4569572 C23.3343601,51.726495 22.5288542,50.4569881 22.39,49.0369572 C22.39,47.8369572 23.39,47.4269572 24.56,48.1169572 C25.7806657,48.8508808 26.5818125,50.1193632 26.72,51.5369572 Z" id="Path" fill="#BCBEC0"></path>
                    <path d="M58.82,33.8269572 C58.8230337,33.6076597 58.7961186,33.3889744 58.74,33.1769572 C58.4764493,33.2807419 58.2009943,33.3512853 57.92,33.3869572 C56.3778592,33.6154042 54.8177305,33.6991021 53.26,33.6369572 C53.3825752,34.8746898 53.6270953,36.0972905 53.99,37.2869572 C54.064214,37.5055384 54.0847921,37.7387578 54.05,37.9669572 C53.96,38.4469572 53.67,38.5869572 53.36,38.8369572 C53.05,39.0869572 52.67,39.4869572 52.36,39.8369572 C51.6933333,40.5036239 51.0633333,41.1702905 50.47,41.8369572 C49.2620233,43.2452639 48.1622238,44.7428632 47.18,46.3169572 C46.18,47.9769572 44.34,48.7569572 43.07,50.2369572 C42.2671457,51.3382286 41.5959147,52.5296635 41.07,53.7869572 C40.6707447,54.5980016 40.3136033,55.4291065 40,56.2769572 C39.9295258,56.4488056 39.8889415,56.6314349 39.88,56.8169572 C39.8643567,57.0258102 39.9859334,57.2206947 40.1803917,57.298478 C40.37485,57.3762613 40.5972913,57.3189841 40.73,57.1569572 C40.8752596,57.0048506 40.9875982,56.8244281 41.06,56.6269572 C41.6954952,55.5785152 42.403908,54.5760442 43.18,53.6269572 C43.25,53.5069572 41.83,56.4769572 41.47,57.6269572 C41.39,57.8869572 41.33,58.2169572 41.58,58.3769572 C41.7056272,58.4410661 41.8543728,58.4410661 41.98,58.3769572 C42.2422285,58.24384 42.4428699,58.0145355 42.54,57.7369572 C43.44,55.9569572 45.47,52.5369572 44.32,54.8869572 C43.87,55.8169572 43.48,56.8869572 42.96,57.7869572 C42.8904474,57.925378 42.8904474,58.0885364 42.96,58.2269572 C43.048827,58.3445244 43.1876491,58.4136288 43.335,58.4136288 C43.4823509,58.4136288 43.621173,58.3445244 43.71,58.2269572 C44.4976719,57.1609658 45.2158268,56.0453205 45.86,54.8869572 C45.81,55.5469572 44.69,57.3769572 44.72,57.8069572 C44.7344016,58.0261188 44.8874969,58.2114447 45.1,58.2669572 C45.45,58.3269572 45.67,57.9869572 45.81,57.6869572 C46.17,56.8969572 46.54,56.1069572 46.91,55.3269572 C47.4375929,54.1509297 47.8333378,52.920096 48.09,51.6569572 C48.1439036,51.2882089 48.2997627,50.9418554 48.54,50.6569572 C49.02,50.1369572 49.54,49.6569572 50.08,49.1569572 L53.08,46.1569572 C54.6663941,44.6811871 56.134254,43.082925 57.47,41.3769572 C58.4577964,39.9003678 58.9611099,38.1527517 58.91,36.3769572 C58.8,35.6769572 58.83,34.7369572 58.82,33.8269572 Z" id="Path" fill="url(#linearGradient-11)"></path>
                    <path d="M21.51,84.8369572 C19.7362855,85.3516772 18.0230944,86.0557283 16.4,86.9369572 C14.7567571,87.8161722 12.9408659,88.3247583 11.08,88.4269572 C9.56479923,88.4653717 8.09790585,87.8923102 7.01,86.8369572 C6.9795036,86.9311517 6.95938435,87.0283947 6.95,87.1269572 C6.91386244,87.763379 7.19927514,88.3755142 7.71,88.7569572 C8.21455537,89.1291402 8.80734428,89.3634986 9.43,89.4369572 C11.2743775,89.6175563 13.1332757,89.2962226 14.81,88.5069572 C16.51,87.8069572 18.13,86.8969572 19.88,86.3269572 C21.1833708,85.9195618 22.522852,85.6382707 23.88,85.4869572 C24.6451779,85.4791404 25.3825619,85.1990762 25.96,84.6969572 C26.1930322,84.4097908 26.341879,84.0636354 26.39,83.6969572 C25.9032671,83.9546537 25.3858005,84.1495437 24.85,84.2769572 C23.79,84.5069572 22.65,84.5769572 21.51,84.8369572 Z" id="Path" fill="#231F20"></path>
                    <path d="M12.36,86.0169572 C12.7961398,86.0560282 13.2302994,85.9232687 13.57,85.6469572 C15.2093944,84.5940643 16.7732038,83.4278902 18.25,82.1569572 C18.1229073,82.0731192 18.0025428,81.9795023 17.89,81.8769572 C17.4324005,81.4479782 17.0887418,80.9118707 16.89,80.3169572 C16.1366114,80.6838477 15.4053592,81.094551 14.7,81.5469572 C13.34,82.3569572 11.91,83.0669572 10.53,83.8569572 L11.51,85.2169572 C11.6878811,85.5771854 11.989662,85.8612144 12.36,86.0169572 L12.36,86.0169572 Z" id="Path" fill="url(#linearGradient-12)"></path>
                    <path d="M26.45,82.5069572 C26.4974244,81.8730649 26.2966212,81.245555 25.89,80.7569572 C25.8427532,81.1526892 25.7133194,81.5341784 25.51,81.8769572 C24.82,82.9369572 23.32,83.0169572 22.06,82.9869572 C20.7503784,83.0691149 19.4440326,82.7815109 18.29,82.1569572 C16.8132038,83.4278902 15.2493944,84.5940643 13.61,85.6469572 C13.2702994,85.9232687 12.8361398,86.0560282 12.4,86.0169572 C12.0184351,85.8673127 11.7052247,85.5825759 11.52,85.2169572 L10.6,83.8569572 C9.82172418,84.3002644 9.06734526,84.7842686 8.34,85.3069572 C7.7595745,85.6638694 7.30777779,86.196219 7.05,86.8269572 C8.13790585,87.8823102 9.60479923,88.4553717 11.12,88.4169572 C12.966458,88.3120948 14.768053,87.8071023 16.4,86.9369572 C18.0230944,86.0557283 19.7362855,85.3516772 21.51,84.8369572 C22.61,84.5769572 23.75,84.5069572 24.85,84.2269572 C25.3858005,84.0995437 25.9032671,83.9046537 26.39,83.6469572 C26.4450725,83.2696166 26.4651579,82.8879941 26.45,82.5069572 L26.45,82.5069572 Z" id="Path" fill="#FFFFFF"></path>
                    <path d="M38.44,100.856957 C36.799798,103.113009 34.1477501,104.409067 31.36,104.316957 C30.8754907,104.321939 30.3975052,104.205022 29.97,103.976957 C29.3483425,103.538646 28.9760538,102.827574 28.97,102.066957 L28.97,101.996957 C28.8452777,102.375129 28.7745798,102.769017 28.76,103.166957 C28.7368375,103.827759 28.9615455,104.473348 29.39,104.976957 C30.0773349,105.601425 30.9820012,105.9317 31.91,105.896957 C34.1875808,106.078638 36.4232968,105.209398 37.98,103.536957 C38.7242989,102.554915 39.2865243,101.447399 39.64,100.266957 C40.06,99.0969572 40.44,97.9169572 40.77,96.7269572 C40.5220348,97.1041833 40.2950246,97.4947742 40.09,97.8969572 C39.6013516,98.9165944 39.0503064,99.9051362 38.44,100.856957 Z" id="Path" fill="#231F20"></path>
                    <path d="M37.73,95.3869572 C36.2718551,94.8216152 35.0604957,93.7590193 34.31,92.3869572 C34.1286264,94.0141618 33.4711795,95.5516832 32.42,96.8069572 C31.74,97.7169572 30.99,98.5769572 30.33,99.4869572 C31.9664163,99.7480146 33.5584214,100.23605 35.06,100.936957 C36.1730445,99.2027876 37.0697076,97.3389373 37.73,95.3869572 L37.73,95.3869572 Z" id="Path" fill="url(#linearGradient-13)"></path>
                    <path d="M39.17,95.6769572 C38.6777073,95.6568585 38.1916966,95.5589814 37.73,95.3869572 C37.2091599,96.9508155 36.5394224,98.4610734 35.73,99.8969572 C35.4070572,100.469328 34.7144789,100.720016 34.1,100.486957 C32.8966113,100.01934 31.6459196,99.684034 30.37,99.4869572 C29.9419383,100.059564 29.5765158,100.676424 29.28,101.326957 C29.1720573,101.557599 29.078544,101.794722 29,102.036957 C28.9799123,102.828458 29.3547468,103.578127 30,104.036957 C30.4275052,104.265022 30.9054907,104.381939 31.39,104.376957 C34.1777501,104.469067 36.829798,103.173009 38.47,100.916957 C39.0783392,99.9519278 39.6260633,98.9499933 40.11,97.9169572 C40.22,97.6969572 40.34,97.4769572 40.46,97.2669572 L41.04,95.8269572 C41.0938787,95.6462776 41.1372842,95.4626389 41.17,95.2769572 C40.5503069,95.5844291 39.8602828,95.7224339 39.17,95.6769572 L39.17,95.6769572 Z" id="Path" fill="#FFFFFF"></path>
                </g>
            </g>
        </g>
    </g>
</svg>