<?xml version="1.0" encoding="UTF-8"?>
<svg width="121px" height="160px" viewBox="0 0 121 160" version="1.1" xmlns="http://www.w3.org/2000/svg" xmlns:xlink="http://www.w3.org/1999/xlink">
    <title>13Artboard 1</title>
    <defs>
        <linearGradient x1="39.0498263%" y1="87.5192604%" x2="75.433985%" y2="21.3790447%" id="linearGradient-1">
            <stop stop-color="#DCE6F5" offset="0%"></stop>
            <stop stop-color="#E1E9F6" offset="2%"></stop>
            <stop stop-color="#EFF3F8" offset="4%"></stop>
            <stop stop-color="#F4F6F9" offset="5%"></stop>
            <stop stop-color="#EEF2F6" offset="17%"></stop>
            <stop stop-color="#DFE5EF" offset="32%"></stop>
            <stop stop-color="#C5D1E3" offset="49%"></stop>
            <stop stop-color="#C3CFE2" offset="50%"></stop>
            <stop stop-color="#D8E0EC" offset="60%"></stop>
            <stop stop-color="#EEF1F7" offset="74%"></stop>
            <stop stop-color="#FBFCFD" offset="87%"></stop>
            <stop stop-color="#FFFFFF" offset="100%"></stop>
        </linearGradient>
        <linearGradient x1="-0.012220457%" y1="50.0025639%" x2="100.01222%" y2="50.0025639%" id="linearGradient-2">
            <stop stop-color="#D8E0ED" offset="0%"></stop>
            <stop stop-color="#EBEFF7" offset="100%"></stop>
        </linearGradient>
        <linearGradient x1="1.49970006%" y1="50.0031924%" x2="99.8920216%" y2="50.0031924%" id="linearGradient-3">
            <stop stop-color="#FFFFFF" offset="0%"></stop>
            <stop stop-color="#FBFBFD" offset="31%"></stop>
            <stop stop-color="#EDF1F7" offset="65%"></stop>
            <stop stop-color="#D8E0ED" offset="100%"></stop>
        </linearGradient>
        <linearGradient x1="15.6764735%" y1="26.2171517%" x2="84.3235265%" y2="74.186067%" id="linearGradient-4">
            <stop stop-color="#89F7FE" offset="0%"></stop>
            <stop stop-color="#66A6FF" offset="100%"></stop>
        </linearGradient>
    </defs>
    <g id="Page-1" stroke="none" stroke-width="1" fill="none" fill-rule="evenodd">
        <g id="Mining-Provider-Windows-Onboarding-Steps-05" transform="translate(-598.000000, -508.000000)" fill-rule="nonzero">
            <g id="My-Balance" transform="translate(531.000000, 461.000000)">
                <g id="13Artboard-1" transform="translate(67.000000, 47.000000)">
                    <g id="Group" style="mix-blend-mode: multiply;" transform="translate(28.296895, 131.957811)">
                        <path d="M15.8681048,0.711858295 C17.7066908,-0.237286098 19.8922569,-0.237286098 21.7308429,0.711858295 L44.4615572,13.9548672 C45.1911014,14.208297 45.6800191,14.8948876 45.6800191,15.6659617 C45.6800191,16.4370358 45.1911014,17.1236264 44.4615572,17.3770562 L29.8119143,25.889392 C27.9783836,26.8384085 25.7971117,26.8384085 23.963581,25.889392 L1.21846196,12.6463831 C0.488917771,12.3929533 0,11.7063627 0,10.9352886 C0,10.1642145 0.488917771,9.47762386 1.21846196,9.22419408 L15.8681048,0.711858295 Z" id="Path" fill="#FFFFFF" opacity="0"></path>
                        <path d="M15.7816762,0.769374078 C17.5918702,-0.150097943 19.7333871,-0.150097943 21.543581,0.769374078 L44.1158429,13.8685935 C44.838414,14.1206928 45.3223399,14.8012455 45.3223399,15.5653091 C45.3223399,16.3293727 44.838414,17.0099253 44.1158429,17.2620247 L29.711081,25.6449499 C27.9014513,26.5667677 25.7588059,26.5667677 23.9491762,25.6449499 L1.42012862,12.5169726 C0.708021151,12.2589753 0.23385046,11.5836499 0.23385046,10.8274465 C0.23385046,10.0712431 0.708021151,9.39591769 1.42012862,9.1379204 L15.7816762,0.769374078 Z" id="Path" fill="#FDFDFE" opacity="0.0322580636"></path>
                        <path d="M15.6952477,0.82688986 C17.5054416,-0.0925821611 19.6469585,-0.0925821611 21.4571524,0.82688986 L43.7269143,13.8685935 C44.4425165,14.119357 44.9214565,14.7938734 44.9214565,15.5509301 C44.9214565,16.3079869 44.4425165,16.9825033 43.7269143,17.2332668 L29.4950096,25.5011605 C27.6848156,26.4206325 25.5432987,26.4206325 23.7331048,25.5011605 L1.40572386,12.5601095 C0.700547425,12.3034951 0.231311949,11.6341912 0.231311949,10.8849623 C0.231311949,10.1357334 0.700547425,9.46642951 1.40572386,9.20981513 L15.6952477,0.82688986 Z" id="Path" fill="#FAFBFC" opacity="0.0645161281"></path>
                        <path d="M15.5944143,0.927542479 C17.4005621,-0.0086209684 19.5501713,-0.0086209684 21.3563191,0.927542479 L43.4820334,13.8685935 C44.1943991,14.1104905 44.6734428,14.7782547 44.6734428,15.5293617 C44.6734428,16.2804687 44.1943991,16.9482329 43.4820334,17.1901299 L29.4662001,25.3429921 C27.6600523,26.2791555 25.5104431,26.2791555 23.7042953,25.3429921 L1.578581,12.4019411 C0.869943304,12.1525188 0.395983508,11.484037 0.395983508,10.7339834 C0.395983508,9.98392971 0.869943304,9.31544792 1.578581,9.06602568 L15.5944143,0.927542479 Z" id="Path" fill="#F8F9FB" opacity="0.0967741927"></path>
                        <path d="M15.5079858,0.927542479 C17.2857768,0.0211503502 19.3912662,0.0211503502 21.1690572,0.927542479 L43.0931048,13.6816672 C43.7947824,13.9297427 44.2637679,14.5921917 44.2637679,15.3352459 C44.2637679,16.0783002 43.7947824,16.7407492 43.0931048,16.9888247 L29.3221524,25.0410342 C27.5478534,25.9618003 25.43538,25.9618003 23.661081,25.0410342 L1.66500957,12.2869095 C0.963331992,12.038834 0.49434644,11.376385 0.49434644,10.6333307 C0.49434644,9.89027645 0.963331992,9.22782752 1.66500957,8.979752 L15.5079858,0.927542479 Z" id="Path" fill="#F5F7F9" opacity="0.129032257"></path>
                        <path d="M15.4215572,1.0281951 C17.1842257,0.12230729 19.2767459,0.12230729 21.0394143,1.0281951 L42.7473905,13.6529093 C43.4421124,13.8996326 43.9061297,14.5560504 43.9061297,15.2921091 C43.9061297,16.0281679 43.4421124,16.6845857 42.7473905,16.9313089 L29.1348905,24.839729 C27.3654695,25.7386942 25.2720496,25.7386942 23.5026286,24.839729 L1.79465243,12.2006358 C1.09993051,11.9539126 0.635913211,11.2974948 0.635913211,10.561436 C0.635913211,9.82537727 1.09993051,9.16895946 1.79465243,8.92223622 L15.4215572,1.0281951 Z" id="Path" fill="#F3F5F8" opacity="0.161290322"></path>
                        <path d="M15.3207239,1.08571088 C17.0717103,0.194557249 19.1443802,0.194557249 20.8953667,1.08571088 L42.4016762,13.5953935 C43.089447,13.8407589 43.5485021,14.4911473 43.5485021,15.2202144 C43.5485021,15.9492814 43.089447,16.5996699 42.4016762,16.8450352 L28.9908429,24.6240448 C27.2398564,25.5151984 25.1671865,25.5151984 23.4162001,24.6240448 L1.95310481,12.1143621 C1.26533405,11.8689968 0.806278927,11.2186083 0.806278927,10.4895413 C0.806278927,9.76047424 1.26533405,9.11008577 1.95310481,8.86472044 L15.3207239,1.08571088 Z" id="Path" fill="#F0F2F7" opacity="0.193548386"></path>
                        <path d="M15.2342953,1.15760561 C16.9701666,0.266977131 19.0298525,0.266977131 20.7657239,1.15760561 L42.0703667,13.5378778 C42.7511909,13.7818795 43.20529,14.4262404 43.20529,15.1483197 C43.20529,15.8703989 42.7511909,16.5147598 42.0703667,16.7587616 L28.8756048,24.4083606 C27.1397335,25.2989891 25.0800476,25.2989891 23.3441762,24.4083606 L1.95310481,12.0280885 C1.27228063,11.7840867 0.818181546,11.1397258 0.818181546,10.4176466 C0.818181546,9.6955673 1.27228063,9.05120639 1.95310481,8.80720466 L15.2342953,1.15760561 Z" id="Path" fill="#EEF0F5" opacity="0.225806451"></path>
                        <path d="M15.1478667,1.21512139 C16.8664461,0.337035751 18.9030969,0.337035751 20.6216762,1.21512139 L41.7246524,13.480362 C42.3985347,13.7229943 42.8476839,14.3613295 42.8476839,15.0764249 C42.8476839,15.7915203 42.3985347,16.4298555 41.7246524,16.6724879 L28.7603667,24.1926764 C27.0453034,25.0852034 25.0016205,25.0852034 23.2865572,24.1926764 L2.183581,11.9418148 C1.50969876,11.6991824 1.0605495,11.0608473 1.0605495,10.3457518 C1.0605495,9.63065641 1.50969876,8.99232125 2.183581,8.74968887 L15.1478667,1.21512139 Z" id="Path" fill="#EBEEF4" opacity="0.258064516"></path>
                        <path d="M15.0470334,1.27263717 C16.758922,0.408977666 18.7801448,0.408977666 20.4920334,1.27263717 L41.3789381,13.4228462 C42.0458831,13.6641034 42.4900889,14.2964146 42.4900889,15.0045302 C42.4900889,15.7126458 42.0458831,16.344957 41.3789381,16.5862142 L28.5731048,23.9338554 C26.8679265,24.8043184 24.8476879,24.8043184 23.1425096,23.9338554 L2.24120005,11.8555411 C1.56376617,11.6202135 1.10977109,10.982665 1.10977109,10.2666676 C1.10977109,9.55067022 1.56376617,8.9131218 2.24120005,8.67779415 L15.0470334,1.27263717 Z" id="Path" fill="#E9ECF3" opacity="0.29032258"></path>
                        <path d="M14.9173905,1.3445319 C16.6056675,0.467294477 18.6164945,0.467294477 20.3047715,1.3445319 L40.9900096,13.3509515 C41.6604705,13.5849484 42.109474,14.216459 42.109474,14.925446 C42.109474,15.634433 41.6604705,16.2659436 40.9900096,16.4999405 L28.4146524,23.775687 C26.717842,24.6387168 24.7096772,24.6387168 23.0128667,23.775687 L2.32762862,11.7548885 C0.887152431,10.8921518 0.887152431,9.49739404 2.32762862,8.62027836 L14.9173905,1.3445319 Z" id="Path" fill="#E6EAF1" opacity="0.322580645"></path>
                        <path d="M14.9173905,1.40204768 C16.5910687,0.527547851 18.587879,0.527547851 20.2615572,1.40204768 L40.7307239,13.2934357 C41.3979851,13.51852 41.8471422,14.1432928 41.8471422,14.8463618 C41.8471422,15.5494308 41.3979851,16.1742036 40.7307239,16.3992879 L28.3570334,23.5887607 C26.6833552,24.4632605 24.6865449,24.4632605 23.0128667,23.5887607 L2.52929529,11.6973727 C1.0888191,10.8490149 1.0888191,9.45425721 2.52929529,8.59152047 L14.9173905,1.40204768 Z" id="Path" fill="#E4E8F0" opacity="0.354838709"></path>
                        <path d="M14.7733429,1.47394241 C16.4354255,0.614418241 18.4122126,0.614418241 20.0742953,1.47394241 L40.3562001,13.2359199 C41.01646,13.4597091 41.4605872,14.0784329 41.4605872,14.7744671 C41.4605872,15.4705013 41.01646,16.0892251 40.3562001,16.3130142 L28.198581,23.3586976 C26.5364984,24.2182218 24.5597113,24.2182218 22.8976286,23.3586976 L2.63012862,11.5823412 C1.96986866,11.358552 1.52574152,10.7398282 1.52574152,10.043794 C1.52574152,9.34775977 1.96986866,8.72903599 2.63012862,8.5052468 L14.7733429,1.47394241 Z" id="Path" fill="#E1E6EE" opacity="0.387096774"></path>
                        <path d="M14.6869143,1.53145819 C16.3373461,0.686755631 18.2942206,0.686755631 19.9446524,1.53145819 L40.0104858,13.1784041 C40.663749,13.4008924 41.1028524,14.013569 41.1028524,14.7025723 C41.1028524,15.3915757 40.663749,16.0042523 40.0104858,16.2267406 L28.0401286,23.1430134 C26.3935926,23.9828095 24.4433313,23.9828095 22.7967953,23.1430134 L2.73096196,11.4960675 C2.0776987,11.2735792 1.63859531,10.6609026 1.63859531,9.97189925 C1.63859531,9.28289589 2.0776987,8.67021932 2.73096196,8.44773102 L14.6869143,1.53145819 Z" id="Path" fill="#DFE4ED" opacity="0.419354839"></path>
                        <path d="M14.6004858,1.58897398 C16.2352986,0.763795646 18.165792,0.763795646 19.8006048,1.58897398 L39.6647715,13.0921304 C40.3110427,13.313312 40.7451286,13.9199432 40.7451286,14.6019197 C40.7451286,15.2838963 40.3110427,15.8905274 39.6647715,16.111709 L27.8816762,22.9273292 C26.2468635,23.7525075 24.31637,23.7525075 22.6815572,22.9273292 L2.81739053,11.4241728 C2.17111934,11.2029912 1.73703338,10.59636 1.73703338,9.91438347 C1.73703338,9.23240693 2.17111934,8.62577576 2.81739053,8.40459418 L14.6004858,1.58897398 Z" id="Path" fill="#DCE2EC" opacity="0.451612903"></path>
                        <path d="M14.5140572,1.6608687 C16.1264323,0.826931598 18.0441821,0.826931598 19.6565572,1.6608687 L39.3190572,13.0633725 C39.958341,13.2832415 40.387416,13.8838291 40.387416,14.5587829 C40.387416,15.2337367 39.958341,15.8343243 39.3190572,16.0541932 L27.7952477,22.726024 C26.1722115,23.5367363 24.2613791,23.5367363 22.6383429,22.726024 L2.99024767,11.3235201 C2.35458102,11.0962646 1.93044029,10.4949159 1.93044029,9.82092032 C1.93044029,9.14692471 2.35458102,8.54557601 2.99024767,8.31832051 L14.5140572,1.6608687 Z" id="Path" fill="#DAE0EA" opacity="0.483870968"></path>
                        <path d="M14.4132239,1.71838449 C16.0189863,0.899093416 17.9211518,0.899093416 19.5269143,1.71838449 L38.9733429,12.9914778 C39.6165638,13.2035587 40.0510066,13.803511 40.0510066,14.4796987 C40.0510066,15.1558864 39.6165638,15.7558386 38.9733429,15.9679196 L27.6223905,22.4959608 C26.016628,23.3152519 24.1144625,23.3152519 22.5087001,22.4959608 L3.06227148,11.2228675 C2.41905054,11.0107866 1.98460782,10.4108344 1.98460782,9.73464665 C1.98460782,9.05845893 2.41905054,8.45850669 3.06227148,8.24642578 L14.4132239,1.71838449 Z" id="Path" fill="#D7DDE9" opacity="0.516129032"></path>
                        <path d="M14.3267953,1.79027921 C15.9123788,0.971617005 17.7972832,0.971617005 19.3828667,1.79027921 L38.6420334,12.933962 C39.2638165,13.1584783 39.6780581,13.7477757 39.6780581,14.407804 C39.6780581,15.0678322 39.2638165,15.6571296 38.6420334,15.8816459 L27.5071524,22.2946556 C25.9215689,23.1133178 24.0366645,23.1133178 22.451081,22.2946556 L3.2063191,11.1509728 C2.62087745,10.9125865 2.23820611,10.344222 2.23820611,9.71307823 C2.23820611,9.08193442 2.62087745,8.51356994 3.2063191,8.27518367 L14.3267953,1.79027921 Z" id="Path" fill="#D5DBE7" opacity="0.548387097"></path>
                        <path d="M14.2403667,1.847795 C15.8137164,1.04155599 17.6798741,1.04155599 19.2532239,1.847795 L38.2963191,12.8764463 C38.8817607,13.1148325 39.2644321,13.683197 39.2644321,14.3143408 C39.2644321,14.9454846 38.8817607,15.5138491 38.2963191,15.7522354 L27.3631048,22.0502135 C25.7880509,22.849383 23.9253016,22.849383 22.3502477,22.0502135 L3.29274767,10.9928044 C2.6949014,10.7656377 2.29976596,10.1934589 2.29976596,9.55490983 C2.29976596,8.91636079 2.6949014,8.34418197 3.29274767,8.11701527 L14.2403667,1.847795 Z" id="Path" fill="#D2D9E6" opacity="0.580645161"></path>
                        <path d="M14.1395334,1.90531078 C15.7011829,1.11375455 17.5475268,1.11375455 19.1091762,1.90531078 L37.9650096,12.8189305 C38.5763926,13.0334879 38.9854891,13.6099205 38.9854891,14.256825 C38.9854891,14.9037296 38.5763926,15.4801621 37.9650096,15.6947196 L27.2478667,21.8632872 C25.6862172,22.6548435 23.8398733,22.6548435 22.2782239,21.8632872 L3.393581,10.9928044 C2.78219796,10.7782469 2.37310145,10.2018144 2.37310145,9.55490983 C2.37310145,8.90800527 2.78219796,8.33157271 3.393581,8.11701527 L14.1395334,1.90531078 Z" id="Path" fill="#D0D7E5" opacity="0.612903226"></path>
                        <path d="M14.0531048,1.97720551 C15.5996546,1.18621809 17.4329836,1.18621809 18.9795334,1.97720551 L37.6048905,12.7614147 C38.4004436,12.7614147 39.0453667,13.405182 39.0453667,14.1993092 C39.0453667,14.9934365 38.4004436,15.6372038 37.6048905,15.6372038 L27.0894143,21.6907399 C25.5428645,22.4817273 23.7095356,22.4817273 22.1629858,21.6907399 L3.53762862,10.9065307 C2.74207559,10.9065307 2.09715243,10.2627634 2.09715243,9.46863615 C2.09715243,8.67450892 2.74207559,8.03074159 3.53762862,8.03074159 L14.0531048,1.97720551 Z" id="Path" fill="#CDD5E3" opacity="0.645161291"></path>
                        <path d="M13.9666762,2.03472129 C15.4964893,1.25859697 17.3056727,1.25859697 18.8354858,2.03472129 L37.2591762,12.7038989 C38.0547293,12.7038989 38.6996524,13.3476662 38.6996524,14.1417935 C38.6996524,14.9359207 38.0547293,15.579688 37.2591762,15.579688 L26.9597715,21.5038136 C25.4283607,22.294343 23.6079679,22.294343 22.0765572,21.5038136 L3.65286672,10.8490149 C2.85731368,10.8490149 2.21239053,10.2052476 2.21239053,9.41112037 C2.21239053,8.61699313 2.85731368,7.97322581 3.65286672,7.97322581 L13.9666762,2.03472129 Z" id="Path" fill="#CBD3E2" opacity="0.677419355"></path>
                        <path d="M13.8658429,2.10661602 C15.385591,1.33087514 17.1860948,1.33087514 18.7058429,2.10661602 L36.9278667,12.6320042 C37.7234197,12.6320042 38.3683429,13.2757715 38.3683429,14.0698987 C38.3683429,14.864026 37.7234197,15.5077933 36.9278667,15.5077933 L26.8445334,21.2593715 C25.3281248,22.0278828 23.5353467,22.0278828 22.0189381,21.2593715 L3.75370005,10.7052255 C2.95814702,10.7052255 2.31322386,10.0614582 2.31322386,9.26733091 C2.31322386,8.47320368 2.95814702,7.82943636 3.75370005,7.82943636 L13.8658429,2.10661602 Z" id="Path" fill="#C8D1E0" opacity="0.70967742"></path>
                        <path d="M13.7794143,2.1641318 C15.2818584,1.40089983 17.0593512,1.40089983 18.5617953,2.1641318 L36.5245334,12.5744884 C37.1156681,12.7684368 37.515221,13.3193563 37.515221,13.9404882 C37.515221,14.5616201 37.1156681,15.1125397 36.5245334,15.3064881 L26.628462,21.0580663 C25.1260179,21.8212983 23.3485251,21.8212983 21.846081,21.0580663 L3.82572386,10.6477097 C3.19841076,10.4775357 2.76301238,9.90904178 2.76301238,9.26014144 C2.76301238,8.6112411 3.19841076,8.04274723 3.82572386,7.87257319 L13.7794143,2.1641318 Z" id="Path" fill="#C6CFDF" opacity="0.741935484"></path>
                        <path d="M13.6929858,2.22164758 C15.178667,1.47320499 16.9320664,1.47320499 18.4177477,2.22164758 L36.2364381,12.5169726 C36.839017,12.7037873 37.2496607,13.2603202 37.2496607,13.8901619 C37.2496607,14.5200037 36.839017,15.0765365 36.2364381,15.2633512 L26.5420334,20.8136242 C25.059745,21.576162 23.2995599,21.576162 21.8172715,20.8136242 L3.998581,10.5326781 C3.39600219,10.3458634 2.9853584,9.78933057 2.9853584,9.15948882 C2.9853584,8.52964708 3.39600219,7.97311423 3.998581,7.78629952 L13.6929858,2.22164758 Z" id="Path" fill="#C3CDDE" opacity="0.774193549"></path>
                        <path d="M13.5921524,2.36543704 C15.0677883,1.61743323 16.8124689,1.61743323 18.2881048,2.36543704 L35.8907239,12.4306989 C36.4709151,12.6311468 36.860063,13.1766507 36.860063,13.7895093 C36.860063,14.4023679 36.4709151,14.9478718 35.8907239,15.1483197 L26.4412001,20.612319 C24.9655642,21.3603228 23.2208835,21.3603228 21.7452477,20.612319 L4.14262862,10.4464045 C3.56243741,10.2459566 3.17328945,9.70045271 3.17328945,9.08759409 C3.17328945,8.47473548 3.56243741,7.92923161 4.14262862,7.72878374 L13.5921524,2.36543704 Z" id="Path" fill="#C1CBDC" opacity="0.806451614"></path>
                        <path d="M13.4769143,2.36543704 C14.935779,1.63219888 16.656383,1.63219888 18.1152477,2.36543704 L35.5162001,12.4306989 C36.7982239,13.1640252 36.7982239,14.3718566 35.5162001,15.1195618 L26.2395334,20.4253927 C24.7823301,21.1655794 23.0584034,21.1655794 21.6012001,20.4253927 L4.20024767,10.3601308 C3.6406783,10.1482652 3.27063306,9.6130967 3.27063306,9.01569937 C3.27063306,8.41830203 3.6406783,7.88313355 4.20024767,7.67126796 L13.4769143,2.36543704 Z" id="Path" fill="#BEC8DB" opacity="0.838709678"></path>
                        <path d="M13.4769143,2.36543704 C14.9207137,1.63286504 16.628234,1.63286504 18.0720334,2.36543704 L35.2713191,12.2725305 C35.8211201,12.4894364 36.1823346,13.0196482 36.1823346,13.6097725 C36.1823346,14.1998968 35.8211201,14.7301086 35.2713191,14.9470144 L26.1963191,20.1234348 C24.7525197,20.8560068 23.0449994,20.8560068 21.6012001,20.1234348 L4.40191434,10.2019624 C3.13429529,9.46863615 3.14870005,8.28956262 4.40191434,7.54185745 L13.4769143,2.36543704 Z" id="Path" fill="#BCC6DA" opacity="0.870967743"></path>
                        <path d="M13.318462,2.4804686 C14.746577,1.7460622 16.4422516,1.7460622 17.8703667,2.4804686 L34.8679858,12.2725305 C35.3902621,12.5024068 35.7272963,13.0184332 35.7272963,13.5882041 C35.7272963,14.1579749 35.3902621,14.6740013 34.8679858,14.9038776 L25.9946524,19.9796454 C24.5681706,20.6997468 22.8836343,20.6997468 21.4571524,19.9796454 L4.45953338,10.1732045 C3.2063191,9.45425721 3.2063191,8.27518367 4.45953338,7.54185745 L13.318462,2.4804686 Z" id="Path" fill="#B9C4D8" opacity="0.903225807"></path>
                        <path d="M13.2320334,2.53798438 C14.6484637,1.81830447 16.3242935,1.81830447 17.7407239,2.53798438 L34.5222715,12.2150148 C35.0274494,12.4520571 35.3499524,12.9591021 35.3499524,13.5163093 C35.3499524,14.0735165 35.0274494,14.5805615 34.5222715,14.8176039 L25.8794143,19.7639612 C24.462984,20.4836411 22.7871542,20.4836411 21.3707239,19.7639612 L4.58917624,10.0869308 C4.08399834,9.84988843 3.76149528,9.34284344 3.76149528,8.78563624 C3.76149528,8.22842904 4.08399834,7.72138405 4.58917624,7.48434166 L13.2320334,2.53798438 Z" id="Path" fill="#B7C2D7" opacity="0.935483872"></path>
                        <path d="M13.1456048,2.60987911 C14.5418761,1.89088382 16.200405,1.89088382 17.5966762,2.60987911 L34.1765572,12.157499 C34.6654757,12.4007382 34.9744857,12.899116 34.9744857,13.4444146 C34.9744857,13.9897132 34.6654757,14.488091 34.1765572,14.7313302 L25.720962,19.6201717 C24.3196436,20.3393177 22.6568041,20.3393177 21.2554858,19.6201717 L4.67560481,10.0725519 C4.18668629,9.82931261 3.87767627,9.33093488 3.87767627,8.78563624 C3.87767627,8.2403376 4.18668629,7.74195987 4.67560481,7.49872061 L13.1456048,2.60987911 Z" id="Path" fill="#B4C0D5" opacity="0.967741936"></path>
                        <path d="M13.0591762,2.66739489 C14.4437691,1.96314382 16.0824405,1.96314382 17.4670334,2.66739489 L33.8452477,12.0999832 C34.3836538,12.2923812 34.7429234,12.8016784 34.7429234,13.3725199 C34.7429234,13.9433614 34.3836538,14.4526586 33.8452477,14.6450566 L25.5769143,19.3325928 C24.1923215,20.0368439 22.55365,20.0368439 21.1690572,19.3325928 L4.83405719,9.91438347 C4.28092271,9.73608279 3.9060857,9.22206501 3.9060857,8.64184678 C3.9060857,8.06162855 4.28092271,7.54761078 4.83405719,7.3693101 L13.0591762,2.66739489 Z" id="Path" fill="#B2BED4"></path>
                    </g>
                    <path d="M117.859762,158.307329 L117.859762,149.061667 L120.740714,147.37933 L120.740714,156.639371 C120.797617,157.233923 120.534461,157.814017 120.049286,158.16354 L117.168333,159.845876 C117.660666,159.495647 117.925084,158.907273 117.859762,158.307329 Z" id="Path" fill="#CAD4E3"></path>
                    <polygon id="Path" fill="#C3C3C4" points="117.888571 149.061667 120.783929 147.37933 2.9097619 79.4531916 0.0144047619 81.1355282"></polygon>
                    <path d="M65.700119,141.282658 C65.6011699,143.236682 64.5665867,145.023892 62.92,146.085225 L52.1452381,152.29693 C51.8993346,152.456589 51.744228,152.723535 51.7275,153.015877 C51.7186494,153.123536 51.7680853,153.227713 51.8571429,153.289077 L30.8117857,141.081352 C30.7227281,141.019988 30.6732923,140.915811 30.6821429,140.808152 C30.6988708,140.51581 30.8539775,140.248864 31.099881,140.089205 L41.8746429,133.877501 C42.6965035,133.364043 43.3752752,132.651868 43.8480952,131.806932 C44.3510863,130.982081 44.6291794,130.040242 44.6547619,129.074933 L44.6547619,115.961334 L65.700119,128.169059 L65.700119,141.282658 Z" id="Path" fill="url(#linearGradient-1)"></path>
                    <path d="M45.3461905,115.213629 C45.2534679,115.156536 45.136413,115.156536 45.0436905,115.213629 C44.797787,115.373288 44.6426803,115.640234 44.6259524,115.932577 L65.6713095,128.140301 C65.6880375,127.847959 65.8431441,127.581013 66.0890476,127.421354 C66.1817702,127.364261 66.2988251,127.364261 66.3915476,127.421354 L45.3461905,115.213629 Z" id="Path" fill="#FAFBFD"></path>
                    <path d="M66.0890476,127.450112 C66.3195238,127.306322 66.5067857,127.450112 66.5067857,127.680175 L66.5067857,140.793773 C66.3685537,143.342072 65.0198441,145.671371 62.8767857,147.062994 L52.1164286,153.260319 C51.8859524,153.38973 51.6842857,153.260319 51.6842857,153.015877 C51.7018765,152.720103 51.863261,152.451611 52.1164286,152.29693 L62.8767857,146.085225 C64.5233724,145.023892 65.5579556,143.236682 65.6569048,141.282658 L65.6569048,128.169059 C65.6720261,127.872529 65.8340493,127.602974 66.0890476,127.450112 Z" id="Path" fill="#B4C0D1"></path>
                    <path d="M0,81.1211493 L0,90.3668113 C0.0902374127,92.0335949 0.973653991,93.5567616 2.37678571,94.4648108 L48.8465476,121.267165 L69.0132143,132.885353 L115.497381,159.673329 C116.808214,160.435413 117.874167,159.817118 117.874167,158.307329 L117.874167,149.061667 L0,81.1211493 Z" id="Path" fill="url(#linearGradient-2)"></path>
                    <polygon id="Path" fill="#00BAC2" points="113.192619 70.8114453 116.073571 69.1291086 7.79297619 6.72448484 4.91202381 8.40682147"></polygon>
                    <path d="M115.742262,67.187951 C117.14891,68.0926583 118.033464,69.6177871 118.119048,71.2859505 L117.902976,149.061667 L0,81.1211493 L0.23047619,3.34543263 C0.23047619,1.83564334 1.29642857,1.23172763 2.6072619,1.99381174 L115.742262,67.187951 Z" id="Path" fill="#EEF1F7"></path>
                    <path d="M3.8172619,0.153306708 C4.37323358,-0.101356647 5.02379178,-0.035316755 5.51702381,0.325854055 L118.637619,65.5199933 C120.037013,66.4295979 120.915328,67.9532024 121,69.6179928 L120.783929,147.37933 L117.902976,149.061667 L118.119048,71.2859505 C118.036704,69.6204765 117.157823,68.0958899 115.756667,67.187951 L2.62166667,2.03694858 C2.13290182,1.67833183 1.48782573,1.61228876 0.936309524,1.86440123 L3.8172619,0.153306708 Z" id="Path" fill="url(#linearGradient-3)"></path>
                    <polygon id="Path" fill="url(#linearGradient-4)" points="113.10619 140.592468 5.0272619 78.3028759 5.0272619 10.1466739 113.10619 72.4218872"></polygon>
                    <polygon id="Path" fill="#476ED3" points="113.10619 83.2492332 5.0272619 20.959641 5.0272619 10.1466739 113.10619 72.4218872"></polygon>
                    <polygon id="Path" fill="#4064BF" points="22.629881 88.4544115 5.0272619 78.3028759 5.0272619 20.959641 22.629881 31.1111765"></polygon>
                    <path d="M42.9405952,39.1058703 L29.9763095,31.6575765 C29.0850394,31.1238694 28.4978769,30.2020779 28.3917857,29.1700189 L28.3917857,29.1700189 C28.3917857,28.2929032 29.1120238,28.0053243 29.9763095,28.5085874 L42.9405952,35.9425023 C43.8335022,36.4745305 44.4212452,37.3972334 44.525119,38.4300598 L44.525119,38.4300598 C44.525119,39.3071755 43.8192857,39.6091334 42.9405952,39.1058703 Z" id="Path" fill="#FFFFFF"></path>
                    <path d="M62.6463095,50.4652373 L49.7540476,43.0169435 C48.8578197,42.4883328 48.2688885,41.5637646 48.1695238,40.5293859 L48.1695238,40.5293859 C48.1695238,39.6522702 48.8753571,39.3646913 49.7540476,39.8679544 L62.6463095,47.3018693 C63.5425375,47.83048 64.1314687,48.7550481 64.2308333,49.7894268 L64.2308333,49.7894268 C64.2308333,50.6665425 63.525,50.9253635 62.6463095,50.4652373 Z" id="Path" fill="#FFFFFF"></path>
                    <path d="M82.3664286,61.8246043 L69.4021429,54.3763105 C68.5059149,53.8476998 67.9169837,52.9231316 67.817619,51.8887529 L67.817619,51.8887529 C67.817619,51.0116372 68.5234524,50.7096794 69.4021429,51.2273214 L82.3664286,58.6612363 C83.2576987,59.1949434 83.8448612,60.1167348 83.9509524,61.1487939 L83.9509524,61.1487939 C83.9509524,62.0259095 83.2307143,62.3278674 82.3664286,61.8246043 Z" id="Path" fill="#FFFFFF"></path>
                    <path d="M102.072143,73.1839713 L89.1078571,65.7356775 C88.2116292,65.2070668 87.622698,64.2824986 87.5233333,63.2481199 L87.5233333,63.2481199 C87.5233333,62.3710042 88.2291667,62.0690464 89.1078571,62.5723095 L102.072143,70.0206033 C102.986613,70.5328785 103.597888,71.4534996 103.714286,72.4937819 L103.714286,72.4937819 C103.714286,73.3852765 102.950833,73.6872344 102.072143,73.1839713 Z" id="Path" fill="#FFFFFF"></path>
                    <polygon id="Path" fill="#FFFFFF" points="12.1720238 34.3033025 7.21678571 31.4418923 7.21678571 26.495535 12.1720238 29.3569452"></polygon>
                    <polygon id="Path" fill="#FFFFFF" points="19.5040476 38.5307125 14.5488095 35.6693023 14.5488095 30.722945 19.5040476 33.5843552"></polygon>
                    <polygon id="Path" fill="#FFFFFF" points="12.1720238 41.6221858 7.21678571 38.7607756 7.21678571 33.8144183 12.1720238 36.6758285"></polygon>
                    <polygon id="Path" fill="#FFFFFF" points="19.5040476 45.8495958 14.5488095 42.9881856 14.5488095 38.0418283 19.5040476 40.9032385"></polygon>
                    <polygon id="Path" fill="#FFFFFF" points="12.1720238 48.955448 7.21678571 46.0940378 7.21678571 41.1333016 12.1720238 43.9947118"></polygon>
                    <polygon id="Path" fill="#FFFFFF" points="19.5040476 53.182858 14.5488095 50.3214478 14.5488095 45.3607116 19.5040476 48.2221218"></polygon>
                    <polygon id="Path" fill="#FFFFFF" points="12.1720238 56.2743313 7.21678571 53.4129211 7.21678571 48.4521849 12.1720238 51.3135951"></polygon>
                    <polygon id="Path" fill="#FFFFFF" points="12.1720238 63.5932146 7.21678571 60.7318044 7.21678571 55.7854472 12.1720238 58.6468573"></polygon>
                    <polygon id="Path" fill="#FFFFFF" points="19.5040476 60.5017413 14.5488095 57.6403311 14.5488095 52.6939739 19.5040476 55.5410051"></polygon>
                    <polygon id="Path" fill="#4064BF" points="113.10619 83.2492332 95.6188095 73.1695924 95.6188095 86.2831907 113.10619 96.3628316"></polygon>
                    <polygon id="Path" fill="#4064BF" points="95.6188095 130.512827 113.10619 140.592468 113.10619 115.644998 95.6188095 105.565357"></polygon>
                    <polygon id="Path" fill="#4C76E3" points="95.6188095 86.2831907 95.6188095 105.565357 113.10619 115.644998 113.10619 96.3628316"></polygon>
                    <polygon id="Path" fill="#35529E" points="95.6188095 86.2831907 95.6188095 89.4178009 101.193452 92.6243057 101.193452 89.5040745"></polygon>
                    <polygon id="Path" fill="#456BCF" points="101.193452 89.5040745 101.193452 92.6243057 107.517143 96.2765579 107.517143 93.1563267"></polygon>
                    <polygon id="Path" fill="#35529E" points="113.10619 96.3628316 107.517143 93.1563267 107.517143 96.2765579 113.10619 99.4830628"></polygon>
                    <path d="M110.066786,117.068513 L98.6438095,110.482956 C98.2600821,110.264291 98.0073728,109.872488 97.9667857,109.433293 L97.9667857,109.433293 C97.9667857,109.059441 98.2692857,108.93003 98.6438095,109.145714 L110.066786,115.731271 C110.444477,115.96305 110.694202,116.35553 110.74381,116.795313 L110.74381,116.795313 C110.74381,117.183545 110.44131,117.312955 110.066786,117.068513 Z" id="Path" fill="#FFFFFF"></path>
                    <path d="M47.6797619,52.6364581 L26.072619,40.1986701 C25.8810223,40.0843817 25.7533338,39.8878814 25.7269048,39.6666492 L25.7269048,39.6666492 C25.7269048,39.4797229 25.8853571,39.4078281 26.072619,39.5228597 L47.6797619,51.9606476 C47.8713587,52.074936 47.9990472,52.2714364 48.0254762,52.4926686 L48.0254762,52.4926686 C48.0254762,52.6795949 47.8670238,52.7371107 47.6797619,52.6364581 Z" id="Path" fill="#064BA2"></path>
                    <path d="M47.6797619,56.6769418 L26.072619,44.2247749 C25.8777552,44.1139051 25.7488746,43.9155703 25.7269048,43.6927539 L25.7269048,43.6927539 C25.7269048,43.5058276 25.8853571,43.4483118 26.072619,43.5489645 L47.6797619,56.0011313 C47.8746258,56.1120012 48.0035064,56.310336 48.0254762,56.5331523 L48.0254762,56.5331523 C48.0254762,56.6769418 47.8670238,56.6769418 47.6797619,56.6769418 Z" id="Path" fill="#064BA2"></path>
                    <path d="M47.6797619,60.588015 L26.072619,48.150227 C25.8810223,48.0359386 25.7533338,47.8394383 25.7269048,47.6182061 L25.7269048,47.6182061 C25.7269048,47.4312798 25.8853571,47.373764 26.072619,47.4744166 L47.6797619,59.9122045 C47.8713587,60.0264929 47.9990472,60.2229933 48.0254762,60.4442255 L48.0254762,60.4442255 C48.0254762,60.6311518 47.8670238,60.7030465 47.6797619,60.588015 Z" id="Path" fill="#064BA2"></path>
                    <path d="M47.6797619,64.5709829 L26.072619,52.118816 C25.8815922,52.0108365 25.7532853,51.8187211 25.7269048,51.601174 L25.7269048,51.601174 C25.7269048,51.4142477 25.8853571,51.342353 26.072619,51.4573845 L47.6797619,63.8664146 C47.8713587,63.980703 47.9990472,64.1772033 48.0254762,64.3984356 L48.0254762,64.3984356 C48.0254762,64.6141197 47.8670238,64.6716355 47.6797619,64.5709829 Z" id="Path" fill="#064BA2"></path>
                    <path d="M47.6797619,68.5395719 L26.072619,56.101784 C25.8777552,55.9909141 25.7488746,55.7925793 25.7269048,55.569763 L25.7269048,55.569763 C25.7269048,55.3828367 25.8853571,55.3253209 26.072619,55.4259735 L47.6797619,67.8781404 C47.8746258,67.9890102 48.0035064,68.187345 48.0254762,68.4101614 L48.0254762,68.4101614 C48.0254762,68.5827087 47.8670238,68.6546034 47.6797619,68.5395719 Z" id="Path" fill="#064BA2"></path>
                    <path d="M47.6797619,84.1551068 L26.072619,71.7173189 C25.8810223,71.6030304 25.7533338,71.4065301 25.7269048,71.1852979 L25.7269048,71.1852979 C25.7269048,70.9983716 25.8853571,70.9264768 26.072619,71.0415084 L47.6797619,83.4792963 C47.8713587,83.5935847 47.9990472,83.7900851 48.0254762,84.0113173 L48.0254762,84.0113173 C48.0254762,84.1982436 47.8670238,84.2557594 47.6797619,84.1551068 Z" id="Path" fill="#064BA2"></path>
                    <path d="M47.6797619,88.1380747 L26.072619,75.6859078 C25.8777552,75.575038 25.7488746,75.3767032 25.7269048,75.1538868 L25.7269048,75.1538868 C25.7269048,74.9669606 25.8853571,74.9094448 26.072619,75.0100974 L47.6797619,87.4622643 C47.8746258,87.5731341 48.0035064,87.7714689 48.0254762,87.9942852 L48.0254762,87.9942852 C48.0254762,88.1812115 47.8670238,88.3106221 47.6797619,88.1380747 Z" id="Path" fill="#064BA2"></path>
                    <path d="M47.6797619,92.1066637 L26.1014286,79.6832547 C25.9098318,79.5689663 25.7821433,79.372466 25.7557143,79.1512337 L25.7557143,79.1512337 C25.7557143,78.9643074 25.9141667,78.9067916 26.1014286,79.0074443 L47.7085714,91.4452322 C47.9001682,91.5595206 48.0278567,91.7560209 48.0542857,91.9772532 L48.0542857,91.9772532 C48.0254762,92.1498005 47.8670238,92.2216952 47.6797619,92.1066637 Z" id="Path" fill="#064BA2"></path>
                    <path d="M110.066786,120.102471 L98.6438095,113.516914 C98.2643068,113.291345 98.0094529,112.904449 97.952381,112.467251 L97.952381,112.467251 C97.952381,112.093398 98.254881,111.963988 98.6294048,112.179672 L110.052381,118.765229 C110.430072,118.997008 110.679798,119.389488 110.729405,119.829271 L110.729405,119.829271 C110.74381,120.188744 110.44131,120.318155 110.066786,120.102471 Z" id="Path" fill="#FFFFFF"></path>
                    <path d="M110.066786,123.10767 L98.6438095,116.522113 C98.2661183,116.290334 98.0163929,115.897854 97.9667857,115.458071 L97.9667857,115.458071 C97.9667857,115.098598 98.2692857,114.969187 98.6438095,115.184871 L110.066786,121.770428 C110.440788,121.999176 110.690003,122.38556 110.74381,122.820091 L110.74381,122.820091 C110.74381,123.193944 110.44131,123.323355 110.066786,123.10767 Z" id="Path" fill="#FFFFFF"></path>
                    <polygon id="Path" fill="#FFFFFF" points="91.0380952 100.820305 51.7707143 78.2022233 51.7707143 52.1763318 91.0380952 74.7944132"></polygon>
                    <polygon id="Path" fill="#FFFFFF" points="91.0380952 125.580849 51.7707143 102.962768 51.7707143 85.8374434 91.0380952 108.469904"></polygon>
                    <polygon id="Path" fill="#FFFFFF" points="36.7321429 66.8140984 39.8291667 71.9761399 38.2302381 70.9696137 39.4258333 75.1682658 38.8208333 75.0963711 37.6108333 70.897719 36.4872619 71.5735294"></polygon>
                    <path d="M71.4044048,76.8074656 C73.6371429,78.1015707 75.4521429,77.3394866 75.4521429,75.11075 C75.1924286,72.4664331 73.6901707,70.1023494 71.4044048,68.7408771 C69.1716667,67.446772 67.3566667,68.2088561 67.3566667,70.4375927 C67.616381,73.0819096 69.1186389,75.4459933 71.4044048,76.8074656 L71.4044048,76.8074656 Z" id="Path" fill="#4064BF"></path>
                    <path d="M80.5370238,90.0792324 C80.5370238,86.2688118 78.5347619,81.9982649 76.0283333,80.5172335 L75.9275,80.5172335 L66.8813095,75.2976763 L66.7804762,75.2976763 C64.2884524,73.8597817 62.2717857,75.8440762 62.2717857,79.61136 L62.2717857,80.2871704 L65.9594048,82.4152544 L65.9594048,79.8270442 L66.8813095,80.3590651 L66.8813095,82.9472754 L75.9275,88.1668326 L75.9275,85.5786224 L76.8494048,86.1106434 L76.8494048,88.6988536 L80.5370238,90.8269375 L80.5370238,90.0792324 Z" id="Path" fill="#4064BF"></path>
                </g>
            </g>
        </g>
    </g>
</svg>