<?xml version="1.0" encoding="UTF-8"?>
<svg width="233px" height="144px" viewBox="0 0 233 144" version="1.1" xmlns="http://www.w3.org/2000/svg" xmlns:xlink="http://www.w3.org/1999/xlink">
    <title>10Artboard 1</title>
    <defs>
        <radialGradient cx="219.572066%" cy="76.6388426%" fx="219.572066%" fy="76.6388426%" r="92.4262539%" gradientTransform="translate(2.195721,0.766388),scale(0.621444,1.000000),rotate(-150.277865),translate(-2.195721,-0.766388)" id="radialGradient-1">
            <stop stop-color="#8691A6" offset="0%"></stop>
            <stop stop-color="#8F99AD" offset="15%"></stop>
            <stop stop-color="#A8B0BF" offset="39%"></stop>
            <stop stop-color="#D1D5DD" offset="70%"></stop>
            <stop stop-color="#FFFFFF" offset="100%"></stop>
        </radialGradient>
        <radialGradient cx="-135.377358%" cy="50.2083333%" fx="-135.377358%" fy="50.2083333%" r="317.12616%" gradientTransform="translate(-1.353774,0.502083),scale(1.000000,0.157666),rotate(-90.000000),translate(1.353774,-0.502083)" id="radialGradient-2">
            <stop stop-color="#8691A6" offset="0%"></stop>
            <stop stop-color="#8F99AD" offset="15%"></stop>
            <stop stop-color="#A8B0BF" offset="39%"></stop>
            <stop stop-color="#D1D5DD" offset="70%"></stop>
            <stop stop-color="#FFFFFF" offset="100%"></stop>
        </radialGradient>
        <linearGradient x1="32.1167883%" y1="52.8930576%" x2="51.5815085%" y2="32.8118345%" id="linearGradient-3">
            <stop stop-color="#054391" offset="0%"></stop>
            <stop stop-color="#667EEA" offset="100%"></stop>
        </linearGradient>
        <linearGradient x1="0%" y1="50%" x2="100%" y2="50%" id="linearGradient-4">
            <stop stop-color="#F5F7FA" offset="0%"></stop>
            <stop stop-color="#CDD9ED" offset="100%"></stop>
        </linearGradient>
        <linearGradient x1="0%" y1="49.9848988%" x2="100%" y2="49.9848988%" id="linearGradient-5">
            <stop stop-color="#F5F7FA" offset="0%"></stop>
            <stop stop-color="#CDD9ED" offset="100%"></stop>
        </linearGradient>
    </defs>
    <g id="Page-1" stroke="none" stroke-width="1" fill="none" fill-rule="evenodd">
        <g id="Mining-Provider-Windows-Onboarding-Steps-02" transform="translate(-532.000000, -526.000000)" fill-rule="nonzero">
            <g id="Group-4" transform="translate(532.000000, 458.000000)">
                <g id="10Artboard-1" transform="translate(0.000000, 68.000000)">
                    <path d="M72.7244444,94.3897786 C69.4841051,99.9835733 85.3110683,115.157292 107.993443,128.282889 C130.675818,141.408485 151.793131,147.508805 155.03347,141.937033 C158.273809,136.365261 142.424803,121.16952 119.764471,108.043923 C97.1041397,94.9183261 75.9427405,88.8180068 72.7244444,94.3897786 Z" id="Path" fill="url(#radialGradient-1)" style="mix-blend-mode: multiply;"></path>
                    <ellipse id="Oval" fill="url(#radialGradient-2)" style="mix-blend-mode: multiply;" transform="translate(69.983512, 92.790109) rotate(-60.000000) translate(-69.983512, -92.790109) " cx="69.9835116" cy="92.7901092" rx="11.6748231" ry="74.0478362"></ellipse>
                    <polygon id="Path" fill="#D9C3B2" points="28.8806705 65.6059614 44.7958061 81.8587977 42.4812781 78.6214442"></polygon>
                    <polygon id="Path" fill="#EADDD3" points="42.4812781 78.6214442 28.8806705 65.6059614 44.773763 72.741353"></polygon>
                    <polygon id="Path" fill="#F1E9E3" points="28.8806705 65.6059614 44.773763 72.741353 49.3587328 70.0986153"></polygon>
                    <path d="M134.930141,124.715193 C136.010254,124.120577 136.869936,124.715193 136.869936,125.838356 C136.793029,127.18746 136.081838,128.420688 134.952184,129.163801 C133.872071,129.78044 133.012389,129.163801 133.012389,128.06266 C133.082454,126.705642 133.794449,125.462842 134.930141,124.715193 L134.930141,124.715193 Z" id="Path" fill="#2D5BB6"></path>
                    <polygon id="Path" fill="#5B7DAB" points="132.659699 132.819588 44.7958061 81.8587977 42.4812781 78.6214442 130.345171 129.604257"></polygon>
                    <polygon id="Path" fill="#83A5D8" points="130.345171 129.604257 42.4812781 78.6214442 44.773763 72.741353 132.637656 123.702143"></polygon>
                    <path d="M137.222626,121.059406 L139.426938,124.296759 L137.222626,130.176851 L132.637656,132.819588 L130.433343,129.604257 L132.637656,123.702143 L137.222626,121.059406 Z M135.018313,129.163801 C136.147967,128.420688 136.859158,127.18746 136.936065,125.838356 C136.936065,124.605079 136.076383,124.120577 134.99627,124.715193 C133.860578,125.462842 133.148583,126.705642 133.078518,128.06266 C133.078518,129.273915 133.9382,129.78044 135.018313,129.163801 L135.018313,129.163801 Z" id="Shape" fill="#EADDD3"></path>
                    <polygon id="Path" fill="#A3BDED" points="132.637656 123.702143 44.773763 72.741353 49.3587328 70.0986153 137.222626 121.059406"></polygon>
                    <path d="M36.8161952,67.8302656 C37.1402755,67.6342906 37.5194807,67.5492413 37.8963082,67.5880146 L28.8365842,65.6059614 L35.0527452,71.9485317 C34.9382639,71.7083133 34.8852452,71.443464 34.8984434,71.1777332 C34.9614204,69.8186446 35.6751272,68.5728575 36.8161952,67.8302656 L36.8161952,67.8302656 Z" id="Path" fill="url(#linearGradient-3)"></path>
                    <g id="Group" style="mix-blend-mode: multiply;" transform="translate(57.374158, 22.094144)">
                        <path d="M71.5382094,1.86667727 C76.3799527,-0.622225756 82.126653,-0.622225756 86.9683963,1.86667727 L172.451632,51.6162129 C176.683912,54.0827681 176.683912,58.223057 172.451632,60.6235437 L104.117947,100.264608 C99.2762036,102.753511 93.5295032,102.753511 88.68776,100.264608 L3.18248142,50.6472092 C-1.07184154,48.1586312 -1.04979842,44.0403651 3.18248142,41.6398784 L71.5382094,1.86667727 Z" id="Path" fill="#FFFFFF" opacity="0"></path>
                        <path d="M71.295735,2.04285977 C76.1338978,-0.460770743 81.8877591,-0.460770743 86.7259219,2.04285977 L171.658079,51.3299164 C175.868316,53.7964715 175.868316,57.8046235 171.658079,60.2711786 L103.743214,99.7140376 C98.9023594,102.206605 93.1538812,102.206605 88.3130268,99.7140376 L3.49108515,50.4049582 C-0.741194682,47.9384031 -0.719151557,43.9522738 3.49108515,41.4636959 L71.295735,2.04285977 Z" id="Path" fill="#FDFDFE" opacity="0.0322580636"></path>
                        <path d="M71.0532606,2.21904228 C75.814452,-0.249110433 81.4797818,-0.249110433 86.2409732,2.21904228 L170.644096,51.1757567 C174.810246,53.620289 174.810246,57.5843954 170.644096,59.9848821 L103.390524,99.1414445 C98.6266279,101.598498 92.966707,101.598498 88.2028112,99.1414445 L3.79968889,50.1847301 C-0.388504695,47.718175 -0.366461571,43.7540685 3.79968889,41.3756047 L71.0532606,2.21904228 Z" id="Path" fill="#FAFBFC" opacity="0.0645161281"></path>
                        <path d="M70.8107863,2.37320198 C75.5440529,-0.0497529175 81.1550166,-0.0497529175 85.8882832,2.37320198 L169.652155,51.021597 C173.796262,53.4441065 173.796262,57.3861901 169.652155,59.8307224 L103.015791,98.5908741 C98.2902377,101.013571 92.6858898,101.013571 87.9603369,98.5908741 L4.19646513,49.9424791 C0.0303146633,47.5199696 0.0523577875,43.577886 4.19646513,41.1333537 L70.8107863,2.37320198 Z" id="Path" fill="#F8F9FB" opacity="0.0967741927"></path>
                        <path d="M70.5683119,2.54938448 C75.2552449,0.12783249 80.8266171,0.12783249 85.5135501,2.54938448 L168.836559,50.8674373 C172.93658,53.267924 172.93658,57.1659619 168.836559,59.6765627 L102.707187,98.128395 C98.0149333,100.527996 92.4542023,100.527996 87.7619487,98.128395 L4.39485324,49.722251 C0.294832153,47.2997415 0.316875277,43.4017035 4.39485324,40.9131256 L70.5683119,2.54938448 Z" id="Path" fill="#F5F7F9" opacity="0.129032257"></path>
                        <path d="M70.3478807,2.70354418 C74.9982459,0.323670273 80.5104949,0.323670273 85.1608601,2.70354418 L167.932791,50.7132776 C172.010769,53.0917414 172.010769,56.9677566 167.932791,59.3462205 L102.310411,97.4677106 C97.6653773,99.8695669 92.1424646,99.8695669 87.4974312,97.4677106 L4.70345698,49.4139316 C0.625479015,47.0354677 0.647522139,43.1594526 4.70345698,40.7809887 L70.3478807,2.70354418 Z" id="Path" fill="#F3F5F8" opacity="0.161290322"></path>
                        <path d="M70.1054063,2.87972669 C74.7094404,0.50126283 80.1820928,0.50126283 84.786127,2.87972669 L167.029023,50.5370951 C171.062915,52.9155589 171.062915,56.7475285 167.029023,59.1259923 L101.957721,96.9171403 C97.3432895,99.284822 91.8693881,99.284822 87.2549569,96.9171403 L5.01206072,49.2597719 C0.956125877,46.881308 0.978169001,43.0493385 5.01206072,40.6708746 L70.1054063,2.87972669 Z" id="Path" fill="#F0F2F7" opacity="0.193548386"></path>
                        <path d="M69.8188457,3.16602326 C74.3896079,0.810732159 79.8185885,0.810732159 84.3893507,3.16602326 L166.081169,50.4930495 C170.093017,52.8494905 170.093017,56.6374144 166.081169,58.9938555 L101.582988,96.4326384 C97.0069454,98.766093 91.5885247,98.766093 87.0124825,96.4326384 L5.32066446,49.017521 C1.30881586,46.6610799 1.33085899,42.873156 5.32066446,40.5167149 L69.8188457,3.16602326 Z" id="Path" fill="#EEF0F5" opacity="0.225806451"></path>
                        <path d="M69.6204576,3.16602326 C74.1493232,0.830436462 79.5298382,0.830436462 84.0587039,3.16602326 L165.221487,50.1847301 C169.189249,52.3870114 169.189249,56.2850494 165.221487,58.6194676 L101.296427,95.771954 C96.7622703,98.0856731 91.3923373,98.0856731 86.8581806,95.771954 L5.62926819,48.7972928 C1.63946273,46.4628746 1.66150585,42.6969735 5.62926819,40.3625553 L69.6204576,3.16602326 Z" id="Path" fill="#EBEEF4" opacity="0.258064516"></path>
                        <path d="M69.3779832,3.3862514 C73.8735706,1.07381964 79.2104265,1.07381964 83.7060139,3.3862514 L164.317719,50.074616 C168.263438,52.2768973 168.263438,56.1088669 164.317719,58.4212623 L100.877608,95.2434065 C96.3820202,97.5558382 91.0451644,97.5558382 86.5495769,95.2434065 L5.89378568,48.5550419 C1.92602334,46.3527605 1.94806646,42.520791 5.89378568,40.2083956 L69.3779832,3.3862514 Z" id="Path" fill="#E9ECF3" opacity="0.29032258"></path>
                        <path d="M69.1355088,3.54041109 C73.5978087,1.25110804 78.8910241,1.25110804 83.3533239,3.54041109 L163.413951,49.9204563 C167.315584,52.1227377 167.315584,55.9106616 163.413951,58.1790114 L100.524918,94.6928361 C96.0599913,96.9712588 90.7720288,96.9712588 86.3071025,94.6928361 L6.22443255,48.3127909 C2.32279957,46.1105096 2.3448427,42.3446085 6.22443255,40.0542359 L69.1355088,3.54041109 Z" id="Path" fill="#E6EAF1" opacity="0.322580645"></path>
                        <path d="M68.8930345,3.7165936 C73.3143243,1.45065281 78.557301,1.45065281 82.9785908,3.7165936 L162.510183,49.7662966 C166.389773,51.968578 166.389773,55.6904334 162.510183,57.9587832 L100.150185,94.1422658 C95.7348529,96.4006825 90.5020029,96.4006825 86.0866713,94.1422658 L6.53303628,48.0925628 C2.65344644,45.8902814 2.67548956,42.1464031 6.53303628,39.9000762 L68.8930345,3.7165936 Z" id="Path" fill="#E4E8F0" opacity="0.354838709"></path>
                        <path d="M68.6726032,3.87075329 C73.0520024,1.62453348 78.2465016,1.62453348 82.6259008,3.87075329 L161.606415,49.5901141 C165.441918,51.7923955 165.441918,55.4702053 161.606415,57.7165323 L99.885667,93.5696726 C95.5062678,95.8158925 90.3117686,95.8158925 85.9323694,93.5696726 L6.84164002,47.8503118 C3.00613642,45.6480305 3.02817955,41.9702206 6.84164002,39.7238937 L68.6726032,3.87075329 Z" id="Path" fill="#E1E6EE" opacity="0.387096774"></path>
                        <path d="M68.4301289,4.0469358 C72.7685177,1.82407725 77.9127788,1.82407725 82.2511677,4.0469358 L160.72469,49.4139316 C164.516107,51.6162129 164.516107,55.2499772 160.72469,57.4742813 L99.4448045,93.0191023 C95.0987034,95.2422229 89.9478237,95.2422229 85.6017226,93.0191023 L7.15024376,47.6300837 C3.33678328,45.4278024 3.35882641,41.7940381 7.15024376,39.569734 L68.4301289,4.0469358 Z" id="Path" fill="#DFE4ED" opacity="0.419354839"></path>
                        <path d="M68.1876545,4.22311831 C72.4865244,1.9977119 77.5996078,1.9977119 81.8984777,4.22311831 L159.820922,49.2817947 C163.568253,51.4840761 163.568253,55.0517718 159.820922,57.2540532 L99.1582439,92.4905548 C94.8437233,94.6834165 89.7398982,94.6834165 85.4253776,92.4905548 L7.4588475,47.3878328 C3.66743015,45.1855514 3.68947327,41.6178556 7.4588475,39.4155743 L68.1876545,4.22311831 Z" id="Path" fill="#DCE2EC" opacity="0.451612903"></path>
                        <path d="M67.9451801,4.377278 C72.2083795,2.19723753 77.2605452,2.19723753 81.5237446,4.377278 L158.917153,49.127635 C162.642441,51.3299164 162.642441,54.8535665 158.917153,57.0338251 L98.7173814,91.8959388 C94.4568248,94.0869055 89.3993736,94.0869055 85.138817,91.8959388 L7.76745124,47.2116502 C4.02012013,45.0093689 4.04216326,41.4857187 7.76745124,39.3054602 L67.9451801,4.377278 Z" id="Path" fill="#DAE0EA" opacity="0.483870968"></path>
                        <path d="M67.6145333,4.55346051 C71.8444235,2.3964881 76.8529919,2.3964881 81.0828821,4.55346051 L157.991342,48.9734753 C161.672544,51.1757567 161.672544,54.6333384 157.991342,56.7915741 L98.4749071,91.2572772 C94.2450169,93.4142496 89.2364484,93.4142496 85.0065582,91.2572772 L8.0980981,46.9253537 C4.39485324,44.7230723 4.41689637,41.2654906 8.0980981,39.1072549 L67.6145333,4.55346051 Z" id="Path" fill="#D7DDE9" opacity="0.516129032"></path>
                        <path d="M67.4602314,4.70762021 C71.6183323,2.60768526 76.528005,2.60768526 80.6861059,4.70762021 L156.999402,48.7532472 C160.65856,50.9555285 160.636517,54.3690646 156.999402,56.5273004 L98.0120015,90.7947981 C93.8162934,92.9323221 88.8495763,92.9323221 84.6538682,90.7947981 L8.36261559,46.7491712 C4.68141386,44.5468898 4.70345698,41.1333537 8.36261559,38.975118 L67.4602314,4.70762021 Z" id="Path" fill="#D5DBE7" opacity="0.548387097"></path>
                        <path d="M67.217757,4.88380271 C71.3724451,2.76961262 76.2889435,2.76961262 80.4436315,4.88380271 L156.205849,48.6431331 C159.820922,50.8454145 159.820922,54.2149049 156.205849,56.329095 L97.6372684,90.222205 C93.4869495,92.3545056 88.5617127,92.3545056 84.4113939,90.222205 L8.67121933,46.4628746 C5.03410384,44.2605932 5.05614697,40.9131256 8.67121933,38.7769127 L67.217757,4.88380271 Z" id="Path" fill="#D2D9E6" opacity="0.580645161"></path>
                        <path d="M66.9752827,5.05998522 C71.1211138,2.90924132 76.055326,2.90924132 80.2011572,5.05998522 L155.412297,48.4889734 C159.005326,50.6912548 158.983283,53.9946768 155.412297,56.1088669 L97.2845784,89.6716347 C93.1735113,91.7732991 88.3020297,91.7732991 84.1909626,89.6716347 L8.97982306,46.2426465 C5.36475071,44.0403651 5.38679383,40.7369431 8.97982306,38.622753 L66.9752827,5.05998522 Z" id="Path" fill="#D0D7E5" opacity="0.612903226"></path>
                        <path d="M66.7548514,5.21414492 C70.8266353,3.14302799 75.6444246,3.14302799 79.7162084,5.21414492 L154.398313,48.3348137 C157.947256,50.4049582 157.947256,53.7744487 154.398313,55.8666159 L96.9318884,89.0549959 C92.8524082,91.1264198 88.0279684,91.1264198 83.9484883,89.0549959 L9.2884268,46.0003955 C5.71744069,43.7981142 5.71744069,40.5387378 9.2884268,38.4685933 L66.7548514,5.21414492 Z" id="Path" fill="#CDD5E3" opacity="0.645161291"></path>
                        <path d="M66.5123771,5.36830461 C70.5456223,3.29856114 75.3302733,3.29856114 79.3635184,5.36830461 L153.582717,48.180654 C157.109617,50.2287757 157.087574,53.5762433 153.582717,55.6463878 L96.5791984,88.5484712 C92.5459532,90.6182146 87.7613022,90.6182146 83.728057,88.5484712 L9.59703054,45.7801674 C6.04808755,43.7100229 6.07013068,40.3625553 9.59703054,38.3144336 L66.5123771,5.36830461 Z" id="Path" fill="#CBD3E2" opacity="0.677419355"></path>
                        <path d="M66.2699027,5.54448712 C70.267331,3.51969773 74.991357,3.51969773 78.9887853,5.54448712 L152.590777,48.0264943 C156.07359,50.0525932 156.07359,53.3560152 152.590777,55.4041369 L96.2705947,87.9979008 C92.2783591,90.0442812 87.5439475,90.0442812 83.551712,87.9979008 L9.88359115,45.5379164 C6.37873442,43.4897948 6.40077754,40.1863727 9.88359115,38.1382511 L66.2699027,5.54448712 Z" id="Path" fill="#C8D1E0" opacity="0.70967742"></path>
                        <path d="M66.0274283,5.72066963 C69.9854879,3.69375511 74.6780358,3.69375511 78.6360953,5.72066963 L151.687009,47.8503118 C155.147779,49.8764107 155.125736,53.1578099 151.687009,55.1618859 L95.8517753,87.4473305 C91.891105,89.4634089 87.2037786,89.4634089 83.2431083,87.4473305 L10.3024105,45.2956655 C6.84164002,43.2915894 6.86368315,40.0101902 10.3024105,37.9840914 L66.0274283,5.72066963 Z" id="Path" fill="#C6CFDF" opacity="0.741935484"></path>
                        <path d="M65.784954,5.89685214 C69.7020009,3.89329239 74.3443153,3.89329239 78.2613622,5.89685214 L150.783241,47.7401978 C154.199925,49.7442738 154.199925,52.9816274 150.783241,54.9857034 L95.4990853,86.8527145 C91.5880022,88.848766 86.9558032,88.848766 83.0447202,86.8527145 L10.5007986,45.0093689 C7.06207126,43.0052929 7.08411439,39.7679393 10.5007986,37.7638633 L65.784954,5.89685214 Z" id="Path" fill="#C3CDDE" opacity="0.774193549"></path>
                        <path d="M65.5424796,6.05101183 C69.4262179,4.07052158 74.024934,4.07052158 77.9086722,6.05101183 L149.879473,47.5419924 C153.274114,49.5240457 153.252071,52.7173536 149.879473,54.6994068 L95.1463953,86.324167 C91.2626571,88.3046573 86.6639409,88.3046573 82.7802027,86.324167 L10.8094024,44.8331864 C7.39271813,42.8511332 7.41476125,39.6578252 10.8094024,37.675772 L65.5424796,6.05101183 Z" id="Path" fill="#C1CBDC" opacity="0.806451614"></path>
                        <path d="M65.4102209,6.22719434 C69.2520735,4.26643929 73.8023021,4.26643929 77.6441548,6.22719434 L149.08592,47.3878328 C152.436475,49.3258403 152.436475,52.5191483 149.08592,54.4791787 L94.7716622,85.7735967 C90.9298095,87.7343517 86.379581,87.7343517 82.5377283,85.7735967 L11.1180061,44.6129583 C7.74540811,42.6529279 7.76745124,39.4816427 11.1180061,37.5216123 L65.4102209,6.22719434 Z" id="Path" fill="#BEC8DB" opacity="0.838709678"></path>
                        <path d="M65.0575309,6.38135403 C68.8660667,4.44364552 73.3727133,4.44364552 77.1812492,6.38135403 L148.071936,47.2116502 C151.400448,49.127635 151.378405,52.2768973 148.071936,54.2149049 L94.4189722,85.2230263 C90.6078731,87.1500331 86.1063531,87.1500331 82.295254,85.2230263 L11.4266098,44.3707073 C8.07605497,42.4326997 8.0980981,39.3054602 11.4266098,37.3674526 L65.0575309,6.38135403 Z" id="Path" fill="#BCC6DA" opacity="0.870967743"></path>
                        <path d="M64.8370996,6.55753654 C68.598632,4.65061464 73.0449837,4.65061464 76.806516,6.55753654 L147.168168,47.0574906 C150.452594,48.9734753 150.452594,52.1007148 147.168168,54.0166996 L94.0662822,84.6504332 C90.2987685,86.5648136 85.8423365,86.5648136 82.0748227,84.6504332 L11.7131705,44.1504792 C8.42874496,42.2344944 8.42874496,39.1292777 11.7131705,37.1912701 L64.8370996,6.55753654 Z" id="Path" fill="#B9C4D8" opacity="0.903225807"></path>
                        <path d="M64.5946253,6.73371905 C68.3149995,4.81731041 72.7334518,4.81731041 76.4538261,6.73371905 L146.2644,46.9033309 C149.526783,48.7972928 149.504739,51.8804867 146.2644,53.7744487 L93.6915491,84.0998628 C89.9659175,85.9944985 85.5579799,85.9944985 81.8323483,84.0998628 L12.0217742,43.9082282 C8.75939182,42.0142663 8.78143495,38.9310724 12.0217742,37.0371104 L64.5946253,6.73371905 Z" id="Path" fill="#B7C2D7" opacity="0.935483872"></path>
                        <path d="M64.3521509,6.88787874 C68.0444525,5.01625231 72.4088345,5.01625231 76.1011361,6.88787874 L145.360632,46.7491712 C148.578928,48.6211103 148.578928,51.6602586 145.360632,53.5542205 L93.3388591,83.5492925 C89.6465575,85.4209189 85.2821756,85.4209189 81.589874,83.5492925 L12.3303779,43.6880001 C9.09003868,41.7940381 9.11208181,38.7548899 12.3303779,36.8829507 L64.3521509,6.88787874 Z" id="Path" fill="#B4C0D5" opacity="0.967741936"></path>
                        <path d="M64.1096765,7.06406125 C67.7548746,5.19050801 72.0812049,5.19050801 75.726403,7.06406125 L144.456864,46.5950115 C147.653117,48.4449278 147.631074,51.4620533 144.456864,53.2018555 L92.9861692,82.9766994 C89.3383356,84.8393468 85.0172763,84.8393468 81.3694427,82.9766994 L12.6389817,43.4457491 C9.44272867,41.5958328 9.44272867,38.5787074 12.6389817,36.728791 L64.1096765,7.06406125 Z" id="Path" fill="#B2BED4"></path>
                    </g>
                    <polygon id="Path" fill="#F5F7FA" points="66.3980678 37.6149654 131.601629 0 210.317625 45.697338 145.114064 83.3123034"></polygon>
                    <polygon id="Path" fill="#D1DDE3" points="164.48997 45.8294749 167.598051 47.6133228 133.497338 67.2796952 130.4113 65.4958473"></polygon>
                    <polygon id="Path" fill="#D1DDE3" points="180.603494 43.4730338 183.711574 45.2789045 139.515111 70.7813226 136.40703 68.9754519"></polygon>
                    <polygon id="Path" fill="#D1DDE3" points="173.571737 33.6288362 176.679818 35.4347069 127.501608 63.8000907 124.393527 62.0162428"></polygon>
                    <polygon id="Path" fill="#D1DDE3" points="191.58097 44.0896726 194.68905 45.8955433 145.51084 74.2609271 142.40276 72.4550564"></polygon>
                    <polygon id="Path" fill="url(#linearGradient-4)" points="210.317625 45.697338 210.405798 72.9175355 145.202237 110.532501 145.114064 83.3123034"></polygon>
                    <polygon id="Path" fill="url(#linearGradient-5)" points="145.114064 83.3123034 145.202237 110.532501 66.4641971 64.8351629 66.3980678 37.6149654"></polygon>
                    <polygon id="Path" fill="#9ABFCC" style="mix-blend-mode: multiply;" points="66.4201109 38.7161061 105.833217 61.5097181 145.15815 84.4134441 105.745044 61.641855"></polygon>
                    <polygon id="Path" fill="#9ABFCC" style="mix-blend-mode: multiply;" points="66.4201109 40.5219768 105.833217 63.293566 145.15815 86.2193148 105.745044 63.4257029"></polygon>
                    <polygon id="Path" fill="#9ABFCC" style="mix-blend-mode: multiply;" points="66.4201109 42.3278475 105.833217 65.0994367 145.15815 88.0251855 105.745044 65.2315736"></polygon>
                    <polygon id="Path" fill="#9ABFCC" style="mix-blend-mode: multiply;" points="66.4201109 44.1337182 105.833217 66.9053074 145.15815 89.8310562 105.745044 67.1035127"></polygon>
                    <polygon id="Path" fill="#9ABFCC" style="mix-blend-mode: multiply;" points="66.4201109 45.9175661 105.833217 68.7111781 145.15815 91.6369269 105.745044 68.843315"></polygon>
                    <polygon id="Path" fill="#9ABFCC" style="mix-blend-mode: multiply;" points="66.4201109 47.7234368 105.833217 70.5170488 145.15815 93.5308889 105.745044 70.6491857"></polygon>
                    <polygon id="Path" fill="#9ABFCC" style="mix-blend-mode: multiply;" points="66.4201109 49.4852619 105.833217 72.3229195 145.15815 95.2486684 105.745044 72.4550564"></polygon>
                    <polygon id="Path" fill="#9ABFCC" style="mix-blend-mode: multiply;" points="66.4201109 51.3351782 105.833217 74.1287902 145.15815 97.0545391 105.745044 74.2609271"></polygon>
                    <polygon id="Path" fill="#9ABFCC" style="mix-blend-mode: multiply;" points="66.4201109 53.141049 105.833217 75.9126381 145.15815 98.8163641 105.745044 76.0667978"></polygon>
                    <polygon id="Path" fill="#9ABFCC" style="mix-blend-mode: multiply;" points="66.4201109 54.9469197 105.833217 77.7405316 145.15815 100.644258 105.745044 77.8726685"></polygon>
                    <polygon id="Path" fill="#9ABFCC" style="mix-blend-mode: multiply;" points="66.4201109 56.7527904 105.833217 79.5464023 145.15815 102.450128 105.745044 79.6785392"></polygon>
                    <polygon id="Path" fill="#9ABFCC" style="mix-blend-mode: multiply;" points="66.4201109 58.5586611 105.833217 81.3302502 145.15815 104.255999 105.745044 81.4623871"></polygon>
                    <polygon id="Path" fill="#9ABFCC" style="mix-blend-mode: multiply;" points="66.4201109 60.3645318 105.833217 83.1361209 145.15815 106.06187 105.745044 83.2682578"></polygon>
                    <polygon id="Path" fill="#9ABFCC" style="mix-blend-mode: multiply;" points="66.4201109 62.1704025 105.833217 84.9419916 145.15815 107.86774 105.745044 85.0741285"></polygon>
                    <polygon id="Path" fill="#9ABFCC" style="mix-blend-mode: multiply;" points="66.4201109 63.9542504 105.833217 86.7478623 145.15815 109.673611 105.745044 86.9240449"></polygon>
                    <polygon id="Path" fill="#9ABFCC" style="mix-blend-mode: multiply;" points="145.114064 84.4134441 177.671758 65.4738245 210.317625 46.644319 177.759931 65.6059614"></polygon>
                    <polygon id="Path" fill="#9ABFCC" style="mix-blend-mode: multiply;" points="145.114064 86.2193148 177.671758 67.2796952 210.317625 48.4501897 177.759931 67.4118321"></polygon>
                    <polygon id="Path" fill="#9ABFCC" style="mix-blend-mode: multiply;" points="145.114064 88.0251855 177.671758 69.0635431 210.317625 50.2560604 177.759931 69.3057941"></polygon>
                    <polygon id="Path" fill="#9ABFCC" style="mix-blend-mode: multiply;" points="145.114064 89.8310562 177.671758 70.8694138 210.317625 52.0619311 177.759931 71.0015507"></polygon>
                    <polygon id="Path" fill="#9ABFCC" style="mix-blend-mode: multiply;" points="145.114064 91.6369269 177.671758 72.6752845 210.317625 53.8898246 177.759931 72.8294442"></polygon>
                    <polygon id="Path" fill="#9ABFCC" style="mix-blend-mode: multiply;" points="145.114064 93.5308889 177.671758 74.4811552 210.317625 55.6736725 177.759931 74.6132921"></polygon>
                    <polygon id="Path" fill="#9ABFCC" style="mix-blend-mode: multiply;" points="145.114064 95.2486684 177.671758 76.2870259 210.317625 57.4575204 177.759931 76.4191628"></polygon>
                    <polygon id="Path" fill="#9ABFCC" style="mix-blend-mode: multiply;" points="145.114064 97.0545391 177.671758 78.1149195 210.317625 59.2854139 177.759931 78.2250335"></polygon>
                    <polygon id="Path" fill="#9ABFCC" style="mix-blend-mode: multiply;" points="145.114064 98.838387 177.671758 79.8987673 210.317625 61.0692618 177.759931 80.0309042"></polygon>
                    <polygon id="Path" fill="#9ABFCC" style="mix-blend-mode: multiply;" points="145.114064 100.644258 177.671758 81.7046381 210.317625 62.8751325 177.759931 81.8367749"></polygon>
                    <polygon id="Path" fill="#9ABFCC" style="mix-blend-mode: multiply;" points="145.114064 102.450128 177.671758 83.5105088 210.317625 64.6810032 177.759931 83.6426456"></polygon>
                    <polygon id="Path" fill="#9ABFCC" style="mix-blend-mode: multiply;" points="145.114064 104.255999 177.671758 85.3163795 210.317625 66.4868739 177.759931 85.4485163"></polygon>
                    <polygon id="Path" fill="#9ABFCC" style="mix-blend-mode: multiply;" points="145.114064 106.06187 177.671758 87.1002274 210.317625 68.2927446 177.759931 87.2323642"></polygon>
                    <polygon id="Path" fill="#9ABFCC" style="mix-blend-mode: multiply;" points="145.114064 107.86774 177.671758 88.9060981 210.317625 70.0986153 177.759931 89.1263262"></polygon>
                    <polygon id="Path" fill="#9ABFCC" style="mix-blend-mode: multiply;" points="145.114064 109.673611 177.671758 90.7119688 210.317625 71.9044861 177.759931 90.8441057"></polygon>
                </g>
            </g>
        </g>
    </g>
</svg>