<?xml version="1.0" encoding="UTF-8"?>
<svg width="207px" height="202px" viewBox="0 0 207 202" version="1.1" xmlns="http://www.w3.org/2000/svg" xmlns:xlink="http://www.w3.org/1999/xlink">
    <title>11Artboard 1</title>
    <defs>
        <linearGradient x1="0.0626931102%" y1="50.0806099%" x2="99.4484802%" y2="50.0806099%" id="linearGradient-1">
            <stop stop-color="#064BA2" offset="0%"></stop>
            <stop stop-color="#667EEA" offset="100%"></stop>
        </linearGradient>
        <linearGradient x1="23.6921869%" y1="49.2943448%" x2="76.3406159%" y2="51.7454448%" id="linearGradient-2">
            <stop stop-color="#FA742B" offset="0%"></stop>
            <stop stop-color="#FFE985" offset="100%"></stop>
        </linearGradient>
        <linearGradient x1="1.39912868%" y1="50.1822478%" x2="100.398854%" y2="50.1822478%" id="linearGradient-3">
            <stop stop-color="#FFECD2" offset="0%"></stop>
            <stop stop-color="#FCB69F" offset="100%"></stop>
        </linearGradient>
        <linearGradient x1="0%" y1="49.6710526%" x2="100%" y2="49.6710526%" id="linearGradient-4">
            <stop stop-color="#FFE985" offset="0%"></stop>
            <stop stop-color="#FA742B" offset="100%"></stop>
        </linearGradient>
        <linearGradient x1="0%" y1="50.5128205%" x2="100%" y2="50.5128205%" id="linearGradient-5">
            <stop stop-color="#FA742B" offset="0%"></stop>
            <stop stop-color="#FFE985" offset="100%"></stop>
        </linearGradient>
        <linearGradient x1="-3.94476527%" y1="50.0039204%" x2="100.304823%" y2="50.0039204%" id="linearGradient-6">
            <stop stop-color="#FFECD2" offset="0%"></stop>
            <stop stop-color="#FCB69F" offset="100%"></stop>
        </linearGradient>
        <linearGradient x1="0%" y1="49.6960481%" x2="99.9980481%" y2="49.6960481%" id="linearGradient-7">
            <stop stop-color="#FFECD2" offset="0%"></stop>
            <stop stop-color="#FCB69F" offset="100%"></stop>
        </linearGradient>
        <linearGradient x1="-3.66224987e-13%" y1="49.9997799%" x2="100.248382%" y2="49.9997799%" id="linearGradient-8">
            <stop stop-color="#FFECD2" offset="0%"></stop>
            <stop stop-color="#FCB69F" offset="100%"></stop>
        </linearGradient>
        <linearGradient x1="-0.133770199%" y1="49.898167%" x2="100.038067%" y2="49.898167%" id="linearGradient-9">
            <stop stop-color="#FFECD2" offset="0%"></stop>
            <stop stop-color="#FCB69F" offset="100%"></stop>
        </linearGradient>
        <radialGradient cx="49.9472017%" cy="53.8911644%" fx="49.9472017%" fy="53.8911644%" r="82.8462166%" gradientTransform="translate(0.499472,0.538912),scale(0.604165,1.000000),translate(-0.499472,-0.538912)" id="radialGradient-10">
            <stop stop-color="#9CB0BA" offset="0%"></stop>
            <stop stop-color="#9EB2BC" offset="2%"></stop>
            <stop stop-color="#C8D3D9" offset="32%"></stop>
            <stop stop-color="#E6EBEE" offset="60%"></stop>
            <stop stop-color="#F8FAFA" offset="83%"></stop>
            <stop stop-color="#FFFFFF" offset="100%"></stop>
        </radialGradient>
        <radialGradient cx="50%" cy="-6011.00703%" fx="50%" fy="-6011.00703%" r="82.8947214%" gradientTransform="translate(0.500000,-60.110070),scale(0.603175,1.000000),translate(-0.500000,60.110070)" id="radialGradient-11">
            <stop stop-color="#9CB0BA" offset="0%"></stop>
            <stop stop-color="#9EB2BC" offset="2%"></stop>
            <stop stop-color="#C8D3D9" offset="32%"></stop>
            <stop stop-color="#E6EBEE" offset="60%"></stop>
            <stop stop-color="#F8FAFA" offset="83%"></stop>
            <stop stop-color="#FFFFFF" offset="100%"></stop>
        </radialGradient>
        <radialGradient cx="49.8946259%" cy="71.4312618%" fx="49.8946259%" fy="71.4312618%" r="111.456535%" gradientTransform="translate(0.498946,0.714313),scale(0.448605,1.000000),translate(-0.498946,-0.714313)" id="radialGradient-12">
            <stop stop-color="#D4BCBC" offset="1%"></stop>
            <stop stop-color="#FFFFFF" offset="100%"></stop>
        </radialGradient>
        <radialGradient cx="-61.9519128%" cy="115.783272%" fx="-61.9519128%" fy="115.783272%" r="79.0386009%" gradientTransform="translate(-0.619519,1.157833),scale(0.708945,1.000000),rotate(-29.994072),translate(0.619519,-1.157833)" id="radialGradient-13">
            <stop stop-color="#D4BCBC" offset="1%"></stop>
            <stop stop-color="#D8C2C2" offset="22%"></stop>
            <stop stop-color="#E3D4D4" offset="52%"></stop>
            <stop stop-color="#F6F1F1" offset="86%"></stop>
            <stop stop-color="#FFFFFF" offset="100%"></stop>
        </radialGradient>
        <linearGradient x1="1.05421687%" y1="49.9770443%" x2="100.451807%" y2="49.9770443%" id="linearGradient-14">
            <stop stop-color="#FF374F" offset="0%"></stop>
            <stop stop-color="#D42237" offset="100%"></stop>
        </linearGradient>
        <linearGradient x1="0.0382801563%" y1="49.8669037%" x2="100.057032%" y2="49.8669037%" id="linearGradient-15">
            <stop stop-color="#FF374F" offset="0%"></stop>
            <stop stop-color="#D42237" offset="100%"></stop>
        </linearGradient>
        <linearGradient x1="33.2865585%" y1="48.8657892%" x2="66.4697994%" y2="51.1402125%" id="linearGradient-16">
            <stop stop-color="#FF374F" offset="0%"></stop>
            <stop stop-color="#7A1420" offset="100%"></stop>
        </linearGradient>
        <linearGradient x1="38.8733965%" y1="33.3645514%" x2="55.716676%" y2="78.2230705%" id="linearGradient-17">
            <stop stop-color="#FF374F" offset="0%"></stop>
            <stop stop-color="#CC2135" offset="100%"></stop>
        </linearGradient>
        <linearGradient x1="78.6949247%" y1="37.9896537%" x2="51.1991076%" y2="55.0478267%" id="linearGradient-18">
            <stop stop-color="#231F20" offset="0%"></stop>
            <stop stop-color="#332F30" offset="11%"></stop>
            <stop stop-color="#5D5A5B" offset="32%"></stop>
            <stop stop-color="#A1A0A0" offset="63%"></stop>
            <stop stop-color="#FEFEFE" offset="100%"></stop>
            <stop stop-color="#FFFFFF" offset="100%"></stop>
        </linearGradient>
        <linearGradient x1="31.412019%" y1="63.5576147%" x2="57.5556109%" y2="44.5686827%" id="linearGradient-19">
            <stop stop-color="#FF374F" offset="0%"></stop>
            <stop stop-color="#911726" offset="100%"></stop>
        </linearGradient>
        <linearGradient x1="35.902169%" y1="4.70199259%" x2="75.1443507%" y2="84.3291623%" id="linearGradient-20">
            <stop stop-color="#FF374F" offset="0%"></stop>
            <stop stop-color="#D42237" offset="100%"></stop>
        </linearGradient>
        <linearGradient x1="24.7623744%" y1="-6.35326972%" x2="83.2878362%" y2="77.7286479%" id="linearGradient-21">
            <stop stop-color="#FF374F" offset="0%"></stop>
            <stop stop-color="#D42237" offset="100%"></stop>
        </linearGradient>
        <linearGradient x1="37.3016686%" y1="10.3785725%" x2="74.1237776%" y2="81.3318783%" id="linearGradient-22">
            <stop stop-color="#F5F7FA" offset="0%"></stop>
            <stop stop-color="#F0F3F7" offset="19%"></stop>
            <stop stop-color="#E3E7EF" offset="41%"></stop>
            <stop stop-color="#CCD4E1" offset="64%"></stop>
            <stop stop-color="#ADBACE" offset="88%"></stop>
            <stop stop-color="#99A9C2" offset="100%"></stop>
        </linearGradient>
        <linearGradient x1="30.9919894%" y1="-1.67640335%" x2="74.8216997%" y2="90.0939802%" id="linearGradient-23">
            <stop stop-color="#FF374F" offset="0%"></stop>
            <stop stop-color="#D42237" offset="100%"></stop>
        </linearGradient>
        <linearGradient x1="-0.110803324%" y1="50.0234694%" x2="100%" y2="50.0234694%" id="linearGradient-24">
            <stop stop-color="#43CBFF" offset="0%"></stop>
            <stop stop-color="#9708CC" offset="100%"></stop>
        </linearGradient>
        <linearGradient x1="0.217835457%" y1="49.9617987%" x2="100.20431%" y2="49.9617987%" id="linearGradient-25">
            <stop stop-color="#33FFF1" offset="0%"></stop>
            <stop stop-color="#AE09EB" offset="100%"></stop>
        </linearGradient>
    </defs>
    <g id="Page-1" stroke="none" stroke-width="1" fill="none" fill-rule="evenodd">
        <g id="Mining-Provider-Windows-Onboarding-Steps-03" transform="translate(-560.000000, -499.000000)" fill-rule="nonzero">
            <g id="Mining-app-design" transform="translate(320.000000, 160.000000)">
                <g id="Group-4" transform="translate(216.000000, 298.000000)">
                    <g id="11Artboard-1" transform="translate(25.000000, 41.000000)">
                        <path d="M130.662389,69.6866335 C128.740187,75.5685328 128.865939,81.9014979 128.865939,88.0720794 C128.784379,88.9521895 129.02729,89.831754 129.54859,90.5439205 C130.140801,91.0143667 130.877567,91.26315 131.632472,91.2475833 C132.692268,91.4508722 133.788265,91.1953377 134.650507,90.5439205 C135.107534,90.0402011 135.407351,89.4128659 135.512803,88.7396569 C135.81459,87.6006832 136.001168,86.4340302 136.069703,85.2574282 C136.035362,84.544075 136.170847,83.8327775 136.464922,83.1825251 C136.84573,82.626301 137.358071,82.1737278 137.955975,81.8654127 C138.307666,81.6239289 138.695919,81.441144 139.105703,81.3241336 C139.717716,81.2583102 140.336304,81.351502 140.902153,81.5947731 C141.421477,81.7397186 141.917519,81.9584401 142.375242,82.244308 C143.154292,82.952901 143.710042,83.8748181 143.974083,84.8965755 C144.207621,85.564153 144.44116,86.1956453 144.728592,86.8451801 C145.185705,87.7442301 145.489331,88.7139605 145.626817,89.7139592 C147.228986,90.1936839 148.920302,90.2925157 150.567054,90.0026414 C151.200901,89.9217834 151.811945,89.7131249 152.363504,89.3891918 C152.893915,89.0812213 153.271762,88.5643291 153.405445,87.9638236 C153.94438,84.968746 152.525185,81.84737 151.447315,78.9425057 C150.578832,77.2505401 150.013323,75.4183829 149.776616,73.5297149 C149.776616,72.9162653 149.776616,72.3028157 149.776616,71.7254514 C149.776643,71.0996607 149.523813,70.5006489 149.076001,70.0655289 C148.274006,69.5523087 147.2854,69.4265406 146.381326,69.7227188 C143.806139,70.2271419 141.202273,70.5706118 138.584733,70.751149 C135.900183,70.9162689 133.20931,70.5546996 130.662389,69.6866335 L130.662389,69.6866335 Z" id="Path" fill="url(#linearGradient-1)"></path>
                        <path d="M154.357564,54.2782226 C153.718505,54.5061961 153.11395,54.8219325 152.561114,55.2164396 C152.176177,55.4440182 151.815062,55.7099879 151.483244,56.0103156 C151.125965,56.310101 150.858548,56.7036022 150.71077,57.1470017 C150.528033,56.8308452 150.290806,56.549822 150.010155,56.3170404 C149.480879,55.748171 148.988821,55.1454899 148.537066,54.5127769 C148.354831,54.2279519 148.130732,53.9724628 147.872379,53.7549862 C147.635234,53.548784 147.320418,53.4565631 147.010083,53.5023893 C146.590953,54.113707 146.359826,54.8352001 146.345397,55.5772924 C146.222622,58.1787423 146.379218,60.7859068 146.812474,63.3536684 C146.860038,63.8226511 146.94413,64.287168 147.063977,64.7429513 C147.350408,65.5343403 147.756364,66.2767587 148.267598,66.9441529 C148.734675,67.6478157 149.668829,68.6040754 149.183788,69.3077382 C148.810909,69.7598209 148.3531,70.133792 147.83645,70.408339 C145.681618,71.8860326 143.227523,72.8657784 140.65065,73.277118 C139.313764,73.3576324 137.972272,73.3092978 136.644567,73.132777 C135.712939,73.0679121 134.787878,72.9291526 133.878034,72.7177963 C133.07624,72.6385509 132.311702,72.338897 131.668401,71.8517498 C131.091098,71.3825259 130.660729,70.7560894 130.42885,70.0474862 C130.393004,69.7418179 130.393004,69.4329802 130.42885,69.1273118 C130.511739,68.6495185 130.650424,68.1832058 130.842034,67.7380289 C130.954513,67.5317162 131.044843,67.3139819 131.111501,67.088494 C131.138188,66.8305774 131.138188,66.5705773 131.111501,66.3126606 C131.354741,64.9346884 131.510747,63.5426129 131.578578,62.1448118 C131.578578,61.8561296 131.578578,61.5674474 131.470791,61.2787653 C131.363004,60.9900831 131.470791,60.7555288 131.470791,60.5029319 C131.516903,58.7146535 131.280429,56.9303404 130.770176,55.2164396 C130.536637,54.1519241 130.26717,53.1234939 130.033631,52.0589784 C129.867892,51.0137215 129.765903,49.9592694 129.728235,48.9015171 C129.728235,48.5406644 129.728235,48.1617691 129.566554,47.8009163 C129.485915,47.4750921 129.485915,47.1343956 129.566554,46.8085714 C129.631191,46.5245888 129.661351,46.2337901 129.656377,45.9425249 C129.720114,45.2743488 129.652981,44.6001036 129.458767,43.9578349 C129.135406,43.1278737 128.776116,42.3339977 128.416826,41.5401217 L127.608424,39.7358582 C127.106663,38.4267976 126.396832,37.208134 125.506577,36.127331 C126.602369,36.1603557 127.677582,35.8236841 128.560542,35.1710713 C129.143773,34.8506364 129.503131,34.2329076 129.494696,33.5652767 C130.123033,33.9375872 130.657767,34.4499549 131.057608,35.0628155 C132.020069,36.3492481 132.833702,37.741467 133.482815,39.2126217 C133.600772,39.5308677 133.744989,39.8386625 133.913963,40.1327961 C134.411811,40.9476193 135.225822,41.5166347 136.159525,41.7025055 L136.33917,41.7025055 L136.644567,41.5942496 L136.644567,41.5942496 C137.215041,42.0917493 137.73826,42.6414046 138.207478,43.2361295 C138.447959,43.5461116 138.658495,43.8783937 138.836236,44.2284745 C139.270296,45.0240123 139.579339,45.8821431 139.752425,46.7724861 C140.282484,46.1355628 140.668622,45.3907062 140.884189,44.5893272 L142.033917,41.1612264 L142.28542,39.7358582 L143.183645,40.7282031 C143.403959,41.0216357 143.663957,41.2827636 143.956118,41.5040365 L144.710627,42.0994434 L148.123882,44.7517109 C148.559385,45.0656819 148.95197,45.4357096 149.291575,45.8523117 C149.660123,46.434437 149.995984,47.0367978 150.297587,47.6565753 C150.620948,48.1617691 151.052096,48.5947923 151.411386,49.0639009 C151.707397,49.4647409 151.983199,49.8802437 152.237753,50.3088427 L153.495268,52.3657032 C153.829891,52.980667 154.118131,53.6199657 154.357564,54.2782226 Z" id="Path" fill="url(#linearGradient-2)"></path>
                        <path d="M134.524756,37.1557612 L134.812188,37.6248698 C135.227672,38.2416129 135.599841,38.8866974 135.925987,39.5554318 C136.091454,39.8716368 136.223899,40.2041893 136.321206,40.5477768 C136.427802,40.8945399 136.427802,41.2655291 136.321206,41.6122923 L136.321206,41.774676 L136.626602,41.6664202 L136.626602,41.6664202 C137.197076,42.1639198 137.720295,42.7135752 138.189514,43.3083 C138.429994,43.6182821 138.640531,43.9505642 138.818271,44.300645 C139.251755,45.0726733 139.566689,45.9060132 139.752425,46.7724861 C140.282484,46.1355628 140.668622,45.3907062 140.884189,44.5893272 L142.033917,41.1612264 L142.28542,39.7358582 L141.782414,39.3028349 C141.643513,39.0750852 141.529095,38.8331591 141.441088,38.5811295 C141.346557,38.2972491 141.268578,38.0080766 141.20755,37.715083 C141.20755,37.516614 141.20755,37.3361876 141.117727,37.1377186 C141.044845,36.9584629 141.044845,36.7576526 141.117727,36.5783969 L141.477017,36.1814589 C141.854363,36.1028488 142.184464,35.8753235 142.393207,35.5499667 C142.591509,35.2294894 142.702979,34.8625268 142.716568,34.4854512 C142.802705,34.2569203 142.736272,33.9986757 142.550693,33.8406532 C142.365115,33.6826306 142.100585,33.659055 141.890201,33.7817884 C141.595105,33.8548801 141.37011,34.0949765 141.315337,34.395238 C141.308147,34.5394887 141.308147,34.6840105 141.315337,34.8282612 C141.315337,34.9726023 141.225514,35.134986 141.081798,35.134986 C140.980108,35.1244377 140.894893,35.0531163 140.866224,34.9545597 C140.848792,34.8530676 140.848792,34.7493269 140.866224,34.6478349 C141.058338,34.0669707 141.13762,33.4544617 141.099763,32.8435713 C141.099763,32.5007612 140.84826,32.1759938 140.758437,31.8512263 C140.698916,31.547189 140.656929,31.2399525 140.632686,30.9310519 C140.555451,30.4075196 140.338135,29.9148723 140.003928,29.5056837 C139.679383,29.0875096 139.212258,28.80473 138.69252,28.7118077 C138.305893,28.6478576 137.911454,28.6478576 137.524827,28.7118077 L136.860141,28.7118077 C136.270371,28.7397763 135.696553,28.9132902 135.189442,29.2170015 C134.561231,29.80256 134.187068,30.6124529 134.147501,31.472331 C134.057549,32.7517653 134.057549,34.0359781 134.147501,35.3154124 C134.121928,35.9505827 134.251443,36.5823941 134.524756,37.1557612 L134.524756,37.1557612 Z" id="Path" fill="url(#linearGradient-3)"></path>
                        <path d="M139.752425,46.7724861 C139.605335,46.6246938 139.467351,46.4680338 139.339242,46.3033776 C139.177181,46.0893211 138.990221,45.895491 138.782342,45.7260132 C138.482114,45.5342249 138.155185,45.3882913 137.812259,45.29299 C137.061951,45.0614042 136.279608,44.9517652 135.494839,44.9682225 C135.991722,44.0066824 136.221339,42.9283963 136.159525,41.8468465 C136.159525,41.6664202 136.159525,41.4679512 136.159525,41.2875248 L136.716425,41.774676 L136.716425,41.774676 C137.286899,42.2721756 137.810118,42.821831 138.279336,43.4165559 C138.519817,43.7265379 138.730353,44.05882 138.908094,44.4089008 C139.300528,45.1522011 139.584863,45.9481557 139.752425,46.7724861 Z" id="Path" fill="url(#linearGradient-4)"></path>
                        <path d="M144.96213,44.102176 C144.227737,44.1283097 143.498593,44.2372491 142.788426,44.4269435 C141.738267,45.1576641 140.725011,45.9404822 139.752425,46.7724861 C140.282484,46.1355628 140.668622,45.3907062 140.884189,44.5893272 L142.033917,41.1612264 L142.28542,39.7358582 L144.96213,44.102176 Z" id="Path" fill="url(#linearGradient-5)"></path>
                        <path d="M143.093822,33.0420403 C143.058466,32.7363432 143.058466,32.4275629 143.093822,32.1218659 C143.127125,31.7823923 143.096656,31.4396566 143.004,31.1114783 C142.924585,30.9154163 142.815514,30.7328404 142.680639,30.5701992 C141.850295,29.495273 140.863095,28.5524411 139.752425,27.7735907 C139.493676,27.5690634 139.202053,27.4104139 138.890129,27.3044821 C138.009076,27.1417878 137.099288,27.3155281 136.33917,27.7916333 C136.178835,27.8601031 136.032619,27.9580041 135.908022,28.0803155 C135.790362,28.2126854 135.687918,28.3579417 135.602626,28.5133387 C135.4682,28.7060179 135.317972,28.8870746 135.153513,29.0546178 C134.665025,29.6782272 134.326854,30.4069142 134.165466,31.1836488 C134.003972,31.960657 133.931643,32.7536893 133.949892,33.5472341 C133.922931,33.6106195 133.922931,33.6823176 133.949892,33.7457031 L134.057679,33.7457031 L134.237324,33.7457031 C134.227944,33.0344424 134.263947,32.3233088 134.345111,31.6166721 C134.384677,30.756794 134.75884,29.9469011 135.387052,29.3613426 C135.894162,29.0576313 136.46798,28.8841174 137.05775,28.8561488 L137.722437,28.8561488 C138.109064,28.7921987 138.503503,28.7921987 138.890129,28.8561488 C139.409868,28.9490711 139.876993,29.2318507 140.201538,29.6500248 C140.535745,30.0592134 140.753061,30.5518607 140.830295,31.075393 C140.854538,31.3842936 140.896525,31.6915301 140.956047,31.9955674 C141.045869,32.3203349 141.225514,32.6451023 141.297372,32.9879124 C141.335229,33.5988028 141.255948,34.2113118 141.063834,34.792176 C141.046401,34.893668 141.046401,34.9974087 141.063834,35.0989008 C141.092502,35.1974574 141.177717,35.2687788 141.279408,35.2793271 C141.423124,35.2793271 141.512946,35.1169434 141.512946,34.9726023 C141.505756,34.8283516 141.505756,34.6838298 141.512946,34.5395791 C141.56772,34.2393176 141.792714,33.9992212 142.08781,33.9261294 C142.281277,33.8348995 142.505137,33.8348995 142.698603,33.9261294 L142.698603,33.9261294 L143.021964,33.5833194 C143.079985,33.5289642 143.123263,33.4606602 143.147716,33.3848504 C143.154562,33.2680147 143.136178,33.1510734 143.093822,33.0420403 L143.093822,33.0420403 Z" id="Path" fill="#414042"></path>
                        <path d="M125.865867,36.1814589 C126.831464,36.1296891 127.761331,35.7974923 128.542578,35.2251992 C129.016783,34.9209687 129.352438,34.4412283 129.476732,33.8900442 C129.315559,33.6919724 129.135011,33.5106383 128.937797,33.3487651 C128.445478,32.9212907 128.005278,32.436782 127.626388,31.9053542 C127.994655,30.0592925 127.994655,28.1581988 127.626388,26.3121372 C127.338956,25.1574085 126.889844,24.038765 126.566483,22.8840364 C126.411033,22.2922222 126.302902,21.6888822 126.243122,21.0797728 C126.243122,20.8452185 126.11737,20.6287069 126.063477,20.37611 C126.009583,20.1235131 126.063477,19.780703 125.919761,19.4920208 C125.90783,19.1576864 125.988687,18.8266042 126.153299,18.5357611 C126.32119,18.2523703 126.453916,17.9494075 126.548518,17.6336294 C126.602004,17.1841628 126.602004,16.7298982 126.548518,16.2804317 C126.51908,15.6733934 126.579623,15.0653312 126.728163,14.4761681 C126.9139,13.6577192 127.210056,12.8685802 127.608424,12.1306254 C127.716211,11.9141138 127.949749,11.7697727 128.11143,11.5893464 C128.229181,11.4607766 128.315315,11.3062963 128.362933,11.1382805 C128.380379,11.0549932 128.380379,10.9689709 128.362933,10.8856836 C128.348967,10.794928 128.28706,10.7189346 128.201252,10.6872146 C128.057536,10.6872146 127.931785,10.6872146 127.823998,10.8856836 C127.716211,11.0841526 127.338956,11.40892 127.087453,11.6795595 C127.000525,11.7788409 126.904269,11.8694733 126.800021,11.9501991 C126.800021,11.9501991 126.584447,12.1125828 126.566483,12.2388813 C126.635271,11.7067897 126.749466,11.1816207 126.907808,10.6691719 C126.929463,10.4004253 126.977604,10.1344984 127.051524,9.87529597 C127.141347,9.65878434 127.285063,9.44227271 127.374885,9.20771845 C127.481342,8.98534893 127.481342,8.72642517 127.374885,8.50405565 C127.341536,8.48471762 127.300447,8.48471762 127.267098,8.50405565 C127.008862,8.5477533 126.780747,8.69830975 126.638341,8.91903628 C126.489021,9.14112098 126.390833,9.39382314 126.350909,9.65878434 C126.242984,9.12900708 126.242984,8.58276702 126.350909,8.05298976 C126.368029,7.92123576 126.368029,7.78780577 126.350909,7.65605177 C126.390117,7.57013602 126.390117,7.47132799 126.350909,7.38541224 C126.217511,7.2861666 126.035194,7.2861666 125.901796,7.38541224 C125.846031,7.41753078 125.797179,7.46046218 125.75808,7.51171069 C125.75808,7.6199665 125.75808,7.78235022 125.650293,7.94473395 C125.563102,8.11861262 125.490978,8.29970763 125.434719,8.48601302 L125.434719,8.03494712 C125.46017,7.92210659 125.46017,7.80497758 125.434719,7.69213705 C125.401512,7.57127914 125.290003,7.48915056 125.165252,7.49366805 C125.063637,7.48496176 124.961469,7.48496176 124.859855,7.49366805 L124.859855,9.87529597 C124.877862,10.0974543 124.877862,10.3207151 124.859855,10.5428735 C124.770811,10.8841013 124.734458,11.2370374 124.752068,11.5893464 C124.796534,11.900491 124.796534,12.2164188 124.752068,12.5275634 C124.59506,13.1793598 124.492901,13.8432621 124.446672,14.5122534 C124.446672,14.7107224 124.446672,14.9091914 124.446672,15.125703 C124.445644,15.9168053 124.318275,16.7026206 124.069417,17.453203 C123.990493,17.7863019 123.930514,18.1236436 123.889772,18.4635906 C123.767693,19.0578808 123.695581,19.6614278 123.674198,20.2678542 C123.674198,20.7910906 123.781985,21.2962844 123.79995,21.8195208 C123.817914,22.3427573 123.79995,22.9201216 123.79995,23.4614007 C123.79995,24.0026798 123.79995,24.2733193 123.79995,24.6702573 C123.827237,25.054679 123.827237,25.4405643 123.79995,25.824986 L123.638269,28.3329124 C123.522644,29.2092964 123.589942,30.1002587 123.835879,30.9490945 C124.356119,31.8137038 124.806669,32.7187215 125.183216,33.6554899 C125.183216,33.9261294 125.183216,34.2148116 125.308968,34.4854512 C125.320809,35.0941277 125.514867,35.6851191 125.865867,36.1814589 Z" id="Path" fill="url(#linearGradient-6)"></path>
                        <path d="M150.90838,56.0824862 C151.965949,57.3828963 152.797958,58.8528696 153.369516,60.4307614 C153.769553,61.2378192 154.244736,62.0050443 154.788712,62.7221761 C155.516336,63.6271333 156.302485,64.4830018 157.142061,65.2842304 C157.555245,65.699211 157.968428,66.1322343 158.363647,66.5652575 C158.760212,66.9542069 159.115425,67.3835254 159.423553,67.8462847 C159.586653,68.1580257 159.672902,68.5045195 159.675056,68.8566723 C159.677555,69.2971638 159.707555,69.7370645 159.764878,70.1737847 C159.764878,70.606808 160.05231,71.0037459 160.160097,71.4187266 C160.375671,72.2847731 160.160097,73.2229901 160.321778,74.0890367 C160.321778,74.3235909 160.501423,74.5942305 160.734961,74.6122731 C160.883638,74.6048869 161.015572,74.5142241 161.076287,74.3777188 C161.13941,74.2479954 161.176058,74.1069003 161.184074,73.9627382 C161.219897,73.3565798 161.297934,72.7536844 161.417612,72.1584746 C161.461585,72.0162632 161.528329,71.8821951 161.615222,71.7615366 C161.713082,71.6477817 161.862685,71.593144 162.010441,71.6171956 C162.159455,71.6835519 162.275878,71.8069777 162.333802,71.9600056 C162.586476,72.4682704 162.744757,73.018549 162.800879,73.5838429 C162.800879,74.1972925 162.800879,74.7746568 162.980524,75.3881064 C162.980524,75.6407033 163.142204,75.9113429 163.375743,75.9474281 C163.553278,75.9614569 163.719789,75.8596615 163.788926,75.6948312 C163.824558,75.5344193 163.824558,75.3680921 163.788926,75.2076801 C163.89678,74.4477158 163.89678,73.6762296 163.788926,72.9162653 C164.099947,73.6663379 164.270471,74.4676182 164.291932,75.2798506 C164.291488,75.4482486 164.328304,75.6146418 164.399719,75.7670018 C164.465629,75.9200073 164.641151,75.9921241 164.794938,75.9293855 C165.154228,75.7670018 165.136264,75.063339 165.190157,74.7205289 C165.273726,74.1133122 165.212146,73.4948376 165.010512,72.9162653 C164.514528,71.733612 163.913272,70.5983344 163.214062,69.5242498 C162.531411,68.3695211 161.830796,67.2147924 161.040358,66.1141916 C160.419042,65.2805665 159.883363,64.3859005 159.441517,63.4438816 C158.956476,62.433494 158.758866,61.3148505 158.219931,60.3044629 C157.145946,58.2234128 155.730947,56.3387076 154.034203,54.7292885 C153.886425,54.5598196 153.681883,54.4506841 153.459339,54.4225637 C153.267325,54.4505079 153.086895,54.5317425 152.938368,54.6571179 L150.90838,56.0824862 Z" id="Path" fill="url(#linearGradient-7)"></path>
                        <path d="M134.686436,90.5439205 C133.824194,91.1953377 132.728197,91.4508722 131.668401,91.2475833 C130.913496,91.26315 130.17673,91.0143667 129.584519,90.5439205 C129.584519,91.9512461 129.584519,93.3585717 129.458767,94.7839399 C129.450986,96.1550236 129.150831,97.5085221 128.578507,98.7533197 C128.369686,99.0737445 128.177799,99.4049842 128.003643,99.7456647 L127.895856,100.05239 C128.622884,100.202917 129.301666,100.531389 129.871951,101.008649 C130.055262,101.202486 130.293654,101.334802 130.554602,101.387593 C130.75208,101.38949 130.945761,101.333015 131.111501,101.225161 C131.496298,100.999454 131.793843,100.649749 131.955833,100.232816 C132.089064,99.800949 131.963255,99.3306231 131.632472,99.0239593 C131.456756,98.6089173 131.456756,98.1399315 131.632472,97.7248895 C132.351052,96.5701608 132.656448,95.3071763 133.428921,94.1163624 C133.806934,93.6206163 134.154878,93.1024562 134.470862,92.5646957 C134.788416,91.8710384 134.918529,91.1056348 134.848117,90.3454515 C134.802679,90.4181234 134.748363,90.4847979 134.686436,90.5439205 L134.686436,90.5439205 Z" id="Path" fill="url(#linearGradient-8)"></path>
                        <path d="M155.93844,104.508921 C155.612981,103.378412 155.216978,102.269604 154.752783,101.189076 C154.412692,100.046409 154.178162,98.8746982 154.052167,97.6888042 C153.818629,95.8845407 153.710842,94.0802771 153.351552,92.2760135 C153.233598,91.6068171 153.009166,90.9610516 152.686865,90.3634941 C152.510312,90.0429942 152.279277,89.7559974 152.004214,89.5154902 C151.538172,89.7421211 151.042043,89.9001145 150.531125,89.9845988 C149.459387,90.1479063 148.369253,90.1479063 147.297515,89.9845988 C147.242192,91.4586911 147.557272,92.9230492 148.213705,94.2426608 C148.896356,95.7221569 149.794581,97.0753546 150.54909,98.5007228 C151.405047,100.186431 152.160879,101.92156 152.812617,103.697002 C152.812617,103.697002 153.153942,104.743475 153.010226,104.815645 C152.564935,105.302275 152.420201,105.994485 152.632972,106.619909 C152.700147,106.946666 152.967809,107.193695 153.297658,107.233359 C153.621019,107.233359 153.854558,106.944676 154.124025,106.746207 C154.452823,106.53926 154.831871,106.426924 155.21986,106.42144 C155.489327,106.42144 155.776759,106.42144 156.064191,106.42144 C156.104223,105.781155 156.061958,105.138358 155.93844,104.508921 L155.93844,104.508921 Z" id="Path" fill="url(#linearGradient-9)"></path>
                        <path d="M129.871951,104.617176 C128.347753,105.820286 126.40421,106.353831 124.482601,106.096673 C124.031664,106.027535 123.608732,105.833889 123.261015,105.537351 C123.023421,105.323375 122.875714,105.026677 122.847831,104.70739 C122.542435,105.032157 122.344825,105.338882 122.416683,105.555393 C122.72208,106.49361 123.997559,106.782293 124.967642,106.980762 C125.936627,107.189419 126.945998,107.094969 127.859927,106.710122 C128.979803,106.136304 129.97988,105.352361 130.806105,104.400665 L133.051667,102.10925 C133.07913,101.881542 133.07913,101.651338 133.051667,101.42363 C132.135547,102.623374 131.066499,103.697071 129.871951,104.617176 Z" id="Path" fill="#E6E7E8"></path>
                        <path d="M124.392778,106.096673 C126.314388,106.353831 128.25793,105.820286 129.782128,104.617176 C131.008349,103.703217 132.107868,102.629253 133.051688,101.42363 C133.053119,101.05188 132.979795,100.683665 132.836093,100.341072 C132.58069,99.787229 132.160042,99.3269173 131.632472,99.0239593 C131.963255,99.3306231 132.089064,99.800949 131.955833,100.232816 C131.793843,100.649749 131.496298,100.999454 131.111501,101.225161 C130.945761,101.333015 130.75208,101.38949 130.554602,101.387545 C130.293654,101.334802 130.055262,101.202486 129.871951,101.008649 C129.237311,100.484882 128.474125,100.142135 127.662317,100.016304 C127.491639,100.725835 127.094088,101.359613 126.530554,101.820568 C125.973654,102.289676 125.344897,102.650529 124.734104,103.06551 C123.990242,103.553434 123.292672,104.109085 122.650222,104.725432 C122.678105,105.04472 122.825811,105.341417 123.063405,105.555393 C123.443185,105.864393 123.90597,106.052824 124.392778,106.096673 L124.392778,106.096673 Z" id="Path" fill="#58595B"></path>
                        <path d="M152.561114,107.630297 C152.561114,107.973107 152.722794,108.315917 152.812617,108.658727 C152.902439,109.001537 153.010226,109.163921 153.082084,109.43456 C153.261729,110.066052 153.2258,110.73363 153.42341,111.34708 C153.720912,112.118993 154.209342,112.802043 154.842605,113.331769 C155.413648,113.920837 156.167854,114.296397 156.980381,114.396285 C157.672269,114.49381 158.361773,114.202958 158.776831,113.638494 C158.970077,113.273436 159.05134,112.859073 159.010369,112.44768 C158.866676,112.006302 158.673834,111.582624 158.435505,111.184696 C158.076215,110.571246 157.645067,109.993882 157.303742,109.380432 C156.813537,108.453885 156.496901,107.444807 156.369588,106.403397 C155.987183,106.367409 155.602265,106.367409 155.21986,106.403397 C154.831871,106.408881 154.452823,106.521218 154.124025,106.728165 C153.854558,106.926634 153.621019,107.215316 153.297658,107.215316 C152.967809,107.175653 152.700147,106.928624 152.632972,106.601866 C152.614143,106.482325 152.614143,106.360555 152.632972,106.241014 C152.542196,106.388609 152.486845,106.555386 152.471291,106.728165 C152.460464,107.031572 152.490681,107.335051 152.561114,107.630297 L152.561114,107.630297 Z" id="Path" fill="#58595B"></path>
                        <path d="M159.207979,113.169386 C159.167214,112.92442 159.107143,112.683093 159.028334,112.44768 C159.069305,112.859073 158.988041,113.273436 158.794795,113.638494 C158.379738,114.202958 157.690234,114.49381 156.998345,114.396285 C156.185818,114.296397 155.431612,113.920837 154.86057,113.331769 C154.227306,112.802043 153.738877,112.118993 153.441374,111.34708 C153.243765,110.73363 153.279694,110.066052 153.100049,109.43456 C153.100049,109.163921 152.884475,108.947409 152.830581,108.658727 C152.776688,108.370045 152.650936,107.973107 152.579078,107.630297 C152.493231,107.325096 152.450893,107.009215 152.453327,106.692079 C152.46888,106.519301 152.524232,106.352524 152.615007,106.204928 C152.558163,105.701579 152.714625,105.197416 153.046155,104.815645 C152.792641,104.883319 152.578158,105.053041 152.453327,105.284754 C152.061291,105.979871 151.939684,106.796253 152.112001,107.576169 C152.219788,108.352002 152.471291,109.109793 152.543149,109.903669 C152.539915,110.581423 152.600061,111.257985 152.722794,111.924444 C152.831252,112.22784 153.002713,112.504601 153.2258,112.736362 L153.94438,113.548281 C154.506913,114.135177 155.186394,114.596283 155.93844,114.901479 C156.697419,115.218229 157.550774,115.218229 158.309754,114.901479 C158.626196,114.766242 158.89079,114.532134 159.064263,114.233901 C159.218674,113.901949 159.268802,113.530649 159.207979,113.169386 Z" id="Path" fill="#E6E7E8"></path>
                        <path d="M153.549161,104.256324 C153.549161,112.772448 142.105775,119.682777 128.003643,119.682777 C113.90151,119.682777 102.512017,112.772448 102.512017,104.256324 C102.512017,95.7401996 113.955404,88.8479127 128.075501,88.8479127 C142.195597,88.8479127 153.549161,95.7401996 153.549161,104.256324 Z" id="Path" fill="url(#radialGradient-10)" style="mix-blend-mode: multiply;"></path>
                        <ellipse id="Oval" fill="url(#radialGradient-11)" style="mix-blend-mode: multiply;" cx="155.615079" cy="111.274909" rx="25.5455186" ry="15.4084109"></ellipse>
                        <ellipse id="Oval" fill="url(#radialGradient-12)" style="mix-blend-mode: multiply;" transform="translate(112.100352, 126.005538) rotate(-30.000000) translate(-112.100352, -126.005538) " cx="112.100352" cy="126.005538" rx="85.3342711" ry="38.281412"></ellipse>
                        <path d="M130.42885,113.891091 C132.836093,118.095025 127.231169,125.871401 117.8537,131.266149 C108.476231,136.660897 99.00894,137.671285 96.601697,133.467351 C94.194454,129.263417 99.799378,121.505083 109.176847,116.092293 C118.554316,110.679502 128.021607,109.7052 130.42885,113.891091 Z" id="Path" fill="url(#radialGradient-13)" style="mix-blend-mode: multiply;"></path>
                        <g id="Group" transform="translate(105.655805, 75.614403)">
                            <path d="M11.9284278,3.41831541 L11.9284278,46.9371529 C11.824423,48.0203512 11.1333688,48.957332 10.1319779,49.3729087 C7.51648589,50.7247872 4.41194194,50.7247872 1.79644997,49.3729087 C0.808055076,48.9601794 0.120310851,48.0415011 0,46.9732381 L0,3.43635805 C0.11031987,4.51283625 0.800349896,5.44149818 1.79644997,5.85407124 C4.4224576,7.18848026 7.52393473,7.18848026 10.1499424,5.85407124 C11.1368456,5.42380995 11.8164816,4.49300262 11.9284278,3.41831541 L11.9284278,3.41831541 Z" id="Path" fill="url(#linearGradient-14)"></path>
                            <path d="M1.86830797,1.00060222 C4.48805078,-0.333534073 7.58409305,-0.333534073 10.2038359,1.00060222 C12.5032918,2.33575727 12.4853273,4.51891619 10.2038359,5.85407124 C7.57782823,7.18848026 4.4763511,7.18848026 1.85034347,5.85407124 C-0.467076993,4.51891619 -0.449112494,2.33575727 1.86830797,1.00060222 Z" id="Path" fill="url(#linearGradient-15)"></path>
                        </g>
                        <ellipse id="Oval" fill="url(#linearGradient-16)" transform="translate(44.587655, 100.660154) rotate(-30.160000) translate(-44.587655, -100.660154) " cx="44.587655" cy="100.660154" rx="25.7715314" ry="44.5887126"></ellipse>
                        <polygon id="Path" fill="url(#linearGradient-17)" points="44.7202217 93.0698895 63.3673725 74.86487 76.9305698 94.6395988 51.4569091 103.462448"></polygon>
                        <polygon id="Path" fill="url(#linearGradient-18)" style="mix-blend-mode: multiply;" points="44.7202217 93.0698895 63.3673725 74.86487 76.9305698 94.6395988 51.4569091 103.462448"></polygon>
                        <path d="M53.2174301,100.73801 C53.2174301,103.354192 51.1155836,104.238281 48.5286957,102.740742 C45.8792941,101.151113 44.1390861,98.3921702 43.8399612,95.3071763 C43.8399612,92.7090368 45.9238432,91.806905 48.5286957,93.3044437 C51.1719357,94.9004166 52.909962,97.6559008 53.2174301,100.73801 Z" id="Path" fill="#231F20"></path>
                        <path d="M50.8640806,102.37989 C50.2258104,102.345695 49.6070908,102.146844 49.0676307,101.802525 C46.7443323,100.410237 45.2025013,98.0073343 44.8998667,95.3071763 C44.8998667,94.2065755 45.3310147,93.6652965 46.1753462,93.6652965 C46.8126091,93.7049379 47.4300076,93.9033647 47.9717962,94.2426608 C50.3166562,95.6248101 51.8846803,98.0271148 52.2114181,100.73801 C52.2114181,101.83861 51.7084121,102.37989 50.8640806,102.37989 Z" id="Path" fill="#58595B"></path>
                        <path d="M45.8519852,135.000975 C28.4264204,124.554289 14.6117201,99.9441337 14.9710101,80.0250638 C15.0967616,72.5554126 17.2165726,66.8178544 20.7016856,63.1010715 C16.0848091,66.7095986 13.2284537,73.0064785 13.0667732,81.7391142 C12.7074832,101.586014 26.5221835,126.268339 43.9477482,136.715025 C54.8342351,143.264502 64.5530294,142.70518 70.3914919,136.498514 C64.4632069,141.027215 55.6246731,140.882874 45.8519852,135.000975 Z" id="Path" fill="url(#linearGradient-19)" style="mix-blend-mode: multiply;"></path>
                        <g id="Group" transform="translate(94.930999, 38.921831)">
                            <path d="M27.1443591,1.80637253 C23.5514592,-0.304615856 20.2100622,-0.503084849 17.8387483,0.886198104 L3.82643845,9.05951211 C6.19775241,7.67022915 9.50322037,7.86869815 13.1320493,9.97968653 C20.8520657,15.009639 25.7074511,23.4479357 26.1922406,32.6773223 C26.1922406,36.8271285 24.7191517,39.7319929 22.3658022,41.1032332 L36.3242185,32.9299192 C38.677568,31.5586789 40.1326924,28.6357719 40.1506569,24.5040083 C39.6780304,15.2846974 34.8438376,6.84841927 27.1443591,1.80637253 L27.1443591,1.80637253 Z" id="Path" fill="url(#linearGradient-20)"></path>
                            <path d="M13.1320493,9.97968653 C5.94624942,5.79379503 0.0359289995,9.14972528 0,17.5034656 C0.490417894,26.7263635 5.34513216,35.156787 13.0601913,40.1830588 C20.2459912,44.3869929 26.1563116,41.01302 26.1922406,32.6773223 C25.7074511,23.4479357 20.8520657,15.009639 13.1320493,9.97968653 L13.1320493,9.97968653 Z" id="Path" fill="#D7DF23"></path>
                        </g>
                        <path d="M84.6553047,54.9638427 C83.8613411,54.482114 83.0395063,54.0483222 82.1941682,53.664773 C80.9186887,54.1158389 79.2120612,54.6571179 77.9365818,55.0540559 C76.6611023,55.4509939 74.9724393,55.9201024 73.6789953,56.2448699 C72.3855513,56.5696373 70.8585689,56.9485327 69.6369829,57.2191722 C68.4153969,57.4898118 66.6728404,57.8687071 65.3973609,58.1032614 C64.1218815,58.3378156 62.594899,58.6084552 61.3912775,58.7888815 L57.4750165,59.4023311 C56.2713951,59.5466722 54.6545901,59.7451412 53.4509686,59.853397 C52.2473471,59.9616529 50.7562936,60.1059939 49.5886012,60.1781645 L46.1214527,60.3766335 C45.0974762,60.3766335 43.7142097,60.4668467 42.6722688,60.4668467 C41.0015703,60.4668467 38.7560078,60.4668467 37.0853093,60.4668467 L34.6960309,60.3225056 L32.8995809,60.1601218 L32.7738294,60.1601218 C37.2139942,60.7511339 41.4736933,62.3023757 45.2591567,64.7068661 C62.6847215,75.1535522 76.4994218,99.78175 76.1401318,119.70082 C76.1557939,123.643328 75.3925402,127.549786 73.8945693,131.193979 L73.8945693,131.193979 C74.6131493,129.534056 75.3856228,127.98239 75.7988063,127.224599 C76.5712798,125.709018 77.5952563,123.74237 78.5294103,122.280917 C79.0503807,121.378785 79.7869252,120.206014 80.3258602,119.339967 C80.8647952,118.473921 81.6552332,117.283107 82.2300972,116.399018 C82.8049612,115.514928 83.7570797,114.143688 84.4217662,113.187428 C85.0864527,112.231169 86.0924646,110.859928 86.8290091,109.885626 C87.5655536,108.911324 88.5356366,107.684424 89.2542166,106.728165 C89.9727966,105.771905 91.0506666,104.526963 91.8590691,103.588746 C92.6674716,102.650529 93.871093,101.243203 94.769318,100.268901 C95.667543,99.2945988 96.745413,98.1218275 97.607709,97.2196957 C98.470005,96.3175639 99.8532715,94.9824089 100.841319,94.0441918 C101.829366,93.1059748 103.248562,91.8249476 104.308467,90.9047732 L104.793509,90.4897926 C104.775544,77.4449669 95.8651525,61.6937459 84.6553047,54.9638427 Z" id="Path" fill="url(#linearGradient-21)"></path>
                        <path d="M115.087167,42.5505093 C110.182859,39.5915171 105.763592,39.6817303 102.943165,42.2257419 C102.009011,43.0376605 100.733532,44.0300055 99.7454845,44.8238814 C98.757437,45.6177574 97.9490345,46.086866 97.140632,46.628145 C96.0447975,47.3318078 94.5357795,48.215897 93.3860515,48.8293466 C92.2363236,49.4427962 91.1045601,50.0021179 90.1165126,50.4892691 C89.1284651,50.9764202 87.2601571,51.7702962 86.0026421,52.2935327 C84.7451272,52.8167691 83.4337187,53.3039203 82.3019552,53.7008582 L82.3019552,53.7008582 C83.1472933,54.0844074 83.9691281,54.5181992 84.7630917,54.999928 C95.8651525,61.6937459 104.775544,77.4449669 104.811473,90.2913236 C105.63784,89.6057034 106.607923,88.7937848 107.398361,88.1983778 C108.51216,87.3142887 110.039143,86.1956453 111.206835,85.3837266 C113.181829,84.01608 115.233136,82.7630753 117.350694,81.6308584 C118.482458,81.0354514 120.027405,80.2957034 121.195097,79.8265948 C122.021464,79.4657421 123.153228,79.0868468 123.997559,78.7620793 C127.410814,77.6253933 129.638412,74.1251219 129.728235,68.7845017 C129.90788,59.2579901 123.314908,47.5302768 115.087167,42.5505093 Z" id="Path" fill="url(#linearGradient-22)"></path>
                        <path d="M47.1454292,63.6603932 C45.0020326,62.345612 42.7257584,61.2630055 40.3548483,60.4307614 L37.0853093,60.4307614 L34.6960309,60.2864203 L32.8995809,60.1240366 L32.7738294,60.1240366 C37.2139942,60.7150486 41.4736933,62.2662905 45.2591567,64.6707808 C62.6847215,75.1174669 76.4994218,99.7456647 76.1401318,119.664735 C76.1557939,123.607243 75.3925402,127.513701 73.8945693,131.157894 L73.8945693,131.157894 C74.6131493,129.497971 75.3856228,127.964347 75.7988063,127.188514 C76.2119898,126.41268 76.9485343,125.04144 77.5952563,123.922797 C77.8701465,122.228168 78.0202576,120.515489 78.0443688,118.798688 C78.3856943,98.7172345 64.5709939,74.1070793 47.1454292,63.6603932 Z" id="Path" fill="url(#linearGradient-23)" style="mix-blend-mode: screen;"></path>
                        <path d="M171.980738,13.5199084 C175.854107,16.0402119 178.286681,20.2754611 178.519816,24.9048116 L178.519816,35.1891139 C178.519816,39.3569628 175.537709,41.0529706 171.926844,38.9600248 L162.711056,33.5472341 L154.609067,38.2744047 L154.609067,28.9102767 L152.632972,27.755548 C148.759603,25.2352446 146.327028,20.9999954 146.093894,16.3706448 L146.093894,6.08634246 C146.093894,1.9184936 149.058036,0.222485839 152.668901,2.31543159 L171.980738,13.5199084 Z" id="Path" fill="url(#linearGradient-24)"></path>
                        <path d="M171.280122,28.350955 C172.465779,29.0365752 173.435862,28.4772534 173.453827,27.1060131 C173.380449,25.5647425 172.570985,24.1537762 171.280122,23.3170596 C170.094465,22.6133968 169.106418,23.1727185 169.106418,24.5620015 C169.196826,26.0885661 170.003538,27.4813418 171.280122,28.3148697 L171.280122,28.350955 Z" id="Path" fill="#FFFFFF"></path>
                        <path d="M162.279908,23.1366333 C163.48353,23.8222534 164.453613,23.2809743 164.453613,21.8916914 C164.375864,20.3659017 163.574119,18.9701644 162.297873,18.1388232 C161.112216,17.453203 160.124168,18.0125247 160.124168,19.383765 C160.210501,20.9069946 161.010166,22.2991095 162.279908,23.1366333 L162.279908,23.1366333 Z" id="Path" fill="#FFFFFF"></path>
                        <path d="M153.297658,17.9042689 C154.50128,18.6079317 155.471363,18.04861 155.471363,16.659327 C155.387864,15.1352491 154.587515,13.7419427 153.315623,12.9064588 C152.112001,12.2208386 151.141918,12.7801603 151.141918,14.1514006 C151.219666,15.6771903 152.021412,17.0729276 153.297658,17.9042689 L153.297658,17.9042689 Z" id="Path" fill="#FFFFFF"></path>
                        <path d="M174.370016,12.0945402 L155.058179,0.890063362 C153.700486,-0.106714083 151.909336,-0.279689133 150.387409,0.438997468 L147.926273,1.86436569 C149.450873,1.16136104 151.233751,1.33353722 152.597043,2.31543159 L171.90888,13.5199084 C175.782249,16.0402119 178.214823,20.2754611 178.447958,24.9048116 L178.447958,35.1891139 C178.609107,36.8410967 177.875282,38.4528911 176.525756,39.4110907 L178.986893,37.9676799 C180.326685,37.0110264 181.053387,35.406707 180.89113,33.7637457 L180.89113,23.4614007 C180.656396,18.8419019 178.231565,14.6152135 174.370016,12.0945402 Z" id="Path" fill="url(#linearGradient-25)"></path>
                    </g>
                </g>
            </g>
        </g>
    </g>
</svg>