<?xml version="1.0" encoding="UTF-8"?>
<svg width="18px" height="18px" viewBox="0 0 18 18" version="1.1" xmlns="http://www.w3.org/2000/svg" xmlns:xlink="http://www.w3.org/1999/xlink">
    <title>Shape</title>
    <g id="Page-1" stroke="none" stroke-width="1" fill="none" fill-rule="evenodd">
        <g id="Mining-Provider-Windows-Dashboard-Design-07" transform="translate(-395.000000, -258.000000)" fill="#FFFFFF" fill-rule="nonzero">
            <g id="Mining-app-design" transform="translate(320.000000, 160.000000)">
                <g id="dashboard_black_24dp" transform="translate(68.000000, 91.000000)">
                    <path d="M8,17 L14,17 C14.55,17 15,16.55 15,16 L15,8 C15,7.45 14.55,7 14,7 L8,7 C7.45,7 7,7.45 7,8 L7,16 C7,16.55 7.45,17 8,17 Z M8,25 L14,25 C14.55,25 15,24.55 15,24 L15,20 C15,19.45 14.55,19 14,19 L8,19 C7.45,19 7,19.45 7,20 L7,24 C7,24.55 7.45,25 8,25 Z M18,25 L24,25 C24.55,25 25,24.55 25,24 L25,16 C25,15.45 24.55,15 24,15 L18,15 C17.45,15 17,15.45 17,16 L17,24 C17,24.55 17.45,25 18,25 Z M17,8 L17,12 C17,12.55 17.45,13 18,13 L24,13 C24.55,13 25,12.55 25,12 L25,8 C25,7.45 24.55,7 24,7 L18,7 C17.45,7 17,7.45 17,8 Z" id="Shape"></path>
                </g>
            </g>
        </g>
    </g>
</svg>