<?xml version="1.0" encoding="UTF-8"?>
<svg width="20px" height="20px" viewBox="0 0 20 20" version="1.1" xmlns="http://www.w3.org/2000/svg" xmlns:xlink="http://www.w3.org/1999/xlink">
    <title>error</title>
    <g id="Page-1" stroke="none" stroke-width="1" fill="none" fill-rule="evenodd">
        <g id="Mining-Provider-Windows-Wallet-Design-Copy" transform="translate(-986.000000, -714.000000)" fill-rule="nonzero">
            <g id="Mining-app-design" transform="translate(320.000000, 160.000000)">
                <g id="Group-3" transform="translate(429.000000, 299.000000)">
                    <g id="Card-List" transform="translate(153.000000, 76.000000)">
                        <g id="Group-5-Copy" transform="translate(0.000000, 119.000000)">
                            <g id="error" transform="translate(84.000000, 60.000000)">
                                <path d="M20,10 C20,4.47708129 15.5229302,0 10,0 C4.47722243,0 0,4.47708129 0,10 C0,15.5229187 4.47722243,20 10,20 C15.5229302,20 20,15.5229187 20,10 Z" id="Path" fill="#F36986"></path>
                                <path d="M16.1689432,2.12905883 C17.50248,3.82827758 18.2979016,5.97015383 18.2979016,8.29788207 C18.2979016,13.8206482 13.8206791,18.2978821 8.29790157,18.2978821 C5.97008777,18.2978821 3.8283098,17.5024414 2.12895843,16.1688232 C3.95971002,18.5014343 6.80488363,20 10,20 C15.5229302,20 20,15.5229187 20,10 C20,6.80480957 18.501488,3.95965578 16.1689432,2.12905883 Z" id="Path" fill="#FC476E"></path>
                                <path d="M10.6350248,11.6796875 L9.36497521,11.6796875 C9.11346815,11.6796875 8.90957651,11.4758301 8.90957651,11.2242127 L8.90957651,5.47424316 C8.90957651,5.22262574 9.11346815,5.01876832 9.36497521,5.01876832 L10.6350248,5.01876832 C10.8865319,5.01876832 11.0905761,5.22262574 11.0905761,5.47424316 L11.0905761,11.2242127 C11.0905761,11.4758301 10.8866845,11.6796875 10.6350248,11.6796875 L10.6350248,11.6796875 Z" id="Path" fill="#FFD2E3"></path>
                                <path d="M10.6351774,5.01876832 L9.8121328,5.01876832 C10.0636399,5.01876832 10.2675315,5.22262574 10.2675315,5.47424316 L10.2675315,11.2242127 C10.2675315,11.4758301 10.0636399,11.6796875 9.8121328,11.6796875 L10.6351774,11.6796875 C10.8866845,11.6796875 11.0905761,11.4756775 11.0905761,11.2242127 L11.0905761,5.47424316 C11.0905761,5.22262574 10.8866845,5.01876832 10.6351774,5.01876832 L10.6351774,5.01876832 Z" id="Path" fill="#FFBBD7"></path>
                                <path d="M10,15.3048706 C9.39778712,15.3048706 8.90957651,14.8165894 8.90957651,14.2144775 L8.90957651,14.2141723 C8.90957651,13.6120605 9.39778712,13.1237793 10,13.1237793 C10.6022129,13.1237793 11.0905761,13.6120605 11.0905761,14.2141723 L11.0905761,14.2144775 C11.0905761,14.8165894 10.6022129,15.3048706 10,15.3048706 L10,15.3048706 Z" id="Path" fill="#FFD2E3"></path>
                                <path d="M10,13.1237793 C9.91224726,13.1237793 9.8269363,13.1344605 9.74513546,13.1539917 C10.2244945,13.2688904 10.580847,13.6997986 10.580847,14.214325 C10.580847,14.7286987 10.2244945,15.1597595 9.74513546,15.2745056 C9.8269363,15.2941895 9.91224726,15.3048706 10,15.3048706 C10.6023655,15.3048706 11.0905761,14.8165894 11.0905761,14.214325 C11.0905761,13.6120605 10.6022129,13.1237793 10,13.1237793 L10,13.1237793 Z" id="Path" fill="#FFBBD7"></path>
                            </g>
                        </g>
                    </g>
                </g>
            </g>
        </g>
    </g>
</svg>