<?xml version="1.0" encoding="UTF-8"?>
<svg width="25px" height="25px" viewBox="0 0 25 25" version="1.1" xmlns="http://www.w3.org/2000/svg" xmlns:xlink="http://www.w3.org/1999/xlink">
    <title>checked</title>
    <g id="Page-1" stroke="none" stroke-width="1" fill="none" fill-rule="evenodd">
        <g id="Mining-Provider-Windows-Dashboard-Design-07-Copy" transform="translate(-595.000000, -370.000000)" fill-rule="nonzero">
            <g id="Mining-app-design" transform="translate(320.000000, 160.000000)">
                <g id="checked" transform="translate(275.000000, 210.000000)">
                    <circle id="Oval" fill="#04C4BB" cx="12.5" cy="12.5" r="12.5"></circle>
                    <path d="M9.30599369,18.1388013 L15.7334385,24.5662461 C21.0567823,23.1466877 25,18.29653 25,12.5 C25,12.3817035 25,12.2634069 25,12.1451104 L19.9526814,7.49211356 L9.30599369,18.1388013 Z" id="Path" fill="#0396C7"></path>
                    <g id="Group" transform="translate(4.199527, 6.171136)" fill="#FFFFFF">
                        <path d="M8.6159306,9.1285489 C9.16798107,9.68059937 9.16798107,10.6269716 8.6159306,11.1790221 L7.47239748,12.3225552 C6.920347,12.8746057 5.97397476,12.8746057 5.42192429,12.3225552 L0.414037855,7.27523659 C-0.138012618,6.72318612 -0.138012618,5.77681388 0.414037855,5.22476341 L1.55757098,4.08123028 C2.10962145,3.52917981 3.05599369,3.52917981 3.60804416,4.08123028 L8.6159306,9.1285489 Z" id="Path"></path>
                        <path d="M12.9929022,0.414037855 C13.5449527,-0.138012618 14.4913249,-0.138012618 15.0433754,0.414037855 L16.1869085,1.55757098 C16.738959,2.10962145 16.738959,3.05599369 16.1869085,3.60804416 L7.51182965,12.2436909 C6.95977918,12.7957413 6.01340694,12.7957413 5.46135647,12.2436909 L4.31782334,11.1001577 C3.76577287,10.5481073 3.76577287,9.60173502 4.31782334,9.04968454 L12.9929022,0.414037855 Z" id="Path"></path>
                    </g>
                </g>
            </g>
        </g>
    </g>
</svg>